<?xml version="1.0" encoding="iso-8859-1"?>
<svg version="1.1" xmlns="http://www.w3.org/2000/svg" xmlns:xlink="http://www.w3.org/1999/xlink" x="0px" y="0px"
	 viewBox="0 0 97 97" style="enable-background:new 0 0 97 97;" xml:space="preserve">
<g id="Capa_1">
	<g>
		<linearGradient id="XMLID_4_" gradientUnits="userSpaceOnUse" x1="-4.4706" y1="101.4706" x2="45.0262" y2="51.9738">
			<stop  offset="0" style="stop-color:#32A5AE"/>
			<stop  offset="1" style="stop-color:#FFFFFF"/>
		</linearGradient>
		<circle id="XMLID_3_" style="fill:url(#XMLID_4_);" cx="48.5" cy="48.5" r="48.5"/>
		<path id="XMLID_2_" style="fill:#028189;" d="M48.5,2C74.14,2,95,22.86,95,48.5S74.14,95,48.5,95S2,74.14,2,48.5S22.86,2,48.5,2
			 M48.5,0C21.714,0,0,21.714,0,48.5S21.714,97,48.5,97S97,75.286,97,48.5S75.286,0,48.5,0L48.5,0z"/>
	</g>
	<g>
		<linearGradient id="text1314_3_" gradientUnits="userSpaceOnUse" x1="26.2271" y1="70.7106" x2="69.9238" y2="27.0139">
			<stop  offset="0" style="stop-color:#036973"/>
			<stop  offset="1" style="stop-color:#32A5AE"/>
		</linearGradient>
		<path id="text1314_2_" style="fill:url(#text1314_3_);" d="M57.622,82V58.535L82,58.43V39.536H56.932L56.91,14l-17.671,0.207
			l0.011,25.904l-25.16,0.236L14,58.484l25.272-0.064l0.373,23.506L57.622,82z"/>
		<path id="text1314_1_" style="fill:#028189;" d="M54.912,16.023l0.021,23.514c0.001,1.104,0.896,1.998,2,1.998H80v14.903
			l-22.386,0.096c-1.101,0.005-1.991,0.899-1.991,2v21.457l-14.008-0.059l-0.342-21.546c-0.017-1.092-0.908-1.968-2-1.968
			c-0.002,0-0.004,0-0.005,0L16.01,56.478l0.07-14.15l23.188-0.217c1.098-0.01,1.982-0.903,1.981-2.001l-0.01-23.927L54.912,16.023
			 M56.91,14l-17.671,0.207l0.011,25.904l-25.16,0.236L14,58.484l25.272-0.064l0.373,23.506L57.622,82V58.535L82,58.43V39.536
			H56.932L56.91,14L56.91,14z"/>
	</g>
</g>
<g id="Capa_2">
	<rect x="0" style="fill-rule:evenodd;clip-rule:evenodd;fill:none;" width="97" height="97"/>
</g>
</svg>
