<svg width="48" height="48" viewBox="0 0 48 48" fill="none" xmlns="http://www.w3.org/2000/svg">
<g filter="url(#filter0_d_544_3778)">
<mask id="path-1-outside-1_544_3778" maskUnits="userSpaceOnUse" x="4" y="0" width="40" height="40" fill="black">
<rect fill="white" x="4" width="40" height="40"/>
<path d="M24 4C32.8125 4 40 11.1875 40 20C40 28.875 32.8125 36 24 36C15.125 36 8 28.875 8 20C8 11.1875 15.125 4 24 4ZM27.375 25.625L21.8125 20L27.375 14.4375C28.1875 13.6875 28.1875 12.375 27.375 11.625C26.625 10.8125 25.3125 10.8125 24.5625 11.625L17.5625 18.625C17.1875 19 17 19.5 17 20C17 20.5625 17.1875 21.0625 17.5625 21.4375L24.5625 28.4375C25.3125 29.25 26.625 29.25 27.375 28.4375C28.1875 27.6875 28.1875 26.375 27.375 25.625Z"/>
</mask>
<path d="M24 4C32.8125 4 40 11.1875 40 20C40 28.875 32.8125 36 24 36C15.125 36 8 28.875 8 20C8 11.1875 15.125 4 24 4ZM27.375 25.625L21.8125 20L27.375 14.4375C28.1875 13.6875 28.1875 12.375 27.375 11.625C26.625 10.8125 25.3125 10.8125 24.5625 11.625L17.5625 18.625C17.1875 19 17 19.5 17 20C17 20.5625 17.1875 21.0625 17.5625 21.4375L24.5625 28.4375C25.3125 29.25 26.625 29.25 27.375 28.4375C28.1875 27.6875 28.1875 26.375 27.375 25.625Z" fill="#007D7A"/>
<path d="M27.375 25.625L24.5308 28.4376L24.5949 28.5024L24.6619 28.5642L27.375 25.625ZM21.8125 20L18.9841 17.1716L16.1714 19.9842L18.9683 22.8126L21.8125 20ZM27.375 14.4375L24.6619 11.4983L24.6031 11.5525L24.5466 11.6091L27.375 14.4375ZM27.375 11.625L24.4358 14.3381L24.5443 14.4557L24.6619 14.5642L27.375 11.625ZM24.5625 11.625L27.3909 14.4534L27.4475 14.3969L27.5017 14.3381L24.5625 11.625ZM24.5625 28.4375L27.5017 25.7244L27.4475 25.6656L27.3909 25.6091L24.5625 28.4375ZM27.375 28.4375L24.6619 25.4983L24.5443 25.6068L24.4358 25.7244L27.375 28.4375ZM24 8C30.6034 8 36 13.3966 36 20H44C44 8.97836 35.0216 0 24 0V8ZM36 20C36 26.6557 30.6135 32 24 32V40C35.0115 40 44 31.0943 44 20H36ZM24 32C17.3341 32 12 26.6659 12 20H4C4 31.0841 12.9159 40 24 40V32ZM12 20C12 13.3865 17.3443 8 24 8V0C12.9057 0 4 8.98855 4 20H12ZM30.2192 22.8124L24.6567 17.1874L18.9683 22.8126L24.5308 28.4376L30.2192 22.8124ZM24.6409 22.8284L30.2034 17.2659L24.5466 11.6091L18.9841 17.1716L24.6409 22.8284ZM30.0881 17.3767C32.6165 15.0429 32.6165 11.0196 30.0881 8.68579L24.6619 14.5642C23.7585 13.7304 23.7585 12.3321 24.6619 11.4983L30.0881 17.3767ZM30.3142 8.91188C27.9804 6.38354 23.9571 6.38354 21.6233 8.91188L27.5017 14.3381C26.6679 15.2415 25.2696 15.2415 24.4358 14.3381L30.3142 8.91188ZM21.7341 8.79657L14.7341 15.7966L20.3909 21.4534L27.3909 14.4534L21.7341 8.79657ZM14.7341 15.7966C13.5599 16.9708 13 18.5106 13 20H21C21 20.4894 20.8151 21.0292 20.3909 21.4534L14.7341 15.7966ZM13 20C13 21.4847 13.5162 23.0481 14.7341 24.2659L20.3909 18.6091C20.8588 19.0769 21 19.6403 21 20H13ZM14.7341 24.2659L21.7341 31.2659L27.3909 25.6091L20.3909 18.6091L14.7341 24.2659ZM21.6233 31.1506C23.9571 33.679 27.9804 33.679 30.3142 31.1506L24.4358 25.7244C25.2696 24.821 26.6679 24.821 27.5017 25.7244L21.6233 31.1506ZM30.0881 31.3767C32.6165 29.0429 32.6165 25.0196 30.0881 22.6858L24.6619 28.5642C23.7585 27.7304 23.7585 26.3321 24.6619 25.4983L30.0881 31.3767Z" fill="white" mask="url(#path-1-outside-1_544_3778)"/>
</g>
<defs>
<filter id="filter0_d_544_3778" x="0" y="0" width="48" height="48" filterUnits="userSpaceOnUse" color-interpolation-filters="sRGB">
<feFlood flood-opacity="0" result="BackgroundImageFix"/>
<feColorMatrix in="SourceAlpha" type="matrix" values="0 0 0 0 0 0 0 0 0 0 0 0 0 0 0 0 0 0 127 0" result="hardAlpha"/>
<feOffset dy="4"/>
<feGaussianBlur stdDeviation="2"/>
<feComposite in2="hardAlpha" operator="out"/>
<feColorMatrix type="matrix" values="0 0 0 0 0 0 0 0 0 0 0 0 0 0 0 0 0 0 0.15 0"/>
<feBlend mode="normal" in2="BackgroundImageFix" result="effect1_dropShadow_544_3778"/>
<feBlend mode="normal" in="SourceGraphic" in2="effect1_dropShadow_544_3778" result="shape"/>
</filter>
</defs>
</svg>
