<?xml version="1.0" encoding="iso-8859-1"?>
<svg version="1.1" xmlns="http://www.w3.org/2000/svg" xmlns:xlink="http://www.w3.org/1999/xlink" x="0px" y="0px"
	 viewBox="0 0 97 97" style="enable-background:new 0 0 97 97;" xml:space="preserve">
<g id="Capa_1">
</g>
<g id="Capa_2">
	<g>
		<g>
			<linearGradient id="SVGID_1_" gradientUnits="userSpaceOnUse" x1="29.2744" y1="67.7303" x2="95.417" y2="1.5878">
				<stop  offset="0" style="stop-color:#036973"/>
				<stop  offset="0.2346" style="stop-color:#09707A"/>
				<stop  offset="0.5807" style="stop-color:#18848E"/>
				<stop  offset="0.9942" style="stop-color:#32A4AD"/>
				<stop  offset="1" style="stop-color:#32A5AE"/>
			</linearGradient>
			<path style="fill:url(#SVGID_1_);" d="M90.42,1.142c0.862-0.325,1.747-0.733,2.696-0.624c1.652,0.107,3.11,1.458,3.334,3.102
				c0.21,1.095-0.283,2.132-0.656,3.132C89.187,24.375,82.578,41.996,75.971,59.62c-3.542,9.471-12.182,32.514-12.949,34.511
				c-0.404,1.062-1.317,1.912-2.413,2.221c-1.367,0.414-2.948-0.065-3.855-1.165c-0.608-0.707-0.812-1.638-1.143-2.484
				c-4.105-11.254-8.166-22.524-12.295-33.768c8.745-8.843,17.596-17.587,26.357-26.414c1.444-1.527,1.149-4.235-0.582-5.422
				c-1.062-0.804-2.568-0.943-3.762-0.361c-0.804,0.37-1.355,1.084-1.981,1.682c-8.428,8.413-16.824,16.864-25.277,25.255
				c-11.776-4.324-23.583-8.566-35.365-12.876c-1.561-0.65-2.49-2.466-2.128-4.114c0.254-1.339,1.31-2.429,2.603-2.821
				C32.258,22.951,61.343,12.057,90.42,1.142z"/>
			<path style="fill:#028189;" d="M92.798,2.5c0.03,0,0.06,0.001,0.09,0.005c0.033,0.004,0.066,0.007,0.099,0.009
				c0.708,0.046,1.386,0.676,1.481,1.376c0.005,0.036,0.011,0.071,0.017,0.107c0.076,0.393-0.161,1.006-0.412,1.654L93.921,6.05
				l-9.911,26.434l-9.912,26.436C70.725,67.936,61.932,91.39,61.152,93.42c-0.181,0.477-0.608,0.872-1.123,1.018
				c-0.135,0.041-0.281,0.062-0.432,0.062c-0.504,0-1.002-0.224-1.326-0.617c-0.21-0.244-0.37-0.708-0.541-1.2
				c-0.083-0.239-0.165-0.476-0.24-0.665c-1.607-4.405-3.207-8.812-4.807-13.219C50.378,72.451,48,65.9,45.631,59.439
				c4.459-4.502,9.003-9.039,13.407-13.436c3.957-3.951,8.048-8.036,12.089-12.107c1.089-1.151,1.612-2.762,1.436-4.418
				c-0.175-1.644-1.013-3.1-2.301-4.001c-0.95-0.706-2.141-1.094-3.358-1.094c-0.854,0-1.701,0.193-2.409,0.539
				c-0.948,0.436-1.605,1.113-2.133,1.657c-0.13,0.134-0.26,0.268-0.425,0.427c-3.173,3.167-6.341,6.339-9.509,9.511
				c-4.866,4.872-9.887,9.9-14.861,14.843c-6.08-2.229-12.245-4.466-18.219-6.634c-5.302-1.924-10.604-3.848-15.902-5.785
				c-0.64-0.288-1.065-1.131-0.913-1.825c0.004-0.018,0.008-0.037,0.011-0.055c0.108-0.569,0.609-1.096,1.218-1.281
				c0.041-0.012,0.082-0.026,0.123-0.042c13.869-5.205,27.741-10.406,41.612-15.607c15.21-5.703,30.42-11.406,45.631-17.116
				l0.329-0.126C91.969,2.688,92.454,2.5,92.798,2.5 M92.797,0.5c-0.829,0-1.612,0.354-2.377,0.642
				C61.343,12.057,32.258,22.951,3.181,33.864c-1.292,0.392-2.348,1.482-2.603,2.821c-0.361,1.648,0.567,3.463,2.128,4.114
				c11.782,4.309,23.589,8.552,35.365,12.876c8.453-8.391,16.849-16.842,25.277-25.255c0.626-0.598,1.177-1.313,1.981-1.682
				c0.489-0.238,1.031-0.356,1.573-0.356c0.78,0,1.562,0.243,2.189,0.717c1.73,1.187,2.025,3.895,0.582,5.422
				c-8.762,8.827-17.612,17.571-26.357,26.414c4.129,11.244,8.19,22.514,12.295,33.768c0.331,0.846,0.535,1.777,1.143,2.484
				c0.688,0.836,1.766,1.313,2.843,1.313c0.341,0,0.683-0.048,1.012-0.148c1.096-0.309,2.009-1.159,2.413-2.221
				c0.767-1.997,9.408-25.041,12.949-34.511c6.607-17.623,13.216-35.244,19.823-52.868c0.374-1,0.866-2.038,0.656-3.132
				c-0.224-1.644-1.682-2.995-3.334-3.102C93.009,0.506,92.903,0.5,92.797,0.5L92.797,0.5z"/>
		</g>
	</g>
	<g>
		<linearGradient id="SVGID_2_" gradientUnits="userSpaceOnUse" x1="1.6703" y1="71.5631" x2="19.1945" y2="54.0389">
			<stop  offset="0" style="stop-color:#FFFFFF"/>
			<stop  offset="0.0636" style="stop-color:#D4EAEC"/>
			<stop  offset="0.1515" style="stop-color:#A1D5D9"/>
			<stop  offset="0.2428" style="stop-color:#78C6C9"/>
			<stop  offset="0.3369" style="stop-color:#4DBBBE"/>
			<stop  offset="0.4351" style="stop-color:#27B4B7"/>
			<stop  offset="0.5398" style="stop-color:#00B0B5"/>
			<stop  offset="0.7809" style="stop-color:#00AFB3"/>
		</linearGradient>
		<path style="fill:url(#SVGID_2_);" d="M15.889,52.915c1.574-0.217,3.226,0.612,3.973,2.015c0.868,1.516,0.547,3.571-0.716,4.768
			c-3.949,3.956-7.903,7.907-11.855,11.858c-0.901,0.91-2.254,1.339-3.515,1.107c-1.511-0.25-2.807-1.461-3.157-2.951
			c-0.345-1.324,0.07-2.807,1.049-3.763c3.96-3.956,7.929-7.901,11.89-11.856C14.178,53.457,15.007,53.028,15.889,52.915z"/>
	</g>
	<g>
		<linearGradient id="SVGID_3_" gradientUnits="userSpaceOnUse" x1="1.6582" y1="95.3384" x2="35.0433" y2="61.9533">
			<stop  offset="0" style="stop-color:#FFFFFF"/>
			<stop  offset="0.0636" style="stop-color:#D4EAEC"/>
			<stop  offset="0.1515" style="stop-color:#A1D5D9"/>
			<stop  offset="0.2428" style="stop-color:#78C6C9"/>
			<stop  offset="0.3369" style="stop-color:#4DBBBE"/>
			<stop  offset="0.4351" style="stop-color:#27B4B7"/>
			<stop  offset="0.5398" style="stop-color:#00B0B5"/>
			<stop  offset="0.7809" style="stop-color:#00AFB3"/>
		</linearGradient>
		<path style="fill:url(#SVGID_3_);" d="M31.294,60.913c1.281-0.306,2.707,0.052,3.665,0.96c1.107,1.018,1.537,2.699,1.049,4.123
			c-0.213,0.688-0.651,1.279-1.162,1.776C25.664,76.951,16.49,86.135,7.308,95.309c-0.732,0.74-1.75,1.185-2.792,1.19
			c-1.592,0.037-3.146-0.979-3.722-2.466c-0.612-1.457-0.241-3.25,0.903-4.34c8.991-8.993,17.985-17.987,26.978-26.98
			C29.405,61.938,30.208,61.136,31.294,60.913z"/>
	</g>
	<g>
		<linearGradient id="SVGID_4_" gradientUnits="userSpaceOnUse" x1="25.4378" y1="95.334" x2="42.9413" y2="77.8305">
			<stop  offset="0" style="stop-color:#FFFFFF"/>
			<stop  offset="0.0636" style="stop-color:#D4EAEC"/>
			<stop  offset="0.1515" style="stop-color:#A1D5D9"/>
			<stop  offset="0.2428" style="stop-color:#78C6C9"/>
			<stop  offset="0.3369" style="stop-color:#4DBBBE"/>
			<stop  offset="0.4351" style="stop-color:#27B4B7"/>
			<stop  offset="0.5398" style="stop-color:#00B0B5"/>
			<stop  offset="0.7809" style="stop-color:#00AFB3"/>
		</linearGradient>
		<path style="fill:url(#SVGID_4_);" d="M38.88,76.859c1.39-0.48,3.031-0.083,4.056,0.968c1.54,1.468,1.511,4.155-0.026,5.615
			c-3.945,3.964-7.893,7.925-11.846,11.882c-0.91,0.925-2.288,1.359-3.561,1.105c-1.498-0.265-2.771-1.474-3.114-2.953
			c-0.336-1.324,0.076-2.803,1.053-3.758c3.954-3.954,7.908-7.911,11.862-11.865C37.741,77.404,38.283,77.055,38.88,76.859z"/>
	</g>
	<rect x="0" style="fill-rule:evenodd;clip-rule:evenodd;fill:none;" width="97" height="97"/>
</g>
</svg>
