<?xml version="1.0" encoding="iso-8859-1"?>
<svg version="1.1" xmlns="http://www.w3.org/2000/svg" xmlns:xlink="http://www.w3.org/1999/xlink" x="0px" y="0px"
	 viewBox="0 0 97 97" style="enable-background:new 0 0 97 97;" xml:space="preserve">
<g id="Capa_1">
</g>
<g id="Capa_2">
	<g>
		<g>
			<linearGradient id="SVGID_1_" gradientUnits="userSpaceOnUse" x1="31.8844" y1="30.0103" x2="40.6945" y2="21.2002">
				<stop  offset="0" style="stop-color:#036973"/>
				<stop  offset="0.7626" style="stop-color:#30A2AB"/>
				<stop  offset="1" style="stop-color:#32A5AE"/>
			</linearGradient>
			<path style="fill-rule:evenodd;clip-rule:evenodd;fill:url(#SVGID_1_);" d="M30.917,18.5h10.745c0.953,0,1.733,0.78,1.733,1.733
				v10.745c0,0.953-0.78,1.733-1.733,1.733H30.917c-0.953,0-1.733-0.78-1.733-1.733V20.233C29.184,19.28,29.964,18.5,30.917,18.5z"
				/>
		</g>
		<g>
			<linearGradient id="SVGID_2_" gradientUnits="userSpaceOnUse" x1="56.3055" y1="30.0103" x2="65.1155" y2="21.2002">
				<stop  offset="0" style="stop-color:#036973"/>
				<stop  offset="0.7626" style="stop-color:#30A2AB"/>
				<stop  offset="1" style="stop-color:#32A5AE"/>
			</linearGradient>
			<path style="fill-rule:evenodd;clip-rule:evenodd;fill:url(#SVGID_2_);" d="M55.338,18.5h10.745c0.953,0,1.733,0.78,1.733,1.733
				v10.745c0,0.953-0.78,1.733-1.733,1.733H55.338c-0.953,0-1.733-0.78-1.733-1.733V20.233C53.605,19.28,54.385,18.5,55.338,18.5z"
				/>
		</g>
		<g>
			<linearGradient id="SVGID_3_" gradientUnits="userSpaceOnUse" x1="31.8844" y1="52.905" x2="40.6945" y2="44.095">
				<stop  offset="0" style="stop-color:#036973"/>
				<stop  offset="0.7626" style="stop-color:#30A2AB"/>
				<stop  offset="1" style="stop-color:#32A5AE"/>
			</linearGradient>
			<path style="fill-rule:evenodd;clip-rule:evenodd;fill:url(#SVGID_3_);" d="M30.917,41.395h10.745
				c0.953,0,1.733,0.78,1.733,1.733v10.745c0,0.953-0.78,1.733-1.733,1.733H30.917c-0.953,0-1.733-0.78-1.733-1.733V43.127
				C29.184,42.174,29.964,41.395,30.917,41.395z"/>
		</g>
		<g>
			<linearGradient id="SVGID_4_" gradientUnits="userSpaceOnUse" x1="56.3055" y1="52.905" x2="65.1155" y2="44.095">
				<stop  offset="0" style="stop-color:#036973"/>
				<stop  offset="0.7626" style="stop-color:#30A2AB"/>
				<stop  offset="1" style="stop-color:#32A5AE"/>
			</linearGradient>
			<path style="fill-rule:evenodd;clip-rule:evenodd;fill:url(#SVGID_4_);" d="M55.338,41.395h10.745
				c0.953,0,1.733,0.78,1.733,1.733v10.745c0,0.953-0.78,1.733-1.733,1.733H55.338c-0.953,0-1.733-0.78-1.733-1.733V43.127
				C53.605,42.174,54.385,41.395,55.338,41.395z"/>
		</g>
		<g>
			<linearGradient id="SVGID_5_" gradientUnits="userSpaceOnUse" x1="31.8844" y1="75.7998" x2="40.6945" y2="66.9897">
				<stop  offset="0" style="stop-color:#036973"/>
				<stop  offset="0.7626" style="stop-color:#30A2AB"/>
				<stop  offset="1" style="stop-color:#32A5AE"/>
			</linearGradient>
			<path style="fill-rule:evenodd;clip-rule:evenodd;fill:url(#SVGID_5_);" d="M30.917,64.289h10.745
				c0.953,0,1.733,0.78,1.733,1.733v10.745c0,0.953-0.78,1.733-1.733,1.733H30.917c-0.953,0-1.733-0.78-1.733-1.733V66.022
				C29.184,65.069,29.964,64.289,30.917,64.289z"/>
		</g>
		<g>
			<linearGradient id="SVGID_6_" gradientUnits="userSpaceOnUse" x1="56.3055" y1="75.7998" x2="65.1155" y2="66.9897">
				<stop  offset="0" style="stop-color:#036973"/>
				<stop  offset="0.7626" style="stop-color:#30A2AB"/>
				<stop  offset="1" style="stop-color:#32A5AE"/>
			</linearGradient>
			<path style="fill-rule:evenodd;clip-rule:evenodd;fill:url(#SVGID_6_);" d="M55.338,64.289h10.745
				c0.953,0,1.733,0.78,1.733,1.733v10.745c0,0.953-0.78,1.733-1.733,1.733H55.338c-0.953,0-1.733-0.78-1.733-1.733V66.022
				C53.605,65.069,54.385,64.289,55.338,64.289z"/>
		</g>
	</g>
	<rect x="0" style="fill-rule:evenodd;clip-rule:evenodd;fill:none;" width="97" height="97"/>
</g>
</svg>
