<?xml version="1.0" encoding="utf-8"?>
<!DOCTYPE svg PUBLIC "-//W3C//DTD SVG 1.1//EN" "http://www.w3.org/Graphics/SVG/1.1/DTD/svg11.dtd">
<svg version="1.1" id="Capa_1" xmlns="http://www.w3.org/2000/svg" xmlns:xlink="http://www.w3.org/1999/xlink" x="0px" y="0px"
	 width="400px" height="400px" viewBox="0 0 400 400" style="enable-background:new 0 0 400 400;" xml:space="preserve">
<g>
	<linearGradient id="SVGID_1_" gradientUnits="userSpaceOnUse" x1="200.5005" y1="400.5" x2="200.5005" y2="0.5005">
		<stop  offset="0" style="stop-color:#006268"/>
		<stop  offset="1" style="stop-color:#409EA1"/>
	</linearGradient>
	<path style="fill-rule:evenodd;clip-rule:evenodd;fill:url(#SVGID_1_);" d="M30.5,0.5h340c16.568,0,30,13.432,30,30v340
		c0,16.568-13.432,30-30,30h-340c-16.568,0-30-13.432-30-30v-340C0.5,13.932,13.932,0.5,30.5,0.5z"/>
</g>
<g>
	<path style="fill-rule:evenodd;clip-rule:evenodd;fill:#FFFFFF;" d="M342.492,37.455c-0.306-0.911,1.111-2.175,1.956-1.5
		C344.993,36.959,343.303,37.907,342.492,37.455L342.492,37.455L342.492,37.455z M347.076,38.217
		c2.404-0.272,4.828-0.372,7.25-0.539c-1.437,1.128-2.813,2.354-4.412,3.241c-3.093,1.01-6.923,0-9.524,2.342
		c-3.125,2.98-4.34,7.326-5.263,11.403c-0.712,4.029-1.592,8.541,0.656,12.265c1.296,2.95,4.594,4.188,7.567,4.617
		c3.218,0.359,6.96,0.198,9.364-2.28c3.186-3.099,5.504-7.351,5.715-11.844c0.147-5.763-4.556-10.393-4.127-16.168
		c2.193,0.179,4.387,0.539,6.383,1.524c1.091-0.745,2.174-1.505,3.34-2.131c0.558,1.629-1.493,2.627-2.255,3.848
		c2.075,4.598,4.003,10.002,1.672,14.899c2.313-1.735,6.303-2.126,8.244,0.402c-2.926,0.955-6.03,1.19-8.97,2.095
		c-1.152,1.159-1.803,2.708-2.825,3.973c-2.56,3.556-6.495,5.688-10.262,7.721c-4.848,2.597-11.025,2.423-15.754-0.353
		c-2.758-1.686-3.823-4.952-4.742-7.865c-2.51,1.791-5.72,1.549-8.64,1.822c-0.854,0.162-1.436-0.173-1.753-1.003
		c3.092-1.922,6.742-2.542,10.308-2.87c0.427-5.373,1.308-10.858,3.866-15.672c1.244-2.375,3.234-4.288,5.503-5.689
		C341.096,40.305,343.877,38.57,347.076,38.217L347.076,38.217L347.076,38.217z M132.954,42.314
		c2.255-1.017,4.704,0.143,6.098,1.989c4.45,5.423,9.599,10.201,14.315,15.382c5.379,6.364,10.766,12.761,17,18.32
		c7.512,6.6,14.966,13.336,23.358,18.821c4.982,3.215,10.746,4.946,16.528,6.067c5.818,1.183,11.83,1.189,17.626,2.503
		c1.301,1.524,0.179,3.532-1.19,4.555c-3.229,2.088-7.14,3.198-10.981,2.646c-4.741,0.006-9.358-1.295-14.038-1.623
		c0.756,0.309,1.531,0.594,2.288,0.936c-3.143,2.057-6.712,3.265-10.121,4.778c-4.406,1.92-9.042,3.229-13.671,4.474
		c-0.341-0.7-0.682-1.4-1.016-2.101c2.534-1.643,4.642-4.003,7.443-5.188c4.791-1.14,9.426-3.036,14.384-3.403
		c-6.737-1.021-13.2-3.76-18.66-7.826c-9.401-6.991-18.127-14.854-26.375-23.153c-3.162-3.267-5.857-6.929-8.807-10.374
		c-4.822-6.056-10.369-11.466-15.357-17.378c-5.324,5.788-9.915,12.221-15.431,17.842c-4.872,4.858-9.928,9.518-14.867,14.309
		c-4.258,4.202-7.902,9.023-12.606,12.767c-9.438,7.871-18.337,16.36-27.088,24.988c-4.282,4.188-8.941,7.981-13.67,11.657
		c-2.571,2.138-5.925,2.856-8.93,4.17c-0.379-0.663-0.75-1.326-1.128-1.989c8.788-6.066,16.298-13.671,23.891-21.121
		c5.838-5.54,11.712-11.043,17.898-16.199c4.926-3.936,8.812-8.943,13.305-13.331c4.314-4.158,8.683-8.261,12.99-12.431
		c6.396-6.26,11.589-13.584,17.576-20.222C126.756,48.883,128.621,44.197,132.954,42.314L132.954,42.314L132.954,42.314z
		 M324.573,42.494c3.49-0.713,6.655,1.115,8.869,3.669c-1.023,0.607-2.04,1.208-3.051,1.81
		C328.478,46.106,325.905,44.898,324.573,42.494L324.573,42.494L324.573,42.494z M360.368,71.999
		c1.179-0.805,2.356-1.63,3.644-2.273c1.773,1.071,2.747,3.01,3.298,4.939C364.72,74.658,362.402,73.512,360.368,71.999
		L360.368,71.999L360.368,71.999z M345.167,78.152c1.396-0.842,2.782-1.691,4.171-2.552c2.064,2.335,3.569,5.1,4.356,8.124
		c-1.58-0.427-3.217-0.737-4.69-1.462C347.387,81.258,346.344,79.603,345.167,78.152L345.167,78.152L345.167,78.152z M94.573,96.107
		c3.08-1.698,6.47-2.747,9.661-4.221c0.459,0.545,0.924,1.091,1.388,1.636c-2.776,3.359-4.883,7.325-5.726,11.625
		c-1.375,8.05-0.348,16.262,1.214,24.201c2.466,12.939,0.923,26.177-0.818,39.104c-2.348,18.827-8.886,36.751-15.325,54.487
		c-1.983,4.783-4.32,9.951-9.172,12.433c4.115,0.123,8.484,0.309,12.054,2.615c3.675,2.213,5.59,7.034,10.214,7.652
		c8.998,1.238,17.86-1.728,26.53-3.756c3.272-0.707,7.016-2.58,10.176-0.501c2.987,2.113,4.673,6.021,8.447,7.009
		c6.6,1.995,13.683,0.812,20.339,2.535c2.864,0.717,5.051,2.862,7.752,3.945c1.736,0.566,3.596,0.614,5.405,0.584
		c6.891-0.314,13.646-1.891,20.513-2.465c4.127,0.283,8.163,1.56,12.333,1.455c9.557-0.023,18.946-2.119,28.438-2.918
		c6.415-0.088,12.903-0.385,19.23,0.867c4.569,0.798,9.086,1.845,13.643,2.731c11.515,1.887,23.207,0.62,34.79,1.408
		c3.903,0.254,6.836,3.173,10.473,4.231c7.685,2.232,15.784,1.543,23.638,2.659c2.694,0.458,5.1,1.847,7.709,2.615
		c4.053,0.894,8.236,0.088,12.327,0.73c5.225,0.863,10.541,1.446,15.84,1.022c2.299-0.192,4.604,0,6.897,0.231
		c-0.793,4.994-6.019,7.001-10.157,8.59c-7.258,0.965-14.681,0.729-21.895-0.491c-5.331-0.816-11.05,0.509-16.027-2.069
		c-4.126-2.089-8.85-1.785-13.33-2.07c-5.106-0.31-10.27-0.77-15.202-2.195c-3.148-0.885-5.726-3.109-8.894-3.89
		c-12.165-1.364-24.546,0.638-36.613-1.779c-5.323-0.792-10.498-2.372-15.847-2.975c-4.021-0.446-8.08-0.385-12.115-0.292
		c-13.273-0.014-26.457,4.518-39.73,2.095c-2.225-0.315-4.481-0.669-6.731-0.364c-5.8,0.65-11.563,1.665-17.382,2.13
		c-3.286,0.188-6.768-0.079-9.656-1.795c-2.417-1.415-4.84-3.016-7.678-3.374c-6.241-0.891-12.767-0.203-18.797-2.348
		c-3.482-1.197-5.67-4.276-8.186-6.749c-0.96-1.022-2.498-0.669-3.719-0.465c-8.286,2.052-16.566,4.389-25.105,5.082
		c-3.736,0.205-7.672-0.062-11.043-1.833c-2.932-1.555-4.425-4.762-7.146-6.582c-3.463-2.528-8.025-2.25-12.097-2.268
		c-8.273,0.098-16.219,2.589-24.193,4.491c-8.826,1.91-16.784,6.347-25.261,9.285c-0.403-0.639-0.799-1.276-1.196-1.916
		c3.929-2.806,7.319-6.594,12.023-8.106c6.903-2.535,13.423-6.109,20.624-7.802c6.241-1.412,12.383-3.284,18.698-4.375
		c4.791-7.978,7.623-16.918,10.846-25.602c3.812-10.207,6.81-20.717,8.893-31.408c2.094-11.874,3.799-23.89,3.526-35.975
		c-0.229-8.292-2.374-16.436-2.04-24.759C87.161,110.341,89.04,102,94.573,96.107L94.573,96.107L94.573,96.107z M159.682,99.322
		c2.931-1.871,6.376-2.788,9.519-4.257c0.415,0.607,0.836,1.221,1.258,1.834c-2.901,3.093-5.188,6.779-6.445,10.839
		c-1.301,4.369-0.7,8.999-0.459,13.473c1.208,12.518,1.853,25.08,2.714,37.629c0.261,5.652,0.341,11.311,0.502,16.969
		c0.112,16.156-2.243,32.212-5.391,48.029c-0.893,4.098-0.986,8.392-2.386,12.364c-2.044,2.979-5.503,4.869-8.999,5.613
		c-1.356,0.496-2.976-0.744-2.776-2.193c-0.044-2.069,0.39-4.103,0.743-6.13c2.28-12.542,4.983-25.049,6.011-37.778
		c1.618-16.943-0.019-33.948-0.521-50.904c-0.173-8.899-1.42-17.737-1.506-26.636C151.818,111.16,154.966,104.386,159.682,99.322
		L159.682,99.322L159.682,99.322z M118.774,121.651c3.142-3.253,8.155-2.243,12.146-1.679c3.13,0.737,7.468,0.948,8.719,4.517
		c1.227,3.551,0.912,7.394,1.023,11.093c0.149,3.849-0.558,8.112,1.946,11.41c-2.567,1.09-5.063,2.349-7.505,3.7
		c-3.322,0.501-6.216-1.513-9.005-2.976c-1.276-0.731-2.937-1.747-2.633-3.47c0.309-1.177,0.718-2.404,1.548-3.322
		c2.56-0.898,5.33-0.855,7.989-0.508c-0.192-3.817,0.211-7.709-0.613-11.465c-0.788-2.361-3.806-2.15-5.783-2.745
		c0.057,3.662,0.168,7.338-0.129,11c-3.006,1.115-5.647,2.937-8.348,4.61c-1.017-3.898-0.558-7.939-0.973-11.911
		C118.092,127.21,116.512,123.889,118.774,121.651L118.774,121.651L118.774,121.651z M69.344,124.893
		c2.126-0.998,4.487-0.477,6.724-0.416c-8.453,6.618-18.771,10.121-28.427,14.576c-0.367-0.68-0.731-1.356-1.097-2.038
		c2.826-2.027,5.274-4.691,8.614-5.894C59.974,129.249,64.622,126.981,69.344,124.893L69.344,124.893L69.344,124.893z
		 M247.975,136.798c2.74-1.494,5.765-2.405,8.664-3.539c0.693,0.545,1.388,1.147,2.274,1.357c3.755,1.06,7.313,2.684,10.919,4.158
		c-1.636,1.121-3.289,2.218-4.983,3.261c3.218,2.069,3.354,6.388,2.418,9.729c-1.599,5.236-5.769,9.029-9.488,12.797
		c-1.847,5.967-2.868,12.196-4.462,18.251c2.857,2.553,5.9,4.889,8.993,7.151c2.782,2.02,6.154,3.198,8.656,5.603
		c1.514,1.543,0.292,4.117-1.257,5.126c-2.609,1.171-5.72,1.239-8.328,0.017c-3.968-1.87-7.53-4.467-10.995-7.138
		c-1.407,5.051-2.808,10.101-4.345,15.108c-0.291,1.146-1.091,2.035-1.815,2.928c2.272,0.612,3.897,2.427,5.1,4.36
		c2.193,3.496,4.313,7.185,5.145,11.273c-0.899,2.798-3.707,4.419-6.471,4.86c-1.642,0.299-3.21-0.907-3.725-2.411
		c-1.12-3.044-1.965-6.186-3.26-9.168c-2.137,2.5-4.262,5.412-7.547,6.429c-1.562,0.7-3.844-1.117-2.927-2.757
		c1.049-3.292,3.224-6.173,3.669-9.663c2.113-4.908,3.204-10.157,4.816-15.233c1.096-3.78,2.417-7.504,3.211-11.366
		c-3.49,1.314-6.546,3.533-10.022,4.872c-1.833,0.744-3.812,0.377-5.695,0.136c-1.084-1.815-1.016-4.233,0.849-5.509
		c5.565-3.955,11.843-6.774,17.731-10.183c1.018-2.467,1.388-5.144,2.107-7.704c-2.852,0.044-5.925-0.966-7.332-3.625
		c-2.045-3.793-1.834-8.329-1.519-12.488C238.958,146.856,242.614,140.628,247.975,136.798L247.975,136.798L247.975,136.798z
		 M251.136,142.716c-2.249,4.68-2.87,10.071-1.908,15.165c0.234,1.878,1.35,3.496,3.061,4.345c2.101-2.399,4.114-5.057,4.821-8.23
		c0.763-3.025-0.137-6.093-0.315-9.123C254.897,144.178,253.015,143.454,251.136,142.716L251.136,142.716L251.136,142.716z
		 M325.671,136.357c3.215-1.703,6.99-1.09,10.368-0.303c3.681,0.935,5.491,4.951,5.628,8.466c1.862,2.702,0.495,5.992,0.091,8.929
		c-0.78,3.794,4.023,6.83,2.263,10.542c-0.682,2.125-3.166,2.385-5.02,2.826c-1.915,0.532-3.601-0.645-4.933-1.865
		c-3.7,2.733-7.609,5.137-11.752,7.139c-1.251,4.183-3.029,8.472-2.669,12.927c2.038,0.657,4.121,1.177,6.19,1.742
		c1.389,0.322,1.853,1.866,2.64,2.869c-4.134,2.61-9.241,4.432-14.153,3.28c-2.107-0.552-3.795,2.292-5.895,0.812
		c0.136-1.067,0.266-2.125,0.39-3.185c-2.776,2.484-5.292,5.292-7.213,8.496c-1.041,1.78-1.376,3.928-1.084,5.963
		c0.482,1.988,2.658,2.912,4.479,3.277c2.881,0.527,5.348-1.308,7.915-2.255c2.131-0.765,4.17-1.767,6.308-2.524
		c-1.462,7.777-3.657,15.445-6.11,22.979c1.481,0.198,3.181,0.156,4.266,1.376c2.088,2.146,3.725,4.762,4.888,7.512
		c0.838,1.859-0.545,3.688-1.82,4.926c-1.618,1.816-4.227,2.492-6.577,2.201c-2.366-1.016-3.05-3.893-4.463-5.844
		c-1.591,0.806-3.215,1.853-5.081,1.729c-1.215-0.08-2.014-1.098-2.862-1.834c-1.902,1.023-3.649,2.435-5.752,3.03
		c-1.579,0.377-3.296-1.814-1.883-3.013c2.565-2.323,5.831-3.706,8.626-5.713c2.293-5.721,3.879-11.712,5.571-17.638
		c-3.656,1.889-7.857,3.611-12.028,2.509c-3.023-0.772-6.147-3.047-6.463-6.377c-0.473-3.445,0.412-7.045,2.615-9.759
		c3.648-5.15,8.569-9.29,13.997-12.457c-2.354-2.547-4.121-5.54-6.041-8.41c3.186-1.865,6.382-3.693,9.625-5.46
		c0.768,1.469,1.555,2.932,2.386,4.376c0.434-1.612,0.854-3.229,1.271-4.841c-2.685-1.122-5.521-2.683-6.6-5.564
		c-2.474-6.235-1.432-13.566,1.859-19.305c1.599-2.974,4.752-4.443,7.528-6.086c3.123-1.89,6.378-3.569,9.495-5.471V136.357
		L325.671,136.357z M318.704,146.713c-2.181,4.468-2.855,9.928-1.108,14.657c0.732,2.039,2.627,3.186,4.561,3.879
		c0.488-0.143,0.979-0.278,1.476-0.41c0.824,0.119,1.86,0.788,2.577,0.007c2.375-2.157,4.332-5.039,4.952-8.223
		c0.02-3.632-0.75-7.227-1.158-10.827c0.29-0.291,0.865-0.874,1.158-1.165C327.709,141.272,320.613,142.003,318.704,146.713
		L318.704,146.713L318.704,146.713z M359.675,178.437c5.373-2.783,11.391-3.663,17.186-5.137c0.328,0.675,0.663,1.351,1.004,2.033
		c-3.066,2.206-5.919,4.735-9.122,6.736c-2.518,0.874-5.206,1.141-7.753,1.902c-1.234,3.335-2.678,6.835-2.06,10.462
		c0.23,1.375,1.854,2.014,3.113,1.847c2.969-0.15,4.61-3.174,5.801-5.522c0.693-2.974-0.088-6.748,2.602-8.917
		c2.498-0.93,5.361-1.462,7.976-0.763c3.024,1.37,2.665,5.572,1.092,7.939c-3.465,6.414-10.492,9.289-16.535,12.661
		c-1.196,1.554-1.053,3.854-1.609,5.725c3.947,0.697,7.974,0.261,11.929,0.869c-3.117,4.674-8.279,7.815-13.826,8.583
		c-1.228,2.802-1.697,5.882-2.701,8.774c2.197-0.478,4.591-0.383,6.4,1.111c1.778,1.437,4.433,2.391,5.058,4.795
		c-1.488,2.819-4.47,4.668-7.531,5.33c-2.967,0.669-5-2.062-7.294-3.407c-1.647,1.331-3.718,2.217-5.812,1.386
		c-2.244,1.056-4.258,2.658-6.707,3.207c-1.356,0.369-2.453-0.701-3.562-1.271c0.172-3.385,2.175-6.26,4.572-8.506
		c2.101-1.367,4.617-1.894,6.78-3.146c0.937-3.019,1.189-6.21,2.058-9.253c-6.786-0.695-12.915-3.88-19.057-6.602
		c3.843-2.565,7.672-5.145,11.558-7.64c2.999,1.462,6.006,2.932,9.196,3.939c0.422-0.551,0.868-1.09,1.32-1.622
		c-2.375-0.533-4.815-1.995-5.397-4.519c-0.843-4.803,0.849-9.531,2.102-14.099C352.715,182.156,356.229,180.123,359.675,178.437
		L359.675,178.437L359.675,178.437z M114.325,200.815c3.749-2.869,8.403-5.392,13.287-4.425c3.954,0.855,6.514,4.318,8.831,7.356
		c1.742,2.251,1.382,5.317,0.887,7.932c-0.843,4.066-2.008,8.057-3.253,12.018c-0.955,3.587-4.054,6.023-6.973,8.031
		c-1.518,0.155-3.012-0.36-4.487-0.657c0.193-6.645,4.059-12.63,4.171-19.293c-0.88-3.377-3.992-5.817-7.022-7.3
		c-2.553,10.165-5.317,20.267-7.957,30.41c-4.592,2.185-9.197,4.339-13.802,6.502c2.392-7.841,4.649-15.716,6.42-23.717
		c0.986-3.559,1.445-7.317,3.136-10.633C109.05,204.254,111.944,202.723,114.325,200.815L114.325,200.815z"/>
	<path style="fill-rule:evenodd;clip-rule:evenodd;fill:#15B2AE;" d="M239.681,291.514c7.898-1.172,16.189,0.412,23.072,4.474
		c7.179,4.218,12.825,10.991,15.629,18.835c2.924,8.105,2.846,17.267-0.261,25.311c-3.124,8.17-9.324,15.138-17.128,19.115
		c-6.898,3.571-15.011,4.725-22.644,3.292c-8.805-1.605-16.885-6.73-22.154-13.958c-6.2-8.312-8.454-19.37-6.133-29.461
		C213.041,305.003,225.351,293.437,239.681,291.514L239.681,291.514L239.681,291.514z M242.483,305.739
		c1.257-0.591,2.442-1.389,3.802-1.739c1.958,0.26,4.538,1.347,4.701,3.614c0.115,2.997-0.798,5.915-1.56,8.779
		c-1.322,3.41-4.024,6.05-6.629,8.527c-2.659-0.427-5.391-0.947-8.067-0.35c-1.486,0.464-2.333-1.217-3.464-1.856
		c-3.13-1.97-4.483-5.606-5.528-8.967c-0.87-3.04,0.865-5.981,2.544-8.369c1.886-1.198,4.219-0.871,6.001,0.36
		c0.762-0.506,1.523-1.008,2.254-1.559c-1.432-1.896-4.054-1.582-6.031-0.864c-4.757,1.178-7.971,6.231-7.71,10.987
		c0.682,2.919,1.823,5.843,3.692,8.22c2.857,2.742,6.368,4.815,8.913,7.892c-0.684,1.62-1.608,3.233-1.445,5.069
		c0.019,4.801-0.325,10.274,2.951,14.195c3.075,2.89,7.438,3.717,11.523,3.941c-0.175,0.968-0.714,1.958-0.399,2.956
		c0.515,1.195,1.995,1.371,3.137,1.365c2.272-0.284,4.219-1.776,5.704-3.438c0.214-1.196-0.198-2.395-0.338-3.572
		c-1.879-0.205-3.638,0.521-5.445,0.876c-4.023-0.115-8.345-0.943-11.452-3.681c-3.016-3.438-2.883-8.355-2.912-12.654
		c0.092-1.722-0.308-3.981,1.402-5.063c4.376-4.086,9.403-7.613,12.8-12.643c1.444-2.055,1.765-4.592,2.368-6.968
		c0.352-1.945,0.877-4.068,0.079-5.972c-1.051-1.564-2.925-2.392-4.733-2.688C246.153,302.354,244.14,304,242.483,305.739
		L242.483,305.739L242.483,305.739z M53.577,292.734c7.524-0.889,15.325,0.702,21.871,4.533
		c8.188,4.701,14.328,12.794,16.709,21.932c2.52,9.358,1.082,19.737-3.989,28.021c-4.261,7.12-11.083,12.681-18.946,15.356
		c-7.693,2.665-16.305,2.55-23.926-0.315c-8.333-3.074-15.379-9.427-19.363-17.36c-4.326-8.413-5.081-18.548-2.175-27.54
		C27.827,304.297,39.925,294.167,53.577,292.734L53.577,292.734L53.577,292.734z M41.901,314.866
		c0.127,0.464,0.254,0.944,0.387,1.419c-0.435,1.711-0.695,3.463-0.846,5.228c-0.314,4.015-1.251,7.955-1.451,11.977
		c-0.489,0.357-0.985,0.715-1.48,1.083c2.501,2.376,4.876,4.888,7.542,7.089c1.082,0.815,1.801,1.966,2.351,3.186
		c2.315,1.189,4.998,0.725,7.488,0.684c5.228-0.279,10.467-0.158,15.694-0.298c1.662,0.025,3.402-0.513,4.411-1.915
		c-0.882-1.722-2.188-3.172-3.136-4.848c-1.245-1.928-2.193-4.174-4.103-5.547c-0.852,0.46-1.656,0.997-2.466,1.522
		c2.533,2.605,3.983,5.971,6.044,8.913c-2.683-0.004-5.373-0.018-8.056,0.021c0.417-1.365,0.882-3.424-0.689-4.227
		c-2.206-0.597-4.502,0.267-6.473,1.252c0.271,0.931,0.853,1.837,0.635,2.847c-1.583,0.755-3.717,0.436-5.512,0.333
		c-3.456-2.703-6.726-5.682-9.699-8.913c6.834,0.301,13.675,1.069,20.522,0.65c2.254-0.573,5.318-1.886,5.041-4.707
		c0.006-4.285,0.169-8.558,0.61-12.817c-6.581-0.253-13.005-1.771-19.526-2.563C46.772,314.962,44.289,313.851,41.901,314.866
		L41.901,314.866L41.901,314.866z M143.205,292.959c7.935-1.438,16.353-0.158,23.442,3.704c8.043,4.272,14.329,11.743,17.164,20.396
		c2.61,7.839,2.411,16.572-0.574,24.27c-3.228,8.486-9.827,15.605-18.009,19.516c-7.615,3.679-16.542,4.53-24.718,2.369
		c-9.439-2.42-17.743-8.903-22.415-17.448c-4.375-7.844-5.584-17.369-3.402-26.07C117.889,306.218,129.547,295.28,143.205,292.959
		L143.205,292.959L143.205,292.959z M151.684,317.398c-4.291-4.039-10.612-3.307-16.021-3.106c-3.662,0.188-5.723,4.557-4.544,7.796
		c1.232,3.535,1.82,7.234,2.84,10.825c1.148,4.729,1.317,9.74,3.324,14.236c0.38,1.015,1.546,1.787,2.641,1.492
		c4.056-1.138,7.892-2.948,11.374-5.313c2.097,2.201,4.678,4.479,7.953,4.226c3.263,0.398,5.868-1.875,8.859-2.696
		c1.778-0.387,2.091-2.441,1.849-3.959c-0.429-3.614-0.598-7.251-0.845-10.884c-0.338-5.246,0.833-10.478,0.277-15.72
		C163.366,312.75,157.117,314.816,151.684,317.398L151.684,317.398L151.684,317.398z M340.856,293.019
		c8.214-1.142,16.818,0.627,23.841,5.077c6.799,4.212,12.104,10.758,14.855,18.269c3.475,9.411,2.882,20.27-1.706,29.201
		c-3.673,7.283-9.885,13.247-17.326,16.601c-8.714,3.983-19.048,4.206-27.936,0.653c-7.768-3.052-14.317-8.951-18.325-16.245
		c-4.622-8.395-5.712-18.632-3.009-27.822C314.979,305.379,327.041,294.767,340.856,293.019L340.856,293.019L340.856,293.019z
		 M325.543,318.311c1.868,1.063,4.086,1.625,5.601,3.233c-1.986,1.414-4.319,2.338-6.09,4.062c2.508-0.57,4.593-2.147,6.955-3.078
		c1.313,4.202,0.974,8.62,1.089,12.953c0.083,3.177-0.327,6.338-0.436,9.512c-2.073,0.167-3.983,1.038-5.331,2.652
		c4.328-0.495,9.229-0.937,12.559-4.057c-1.407,0.227-2.792,0.521-4.17,0.853c0.841-7.788,0.254-15.609,0.036-23.409
		c6.002-1.313,12.238-2.389,18.385-1.658c-0.17,1.3-0.339,2.6-0.473,3.911c1.022-0.471,2.508-0.671,2.921-1.898
		c0.331-1.274,0.319-2.604,0.392-3.91c-1.626-0.381-3.275-0.732-4.943-0.471c-5.748,0.521-11.627,0.918-17.078,2.931
		c-1.33-1.733-2.872-3.928-5.33-3.807C327.941,316.025,326.709,317.3,325.543,318.311L325.543,318.311L325.543,318.311z
		 M354.695,326.464c-0.9,2.487-3.433,5.196-1.492,7.856c1.487,0.598,3.003,0.163,4.297-0.66
		C357.906,330.814,355.91,328.777,354.695,326.464L354.695,326.464L354.695,326.464z M347.009,345.625
		c-0.35,0.906-1.523,1.917-0.767,2.909c2.018,1.775,5.04,2.368,7.583,1.442c2.158-0.906,4.4,0.146,6.599,0.236
		c2.249-0.368,3.101-2.816,5.028-3.718c0.763-0.409,1.542-0.792,2.303-1.202c-1.032-2.03-2.865-3.492-4.901-4.436
		c-1.45,0.092-2.737,0.859-4.163,1.047c-2.943-0.828-5.928-2.546-9.06-1.639C347.372,341.141,348.225,343.964,347.009,345.625
		L347.009,345.625L347.009,345.625z M148.771,320.268c5.252-2.466,11.205-4.769,17.066-3.442
		c-0.217,6.604-0.918,13.209-0.224,19.814c-0.06,2.525,0.998,5.301,0.151,7.669c-2.702,0.658-5.922,0.779-8.164-1.131
		c-1.589-1.231-2.919-3.131-5.034-3.42c-2.303,0.096-3.058,2.586-4.441,3.981c-2.043,0.999-4.218,1.996-6.521,2.109
		c-2.715-4.652-2.653-10.248-4.031-15.337c-0.901-3.035-1.197-6.213-2.278-9.191c-0.532-1.492-0.817-3.053-1.016-4.619
		C139.247,316.631,145.205,316.008,148.771,320.268L148.771,320.268L148.771,320.268z M155.575,325.399
		c-1.287,0.319-2.236,1.33-3.245,2.127c2.569,0.35,4.9-0.797,7.307-1.45c1.347-0.352,2.32-1.408,3.329-2.297
		C160.35,323.634,158.083,324.976,155.575,325.399L155.575,325.399L155.575,325.399z M137.265,327.423
		c3.1-0.011,6.278-0.768,8.944-2.392c-0.514-0.141-1.53-0.418-2.037-0.558C141.748,325.158,139.005,325.374,137.265,327.423
		L137.265,327.423L137.265,327.423z M139.247,337.462c2.116-0.429,4.176-1.354,6.375-1.186c1.275,0.163,2.236-0.846,3.246-1.456
		c-0.937-0.652-1.795-1.454-2.871-1.873C143.791,334.561,140.872,335.105,139.247,337.462L139.247,337.462L139.247,337.462z
		 M153.732,334.646c1.402,0.487,2.671,1.624,4.116,1.788c1.928-0.954,4.69-0.617,5.922-2.63c-0.653-1.697-2.774-0.09-3.898,0.35
		c-1.034-0.453-2.055-0.94-3.148-1.22C155.588,333.188,154.718,334.065,153.732,334.646L153.732,334.646L153.732,334.646z
		 M42.464,332.566c0.876-5.384,1.522-10.8,2.157-16.208c7.27,0.827,14.419,2.604,21.732,3.021c-0.405,2.738-0.919,5.477-0.889,8.255
		c-0.066,1.844,0.109,3.743-0.429,5.53C57.518,333.691,49.987,332.615,42.464,332.566L42.464,332.566L42.464,332.566z
		 M234.434,325.121c2.401,0.201,4.812,0.406,7.18,0.869c-1.148,0.926-2.332,1.808-3.511,2.691
		C236.877,327.49,235.643,326.319,234.434,325.121L234.434,325.121L234.434,325.121z M61.403,340.659
		c0.32,0.088,0.646,0.181,0.967,0.284c0.085,0.833,0.169,1.667,0.254,2.514c-1.203-0.057-2.447,0.06-3.614-0.29
		C59.971,342.488,60.805,341.675,61.403,340.659L61.403,340.659L61.403,340.659z"/>
	<path style="fill-rule:evenodd;clip-rule:evenodd;fill:#FFFFFF;" d="M242.483,305.739c1.656-1.739,3.67-3.385,6.157-3.601
		c1.809,0.297,3.683,1.124,4.733,2.688c0.798,1.903,0.272,4.026-0.079,5.972c-0.604,2.376-0.924,4.913-2.368,6.968
		c-3.396,5.029-8.424,8.557-12.8,12.643c-1.71,1.082-1.313,3.342-1.402,5.063c0.029,4.299-0.104,9.216,2.912,12.654
		c3.107,2.737,7.429,3.565,11.452,3.681c1.808-0.355,3.566-1.081,5.445-0.876c0.141,1.178,0.552,2.376,0.338,3.572
		c-1.485,1.662-3.432,3.154-5.704,3.438c-1.142,0.006-2.622-0.17-3.137-1.365c-0.314-0.998,0.225-1.988,0.399-2.956
		c-4.086-0.225-8.448-1.052-11.523-3.941c-3.276-3.921-2.933-9.395-2.951-14.195c-0.163-1.836,0.762-3.449,1.445-5.069
		c-2.545-3.076-6.056-5.149-8.913-7.892c-1.869-2.377-3.011-5.301-3.692-8.22c-0.261-4.756,2.953-9.81,7.71-10.987
		c1.978-0.718,4.6-1.032,6.031,0.864c-0.73,0.551-1.492,1.053-2.254,1.559c-1.782-1.231-4.115-1.559-6.001-0.36
		c-1.679,2.388-3.414,5.329-2.544,8.369c1.045,3.36,2.398,6.997,5.528,8.967c1.131,0.64,1.978,2.32,3.464,1.856
		c2.677-0.598,5.408-0.077,8.067,0.35c2.604-2.478,5.307-5.117,6.629-8.527c0.762-2.864,1.675-5.782,1.56-8.779
		c-0.163-2.268-2.743-3.354-4.701-3.614C244.926,304.351,243.74,305.148,242.483,305.739L242.483,305.739L242.483,305.739z
		 M234.434,325.121c1.209,1.198,2.443,2.369,3.669,3.561c1.179-0.884,2.362-1.766,3.511-2.691
		C239.245,325.527,236.835,325.322,234.434,325.121L234.434,325.121L234.434,325.121z M253.622,355.53
		C253.96,355.869,253.96,355.869,253.622,355.53L253.622,355.53L253.622,355.53z M151.684,317.398
		c5.433-2.582,11.682-4.648,17.707-3.103c0.556,5.242-0.616,10.474-0.277,15.72c0.248,3.633,0.417,7.27,0.845,10.884
		c0.242,1.518-0.071,3.572-1.849,3.959c-2.991,0.821-5.596,3.095-8.859,2.696c-3.275,0.253-5.856-2.024-7.953-4.226
		c-3.481,2.364-7.318,4.175-11.374,5.313c-1.094,0.295-2.26-0.478-2.641-1.492c-2.007-4.496-2.176-9.507-3.324-14.236
		c-1.021-3.591-1.608-7.29-2.84-10.825c-1.178-3.239,0.882-7.608,4.544-7.796C141.072,314.092,147.393,313.362,151.684,317.398
		L151.684,317.398L151.684,317.398z M148.771,320.268c-3.565-4.26-9.524-3.637-14.492-3.566c0.199,1.566,0.483,3.127,1.016,4.619
		c1.081,2.979,1.377,6.156,2.278,9.191c1.378,5.089,1.316,10.685,4.031,15.337c2.302-0.113,4.478-1.11,6.521-2.109
		c1.384-1.396,2.139-3.886,4.441-3.981c2.115,0.289,3.445,2.188,5.034,3.42c2.242,1.91,5.462,1.789,8.164,1.131
		c0.847-2.368-0.211-5.144-0.151-7.669c-0.695-6.605,0.006-13.211,0.224-19.814C159.975,315.499,154.023,317.802,148.771,320.268
		L148.771,320.268L148.771,320.268z M41.901,314.866c2.388-1.016,4.871,0.096,7.289,0.367c6.521,0.792,12.945,2.311,19.526,2.563
		c-0.441,4.26-0.604,8.532-0.61,12.817c0.278,2.821-2.787,4.134-5.041,4.707c-6.847,0.419-13.688-0.35-20.522-0.65
		c2.973,3.231,6.243,6.21,9.699,8.913c1.795,0.103,3.929,0.422,5.512-0.333c0.218-1.01-0.363-1.916-0.635-2.847
		c1.97-0.985,4.267-1.849,6.473-1.252c1.571,0.803,1.105,2.861,0.689,4.227c2.683-0.038,5.373-0.024,8.056-0.021
		c-2.061-2.942-3.511-6.308-6.044-8.913c0.81-0.525,1.614-1.063,2.466-1.522c1.91,1.373,2.858,3.619,4.103,5.547
		c0.949,1.676,2.254,3.126,3.136,4.848c-1.009,1.402-2.75,1.94-4.411,1.915c-5.228,0.14-10.467,0.019-15.694,0.298
		c-2.49,0.041-5.173,0.506-7.488-0.684c-0.55-1.22-1.269-2.37-2.351-3.186c-2.666-2.201-5.041-4.713-7.542-7.089
		c0.495-0.368,0.991-0.726,1.48-1.083c0.2-4.021,1.137-7.962,1.451-11.977c0.151-1.765,0.411-3.517,0.846-5.228
		C42.155,315.811,42.028,315.33,41.901,314.866L41.901,314.866L41.901,314.866z M42.464,332.566
		c7.523,0.049,15.054,1.125,22.571,0.598c0.538-1.789,0.362-3.687,0.429-5.53c-0.03-2.778,0.484-5.517,0.889-8.255
		c-7.313-0.416-14.462-2.193-21.732-3.021C43.986,321.767,43.34,327.183,42.464,332.566L42.464,332.566L42.464,332.566z
		 M61.403,340.659c-0.598,1.016-1.432,1.829-2.393,2.508c1.167,0.35,2.411,0.233,3.614,0.29c-0.084-0.847-0.169-1.681-0.254-2.514
		C62.049,340.84,61.723,340.747,61.403,340.659L61.403,340.659L61.403,340.659z M325.543,318.311
		c1.166-1.011,2.398-2.285,4.086-2.182c2.459-0.121,4,2.073,5.33,3.807c5.451-2.013,11.33-2.41,17.078-2.931
		c1.668-0.262,3.317,0.09,4.943,0.471c-0.072,1.306-0.061,2.636-0.392,3.91c-0.413,1.228-1.898,1.428-2.921,1.898
		c0.134-1.312,0.303-2.611,0.473-3.911c-6.146-0.73-12.383,0.345-18.385,1.658c0.218,7.8,0.805,15.621-0.036,23.409
		c1.378-0.331,2.762-0.626,4.17-0.853c-3.329,3.12-8.23,3.562-12.559,4.057c1.348-1.614,3.258-2.485,5.331-2.652
		c0.108-3.174,0.519-6.335,0.436-9.512c-0.115-4.333,0.223-8.751-1.089-12.953c-2.362,0.931-4.447,2.508-6.955,3.078
		c1.771-1.724,4.104-2.647,6.09-4.062C329.629,319.936,327.411,319.373,325.543,318.311L325.543,318.311L325.543,318.311z
		 M155.575,325.399c2.508-0.424,4.774-1.766,7.391-1.62c-1.009,0.889-1.982,1.945-3.329,2.297c-2.407,0.653-4.738,1.8-7.307,1.45
		C153.339,326.729,154.289,325.719,155.575,325.399L155.575,325.399L155.575,325.399z M137.265,327.423
		c1.741-2.049,4.483-2.265,6.907-2.949c0.508,0.14,1.523,0.417,2.037,0.558C143.543,326.655,140.364,327.412,137.265,327.423
		L137.265,327.423L137.265,327.423z M354.695,326.464c1.215,2.313,3.211,4.351,2.805,7.196c-1.294,0.823-2.81,1.258-4.297,0.66
		C351.263,331.66,353.795,328.951,354.695,326.464L354.695,326.464L354.695,326.464z M139.247,337.462
		c1.625-2.356,4.544-2.901,6.75-4.515c1.076,0.419,1.934,1.221,2.871,1.873c-1.01,0.61-1.971,1.619-3.246,1.456
		C143.423,336.107,141.362,337.033,139.247,337.462L139.247,337.462L139.247,337.462z M153.732,334.646
		c0.985-0.581,1.855-1.458,2.992-1.712c1.093,0.279,2.115,0.767,3.148,1.22c1.124-0.439,3.245-2.047,3.898-0.35
		c-1.232,2.013-3.994,1.676-5.922,2.63C156.403,336.271,155.134,335.134,153.732,334.646L153.732,334.646L153.732,334.646z
		 M347.009,345.625c1.216-1.661,0.363-4.484,2.622-5.359c3.132-0.907,6.116,0.811,9.06,1.639c1.426-0.188,2.713-0.955,4.163-1.047
		c2.036,0.943,3.869,2.405,4.901,4.436c-0.761,0.41-1.54,0.793-2.303,1.202c-1.928,0.901-2.779,3.35-5.028,3.718
		c-2.198-0.091-4.44-1.143-6.599-0.236c-2.543,0.926-5.565,0.333-7.583-1.442C345.485,347.542,346.659,346.531,347.009,345.625
		L347.009,345.625z"/>
	<path style="fill-rule:evenodd;clip-rule:evenodd;fill:#7E9CAE;" d="M253.622,355.53C253.96,355.869,253.96,355.869,253.622,355.53
		L253.622,355.53z"/>
</g>
</svg>
