<?xml version="1.0" encoding="iso-8859-1"?>
<svg version="1.1" xmlns="http://www.w3.org/2000/svg" xmlns:xlink="http://www.w3.org/1999/xlink" x="0px" y="0px"
	 viewBox="0 0 97 97" style="enable-background:new 0 0 97 97;" xml:space="preserve">
<g id="Capa_1">
	<g>
		<linearGradient id="XMLID_4_" gradientUnits="userSpaceOnUse" x1="-4.4706" y1="101.4706" x2="45.0262" y2="51.9738">
			<stop  offset="0" style="stop-color:#32A5AE"/>
			<stop  offset="1" style="stop-color:#FFFFFF"/>
		</linearGradient>
		<circle id="XMLID_3_" style="fill:url(#XMLID_4_);" cx="48.5" cy="48.5" r="48.5"/>
		<path id="XMLID_2_" style="fill:#028189;" d="M48.5,2C74.14,2,95,22.86,95,48.5S74.14,95,48.5,95S2,74.14,2,48.5S22.86,2,48.5,2
			 M48.5,0C21.714,0,0,21.714,0,48.5S21.714,97,48.5,97S97,75.286,97,48.5S75.286,0,48.5,0L48.5,0z"/>
	</g>
	<g>
		<linearGradient id="text1314_3_" gradientUnits="userSpaceOnUse" x1="26.225" y1="70.7085" x2="69.6988" y2="27.2348">
			<stop  offset="0" style="stop-color:#036973"/>
			<stop  offset="1" style="stop-color:#32A5AE"/>
		</linearGradient>
		<path id="text1314_2_" style="fill:url(#text1314_3_);" d="M82,58.43V39.536l-67.91-0.189L14,58.484L82,58.43z"/>
		<path id="text1314_1_" style="fill:#028189;" d="M16.081,41.352L80,41.53v14.901l-63.991,0.05L16.081,41.352 M14.09,39.347
			L14,58.484l68-0.053V39.536L14.09,39.347L14.09,39.347z"/>
	</g>
	<rect x="0" style="fill-rule:evenodd;clip-rule:evenodd;fill:none;" width="97" height="97"/>
</g>
<g id="Capa_2">
</g>
</svg>
