<svg width="423" height="125" viewBox="0 0 423 125" fill="none" xmlns="http://www.w3.org/2000/svg">
<g clip-path="url(#clip0_1469_2)">
<path d="M94.1599 51.9293C94.1599 60.5061 93.5057 63.3065 91.7612 65.3736C89.8569 67.1335 87.3662 68.1068 84.7833 68.1006L85.4375 73.2026C89.4409 73.2581 93.3217 71.8106 96.3259 69.1416C99.4514 65.8868 100.542 61.3858 100.542 54.4805V22.05H94.1453V51.9733L94.1599 51.9293Z" fill="#4E4E4E"/>
<path d="M141.869 48.0214C141.869 51.7161 141.869 54.9708 142.16 57.7711H136.563L136.199 51.9066H136.054C134.876 53.9563 133.177 55.6521 131.133 56.8194C129.089 57.9869 126.773 58.5836 124.424 58.5481C118.9 58.5481 112.3 55.4399 112.3 42.8901V21.9832H118.696V41.8197C118.696 48.6226 120.732 53.1967 126.532 53.1967C128.352 53.1632 130.121 52.5889 131.618 51.5456C133.115 50.5024 134.274 49.0367 134.949 47.3324C135.337 46.2666 135.534 45.1396 135.531 44.0042V22.0126H141.927V48.0214H141.869Z" fill="#4E4E4E"/>
<path d="M153.924 33.6771C153.924 29.1028 153.779 25.4082 153.633 21.9482H159.376L159.666 28.0765H159.812C161.068 25.8808 162.895 24.0729 165.096 22.8481C167.297 21.6233 169.788 21.0283 172.299 21.1271C180.789 21.1271 187.185 28.4577 187.185 39.3069C187.185 52.1647 179.495 58.513 171.194 58.513C169.064 58.6032 166.946 58.1329 165.05 57.1485C163.154 56.164 161.544 54.6992 160.379 52.8979H160.233V72.3239H153.91V33.6184L153.924 33.6771ZM160.248 43.2069C160.265 44.0984 160.362 44.9867 160.539 45.8605C161.06 48.0277 162.287 49.9557 164.024 51.3354C165.761 52.7152 167.908 53.4667 170.119 53.4695C176.879 53.4695 180.789 47.8544 180.789 39.6589C180.789 32.4895 177.082 26.3612 170.337 26.3612C168.068 26.4252 165.886 27.2521 164.137 28.7105C162.388 30.1689 161.173 32.1751 160.684 34.4101C160.428 35.2725 160.281 36.1642 160.248 37.0638V43.1922V43.2069Z" fill="#4E4E4E"/>
<path d="M198.501 22.0166L206.191 43.1433C206.991 45.5038 207.863 48.3188 208.444 50.4739H208.59C209.244 48.3334 209.971 45.5918 210.843 43.0114L217.821 22.0313H224.581L215.001 47.5269C210.421 59.7838 207.31 66.0733 202.949 69.9146C200.746 71.9818 198.044 73.4323 195.114 74.1223L193.515 68.6538C195.565 67.9648 197.465 66.8846 199.111 65.4723C201.438 63.5119 203.279 61.0323 204.49 58.2296C204.749 57.7456 204.921 57.2196 204.999 56.6756C204.942 56.0893 204.794 55.5156 204.563 54.9748L191.567 22.0313H198.544L198.501 22.0166Z" fill="#4E4E4E"/>
<path d="M241.369 11.7334V21.9962H250.513V26.9517H241.369V46.2164C241.369 50.6147 242.605 53.1657 246.167 53.1657C247.416 53.1854 248.663 53.0374 249.874 52.7259L250.164 57.6081C248.345 58.2542 246.422 58.5526 244.495 58.4877C243.216 58.5667 241.936 58.3637 240.744 57.8927C239.551 57.4217 238.475 56.6942 237.59 55.7607C235.772 53.8402 235.118 50.6587 235.118 46.4511V26.9517H229.667V21.9962H235.118V13.4194L241.369 11.7334Z" fill="#4E4E4E"/>
<path d="M262.298 41.0638C262.443 49.8604 267.967 53.4818 274.349 53.4818C277.685 53.5874 281.005 52.9569 284.074 51.6344L285.165 56.2821C281.487 57.8399 277.523 58.5944 273.535 58.4959C262.719 58.4959 256.25 51.2533 256.25 40.4626C256.25 29.6721 262.501 21.1833 272.735 21.1833C284.205 21.1833 287.273 31.4461 287.273 38.0289C287.262 39.0441 287.189 40.0576 287.055 41.0638H262.341H262.298ZM281.036 36.4162C281.109 32.2817 279.364 25.8455 272.183 25.8455C265.714 25.8455 262.894 31.9006 262.385 36.4162H281.051H281.036Z" fill="#4E4E4E"/>
<path d="M296.574 33.1642C296.574 28.9564 296.501 25.3351 296.283 22.0071H301.88L302.098 29.0297H302.389C303.988 24.2209 307.84 21.2007 312.114 21.2007C312.727 21.1917 313.338 21.2656 313.932 21.4206V27.549C313.216 27.3915 312.484 27.3177 311.751 27.3291C307.244 27.3291 304.061 30.8037 303.189 35.6712C303.009 36.673 302.911 37.6881 302.898 38.7061V57.7656H296.574V33.1642Z" fill="#4E4E4E"/>
<path d="M61.9893 5.25675C62.0316 6.23617 61.7848 7.2062 61.2803 8.04417C60.7758 8.88212 60.0362 9.55034 59.1551 9.96427C58.2739 10.3782 57.2908 10.5193 56.3302 10.3696C55.3695 10.2199 54.4745 9.78625 53.7582 9.12344C53.042 8.46064 52.5368 7.59847 52.3066 6.64604C52.0763 5.6936 52.1314 4.6937 52.4647 3.77282C52.7981 2.85192 53.3948 2.05145 54.1793 1.47265C54.9638 0.893852 55.901 0.562741 56.8722 0.521208C58.1732 0.465568 59.443 0.933069 60.4024 1.82101C61.3619 2.70894 61.9327 3.94469 61.9893 5.25675Z" fill="#767677"/>
<path d="M33.341 63.5235C20.2575 63.5235 8.83119 58.7293 2.89999 51.6333C5.10897 58.0006 9.22592 63.518 14.681 67.4217C20.1362 71.3253 26.6595 73.4223 33.3483 73.4223C40.0372 73.4223 46.5605 71.3253 52.0157 67.4217C57.4707 63.518 61.5877 58.0006 63.7967 51.6333C57.8508 58.7293 46.4247 63.5235 33.341 63.5235Z" fill="#F37726"/>
<path d="M33.3388 17.3655C46.4225 17.3655 57.8488 22.1597 63.78 29.2556C61.571 22.8883 57.454 17.371 51.999 13.4673C46.5438 9.56358 40.0205 7.46661 33.3316 7.46661C26.6428 7.46661 20.1195 9.56358 14.6643 13.4673C9.20923 17.371 5.09228 22.8883 2.8833 29.2556C8.82905 22.1743 20.2553 17.3655 33.3388 17.3655Z" fill="#F37726"/>
<path d="M15.3799 77.3224C15.4336 78.5573 15.1227 79.7804 14.4866 80.837C13.8506 81.8935 12.918 82.736 11.8069 83.2578C10.6959 83.7795 9.45627 83.957 8.24512 83.7678C7.03395 83.5786 5.90568 83.0313 5.00315 82.195C4.10063 81.3588 3.46443 80.2712 3.17511 79.0701C2.88579 77.869 2.95636 76.6083 3.37788 75.4477C3.7994 74.287 4.55291 73.2786 5.54302 72.5502C6.53313 71.8217 7.71532 71.4058 8.9399 71.3553C10.5779 71.2878 12.1756 71.8779 13.3828 72.9965C14.59 74.115 15.3082 75.6707 15.3799 77.3224Z" fill="#989798"/>
<path d="M4.39116 15.7606C3.67269 15.7919 2.96116 15.6075 2.34663 15.2308C1.73209 14.8541 1.24219 14.302 0.938927 13.6443C0.635665 12.9867 0.532676 12.2531 0.642995 11.5364C0.753314 10.8197 1.07198 10.1522 1.55866 9.61822C2.04535 9.08426 2.67816 8.70792 3.37701 8.53684C4.07586 8.36576 4.80933 8.40762 5.48458 8.65714C6.15983 8.90665 6.74651 9.35259 7.17034 9.93851C7.59418 10.5244 7.83613 11.224 7.86556 11.9487C7.90496 12.9185 7.56128 13.8646 6.90993 14.5792C6.25858 15.2938 5.35274 15.7187 4.39116 15.7606Z" fill="#6F7070"/>
<path d="M330.869 11.5V58H325.269V11.5H330.869ZM329.537 40.3809L327.206 40.29C327.226 38.0498 327.559 35.9811 328.205 34.084C328.851 32.1667 329.759 30.5016 330.93 29.0889C332.1 27.6761 333.493 26.5863 335.107 25.8193C336.742 25.0322 338.549 24.6387 340.526 24.6387C342.141 24.6387 343.594 24.8607 344.886 25.3047C346.177 25.7285 347.277 26.4147 348.186 27.3633C349.114 28.3118 349.82 29.543 350.305 31.0566C350.789 32.5501 351.031 34.3766 351.031 36.5361V58H345.4V36.4756C345.4 34.7601 345.148 33.3877 344.644 32.3584C344.139 31.3089 343.402 30.5521 342.434 30.0879C341.465 29.6035 340.274 29.3613 338.861 29.3613C337.469 29.3613 336.197 29.654 335.047 30.2393C333.917 30.8245 332.938 31.6318 332.11 32.6611C331.303 33.6904 330.667 34.8711 330.203 36.2031C329.759 37.515 329.537 38.9076 329.537 40.3809ZM379.458 50.4316V25.2441H385.089V58H379.73L379.458 50.4316ZM380.518 43.5293L382.849 43.4688C382.849 45.6484 382.617 47.6667 382.152 49.5234C381.708 51.36 380.982 52.9544 379.973 54.3066C378.964 55.6589 377.642 56.7184 376.007 57.4854C374.372 58.2321 372.384 58.6055 370.043 58.6055C368.449 58.6055 366.985 58.3734 365.653 57.9092C364.341 57.445 363.211 56.7285 362.263 55.7598C361.314 54.791 360.577 53.5296 360.053 51.9756C359.548 50.4215 359.296 48.5547 359.296 46.375V25.2441H364.896V46.4355C364.896 47.9089 365.058 49.1299 365.381 50.0986C365.724 51.0472 366.178 51.804 366.743 52.3691C367.328 52.9141 367.974 53.2975 368.681 53.5195C369.407 53.7415 370.154 53.8525 370.921 53.8525C373.302 53.8525 375.189 53.3984 376.582 52.4902C377.975 51.5618 378.974 50.3206 379.579 48.7666C380.205 47.1924 380.518 45.4466 380.518 43.5293ZM393.596 11.5H399.227V51.6426L398.742 58H393.596V11.5ZM421.356 41.3496V41.9854C421.356 44.3669 421.074 46.5768 420.509 48.6152C419.944 50.6335 419.116 52.3893 418.026 53.8828C416.937 55.3763 415.604 56.5368 414.03 57.3643C412.456 58.1917 410.65 58.6055 408.611 58.6055C406.533 58.6055 404.706 58.2523 403.132 57.5459C401.578 56.8193 400.266 55.7799 399.196 54.4277C398.127 53.0755 397.269 51.4408 396.623 49.5234C395.997 47.6061 395.563 45.4466 395.321 43.0449V40.2598C395.563 37.8379 395.997 35.6683 396.623 33.751C397.269 31.8337 398.127 30.1989 399.196 28.8467C400.266 27.4743 401.578 26.4349 403.132 25.7285C404.686 25.002 406.492 24.6387 408.551 24.6387C410.609 24.6387 412.436 25.0423 414.03 25.8496C415.625 26.6367 416.957 27.7669 418.026 29.2402C419.116 30.7135 419.944 32.4795 420.509 34.5381C421.074 36.5765 421.356 38.847 421.356 41.3496ZM415.726 41.9854V41.3496C415.726 39.7148 415.574 38.181 415.271 36.748C414.969 35.2949 414.484 34.0234 413.818 32.9336C413.152 31.8236 412.274 30.9557 411.185 30.3301C410.095 29.6842 408.753 29.3613 407.158 29.3613C405.745 29.3613 404.514 29.6035 403.465 30.0879C402.436 30.5723 401.558 31.2282 400.831 32.0557C400.104 32.863 399.509 33.7913 399.045 34.8408C398.601 35.8701 398.268 36.9398 398.046 38.0498V45.3457C398.369 46.7585 398.894 48.1208 399.62 49.4326C400.367 50.7243 401.356 51.7839 402.587 52.6113C403.838 53.4388 405.382 53.8525 407.219 53.8525C408.732 53.8525 410.024 53.5498 411.094 52.9443C412.184 52.3187 413.062 51.4609 413.728 50.3711C414.414 49.2812 414.918 48.0199 415.241 46.5869C415.564 45.154 415.726 43.6201 415.726 41.9854Z" fill="#F37726"/>
<path d="M162.382 114H158.317V87.7207C158.317 86.0068 158.625 84.564 159.24 83.3921C159.87 82.2056 160.771 81.312 161.943 80.7114C163.115 80.0962 164.506 79.7886 166.118 79.7886C166.586 79.7886 167.055 79.8179 167.524 79.8765C168.007 79.9351 168.476 80.0229 168.93 80.1401L168.71 83.458C168.403 83.3848 168.051 83.3335 167.656 83.3042C167.275 83.2749 166.894 83.2603 166.513 83.2603C165.649 83.2603 164.902 83.436 164.272 83.7876C163.657 84.1245 163.188 84.6226 162.866 85.2817C162.543 85.9409 162.382 86.7539 162.382 87.7207V114ZM167.436 90.2256V93.3457H154.56V90.2256H167.436ZM185.981 109.935V97.6963C185.981 96.7588 185.791 95.9458 185.41 95.2573C185.043 94.5542 184.487 94.0122 183.74 93.6313C182.993 93.2505 182.07 93.0601 180.971 93.0601C179.946 93.0601 179.045 93.2358 178.269 93.5874C177.507 93.939 176.906 94.4004 176.467 94.9717C176.042 95.543 175.83 96.1582 175.83 96.8174H171.765C171.765 95.9678 171.984 95.1255 172.424 94.2905C172.863 93.4556 173.493 92.7012 174.313 92.0273C175.148 91.3389 176.145 90.7969 177.302 90.4014C178.474 89.9912 179.777 89.7861 181.213 89.7861C182.941 89.7861 184.465 90.0791 185.783 90.665C187.116 91.251 188.156 92.1372 188.903 93.3237C189.665 94.4956 190.046 95.9678 190.046 97.7402V108.814C190.046 109.605 190.112 110.448 190.244 111.341C190.39 112.235 190.603 113.004 190.881 113.648V114H186.64C186.435 113.531 186.274 112.909 186.157 112.132C186.04 111.341 185.981 110.609 185.981 109.935ZM186.684 99.5859L186.728 102.442H182.619C181.462 102.442 180.429 102.538 179.521 102.728C178.613 102.904 177.851 103.175 177.236 103.541C176.621 103.907 176.152 104.369 175.83 104.925C175.507 105.467 175.346 106.104 175.346 106.837C175.346 107.584 175.515 108.265 175.852 108.88C176.188 109.496 176.694 109.986 177.368 110.353C178.056 110.704 178.898 110.88 179.895 110.88C181.14 110.88 182.238 110.616 183.19 110.089C184.143 109.562 184.897 108.917 185.454 108.155C186.025 107.394 186.333 106.654 186.376 105.936L188.112 107.892C188.01 108.507 187.731 109.188 187.277 109.935C186.823 110.682 186.215 111.4 185.454 112.088C184.707 112.762 183.813 113.326 182.773 113.78C181.748 114.22 180.59 114.439 179.301 114.439C177.69 114.439 176.276 114.125 175.061 113.495C173.859 112.865 172.922 112.022 172.248 110.968C171.589 109.898 171.259 108.705 171.259 107.386C171.259 106.112 171.508 104.991 172.006 104.024C172.504 103.043 173.222 102.23 174.16 101.585C175.097 100.926 176.225 100.428 177.543 100.091C178.862 99.7544 180.334 99.5859 181.96 99.5859H186.684ZM200.505 95.3013V114H196.44V90.2256H200.285L200.505 95.3013ZM199.538 101.212L197.846 101.146C197.861 99.52 198.103 98.0186 198.571 96.6416C199.04 95.25 199.699 94.0415 200.549 93.0161C201.398 91.9907 202.409 91.1997 203.581 90.6431C204.768 90.0718 206.079 89.7861 207.514 89.7861C208.686 89.7861 209.741 89.9473 210.678 90.2695C211.616 90.5771 212.414 91.0752 213.073 91.7637C213.747 92.4521 214.26 93.3457 214.611 94.4443C214.963 95.5283 215.139 96.854 215.139 98.4214V114H211.052V98.3774C211.052 97.1323 210.869 96.1362 210.502 95.3892C210.136 94.6274 209.602 94.0781 208.898 93.7412C208.195 93.3896 207.331 93.2139 206.306 93.2139C205.295 93.2139 204.372 93.4263 203.537 93.8511C202.717 94.2759 202.006 94.8618 201.406 95.6089C200.82 96.356 200.358 97.2129 200.021 98.1797C199.699 99.1318 199.538 100.143 199.538 101.212ZM230.827 111.1C231.794 111.1 232.688 110.902 233.508 110.506C234.328 110.111 235.002 109.569 235.529 108.88C236.057 108.177 236.357 107.379 236.43 106.485H240.297C240.224 107.892 239.748 109.203 238.869 110.418C238.005 111.62 236.87 112.594 235.463 113.341C234.057 114.073 232.512 114.439 230.827 114.439C229.04 114.439 227.48 114.125 226.147 113.495C224.829 112.865 223.73 112 222.851 110.902C221.987 109.803 221.335 108.543 220.896 107.123C220.471 105.687 220.258 104.171 220.258 102.574V101.651C220.258 100.055 220.471 98.5459 220.896 97.125C221.335 95.6895 221.987 94.4224 222.851 93.3237C223.73 92.2251 224.829 91.3608 226.147 90.731C227.48 90.1011 229.04 89.7861 230.827 89.7861C232.688 89.7861 234.313 90.167 235.705 90.9287C237.097 91.6758 238.188 92.7012 238.979 94.0049C239.785 95.2939 240.224 96.7588 240.297 98.3994H236.43C236.357 97.418 236.079 96.5317 235.595 95.7407C235.126 94.9497 234.482 94.3198 233.662 93.8511C232.856 93.3677 231.911 93.126 230.827 93.126C229.582 93.126 228.535 93.375 227.685 93.873C226.85 94.3564 226.184 95.0156 225.686 95.8506C225.202 96.6709 224.851 97.5864 224.631 98.5972C224.426 99.5933 224.323 100.611 224.323 101.651V102.574C224.323 103.614 224.426 104.64 224.631 105.65C224.836 106.661 225.18 107.577 225.664 108.397C226.162 109.217 226.828 109.876 227.663 110.375C228.513 110.858 229.567 111.1 230.827 111.1ZM251.547 111.539L258.161 90.2256H262.512L252.976 117.669C252.756 118.255 252.463 118.885 252.097 119.559C251.745 120.248 251.291 120.899 250.734 121.515C250.178 122.13 249.504 122.628 248.713 123.009C247.937 123.404 247.006 123.602 245.922 123.602C245.6 123.602 245.19 123.558 244.692 123.47C244.194 123.382 243.842 123.309 243.637 123.25L243.615 119.955C243.732 119.969 243.916 119.984 244.165 119.999C244.428 120.028 244.611 120.042 244.714 120.042C245.637 120.042 246.42 119.918 247.065 119.669C247.709 119.435 248.251 119.032 248.691 118.46C249.145 117.904 249.533 117.135 249.855 116.153L251.547 111.539ZM246.691 90.2256L252.866 108.683L253.92 112.967L250.998 114.461L242.253 90.2256H246.691ZM281.408 94.7959V123.141H277.321V90.2256H281.057L281.408 94.7959ZM297.426 101.915V102.376C297.426 104.105 297.221 105.709 296.811 107.188C296.401 108.653 295.8 109.928 295.009 111.012C294.233 112.096 293.273 112.938 292.131 113.539C290.988 114.139 289.677 114.439 288.198 114.439C286.689 114.439 285.356 114.19 284.199 113.692C283.042 113.194 282.06 112.469 281.254 111.517C280.449 110.565 279.804 109.422 279.321 108.089C278.852 106.756 278.53 105.255 278.354 103.585V101.124C278.53 99.3662 278.859 97.7915 279.343 96.3999C279.826 95.0083 280.463 93.8218 281.254 92.8403C282.06 91.8442 283.034 91.0898 284.177 90.5771C285.319 90.0498 286.638 89.7861 288.132 89.7861C289.626 89.7861 290.952 90.0791 292.109 90.665C293.266 91.2363 294.24 92.0566 295.031 93.126C295.822 94.1953 296.416 95.4771 296.811 96.9712C297.221 98.4507 297.426 100.099 297.426 101.915ZM293.339 102.376V101.915C293.339 100.729 293.215 99.6152 292.966 98.5752C292.717 97.5205 292.329 96.5977 291.801 95.8066C291.289 95.001 290.629 94.3711 289.824 93.917C289.018 93.4482 288.059 93.2139 286.945 93.2139C285.92 93.2139 285.026 93.3896 284.265 93.7412C283.518 94.0928 282.88 94.5688 282.353 95.1694C281.826 95.7554 281.394 96.4292 281.057 97.1909C280.734 97.938 280.493 98.7144 280.332 99.52V105.211C280.625 106.236 281.035 107.203 281.562 108.111C282.089 109.005 282.792 109.73 283.671 110.287C284.55 110.829 285.656 111.1 286.989 111.1C288.088 111.1 289.033 110.873 289.824 110.418C290.629 109.95 291.289 109.312 291.801 108.507C292.329 107.701 292.717 106.778 292.966 105.738C293.215 104.684 293.339 103.563 293.339 102.376ZM306.677 93.9609V114H302.612V90.2256H306.567L306.677 93.9609ZM314.104 90.0938L314.082 93.873C313.745 93.7998 313.422 93.7559 313.115 93.7412C312.822 93.7119 312.485 93.6973 312.104 93.6973C311.167 93.6973 310.339 93.8438 309.621 94.1367C308.903 94.4297 308.295 94.8398 307.797 95.3672C307.299 95.8945 306.904 96.5244 306.611 97.2568C306.333 97.9746 306.149 98.7656 306.062 99.6299L304.919 100.289C304.919 98.8535 305.058 97.5059 305.336 96.2461C305.629 94.9863 306.076 93.873 306.677 92.9062C307.277 91.9248 308.039 91.1631 308.962 90.6211C309.899 90.0645 311.013 89.7861 312.302 89.7861C312.595 89.7861 312.932 89.8228 313.312 89.896C313.693 89.9546 313.957 90.0205 314.104 90.0938ZM316.345 102.376V101.871C316.345 100.157 316.594 98.5679 317.092 97.103C317.59 95.6235 318.308 94.3418 319.245 93.2578C320.183 92.1592 321.318 91.3096 322.651 90.709C323.984 90.0938 325.478 89.7861 327.133 89.7861C328.803 89.7861 330.305 90.0938 331.638 90.709C332.985 91.3096 334.128 92.1592 335.065 93.2578C336.018 94.3418 336.743 95.6235 337.241 97.103C337.739 98.5679 337.988 100.157 337.988 101.871V102.376C337.988 104.09 337.739 105.68 337.241 107.145C336.743 108.609 336.018 109.891 335.065 110.99C334.128 112.074 332.993 112.923 331.66 113.539C330.341 114.139 328.847 114.439 327.177 114.439C325.507 114.439 324.006 114.139 322.673 113.539C321.34 112.923 320.197 112.074 319.245 110.99C318.308 109.891 317.59 108.609 317.092 107.145C316.594 105.68 316.345 104.09 316.345 102.376ZM320.41 101.871V102.376C320.41 103.563 320.549 104.684 320.827 105.738C321.105 106.778 321.523 107.701 322.08 108.507C322.651 109.312 323.361 109.95 324.211 110.418C325.061 110.873 326.049 111.1 327.177 111.1C328.291 111.1 329.265 110.873 330.1 110.418C330.949 109.95 331.652 109.312 332.209 108.507C332.766 107.701 333.183 106.778 333.461 105.738C333.754 104.684 333.901 103.563 333.901 102.376V101.871C333.901 100.699 333.754 99.5933 333.461 98.5532C333.183 97.4985 332.758 96.5684 332.187 95.7627C331.63 94.9424 330.927 94.2979 330.078 93.8291C329.243 93.3604 328.261 93.126 327.133 93.126C326.02 93.126 325.039 93.3604 324.189 93.8291C323.354 94.2979 322.651 94.9424 322.08 95.7627C321.523 96.5684 321.105 97.4985 320.827 98.5532C320.549 99.5933 320.41 100.699 320.41 101.871ZM348.513 114H344.448V88.1602C344.448 86.3584 344.799 84.835 345.502 83.5898C346.206 82.3447 347.209 81.3999 348.513 80.7554C349.816 80.1108 351.362 79.7886 353.149 79.7886C354.204 79.7886 355.236 79.9204 356.247 80.1841C357.258 80.4331 358.298 80.748 359.367 81.1289L358.686 84.5566C358.012 84.293 357.229 84.0439 356.335 83.8096C355.456 83.5605 354.489 83.436 353.435 83.436C351.691 83.436 350.432 83.8315 349.655 84.6226C348.894 85.3989 348.513 86.5781 348.513 88.1602V114ZM353.369 90.2256V93.3457H340.69V90.2256H353.369ZM361.367 90.2256V114H357.302V90.2256H361.367ZM372.463 80.25V114H368.376V80.25H372.463ZM388.854 114.439C387.199 114.439 385.698 114.161 384.35 113.604C383.017 113.033 381.867 112.235 380.9 111.209C379.948 110.184 379.216 108.968 378.703 107.562C378.19 106.156 377.934 104.618 377.934 102.948V102.025C377.934 100.091 378.22 98.3701 378.791 96.8613C379.362 95.3379 380.139 94.0488 381.12 92.9941C382.102 91.9395 383.215 91.1411 384.46 90.5991C385.705 90.0571 386.994 89.7861 388.327 89.7861C390.026 89.7861 391.491 90.0791 392.722 90.665C393.967 91.251 394.985 92.0713 395.776 93.126C396.567 94.166 397.153 95.3965 397.534 96.8174C397.915 98.2236 398.105 99.7617 398.105 101.432V103.255H380.351V99.9375H394.04V99.6299C393.981 98.5752 393.762 97.5498 393.381 96.5537C393.015 95.5576 392.429 94.7373 391.623 94.0928C390.817 93.4482 389.719 93.126 388.327 93.126C387.404 93.126 386.555 93.3237 385.778 93.7192C385.002 94.1001 384.335 94.6714 383.779 95.4331C383.222 96.1948 382.79 97.125 382.482 98.2236C382.175 99.3223 382.021 100.589 382.021 102.025V102.948C382.021 104.076 382.175 105.138 382.482 106.134C382.805 107.115 383.266 107.979 383.867 108.727C384.482 109.474 385.222 110.06 386.086 110.484C386.965 110.909 387.961 111.122 389.074 111.122C390.51 111.122 391.726 110.829 392.722 110.243C393.718 109.657 394.589 108.873 395.336 107.892L397.797 109.847C397.285 110.624 396.633 111.363 395.842 112.066C395.051 112.77 394.077 113.341 392.919 113.78C391.777 114.22 390.422 114.439 388.854 114.439ZM416.694 107.694C416.694 107.108 416.562 106.566 416.298 106.068C416.049 105.555 415.529 105.094 414.738 104.684C413.962 104.259 412.79 103.893 411.223 103.585C409.904 103.307 408.71 102.977 407.641 102.596C406.586 102.215 405.686 101.754 404.938 101.212C404.206 100.67 403.642 100.033 403.247 99.3003C402.851 98.5679 402.653 97.7109 402.653 96.7295C402.653 95.792 402.858 94.9058 403.269 94.0708C403.693 93.2358 404.287 92.4961 405.048 91.8516C405.825 91.207 406.755 90.7017 407.839 90.3354C408.923 89.9692 410.131 89.7861 411.464 89.7861C413.369 89.7861 414.995 90.123 416.342 90.7969C417.69 91.4707 418.723 92.3716 419.44 93.4995C420.158 94.6128 420.517 95.8506 420.517 97.2129H416.452C416.452 96.5537 416.254 95.9165 415.859 95.3013C415.478 94.6714 414.914 94.1514 414.167 93.7412C413.435 93.3311 412.534 93.126 411.464 93.126C410.336 93.126 409.421 93.3018 408.718 93.6533C408.029 93.9902 407.524 94.4224 407.202 94.9497C406.894 95.4771 406.74 96.0337 406.74 96.6196C406.74 97.0591 406.813 97.4546 406.96 97.8062C407.121 98.1431 407.399 98.458 407.795 98.751C408.19 99.0293 408.747 99.293 409.465 99.542C410.183 99.791 411.098 100.04 412.211 100.289C414.16 100.729 415.764 101.256 417.023 101.871C418.283 102.486 419.221 103.241 419.836 104.134C420.451 105.028 420.759 106.112 420.759 107.386C420.759 108.426 420.539 109.378 420.1 110.243C419.675 111.107 419.052 111.854 418.232 112.484C417.426 113.099 416.459 113.583 415.332 113.934C414.218 114.271 412.966 114.439 411.574 114.439C409.479 114.439 407.707 114.066 406.257 113.319C404.807 112.572 403.708 111.605 402.961 110.418C402.214 109.232 401.84 107.979 401.84 106.661H405.927C405.986 107.774 406.308 108.661 406.894 109.32C407.48 109.964 408.198 110.426 409.047 110.704C409.897 110.968 410.739 111.1 411.574 111.1C412.688 111.1 413.618 110.953 414.365 110.66C415.126 110.367 415.705 109.964 416.101 109.452C416.496 108.939 416.694 108.353 416.694 107.694Z" fill="#4E4E4E"/>
</g>
<defs>
<clipPath id="clip0_1469_2">
<rect width="423" height="125" fill="white"/>
</clipPath>
</defs>
</svg>
