<?xml version="1.0" encoding="UTF-8" standalone="no"?>
<!DOCTYPE svg PUBLIC "-//W3C//DTD SVG 1.1//EN"
 "http://www.w3.org/Graphics/SVG/1.1/DTD/svg11.dtd">
<!-- Generated by graphviz version 12.2.1 (20241206.2353)
 -->
<!-- Title: classes_studies Pages: 1 -->
<svg width="687pt" height="444pt"
 viewBox="0.00 0.00 686.50 444.00" xmlns="http://www.w3.org/2000/svg" xmlns:xlink="http://www.w3.org/1999/xlink">
<g id="graph0" class="graph" transform="scale(1 1) rotate(0) translate(4 440)">
<title>classes_studies</title>
<polygon fill="white" stroke="none" points="-4,4 -4,-440 682.5,-440 682.5,4 -4,4"/>
<!-- studies.dclp.DCLP3 -->
<g id="node1" class="node">
<title>studies.dclp.DCLP3</title>
<polygon fill="none" stroke="black" points="621.25,-98.75 621.25,-147.75 678.5,-147.75 678.5,-98.75 621.25,-98.75"/>
<text text-anchor="start" x="629.25" y="-130.45" font-family="Times,serif" font-size="14.00">DCLP3</text>
<polyline fill="none" stroke="black" points="621.25,-123.25 678.5,-123.25"/>
<polyline fill="none" stroke="black" points="621.25,-123.25 678.5,-123.25"/>
<text text-anchor="start" x="648" y="-105.95" font-family="Times,serif" font-size="14.00"> </text>
</g>
<!-- studies.studydataset.StudyDataset -->
<g id="node8" class="node">
<title>studies.studydataset.StudyDataset</title>
<polygon fill="none" stroke="black" points="196.88,-197 196.88,-435.5 512.88,-435.5 512.88,-197 196.88,-197"/>
<text text-anchor="start" x="318.88" y="-418.2" font-family="Times,serif" font-size="14.00">StudyDataset</text>
<polyline fill="none" stroke="black" points="196.88,-411 512.88,-411"/>
<text text-anchor="start" x="204.88" y="-393.7" font-family="Times,serif" font-size="14.00">COL_NAME_BASAL_RATE : str</text>
<text text-anchor="start" x="204.88" y="-377.2" font-family="Times,serif" font-size="14.00">COL_NAME_BOLUS : str</text>
<text text-anchor="start" x="204.88" y="-360.7" font-family="Times,serif" font-size="14.00">COL_NAME_BOLUS_DELIVERY_DURATION : str</text>
<text text-anchor="start" x="204.88" y="-344.2" font-family="Times,serif" font-size="14.00">COL_NAME_CGM : str</text>
<text text-anchor="start" x="204.88" y="-327.7" font-family="Times,serif" font-size="14.00">COL_NAME_DATETIME : str</text>
<text text-anchor="start" x="204.88" y="-311.2" font-family="Times,serif" font-size="14.00">COL_NAME_PATIENT_ID : str</text>
<text text-anchor="start" x="204.88" y="-294.7" font-family="Times,serif" font-size="14.00">study_name</text>
<text text-anchor="start" x="204.88" y="-278.2" font-family="Times,serif" font-size="14.00">study_path</text>
<polyline fill="none" stroke="black" points="196.88,-271 512.88,-271"/>
<text text-anchor="start" x="273.88" y="-253.7" font-family="Times,serif" font-size="14.00">extract_basal_event_history()</text>
<text text-anchor="start" x="273.88" y="-237.2" font-family="Times,serif" font-size="14.00">extract_bolus_event_history()</text>
<text text-anchor="start" x="273.88" y="-220.7" font-family="Times,serif" font-size="14.00">extract_cgm_history()</text>
<text text-anchor="start" x="273.88" y="-204.2" font-family="Times,serif" font-size="14.00">load_data(subset)</text>
</g>
<!-- studies.dclp.DCLP3&#45;&gt;studies.studydataset.StudyDataset -->
<g id="edge1" class="edge">
<title>studies.dclp.DCLP3&#45;&gt;studies.studydataset.StudyDataset</title>
<path fill="none" stroke="black" d="M626.47,-148.1C621.79,-152.42 616.8,-156.74 611.88,-160.5 584.02,-181.76 553.05,-202.54 522.53,-221.62"/>
<polygon fill="none" stroke="black" points="521.01,-218.44 514.36,-226.68 524.7,-224.38 521.01,-218.44"/>
</g>
<!-- studies.dclp.DCLP5 -->
<g id="node2" class="node">
<title>studies.dclp.DCLP5</title>
<polygon fill="none" stroke="black" points="621.25,-0.5 621.25,-49.5 678.5,-49.5 678.5,-0.5 621.25,-0.5"/>
<text text-anchor="start" x="629.25" y="-32.2" font-family="Times,serif" font-size="14.00">DCLP5</text>
<polyline fill="none" stroke="black" points="621.25,-25 678.5,-25"/>
<polyline fill="none" stroke="black" points="621.25,-25 678.5,-25"/>
<text text-anchor="start" x="648" y="-7.7" font-family="Times,serif" font-size="14.00"> </text>
</g>
<!-- studies.dclp.DCLP5&#45;&gt;studies.dclp.DCLP3 -->
<g id="edge2" class="edge">
<title>studies.dclp.DCLP5&#45;&gt;studies.dclp.DCLP3</title>
<path fill="none" stroke="black" d="M649.88,-49.79C649.88,-61.01 649.88,-74.63 649.88,-87.02"/>
<polygon fill="none" stroke="black" points="646.38,-86.88 649.88,-96.88 653.38,-86.88 646.38,-86.88"/>
</g>
<!-- studies.flair.Flair -->
<g id="node3" class="node">
<title>studies.flair.Flair</title>
<polygon fill="none" stroke="black" points="0,-98.75 0,-147.75 163.75,-147.75 163.75,-98.75 0,-98.75"/>
<text text-anchor="start" x="69.12" y="-130.45" font-family="Times,serif" font-size="14.00">Flair</text>
<polyline fill="none" stroke="black" points="0,-123.25 163.75,-123.25"/>
<polyline fill="none" stroke="black" points="0,-123.25 163.75,-123.25"/>
<text text-anchor="start" x="8" y="-105.95" font-family="Times,serif" font-size="14.00">get_reported_tdds(method)</text>
</g>
<!-- studies.flair.Flair&#45;&gt;studies.studydataset.StudyDataset -->
<g id="edge3" class="edge">
<title>studies.flair.Flair&#45;&gt;studies.studydataset.StudyDataset</title>
<path fill="none" stroke="black" d="M116.17,-148.25C135.22,-161.57 160.47,-179.24 187.42,-198.09"/>
<polygon fill="none" stroke="black" points="185.18,-200.79 195.38,-203.66 189.19,-195.06 185.18,-200.79"/>
</g>
<!-- studies.iobp2.IOBP2 -->
<g id="node4" class="node">
<title>studies.iobp2.IOBP2</title>
<polygon fill="none" stroke="black" points="181.88,-98.75 181.88,-147.75 235.88,-147.75 235.88,-98.75 181.88,-98.75"/>
<text text-anchor="start" x="189.88" y="-130.45" font-family="Times,serif" font-size="14.00">IOBP2</text>
<polyline fill="none" stroke="black" points="181.88,-123.25 235.38,-123.25"/>
<polyline fill="none" stroke="black" points="181.88,-123.25 235.38,-123.25"/>
<text text-anchor="start" x="206.75" y="-105.95" font-family="Times,serif" font-size="14.00"> </text>
</g>
<!-- studies.iobp2.IOBP2&#45;&gt;studies.studydataset.StudyDataset -->
<g id="edge4" class="edge">
<title>studies.iobp2.IOBP2&#45;&gt;studies.studydataset.StudyDataset</title>
<path fill="none" stroke="black" d="M227.07,-148.05C235.38,-158.92 245.92,-172.71 257.36,-187.68"/>
<polygon fill="none" stroke="black" points="254.43,-189.61 263.28,-195.42 259.99,-185.35 254.43,-189.61"/>
</g>
<!-- studies.loop.Loop -->
<g id="node5" class="node">
<title>studies.loop.Loop</title>
<polygon fill="none" stroke="black" points="253.88,-98.75 253.88,-147.75 307.88,-147.75 307.88,-98.75 253.88,-98.75"/>
<text text-anchor="start" x="266.38" y="-130.45" font-family="Times,serif" font-size="14.00">Loop</text>
<polyline fill="none" stroke="black" points="253.88,-123.25 307.38,-123.25"/>
<polyline fill="none" stroke="black" points="253.88,-123.25 307.38,-123.25"/>
<text text-anchor="start" x="278.75" y="-105.95" font-family="Times,serif" font-size="14.00"> </text>
</g>
<!-- studies.loop.Loop&#45;&gt;studies.studydataset.StudyDataset -->
<g id="edge5" class="edge">
<title>studies.loop.Loop&#45;&gt;studies.studydataset.StudyDataset</title>
<path fill="none" stroke="black" d="M290.1,-148.05C294.15,-158.52 299.25,-171.68 304.8,-186.01"/>
<polygon fill="none" stroke="black" points="301.49,-187.16 308.37,-195.22 308.02,-184.63 301.49,-187.16"/>
</g>
<!-- studies.pedap.PEDAP -->
<g id="node6" class="node">
<title>studies.pedap.PEDAP</title>
<polygon fill="none" stroke="black" points="325.5,-98.75 325.5,-147.75 384.25,-147.75 384.25,-98.75 325.5,-98.75"/>
<text text-anchor="start" x="333.5" y="-130.45" font-family="Times,serif" font-size="14.00">PEDAP</text>
<polyline fill="none" stroke="black" points="325.5,-123.25 384.25,-123.25"/>
<polyline fill="none" stroke="black" points="325.5,-123.25 384.25,-123.25"/>
<text text-anchor="start" x="353" y="-105.95" font-family="Times,serif" font-size="14.00"> </text>
</g>
<!-- studies.pedap.PEDAP&#45;&gt;studies.studydataset.StudyDataset -->
<g id="edge6" class="edge">
<title>studies.pedap.PEDAP&#45;&gt;studies.studydataset.StudyDataset</title>
<path fill="none" stroke="black" d="M354.88,-148.05C354.88,-158.31 354.88,-171.17 354.88,-185.18"/>
<polygon fill="none" stroke="black" points="351.38,-185.11 354.88,-195.11 358.38,-185.11 351.38,-185.11"/>
</g>
<!-- studies.replacebg.ReplaceBG -->
<g id="node7" class="node">
<title>studies.replacebg.ReplaceBG</title>
<polygon fill="none" stroke="black" points="402.75,-98.75 402.75,-147.75 481,-147.75 481,-98.75 402.75,-98.75"/>
<text text-anchor="start" x="410.75" y="-130.45" font-family="Times,serif" font-size="14.00">ReplaceBG</text>
<polyline fill="none" stroke="black" points="402.75,-123.25 481,-123.25"/>
<polyline fill="none" stroke="black" points="402.75,-123.25 481,-123.25"/>
<text text-anchor="start" x="440" y="-105.95" font-family="Times,serif" font-size="14.00"> </text>
</g>
<!-- studies.replacebg.ReplaceBG&#45;&gt;studies.studydataset.StudyDataset -->
<g id="edge7" class="edge">
<title>studies.replacebg.ReplaceBG&#45;&gt;studies.studydataset.StudyDataset</title>
<path fill="none" stroke="black" d="M431.03,-148.05C426.22,-158.62 420.15,-171.94 413.55,-186.43"/>
<polygon fill="none" stroke="black" points="410.49,-184.7 409.53,-195.25 416.87,-187.6 410.49,-184.7"/>
</g>
<!-- studies.t1dexi.T1DEXI -->
<g id="node9" class="node">
<title>studies.t1dexi.T1DEXI</title>
<polygon fill="none" stroke="black" points="498.62,-86.5 498.62,-160 603.12,-160 603.12,-86.5 498.62,-86.5"/>
<text text-anchor="start" x="527.25" y="-142.7" font-family="Times,serif" font-size="14.00">T1DEXI</text>
<polyline fill="none" stroke="black" points="498.62,-135.5 603.12,-135.5"/>
<text text-anchor="start" x="506.62" y="-118.2" font-family="Times,serif" font-size="14.00">drop_mdi : bool</text>
<polyline fill="none" stroke="black" points="498.62,-111 603.12,-111"/>
<text text-anchor="start" x="549" y="-93.7" font-family="Times,serif" font-size="14.00"> </text>
</g>
<!-- studies.t1dexi.T1DEXI&#45;&gt;studies.studydataset.StudyDataset -->
<g id="edge8" class="edge">
<title>studies.t1dexi.T1DEXI&#45;&gt;studies.studydataset.StudyDataset</title>
<path fill="none" stroke="black" d="M514.01,-160.18C505.17,-168.79 495.23,-178.47 484.74,-188.69"/>
<polygon fill="none" stroke="black" points="482.43,-186.06 477.71,-195.55 487.32,-191.07 482.43,-186.06"/>
</g>
<!-- studies.t1dexi.T1DEXIP -->
<g id="node10" class="node">
<title>studies.t1dexi.T1DEXIP</title>
<polygon fill="none" stroke="black" points="515.5,-0.5 515.5,-49.5 586.25,-49.5 586.25,-0.5 515.5,-0.5"/>
<text text-anchor="start" x="523.5" y="-32.2" font-family="Times,serif" font-size="14.00">T1DEXIP</text>
<polyline fill="none" stroke="black" points="515.5,-25 586.25,-25"/>
<polyline fill="none" stroke="black" points="515.5,-25 586.25,-25"/>
<text text-anchor="start" x="549" y="-7.7" font-family="Times,serif" font-size="14.00"> </text>
</g>
<!-- studies.t1dexi.T1DEXIP&#45;&gt;studies.t1dexi.T1DEXI -->
<g id="edge9" class="edge">
<title>studies.t1dexi.T1DEXIP&#45;&gt;studies.t1dexi.T1DEXI</title>
<path fill="none" stroke="black" d="M550.88,-49.79C550.88,-57.46 550.88,-66.24 550.88,-74.98"/>
<polygon fill="none" stroke="black" points="547.38,-74.84 550.88,-84.84 554.38,-74.84 547.38,-74.84"/>
</g>
</g>
</svg>
