<?xml version="1.0" encoding="UTF-8" standalone="no"?>
<svg
   version="1.1"
   width="423.13281"
   height="118"
   id="svg23"
   xmlns="http://www.w3.org/2000/svg"
   xmlns:svg="http://www.w3.org/2000/svg">
  <defs
     id="defs23" />
  <path
     d="m 357.13281,24 c 5.04513,-0.919153 10.06607,-1.683023 15,0 4.9097,3.847914 7.89188,9.699829 11,15 1.17558,1.820254 2.36054,3.634558 3.5625,5.4375 0.43442,0.699961 0.86883,1.399922 1.31641,2.121094 0.36996,0.475664 0.73992,0.951328 1.12109,1.441406 0.66,0 1.32,0 2,0 1.4515,-1.726204 1.4515,-1.726204 2.89844,-3.980469 0.56203,-0.834668 1.12406,-1.669336 1.70312,-2.529297 0.58524,-0.883652 1.17047,-1.767304 1.77344,-2.677734 1.70199,-2.547276 3.40807,-5.09061 5.13672,-7.619873 1.18166,-1.740885 2.32281,-3.509249 3.44922,-5.286377 C 408.13281,24 408.13281,24 411.58594,23.511719 c 1.87945,0.08701 1.87945,0.08701 3.79687,0.175781 1.26328,0.04512 2.52656,0.09023 3.82813,0.136719 0.96422,0.05801 1.92843,0.116015 2.92187,0.175781 -3.01995,6.008108 -6.64095,11.441108 -10.58496,16.879639 -4.08565,5.636417 -8.07104,11.338785 -12.04004,17.057861 -1.00825,1.451887 -1.00825,1.451887 -2.03686,2.933105 -1.39354,2.007002 -2.78685,4.014166 -4.17993,6.021485 -2.22237,3.2003 -4.44764,6.398557 -6.67383,9.596191 -0.7301,1.048733 -1.46019,2.097466 -2.2124,3.177979 -1.40645,2.020109 -2.81302,4.040131 -4.21973,6.060058 -0.63341,0.910159 -1.26683,1.820318 -1.91944,2.758057 -0.558,0.801475 -1.116,1.602949 -1.69091,2.428711 -1.16377,1.684375 -2.30625,3.383448 -3.4419,5.086914 -2.78853,0.221078 -5.34653,0.281075 -8.125,0.1875 -1.13115,-0.0203 -1.13115,-0.0203 -2.28515,-0.04102 -1.86359,-0.03538 -3.72681,-0.08919 -5.58985,-0.146484 1.57442,-4.882572 4.40289,-8.438286 7.5,-12.4375 1.07774,-1.419881 2.15454,-2.840468 3.23047,-4.261719 1.60826,-2.115877 3.21681,-4.231526 4.82666,-6.346191 1.43161,-1.892123 2.84542,-3.796299 4.25537,-5.70459 0.43828,-0.571619 0.87656,-1.143237 1.32813,-1.732178 2.28307,-2.925395 2.28307,-2.925395 2.62549,-6.45874 -0.85002,-2.284599 -1.90806,-3.934899 -3.35596,-5.89502 -0.53279,-0.7284 -1.06557,-1.456801 -1.6145,-2.207275 -0.85791,-1.154235 -0.85791,-1.154235 -1.73316,-2.331787 -1.17996,-1.610473 -2.35965,-3.221153 -3.53906,-4.832031 -0.59071,-0.802603 -1.18143,-1.605205 -1.79004,-2.432129 -2.53876,-3.457721 -5.0469,-6.936818 -7.5459,-10.42334 -0.42595,-0.58894 -0.85191,-1.177881 -1.29077,-1.784668 -2.89673,-4.03735 -2.89673,-4.03735 -2.89673,-5.152832 z"
     fill="#151515"
     id="path2"
     style="fill:#ffffff" />
  <path
     d="m 285.13281,54 c 16.17,0 32.34,0 49,0 0,3.96 0,7.92 0,12 -12.21,0 -24.42,0 -37,0 0,9.9 0,19.8 0,30 -3.96,0 -7.92,0 -12,0 0,-13.86 0,-27.72 0,-42 z"
     fill="#1C1C1C"
     id="path3"
     style="fill:#ffffff" />
  <path
     d="m 83.132812,0 c 3.535715,0.53571429 3.535715,0.53571429 5,2 0.09784,1.4755913 0.126318,2.9558457 0.126984,4.4346771 0.0028,0.9576979 0.0056,1.9153958 0.0085,2.9021149 -0.002,1.059247 -0.0041,2.118494 -0.0061,3.209839 0.0017,1.10884 0.0035,2.217681 0.0053,3.360123 0.0044,3.686045 0.0015,7.372043 -0.0019,11.05809 6.73e-4,2.549688 0.0016,5.099375 0.0029,7.649063 0.0015,5.352581 -5.84e-4,10.705146 -0.0053,16.057724 -0.0054,6.193302 -0.0037,12.386571 0.0018,18.579873 0.0051,5.949646 0.0045,11.899283 0.0016,17.848931 -6.69e-4,2.535445 1.59e-4,5.070891 0.0025,7.606335 0.0025,3.539091 -0.0013,7.07812 -0.0069,10.6172 0.003,1.58584 0.003,1.58584 0.0061,3.20371 -0.0028,0.96052 -0.0056,1.92103 -0.0085,2.91066 -3.77e-4,0.83753 -7.54e-4,1.67506 -0.0011,2.53798 C 88.132812,116 88.132812,116 87.132812,118 c -1.65,0 -3.299999,0 -5,0 -1.198187,-2.39638 -1.12835,-3.87909 -1.133712,-6.55493 -0.0043,-0.95907 -0.0085,-1.91815 -0.01292,-2.90628 4.53e-4,-1.05565 9.06e-4,-2.11131 0.0014,-3.19895 -0.0034,-1.10898 -0.0067,-2.21797 -0.01018,-3.36056 -0.0095,-3.680606 -0.01145,-7.361164 -0.01253,-11.04178 -0.0032,-2.548259 -0.0066,-5.096517 -0.01009,-7.644775 -0.006,-5.346604 -0.0079,-10.69319 -0.0072,-16.039795 6.01e-4,-6.185964 -0.01,-12.371841 -0.02574,-18.557782 -0.01463,-5.944843 -0.01825,-11.88966 -0.01765,-17.834522 -0.0012,-2.532657 -0.0056,-5.065315 -0.01333,-7.597961 -0.0097,-3.534244 -0.0069,-7.068261 -8.95e-4,-10.602509 -0.0056,-1.055651 -0.01124,-2.111303 -0.01703,-3.1989438 0.0042,-0.9590726 0.0084,-1.9181452 0.01271,-2.9062806 -5.44e-4,-0.8362339 -0.0011,-1.6724679 -0.0016,-2.5340423 C 81.132812,2 81.132812,2 83.132812,0 Z"
     fill="#2F2F2F"
     id="path4"
     style="fill:#ffffff" />
  <path
     d="m 221.13281,24 c 19.14,0 38.28,0 58,0 0,3.96 0,7.92 0,12 -19.14,0 -38.28,0 -58,0 0,-3.96 0,-7.92 0,-12 z"
     fill="#111111"
     id="path5"
     style="fill:#ffffff" />
  <path
     d="m 285.13281,24 c 17.82,0 35.64,0 54,0 0,3.96 0,7.92 0,12 -17.82,0 -35.64,0 -54,0 0,-3.96 0,-7.92 0,-12 z"
     fill="#1A1A1A"
     id="path6"
     style="fill:#ffffff" />
  <path
     d="m 244.13281,48 c 3.96,0 7.92,0 12,0 0,15.84 0,31.68 0,48 -3.96,0 -7.92,0 -12,0 0,-15.84 0,-31.68 0,-48 z"
     fill="#111111"
     id="path7"
     style="fill:#ffffff" />
  <path
     d="m 99.132812,14 c 0,29.7 0,59.4 0,90 -2.474999,0.495 -2.474999,0.495 -5,1 -1.833574,-1.83357 -1.119999,-4.39636 -1.12442,-6.835938 0.0036,-0.837971 0.0072,-1.675942 0.0109,-2.539306 -1.46e-4,-0.877968 -2.92e-4,-1.755935 -4.42e-4,-2.660507 6.99e-4,-2.916493 0.0085,-5.832923 0.01631,-8.749405 0.0019,-2.016393 0.0033,-4.032786 0.0043,-6.049179 0.0038,-5.318316 0.01366,-10.636605 0.0247,-15.954911 C 93.07437,56.788293 93.07895,51.365827 93.084,45.943359 93.09474,35.295561 93.11181,24.647783 93.13283,14 c 2,-1 2,-1 6,0 z"
     fill="#161616"
     id="path8"
     style="fill:#ffffff" />
  <path
     d="m 48.132812,16 c 3.692308,0.692308 3.692308,0.692308 5,2 0.105694,2.54513 0.146782,5.063263 0.145264,7.609131 0.005,1.195089 0.005,1.195089 0.01018,2.414322 0.0095,2.647146 0.01145,5.294229 0.01253,7.941391 0.0032,1.83224 0.0066,3.66448 0.01009,5.496719 0.006,3.84607 0.0078,7.692118 0.0072,11.538193 -1.01e-4,4.937851 0.01355,9.875559 0.03077,14.813376 0.0111,3.785716 0.01315,7.571397 0.01262,11.357127 0.0012,1.820932 0.0056,3.641865 0.01333,5.46278 0.0097,2.542916 0.0069,5.085516 8.95e-4,7.628436 0.0056,0.757999 0.01124,1.515998 0.01703,2.296966 -0.03164,5.213243 -0.03164,5.213243 -2.259951,7.441559 -2.125,-0.375 -2.125,-0.375 -4,-1 C 47.10965,90.065035 47.09186,79.130076 47.08096,68.195092 47.07576,63.11809 47.06863,58.041104 47.05733,52.964111 47.0465,48.068794 47.04049,43.173494 47.03789,38.278166 c -0.0018,-1.871996 -0.0055,-3.74399 -0.01085,-5.615978 -0.0072,-2.612595 -0.0083,-5.225122 -0.0078,-7.837725 -0.0036,-0.781867 -0.0072,-1.563734 -0.01089,-2.369293 C 47.01876,17.114052 47.01876,17.114052 48.132812,16 Z"
     fill="#1F1F1F"
     id="path9"
     style="fill:#ffffff" />
  <path
     d="m 72.132812,18 c 1.32,0.66 2.64,1.32 4,2 0.04627,10.135376 0.08185,20.270727 0.103625,30.406187 0.01045,4.705951 0.02464,9.41183 0.04726,14.117739 0.02168,4.538715 0.03368,9.07736 0.03888,13.616123 0.0037,1.734414 0.01094,3.468824 0.02171,5.203209 0.01445,2.423263 0.01652,4.846236 0.01559,7.269535 0.01079,1.083251 0.01079,1.083251 0.02179,2.188385 -0.02074,4.970718 -0.02074,4.970718 -2.248843,7.198822 -2.125,-0.375 -2.125,-0.375 -4,-1 C 70.086554,88.73424 70.050984,78.468505 70.0292,68.202662 70.01875,63.436177 70.00456,58.669764 69.98194,53.90332 69.96026,49.306251 69.94826,44.70925 69.94306,40.112133 69.93936,38.35539 69.93212,36.598652 69.92135,34.841938 69.9069,32.387543 69.90483,29.933434 69.90576,27.479004 69.89856,26.747486 69.89138,26.015968 69.88397,25.262283 69.90471,20.228104 69.90471,20.228104 72.132812,18 Z"
     fill="#161616"
     id="path10"
     style="fill:#ffffff" />
  <path
     d="m 117.13281,21 c 1.65,0 3.3,0 5,0 0,25.08 0,50.16 0,76 -1.98,0.495 -1.98,0.495 -4,1 -2,-2 -2,-2 -2.24724,-5.043106 0.001,-1.307145 0.003,-2.614289 0.004,-3.961044 -0.002,-0.72045 -0.004,-1.4409 -0.006,-2.183182 -0.004,-2.386885 0.007,-4.773467 0.0182,-7.160324 0.001,-1.653844 0.002,-3.307689 0.001,-4.961533 0.002,-3.467699 0.01,-6.935296 0.0233,-10.402969 0.017,-4.454738 0.0208,-8.909363 0.02,-13.364129 2.7e-4,-3.415093 0.006,-6.83016 0.013,-10.245244 0.003,-1.643122 0.005,-3.286247 0.006,-4.929371 0.002,-2.291497 0.0109,-4.582871 0.0216,-6.874342 0.004,-1.306349 0.008,-2.612698 0.0115,-3.958634 C 116.13281,22 116.13281,22 117.13281,21 Z"
     fill="#202020"
     id="path11"
     style="fill:#ffffff" />
  <path
     d="m 403.13281,68 c 2.73557,2.61787 5.00339,5.240338 7.12891,8.371094 0.5601,0.821777 1.12019,1.643554 1.69726,2.490234 0.57299,0.850137 1.14598,1.700274 1.73633,2.576172 0.57686,0.84627 1.15371,1.692539 1.74805,2.564453 2.67392,3.938405 5.30897,7.872447 7.68945,11.998047 -5.06609,1.058896 -10.08548,1.939231 -15,0 -5.20447,-4.598835 -8.66814,-10.978735 -12,-17 1.35753,-2.775611 2.80048,-5.253283 4.625,-7.75 0.44602,-0.613594 0.89203,-1.227188 1.35156,-1.859375 0.33774,-0.458906 0.67547,-0.917812 1.02344,-1.390625 z"
     fill="#171717"
     id="path12"
     style="fill:#ffffff" />
  <path
     d="m 36.132812,32 c 1.67543,0.286049 3.343854,0.617812 5,1 0.02527,7.387281 0.04283,14.774551 0.05493,22.161865 0.005,2.515304 0.01187,5.030605 0.02051,7.545899 0.01207,3.606534 0.01779,7.213029 0.02222,10.81958 0.0052,1.132275 0.01032,2.26455 0.01564,3.431137 7.5e-5,1.041003 1.51e-4,2.082007 2.28e-4,3.154556 0.0022,0.921554 0.0044,1.843108 0.0067,2.792587 C 41.132812,85 41.132812,85 40.132812,86 c -1.666171,0.04064 -3.33388,0.04272 -5,0 -0.02527,-7.529697 -0.04283,-15.059382 -0.05493,-22.589111 -0.005,-2.563807 -0.01187,-5.12761 -0.02051,-7.691407 -0.01207,-3.676032 -0.01779,-7.352027 -0.02222,-11.028076 -0.0052,-1.154149 -0.01032,-2.308298 -0.01564,-3.497421 -7.5e-5,-1.061024 -1.51e-4,-2.122049 -2.28e-4,-3.215225 -0.0022,-0.939319 -0.0044,-1.878638 -0.0067,-2.846421 C 35.132812,33 35.132812,33 36.132812,32 Z"
     fill="#111111"
     id="path13"
     style="fill:#ffffff" />
  <path
     d="m 106.13281,34 c 1.67543,0.286049 3.34386,0.617812 5,1 0.0506,6.799284 0.0857,13.59852 0.10987,20.397949 0.0101,2.314472 0.0237,4.628931 0.041,6.94336 0.0242,3.321158 0.0356,6.642148 0.0444,9.963378 0.0103,1.039619 0.0206,2.079238 0.0313,3.150361 1.5e-4,0.960845 3e-4,1.92169 4.5e-4,2.911651 0.004,0.848274 0.009,1.696547 0.0135,2.570526 C 111.13281,83 111.13281,83 109.13281,85 c -2.125,-0.375 -2.125,-0.375 -4,-1 -0.0253,-6.960034 -0.0428,-13.920057 -0.0549,-20.880127 -0.005,-2.369796 -0.0119,-4.739589 -0.0205,-7.109375 -0.0121,-3.398038 -0.0178,-6.796036 -0.0222,-10.194092 -0.005,-1.066654 -0.0103,-2.133308 -0.0156,-3.232284 -8e-5,-0.980942 -1.6e-4,-1.961883 -2.3e-4,-2.97255 -0.002,-0.868259 -0.004,-1.736518 -0.007,-2.631088 C 105.13281,35 105.13281,35 106.13281,34 Z"
     fill="#191919"
     id="path14"
     style="fill:#ffffff" />
  <path
     d="m 59.132812,34 c 1.65,0.33 3.3,0.66 5,1 0,16.17 0,32.34 0,49 -1.979999,0.495 -1.979999,0.495 -4,1 -2,-2 -2,-2 -2.247238,-4.056046 0.0014,-0.845257 0.0029,-1.690514 0.0043,-2.561386 -0.0031,-0.957617 -0.0061,-1.915234 -0.0093,-2.90187 0.0072,-1.036482 0.01437,-2.072964 0.02177,-3.140854 4.58e-4,-1.060209 9.17e-4,-2.120417 0.0014,-3.212754 0.003,-2.243628 0.01092,-4.487254 0.02327,-6.73085 0.01825,-3.44791 0.02051,-6.895552 0.02026,-10.343506 0.0049,-2.175132 0.01074,-4.350263 0.01758,-6.52539 0.0011,-1.038506 0.0022,-2.077012 0.0034,-3.146988 0.0064,-0.954465 0.01276,-1.90893 0.01933,-2.892319 0.0038,-0.844462 0.0076,-1.688924 0.01155,-2.558975 C 58.132812,35 58.132812,35 59.132812,34 Z"
     fill="#1A1A1A"
     id="path15"
     style="fill:#ffffff" />
  <path
     d="m 129.13281,38 c 1.65,0.33 3.3,0.66 5,1 0,13.2 0,26.4 0,40 -2.475,0.495 -2.475,0.495 -5,1 -1.89623,-1.896232 -1.12897,-4.663704 -1.13894,-7.186279 0.002,-0.866653 0.004,-1.733306 0.006,-2.626221 -9.6e-4,-0.884055 -0.002,-1.76811 -0.003,-2.678955 -6.9e-4,-1.872966 0.001,-3.745935 0.005,-5.618897 0.005,-2.877332 5e-5,-5.754508 -0.006,-8.631835 6.6e-4,-1.815105 0.002,-3.630209 0.004,-5.445313 -0.002,-0.866653 -0.004,-1.733306 -0.006,-2.626221 0.024,-6.071329 0.024,-6.071329 1.13894,-7.186279 z"
     fill="#141414"
     id="path16"
     style="fill:#ffffff" />
  <path
     d="m 13.132813,42 c 3.692307,0.692308 3.692307,0.692308 4.999999,2 0.08791,2.291514 0.106941,4.585725 0.09766,6.878906 -0.0014,0.686663 -0.0028,1.373325 -0.0043,2.080796 -0.0056,2.200976 -0.01817,4.401852 -0.03087,6.602798 -0.005,1.488931 -0.0096,2.977863 -0.01367,4.466797 -0.01104,3.656934 -0.02832,7.313809 -0.04882,10.970703 -1.656146,0.382188 -3.32457,0.713951 -4.999999,1 -1.676737,-1.676736 -1.127879,-3.728551 -1.138947,-5.966553 0.002,-0.691662 0.004,-1.383325 0.0061,-2.095947 -9.57e-4,-0.706487 -0.0019,-1.412974 -0.0029,-2.140869 -6.82e-4,-1.496339 0.0012,-2.992681 0.0053,-4.489014 0.0053,-2.297919 5.5e-5,-4.595642 -0.0063,-6.893554 6.61e-4,-1.450522 0.0019,-2.901043 0.0039,-4.351563 -0.002,-0.691663 -0.004,-1.383325 -0.0061,-2.095947 C 12.01786,43.114952 12.01786,43.114952 13.132813,42 Z"
     fill="#1C1C1C"
     id="path17"
     style="fill:#ffffff" />
  <path
     d="m 152.13281,43 c 1.65,0.33 3.3,0.66 5,1 0,10.23 0,20.46 0,31 -1.98,0.495 -1.98,0.495 -4,1 -2,-2 -2,-2 -2.24292,-4.965088 0.004,-1.239997 0.008,-2.479995 0.0125,-3.757568 4.6e-4,-0.66068 9.2e-4,-1.32136 0.001,-2.00206 0.003,-1.396223 0.0109,-2.792443 0.0233,-4.188614 0.0183,-2.144245 0.0205,-4.288058 0.0203,-6.432373 0.0381,-10.506865 0.0381,-10.506865 1.18554,-11.654297 z"
     fill="#1D1D1D"
     id="path18"
     style="fill:#ffffff" />
  <path
     d="m 141.13281,46 c 3.69231,0.692308 3.69231,0.692308 5,2 0.0871,1.707724 0.107,3.418987 0.0977,5.128906 -0.005,1.551709 -0.005,1.551709 -0.01,3.134766 -0.008,1.088613 -0.0168,2.177226 -0.0254,3.298828 -0.005,1.09248 -0.009,2.184961 -0.0137,3.310547 -0.0118,2.709038 -0.0283,5.417969 -0.0488,8.126953 -1.65614,0.382188 -3.32457,0.713951 -5,1 -1.71568,-1.715678 -1.13016,-3.973727 -1.13281,-6.3125 -0.001,-1.075078 -0.003,-2.150156 -0.004,-3.257813 0.006,-1.697695 0.006,-1.697695 0.0117,-3.429687 -0.004,-1.131797 -0.008,-2.263594 -0.0117,-3.429688 0.001,-1.075078 0.003,-2.150156 0.004,-3.257812 0.001,-0.993867 0.002,-1.987734 0.003,-3.011719 C 140.13281,47 140.13281,47 141.13281,46 Z"
     fill="#1C1C1C"
     id="path19"
     style="fill:#ffffff" />
  <path
     d="m 25.132812,48 c 1.32,0.33 2.64,0.66 4,1 0,6.6 0,13.2 0,20 -1.32,0.33 -2.64,0.66 -4,1 -2.365682,-2.365682 -2.255717,-2.852322 -2.265625,-6.0625 -0.0026,-0.796641 -0.0052,-1.593281 -0.0078,-2.414062 0.0077,-0.832735 0.01547,-1.665469 0.02344,-2.523438 -0.0077,-0.832734 -0.01547,-1.665469 -0.02344,-2.523438 0.0026,-0.79664 0.0052,-1.593281 0.0078,-2.414062 0.0023,-0.730898 0.0045,-1.461797 0.0068,-2.214844 C 23.132812,50 23.132812,50 25.132812,48 Z"
     fill="#1F1F1F"
     id="path20"
     style="fill:#ffffff" />
  <path
     d="m 164.13281,51 c 1.65,0.33 3.3,0.66 5,1 0,4.62 0,9.24 0,14 -1.65,0.33 -3.3,0.66 -5,1 -1,-1 -1,-1 -1.13281,-4.125 0.003,-1.27875 0.005,-2.5575 0.008,-3.875 C 163.005,57.72125 163.003,56.4425 163,55.125 163.13281,52 163.13281,52 164.13281,51 Z"
     fill="#171717"
     id="path21"
     style="fill:#ffffff" />
  <path
     d="m 1.1328125,53 c 1.6754298,0.286049 3.3438534,0.617812 5,1 0,3.3 0,6.6 0,10 -1.6561466,0.382188 -3.3245702,0.713951 -5,1 -1,-1 -1,-1 -1.1328125,-3.25 C 0.0025781,60.8425 0.0051563,59.935 0.0078125,59 0.0052344,58.0925 0.0026563,57.185 0,56.25 0.1328125,54 0.1328125,54 1.1328125,53 Z"
     fill="#1B1B1B"
     id="path22"
     style="fill:#ffffff" />
  <path
     d="m 176.13281,54 c 3.69231,0.692308 3.69231,0.692308 5,2 0.0409,2.332974 0.0424,4.667052 0,7 -1.65614,0.382188 -3.32457,0.713951 -5,1 -1,-1 -1,-1 -1.13281,-2.8125 0.003,-0.721875 0.005,-1.44375 0.008,-2.1875 C 175.005,58.278125 175.003,57.55625 175,56.8125 175.13281,55 175.13281,55 176.13281,54 Z"
     fill="#222222"
     id="path23"
     style="fill:#ffffff" />
</svg>
