<?xml version="1.0" encoding="UTF-8" standalone="no"?>
<!-- Created with Inkscape (http://www.inkscape.org/) -->

<svg
   version="1.1"
   id="svg2"
   width="1024"
   height="1024"
   viewBox="0 0 1024 1024"
   sodipodi:docname="icon.svg"
   inkscape:version="1.2.2 (b0a8486541, 2022-12-01)"
   inkscape:export-filename="icon.png"
   inkscape:export-xdpi="96"
   inkscape:export-ydpi="96"
   xmlns:inkscape="http://www.inkscape.org/namespaces/inkscape"
   xmlns:sodipodi="http://sodipodi.sourceforge.net/DTD/sodipodi-0.dtd"
   xmlns="http://www.w3.org/2000/svg"
   xmlns:svg="http://www.w3.org/2000/svg">
  <defs
     id="defs6" />
  <sodipodi:namedview
     id="namedview4"
     pagecolor="#ffffff"
     bordercolor="#000000"
     borderopacity="0.25"
     inkscape:showpageshadow="2"
     inkscape:pageopacity="0.0"
     inkscape:pagecheckerboard="0"
     inkscape:deskcolor="#d1d1d1"
     showgrid="false"
     inkscape:zoom="0.4609375"
     inkscape:cx="45.559322"
     inkscape:cy="528.27119"
     inkscape:window-width="1440"
     inkscape:window-height="831"
     inkscape:window-x="0"
     inkscape:window-y="0"
     inkscape:window-maximized="1"
     inkscape:current-layer="g8" />
  <g
     inkscape:groupmode="layer"
     inkscape:label="Image"
     id="g8">
    <path
       style="fill:#ff5555;stroke-width:1.7955"
       d="m 396.02544,1021.5553 c -37.11024,-10.1214 -70.93395,-42.566 -79.56992,-76.3256 -2.43322,-9.5119 -2.43401,-9.5126 -12.1434,-11.9389 -5.34053,-1.3345 -15.76853,-5.385 -23.17333,-9.0012 -18.73494,-9.1492 -42.84023,-33.36974 -52.99217,-53.24554 l -7.18259,-14.06231 -19.72675,-6.61533 C 147.57667,832.37141 106.43013,787.58303 93.055978,732.61004 c -2.27806,-9.3637 -3.03768,-19.60256 -2.8759,-38.76488 0.24616,-29.16141 3.18797,-43.64202 13.903472,-68.4375 l 6.04673,-13.99207 -4.33488,-4.07417 C 90.366158,592.84013 73.414678,561.89673 67.302538,537.07605 c -5.70664,-23.17384 -5.74116,-61.54266 -0.0761,-84.55141 10.61849,-43.12711 38.709892,-83.53501 73.910422,-106.31595 10.88461,-7.04427 12.69796,-8.92206 11.76079,-12.1788 -6.65501,-23.12663 -7.11967,-26.4243 -6.99541,-49.64536 0.15581,-29.12039 3.75347,-44.91099 15.75284,-69.14137 14.64381,-29.57032 36.52978,-51.47459 66.32813,-66.38357 8.99577,-4.50084 22.01052,-9.46903 28.92166,-11.0404 22.97904,-5.22471 20.81181,-3.39753 24.25753,-20.45149 6.50809,-32.2106 21.02898,-57.45072 46.91811,-81.55281 C 354.48134,11.2364 383.18738,0.20363013 421.15685,0.04225013 457.53605,-0.11237287 486.60069,11.3307 513.04234,36.2186 l 6.61806,6.22917 11.33299,-10.28938 C 544.06142,20.29372 567.9742,7.9899701 587.20395,3.2366101 c 18.5666,-4.589451 51.47471,-4.251399 69.79034,0.71696 C 718.36979,20.60249 761.8645,73.98739 767.27736,139.31379 l 1.2321,14.86945 16.15595,5.45901 c 19.13314,6.46501 28.54552,11.15943 43.08248,21.48736 29.83736,21.19828 54.09903,58.37755 62.10629,95.17347 3.03121,13.92936 3.01363,49.04788 -0.0314,62.8558 -1.30696,5.9264 -4.61858,16.60316 -7.35919,23.72612 l -4.98288,12.95085 9.24061,5.79896 c 36.2554,22.75216 63.14898,61.85827 71.99068,104.68187 3.352,16.23537 3.842,49.84275 0.9585,65.75105 -5.0142,27.66378 -18.5951,55.239 -37.02529,75.17807 l -11.01387,11.91554 5.07003,15.21971 c 12.87581,38.65186 11.00677,83.77692 -5.10614,123.27968 -22.37036,54.84369 -72.66753,95.64778 -129.5738,105.11802 l -15.08841,2.51099 -3.20871,13.05918 C 749.79822,955.0271 710.18266,1000.485 660.8033,1016.4483 c -21.02687,6.7975 -50.20831,7.8958 -70.95191,2.6705 -20.54231,-5.1748 -41.85734,-15.6944 -55.83263,-27.5551 l -11.56061,-9.8114 -9.81198,8.8239 c -13.1438,11.8201 -32.36126,23.5665 -46.61167,28.4906 -15.23281,5.2635 -54.69169,6.6661 -70.00904,2.4885 z m 65.3123,-42.676 c 15.22782,-7.2348 30.02706,-19.9975 35.79937,-30.8729 l 3.83621,-7.2277 -0.61282,-428.31741 C 499.87866,175.68316 499.26945,82.9817 497.50997,78.70583 492.42761,66.35481 466.14605,48.32253 445.31621,42.89469 c -13.52714,-3.52488 -38.38171,-3.52488 -51.90884,0 -26.88136,7.00474 -49.91447,26.68504 -62.90329,53.74678 -9.44036,19.66867 -13.62715,36.34423 -9.74257,38.80368 1.40923,0.89224 4.2533,1.63462 6.32018,1.64974 6.08575,0.0445 23.72492,6.71097 36.14907,13.66196 23.99444,13.42426 50.74572,44.27566 50.74572,58.52343 0,8.96536 -2.31302,13.29136 -8.93958,16.71958 -11.2218,5.80552 -20.87773,2.42629 -28.92745,-10.12359 -12.22352,-19.05691 -36.08163,-35.42717 -58.58424,-40.19763 -57.90312,-12.27524 -111.73469,19.67608 -128.6902,76.38304 -7.21038,24.11484 -5.1546,56.10145 5.18517,80.67832 6.26093,14.88172 5.96482,20.69321 -1.41136,27.70005 -3.27537,3.11136 -10.97666,8.4359 -17.114,11.83233 -34.00102,18.81627 -58.78564,50.32789 -68.67503,87.31464 -4.91815,18.39416 -5.38088,50.14799 -0.97986,67.2413 6.46417,25.10643 22.02803,49.1573 37.70219,58.26131 9.43453,5.47986 26.84075,9.98214 38.59184,9.98214 4.99439,0 11.00472,0.87701 13.35627,1.9489 11.64518,5.30821 13.40173,23.46275 3.15631,32.62178 -6.52335,5.83163 -14.30096,6.29925 -36.88214,2.21754 -7.89846,-1.42771 -14.48299,-2.61173 -14.63229,-2.63119 -1.3868,-0.18047 -8.94717,15.85296 -12.60983,26.74198 -8.88971,26.4289 -7.27721,63.93159 3.82914,89.05584 16.54464,37.42658 50.63457,63.98788 92.45561,72.03711 16.88505,3.24985 20.22141,5.48493 24.26154,16.2531 10.19157,27.16349 24.66378,45.0613 45.17009,55.86175 6.06206,3.19283 11.38614,5.80513 11.8313,5.80513 0.44517,0 1.80532,-4.45214 3.02255,-9.89369 9.24028,-41.30775 38.34736,-75.22955 77.97624,-90.87456 17.6226,-6.95719 28.41018,-6.93866 35.40663,0.0609 4.0597,4.06145 5.24724,6.88385 5.24724,12.47102 0,10.11686 -5.21159,15.25278 -22.87055,22.53841 -33.11644,13.66301 -52.1815,36.52933 -58.10514,69.69035 -5.69808,31.89826 10.23439,65.49426 37.65127,79.39346 13.35545,6.7706 20.59729,8.1315 40.00994,7.5185 15.5763,-0.4918 18.70495,-1.2007 30.9296,-7.0087 z M 248.42328,728.75922 c -6.26772,-3.40285 -8.57187,-7.8213 -8.57187,-16.4376 0,-9.46496 3.21281,-13.32931 20.61289,-24.79308 26.49299,-17.45457 46.59349,-44.41413 53.72891,-72.06337 3.61224,-13.99717 3.66051,-39.8184 0.10039,-53.68885 -6.57434,-25.61384 -23.38796,-47.32736 -45.75089,-59.08383 -6.9326,-3.64456 -13.88158,-8.57603 -15.44218,-10.95885 -8.6663,-13.23215 3.13266,-32.87229 18.42009,-30.66144 15.56628,2.25116 42.09497,20.97367 56.72859,40.03595 11.96653,15.58806 18.55816,28.38117 23.89344,46.3728 4.05139,13.66209 4.78517,19.49734 4.74247,37.71348 -0.0476,20.27388 -0.57882,23.79305 -7.72685,51.18257 -0.48882,1.87303 0.93782,2.8674 4.68228,3.26346 23.2162,2.45571 58.13058,16.70679 63.82648,26.05221 4.95522,8.13019 4.52209,17.6703 -1.10605,24.36187 -6.42412,7.63793 -14.72655,8.90861 -24.54834,3.75705 -16.13802,-8.46443 -47.56759,-17.92523 -59.54912,-17.92523 -1.21696,0 -6.25973,5.05092 -11.20622,11.22426 -11.2479,14.03767 -30.57796,29.97623 -46.29376,38.1714 -13.05889,6.8097 -18.97449,7.58475 -26.54021,3.4772 z M 381.08832,420.71527 c -43.70013,-12.46565 -80.88378,-52.13577 -90.03807,-96.05892 -3.23249,-15.50977 -1.79164,-21.85868 6.18453,-27.25168 7.34104,-4.96357 13.53709,-5.11386 21.08219,-0.51139 4.5653,2.7848 6.35965,5.67759 8.62905,13.91136 10.44672,37.90247 32.46357,61.89745 66.41433,72.38139 19.40978,5.9937 23.81087,8.36461 27.00765,14.54917 3.70416,7.16611 2.41698,16.68124 -3.04313,22.4958 -3.29143,3.50506 -5.6938,4.21027 -13.98314,4.1046 -5.50492,-0.0702 -15.51896,-1.6993 -22.25341,-3.62033 z M 644.28256,980.3076 c 18.27915,-4.7632 31.59466,-12.8376 47.23488,-28.6429 11.29655,-11.4158 16.22124,-18.1057 21.98084,-29.8599 11.20772,-22.87246 13.5938,-34.14199 13.66381,-64.53456 0.0517,-22.41156 -0.52636,-27.90836 -4.14774,-39.44608 -6.80011,-21.66499 -13.96261,-33.90391 -28.15043,-48.10208 -12.89097,-12.90035 -22.03645,-18.34856 -44.21876,-26.34226 -10.97693,-3.9557 -15.56335,-12.34345 -12.44428,-22.75849 4.05933,-13.55471 14.76714,-17.09036 34.3935,-11.35651 47.26245,13.80776 84.92952,63.13271 93.10212,121.91693 1.08356,7.79388 2.32337,14.5241 2.75515,14.95603 1.84057,1.84138 27.6977,-5.56273 39.39735,-11.28128 28.80828,-14.08095 48.61489,-33.86796 62.95288,-62.89057 16.10108,-32.59144 19.21162,-67.98687 8.79667,-100.09918 -1.51788,-4.68012 -3.35505,-8.87734 -4.08255,-9.32716 -0.72751,-0.44983 -6.52228,1.05959 -12.87725,3.35423 -35.17777,12.70202 -75.97986,9.94568 -106.98706,-7.22736 -26.27115,-14.55003 -47.27819,-38.57049 -47.27819,-54.06015 0,-11.12173 7.19666,-18.51395 18.02413,-18.51395 6.54141,0 8.46708,1.00178 14.67166,7.6325 19.6096,20.95639 24.13181,25.10479 32.7348,30.02909 17.93654,10.26667 46.5907,13.6588 68.37625,8.09453 27.83559,-7.10952 53.97861,-27.62058 66.88012,-52.47221 10.20958,-19.66626 13.56733,-33.52921 13.59753,-56.1397 0.0328,-24.63553 -2.66056,-36.56321 -13.18013,-58.36611 -13.44237,-27.86066 -32.34163,-46.55952 -62.36501,-61.70378 -17.95203,-9.05528 -19.27351,-16.63457 -6.97579,-40.00966 23.75715,-45.15682 16.03046,-97.97906 -19.96326,-136.47591 -10.55262,-11.28649 -28.4734,-23.0688 -44.13533,-29.01753 -11.09917,-4.2157 -12.31608,-4.3632 -13.29845,-1.61185 -14.56407,40.78968 -36.75148,67.36872 -69.43832,83.18255 -17.18305,8.31313 -24.47167,9.90043 -31.70232,6.90411 -7.36335,-3.05131 -10.6692,-8.32461 -10.6692,-17.01883 0,-10.44866 3.60673,-14.31368 21.19164,-22.70931 36.26789,-17.31552 56.03769,-50.18315 55.97129,-93.05328 -0.0485,-31.24608 -9.39764,-56.69016 -28.48948,-77.53457 -22.16524,-24.19987 -43.16492,-33.8648 -76.49757,-35.20729 -19.79155,-0.79712 -22.6826,-0.48399 -35.593,3.855 -24.93871,8.38155 -43.80295,23.75499 -48.00662,39.12307 -1.61058,5.88797 -1.83911,101.19158 -0.95736,399.2361 1.26939,429.07732 1.6034,452.79352 6.51309,462.48332 4.10401,8.0996 18.71881,21.7934 28.87233,27.0529 19.5963,10.1507 49.09285,13.4808 70.34806,7.9421 z M 615.02495,539.00044 c -8.04861,-5.42631 -10.53369,-14.62318 -6.34022,-23.4641 3.4421,-7.25685 7.37264,-9.30556 24.80201,-12.92743 19.57694,-4.06815 34.18461,-12.09613 48.80161,-26.82011 14.9127,-15.02181 23.41259,-31.01416 27.49071,-51.7231 1.524,-7.73888 4.19783,-15.45414 6.0423,-17.43478 7.56043,-8.11868 25.47087,-5.41175 30.00058,4.53419 8.24082,18.09444 -7.63893,62.90284 -31.38606,88.56301 -23.19872,25.06759 -49.40471,38.36597 -83.31499,42.27868 -8.54623,0.98611 -10.79788,0.56556 -16.09594,-3.00636 z"
       id="path170" />
  </g>
</svg>
