<svg width="48" height="48" viewBox="0 0 48 48" fill="none" xmlns="http://www.w3.org/2000/svg">
<g filter="url(#filter0_d_544_3779)">
<mask id="path-1-outside-1_544_3779" maskUnits="userSpaceOnUse" x="4" y="0" width="40" height="40" fill="black">
<rect fill="white" x="4" width="40" height="40"/>
<path d="M24 4C32.8125 4 40 11.1875 40 20C40 28.875 32.8125 36 24 36C15.125 36 8 28.875 8 20C8 11.1875 15.125 4 24 4ZM30.375 21.4375C30.75 21.0625 31 20.5625 31 20C31 19.5 30.75 19 30.375 18.625L23.375 11.625C22.625 10.8125 21.3125 10.8125 20.5625 11.625C19.75 12.375 19.75 13.6875 20.5625 14.4375L26.125 20L20.5625 25.625C19.75 26.375 19.75 27.6875 20.5625 28.4375C21.3125 29.25 22.625 29.25 23.375 28.4375L30.375 21.4375Z"/>
</mask>
<path d="M24 4C32.8125 4 40 11.1875 40 20C40 28.875 32.8125 36 24 36C15.125 36 8 28.875 8 20C8 11.1875 15.125 4 24 4ZM30.375 21.4375C30.75 21.0625 31 20.5625 31 20C31 19.5 30.75 19 30.375 18.625L23.375 11.625C22.625 10.8125 21.3125 10.8125 20.5625 11.625C19.75 12.375 19.75 13.6875 20.5625 14.4375L26.125 20L20.5625 25.625C19.75 26.375 19.75 27.6875 20.5625 28.4375C21.3125 29.25 22.625 29.25 23.375 28.4375L30.375 21.4375Z" fill="#007D7A"/>
<path d="M23.375 11.625L20.4358 14.3381L20.49 14.3969L20.5466 14.4534L23.375 11.625ZM20.5625 11.625L23.2756 14.5642L23.3932 14.4557L23.5017 14.3381L20.5625 11.625ZM20.5625 14.4375L23.3909 11.6091L23.3344 11.5525L23.2756 11.4983L20.5625 14.4375ZM26.125 20L28.9692 22.8126L31.7661 19.9842L28.9534 17.1716L26.125 20ZM20.5625 25.625L23.2756 28.5642L23.3426 28.5024L23.4067 28.4376L20.5625 25.625ZM20.5625 28.4375L23.5017 25.7244L23.3932 25.6068L23.2756 25.4983L20.5625 28.4375ZM23.375 28.4375L20.5466 25.6091L20.49 25.6656L20.4358 25.7244L23.375 28.4375ZM24 8C30.6034 8 36 13.3966 36 20H44C44 8.97836 35.0216 0 24 0V8ZM36 20C36 26.6557 30.6135 32 24 32V40C35.0115 40 44 31.0943 44 20H36ZM24 32C17.3341 32 12 26.6659 12 20H4C4 31.0841 12.9159 40 24 40V32ZM12 20C12 13.3865 17.3443 8 24 8V0C12.9057 0 4 8.98855 4 20H12ZM33.2034 24.2659C34.1951 23.2742 35 21.7982 35 20H27C27 19.3268 27.3049 18.8508 27.5466 18.6091L33.2034 24.2659ZM35 20C35 18.1991 34.1398 16.733 33.2034 15.7966L27.5466 21.4534C27.4269 21.3338 27.3042 21.1732 27.2034 20.9572C27.1025 20.7409 27 20.4159 27 20H35ZM33.2034 15.7966L26.2034 8.79657L20.5466 14.4534L27.5466 21.4534L33.2034 15.7966ZM26.3142 8.91188C23.9804 6.38354 19.9571 6.38354 17.6233 8.91188L23.5017 14.3381C22.6679 15.2415 21.2696 15.2415 20.4358 14.3381L26.3142 8.91188ZM17.8494 8.68579C15.321 11.0196 15.321 15.0429 17.8494 17.3767L23.2756 11.4983C24.179 12.3321 24.179 13.7304 23.2756 14.5642L17.8494 8.68579ZM17.7341 17.2659L23.2966 22.8284L28.9534 17.1716L23.3909 11.6091L17.7341 17.2659ZM23.2808 17.1874L17.7183 22.8124L23.4067 28.4376L28.9692 22.8126L23.2808 17.1874ZM17.8494 22.6858C15.321 25.0196 15.321 29.0429 17.8494 31.3767L23.2756 25.4983C24.179 26.3321 24.179 27.7304 23.2756 28.5642L17.8494 22.6858ZM17.6233 31.1506C19.9571 33.679 23.9804 33.679 26.3142 31.1506L20.4358 25.7244C21.2696 24.821 22.6679 24.821 23.5017 25.7244L17.6233 31.1506ZM26.2034 31.2659L33.2034 24.2659L27.5466 18.6091L20.5466 25.6091L26.2034 31.2659Z" fill="white" mask="url(#path-1-outside-1_544_3779)"/>
</g>
<defs>
<filter id="filter0_d_544_3779" x="0" y="0" width="48" height="48" filterUnits="userSpaceOnUse" color-interpolation-filters="sRGB">
<feFlood flood-opacity="0" result="BackgroundImageFix"/>
<feColorMatrix in="SourceAlpha" type="matrix" values="0 0 0 0 0 0 0 0 0 0 0 0 0 0 0 0 0 0 127 0" result="hardAlpha"/>
<feOffset dy="4"/>
<feGaussianBlur stdDeviation="2"/>
<feComposite in2="hardAlpha" operator="out"/>
<feColorMatrix type="matrix" values="0 0 0 0 0 0 0 0 0 0 0 0 0 0 0 0 0 0 0.15 0"/>
<feBlend mode="normal" in2="BackgroundImageFix" result="effect1_dropShadow_544_3779"/>
<feBlend mode="normal" in="SourceGraphic" in2="effect1_dropShadow_544_3779" result="shape"/>
</filter>
</defs>
</svg>
