<svg width="38" height="38" viewBox="0 0 38 38" fill="none" xmlns="http://www.w3.org/2000/svg">
<rect width="38" height="38" rx="19" fill="white"/>
<path d="M14.8 9H23.2C26.4 9 29 11.6 29 14.8V23.2C29 24.7383 28.3889 26.2135 27.3012 27.3012C26.2135 28.3889 24.7383 29 23.2 29H14.8C11.6 29 9 26.4 9 23.2V14.8C9 13.2617 9.61107 11.7865 10.6988 10.6988C11.7865 9.61107 13.2617 9 14.8 9ZM14.6 11C13.6452 11 12.7295 11.3793 12.0544 12.0544C11.3793 12.7295 11 13.6452 11 14.6V23.4C11 25.39 12.61 27 14.6 27H23.4C24.3548 27 25.2705 26.6207 25.9456 25.9456C26.6207 25.2705 27 24.3548 27 23.4V14.6C27 12.61 25.39 11 23.4 11H14.6ZM24.25 12.5C24.5815 12.5 24.8995 12.6317 25.1339 12.8661C25.3683 13.1005 25.5 13.4185 25.5 13.75C25.5 14.0815 25.3683 14.3995 25.1339 14.6339C24.8995 14.8683 24.5815 15 24.25 15C23.9185 15 23.6005 14.8683 23.3661 14.6339C23.1317 14.3995 23 14.0815 23 13.75C23 13.4185 23.1317 13.1005 23.3661 12.8661C23.6005 12.6317 23.9185 12.5 24.25 12.5ZM19 14C20.3261 14 21.5979 14.5268 22.5355 15.4645C23.4732 16.4021 24 17.6739 24 19C24 20.3261 23.4732 21.5979 22.5355 22.5355C21.5979 23.4732 20.3261 24 19 24C17.6739 24 16.4021 23.4732 15.4645 22.5355C14.5268 21.5979 14 20.3261 14 19C14 17.6739 14.5268 16.4021 15.4645 15.4645C16.4021 14.5268 17.6739 14 19 14ZM19 16C18.2044 16 17.4413 16.3161 16.8787 16.8787C16.3161 17.4413 16 18.2044 16 19C16 19.7956 16.3161 20.5587 16.8787 21.1213C17.4413 21.6839 18.2044 22 19 22C19.7956 22 20.5587 21.6839 21.1213 21.1213C21.6839 20.5587 22 19.7956 22 19C22 18.2044 21.6839 17.4413 21.1213 16.8787C20.5587 16.3161 19.7956 16 19 16Z" fill="#02333A"/>
</svg>
