<svg xmlns="http://www.w3.org/2000/svg" viewBox="-2 -2 21 21">
    <path d="M5.292.265c-1.02 0-1.852.831-1.852 1.852 0 1.02.831 1.852 1.852 1.852 1.02 0 1.852-.832 1.852-1.852S6.312.265 5.292.265zm6.35 0c-1.02 0-1.852.831-1.852 1.852 0 1.02.831 1.852 1.852 1.852 1.02 0 1.852-.832 1.852-1.852S12.662.265 11.642.265zm-6.35 6.35c-1.02 0-1.852.831-1.852 1.852 0 1.02.831 1.852 1.852 1.852 1.02 0 1.852-.832 1.852-1.852s-.832-1.852-1.852-1.852zm6.35 1.058a.795.795 0 0 0-.794.794.795.795 0 0 0 1.587 0 .795.795 0 0 0-.793-.794zm-6.35 5.292c-1.02 0-1.852.831-1.852 1.852 0 1.02.831 1.852 1.852 1.852 1.02 0 1.852-.832 1.852-1.852s-.832-1.852-1.852-1.852zm6.35 1.058a.795.795 0 0 0-.794.794.795.795 0 0 0 1.587 0 .795.795 0 0 0-.793-.794z"
          fill="#2e77aa"/>
</svg>
