<?xml version="1.0" encoding="UTF-8" standalone="no"?><svg width="486.87299" height="493.11801" viewBox="0 0 365.155 369.839" version="1.1" id="svg23" xmlns:xlink="http://www.w3.org/1999/xlink" xmlns="http://www.w3.org/2000/svg" xmlns:svg="http://www.w3.org/2000/svg"> <style id="style1">path{stroke:#202020}@media (prefers-color-scheme:dark){path{stroke:#dfdfdf;fill:#dfdfdf}}*{stroke-linejoin:round;stroke-linecap:butt}</style> <g id="text_1" transform="matrix(0.81497294,0,0,0.81497294,-8.0019974,54.47253)"> <g transform="matrix(1.7,0,0,-1.7,0,328.693)" id="g5"> <defs id="defs3"> <path id="Cabin-Regular-48" d="m 512,0 v 4480 h 608 V 2630 h 2278 v 1850 h 608 V 0 H 3398 V 2054 H 1120 V 0 Z" transform="scale(0.01563)" /> <path id="Cabin-Regular-47" d="m 2445,-90 q -621,0 -1119,286 -497,287 -787,812 -289,525 -289,1238 0,708 299,1229 299,522 822,808 523,287 1195,287 362,0 690,-76 328,-75 571,-180 l -57,-532 q -263,103 -558,170 -294,67 -626,67 -573,0 -943,-239 -369,-238 -549,-641 -179,-403 -179,-899 0,-512 182,-914 183,-401 560,-633 378,-232 961,-232 144,0 358,25 214,26 390,96 v 1114 h -704 v 550 H 3974 V 250 Q 3712,106 3321,8 2931,-90 2445,-90 Z" transform="scale(0.01563)" /> <path id="Cabin-Regular-51" d="M 2822,1293 3168,1645 4576,262 4230,-90 Z M 2464,-90 q -640,0 -1139,286 -499,287 -784,810 -285,524 -285,1234 0,710 285,1233 285,524 784,810 499,287 1139,287 640,0 1139,-287 499,-286 784,-810 285,-523 285,-1233 0,-710 -285,-1234 Q 4102,483 3603,196 3104,-90 2464,-90 Z m 0,589 q 515,0 860,232 346,232 520,627 175,396 175,882 0,486 -175,881 -174,396 -520,628 -345,232 -860,232 -515,0 -861,-232 -345,-232 -520,-628 -174,-395 -174,-881 0,-486 174,-882 175,-395 520,-627 346,-232 861,-232 z" transform="scale(0.01563)" /> </defs> <use xlink:href="#Cabin-Regular-48" id="use3" /> <use xlink:href="#Cabin-Regular-47" x="70.599998" id="use4" /> <use xlink:href="#Cabin-Regular-51" x="137.8" id="use5" /> </g> </g> <path id="use3-3" d="m 311.04989,224.49853 h 12.62367 v 99.0396 h -12.62367 z" style=";stroke:#202020;stroke-width:0.0214243;stroke-linecap:butt;stroke-linejoin:round" /> <path id="use3-3-9" d="m 336.70133,224.47688 h 12.62366 v 99.03959 h -12.62366 z" style=";stroke:#202020;stroke-width:0.0214243;stroke-linecap:butt;stroke-linejoin:round" /> <path id="use3-3-7" d="m 361.21757,224.57978 v 12.26309 h -63.28158 v -12.26309 z" style=";stroke:#202020;stroke-width:0.0168791;stroke-linecap:butt;stroke-linejoin:round" /> <path id="use3-3-9-0" d="m 361.2314,311.68768 v 12.26309 h -63.28157 v -12.26309 z" style=";stroke:#202020;stroke-width:0.0168791;stroke-linecap:butt;stroke-linejoin:round" /> <g id="line2d_1" transform="matrix(1.0827876,0,0,1.0827876,-13.005955,-5.7527465)"> <path style="baseline-shift:baseline;display:inline;overflow:visible;opacity:1;vector-effect:none;enable-background:accumulate;stop-opacity:1" d="m 43.306641,110.66992 c -12.582471,-0.27728 -24.692673,8.4503 -28.297356,20.52789 -4.027456,12.07024 1.054319,26.34557 11.773068,33.19044 10.574026,7.25722 25.813352,6.32673 35.442262,-2.14013 9.399481,-7.79883 12.885989,-21.7412 8.222628,-33.03711 -4.246134,-10.97858 -15.375454,-18.55418 -27.140602,-18.54109 z m -0.298829,24.00586 c 4.116828,-0.28216 7.098632,4.92432 4.572709,8.25446 -2.297297,3.75942 -8.742516,2.76046 -9.729489,-1.5547 -1.01139,-3.27536 1.777944,-6.7542 5.15678,-6.69976 z" id="path5" /> </g> <g id="line2d_2" transform="matrix(1.0827876,0,0,1.0827876,-13.005955,-5.7527465)"> <path style="baseline-shift:baseline;display:inline;overflow:visible;opacity:1;vector-effect:none;enable-background:accumulate;stop-opacity:1" d="M 43.158203,45.367187 C 31.716659,45.149754 20.833669,53.59944 18.357383,64.79621 c -2.869963,11.033993 2.922909,23.442569 13.150429,28.436212 10.204265,5.393395 23.84856,2.650569 31.098368,-6.351635 7.630861,-8.75581 7.827549,-22.823993 0.47803,-31.809478 -4.712275,-6.061296 -12.255986,-9.701503 -19.926007,-9.704122 z m -0.199219,16.003907 c 5.74797,-0.26929 10.740827,5.599844 9.333503,11.226767 -1.043381,5.936349 -8.447212,9.292203 -13.642463,6.301326 -5.254158,-2.502178 -6.685099,-10.188245 -2.624539,-14.378373 1.728949,-1.971781 4.320224,-3.10946 6.933499,-3.14972 z" id="path6" /> </g> <g id="line2d_3" transform="matrix(1.0827876,0,0,1.0827876,-13.005955,-5.7527465)"> <path style="baseline-shift:baseline;display:inline;overflow:visible;opacity:1;vector-effect:none;enable-background:accumulate;stop-opacity:1" d="m 182.50977,153.31445 c -12.43796,-0.33511 -23.19987,11.84065 -21.17565,24.15235 1.31256,12.44778 14.99533,21.40319 26.93283,17.71058 9.04407,-2.30016 15.83201,-11.11641 15.747,-20.44886 -6.89545,-0.79887 -0.27237,1.46676 -0.0825,-1.89119 -0.76657,-10.87954 -10.5365,-19.71301 -21.42172,-19.52288 z m -0.0996,8.00196 c 9.37913,-0.52498 16.68158,10.4043 12.39081,18.8186 -3.62229,8.87667 -16.98786,10.53229 -22.68405,2.83169 -6.29996,-7.08369 -1.89047,-19.58753 7.39809,-21.28818 0.94681,-0.23687 1.92243,-0.32183 2.89515,-0.36211 z" id="path7" /> </g> <g id="line2d_4" transform="matrix(1.0827876,0,0,1.0827876,-13.005955,-5.7527465)"> <path style="baseline-shift:baseline;display:inline;overflow:visible;opacity:1;vector-effect:none;enable-background:accumulate;stop-opacity:1" d="m 182.43555,86.013672 c -11.60713,-0.290558 -21.48317,11.478774 -18.94771,22.858548 1.76788,11.55646 15.30155,19.01934 26.04501,14.48972 10.88635,-3.71486 15.98083,-18.01464 9.82213,-27.747654 -3.38987,-5.938855 -10.09847,-9.684106 -16.91943,-9.600614 z m -0.0488,4 c 10.29686,-0.529725 18.59618,10.927018 14.71095,20.519528 -3.21847,9.95994 -17.18546,13.47477 -24.74983,6.25648 -8.11042,-6.53587 -6.26609,-20.784651 3.20806,-25.081004 2.10284,-1.091963 4.46792,-1.636923 6.83082,-1.695004 z" id="path8" /> </g> <g id="line2d_5" transform="matrix(1.0827876,0,0,1.0827876,-13.005955,-5.7527465)"> <path style="baseline-shift:baseline;display:inline;overflow:visible;opacity:1;vector-effect:none;enable-background:accumulate;stop-opacity:1" d="m 182.6582,10.716797 c -14.14047,-0.436506 -26.73776,12.750111 -25.45074,26.87827 0.47243,14.122797 14.48141,25.641664 28.42145,23.576813 14.03047,-1.296182 24.8572,-15.80169 21.97379,-29.621276 -1.96671,-11.828691 -12.97133,-20.959542 -24.9445,-20.833807 z m -0.19922,16.003906 c 7.66135,-0.522516 12.6568,9.664152 7.33345,15.292794 -4.75626,6.244747 -15.95582,3.022469 -16.57186,-4.835761 -0.78089,-5.397036 3.81949,-10.504219 9.23841,-10.457033 z" id="path9" /> </g> <g id="line2d_6" transform="matrix(1.0827876,0,0,1.0827876,-13.005955,-5.7527465)"> <path style="baseline-shift:baseline;display:inline;overflow:visible;opacity:1;vector-effect:none;enable-background:accumulate;stop-opacity:1" d="m 322.00977,118.66406 c -12.4374,-0.33432 -23.19981,11.84071 -21.17565,24.15235 1.31222,12.44758 14.99527,21.40473 26.93268,17.71052 12.01239,-2.87026 19.17014,-17.28534 14.16094,-28.58553 -3.18704,-7.95731 -11.35331,-13.37304 -19.91797,-13.27734 z m -0.0996,8.00196 c 9.37886,-0.52396 16.6813,10.40439 12.39081,18.81864 -3.62168,8.87814 -16.98809,10.53286 -22.68405,2.83167 -6.30008,-7.08383 -1.88979,-19.58671 7.39819,-21.28817 0.94678,-0.23685 1.92236,-0.32183 2.89505,-0.36214 z" id="path10" /> </g> <g id="line2d_7" transform="matrix(1.0827876,0,0,1.0827876,-13.005955,-5.7527465)"> <path style="baseline-shift:baseline;display:inline;overflow:visible;opacity:1;vector-effect:none;enable-background:accumulate;stop-opacity:1" d="m 322.1582,45.367187 c -14.14059,-0.437586 -26.73799,12.750293 -25.45069,26.878267 0.47263,14.122983 14.48127,25.640682 28.4214,23.576799 C 339.15951,94.525835 349.98575,80.02053 347.1027,66.200994 345.13631,54.37311 334.13089,45.240281 322.1582,45.367187 Z m -0.19922,16.003907 c 7.66064,-0.523552 12.65671,9.662926 7.334,15.291303 -4.7544,6.245937 -15.95622,3.023539 -16.57241,-4.834268 -0.78094,-5.39661 3.8195,-10.505379 9.23841,-10.457035 z" id="path11" /> </g> <g id="line2d_8" transform="matrix(1.0827876,0,0,1.0827876,-13.005955,-5.7527465)"> <path d="m 63.242,144.995 99.17,24.632" clip-path="url(#pdef3dc7593)" style="fill:none;stroke-width:9.6" id="path12" /> </g> <g id="line2d_9" transform="matrix(1.0827876,0,0,1.0827876,-13.005955,-5.7527465)"> <path d="M 59.994,135.784 165.66,109.538" clip-path="url(#pdef3dc7593)" style="fill:none" id="path13" /> </g> <g id="line2d_10" transform="matrix(1.0827876,0,0,1.0827876,-13.005955,-5.7527465)"> <path d="M 58.367,128.593 167.288,47.43" clip-path="url(#pdef3dc7593)" style="fill:none;stroke-width:4.8" id="path14" /> </g> <g id="line2d_11" transform="matrix(1.0827876,0,0,1.0827876,-13.005955,-5.7527465)"> <path d="m 57.027,81.081 111.6,83.16" clip-path="url(#pdef3dc7593)" style="fill:none" id="path15" /> </g> <g id="line2d_12" transform="matrix(1.0827876,0,0,1.0827876,-13.005955,-5.7527465)"> <path d="m 61.618,75.291 102.418,25.44" clip-path="url(#pdef3dc7593)" style="fill:none;stroke-width:4.8" id="path16" /> </g> <g id="line2d_13" transform="matrix(1.0827876,0,0,1.0827876,-13.005955,-5.7527465)"> <path d="m 63.242,65.677 99.17,-24.632" clip-path="url(#pdef3dc7593)" style="fill:none;stroke-width:9.6" id="path17" /> </g> <g id="line2d_14" transform="matrix(1.0827876,0,0,1.0827876,-13.005955,-5.7527465)"> <path d="M 199.494,170.434 305.16,144.188" clip-path="url(#pdef3dc7593)" style="fill:none" id="path18" /> </g> <g id="line2d_15" transform="matrix(1.0827876,0,0,1.0827876,-13.005955,-5.7527465)"> <path d="M 197.867,163.243 306.788,82.08" clip-path="url(#pdef3dc7593)" style="fill:none;stroke-width:4.8" id="path19" /> </g> <g id="line2d_16" transform="matrix(1.0827876,0,0,1.0827876,-13.005955,-5.7527465)"> <path d="m 201.118,109.941 102.418,25.44" clip-path="url(#pdef3dc7593)" style="fill:none;stroke-width:4.8" id="path20" /> </g> <g id="line2d_17" transform="matrix(1.0827876,0,0,1.0827876,-13.005955,-5.7527465)"> <path d="M 199.494,101.134 305.16,74.888" clip-path="url(#pdef3dc7593)" style="fill:none" id="path21" /> </g> <g id="line2d_18" transform="matrix(1.0827876,0,0,1.0827876,-13.005955,-5.7527465)"> <path d="m 199.206,48.427 106.243,79.168" clip-path="url(#pdef3dc7593)" style="fill:none;stroke-width:9.6" id="path22" /> </g> <g id="line2d_19" transform="matrix(1.0827876,0,0,1.0827876,-13.005955,-5.7527465)"> <path d="m 201.118,40.641 102.418,25.44" clip-path="url(#pdef3dc7593)" style="fill:none;stroke-width:4.8" id="path23" /> </g> <defs id="defs23"> <clipPath id="pdef3dc7593"> <path id="rect23" d="m 1.227,0 h 362.7 V 210.672 H 1.227 Z" /> </clipPath> </defs></svg>
