<?xml version="1.0" encoding="UTF-8" standalone="no"?><svg width="446.39999pt" height="326.23682pt" viewBox="0 0 446.4 326.23682" version="1.1" id="svg35" xmlns:xlink="http://www.w3.org/1999/xlink" xmlns="http://www.w3.org/2000/svg" xmlns:svg="http://www.w3.org/2000/svg" xmlns:rdf="http://www.w3.org/1999/02/22-rdf-syntax-ns#" xmlns:cc="http://creativecommons.org/ns#" xmlns:dc="http://purl.org/dc/elements/1.1/"> <style id="style1"> path { fill: #202020; stroke: #202020; } @media (prefers-color-scheme: dark) { path { stroke: #dfdfdf; fill: #dfdfdf; } } </style> <metadata id="metadata1"> <rdf:RDF> <cc:Work> <dc:type rdf:resource="http://purl.org/dc/dcmitype/StillImage" /> <dc:date>2023-11-26T19:19:51.988324</dc:date> <dc:format>image/svg+xml</dc:format> <dc:creator> <cc:Agent> <dc:title>Matplotlib v3.8.0, https://matplotlib.org/</dc:title> </cc:Agent> </dc:creator> </cc:Work> </rdf:RDF> </metadata> <defs id="defs2"> <style type="text/css" id="style2">*{stroke-linejoin: round; stroke-linecap: butt}</style> <defs id="defs3"> <path id="Cabin-Regular-48" d="m 512,0 v 4480 h 608 V 2630 h 2278 v 1850 h 608 V 0 H 3398 V 2054 H 1120 V 0 Z" transform="scale(0.015625)" /> <path id="Cabin-Regular-47" d="m 2445,-90 q -621,0 -1119,286 -497,287 -787,812 -289,525 -289,1238 0,708 299,1229 299,522 822,808 523,287 1195,287 362,0 690,-76 328,-75 571,-180 l -57,-532 q -263,103 -558,170 -294,67 -626,67 -573,0 -943,-239 -369,-238 -549,-641 -179,-403 -179,-899 0,-512 182,-914 183,-401 560,-633 378,-232 961,-232 144,0 358,25 214,26 390,96 v 1114 h -704 v 550 H 3974 V 250 Q 3712,106 3321,8 2931,-90 2445,-90 Z" transform="scale(0.015625)" /> <path id="Cabin-Regular-51" d="M 2822,1293 3168,1645 4576,262 4230,-90 Z M 2464,-90 q -640,0 -1139,286 -499,287 -784,810 -285,524 -285,1234 0,710 285,1233 285,524 784,810 499,287 1139,287 640,0 1139,-287 499,-286 784,-810 285,-523 285,-1233 0,-710 -285,-1234 Q 4102,483 3603,196 3104,-90 2464,-90 Z m 0,589 q 515,0 860,232 346,232 520,627 175,396 175,882 0,486 -175,881 -174,396 -520,628 -345,232 -860,232 -515,0 -861,-232 -345,-232 -520,-628 -174,-395 -174,-881 0,-486 174,-882 175,-395 520,-627 346,-232 861,-232 z" transform="scale(0.015625)" /> </defs> </defs> <use xlink:href="#Cabin-Regular-48" id="use3" transform="matrix(1.6,0,0,-1.6,-2.6375,323.9743)" /> <path id="use3-3" d="m 382.3125,209.7243 h 15.2 v 112 h -15.2 z" style="stroke-width:0.025" /> <path id="use3-3-9" d="m 413.19906,209.69981 h 15.2 v 112 h -15.2 z" style="stroke-width:0.025;stroke-linecap:butt;stroke-linejoin:round" /> <path id="use3-3-7" d="m 440.44632,208.45777 v 15.20067 h -71.56224 v -15.20067 z" style="stroke-width:0.019984;stroke-linecap:butt;stroke-linejoin:round" /> <path id="use3-3-9-0" d="m 440.46197,308.34869 v 15.20066 h -71.56224 v -15.20066 z" style="stroke-width:0.019984;stroke-linecap:butt;stroke-linejoin:round" /> <use xlink:href="#Cabin-Regular-47" x="70.600006" id="use4" transform="matrix(1.6,0,0,-1.6,-2.6375,323.9743)" /> <use xlink:href="#Cabin-Regular-51" x="137.80002" id="use5" transform="matrix(1.6,0,0,-1.6,-2.6375,323.9743)" /> <g id="line2d_1" transform="translate(0,-0.79319617)"> <path style="baseline-shift:baseline;display:inline;overflow:visible;opacity:1;vector-effect:none;stroke-linecap:square;enable-background:accumulate;stop-color:#000000;stop-opacity:1" d="m 13.296875,138.39258 c -10.8585515,-0.0383 -17.6600797,14.10426 -10.6692625,22.47699 6.2537557,9.33237 22.4247965,6.37565 24.9217615,-4.59363 2.725934,-9.15705 -4.857711,-18.45014 -14.252499,-17.88336 z m 0.148438,6.0039 c 8.382785,-1.01665 12.032936,11.72936 4.292925,15.21682 -7.043574,4.20395 -15.5876367,-5.36783 -10.4355467,-11.83005 1.4219902,-1.97199 3.7182237,-3.23128 6.1426217,-3.38677 z" id="path5" /> </g> <g id="line2d_2" transform="translate(0,-0.79319617)"> <path style="baseline-shift:baseline;display:inline;overflow:visible;opacity:1;vector-effect:none;stroke-linecap:square;enable-background:accumulate;stop-color:#000000;stop-opacity:1" d="m 13.285156,83.953125 c -10.588168,-0.01202 -16.627789,14.24263 -9.144531,21.783205 6.735016,8.29789 21.821313,3.83269 22.806634,-6.847668 1.439254,-7.955717 -5.727226,-15.518846 -13.662103,-14.935537 z m 0.09766,4.001953 C 22.098015,86.905024 26.705947,99.572262 19.353484,104.35156 12.451726,109.99068 1.5203528,101.4444 5.5693168,93.425385 6.8588222,90.303518 10.03432,88.164489 13.382816,87.955078 Z" id="path6" /> </g> <g id="line2d_3" transform="translate(0,-0.79319617)"> <path style="baseline-shift:baseline;display:inline;overflow:visible;opacity:1;vector-effect:none;stroke-linecap:square;enable-background:accumulate;stop-color:#000000;stop-opacity:1" d="M 13.273438,29.513672 C 3.5480918,29.556046 -1.9902068,42.615061 4.8398434,49.583984 11.094059,57.375294 25.246425,53.110318 25.981619,43.102102 27.150847,35.794383 20.578082,28.945555 13.273438,29.513672 Z m 0.04883,2 C 22.617111,30.403226 28.055596,43.650337 20.487462,49.262903 13.364838,56.023896 0.69784519,47.573122 4.3125,38.394531 5.5933007,34.541213 9.2731768,31.750924 13.322268,31.513672 Z" id="path7" /> </g> <g id="line2d_4" transform="translate(0,-0.79319617)"> <path style="baseline-shift:baseline;display:inline;overflow:visible;opacity:1;vector-effect:none;stroke-linecap:square;enable-background:accumulate;stop-color:#000000;stop-opacity:1" d="m 117.91016,139.39258 c -10.58867,-0.0109 -16.62761,14.24368 -9.14471,21.78508 6.7368,8.29551 21.82147,3.83086 22.80663,-6.84963 1.37965,-7.98859 -5.67544,-15.49651 -13.66192,-14.93545 z m 0.0977,4.00195 c 8.70494,-1.03983 13.37792,11.61669 5.97048,16.39651 -6.90014,5.64011 -17.83294,-2.90583 -13.78458,-10.92444 1.28833,-3.12303 4.46523,-5.26271 7.8141,-5.47207 z" id="path8" /> </g> <g id="line2d_5" transform="translate(0,-0.79319617)"> <path style="baseline-shift:baseline;display:inline;overflow:visible;opacity:1;vector-effect:none;stroke-linecap:square;enable-background:accumulate;stop-color:#000000;stop-opacity:1" d="m 117.92188,82.953125 c -10.85902,-0.03962 -17.65961,14.104225 -10.66944,22.477095 6.25441,9.33211 22.42365,6.37441 24.92191,-4.59369 2.72537,-9.157703 -4.85637,-18.450503 -14.25247,-17.883405 z m 0.14843,6.001953 c 8.38324,-1.01237 12.03219,11.728842 4.29283,15.218752 -7.04352,4.20202 -15.58889,-5.36827 -10.43555,-11.830055 1.42023,-1.973944 3.71982,-3.228675 6.14272,-3.388697 z" id="path9" /> </g> <g id="line2d_6" transform="translate(0,-0.79319617)"> <path style="baseline-shift:baseline;display:inline;overflow:visible;opacity:1;vector-effect:none;stroke-linecap:square;enable-background:accumulate;stop-color:#000000;stop-opacity:1" d="m 222.53516,167.11328 c -10.58811,-0.0126 -16.6279,14.24277 -9.14472,21.78322 6.52591,7.98793 20.97714,4.19872 22.67774,-5.9962 2.02347,-8.17937 -5.26212,-16.41572 -13.53302,-15.78702 z m 0.0977,4.00195 c 8.70488,-1.04145 13.3779,11.61644 5.97047,16.39646 -6.90166,5.63863 -17.83339,-2.90696 -13.78417,-10.92617 1.28996,-3.12206 4.46421,-5.26194 7.8137,-5.47029 z" id="path10" /> </g> <g id="line2d_7" transform="translate(0,-0.79319617)"> <path style="baseline-shift:baseline;display:inline;overflow:visible;opacity:1;vector-effect:none;stroke-linecap:square;enable-background:accumulate;stop-color:#000000;stop-opacity:1" d="m 222.54687,110.67383 c -10.85892,-0.0415 -17.65926,14.10305 -10.66989,22.47544 6.25373,9.33425 22.42553,6.3754 24.92237,-4.59403 2.84642,-9.09 -4.96037,-18.49475 -14.25248,-17.88141 z m 0.14844,6.00195 c 8.38344,-1.01343 12.03184,11.72872 4.29283,15.21872 -7.04538,4.1995 -15.58817,-5.36921 -10.43556,-11.83201 1.42176,-1.97266 3.71909,-3.22844 6.14273,-3.38671 z" id="path11" /> </g> <g id="line2d_8" transform="translate(0,-0.79319617)"> <path style="baseline-shift:baseline;display:inline;overflow:visible;opacity:1;vector-effect:none;stroke-linecap:square;enable-background:accumulate;stop-color:#000000;stop-opacity:1" d="M 222.53516,0.79296875 C 211.94783,0.78158807 205.90669,15.035811 213.39044,22.576172 c 6.73495,8.298253 21.82122,3.832536 22.80664,-6.847658 1.39668,-7.9676705 -5.68417,-15.50567869 -13.66192,-14.93554525 z m 0.0977,4.00195315 c 8.70529,-1.0397891 13.37763,11.6159271 5.97047,16.3964841 -6.90151,5.639972 -17.83333,-2.907293 -13.78417,-10.926203 1.28953,-3.121928 4.46512,-5.2609884 7.8137,-5.4702811 z" id="path12" /> </g> <g id="line2d_9" transform="translate(0,-0.79319617)"> <path style="baseline-shift:baseline;display:inline;overflow:visible;opacity:1;vector-effect:none;stroke-linecap:square;enable-background:accumulate;stop-color:#000000;stop-opacity:1" d="m 327.14844,140.39258 c -9.7246,0.0443 -15.26409,13.10155 -8.43378,20.07046 6.25321,7.79272 20.4077,3.52688 21.14188,-6.48206 1.16902,-7.30832 -5.40418,-14.15364 -12.7081,-13.5884 z m 0.0488,2.00195 c 9.29458,-1.11278 14.73242,12.13541 7.16571,17.7479 -7.12287,6.76244 -19.7916,-1.68994 -16.1755,-10.86893 1.28111,-3.85329 4.96052,-6.64245 9.00979,-6.87897 z" id="path13" /> </g> <g id="line2d_10" transform="translate(0,-0.79319617)"> <path style="baseline-shift:baseline;display:inline;overflow:visible;opacity:1;vector-effect:none;stroke-linecap:square;enable-background:accumulate;stop-color:#000000;stop-opacity:1" d="m 327.17773,27.013672 c -11.25845,-0.06545 -18.32027,14.599436 -11.07372,23.277884 6.19995,9.173368 21.91353,6.988921 25.40966,-3.512259 0.85442,-0.722103 1.93223,-10.813474 -2.67826,-14.813221 -2.88297,-3.300875 -7.28337,-5.15354 -11.65768,-4.952404 z m 0.17383,7.001953 c 7.86379,-0.954073 11.29431,10.999405 4.03111,14.273435 -6.60563,3.944692 -14.63474,-5.029427 -9.79673,-11.093748 1.33323,-1.854377 3.49007,-3.030828 5.76562,-3.179687 z" id="path14" /> </g> <g id="line2d_11" transform="translate(0,-0.79319617)"> <path style="baseline-shift:baseline;display:inline;overflow:visible;opacity:1;vector-effect:none;stroke-linecap:square;enable-background:accumulate;stop-color:#000000;stop-opacity:1" d="m 431.79687,138.39258 c -7.65223,0.17527 -14.21344,7.4205 -13.44367,15.07046 0.32993,7.85605 8.22165,14.20372 15.96385,12.93441 7.32475,-0.78134 13.26178,-8.07361 12.08548,-15.4612 -0.40215,-7.26035 -7.46709,-12.98249 -14.60566,-12.54367 z m 0.14844,6.0039 c 5.3005,-0.51854 9.99433,5.0782 8.34508,10.19166 -1.25272,5.4288 -8.59697,7.81111 -12.83877,4.23103 -4.34862,-3.06214 -4.07447,-10.34268 0.49348,-13.06694 1.17404,-0.81596 2.58471,-1.23417 4.00021,-1.35575 z" id="path15" /> </g> <g id="line2d_12" transform="translate(0,-0.79319617)"> <path style="baseline-shift:baseline;display:inline;overflow:visible;opacity:1;vector-effect:none;stroke-linecap:square;enable-background:accumulate;stop-color:#000000;stop-opacity:1" d="m 431.78516,83.953125 c -7.20508,0.193399 -13.29603,7.119119 -12.42006,14.301566 0.50131,7.293169 7.94671,13.003369 15.12091,11.678319 7.35868,-0.93726 12.76454,-8.90336 10.70043,-16.097919 -1.379,-5.958169 -7.32465,-10.255108 -13.40128,-9.881966 z m 0.0976,4.001953 c 5.72865,-0.531943 10.84969,5.219178 9.54273,10.847661 -0.99842,5.839611 -8.2801,9.194531 -13.36392,6.161601 -5.28389,-2.58344 -6.38263,-10.506501 -1.99737,-14.429007 1.55343,-1.526674 3.65615,-2.413394 5.81856,-2.580255 z" id="path16" /> </g> <g id="line2d_13" transform="translate(0,-0.79319617)"> <path style="baseline-shift:baseline;display:inline;overflow:visible;opacity:1;vector-effect:none;stroke-linecap:square;enable-background:accumulate;stop-color:#000000;stop-opacity:1" d="m 431.77344,29.513672 c -6.74276,0.214416 -12.34584,6.785748 -11.39665,13.484375 0.65119,6.735312 7.62897,11.824919 14.24217,10.472611 6.77846,-1.055073 11.59754,-8.522126 9.53041,-15.12754 -1.44284,-5.40237 -6.80997,-9.173935 -12.37593,-8.829446 z m 0.0488,2 c 6.08456,-0.548554 11.70498,5.31248 10.67001,11.378917 -0.59376,6.301208 -7.92932,10.556414 -13.71954,8.066163 -5.8499,-2.009544 -8.40403,-9.865001 -4.79305,-14.906975 1.70938,-2.647517 4.71238,-4.321857 7.84258,-4.538105 z" id="path17" /> </g> <g id="line2d_14" transform="translate(0,-0.79319617)"> <path d="m 27.2025,152.46 h 78.12" clip-path="url(#p6d2e03f76d)" style="fill:none;stroke-width:6;stroke-linecap:square" id="path18" /> </g> <g id="line2d_15" transform="translate(0,-0.79319617)"> <path d="m 27.2025,97.02 h 78.12" clip-path="url(#p6d2e03f76d)" style="fill:none;stroke-width:6;stroke-linecap:square" id="path19" /> </g> <g id="line2d_16" transform="translate(0,-0.79319617)"> <path d="M 21.821307,49.921893 110.70369,144.11811" clip-path="url(#p6d2e03f76d)" style="fill:none;stroke-linecap:square" id="path20" /> </g> <g id="line2d_17" transform="translate(0,-0.79319617)"> <path d="m 131.38003,149.06736 79.01494,-20.93472" clip-path="url(#p6d2e03f76d)" style="fill:none;stroke-width:6;stroke-linecap:square" id="path21" /> </g> <g id="line2d_18" transform="translate(0,-0.79319617)"> <path d="M 125.48025,143.3124 216.29475,23.0076" clip-path="url(#p6d2e03f76d)" style="fill:none;stroke-linecap:square" id="path22" /> </g> <g id="line2d_19" transform="translate(0,-0.79319617)"> <path d="m 128.37881,104.81245 85.01738,67.5751" clip-path="url(#p6d2e03f76d)" style="fill:none;stroke-width:4;stroke-linecap:square" id="path23" /> </g> <g id="line2d_20" transform="translate(0,-0.79319617)"> <path d="m 131.04305,100.32336 79.6889,21.11328" clip-path="url(#p6d2e03f76d)" style="fill:none;stroke-width:5;stroke-linecap:square" id="path24" /> </g> <g id="line2d_21" transform="translate(0,-0.79319617)"> <path d="M 127.56182,89.876924 214.21318,21.003076" clip-path="url(#p6d2e03f76d)" style="fill:none;stroke-linecap:square" id="path25" /> </g> <g id="line2d_22" transform="translate(0,-0.79319617)"> <path d="M 230.3145,170.7552 320.7105,51.0048" clip-path="url(#p6d2e03f76d)" style="fill:none;stroke-width:2;stroke-linecap:square" id="path26" /> </g> <g id="line2d_23" transform="translate(0,-0.79319617)"> <path d="m 234.32016,127.68624 82.38468,21.82752" clip-path="url(#p6d2e03f76d)" style="fill:none;stroke-linecap:square" id="path27" /> </g> <g id="line2d_24" transform="translate(0,-0.79319617)"> <path d="M 233.27614,116.7311 317.74886,49.588903" clip-path="url(#p6d2e03f76d)" style="fill:none;stroke-width:5;stroke-linecap:square" id="path28" /> </g> <g id="line2d_25" transform="translate(0,-0.79319617)"> <path d="m 230.3145,23.2848 90.396,119.7504" clip-path="url(#p6d2e03f76d)" style="fill:none;stroke-width:2;stroke-linecap:square" id="path29" /> </g> <g id="line2d_26" transform="translate(0,-0.79319617)"> <path d="m 234.65713,16.895524 81.71074,21.648952" clip-path="url(#p6d2e03f76d)" style="fill:none;stroke-width:2;stroke-linecap:square" id="path30" /> </g> <g id="line2d_27" transform="translate(0,-0.79319617)"> <path d="m 339.33375,152.46 h 81.6075" clip-path="url(#p6d2e03f76d)" style="fill:none;stroke-linecap:square" id="path31" /> </g> <g id="line2d_28" transform="translate(0,-0.79319617)"> <path d="m 338.2875,146.916 83.7,-44.352" clip-path="url(#p6d2e03f76d)" style="fill:none;stroke-width:2;stroke-linecap:square" id="path32" /> </g> <g id="line2d_29" transform="translate(0,-0.79319617)"> <path d="m 336.6504,50.933032 86.97419,92.173938" clip-path="url(#p6d2e03f76d)" style="fill:none;stroke-width:5;stroke-linecap:square" id="path33" /> </g> <g id="line2d_30" transform="translate(0,-0.79319617)"> <path d="m 337.97978,46.960941 84.31544,44.678118" clip-path="url(#p6d2e03f76d)" style="fill:none;stroke-linecap:square" id="path34" /> </g> <g id="line2d_31" transform="translate(0,-0.79319617)"> <path d="m 340.03125,41.58 h 80.2125" clip-path="url(#p6d2e03f76d)" style="fill:none;stroke-width:3;stroke-linecap:square" id="path35" /> </g> <defs id="defs35"> <clipPath id="p6d2e03f76d"> <rect x="0" y="0" width="446.39999" height="194.03999" id="rect35" /> </clipPath> </defs></svg>
