<?xml version="1.0" encoding="UTF-8" standalone="no"?>
<!-- Created with Inkscape (http://www.inkscape.org/) -->

<svg
   xmlns:dc="http://purl.org/dc/elements/1.1/"
   xmlns:cc="http://creativecommons.org/ns#"
   xmlns:rdf="http://www.w3.org/1999/02/22-rdf-syntax-ns#"
   xmlns:svg="http://www.w3.org/2000/svg"
   xmlns="http://www.w3.org/2000/svg"
   xmlns:xlink="http://www.w3.org/1999/xlink"
   xmlns:sodipodi="http://sodipodi.sourceforge.net/DTD/sodipodi-0.dtd"
   xmlns:inkscape="http://www.inkscape.org/namespaces/inkscape"
   width="122.56248"
   height="104.0625"
   viewBox="0 0 122.56248 104.0625"
   id="svg2"
   version="1.1"
   inkscape:version="0.91 r13725"
   sodipodi:docname="post.svg">
  <defs
     id="defs4">
    <linearGradient
       id="B">
      <stop
         stop-color="#323232"
         id="R" />
      <stop
         stop-color="#121212"
         offset="1"
         id="S" />
    </linearGradient>
    <linearGradient
       id="C">
      <stop
         id="T" />
      <stop
         stop-opacity="0"
         offset="1"
         id="U" />
    </linearGradient>
    <linearGradient
       id="D">
      <stop
         stop-color="#bbb"
         id="V" />
      <stop
         stop-color="#888"
         offset="1"
         id="W" />
    </linearGradient>
    <linearGradient
       id="E">
      <stop
         stop-color="#fff"
         id="X" />
      <stop
         stop-opacity="0"
         stop-color="#fff"
         offset="1"
         id="Y" />
    </linearGradient>
    <filter
       id="F"
       style="color-interpolation-filters:sRGB">
      <feGaussianBlur
         id="Z"
         stdDeviation="0.34594" />
    </filter>
    <linearGradient
       gradientUnits="userSpaceOnUse"
       xlink:href="#E"
       id="G"
       y2="99.839996"
       x2="0"
       y1="20.16"
       gradientTransform="translate(887.42857,877.8384)" />
    <linearGradient
       gradientUnits="userSpaceOnUse"
       xlink:href="#D"
       id="H"
       y2="113.23"
       x2="0"
       y1="13.764"
       gradientTransform="translate(887.42857,877.8384)" />
    <radialGradient
       gradientTransform="matrix(1.5662421,-0.00622244,0.0033489,0.84294616,853.93141,888.17698)"
       gradientUnits="userSpaceOnUse"
       xlink:href="#E"
       id="I"
       r="58.799999"
       cy="-11.583"
       cx="62.27" />
    <radialGradient
       gradientTransform="matrix(1.221777,0,0,0.07009346,869.97677,985.31749)"
       gradientUnits="userSpaceOnUse"
       xlink:href="#C"
       id="J"
       r="63.689999"
       cy="121.15"
       cx="66.669998" />
    <linearGradient
       id="K">
      <stop
         stop-color="#323232"
         id="a" />
      <stop
         stop-color="#555"
         offset="1"
         id="b" />
    </linearGradient>
    <linearGradient
       id="L">
      <stop
         stop-opacity="0.308"
         stop-color="#eee"
         id="c" />
      <stop
         stop-opacity="0"
         stop-color="#eee"
         offset="1"
         id="d" />
    </linearGradient>
    <linearGradient
       gradientUnits="userSpaceOnUse"
       xlink:href="#K"
       id="M"
       y2="9.5310001"
       x2="0"
       y1="114.03" />
    <radialGradient
       gradientTransform="matrix(1.348279,0,0,1.0502311,-24.469781,-3.1033417)"
       gradientUnits="userSpaceOnUse"
       xlink:href="#L"
       id="N"
       r="50.702999"
       cy="-5.131"
       cx="65.209999" />
  </defs>
  <sodipodi:namedview
     id="base"
     pagecolor="#ffffff"
     bordercolor="#666666"
     borderopacity="1.0"
     inkscape:pageopacity="0.0"
     inkscape:pageshadow="2"
     inkscape:zoom="2"
     inkscape:cx="105.04961"
     inkscape:cy="-16.284026"
     inkscape:document-units="px"
     inkscape:current-layer="layer1"
     showgrid="false"
     fit-margin-top="0"
     fit-margin-left="0"
     fit-margin-right="0"
     fit-margin-bottom="0"
     units="px"
     inkscape:window-width="1920"
     inkscape:window-height="1018"
     inkscape:window-x="-8"
     inkscape:window-y="-8"
     inkscape:window-maximized="1" />
  <metadata
     id="metadata7">
    <rdf:RDF>
      <cc:Work
         rdf:about="">
        <dc:format>image/svg+xml</dc:format>
        <dc:type
           rdf:resource="http://purl.org/dc/dcmitype/StillImage" />
        <dc:title></dc:title>
      </cc:Work>
    </rdf:RDF>
  </metadata>
  <g
     inkscape:label="Layer 1"
     inkscape:groupmode="layer"
     id="layer1"
     transform="translate(-890.14732,-889.30715)">
    <path
       style="opacity:0.2;fill:url(#J)"
       inkscape:connector-curvature="0"
       d="m 1029.2441,993.80964 a 77.815559,4.4642859 0 1 1 -155.63109,0 77.815559,4.4642859 0 1 1 155.63109,0 z"
       id="1" />
    <path
       style="fill:#eeeeee"
       inkscape:connector-curvature="0"
       d="m 951.2781,868.54577 0,1.34375 c -0.65576,0.0268 -1.25711,0.1028 -1.8125,0.25 -0.5487,0.14722 -1.03602,0.36853 -1.4375,0.65625 -0.39479,0.28774 -0.68543,0.65213 -0.90625,1.09375 -0.22082,0.43495 -0.34375,0.95359 -0.34375,1.5625 0,0.69591 0.13411,1.28161 0.375,1.75 0.24089,0.46171 0.5494,0.84845 0.9375,1.15625 0.39479,0.30112 0.84189,0.53808 1.34375,0.71875 0.50185,0.17398 1.00932,0.31706 1.53125,0.4375 0.0268,1e-5 0.0759,0.0112 0.15625,0.0312 0.0803,0.0134 0.13617,0.0179 0.15625,0.0312 l 0,3.9375 c -0.40818,-0.0401 -0.75021,-0.12956 -1.03125,-0.25 -0.27435,-0.12714 -0.50683,-0.2747 -0.6875,-0.46875 -0.18067,-0.19405 -0.33044,-0.42654 -0.4375,-0.6875 -0.10037,-0.26766 -0.16522,-0.55381 -0.21875,-0.875 l -2.5625,0.46875 c 0.12045,0.60892 0.29036,1.14991 0.53125,1.625 0.24758,0.4684 0.57396,0.85962 0.96875,1.1875 0.40148,0.32788 0.87542,0.56933 1.4375,0.75 0.56877,0.18066 1.23718,0.28574 2,0.3125 l 0,1.75 1.09375,0 0,-1.78125 c 0.84311,-0.0335 1.57858,-0.11845 2.1875,-0.3125 0.60891,-0.20075 1.11189,-0.47793 1.5,-0.8125 0.39479,-0.34126 0.68763,-0.75704 0.875,-1.21875 0.18735,-0.4684 0.28124,-0.96248 0.28125,-1.53125 -10e-6,-0.74274 -0.1386,-1.36197 -0.40625,-1.84375 -0.26097,-0.48847 -0.62757,-0.87969 -1.0625,-1.1875 -0.42826,-0.3078 -0.91337,-0.56933 -1.46875,-0.75 -0.5487,-0.18066 -1.11204,-0.33492 -1.6875,-0.46875 -0.0402,-0.0134 -0.0849,-0.0312 -0.125,-0.0312 -0.0335,1e-5 -0.0603,0.0134 -0.0937,0 l 0,-3.53125 c 0.53531,0.0736 0.96226,0.27257 1.25,0.59375 0.29442,0.3145 0.49337,0.7616 0.59375,1.34375 l 2.625,-0.40625 c -0.14053,-0.56207 -0.31713,-1.04718 -0.53125,-1.46875 -0.21413,-0.42824 -0.4958,-0.77476 -0.84375,-1.0625 -0.34796,-0.29441 -0.74815,-0.5269 -1.25,-0.6875 -0.50186,-0.16058 -1.12777,-0.25447 -1.84375,-0.28125 l 0,-1.34375 -1.09375,0 z m 13.71875,0 0,16.78125 10.6875,0 0,-16.78125 -10.6875,0 z m -13.71875,3.25 0,3.34375 c -0.26766,-0.087 -0.5225,-0.16969 -0.75,-0.25 -0.22751,-0.087 -0.42647,-0.19205 -0.59375,-0.3125 -0.16729,-0.12044 -0.28132,-0.25683 -0.375,-0.4375 -0.0937,-0.18735 -0.15625,-0.43101 -0.15625,-0.71875 -10e-6,-0.20074 0.0335,-0.41307 0.0937,-0.59375 0.0602,-0.18735 0.16529,-0.32822 0.3125,-0.46875 0.14721,-0.1472 0.3283,-0.28131 0.5625,-0.375 0.24089,-0.0937 0.5516,-0.16072 0.90625,-0.1875 z m 1.09375,6.03125 c 0.3078,0.087 0.60734,0.16302 0.875,0.25 0.27434,0.0803 0.48675,0.18536 0.6875,0.3125 0.20074,0.12714 0.38624,0.29257 0.5,0.5 0.11374,0.20074 0.15624,0.48462 0.15625,0.8125 -10e-6,0.58884 -0.20565,1.02477 -0.59375,1.3125 -0.38142,0.28773 -0.91571,0.45316 -1.625,0.5 l 0,-3.6875 z"
       id="7" />
    <path
       style="fill:#343434;fill-opacity:1;filter:url(#F)"
       inkscape:connector-curvature="0"
       d="m 911.21097,867.98928 0,1.34375 c -0.65576,0.0268 -1.25711,0.1028 -1.8125,0.25 -0.5487,0.14722 -1.03602,0.36853 -1.4375,0.65625 -0.39479,0.28774 -0.68543,0.65213 -0.90625,1.09375 -0.22082,0.43495 -0.34375,0.95359 -0.34375,1.5625 0,0.69591 0.13411,1.28161 0.375,1.75 0.24089,0.46171 0.5494,0.84845 0.9375,1.15625 0.39479,0.30112 0.84189,0.53808 1.34375,0.71875 0.50185,0.17398 1.00932,0.31706 1.53125,0.4375 0.0268,10e-6 0.0759,0.0112 0.15625,0.0312 0.0803,0.0134 0.13617,0.0179 0.15625,0.0312 l 0,3.9375 c -0.40818,-0.0401 -0.75021,-0.12956 -1.03125,-0.25 -0.27435,-0.12714 -0.50683,-0.2747 -0.6875,-0.46875 -0.18067,-0.19405 -0.33044,-0.42654 -0.4375,-0.6875 -0.10037,-0.26766 -0.16522,-0.55381 -0.21875,-0.875 l -2.5625,0.46875 c 0.12045,0.60892 0.29036,1.14991 0.53125,1.625 0.24758,0.4684 0.57396,0.85962 0.96875,1.1875 0.40148,0.32788 0.87542,0.56933 1.4375,0.75 0.56877,0.18066 1.23718,0.28574 2,0.3125 l 0,1.75 1.09375,0 0,-1.78125 c 0.84311,-0.0335 1.57858,-0.11845 2.1875,-0.3125 0.60891,-0.20075 1.11189,-0.47793 1.5,-0.8125 0.39479,-0.34126 0.68763,-0.75704 0.875,-1.21875 0.18735,-0.4684 0.28124,-0.96248 0.28125,-1.53125 -10e-6,-0.74274 -0.1386,-1.36197 -0.40625,-1.84375 -0.26097,-0.48847 -0.62757,-0.87969 -1.0625,-1.1875 -0.42826,-0.3078 -0.91337,-0.56933 -1.46875,-0.75 -0.5487,-0.18066 -1.11204,-0.33492 -1.6875,-0.46875 -0.0402,-0.0134 -0.0849,-0.0312 -0.125,-0.0312 -0.0335,10e-6 -0.0603,0.0134 -0.0937,0 l 0,-3.53125 c 0.53531,0.0736 0.96226,0.27257 1.25,0.59375 0.29442,0.3145 0.49337,0.7616 0.59375,1.34375 l 2.625,-0.40625 c -0.14053,-0.56207 -0.31713,-1.04718 -0.53125,-1.46875 -0.21413,-0.42824 -0.4958,-0.77476 -0.84375,-1.0625 -0.34796,-0.29441 -0.74815,-0.5269 -1.25,-0.6875 -0.50186,-0.16058 -1.12777,-0.25447 -1.84375,-0.28125 l 0,-1.34375 -1.09375,0 z m 13.71875,0 0,16.78125 10.6875,0 0,-16.78125 -10.6875,0 z m -13.71875,3.25 0,3.34375 c -0.26766,-0.087 -0.5225,-0.16969 -0.75,-0.25 -0.22751,-0.087 -0.42647,-0.19205 -0.59375,-0.3125 -0.16729,-0.12044 -0.28132,-0.25683 -0.375,-0.4375 -0.0937,-0.18735 -0.15625,-0.43101 -0.15625,-0.71875 -10e-6,-0.20074 0.0335,-0.41307 0.0937,-0.59375 0.0602,-0.18735 0.16529,-0.32822 0.3125,-0.46875 0.14721,-0.1472 0.3283,-0.28131 0.5625,-0.375 0.24089,-0.0937 0.5516,-0.16072 0.90625,-0.1875 z m 1.09375,6.03125 c 0.3078,0.087 0.60734,0.16302 0.875,0.25 0.27434,0.0803 0.48675,0.18536 0.6875,0.3125 0.20074,0.12714 0.38624,0.29257 0.5,0.5 0.11374,0.20074 0.15624,0.48462 0.15625,0.8125 -10e-6,0.58884 -0.20565,1.02477 -0.59375,1.3125 -0.38142,0.28773 -0.91571,0.45316 -1.625,0.5 l 0,-3.6875 z"
       id="8" />
    <g
       id="g4338">
      <path
         id="2"
         d="m 896.58482,889.30715 c -3.49351,0 -6.4375,2.88874 -6.4375,6.40625 l 0,91.25 c 0,3.51751 2.944,6.40625 6.4375,6.40625 l 109.68748,0 c 3.4935,0 6.4375,-2.88874 6.4375,-6.40625 l 0,-91.25 c 0,-3.51751 -2.944,-6.40625 -6.4375,-6.40625 l -109.68748,0 z"
         inkscape:connector-curvature="0"
         style="fill:#555555" />
      <rect
         rx="4.0999999"
         id="3"
         y="891.60242"
         x="892.46857"
         height="99.470001"
         width="117.91"
         style="fill:url(#H)" />
      <rect
         id="4"
         y="897.5954"
         x="898.08655"
         height="79.68"
         width="105.88" />
      <rect
         id="5"
         y="898.29541"
         x="898.78656"
         height="79.68"
         width="105.88"
         style="fill:#dddddd" />
      <rect
         id="6"
         y="897.99841"
         x="898.48859"
         height="79.68"
         width="105.88"
         style="fill:url(#G);fill-opacity:1" />
      <path
         id="9"
         d="m 896.58482,893.05715 c -1.47519,0 -2.65625,1.18106 -2.65625,2.65625 l 0,91.25 c 0,1.47519 1.16764,2.625 2.65625,2.625 l 109.68748,0 c 1.4886,0 2.6563,-1.14981 2.6563,-2.625 l 0,-91.25 c 0,-1.47519 -1.1811,-2.65625 -2.6563,-2.65625 l -109.68748,0 z"
         inkscape:connector-curvature="0"
         style="fill:none;stroke:url(#I);stroke-width:2.5999999" />
      <g
         id="A"
         transform="matrix(0.1014181,0,0,0.1014181,944.97901,978.19438)">
        <path
           id="O"
           d="m 108.21875,7.28125 -50.9375,64.28125 33.28125,44.53125 26.84375,0 -41.25,-56.0625 L 116.46875,9 l 1.4375,-1.65625 -5,-0.0625 -4.6875,0 z m -98.9375,0.25 0,0.03125 L 50.71875,63.5 9.4375,116.1875 18.84375,116.28125 69.3125,52.75 36.09375,7.59375 9.28125,7.53125 Z"
           inkscape:connector-curvature="0"
           style="fill:#1a1a1a" />
        <path
           id="P"
           d="M 109.34375,9.53125 60.125,71.625 l 31.5625,42.21875 21.25,0 L 74.34375,61.375 a 2.2551453,2.2551453 0 0 1 0.03125,-2.75 l 38.78125,-49.09375 -0.25,0 -0.0312,0 -3.53125,0 z m -95.59375,0.25 38.78125,52.375 a 2.2551453,2.2551453 0 0 1 -0.03125,2.75 l -38.4375,49.0625 3.71875,0.0625 48.6875,-61.3125 L 34.9375,9.84375 13.75,9.78125 Z"
           inkscape:connector-curvature="0"
           style="fill:url(#M)" />
        <path
           id="Q"
           d="M 109.34375,9.53125 60.125,71.625 l 31.5625,42.21875 21.25,0 L 74.34375,61.375 a 2.2551453,2.2551453 0 0 1 0.03125,-2.75 l 38.78125,-49.09375 -0.25,0 -0.0312,0 -3.53125,0 z m -95.59375,0.25 38.78125,52.375 a 2.2551453,2.2551453 0 0 1 -0.03125,2.75 l -38.4375,49.0625 3.71875,0.0625 48.6875,-61.3125 L 34.9375,9.84375 13.75,9.78125 Z"
           inkscape:connector-curvature="0"
           style="fill:none;stroke:url(#N);stroke-width:2;stroke-linecap:square" />
      </g>
      <text
         sodipodi:linespacing="125%"
         id="text4236"
         y="903.13379"
         x="900.70392"
         style="font-style:normal;font-weight:normal;font-size:15px;line-height:125%;font-family:sans-serif;letter-spacing:0px;word-spacing:0px;fill:#000000;fill-opacity:1;stroke:none;stroke-width:1px;stroke-linecap:butt;stroke-linejoin:miter;stroke-opacity:1"
         xml:space="preserve"><tspan
           id="tspan4262"
           style="font-style:normal;font-variant:normal;font-weight:normal;font-stretch:semi-condensed;font-size:5px;font-family:'Lucida Console';-inkscape-font-specification:'Lucida Console Semi-Condensed';fill:#808080"
           y="903.13379"
           x="900.70392"
           sodipodi:role="line">#!/usr/bin/bash</tspan><tspan
           id="tspan4268"
           style="font-style:normal;font-variant:normal;font-weight:normal;font-stretch:semi-condensed;font-size:5px;font-family:'Lucida Console';-inkscape-font-specification:'Lucida Console Semi-Condensed';fill:#808080"
           y="909.38379"
           x="900.70392"
           sodipodi:role="line"># A foo to do bar when...</tspan><tspan
           id="tspan4272"
           style="font-style:normal;font-variant:normal;font-weight:normal;font-stretch:semi-condensed;font-size:5px;font-family:'Lucida Console';-inkscape-font-specification:'Lucida Console Semi-Condensed'"
           y="915.63379"
           x="900.70392"
           sodipodi:role="line" /><tspan
           id="tspan4270"
           style="font-style:normal;font-variant:normal;font-weight:normal;font-stretch:semi-condensed;font-size:5px;font-family:'Lucida Console';-inkscape-font-specification:'Lucida Console Semi-Condensed'"
           y="921.88379"
           x="900.70392"
           sodipodi:role="line"><tspan
   id="tspan4274"
   style="fill:#55d400">for</tspan><tspan
   id="tspan4302"
   style="fill:#333333"> d</tspan><tspan
   id="tspan4278"
   style="fill:#55d400"> in &quot;</tspan><tspan
   id="tspan4312"
   style="fill:#d45500">$@</tspan><tspan
   id="tspan4310"
   style="fill:#55d400">&quot;</tspan>; <tspan
   id="tspan4280"
   style="fill:#55d400">do</tspan></tspan><tspan
           id="tspan4248"
           style="font-style:normal;font-variant:normal;font-weight:normal;font-stretch:semi-condensed;font-size:5px;font-family:'Lucida Console';-inkscape-font-specification:'Lucida Console Semi-Condensed'"
           y="928.13379"
           x="900.70392"
           sodipodi:role="line"><tspan
   id="tspan4282"
   style="fill:#55d400">  if [ -e &quot;</tspan><tspan
   id="tspan4314"
   style="fill:#d45500">${d</tspan><tspan
   id="tspan4286"
   style="fill:#55d400">##</tspan>*/<tspan
   id="tspan4316"
   style="fill:#aa4400">}</tspan><tspan
   id="tspan4288"
   style="fill:#55d400">&quot; ]; then</tspan></tspan><tspan
           id="tspan4250"
           style="font-style:normal;font-variant:normal;font-weight:normal;font-stretch:semi-condensed;font-size:5px;font-family:'Lucida Console';-inkscape-font-specification:'Lucida Console Semi-Condensed'"
           y="934.38379"
           x="900.70392"
           sodipodi:role="line"><tspan
             id="tspan4304"
             style="fill:#333333">    prog</tspan><tspan
             id="tspan4290"
             style="fill:#55d400"> -L -O</tspan><tspan
             id="tspan4318"
             style="fill:#d45500"> -#</tspan><tspan
             id="tspan4292"
             style="fill:#55d400"> -w &quot;</tspan><tspan
             id="tspan4320"
             style="fill:#d45500">\n</tspan><tspan
             id="tspan4326"
             style="fill:#00aa88">%{file}</tspan><tspan
             style="fill:#00d400"
             id="tspan4336">&quot;</tspan></tspan><tspan
           id="tspan4252"
           style="font-style:normal;font-variant:normal;font-weight:normal;font-stretch:semi-condensed;font-size:5px;font-family:'Lucida Console';-inkscape-font-specification:'Lucida Console Semi-Condensed';fill:#55d400"
           y="940.63379"
           x="900.70392"
           sodipodi:role="line">  else</tspan><tspan
           id="tspan4254"
           style="font-style:normal;font-variant:normal;font-weight:normal;font-stretch:semi-condensed;font-size:5px;font-family:'Lucida Console';-inkscape-font-specification:'Lucida Console Semi-Condensed'"
           y="946.88379"
           x="900.70392"
           sodipodi:role="line"><tspan
             id="tspan4306"
             style="fill:#333333">    prog</tspan><tspan
             id="tspan4296"
             style="fill:#55d400"> -L -O</tspan><tspan
             id="tspan4324"
             style="fill:#d45500"> -#</tspan><tspan
             id="tspan4298"
             style="fill:#55d400"> -w &quot;</tspan><tspan
             id="tspan4322"
             style="fill:#d45500">\n</tspan><tspan
             id="tspan4328"
             style="fill:#00aa88">%{file}</tspan><tspan
             style="fill:#00d400"
             id="tspan4332">&quot;</tspan></tspan><tspan
           id="tspan4256"
           style="font-style:normal;font-variant:normal;font-weight:normal;font-stretch:semi-condensed;font-size:5px;font-family:'Lucida Console';-inkscape-font-specification:'Lucida Console Semi-Condensed';fill:#55d400"
           y="953.13379"
           x="900.70392"
           sodipodi:role="line">  fi</tspan><tspan
           id="tspan4258"
           style="font-style:normal;font-variant:normal;font-weight:normal;font-stretch:semi-condensed;font-size:5px;font-family:'Lucida Console';-inkscape-font-specification:'Lucida Console Semi-Condensed';fill:#55d400"
           y="959.38379"
           x="900.70392"
           sodipodi:role="line">done</tspan></text>
    </g>
  </g>
</svg>
