<svg width="63" height="61" viewBox="0 0 63 61" fill="none" xmlns="http://www.w3.org/2000/svg">
<g clip-path="url(#clip0_5_26)">
<g clip-path="url(#clip1_5_26)">
<mask id="mask0_5_26" style="mask-type:luminance" maskUnits="userSpaceOnUse" x="0" y="0" width="63" height="61">
<path d="M62.5 0.530029H0.5V60.53H62.5V0.530029Z" fill="white"/>
</mask>
<g mask="url(#mask0_5_26)">
<path fill-rule="evenodd" clip-rule="evenodd" d="M0.5 30.5186C0.5 13.9567 14.3813 0.530029 31.5 0.530029C39.7216 0.530029 47.6172 3.68792 53.4166 9.32215C59.2393 14.9564 62.5 22.5898 62.5 30.5414C62.5 47.1033 48.6187 60.53 31.5 60.53C14.3813 60.53 0.5 47.1033 0.5 30.5186Z" fill="#A051FE"/>
<path fill-rule="evenodd" clip-rule="evenodd" d="M39.4424 13.5024C38.93 13.5024 38.4409 13.9114 38.4409 14.4793V17.3873H33.4101C30.6618 17.3873 28.0533 18.6368 26.3763 20.7497C24.9323 19.8182 23.2321 19.3411 21.5086 19.3411H17.4793C15.8256 19.3411 14.498 20.6361 14.498 22.2491C14.498 23.8621 15.8256 25.1571 17.4793 25.1571H21.5086C23.1622 25.1571 24.4898 26.4521 24.4898 28.0651V32.0863C24.4898 33.6993 23.1622 34.9943 21.5086 34.9943H17.4793C15.8256 34.9943 14.498 36.2893 14.498 37.9023C14.498 39.5153 15.8256 40.8103 17.4793 40.8103H21.5086C23.2321 40.8103 24.9323 40.3105 26.3763 39.379C28.0533 41.5145 30.6618 42.7414 33.4101 42.7414H38.4409V45.6493C38.4409 46.2173 38.93 46.6262 39.4424 46.6262C39.6521 46.6262 39.8384 46.5581 40.0247 46.4218L47.9669 40.5831C48.5026 40.1969 48.5026 39.4017 47.9669 39.0382L40.0247 33.1995C39.8384 33.0632 39.6288 32.995 39.4192 32.995C38.9068 32.995 38.4177 33.404 38.4177 33.972V36.8799H33.3869C31.7332 36.8799 30.4056 35.585 30.4056 33.972V26.0659C30.4056 24.4528 31.7332 23.1579 33.3869 23.1579H38.4177V26.0659C38.4177 26.4294 38.6273 26.7701 38.9766 26.9292C39.1164 26.9973 39.2794 27.0428 39.4192 27.0428C39.6288 27.0428 39.8384 26.9746 40.0247 26.861L47.9669 21.0223C48.5026 20.6361 48.5026 19.8409 47.9669 19.4774L40.0247 13.6387C39.8384 13.5024 39.6288 13.4343 39.4192 13.4343L39.4424 13.5024ZM21.5086 21.2722C25.3515 21.2722 28.4492 24.3165 28.4492 28.0651V34.0174C28.4492 36.6982 30.6618 38.8565 33.4101 38.8792H39.4424C39.9781 38.8792 40.444 38.4475 40.444 37.9023V35.9485L45.731 39.8334L40.444 43.7183V41.7645C40.444 41.2192 40.0014 40.7875 39.4424 40.7875H33.4101C29.5672 40.7875 26.4695 37.7432 26.4695 33.9947V28.0424C26.4695 25.3616 24.2569 23.1806 21.5086 23.1806H17.4793C16.9203 23.1806 16.4778 22.7489 16.4778 22.2037C16.4778 21.6584 16.9203 21.2268 17.4793 21.2268H21.5086V21.2722ZM24.6761 35.8349C24.8159 36.4937 25.0488 37.1526 25.3282 37.766C24.187 38.493 22.8594 38.9019 21.5086 38.9019H17.4793C16.9203 38.9019 16.4778 38.4702 16.4778 37.925C16.4778 37.3797 16.9203 36.9481 17.4793 36.9481H21.5086C22.6731 36.9481 23.7911 36.5619 24.6761 35.8349ZM40.4207 16.4331L45.7077 20.318L40.4207 24.2029V22.2491C40.4207 21.7039 39.9781 21.2722 39.4192 21.2722H33.3869C31.6633 21.2722 30.0563 22.1582 29.1479 23.6122C28.7986 23.0216 28.356 22.4763 27.8902 21.9992C29.2178 20.3407 31.2441 19.3411 33.3869 19.3411H39.4192C39.9548 19.3411 40.4207 18.9095 40.4207 18.3642V16.4331Z" fill="white"/>
</g>
</g>
</g>
<defs>
<clipPath id="clip0_5_26">
<rect width="62" height="60" fill="white" transform="translate(0.5 0.530029)"/>
</clipPath>
<clipPath id="clip1_5_26">
<rect width="62" height="60" fill="white" transform="translate(0.5 0.530029)"/>
</clipPath>
</defs>
</svg>
