<svg width="350" height="46" viewBox="0 0 350 46" fill="none" xmlns="http://www.w3.org/2000/svg">
<g clip-path="url(#clip0_957_2383)">
<g clip-path="url(#clip1_957_2383)">
<path d="M7.16149 8.98358C2.44615 8.98358 0 11.7415 0 16.5631V32.4165C0 37.2419 2.44615 39.996 7.16149 39.996C11.8768 39.996 14.3269 37.238 14.3269 32.4165V22.5522H7.38173V26.8618H9.78462V32.7617C9.78462 34.9145 8.82504 35.6903 7.29521 35.6903C5.76537 35.6903 4.80579 34.9145 4.80579 32.7617V16.2644C4.80579 14.1116 5.76537 13.2931 7.29521 13.2931C8.82504 13.2931 9.78462 14.1116 9.78462 16.2644V19.1504H14.3269V16.567C14.3269 11.7415 11.8808 8.98746 7.16149 8.98746V8.98358Z" fill="white"/>
<path d="M37.2113 27.4629L32.3662 9.41406H26.4238V39.5692H30.7066V17.556L36.645 39.5692H41.494V9.41406H37.2113V27.4629Z" fill="white"/>
<path d="M53.9847 8.98358C49.2693 8.98358 46.6895 11.7415 46.6895 16.5631V32.4165C46.6895 37.2419 49.2654 39.9999 53.9847 39.9999C58.7039 39.9999 61.2799 37.2419 61.2799 32.4165V16.5631C61.2799 11.7377 58.7039 8.98358 53.9847 8.98358ZM56.4741 32.719C56.4741 34.8719 55.5145 35.6903 53.9847 35.6903C52.4548 35.6903 51.4952 34.8719 51.4952 32.719V16.2644C51.4952 14.1077 52.4548 13.2931 53.9847 13.2931C55.5145 13.2931 56.4741 14.1116 56.4741 16.2644V32.719Z" fill="white"/>
<path d="M73.1566 33.5539L69.9711 9.86111H65.1221L69.7509 40.0163H76.1258L80.7586 9.86111H76.3461L73.1566 33.5539Z" fill="white"/>
<path d="M87.4827 9.86108L82.5039 40.0162H86.9597L87.7895 34.1163H93.3346L94.1644 40.0162H98.9663L93.9875 9.86108H87.4827ZM88.3991 30.0201L90.5385 14.8145L92.7251 30.0201H88.403H88.3991Z" fill="white"/>
<path d="M20.0968 5C18.0046 5 16.3057 6.67184 16.3057 8.73933C16.3057 10.8068 18.0046 12.4787 20.0968 12.4787C22.189 12.4787 23.888 10.8029 23.888 8.73933C23.888 6.67572 22.193 5 20.0968 5Z" fill="white"/>
</g>
</g>
<path d="M133 5H138.725V36.1943H148.151V41.3874H133V5Z" fill="white"/>
<path d="M150.899 5H156.624V41.3874H150.899V5Z" fill="white"/>
<path d="M160.897 5H166.622V41.3874H160.897V5Z" fill="white"/>
<path d="M175.321 5H183.081L189.02 41.3874H183.295L182.26 34.1622V34.2692H175.75L174.714 41.3874H169.406L175.345 5H175.321ZM181.57 29.3256L179.023 11.3339H178.916L176.416 29.3256H181.57Z" fill="white"/>
<path d="M204.409 14.1623V22.5996C204.409 22.9324 204.445 23.1819 204.516 23.3602C204.588 23.5384 204.683 23.6573 204.814 23.7048C204.945 23.7642 205.088 23.788 205.23 23.788C205.326 23.788 205.433 23.788 205.552 23.7642C205.671 23.7405 205.802 23.7167 205.945 23.681L206.075 24.6079C205.909 24.6793 205.73 24.7387 205.528 24.7862C205.326 24.8337 205.123 24.8456 204.909 24.8456C204.552 24.8456 204.255 24.7862 204.005 24.6555C203.755 24.5366 203.552 24.3109 203.41 24.0019C203.267 23.6929 203.195 23.2413 203.195 22.6709V14.1385H204.397V14.1623H204.409Z" fill="white"/>
<path d="M206.491 22.8729C206.491 22.4214 206.586 22.0411 206.789 21.744C206.979 21.4469 207.277 21.2092 207.658 21.0429C208.038 20.8765 208.526 20.7339 209.098 20.6388C209.669 20.5438 210.335 20.4606 211.085 20.3893V19.3198C211.085 18.8801 210.942 18.5473 210.657 18.3097C210.371 18.072 209.943 17.965 209.371 17.965C209.181 17.965 208.967 17.965 208.717 17.9888C208.479 18.0126 208.229 18.0363 207.979 18.0839C207.729 18.1314 207.467 18.1908 207.181 18.274L206.967 17.3233C207.372 17.2045 207.8 17.1094 208.229 17.0381C208.657 16.9668 209.062 16.9431 209.431 16.9431C210.074 16.9431 210.597 17.0262 211.026 17.2045C211.454 17.3827 211.764 17.6442 211.978 18.0007C212.192 18.3572 212.299 18.785 212.299 19.3079V23.0037C212.299 23.3245 212.347 23.5503 212.43 23.6573C212.525 23.7761 212.644 23.8236 212.799 23.8236C212.859 23.8236 212.918 23.8236 212.989 23.7999C213.061 23.788 213.12 23.7642 213.192 23.7404L213.335 24.6198C213.192 24.6911 213.037 24.7505 212.882 24.7981C212.728 24.8456 212.561 24.8575 212.394 24.8575C212.049 24.8575 211.775 24.7624 211.585 24.5842C211.395 24.4059 211.252 24.1326 211.204 23.7761C210.978 23.9662 210.728 24.1445 210.443 24.3108C210.169 24.4772 209.859 24.6079 209.526 24.7149C209.193 24.81 208.836 24.8694 208.443 24.8694C208.146 24.8694 207.884 24.8218 207.646 24.7387C207.408 24.6555 207.205 24.5248 207.039 24.3584C206.872 24.192 206.741 23.9781 206.646 23.7404C206.551 23.5028 206.515 23.2176 206.515 22.8967L206.491 22.8729ZM207.705 22.7779C207.705 23.1819 207.8 23.4909 208.003 23.6929C208.205 23.8949 208.479 24.0019 208.836 24.0019C209.098 24.0019 209.371 23.9662 209.633 23.883C209.895 23.7999 210.157 23.6929 210.407 23.5384C210.657 23.3958 210.883 23.2176 211.073 23.0155V21.0904C210.573 21.1379 210.121 21.1974 209.705 21.2568C209.288 21.3281 208.931 21.4113 208.622 21.5301C208.312 21.6489 208.098 21.8034 207.931 22.0054C207.765 22.2075 207.693 22.457 207.693 22.766H207.705V22.7779Z" fill="white"/>
<path d="M214.239 24.5129V14.1623H215.441V17.7393C215.87 17.4541 216.286 17.252 216.679 17.1213C217.072 16.9906 217.488 16.9312 217.893 16.9312C218.726 16.9312 219.357 17.252 219.797 17.9056C220.238 18.5592 220.464 19.4743 220.464 20.6864C220.464 21.6846 220.345 22.4927 220.095 23.0987C219.845 23.7048 219.464 24.1564 218.928 24.4416C218.405 24.7268 217.726 24.8694 216.917 24.8694C216.524 24.8694 216.108 24.8456 215.679 24.7862C215.239 24.7268 214.763 24.6436 214.239 24.5248V24.5129ZM215.441 23.788C215.751 23.8474 216.013 23.8949 216.251 23.9187C216.489 23.9544 216.715 23.9662 216.917 23.9662C217.453 23.9662 217.881 23.8593 218.226 23.6573C218.559 23.4434 218.821 23.1106 218.988 22.6472C219.155 22.1837 219.238 21.5539 219.238 20.7696C219.238 20.1397 219.166 19.6169 219.036 19.2128C218.905 18.7969 218.702 18.4879 218.44 18.274C218.179 18.0601 217.857 17.9532 217.488 17.9532C217.262 17.9532 217.036 17.9769 216.834 18.0245C216.631 18.072 216.405 18.1433 216.179 18.2503C215.953 18.3572 215.715 18.4879 215.441 18.6662V23.7999V23.788Z" fill="white"/>
<path d="M221.547 20.8765C221.547 20.1873 221.607 19.605 221.726 19.1059C221.845 18.6067 222.035 18.2027 222.285 17.8818C222.547 17.561 222.88 17.3233 223.308 17.157C223.737 16.9906 224.261 16.9193 224.891 16.9193C225.522 16.9193 226.046 17.0025 226.474 17.157C226.903 17.3233 227.248 17.561 227.51 17.8818C227.772 18.2027 227.962 18.6067 228.081 19.1059C228.2 19.605 228.26 20.1873 228.26 20.8765C228.26 21.5657 228.2 22.1718 228.069 22.6709C227.938 23.17 227.748 23.5859 227.474 23.9068C227.212 24.2277 226.867 24.4653 226.439 24.6317C226.01 24.7862 225.498 24.8694 224.891 24.8694C224.284 24.8694 223.785 24.7862 223.356 24.6317C222.928 24.4772 222.582 24.2395 222.321 23.9068C222.059 23.5859 221.857 23.17 221.726 22.6709C221.595 22.1718 221.535 21.5776 221.535 20.8765H221.547ZM222.773 20.8765C222.773 21.6252 222.844 22.2312 222.999 22.6709C223.154 23.1106 223.38 23.4433 223.689 23.6335C223.999 23.8236 224.403 23.9306 224.903 23.9306C225.403 23.9306 225.82 23.8355 226.129 23.6335C226.439 23.4315 226.677 23.1225 226.819 22.6709C226.962 22.2193 227.046 21.6252 227.046 20.8765C227.046 20.1278 226.974 19.5455 226.843 19.1059C226.7 18.6662 226.486 18.3453 226.177 18.1552C225.867 17.965 225.451 17.8581 224.915 17.8581C224.38 17.8581 223.975 17.9531 223.654 18.1552C223.332 18.3572 223.118 18.6662 222.987 19.1059C222.856 19.5455 222.785 20.1397 222.785 20.8765H222.773Z" fill="white"/>
<path d="M230.783 17.0619V18.0126C231.068 17.7511 231.342 17.5372 231.592 17.3827C231.842 17.2283 232.092 17.1094 232.354 17.0381C232.604 16.9668 232.877 16.9193 233.163 16.9193C233.353 16.9193 233.544 16.9312 233.734 16.9668C233.925 17.0025 234.103 17.0262 234.258 17.0619L234.056 18.1552C233.889 18.1195 233.71 18.0839 233.52 18.0601C233.33 18.0363 233.163 18.0126 232.996 18.0126C232.663 18.0126 232.318 18.0839 231.973 18.2265C231.628 18.3691 231.259 18.6067 230.878 18.9514V24.703H229.676V17.0619H230.783Z" fill="white"/>
<path d="M234.722 22.8729C234.722 22.4214 234.817 22.0411 235.019 21.744C235.21 21.4469 235.507 21.2092 235.888 21.0429C236.269 20.8765 236.757 20.7339 237.328 20.6388C237.899 20.5438 238.566 20.4606 239.316 20.3893V19.3198C239.316 18.8801 239.173 18.5473 238.887 18.3097C238.602 18.072 238.173 17.965 237.602 17.965C237.411 17.965 237.197 17.965 236.947 17.9888C236.709 18.0126 236.459 18.0363 236.209 18.0839C235.959 18.1314 235.698 18.1908 235.412 18.274L235.198 17.3233C235.602 17.2045 236.031 17.1094 236.459 17.0381C236.888 16.9668 237.292 16.9431 237.661 16.9431C238.304 16.9431 238.828 17.0262 239.256 17.2045C239.685 17.3827 239.994 17.6442 240.208 18.0007C240.422 18.3572 240.53 18.785 240.53 19.3079V23.0037C240.53 23.3245 240.577 23.5503 240.661 23.6573C240.756 23.7761 240.875 23.8236 241.029 23.8236C241.089 23.8236 241.148 23.8236 241.22 23.7999C241.291 23.788 241.351 23.7642 241.422 23.7404L241.565 24.6198C241.422 24.6911 241.267 24.7505 241.113 24.7981C240.958 24.8456 240.791 24.8575 240.625 24.8575C240.28 24.8575 240.006 24.7624 239.816 24.5842C239.625 24.4059 239.482 24.1326 239.435 23.7761C239.209 23.9662 238.959 24.1445 238.673 24.3108C238.399 24.4772 238.09 24.6079 237.757 24.7149C237.423 24.81 237.066 24.8694 236.674 24.8694C236.376 24.8694 236.114 24.8218 235.876 24.7387C235.638 24.6555 235.436 24.5248 235.269 24.3584C235.103 24.192 234.972 23.9781 234.876 23.7404C234.781 23.5028 234.745 23.2176 234.745 22.8967L234.722 22.8729ZM235.936 22.7779C235.936 23.1819 236.031 23.4909 236.233 23.6929C236.435 23.8949 236.709 24.0019 237.066 24.0019C237.328 24.0019 237.602 23.9662 237.864 23.883C238.126 23.7999 238.387 23.6929 238.637 23.5384C238.887 23.3958 239.113 23.2176 239.304 23.0155V21.0904C238.804 21.1379 238.352 21.1974 237.935 21.2568C237.519 21.3281 237.161 21.4113 236.852 21.5301C236.543 21.6489 236.328 21.8034 236.162 22.0054C235.995 22.2075 235.924 22.457 235.924 22.766H235.936V22.7779Z" fill="white"/>
<path d="M245.088 24.8575C244.636 24.8575 244.243 24.7743 243.934 24.596C243.624 24.4178 243.386 24.1564 243.243 23.788C243.1 23.4315 243.017 22.9799 243.017 22.457V17.965H241.708V17.1807L243.017 17.0619L243.172 15.2556H244.219V17.0619H246.778V17.9413H244.219V22.3619C244.219 22.8729 244.314 23.2532 244.517 23.479C244.707 23.7167 245.029 23.8236 245.481 23.8236C245.707 23.8236 245.933 23.7999 246.159 23.7523C246.385 23.7048 246.611 23.6454 246.849 23.5622L247.016 24.4891C246.671 24.6079 246.338 24.703 246.004 24.7505C245.671 24.7981 245.362 24.8337 245.088 24.8337V24.8575Z" fill="white"/>
<path d="M247.659 20.8765C247.659 20.1873 247.719 19.605 247.838 19.1059C247.957 18.6068 248.147 18.2027 248.397 17.8819C248.659 17.561 248.992 17.3233 249.421 17.157C249.849 16.9906 250.373 16.9193 251.004 16.9193C251.634 16.9193 252.158 17.0025 252.587 17.157C253.015 17.3233 253.36 17.561 253.622 17.8819C253.884 18.2027 254.074 18.6068 254.193 19.1059C254.312 19.605 254.372 20.1873 254.372 20.8765C254.372 21.5658 254.312 22.1718 254.181 22.6709C254.05 23.17 253.86 23.586 253.586 23.9068C253.324 24.2277 252.979 24.4653 252.551 24.6317C252.122 24.7862 251.611 24.8694 251.004 24.8694C250.397 24.8694 249.897 24.7862 249.468 24.6317C249.04 24.4772 248.695 24.2396 248.433 23.9068C248.171 23.586 247.969 23.17 247.838 22.6709C247.707 22.1718 247.647 21.5776 247.647 20.8765H247.659ZM248.885 20.8765C248.885 21.6252 248.957 22.2312 249.111 22.6709C249.266 23.1106 249.492 23.4434 249.802 23.6335C250.111 23.8236 250.516 23.9306 251.016 23.9306C251.515 23.9306 251.932 23.8355 252.241 23.6335C252.551 23.4315 252.789 23.1225 252.932 22.6709C253.075 22.2194 253.158 21.6252 253.158 20.8765C253.158 20.1278 253.086 19.5456 252.956 19.1059C252.813 18.6662 252.598 18.3453 252.289 18.1552C251.98 17.965 251.563 17.8581 251.027 17.8581C250.492 17.8581 250.087 17.9532 249.766 18.1552C249.445 18.3572 249.23 18.6662 249.099 19.1059C248.969 19.5456 248.897 20.1397 248.897 20.8765H248.885ZM250.48 16.23L252.146 13.4612H253.36L251.444 16.23H250.468H250.48Z" fill="white"/>
<path d="M256.907 17.0619V18.0126C257.192 17.7511 257.466 17.5372 257.716 17.3827C257.966 17.2283 258.216 17.1094 258.478 17.0381C258.728 16.9668 259.001 16.9193 259.287 16.9193C259.477 16.9193 259.668 16.9312 259.858 16.9668C260.049 17.0025 260.227 17.0262 260.382 17.0619L260.18 18.1552C260.013 18.1195 259.834 18.0839 259.644 18.0601C259.454 18.0363 259.287 18.0126 259.12 18.0126C258.787 18.0126 258.442 18.0839 258.097 18.2265C257.752 18.3691 257.383 18.6067 257.002 18.9514V24.703H255.8V17.0619H256.907Z" fill="white"/>
<path d="M261.905 15.5289C261.643 15.5289 261.464 15.4814 261.345 15.3863C261.226 15.2912 261.179 15.1249 261.179 14.8872C261.179 14.6495 261.238 14.4713 261.345 14.3762C261.452 14.2811 261.643 14.2336 261.905 14.2336C262.167 14.2336 262.369 14.2811 262.476 14.3762C262.583 14.4713 262.631 14.6377 262.631 14.8872C262.631 15.1368 262.583 15.2912 262.476 15.3863C262.369 15.4814 262.178 15.5289 261.905 15.5289ZM261.298 24.7149V17.0738H262.5V24.7149H261.298Z" fill="white"/>
<path d="M263.928 20.8765C263.928 20.1873 263.987 19.605 264.106 19.1059C264.225 18.6067 264.416 18.2027 264.666 17.8818C264.928 17.561 265.261 17.3233 265.689 17.157C266.118 16.9906 266.641 16.9193 267.272 16.9193C267.903 16.9193 268.427 17.0025 268.855 17.157C269.284 17.3233 269.629 17.561 269.891 17.8818C270.152 18.2027 270.343 18.6067 270.462 19.1059C270.581 19.605 270.64 20.1873 270.64 20.8765C270.64 21.5657 270.581 22.1718 270.45 22.6709C270.319 23.17 270.129 23.5859 269.855 23.9068C269.593 24.2277 269.248 24.4653 268.819 24.6317C268.391 24.7862 267.879 24.8694 267.272 24.8694C266.665 24.8694 266.165 24.7862 265.737 24.6317C265.308 24.4772 264.963 24.2395 264.702 23.9068C264.44 23.5859 264.237 23.17 264.106 22.6709C263.976 22.1718 263.916 21.5776 263.916 20.8765H263.928ZM265.154 20.8765C265.154 21.6252 265.225 22.2312 265.38 22.6709C265.535 23.1106 265.761 23.4433 266.07 23.6335C266.38 23.8236 266.784 23.9306 267.284 23.9306C267.784 23.9306 268.201 23.8355 268.51 23.6335C268.819 23.4315 269.057 23.1225 269.2 22.6709C269.343 22.2193 269.426 21.6252 269.426 20.8765C269.426 20.1278 269.355 19.5455 269.224 19.1059C269.081 18.6662 268.867 18.3453 268.558 18.1552C268.248 17.965 267.832 17.8581 267.296 17.8581C266.76 17.8581 266.356 17.9531 266.034 18.1552C265.713 18.3572 265.499 18.6662 265.368 19.1059C265.237 19.5455 265.166 20.1397 265.166 20.8765H265.154Z" fill="white"/>
<path d="M280.757 24.7268L280.615 24.0375C280.174 24.3109 279.758 24.5129 279.377 24.6555C278.984 24.7862 278.579 24.8575 278.151 24.8575C277.33 24.8575 276.699 24.5366 276.247 23.883C275.794 23.2295 275.568 22.2907 275.568 21.0666C275.568 20.1041 275.687 19.3198 275.937 18.7256C276.187 18.1314 276.568 17.668 277.08 17.3828C277.592 17.0857 278.234 16.9431 279.008 16.9431C279.27 16.9431 279.532 16.9431 279.793 16.9787C280.055 17.0025 280.329 17.05 280.603 17.1094V14.1742H281.805V24.7387H280.757V24.7268ZM280.591 23.1463V18.0126C280.293 17.9413 280.02 17.8937 279.781 17.87C279.532 17.8462 279.305 17.8224 279.091 17.8224C278.579 17.8224 278.151 17.9294 277.794 18.1314C277.449 18.3334 277.199 18.6662 277.032 19.1296C276.878 19.5931 276.794 20.211 276.794 20.9716C276.794 21.6014 276.866 22.1243 276.997 22.5521C277.127 22.9799 277.33 23.3008 277.592 23.5147C277.853 23.7286 278.175 23.8355 278.544 23.8355C278.758 23.8355 278.972 23.8117 279.186 23.7642C279.401 23.7167 279.615 23.6454 279.841 23.5384C280.067 23.4315 280.305 23.3008 280.579 23.1344L280.591 23.1463Z" fill="white"/>
<path d="M286.518 24.8575C285.994 24.8575 285.53 24.7862 285.113 24.6436C284.697 24.501 284.364 24.2752 284.078 23.9781C283.792 23.6692 283.578 23.2889 283.423 22.8135C283.269 22.3382 283.197 21.7678 283.197 21.1023C283.197 20.3299 283.292 19.6763 283.471 19.1415C283.661 18.6068 283.911 18.179 284.221 17.8462C284.53 17.5254 284.911 17.2877 285.34 17.1451C285.768 17.0025 286.232 16.9312 286.72 16.9312C287.696 16.9312 288.434 17.1926 288.91 17.7036C289.386 18.2265 289.624 19.0583 289.624 20.2229V20.7696C289.422 20.7933 289.148 20.8052 288.815 20.829C288.47 20.8528 288.077 20.8765 287.625 20.9122C287.172 20.9478 286.684 20.9716 286.149 20.9835C285.613 20.9954 285.054 21.0072 284.459 21.0191C284.459 21.0667 284.459 21.1142 284.459 21.1736V21.3281C284.459 21.946 284.542 22.4451 284.721 22.8135C284.899 23.1938 285.149 23.4671 285.482 23.6335C285.816 23.7999 286.232 23.8949 286.72 23.8949C287.03 23.8949 287.327 23.8712 287.637 23.8355C287.946 23.7999 288.255 23.7523 288.553 23.7048C288.85 23.6573 289.124 23.5978 289.362 23.5384L289.517 24.4416C289.255 24.5248 288.969 24.5961 288.648 24.6674C288.327 24.7268 287.994 24.7743 287.637 24.8219C287.279 24.8575 286.911 24.8813 286.518 24.8813V24.8575ZM284.483 20.1992C284.935 20.1992 285.375 20.1992 285.804 20.1754C286.232 20.1516 286.613 20.1397 286.97 20.1279C287.327 20.116 287.625 20.0922 287.875 20.0803C288.124 20.0684 288.315 20.0447 288.422 20.0209C288.422 19.498 288.351 19.0702 288.22 18.7494C288.101 18.4166 287.898 18.179 287.637 18.0364C287.375 17.8938 287.053 17.8106 286.661 17.8106C286.411 17.8106 286.173 17.8462 285.935 17.9175C285.697 17.9888 285.482 18.1077 285.28 18.2859C285.078 18.4642 284.911 18.7018 284.756 19.0108C284.602 19.3198 284.518 19.7119 284.483 20.1992Z" fill="white"/>
<path d="M295.444 15.5289C295.182 15.5289 295.003 15.4814 294.884 15.3863C294.765 15.2912 294.718 15.1249 294.718 14.8872C294.718 14.6495 294.777 14.4713 294.884 14.3762C294.992 14.2811 295.182 14.2336 295.444 14.2336C295.706 14.2336 295.908 14.2811 296.015 14.3762C296.122 14.4713 296.17 14.6377 296.17 14.8872C296.17 15.1368 296.122 15.2912 296.015 15.3863C295.908 15.4814 295.717 15.5289 295.444 15.5289ZM294.849 24.7149V17.0738H296.051V24.7149H294.849Z" fill="white"/>
<path d="M297.836 24.7149V17.0738H298.931V17.7392C299.252 17.561 299.562 17.4065 299.847 17.2877C300.133 17.1688 300.43 17.0738 300.728 17.0143C301.026 16.9549 301.335 16.9193 301.668 16.9193C302.132 16.9193 302.525 17.0025 302.835 17.157C303.144 17.3233 303.394 17.5491 303.561 17.8581C303.727 18.1671 303.81 18.5473 303.81 18.987V24.6911H302.597V19.3316C302.597 18.8801 302.478 18.5236 302.251 18.2859C302.025 18.0482 301.668 17.9175 301.192 17.9175C300.93 17.9175 300.692 17.9413 300.454 18.0007C300.216 18.0601 299.978 18.1314 299.752 18.2265C299.514 18.3215 299.288 18.4404 299.05 18.5592V24.6911H297.836V24.7149Z" fill="white"/>
<path d="M305.238 20.8765C305.238 20.1873 305.298 19.605 305.417 19.1059C305.536 18.6067 305.726 18.2027 305.976 17.8818C306.238 17.561 306.571 17.3233 307 17.157C307.428 16.9906 307.952 16.9193 308.583 16.9193C309.214 16.9193 309.737 17.0025 310.166 17.157C310.594 17.3233 310.939 17.561 311.201 17.8818C311.463 18.2027 311.653 18.6067 311.772 19.1059C311.891 19.605 311.951 20.1873 311.951 20.8765C311.951 21.5657 311.891 22.1718 311.76 22.6709C311.63 23.17 311.439 23.5859 311.165 23.9068C310.904 24.2277 310.558 24.4653 310.13 24.6317C309.702 24.7862 309.19 24.8694 308.583 24.8694C307.976 24.8694 307.476 24.7862 307.047 24.6317C306.619 24.4772 306.274 24.2395 306.012 23.9068C305.75 23.5859 305.548 23.17 305.417 22.6709C305.286 22.1718 305.227 21.5776 305.227 20.8765H305.238ZM306.464 20.8765C306.464 21.6252 306.536 22.2312 306.69 22.6709C306.845 23.1106 307.071 23.4433 307.381 23.6335C307.69 23.8236 308.095 23.9306 308.595 23.9306C309.095 23.9306 309.511 23.8355 309.821 23.6335C310.13 23.4315 310.368 23.1225 310.511 22.6709C310.654 22.2193 310.737 21.6252 310.737 20.8765C310.737 20.1278 310.666 19.5455 310.535 19.1059C310.392 18.6662 310.178 18.3453 309.868 18.1552C309.559 17.965 309.142 17.8581 308.607 17.8581C308.071 17.8581 307.666 17.9531 307.345 18.1552C307.024 18.3572 306.809 18.6662 306.679 19.1059C306.548 19.5455 306.476 20.1397 306.476 20.8765H306.464Z" fill="white"/>
<path d="M315.45 24.7149L312.653 17.1094L313.891 17.0144L316.164 23.5266L318.33 17.0144L319.556 17.1094L316.759 24.7149H315.45Z" fill="white"/>
<path d="M320.139 22.8729C320.139 22.4214 320.234 22.0411 320.436 21.744C320.627 21.4469 320.924 21.2092 321.305 21.0429C321.686 20.8765 322.174 20.7339 322.745 20.6388C323.316 20.5438 323.983 20.4606 324.733 20.3893V19.3198C324.733 18.8801 324.59 18.5473 324.304 18.3097C324.019 18.072 323.59 17.965 323.019 17.965C322.828 17.965 322.614 17.965 322.364 17.9888C322.126 18.0126 321.876 18.0363 321.626 18.0839C321.376 18.1314 321.115 18.1908 320.829 18.274L320.615 17.3233C321.019 17.2045 321.448 17.1094 321.876 17.0381C322.305 16.9668 322.709 16.9431 323.078 16.9431C323.721 16.9431 324.245 17.0262 324.673 17.2045C325.102 17.3827 325.411 17.6442 325.625 18.0007C325.839 18.3572 325.947 18.785 325.947 19.3079V23.0037C325.947 23.3245 325.994 23.5503 326.078 23.6573C326.173 23.7761 326.292 23.8236 326.446 23.8236C326.506 23.8236 326.565 23.8236 326.637 23.7999C326.708 23.788 326.768 23.7642 326.839 23.7404L326.982 24.6198C326.839 24.6911 326.684 24.7505 326.53 24.7981C326.375 24.8456 326.208 24.8575 326.042 24.8575C325.697 24.8575 325.423 24.7624 325.233 24.5842C325.042 24.4059 324.899 24.1326 324.852 23.7761C324.626 23.9662 324.376 24.1445 324.09 24.3108C323.816 24.4772 323.507 24.6079 323.174 24.7149C322.84 24.81 322.483 24.8694 322.091 24.8694C321.793 24.8694 321.531 24.8218 321.293 24.7387C321.055 24.6555 320.853 24.5248 320.686 24.3584C320.52 24.192 320.389 23.9781 320.293 23.7404C320.198 23.5028 320.162 23.2176 320.162 22.8967L320.139 22.8729ZM321.353 22.7779C321.353 23.1819 321.448 23.4909 321.65 23.6929C321.852 23.8949 322.126 24.0019 322.483 24.0019C322.745 24.0019 323.019 23.9662 323.281 23.883C323.542 23.7999 323.804 23.6929 324.054 23.5384C324.304 23.3958 324.53 23.2176 324.721 23.0155V21.0904C324.221 21.1379 323.769 21.1974 323.352 21.2568C322.936 21.3281 322.578 21.4113 322.269 21.5301C321.96 21.6489 321.745 21.8034 321.579 22.0054C321.412 22.2075 321.341 22.457 321.341 22.766H321.353V22.7779Z" fill="white"/>
<path d="M327.542 21.0072C327.542 20.0803 327.685 19.3198 327.959 18.7137C328.232 18.1077 328.649 17.6561 329.184 17.3709C329.72 17.0738 330.375 16.9312 331.136 16.9312C331.398 16.9312 331.66 16.9312 331.922 16.9668C332.184 17.0025 332.445 17.0263 332.707 17.0619C332.969 17.0976 333.195 17.157 333.409 17.2164L333.243 18.2265C333.029 18.1671 332.802 18.1195 332.576 18.0958C332.35 18.0601 332.124 18.0364 331.898 18.0126C331.672 17.9888 331.446 17.9888 331.243 17.9888C330.72 17.9888 330.279 18.0958 329.91 18.3097C329.541 18.5236 329.268 18.8563 329.077 19.296C328.887 19.7476 328.792 20.318 328.792 21.0072C328.792 21.6489 328.887 22.1718 329.077 22.5877C329.268 23.0037 329.541 23.3126 329.91 23.5147C330.279 23.7167 330.72 23.8236 331.243 23.8236C331.469 23.8236 331.708 23.8236 331.946 23.7999C332.184 23.7761 332.422 23.7523 332.672 23.7048C332.921 23.6573 333.148 23.6216 333.362 23.5741L333.564 24.5485C333.207 24.6436 332.802 24.7268 332.338 24.7862C331.874 24.8456 331.434 24.8813 331.017 24.8813C329.875 24.8813 329.006 24.5723 328.423 23.9425C327.84 23.3126 327.542 22.3501 327.542 21.031V21.0072ZM329.625 26.8302C329.803 26.9015 329.97 26.9609 330.125 26.9965C330.279 27.0322 330.422 27.0441 330.553 27.0441C330.815 27.0441 331.029 26.9728 331.172 26.8302C331.315 26.6876 331.386 26.4856 331.386 26.2122C331.386 26.0459 331.35 25.8795 331.267 25.7131C331.184 25.5468 331.077 25.3685 330.958 25.1902C330.827 25.012 330.684 24.8337 330.505 24.6555H331.434C331.6 24.8219 331.755 25.0001 331.886 25.2021C332.017 25.4041 332.112 25.6062 332.184 25.8201C332.255 26.034 332.291 26.236 332.291 26.438C332.291 26.6995 332.243 26.9371 332.148 27.151C332.053 27.3649 331.898 27.5432 331.672 27.662C331.458 27.7809 331.172 27.8522 330.815 27.8522C330.636 27.8522 330.434 27.8284 330.22 27.7927C330.006 27.7571 329.779 27.6858 329.553 27.5907L329.625 26.8302Z" fill="white"/>
<path d="M334.313 22.873C334.313 22.4214 334.409 22.0411 334.611 21.744C334.801 21.4469 335.099 21.2093 335.48 21.0429C335.861 20.8765 336.349 20.7339 336.92 20.6389C337.491 20.5438 338.158 20.4606 338.907 20.3893V19.3198C338.907 18.8801 338.765 18.5473 338.479 18.3097C338.193 18.072 337.765 17.9651 337.194 17.9651C337.003 17.9651 336.789 17.9651 336.539 17.9888C336.301 18.0126 336.051 18.0364 335.801 18.0839C335.551 18.1314 335.289 18.1908 335.004 18.274L334.79 17.3233C335.194 17.2045 335.623 17.1094 336.051 17.0381C336.48 16.9668 336.884 16.9431 337.253 16.9431C337.896 16.9431 338.42 17.0263 338.848 17.2045C339.276 17.3828 339.586 17.6442 339.8 18.0007C340.014 18.3572 340.121 18.785 340.121 19.3079V23.0037C340.121 23.3245 340.169 23.5503 340.252 23.6573C340.348 23.7761 340.467 23.8236 340.621 23.8236C340.681 23.8236 340.74 23.8236 340.812 23.7999C340.883 23.788 340.943 23.7642 341.014 23.7405L341.157 24.6198C341.014 24.6911 340.859 24.7506 340.705 24.7981C340.55 24.8456 340.383 24.8575 340.217 24.8575C339.871 24.8575 339.598 24.7624 339.407 24.5842C339.217 24.4059 339.074 24.1326 339.026 23.7761C338.8 23.9662 338.55 24.1445 338.265 24.3109C337.991 24.4772 337.682 24.608 337.348 24.7149C337.015 24.81 336.658 24.8694 336.265 24.8694C335.968 24.8694 335.706 24.8219 335.468 24.7387C335.23 24.6555 335.028 24.5248 334.861 24.3584C334.694 24.192 334.563 23.9781 334.468 23.7405C334.373 23.5028 334.337 23.2176 334.337 22.8967L334.313 22.873ZM335.218 16.0993C335.218 16.0043 335.194 15.9092 335.182 15.8023C335.182 15.7072 335.158 15.6002 335.158 15.5052C335.158 15.0655 335.254 14.7327 335.456 14.4951C335.646 14.2574 335.932 14.1504 336.289 14.1504C336.515 14.1504 336.729 14.198 336.92 14.3049C337.11 14.4119 337.301 14.5307 337.479 14.6733C337.658 14.8159 337.824 14.9348 338.003 15.0417C338.17 15.1487 338.348 15.1962 338.527 15.1962C338.646 15.1962 338.753 15.1605 338.824 15.1011C338.896 15.0298 338.943 14.9466 338.979 14.8397C339.015 14.7327 339.026 14.6139 339.026 14.4951V14.293C339.026 14.2217 339.026 14.1623 338.991 14.1029H339.693C339.717 14.198 339.729 14.293 339.729 14.4V14.6971C339.729 15.1249 339.633 15.4576 339.455 15.7072C339.276 15.9567 338.991 16.0756 338.61 16.0756C338.384 16.0756 338.17 16.0162 337.955 15.9092C337.753 15.8023 337.563 15.6715 337.372 15.5408C337.194 15.3982 337.015 15.2794 336.849 15.1724C336.682 15.0655 336.515 15.0061 336.349 15.0061C336.194 15.0061 336.075 15.0655 335.992 15.1962C335.908 15.3269 335.861 15.4814 335.861 15.6953C335.861 15.7666 335.861 15.826 335.861 15.8973C335.861 15.9686 335.884 16.028 335.884 16.0875H335.182H335.206L335.218 16.0993ZM335.527 22.7779C335.527 23.1819 335.623 23.4909 335.825 23.6929C336.027 23.8949 336.301 24.0019 336.658 24.0019C336.92 24.0019 337.194 23.9662 337.455 23.8831C337.717 23.7999 337.979 23.6929 338.229 23.5384C338.479 23.3958 338.705 23.2176 338.896 23.0156V21.0904C338.396 21.138 337.943 21.1974 337.527 21.2568C337.11 21.3281 336.753 21.4113 336.444 21.5301C336.134 21.649 335.92 21.8034 335.754 22.0055C335.587 22.2075 335.516 22.457 335.516 22.766H335.527V22.7779Z" fill="white"/>
<path d="M341.704 20.8765C341.704 20.1873 341.764 19.605 341.883 19.1059C342.002 18.6067 342.192 18.2027 342.442 17.8818C342.704 17.561 343.037 17.3233 343.466 17.157C343.894 16.9906 344.418 16.9193 345.049 16.9193C345.679 16.9193 346.203 17.0025 346.631 17.157C347.06 17.3233 347.405 17.561 347.667 17.8818C347.929 18.2027 348.119 18.6067 348.238 19.1059C348.357 19.605 348.417 20.1873 348.417 20.8765C348.417 21.5657 348.357 22.1718 348.226 22.6709C348.095 23.17 347.905 23.5859 347.631 23.9068C347.369 24.2277 347.024 24.4653 346.596 24.6317C346.167 24.7862 345.656 24.8694 345.049 24.8694C344.442 24.8694 343.942 24.7862 343.513 24.6317C343.085 24.4772 342.74 24.2395 342.478 23.9068C342.216 23.5859 342.014 23.17 341.883 22.6709C341.752 22.1718 341.692 21.5776 341.692 20.8765H341.704ZM342.93 20.8765C342.93 21.6252 343.002 22.2312 343.156 22.6709C343.311 23.1106 343.537 23.4433 343.847 23.6335C344.156 23.8236 344.561 23.9306 345.06 23.9306C345.56 23.9306 345.977 23.8355 346.286 23.6335C346.596 23.4315 346.834 23.1225 346.977 22.6709C347.119 22.2193 347.203 21.6252 347.203 20.8765C347.203 20.1278 347.131 19.5455 347 19.1059C346.858 18.6662 346.643 18.3453 346.334 18.1552C346.025 17.965 345.608 17.8581 345.072 17.8581C344.537 17.8581 344.132 17.9531 343.811 18.1552C343.49 18.3572 343.275 18.6662 343.144 19.1059C343.013 19.5455 342.942 20.1397 342.942 20.8765H342.93Z" fill="white"/>
<path d="M206.158 41.9698C205.635 41.9698 205.171 41.8985 204.754 41.7559C204.337 41.6133 204.004 41.3875 203.719 41.0904C203.433 40.7815 203.219 40.4012 203.064 39.9258C202.909 39.4505 202.838 38.8801 202.838 38.2146C202.838 37.4422 202.933 36.7886 203.112 36.2538C203.302 35.7191 203.552 35.2913 203.861 34.9585C204.171 34.6377 204.552 34.4 204.98 34.2574C205.409 34.1148 205.873 34.0435 206.361 34.0435C207.337 34.0435 208.075 34.3049 208.551 34.8159C209.027 35.3388 209.265 36.1706 209.265 37.3352V37.8819C209.062 37.9056 208.789 37.9175 208.455 37.9413C208.11 37.9651 207.718 37.9888 207.265 38.0245C206.813 38.0601 206.325 38.0839 205.789 38.0958C205.254 38.0958 204.695 38.1195 204.099 38.1314C204.099 38.179 204.088 38.2265 204.088 38.2859V38.4404C204.088 39.0583 204.171 39.5574 204.349 39.9258C204.528 40.3061 204.778 40.5794 205.111 40.7458C205.444 40.9122 205.861 41.0072 206.349 41.0072C206.658 41.0072 206.956 40.9835 207.265 40.9478C207.575 40.9122 207.884 40.8646 208.182 40.8171C208.479 40.7696 208.753 40.7102 208.991 40.6507L209.146 41.5539C208.884 41.6371 208.598 41.7084 208.277 41.7797C207.956 41.8391 207.622 41.8866 207.265 41.9342C206.908 41.9698 206.539 41.9936 206.147 41.9936V41.9698H206.158ZM204.123 37.3115C204.576 37.3115 205.016 37.3115 205.444 37.2877C205.873 37.2639 206.254 37.252 206.611 37.2402C206.968 37.2402 207.265 37.2045 207.515 37.1926C207.765 37.1807 207.956 37.157 208.063 37.1332C208.063 36.6103 207.991 36.1825 207.86 35.8617C207.741 35.5289 207.539 35.2913 207.277 35.1487C207.015 35.0061 206.694 34.9229 206.301 34.9229C206.051 34.9229 205.813 34.9585 205.575 35.0298C205.337 35.1011 205.123 35.22 204.921 35.3982C204.718 35.5765 204.552 35.8141 204.397 36.1231C204.242 36.4321 204.159 36.8242 204.123 37.3115Z" fill="white"/>
<path d="M210.645 41.8272V34.1861H211.74V34.8516C212.002 34.6852 212.276 34.5545 212.538 34.4356C212.799 34.3168 213.073 34.2217 213.359 34.1623C213.644 34.091 213.93 34.0673 214.24 34.0673C214.525 34.0673 214.775 34.1029 214.989 34.1742C215.204 34.2455 215.382 34.3406 215.537 34.4713C215.691 34.602 215.811 34.7565 215.906 34.9348C216.156 34.7684 216.417 34.6258 216.679 34.4951C216.953 34.3643 217.251 34.2574 217.572 34.1742C217.893 34.091 218.238 34.0435 218.595 34.0435C218.893 34.0435 219.143 34.0791 219.357 34.1504C219.571 34.2217 219.762 34.3287 219.917 34.4594C220.071 34.5901 220.202 34.7446 220.297 34.9229C220.393 35.1011 220.464 35.2913 220.512 35.5052C220.559 35.7191 220.571 35.933 220.571 36.1469V41.8391H219.369V36.4915C219.369 36.3132 219.345 36.135 219.31 35.9805C219.274 35.8141 219.202 35.6715 219.119 35.5289C219.024 35.3863 218.893 35.2794 218.714 35.1962C218.536 35.113 218.322 35.0774 218.06 35.0774C217.798 35.0774 217.56 35.113 217.322 35.1724C217.084 35.2318 216.858 35.315 216.656 35.4101C216.453 35.5052 216.263 35.6002 216.096 35.7072C216.144 35.826 216.179 35.9567 216.191 36.0756C216.203 36.1944 216.215 36.3132 216.215 36.4202V41.8391H215.001V36.4915C215.001 36.3251 214.989 36.1706 214.954 36.0043C214.918 35.8379 214.858 35.6834 214.763 35.5527C214.668 35.422 214.537 35.315 214.359 35.22C214.18 35.1368 213.966 35.0892 213.704 35.0892C213.49 35.0892 213.264 35.113 213.049 35.1724C212.835 35.2318 212.633 35.3031 212.43 35.3982C212.228 35.4933 212.026 35.5883 211.812 35.7072V41.8391H210.598H210.645V41.8272Z" fill="white"/>
<path d="M226.807 32.6412C226.545 32.6412 226.367 32.5937 226.248 32.4986C226.129 32.4036 226.081 32.2372 226.081 31.9995C226.081 31.7618 226.141 31.5836 226.248 31.4885C226.355 31.3935 226.545 31.3459 226.807 31.3459C227.069 31.3459 227.271 31.3935 227.378 31.4885C227.485 31.5836 227.533 31.75 227.533 31.9995C227.533 32.2491 227.485 32.4036 227.378 32.4986C227.271 32.5937 227.081 32.6412 226.807 32.6412ZM226.212 41.8272V34.1861H227.414V41.8272H226.212Z" fill="white"/>
<path d="M229.199 41.8272V34.1861H230.294V34.8516C230.615 34.6733 230.925 34.5188 231.211 34.4C231.496 34.2811 231.794 34.1861 232.091 34.1267C232.389 34.0672 232.698 34.0316 233.032 34.0316C233.496 34.0316 233.888 34.1148 234.198 34.2693C234.507 34.4356 234.757 34.6614 234.924 34.9704C235.09 35.2794 235.174 35.6596 235.174 36.0993V41.8034H233.96V36.4439C233.96 35.9924 233.841 35.6359 233.615 35.3982C233.389 35.1605 233.032 35.0298 232.555 35.0298C232.294 35.0298 232.056 35.0536 231.818 35.113C231.58 35.1724 231.341 35.2437 231.115 35.3388C230.877 35.4338 230.651 35.5527 230.413 35.6715V41.8034H229.199V41.8272Z" fill="white"/>
<path d="M239.566 41.9698C239.113 41.9698 238.721 41.8866 238.411 41.7084C238.102 41.5301 237.864 41.2687 237.721 40.9003C237.578 40.5438 237.495 40.0922 237.495 39.5693V35.0773H236.186V34.293L237.495 34.1742L237.649 32.3679H238.697V34.1742H241.256V35.0536H238.697V39.4742C238.697 39.9852 238.792 40.3655 238.994 40.5913C239.185 40.829 239.506 40.9359 239.958 40.9359C240.184 40.9359 240.411 40.9122 240.637 40.8646C240.863 40.8171 241.089 40.7577 241.327 40.6745L241.494 41.6014C241.148 41.7202 240.815 41.8153 240.482 41.8628C240.149 41.9104 239.839 41.946 239.566 41.946V41.9698Z" fill="white"/>
<path d="M245.446 41.9698C244.922 41.9698 244.458 41.8985 244.041 41.7559C243.625 41.6133 243.291 41.3875 243.006 41.0904C242.72 40.7815 242.506 40.4012 242.351 39.9258C242.196 39.4505 242.125 38.8801 242.125 38.2146C242.125 37.4422 242.22 36.7886 242.399 36.2538C242.589 35.7191 242.839 35.2913 243.149 34.9585C243.458 34.6377 243.839 34.4 244.267 34.2574C244.696 34.1148 245.16 34.0435 245.648 34.0435C246.624 34.0435 247.362 34.3049 247.838 34.8159C248.314 35.3388 248.552 36.1706 248.552 37.3352V37.8819C248.349 37.9056 248.076 37.9175 247.743 37.9413C247.397 37.9651 247.005 37.9888 246.552 38.0245C246.1 38.0601 245.612 38.0839 245.077 38.0958C244.541 38.0958 243.982 38.1195 243.387 38.1314C243.387 38.179 243.375 38.2265 243.375 38.2859V38.4404C243.375 39.0583 243.458 39.5574 243.636 39.9258C243.815 40.3061 244.065 40.5794 244.398 40.7458C244.731 40.9122 245.148 41.0072 245.636 41.0072C245.945 41.0072 246.243 40.9835 246.552 40.9478C246.862 40.9122 247.171 40.8646 247.469 40.8171C247.766 40.7696 248.04 40.7102 248.278 40.6507L248.433 41.5539C248.171 41.6371 247.885 41.7084 247.564 41.7797C247.243 41.8391 246.909 41.8866 246.552 41.9342C246.195 41.9698 245.826 41.9936 245.434 41.9936V41.9698H245.446ZM243.41 37.3115C243.863 37.3115 244.303 37.3115 244.731 37.2877C245.16 37.2639 245.541 37.252 245.898 37.2402C246.255 37.2402 246.552 37.2045 246.802 37.1926C247.052 37.1807 247.243 37.157 247.35 37.1332C247.35 36.6103 247.278 36.1825 247.147 35.8617C247.028 35.5289 246.826 35.2913 246.564 35.1487C246.302 35.0061 245.981 34.9229 245.588 34.9229C245.338 34.9229 245.1 34.9585 244.862 35.0298C244.624 35.1011 244.41 35.22 244.208 35.3982C244.005 35.5765 243.839 35.8141 243.684 36.1231C243.529 36.4321 243.446 36.8242 243.41 37.3115Z" fill="white"/>
<path d="M251.134 31.2746V39.7119C251.134 40.0447 251.17 40.2942 251.241 40.4725C251.312 40.6507 251.408 40.7696 251.539 40.8171C251.669 40.8765 251.812 40.9003 251.955 40.9003C252.05 40.9003 252.157 40.9003 252.276 40.8765C252.395 40.8528 252.526 40.829 252.669 40.7933L252.8 41.7203C252.633 41.7916 252.455 41.851 252.253 41.8985C252.05 41.946 251.848 41.9579 251.634 41.9579C251.277 41.9579 250.979 41.8985 250.729 41.7678C250.479 41.649 250.277 41.4232 250.134 41.1142C249.991 40.8052 249.92 40.3536 249.92 39.7832V31.2509H251.122V31.2746H251.134Z" fill="white"/>
<path d="M254.276 32.6412C254.014 32.6412 253.835 32.5937 253.716 32.4986C253.597 32.4036 253.55 32.2372 253.55 31.9995C253.55 31.7618 253.609 31.5836 253.716 31.4885C253.824 31.3935 254.014 31.3459 254.276 31.3459C254.538 31.3459 254.74 31.3935 254.847 31.4885C254.954 31.5836 255.002 31.75 255.002 31.9995C255.002 32.2491 254.954 32.4036 254.847 32.4986C254.74 32.5937 254.55 32.6412 254.276 32.6412ZM253.681 41.8272V34.1861H254.883V41.8272H253.681Z" fill="white"/>
<path d="M259.429 44.9644C258.322 44.9644 257.489 44.7981 256.93 44.4534C256.371 44.1088 256.085 43.5978 256.085 42.9086C256.085 42.6353 256.133 42.3857 256.216 42.1718C256.299 41.9579 256.442 41.7559 256.632 41.5776C256.823 41.3994 257.049 41.233 257.335 41.0904L258.108 41.3518C257.87 41.4588 257.68 41.5776 257.537 41.7083C257.394 41.8391 257.287 41.9936 257.216 42.148C257.144 42.3144 257.108 42.4927 257.108 42.6947C257.108 43.0037 257.192 43.2651 257.37 43.4671C257.549 43.6691 257.811 43.8236 258.168 43.9425C258.525 44.0494 258.965 44.1088 259.501 44.1088C260.036 44.1088 260.524 44.0494 260.905 43.9187C261.286 43.7999 261.583 43.6216 261.786 43.4077C261.988 43.1938 262.095 42.9205 262.095 42.6115C262.095 42.3738 262.048 42.1837 261.94 42.0292C261.833 41.8747 261.679 41.7678 261.464 41.6965C261.25 41.6252 260.976 41.5776 260.631 41.5776H258.679C258.215 41.5776 257.811 41.5182 257.489 41.3994C257.156 41.2805 256.918 41.1023 256.751 40.8765C256.585 40.6388 256.502 40.3655 256.502 40.0328C256.502 39.6763 256.597 39.3792 256.775 39.1177C256.954 38.8563 257.228 38.6305 257.573 38.4285L258.263 38.6899C258.001 38.8206 257.811 38.9751 257.668 39.1415C257.525 39.3079 257.454 39.5099 257.454 39.7594C257.454 40.009 257.549 40.1991 257.751 40.3536C257.953 40.5081 258.263 40.5794 258.679 40.5794H260.988C261.726 40.5794 262.298 40.7458 262.678 41.0666C263.059 41.3994 263.25 41.8747 263.25 42.5045C263.25 43.0274 263.095 43.479 262.797 43.8474C262.5 44.2158 262.071 44.5129 261.5 44.703C260.929 44.8931 260.25 45.0001 259.441 45.0001V44.9644H259.429ZM259.536 38.9989C258.56 38.9989 257.834 38.785 257.347 38.3691C256.859 37.9531 256.609 37.3352 256.609 36.5152C256.609 35.6953 256.859 35.0654 257.347 34.6495C257.834 34.2336 258.572 34.0316 259.536 34.0316C260.5 34.0316 261.226 34.2336 261.714 34.6495C262.202 35.0654 262.452 35.6834 262.452 36.5152C262.452 37.3471 262.202 37.9531 261.714 38.3691C261.226 38.785 260.5 38.9989 259.536 38.9989ZM259.536 38.1552C260.131 38.1552 260.572 38.0244 260.857 37.7749C261.143 37.5135 261.274 37.0975 261.274 36.5152C261.274 35.9329 261.131 35.5051 260.857 35.2437C260.572 34.9823 260.131 34.8515 259.536 34.8515C258.941 34.8515 258.501 34.9823 258.215 35.2437C257.93 35.5051 257.775 35.9329 257.775 36.5152C257.775 37.0975 257.918 37.5135 258.215 37.7749C258.501 38.0363 258.941 38.1552 259.536 38.1552ZM261.726 35.2675L261.226 34.6258C261.345 34.3168 261.536 34.091 261.798 33.9365C262.06 33.782 262.357 33.7107 262.714 33.7107H263.012C263.107 33.7107 263.19 33.7345 263.285 33.7583L263.154 34.7089C263.083 34.6852 263.012 34.6733 262.94 34.6614C262.869 34.6614 262.786 34.6495 262.702 34.6495C262.488 34.6495 262.298 34.6971 262.131 34.7921C261.964 34.8872 261.833 35.0417 261.726 35.2437V35.2675Z" fill="white"/>
<path d="M267.321 41.9698C266.797 41.9698 266.333 41.8985 265.916 41.7559C265.5 41.6133 265.166 41.3875 264.881 41.0904C264.595 40.7814 264.381 40.4012 264.226 39.9258C264.071 39.4505 264 38.8801 264 38.2146C264 37.4422 264.095 36.7886 264.274 36.2538C264.464 35.7191 264.714 35.2912 265.024 34.9585C265.333 34.6377 265.714 34.4 266.142 34.2574C266.571 34.1148 267.035 34.0435 267.523 34.0435C268.499 34.0435 269.237 34.3049 269.713 34.8159C270.189 35.3388 270.427 36.1706 270.427 37.3352V37.8819C270.224 37.9056 269.951 37.9175 269.618 37.9413C269.272 37.965 268.88 37.9888 268.427 38.0245C267.975 38.0601 267.487 38.0839 266.952 38.0958C266.416 38.0958 265.857 38.1195 265.262 38.1314C265.262 38.1789 265.25 38.2265 265.25 38.2859V38.4404C265.25 39.0583 265.333 39.5574 265.511 39.9258C265.69 40.3061 265.94 40.5794 266.273 40.7458C266.606 40.9122 267.023 41.0072 267.511 41.0072C267.82 41.0072 268.118 40.9835 268.427 40.9478C268.737 40.9122 269.046 40.8646 269.344 40.8171C269.641 40.7696 269.915 40.7101 270.153 40.6507L270.308 41.5539C270.046 41.6371 269.76 41.7084 269.439 41.7797C269.118 41.8391 268.784 41.8866 268.427 41.9341C268.07 41.9698 267.701 41.9936 267.309 41.9936V41.9698H267.321ZM265.107 33.3186L266.737 30.5497H268.047L269.677 33.3186H268.665L267.392 31.239L266.107 33.3186H265.107ZM265.273 37.3114C265.726 37.3114 266.166 37.3114 266.595 37.2877C267.023 37.2639 267.404 37.252 267.761 37.2401C268.118 37.2401 268.415 37.2045 268.665 37.1926C268.915 37.1807 269.106 37.157 269.213 37.1332C269.213 36.6103 269.141 36.1825 269.011 35.8617C268.892 35.5289 268.689 35.2912 268.427 35.1486C268.166 35.006 267.844 34.9229 267.451 34.9229C267.202 34.9229 266.963 34.9585 266.725 35.0298C266.487 35.1011 266.273 35.2199 266.071 35.3982C265.869 35.5765 265.702 35.8141 265.547 36.1231C265.392 36.4321 265.309 36.8242 265.273 37.3114Z" fill="white"/>
<path d="M271.771 41.8272V34.1861H272.866V34.8516C273.188 34.6733 273.497 34.5188 273.783 34.4C274.068 34.2811 274.366 34.1861 274.664 34.1267C274.961 34.0672 275.271 34.0316 275.604 34.0316C276.068 34.0316 276.461 34.1148 276.77 34.2693C277.08 34.4356 277.329 34.6614 277.496 34.9704C277.663 35.2794 277.746 35.6596 277.746 36.0993V41.8034H276.532V36.4439C276.532 35.9924 276.413 35.6359 276.187 35.3982C275.961 35.1605 275.604 35.0298 275.128 35.0298C274.866 35.0298 274.628 35.0536 274.39 35.113C274.152 35.1724 273.914 35.2437 273.688 35.3388C273.45 35.4338 273.223 35.5527 272.985 35.6715V41.8034H271.771V41.8272Z" fill="white"/>
<path d="M279.174 38.1195C279.174 37.1926 279.317 36.4321 279.59 35.826C279.864 35.22 280.281 34.7684 280.816 34.4832C281.352 34.1861 282.006 34.0435 282.768 34.0435C283.03 34.0435 283.292 34.0435 283.554 34.0791C283.815 34.1148 284.077 34.1386 284.339 34.1742C284.601 34.2099 284.827 34.2693 285.041 34.3287L284.875 35.3388C284.66 35.2794 284.434 35.2318 284.208 35.2081C283.982 35.1724 283.756 35.1487 283.53 35.1249C283.304 35.1011 283.078 35.1011 282.875 35.1011C282.352 35.1011 281.911 35.2081 281.542 35.422C281.173 35.6359 280.9 35.9686 280.709 36.4083C280.519 36.8599 280.423 37.4303 280.423 38.1195C280.423 38.7613 280.519 39.2841 280.709 39.7001C280.9 40.116 281.173 40.4249 281.542 40.627C281.911 40.829 282.352 40.9359 282.875 40.9359C283.101 40.9359 283.339 40.9359 283.577 40.9122C283.815 40.8884 284.053 40.8646 284.303 40.8171C284.553 40.7696 284.779 40.7339 284.994 40.6864L285.196 41.6608C284.839 41.7559 284.434 41.8391 283.97 41.8985C283.506 41.9579 283.066 41.9936 282.649 41.9936C281.507 41.9936 280.638 41.6846 280.055 41.0548C279.471 40.4249 279.174 39.4624 279.174 38.1433V38.1195Z" fill="white"/>
<path d="M286.994 32.6412C286.732 32.6412 286.553 32.5937 286.434 32.4986C286.315 32.4036 286.268 32.2372 286.268 31.9995C286.268 31.7618 286.327 31.5836 286.434 31.4885C286.541 31.3935 286.732 31.3459 286.994 31.3459C287.255 31.3459 287.458 31.3935 287.565 31.4885C287.672 31.5836 287.72 31.75 287.72 31.9995C287.72 32.2491 287.672 32.4036 287.565 32.4986C287.458 32.5937 287.267 32.6412 286.994 32.6412ZM286.398 41.8272V34.1861H287.601V41.8272H286.398Z" fill="white"/>
<path d="M288.922 39.9852C288.922 39.5337 289.017 39.1534 289.219 38.8563C289.41 38.5592 289.707 38.3215 290.088 38.1552C290.469 37.9888 290.957 37.8462 291.528 37.7511C292.1 37.6561 292.766 37.5729 293.516 37.5016V36.4321C293.516 35.9924 293.373 35.6596 293.087 35.422C292.802 35.1843 292.373 35.0773 291.802 35.0773C291.612 35.0773 291.397 35.0773 291.147 35.1011C290.909 35.1249 290.659 35.1486 290.41 35.1962C290.16 35.2437 289.898 35.3031 289.612 35.3863L289.398 34.4356C289.803 34.3168 290.231 34.2217 290.66 34.1504C291.088 34.0791 291.493 34.0554 291.862 34.0554C292.504 34.0554 293.028 34.1385 293.456 34.3168C293.885 34.495 294.194 34.7565 294.408 35.113C294.623 35.4695 294.73 35.8973 294.73 36.4202V40.116C294.73 40.4368 294.777 40.6626 294.861 40.7696C294.956 40.8884 295.075 40.9359 295.23 40.9359C295.289 40.9359 295.349 40.9359 295.42 40.9122C295.492 40.9122 295.551 40.8765 295.622 40.8527L295.765 41.7321C295.622 41.8034 295.468 41.8628 295.313 41.9104C295.158 41.9579 294.992 41.9698 294.825 41.9698C294.48 41.9698 294.206 41.8747 294.016 41.6965C293.825 41.5182 293.682 41.2449 293.635 40.8884C293.409 41.0785 293.159 41.2568 292.873 41.4232C292.599 41.5895 292.29 41.7202 291.957 41.8272C291.624 41.9223 291.266 41.9817 290.874 41.9817C290.576 41.9817 290.314 41.9341 290.076 41.851C289.838 41.7678 289.636 41.6371 289.469 41.4707C289.303 41.3043 289.172 41.0904 289.077 40.8527C288.981 40.6151 288.946 40.3299 288.946 40.009L288.922 39.9852ZM290.136 39.8783C290.136 40.2823 290.231 40.5913 290.433 40.7933C290.636 40.9953 290.909 41.1023 291.266 41.1023C291.528 41.1023 291.802 41.0666 292.064 40.9835C292.326 40.9003 292.588 40.7933 292.837 40.6388C293.087 40.4962 293.314 40.318 293.504 40.116V38.1908C293.004 38.2384 292.552 38.2978 292.135 38.3572C291.719 38.4285 291.362 38.5117 291.052 38.6305C290.743 38.7494 290.529 38.9038 290.362 39.1059C290.195 39.3079 290.124 39.5574 290.124 39.8664H290.136V39.8783Z" fill="white"/>
<path d="M300.062 39.9852C300.062 39.5337 300.157 39.1534 300.359 38.8563C300.549 38.5592 300.847 38.3215 301.228 38.1552C301.609 37.9888 302.097 37.8462 302.668 37.7511C303.239 37.6561 303.906 37.5729 304.656 37.5016V36.4321C304.656 35.9924 304.513 35.6596 304.227 35.422C303.941 35.1843 303.513 35.0773 302.942 35.0773C302.751 35.0773 302.537 35.0773 302.287 35.1011C302.049 35.1249 301.799 35.1486 301.549 35.1962C301.299 35.2437 301.037 35.3031 300.752 35.3863L300.538 34.4356C300.942 34.3168 301.371 34.2217 301.799 34.1504C302.228 34.0791 302.632 34.0554 303.001 34.0554C303.644 34.0554 304.168 34.1385 304.596 34.3168C305.024 34.495 305.334 34.7565 305.548 35.113C305.762 35.4695 305.869 35.8973 305.869 36.4202V40.116C305.869 40.4368 305.917 40.6626 306 40.7696C306.096 40.8884 306.215 40.9359 306.369 40.9359C306.429 40.9359 306.488 40.9359 306.56 40.9122C306.631 40.9122 306.691 40.8765 306.762 40.8527L306.905 41.7321C306.762 41.8034 306.607 41.8628 306.453 41.9104C306.298 41.9579 306.131 41.9698 305.965 41.9698C305.62 41.9698 305.346 41.8747 305.155 41.6965C304.965 41.5182 304.822 41.2449 304.775 40.8884C304.548 41.0785 304.298 41.2568 304.013 41.4232C303.739 41.5895 303.43 41.7202 303.096 41.8272C302.763 41.9223 302.406 41.9817 302.013 41.9817C301.716 41.9817 301.454 41.9341 301.216 41.851C300.978 41.7678 300.776 41.6371 300.609 41.4707C300.442 41.3043 300.311 41.0904 300.216 40.8527C300.121 40.6151 300.085 40.3299 300.085 40.009L300.062 39.9852ZM301.275 39.8783C301.275 40.2823 301.371 40.5913 301.573 40.7933C301.775 40.9953 302.049 41.1023 302.406 41.1023C302.668 41.1023 302.942 41.0666 303.204 40.9835C303.465 40.9003 303.727 40.7933 303.977 40.6388C304.227 40.4962 304.453 40.318 304.644 40.116V38.1908C304.144 38.2384 303.691 38.2978 303.275 38.3572C302.858 38.4285 302.501 38.5117 302.192 38.6305C301.882 38.7494 301.668 38.9038 301.502 39.1059C301.335 39.3079 301.264 39.5574 301.264 39.8664H301.275V39.8783Z" fill="white"/>
<path d="M308.916 34.1742V35.1249C309.202 34.8634 309.476 34.6495 309.726 34.495C309.976 34.3406 310.226 34.2217 310.487 34.1504C310.737 34.0791 311.011 34.0316 311.297 34.0316C311.487 34.0316 311.678 34.0435 311.868 34.0791C312.058 34.1148 312.237 34.1385 312.392 34.1742L312.189 35.2675C312.023 35.2318 311.844 35.1962 311.654 35.1724C311.463 35.1486 311.297 35.1249 311.13 35.1249C310.797 35.1249 310.452 35.1962 310.107 35.3388C309.761 35.4814 309.392 35.719 309.012 36.0637V41.8153H307.81V34.1742H308.916Z" fill="white"/>
<path d="M315.926 41.9698C315.474 41.9698 315.081 41.8866 314.771 41.7084C314.462 41.5301 314.224 41.2687 314.081 40.9003C313.938 40.5438 313.855 40.0922 313.855 39.5693V35.0773H312.546V34.293L313.855 34.1742L314.01 32.3679H315.057V34.1742H317.616V35.0536H315.057V39.4742C315.057 39.9852 315.152 40.3655 315.355 40.5913C315.545 40.829 315.866 40.9359 316.319 40.9359C316.545 40.9359 316.771 40.9122 316.997 40.8646C317.223 40.8171 317.449 40.7577 317.687 40.6745L317.854 41.6014C317.509 41.7202 317.176 41.8153 316.842 41.8628C316.509 41.9104 316.2 41.946 315.926 41.946V41.9698Z" fill="white"/>
<path d="M319.46 32.6412C319.199 32.6412 319.02 32.5937 318.901 32.4986C318.782 32.4036 318.734 32.2372 318.734 31.9995C318.734 31.7618 318.794 31.5836 318.901 31.4885C319.008 31.3935 319.199 31.3459 319.46 31.3459C319.722 31.3459 319.925 31.3935 320.032 31.4885C320.139 31.5836 320.186 31.75 320.186 31.9995C320.186 32.2491 320.139 32.4036 320.032 32.4986C319.925 32.5937 319.734 32.6412 319.46 32.6412ZM318.853 41.8272V34.1861H320.055V41.8272H318.853Z" fill="white"/>
<path d="M322.46 41.8272V35.7072H321.246V34.911L322.46 34.8159V34.4832C322.46 33.6989 322.555 33.069 322.758 32.5818C322.96 32.0946 323.246 31.7262 323.626 31.4885C324.007 31.2509 324.483 31.132 325.043 31.132C325.352 31.132 325.65 31.1558 325.947 31.1914C326.245 31.239 326.554 31.3103 326.875 31.4291L326.721 32.3085C326.459 32.2253 326.221 32.1659 325.983 32.1302C325.745 32.0946 325.519 32.0827 325.305 32.0827C324.757 32.0827 324.34 32.2728 324.055 32.6412C323.769 33.0215 323.638 33.6394 323.638 34.5069V34.804H325.923V35.7072H323.638V41.8272H322.46Z" fill="white"/>
<path d="M327.601 32.6412C327.339 32.6412 327.161 32.5937 327.042 32.4986C326.923 32.4036 326.875 32.2372 326.875 31.9995C326.875 31.7618 326.935 31.5836 327.042 31.4885C327.149 31.3935 327.339 31.3459 327.601 31.3459C327.863 31.3459 328.065 31.3935 328.172 31.4885C328.279 31.5836 328.327 31.75 328.327 31.9995C328.327 32.2491 328.279 32.4036 328.172 32.4986C328.065 32.5937 327.875 32.6412 327.601 32.6412ZM326.994 41.8272V34.1861H328.196V41.8272H326.994Z" fill="white"/>
<path d="M329.625 38.1195C329.625 37.1926 329.768 36.4321 330.042 35.826C330.315 35.22 330.732 34.7684 331.267 34.4832C331.803 34.1861 332.458 34.0435 333.219 34.0435C333.481 34.0435 333.743 34.0435 334.005 34.0791C334.267 34.1148 334.528 34.1386 334.79 34.1742C335.052 34.2099 335.278 34.2693 335.492 34.3287L335.326 35.3388C335.112 35.2794 334.885 35.2318 334.659 35.2081C334.433 35.1724 334.207 35.1487 333.981 35.1249C333.755 35.1011 333.529 35.1011 333.326 35.1011C332.803 35.1011 332.362 35.2081 331.993 35.422C331.624 35.6359 331.351 35.9686 331.16 36.4083C330.97 36.8599 330.875 37.4303 330.875 38.1195C330.875 38.7613 330.97 39.2841 331.16 39.7001C331.351 40.116 331.624 40.4249 331.993 40.627C332.362 40.829 332.803 40.9359 333.326 40.9359C333.552 40.9359 333.791 40.9359 334.029 40.9122C334.267 40.8884 334.505 40.8646 334.755 40.8171C335.004 40.7696 335.231 40.7339 335.445 40.6864L335.647 41.6608C335.29 41.7559 334.885 41.8391 334.421 41.8985C333.957 41.9579 333.517 41.9936 333.1 41.9936C331.958 41.9936 331.089 41.6846 330.506 41.0548C329.923 40.4249 329.625 39.4624 329.625 38.1433V38.1195Z" fill="white"/>
<path d="M337.455 32.6412C337.194 32.6412 337.015 32.5937 336.896 32.4986C336.777 32.4036 336.729 32.2372 336.729 31.9995C336.729 31.7618 336.789 31.5836 336.896 31.4885C337.003 31.3935 337.194 31.3459 337.455 31.3459C337.717 31.3459 337.92 31.3935 338.027 31.4885C338.134 31.5836 338.181 31.75 338.181 31.9995C338.181 32.2491 338.134 32.4036 338.027 32.4986C337.92 32.5937 337.729 32.6412 337.455 32.6412ZM336.849 41.8272V34.1861H338.051V41.8272H336.849Z" fill="white"/>
<path d="M339.384 39.9852C339.384 39.5337 339.479 39.1534 339.681 38.8563C339.872 38.5592 340.169 38.3215 340.55 38.1552C340.931 37.9888 341.419 37.8462 341.99 37.7511C342.561 37.6561 343.228 37.5729 343.978 37.5016V36.4321C343.978 35.9924 343.835 35.6596 343.549 35.422C343.264 35.1843 342.835 35.0773 342.264 35.0773C342.074 35.0773 341.859 35.0773 341.609 35.1011C341.371 35.1249 341.121 35.1486 340.871 35.1962C340.622 35.2437 340.36 35.3031 340.074 35.3863L339.86 34.4356C340.264 34.3168 340.693 34.2217 341.121 34.1504C341.55 34.0791 341.955 34.0554 342.323 34.0554C342.966 34.0554 343.49 34.1385 343.918 34.3168C344.347 34.495 344.656 34.7565 344.87 35.113C345.085 35.4695 345.192 35.8973 345.192 36.4202V40.116C345.192 40.4368 345.239 40.6626 345.323 40.7696C345.418 40.8884 345.537 40.9359 345.692 40.9359C345.751 40.9359 345.811 40.9359 345.882 40.9122C345.953 40.9122 346.013 40.8765 346.084 40.8527L346.227 41.7321C346.084 41.8034 345.93 41.8628 345.775 41.9104C345.62 41.9579 345.454 41.9698 345.287 41.9698C344.942 41.9698 344.668 41.8747 344.478 41.6965C344.287 41.5182 344.144 41.2449 344.097 40.8884C343.871 41.0785 343.621 41.2568 343.335 41.4232C343.061 41.5895 342.752 41.7202 342.419 41.8272C342.085 41.9223 341.728 41.9817 341.336 41.9817C341.038 41.9817 340.776 41.9341 340.538 41.851C340.3 41.7678 340.098 41.6371 339.931 41.4707C339.765 41.3043 339.634 41.0904 339.538 40.8527C339.443 40.6151 339.408 40.3299 339.408 40.009L339.384 39.9852ZM340.598 39.8783C340.598 40.2823 340.693 40.5913 340.895 40.7933C341.098 40.9953 341.371 41.1023 341.728 41.1023C341.99 41.1023 342.264 41.0666 342.526 40.9835C342.788 40.9003 343.049 40.7933 343.299 40.6388C343.549 40.4962 343.775 40.318 343.966 40.116V38.1908C343.466 38.2384 343.014 38.2978 342.597 38.3572C342.181 38.4285 341.824 38.5117 341.514 38.6305C341.205 38.7494 340.99 38.9038 340.824 39.1059C340.657 39.3079 340.586 39.5574 340.586 39.8664H340.598V39.8783Z" fill="white"/>
<path d="M348.334 31.2746V39.7119C348.334 40.0447 348.37 40.2942 348.441 40.4725C348.513 40.6507 348.608 40.7696 348.739 40.8171C348.87 40.8765 349.012 40.9003 349.155 40.9003C349.25 40.9003 349.358 40.9003 349.477 40.8765C349.596 40.8528 349.727 40.829 349.869 40.7933L350 41.7203C349.834 41.7916 349.655 41.851 349.453 41.8985C349.25 41.946 349.048 41.9579 348.834 41.9579C348.477 41.9579 348.179 41.8985 347.929 41.7678C347.679 41.649 347.477 41.4232 347.334 41.1142C347.192 40.8052 347.12 40.3536 347.12 39.7832V31.2509H348.322V31.2746H348.334Z" fill="white"/>
<line x1="115" y1="4.37115e-08" x2="115" y2="46" stroke="white" stroke-opacity="0.4" stroke-width="2"/>
<defs>
<clipPath id="clip0_957_2383">
<rect width="100" height="40" fill="white" transform="translate(0 4)"/>
</clipPath>
<clipPath id="clip1_957_2383">
<rect width="188" height="35" fill="white" transform="translate(0 5)"/>
</clipPath>
</defs>
</svg>
