<svg width="194" height="46" viewBox="0 0 194 46" fill="none" xmlns="http://www.w3.org/2000/svg">
<mask id="mask0_91_67" style="mask-type:luminance" maskUnits="userSpaceOnUse" x="0" y="4" width="100" height="40">
<path d="M100 4H0V44H100V4Z" fill="white"/>
</mask>
<g mask="url(#mask0_91_67)">
<mask id="mask1_91_67" style="mask-type:luminance" maskUnits="userSpaceOnUse" x="0" y="5" width="188" height="35">
<path d="M188 5H0V40H188V5Z" fill="white"/>
</mask>
<g mask="url(#mask1_91_67)">
<path d="M7.16149 8.98358C2.44615 8.98358 0 11.7415 0 16.5631V32.4165C0 37.2419 2.44615 39.996 7.16149 39.996C11.8768 39.996 14.3269 37.238 14.3269 32.4165V22.5522H7.38173V26.8618H9.78462V32.7617C9.78462 34.9145 8.82504 35.6903 7.29521 35.6903C5.76537 35.6903 4.80579 34.9145 4.80579 32.7617V16.2644C4.80579 14.1116 5.76537 13.2931 7.29521 13.2931C8.82504 13.2931 9.78462 14.1116 9.78462 16.2644V19.1504H14.3269V16.567C14.3269 11.7415 11.8808 8.98746 7.16149 8.98746V8.98358Z" fill="white"/>
<path d="M37.2113 27.4629L32.3662 9.41406H26.4238V39.5692H30.7066V17.556L36.645 39.5692H41.494V9.41406H37.2113V27.4629Z" fill="white"/>
<path d="M53.9847 8.98358C49.2693 8.98358 46.6895 11.7415 46.6895 16.5631V32.4165C46.6895 37.2419 49.2654 39.9999 53.9847 39.9999C58.7039 39.9999 61.2799 37.2419 61.2799 32.4165V16.5631C61.2799 11.7377 58.7039 8.98358 53.9847 8.98358ZM56.4741 32.719C56.4741 34.8719 55.5145 35.6903 53.9847 35.6903C52.4548 35.6903 51.4952 34.8719 51.4952 32.719V16.2644C51.4952 14.1077 52.4548 13.2931 53.9847 13.2931C55.5145 13.2931 56.4741 14.1116 56.4741 16.2644V32.719Z" fill="white"/>
<path d="M73.1566 33.5539L69.9711 9.86111H65.1221L69.7509 40.0163H76.1258L80.7586 9.86111H76.3461L73.1566 33.5539Z" fill="white"/>
<path d="M87.4827 9.86108L82.5039 40.0162H86.9597L87.7895 34.1163H93.3346L94.1644 40.0162H98.9663L93.9875 9.86108H87.4827ZM88.3991 30.0201L90.5385 14.8145L92.7251 30.0201H88.403H88.3991Z" fill="white"/>
<path d="M20.0968 5C18.0046 5 16.3057 6.67184 16.3057 8.73933C16.3057 10.8068 18.0046 12.4787 20.0968 12.4787C22.189 12.4787 23.888 10.8029 23.888 8.73933C23.888 6.67572 22.193 5 20.0968 5Z" fill="white"/>
</g>
</g>
<path d="M133 5H138.725V36.1943H148.151V41.3874H133V5Z" fill="white"/>
<path d="M150.899 5H156.624V41.3874H150.899V5Z" fill="white"/>
<path d="M160.897 5H166.622V41.3874H160.897V5Z" fill="white"/>
<path d="M175.321 5H183.081L189.02 41.3874H183.295L182.26 34.1622V34.2692H175.75L174.714 41.3874H169.406L175.345 5H175.321ZM181.57 29.3256L179.023 11.3339H178.916L176.416 29.3256H181.57Z" fill="white"/>
<path d="M115 0V46" stroke="white" stroke-opacity="0.4" stroke-width="2"/>
</svg>
