<svg width="352" height="376" xmlns="http://www.w3.org/2000/svg" xmlns:xlink="http://www.w3.org/1999/xlink" xml:space="preserve" overflow="hidden"><defs><clipPath id="clip0"><rect x="702" y="221" width="352" height="376"/></clipPath></defs><g clip-path="url(#clip0)" transform="translate(-702 -221)"><path d="M206.292 270.236C207.422 268.88 209.23 267.751 211.037 267.073 212.845 268.88 214.652 272.044 216.008 273.851 214.2 274.981 212.845 276.337 210.585 276.337 208.778 274.303 206.97 272.044 206.292 270.236ZM212.845 265.943 218.268 263.458C220.075 265.265 221.883 267.751 222.561 270.236L217.816 272.496C216.46 271.366 213.523 267.751 212.845 265.943ZM221.431 261.65 226.176 258.713C227.983 261.198 229.791 263.006 230.469 265.943L225.498 268.428 221.431 261.65ZM199.74 261.198 204.485 258.035 206.97 261.198C208.1 263.006 208.778 263.006 209.23 264.813L203.807 267.751 199.74 261.198ZM227.983 258.035 233.406 255.097C235.214 256.905 237.021 259.842 238.377 261.65 235.892 263.006 234.536 264.135 232.276 264.135 230.921 262.328 229.113 260.52 227.983 258.035ZM206.292 256.905C208.1 256.227 209.907 255.097 211.715 254.42 213.523 256.227 216.008 259.39 216.008 261.198L211.037 263.458C209.907 261.65 207.422 258.713 206.292 256.905ZM214.652 252.612 219.623 249.675C221.431 251.482 222.561 253.968 224.368 256.227 222.561 258.035 221.431 258.035 219.623 259.39 218.268 258.713 217.816 257.583 217.138 256.227L214.652 252.612ZM221.431 248.997 226.854 246.059 231.599 252.612 226.176 255.775C226.176 255.097 225.498 255.097 225.498 255.097L221.431 248.997ZM174.207 265.265 192.283 261.65C195.447 264.135 199.062 269.558 201.547 273.173 203.807 276.789 207.422 282.211 210.585 284.697 212.845 284.019 225.498 276.789 228.661 274.981 236.57 270.688 241.992 269.558 244.93 264.135 244.252 262.328 226.176 238.829 224.368 237.021 217.816 238.151 209.23 239.507 203.355 241.766 198.384 243.574 197.254 239.507 194.091 239.507 192.283 238.829 187.538 242.444 185.731 243.122L185.731 250.804 171.948 258.713 174.207 265.265Z" fill="#F76321" fill-rule="evenodd" transform="matrix(1 0 0 1.00065 702.211 221)"/><path d="M176.693 272.496C176.693 288.312 174.885 285.375 182.116 289.442L201.547 299.835C209.23 303.903 208.1 303.903 211.715 302.095 220.075 297.35 234.084 290.797 240.637 286.504L240.637 273.173C238.377 273.851 238.829 273.851 236.57 275.659 236.57 287.634 238.829 282.889 220.075 293.735 217.138 294.865 214.2 296.672 211.037 298.028 208.778 299.835 209.23 299.835 206.292 298.48 201.999 296.22 203.355 295.542 203.355 285.827L196.124 281.759 195.447 292.605 180.308 284.019 180.308 268.428C176.015 268.428 176.693 268.428 176.693 272.496Z" fill="#F76329" fill-rule="evenodd" transform="matrix(1 0 0 1.00065 702.211 221)"/><path d="M185.053 273.851C186.861 275.659 190.024 277.466 192.283 277.466L192.283 270.236C190.476 268.88 187.538 267.073 185.053 267.073L185.053 273.851Z" fill="#F76329" fill-rule="evenodd" transform="matrix(1 0 0 1.00065 702.211 221)"/><path d="M227.983 258.035C229.113 260.52 230.921 262.328 232.276 264.135 234.536 264.135 235.892 263.006 238.377 261.65 237.021 259.842 235.214 256.905 233.406 255.097L227.983 258.035Z" fill="#FFFFFF" fill-rule="evenodd" transform="matrix(1 0 0 1.00065 702.211 221)"/><path d="M225.498 255.097C225.498 255.097 226.176 255.097 226.176 255.775L231.599 252.612 226.854 246.059 221.431 248.997 225.498 255.097Z" fill="#FFFFF7" fill-rule="evenodd" transform="matrix(1 0 0 1.00065 702.211 221)"/><path d="M206.292 270.236C206.97 272.044 208.778 274.303 210.585 276.337 212.845 276.337 214.2 274.981 216.008 273.851 214.652 272.044 212.845 268.88 211.037 267.073 209.23 267.751 207.422 268.88 206.292 270.236Z" fill="#FFFFFF" fill-rule="evenodd" transform="matrix(1 0 0 1.00065 702.211 221)"/><path d="M217.138 256.227C217.816 257.583 218.268 258.713 219.623 259.39 221.431 258.035 222.561 258.035 224.368 256.227 222.561 253.968 221.431 251.482 219.623 249.675L214.652 252.612 217.138 256.227Z" fill="#FFFFF7" fill-rule="evenodd" transform="matrix(1 0 0 1.00065 702.211 221)"/><path d="M212.845 265.943C213.523 267.751 216.46 271.366 217.816 272.496L222.561 270.236C221.883 267.751 220.075 265.265 218.268 263.458L212.845 265.943Z" fill="#FFFFFF" fill-rule="evenodd" transform="matrix(1 0 0 1.00065 702.211 221)"/><path d="M203.807 267.751 209.23 264.813C208.778 263.006 208.1 263.006 206.97 261.198L204.485 258.035 199.74 261.198 203.807 267.751Z" fill="#FFFFFF" fill-rule="evenodd" transform="matrix(1 0 0 1.00065 702.211 221)"/><path d="M206.292 256.905C207.422 258.713 209.907 261.65 211.037 263.458L216.008 261.198C216.008 259.39 213.523 256.227 211.715 254.42 209.907 255.097 208.1 256.227 206.292 256.905Z" fill="#FFFFF7" fill-rule="evenodd" transform="matrix(1 0 0 1.00065 702.211 221)"/><path d="M225.498 268.428 230.469 265.943C229.791 263.006 227.983 261.198 226.176 258.713L221.431 261.65 225.498 268.428Z" fill="#FFFFFF" fill-rule="evenodd" transform="matrix(1 0 0 1.00065 702.211 221)"/><path d="M51.2906 340.055 56.2615 340.732C55.5837 341.862 49.483 350.222 47.6754 352.03L50.1609 343.67 45.8678 342.992 53.7761 332.146 51.2906 340.055ZM46.9976 330.339 27.7918 330.339C27.114 326.723 27.7918 326.723 30.2773 324.916 36.152 320.623 40.445 318.815 48.3533 318.815L46.9976 330.339ZM3.6152 338.247C2.93735 332.824 2.48545 305.032 3.6152 301.417L23.4988 302.095C24.8545 303.903 24.1766 310.455 24.1766 313.392 24.1766 315.878 24.8545 323.786 24.1766 325.594 22.369 332.824 10.8456 330.339 6.10065 331.017 6.10065 335.761 6.55255 336.439 3.6152 338.247ZM50.1609 318.363C54.9058 318.363 59.8767 318.363 64.6217 318.815L69.3666 329.887 50.6128 329.887 50.1609 318.363ZM67.559 320.171C70.7223 320.171 77.9527 323.786 79.0825 326.723L78.4046 329.209 73.6597 329.887C71.8521 327.401 69.3666 322.43 67.559 320.171ZM99.6439 330.339C97.8363 332.146 96.7065 332.824 96.0287 335.761 95.3508 338.925 96.0287 341.184 96.0287 344.348 92.8654 338.925 92.4135 335.31 86.3128 327.401 77.9527 317.008 59.8767 313.392 45.8678 315.878 35.0222 317.685 32.5368 321.301 27.7918 323.108 27.114 317.685 27.7918 312.263 27.7918 306.84 27.7918 298.48 27.7918 299.609 19.8836 298.48 19.8836 292.379 18.7538 293.509 13.331 293.509 6.10065 293.509 9.03799 293.509 7.2304 298.48-0.67785 298.932 0 299.609 0 307.518L0.67785 340.055C2.93735 350.9-4.29305 355.193 7.2304 355.645 7.90825 349.093 10.8456 344.799 17.6241 344.799 24.8545 344.799 26.6621 349.77 27.7918 355.645 32.0849 356.323 62.1362 356.323 65.2995 355.645 66.4293 340.732 84.5052 341.862 85.1831 355.193 87.4426 354.515 89.2502 354.515 91.0578 353.837 93.5432 353.837 94.2211 353.837 95.3508 352.708 100.322 348.415 95.3508 339.377 100.322 332.146 103.259 332.824 100.322 332.146 102.129 333.502 103.259 333.954 104.389 333.954 106.874 332.146L100.774 324.464 98.5141 327.401 99.6439 330.339Z" fill="#008484" fill-rule="evenodd" transform="matrix(1 0 0 1.00065 702.211 221)"/><path d="M51.2906 340.055 56.2615 340.732C55.5837 341.862 49.483 350.222 47.6754 352.03L50.1609 343.67 45.8678 342.992 53.7761 332.146 51.2906 340.055ZM46.9976 330.339 27.7918 330.339C27.114 326.723 27.7918 326.723 30.2773 324.916 36.152 320.623 40.445 318.815 48.3533 318.815L46.9976 330.339ZM3.6152 338.247C2.93735 332.824 2.48545 305.032 3.6152 301.417L23.4988 302.095C24.8545 303.903 24.1766 310.455 24.1766 313.392 24.1766 315.878 24.8545 323.786 24.1766 325.594 22.369 332.824 10.8456 330.339 6.10065 331.017 6.10065 335.761 6.55255 336.439 3.6152 338.247ZM50.1609 318.363C54.9058 318.363 59.8767 318.363 64.6217 318.815L69.3666 329.887 50.6128 329.887 50.1609 318.363ZM67.559 320.171C70.7223 320.171 77.9527 323.786 79.0825 326.723L78.4046 329.209 73.6597 329.887C71.8521 327.401 69.3666 322.43 67.559 320.171ZM99.6439 330.339C97.8363 332.146 96.7065 332.824 96.0287 335.761 95.3508 338.925 96.0287 341.184 96.0287 344.348 92.8654 338.925 92.4135 335.31 86.3128 327.401 77.9527 317.008 59.8767 313.392 45.8678 315.878 35.0222 317.685 32.5368 321.301 27.7918 323.108 27.114 317.685 27.7918 312.263 27.7918 306.84 27.7918 298.48 27.7918 299.609 19.8836 298.48 19.8836 292.379 18.7538 293.509 13.331 293.509 6.10065 293.509 9.03799 293.509 7.2304 298.48-0.67785 298.932 0 299.609 0 307.518L0.67785 340.055C2.93735 350.9-4.29305 355.193 7.2304 355.645 7.90825 349.093 10.8456 344.799 17.6241 344.799 24.8545 344.799 26.6621 349.77 27.7918 355.645 32.0849 356.323 62.1362 356.323 65.2995 355.645 66.4293 340.732 84.5052 341.862 85.1831 355.193 87.4426 354.515 89.2502 354.515 91.0578 353.837 93.5432 353.837 94.2211 353.837 95.3508 352.708 100.322 348.415 95.3508 339.377 100.322 332.146 103.259 332.824 100.322 332.146 102.129 333.502 103.259 333.954 104.389 333.954 106.874 332.146L100.774 324.464 98.5141 327.401 99.6439 330.339Z" fill="#7688A1" fill-rule="evenodd" transform="matrix(1 0 0 1.00065 702.211 221)"/><path d="M6.10065 321.979 21.2393 321.979 21.2393 328.531 6.10065 328.531 6.10065 321.979ZM6.55255 319.493C6.10065 317.685 6.10065 315.2 6.55255 313.392 7.90825 312.941 19.8836 312.263 21.2393 313.392 21.6912 314.748 21.6912 317.008 21.6912 318.363 21.2393 320.623 20.5614 320.171 17.6241 320.171 14.4608 320.171 9.71584 320.171 6.55255 319.493ZM6.10065 304.354C9.03799 303.903 18.7538 303.903 21.2393 305.032L21.6912 310.455C18.7538 311.585 9.03799 311.585 6.10065 311.133L6.10065 304.354ZM3.6152 338.247C6.55255 336.439 6.10065 335.761 6.10065 331.017 10.8456 330.339 22.369 332.824 24.1766 325.594 24.8545 323.786 24.1766 315.878 24.1766 313.392 24.1766 310.455 24.8545 303.903 23.4988 302.095L3.6152 301.417C2.48545 305.032 2.93735 332.824 3.6152 338.247Z" fill="#F6FFFF" fill-rule="evenodd" transform="matrix(1 0 0 1.00065 702.211 221)"/><path d="M50.6128 329.887 69.3666 329.887 64.6217 318.815C59.8767 318.363 54.9058 318.363 50.1609 318.363L50.6128 329.887Z" fill="#FFFFFF" fill-rule="evenodd" transform="matrix(1 0 0 1.00065 702.211 221)"/><path d="M48.3533 318.815C40.445 318.815 36.152 320.623 30.2773 324.916 27.7918 326.723 27.114 326.723 27.7918 330.339L46.9976 330.339 48.3533 318.815Z" fill="#FFFFFF" fill-rule="evenodd" transform="matrix(1 0 0 1.00065 702.211 221)"/><path d="M71.1742 355.645C70.0445 349.77 78.4046 348.415 79.7603 353.386 80.2122 355.645 78.4046 358.131 76.597 358.808 74.3375 359.26 71.8521 357.453 71.1742 355.645ZM67.1071 357.001C69.3666 366.491 85.635 364.231 83.8274 352.708 81.5679 342.54 63.9438 345.477 67.1071 357.001Z" fill="#7688A1" fill-rule="evenodd" transform="matrix(1 0 0 1.00065 702.211 221)"/><path d="M13.331 353.386C17.6241 347.963 23.0469 351.578 21.6912 356.323 20.5614 359.26 12.6532 361.068 13.331 353.386ZM25.3064 357.453C29.5994 347.285 12.6532 341.184 9.71584 352.03 6.10065 362.424 21.6912 367.846 25.3064 357.453Z" fill="#7688A1" fill-rule="evenodd" transform="matrix(1 0 0 1.00065 702.211 221)"/><path d="M6.10065 311.133C9.03799 311.585 18.7538 311.585 21.6912 310.455L21.2393 305.032C18.7538 303.903 9.03799 303.903 6.10065 304.354L6.10065 311.133Z" fill="#7688A1" fill-rule="evenodd" transform="matrix(1 0 0 1.00065 702.211 221)"/><path d="M6.55255 319.493C9.71584 320.171 14.4608 320.171 17.6241 320.171 20.5614 320.171 21.2393 320.623 21.6912 318.363 21.6912 317.008 21.6912 314.748 21.2393 313.392 19.8836 312.263 7.90825 312.941 6.55255 313.392 6.10065 315.2 6.10065 317.685 6.55255 319.493Z" fill="#7688A1" fill-rule="evenodd" transform="matrix(1 0 0 1.00065 702.211 221)"/><path d="M6.10065 328.531 21.2393 328.531 21.2393 321.979 6.10065 321.979Z" fill="#7688A1" fill-rule="evenodd" transform="matrix(1 0 0 1.00065 702.211 221)"/><path d="M53.7761 332.146 45.8678 342.992 50.1609 343.67 47.6754 352.03C49.483 350.222 55.5837 341.862 56.2615 340.732L51.2906 340.055 53.7761 332.146Z" fill="#EDF8F7" fill-rule="evenodd" transform="matrix(1 0 0 1.00065 702.211 221)"/><path d="M67.559 320.171C69.3666 322.43 71.8521 327.401 73.6597 329.887L78.4046 329.209 79.0825 326.723C77.9527 323.786 70.7223 320.171 67.559 320.171Z" fill="#FFFFFF" fill-rule="evenodd" transform="matrix(1 0 0 1.00065 702.211 221)"/><path d="M77.2748 352.708C79.0825 356.323 76.1451 358.131 74.3375 357.001 71.1742 355.193 72.9818 351.578 77.2748 352.708ZM71.1742 355.645C71.8521 357.453 74.3375 359.26 76.597 358.808 78.4046 358.131 80.2122 355.645 79.7603 353.386 78.4046 348.415 70.0445 349.77 71.1742 355.645Z" fill="#EFFFFF" fill-rule="evenodd" transform="matrix(1 0 0 1.00065 702.211 221)"/><path d="M15.1386 355.645 15.8165 352.708 18.7538 352.708C20.5614 355.193 20.5614 356.323 17.6241 357.453 15.1386 357.001 16.2684 357.453 15.1386 355.645ZM13.331 353.386C12.6532 361.068 20.5614 359.26 21.6912 356.323 23.0469 351.578 17.6241 347.963 13.331 353.386Z" fill="#EFFFFF" fill-rule="evenodd" transform="matrix(1 0 0 1.00065 702.211 221)"/><path d="M77.2748 352.708C72.9818 351.578 71.1742 355.193 74.3375 357.001 76.1451 358.131 79.0825 356.323 77.2748 352.708Z" fill="#7688A1" fill-rule="evenodd" transform="matrix(1 0 0 1.00065 702.211 221)"/><path d="M17.6241 357.453C20.5614 356.323 20.5614 355.193 18.7538 352.708L15.8165 352.708 15.1386 355.645C16.2684 357.453 15.1386 357.001 17.6241 357.453Z" fill="#7688A1" fill-rule="evenodd" transform="matrix(1 0 0 1.00065 702.211 221)"/><path d="M84.5052 319.945 164.717 275.659" stroke="#CECECE" stroke-width="1.63326" stroke-dasharray="8.16628 4.89977" fill="none" fill-rule="evenodd" transform="matrix(1 0 0 1.00065 702.211 221)"/><path d="M235.666 237.021 342.314 178.274" stroke="#CECECE" stroke-width="1.63326" stroke-dasharray="8.16628 4.89977" fill="none" fill-rule="evenodd" transform="matrix(1 0 0 1.00065 702.211 221)"/><path d="M250.352 331.92 316.33 295.542" stroke="#CECECE" stroke-width="1.63326" stroke-dasharray="8.16628 4.89977" fill="none" fill-rule="evenodd" transform="matrix(1 0 0 1.00065 702.211 221)"/><path d="M229.565 294.413 250.352 331.92" stroke="#CECECE" stroke-width="1.63326" stroke-dasharray="8.16628 4.89977" fill="none" fill-rule="evenodd" transform="matrix(1 0 0 1.00065 702.211 221)"/><path d="M312.037 123.143 342.314 178.274" stroke="#CECECE" stroke-width="1.63326" stroke-dasharray="8.16628 4.89977" fill="none" fill-rule="evenodd" transform="matrix(1 0 0 1.00065 702.211 221)"/><path d="M350.674 178.274C350.674 182.892 346.931 186.635 342.314 186.635 337.697 186.635 333.954 182.892 333.954 178.274 333.954 173.657 337.697 169.914 342.314 169.914 346.931 169.914 350.674 173.657 350.674 178.274Z" fill="#FCC21C" fill-rule="evenodd" transform="matrix(1 0 0 1.00065 702.211 221)"/><path d="M272.27 216.234 268.654 223.464 265.039 230.695 260.746 222.787 256.227 214.652 264.135 215.556Z" fill="#FCC21C" fill-rule="evenodd" transform="matrix(1 0 0 1.00065 702.211 221)"/><path d="M273.173 319.267 269.558 326.498 265.943 333.728 261.65 325.594 257.131 317.46 265.265 318.363Z" fill="#FCC21C" fill-rule="evenodd" transform="matrix(1 0 0 1.00065 702.211 221)"/><path d="M135.344 292.153 138.733 284.923 142.122 277.692 146.867 285.601 151.386 293.509 143.252 292.831Z" fill="#FCC21C" fill-rule="evenodd" transform="matrix(1 0 0 1.00065 702.211 221)"/><path d="M116.59 302.095 112.975 309.325 109.586 316.556 105.067 308.647 100.548 300.513 108.682 301.417Z" fill="#FCC21C" fill-rule="evenodd" transform="matrix(1 0 0 1.00065 702.211 221)"/><path d="M296.446 203.129 299.835 195.899 303.225 188.668 307.97 196.576 312.489 204.485 304.58 203.807Z" fill="#FCC21C" fill-rule="evenodd" transform="matrix(1 0 0 1.00065 702.211 221)"/><path d="M286.956 311.585 290.346 304.354 293.735 297.124 298.254 305.032 302.999 312.941 294.865 312.263Z" fill="#FCC21C" fill-rule="evenodd" transform="matrix(1 0 0 1.00065 702.211 221)"/><text fill="#2B2A29" font-family="Arial,Arial_MSFontService,sans-serif" font-weight="400" font-size="63.7509" transform="matrix(0.22595 0 0 0.226097 740.171 597)">EV</text><text fill="#2B2A29" font-family="Arial,Arial_MSFontService,sans-serif" font-weight="400" font-size="63.7509" transform="matrix(0.22595 0 0 0.226097 740.171 597)">EV</text><text fill="#2B2A29" font-family="Arial,Arial_MSFontService,sans-serif" font-weight="400" font-size="63.7509" transform="matrix(0.22595 0 0 0.226097 820.609 451)">Home</text><text fill="#2B2A29" font-family="Arial,Arial_MSFontService,sans-serif" font-weight="400" font-size="63.7509" transform="matrix(0.22595 0 0 0.226097 859.032 451)">+</text><text fill="#2B2A29" font-family="Arial,Arial_MSFontService,sans-serif" font-weight="400" font-size="63.7509" transform="matrix(0.22595 0 0 0.226097 867.444 451)">Solar</text><text fill="#2B2A29" font-family="Arial,Arial_MSFontService,sans-serif" font-weight="400" font-size="63.7509" transform="matrix(0.22595 0 0 0.226097 901.071 451)">-</text><text fill="#2B2A29" font-family="Arial,Arial_MSFontService,sans-serif" font-weight="400" font-size="63.7509" transform="matrix(0.22595 0 0 0.226097 905.868 451)">PV</text><path d="M318.589 278.596C318.589 269.558 317.46 271.14 323.56 271.14L337.569 271.14C339.151 271.14 341.862 270.914 343.896 271.14 343.896 271.592 343.896 271.592 343.896 271.592 345.025 269.332 344.122 308.873 344.122 317.008 342.314 318.137 338.699 317.234 336.439 317.234L319.719 317.234C319.041 317.234 319.493 317.234 318.589 317.008L318.589 278.596ZM325.142 269.558C315.2 270.01 317.008 266.621 317.008 291.249L317.008 311.133C317.008 316.104 315.878 318.815 321.301 318.815 323.334 318.815 342.992 319.267 344.574 318.815 346.833 318.137 346.155 312.941 346.155 310.229L346.155 274.981C346.155 268.202 344.574 269.558 338.021 269.558L337.117 266.847C335.31 266.621 332.146 266.621 329.887 266.621 324.916 266.621 326.272 266.169 325.142 269.558Z" fill="#7690C9" fill-rule="evenodd" transform="matrix(1 0 0 1.00065 702.211 221)"/><path d="M342.314 306.84C338.473 306.388 333.276 306.388 328.983 306.388 318.589 306.388 320.623 305.71 320.171 311.133 320.171 314.296 319.493 315.652 322.43 315.652L342.54 315.652C342.992 313.844 342.992 308.422 342.314 306.84Z" fill="#7690C9" fill-rule="evenodd" transform="matrix(1 0 0 1.00065 702.211 221)"/><path d="M320.171 286.73C320.171 291.249 319.719 292.831 321.753 293.283L342.54 293.283C342.54 291.023 343.444 285.827 342.314 284.471L324.012 284.019C320.849 284.019 320.171 283.567 320.171 286.73Z" fill="#7690C9" fill-rule="evenodd" transform="matrix(1 0 0 1.00065 702.211 221)"/><path d="M320.623 295.542C320.171 297.124 320.171 302.547 320.623 304.58L342.54 304.58C342.992 302.547 342.992 297.124 342.314 295.316L320.623 295.542Z" fill="#7690C9" fill-rule="evenodd" transform="matrix(1 0 0 1.00065 702.211 221)"/><path d="M320.623 281.985 342.54 281.985C342.992 280.178 342.992 274.755 342.314 273.173L320.849 273.173C320.171 274.755 320.171 280.178 320.623 281.985Z" fill="#7690C9" fill-rule="evenodd" transform="matrix(1 0 0 1.00065 702.211 221)"/><text fill="#2B2A29" font-family="Arial,Arial_MSFontService,sans-serif" font-weight="400" font-size="63.7509" transform="matrix(0.22595 0 0 0.226097 1016.28 556)">BESS</text><path d="M265.943 112.297C277.466 103.259 272.044 101.451 283.567 101.451 286.053 101.451 288.312 100.774 289.668 101.903 290.12 101.903 290.797 103.259 291.475 103.711 291.927 104.389 292.605 104.389 293.283 105.067 295.542 107.326 298.028 110.941 300.513 112.297 296.22 114.783 269.558 114.783 265.943 112.297ZM194.769 110.941C195.899 109.812 201.999 102.581 205.162 100.096 212.393 92.8654 208.778 94.2211 220.753 94.2211 227.306 94.2211 227.306 93.5432 230.469 96.4806L243.574 110.489C241.314 111.619 241.314 110.489 239.959 112.749 238.151 115.912 241.314 112.297 239.507 113.427L198.384 113.427 197.254 110.941 194.769 110.941ZM206.97 88.7983C207.422 88.1204 208.1 88.1204 208.778 87.4426L218.945 79.7603 232.728 90.6059 205.162 90.6059 206.97 88.7983ZM221.883 77.2748C223.238 76.1451 226.854 73.6597 227.983 72.9818 229.113 76.1451 232.728 83.3755 234.084 86.3128 232.276 85.635 223.238 78.4046 221.883 77.2748ZM204.485 86.3128C205.614 82.6976 209.907 73.6597 209.907 73.6597L210.585 72.9818C212.393 74.3375 214.2 75.4673 216.008 77.2748L207.422 84.5052C206.292 85.1831 205.614 85.635 204.485 86.3128ZM218.945 9.03799C220.075 11.5234 222.561 21.0133 222.561 23.0469L215.33 23.0469 218.945 9.03799ZM187.538 32.5368C190.476 36.152 204.485 33.2146 209.23 34.3444L209.23 45.8678C205.614 48.3533 194.769 50.6128 190.476 52.4204 187.538 53.7761 189.346 52.4204 187.538 54.228 188.668 57.3913 190.024 56.7134 196.576 56.7134 200.192 56.7134 203.807 56.7134 208.1 56.7134 207.422 74.3375 208.778 66.8812 200.869 85.635 197.254 93.5432 192.283 103.259 190.024 110.941L185.731 110.941C183.245 116.59 183.923 112.297 170.592 114.105L170.592 118.398 322.204 118.398 322.204 114.105C317.234 113.427 308.196 114.105 305.258 112.749 302.321 111.619 299.158 102.581 297.35 97.8363 293.735 89.2502 290.12 85.1831 291.475 74.7894 296.22 74.3375 302.321 75.4673 305.258 74.3375 304.58 70.7223 293.283 69.3666 290.12 66.8812 289.668 65.0736 290.12 61.4584 290.12 59.1989 295.091 57.8432 300.965 59.6508 305.258 58.521 304.58 54.9058 303.451 56.0356 298.028 54.228 287.182 50.6128 288.99 53.7761 285.375 38.6374 284.697 36.152 284.697 35.7001 282.889 35.0222 279.274 37.9596 280.404 48.8052 276.789 51.2906 276.337 51.9685 270.236 53.7761 269.106 54.228 261.876 56.0356 261.876 54.9058 261.198 58.521L276.337 58.521 276.337 66.8812C273.173 68.2369 262.328 71.1742 261.198 73.6597 264.135 76.1451 270.914 74.3375 274.981 74.7894 276.337 83.8274 273.173 87.4426 270.236 94.673 262.328 112.749 265.491 113.427 253.29 113.427L252.16 110.941 248.545 110.941 232.276 72.9818C229.791 66.8812 230.469 63.9438 230.469 56.7134 233.406 56.7134 247.867 57.3913 250.352 55.5837 249.675 52.4204 246.737 52.4204 239.959 50.1609 236.344 48.8052 232.276 47.6754 228.661 45.8678L228.661 34.3444C231.599 34.3444 247.415 35.0222 250.352 33.2146 250.352 29.5994 246.059 29.5994 239.507 27.114L229.791 24.1766C225.046 23.0469 226.854 22.369 223.69 11.5234 223.238 9.71584 222.561 7.90825 221.883 6.10065 221.883 5.4228 221.431 3.6152 221.431 2.93735 220.075 0 221.431 1.12975 219.623 0 216.46 1.12975 216.46 4.74495 214.652 11.5234 214.2 14.4608 212.845 22.369 210.585 23.4988 206.97 25.9842 188.216 28.4697 187.538 32.5368Z" fill="#A7A9A8" fill-rule="evenodd" transform="matrix(1 0 0 1.00065 702.211 221)"/><path d="M194.769 110.941 197.254 110.941 198.384 113.427 239.507 113.427C241.314 112.297 238.151 115.912 239.959 112.749 241.314 110.489 241.314 111.619 243.574 110.489L230.469 96.4806C227.306 93.5432 227.306 94.2211 220.753 94.2211 208.778 94.2211 212.393 92.8654 205.162 100.096 201.999 102.581 195.899 109.812 194.769 110.941Z" fill="#FFFFFF" fill-rule="evenodd" transform="matrix(1 0 0 1.00065 702.211 221)"/><path d="M265.943 112.297C269.558 114.783 296.22 114.783 300.513 112.297 298.028 110.941 295.542 107.326 293.283 105.067 292.605 104.389 291.927 104.389 291.475 103.711 290.797 103.259 290.12 101.903 289.668 101.903 288.312 100.774 286.053 101.451 283.567 101.451 272.044 101.451 277.466 103.259 265.943 112.297Z" fill="#FFFFFF" fill-rule="evenodd" transform="matrix(1 0 0 1.00065 702.211 221)"/><path d="M205.162 90.6059 232.728 90.6059 218.945 79.7603 208.778 87.4426C208.1 88.1204 207.422 88.1204 206.97 88.7983L205.162 90.6059Z" fill="#FFFFFF" fill-rule="evenodd" transform="matrix(1 0 0 1.00065 702.211 221)"/><path d="M221.883 77.2748C223.238 78.4046 232.276 85.635 234.084 86.3128 232.728 83.3755 229.113 76.1451 227.983 72.9818 226.854 73.6597 223.238 76.1451 221.883 77.2748Z" fill="#FFFFFF" fill-rule="evenodd" transform="matrix(1 0 0 1.00065 702.211 221)"/><path d="M204.485 86.3128C205.614 85.635 206.292 85.1831 207.422 84.5052L216.008 77.2748C214.2 75.4673 212.393 74.3375 210.585 72.9818L209.907 73.6597C209.907 73.6597 205.614 82.6976 204.485 86.3128Z" fill="#FFFFFF" fill-rule="evenodd" transform="matrix(1 0 0 1.00065 702.211 221)"/><path d="M215.33 23.0469 222.561 23.0469C222.561 21.0133 220.075 11.5234 218.945 9.03799L215.33 23.0469Z" fill="#FFFFFF" fill-rule="evenodd" transform="matrix(1 0 0 1.00065 702.211 221)"/><path d="M244.252 65.0736C246.059 66.4293 246.059 66.4293 248.545 65.7514 249.223 63.266 249.223 61.4584 248.545 59.1989 246.059 58.521 246.059 58.521 243.574 59.1989 243.122 61.4584 243.122 63.266 244.252 65.0736Z" fill="#9C9C9C" fill-rule="evenodd" transform="matrix(1 0 0 1.00065 702.211 221)"/><path d="M247.867 42.9305C249.223 41.1229 249.223 39.3153 248.545 36.8298 246.059 36.152 243.574 35.7001 243.574 39.3153 243.122 43.3824 244.252 44.0602 247.867 42.9305Z" fill="#9C9C9C" fill-rule="evenodd" transform="matrix(1 0 0 1.00065 702.211 221)"/><path d="M226.628 70.7223C224.82 70.4964 213.297 70.4964 211.489 70.9483 214.2 72.7559 216.686 73.8856 219.623 75.4673 220.979 74.3375 225.498 72.304 226.628 70.7223Z" fill="#FFFFFF" fill-rule="evenodd" transform="matrix(1 0 0 1.00065 702.211 221)"/><path d="M213.523 68.6888C214.652 68.9147 223.238 69.1407 224.594 68.4628 222.561 67.3331 220.753 66.4293 218.719 65.2995 217.59 66.2033 214.2 67.559 213.523 68.6888Z" fill="#FFFFFF" fill-rule="evenodd" transform="matrix(1 0 0 1.00065 702.211 221)"/><path d="M224.594 60.1027C223.238 60.1027 214.426 59.8767 213.071 60.3286 215.33 61.6843 217.138 62.5881 219.171 63.7179 220.301 62.8141 223.69 61.4584 224.594 60.1027Z" fill="#FFFFFF" fill-rule="evenodd" transform="matrix(1 0 0 1.00065 702.211 221)"/><path d="M212.167 61.0065C212.167 61.6843 211.941 67.3331 212.167 68.2369 213.071 66.8812 213.523 65.7514 214.426 64.3957 213.975 63.7179 212.845 61.4584 212.167 61.0065Z" fill="#FFFFFF" fill-rule="evenodd" transform="matrix(1 0 0 1.00065 702.211 221)"/><path d="M225.272 61.0065C225.498 61.6843 225.724 67.3331 225.272 68.2369 224.594 66.8812 223.916 65.7514 223.013 64.3957 223.69 63.7179 224.594 61.4584 225.272 61.0065Z" fill="#FFFFFF" fill-rule="evenodd" transform="matrix(1 0 0 1.00065 702.211 221)"/><path d="M212.393 48.8052 225.58 48.8052 225.58 54.3386 212.393 54.3386Z" fill="#FEFEFE" fill-rule="evenodd" transform="matrix(1 0 0 1.00065 702.211 221)"/><path d="M229.113 54.4539 244.026 54.4539 229.113 48.8052 229.113 54.4539 239.281 54.4539Z" fill="#FEFEFE" fill-rule="evenodd" transform="matrix(1 0 0 1.00065 702.211 221)"/><path d="M209.004 54.4539 194.091 54.4539 209.004 48.8052 209.004 54.4539 198.61 54.4539Z" fill="#FEFEFE" fill-rule="evenodd" transform="matrix(1 0 0 1.00065 702.211 221)"/><path d="M213.523 44.5121C214.652 44.7381 223.238 44.7381 224.594 44.2862 222.561 43.1564 220.753 42.2526 218.719 41.1229 217.59 41.8007 214.2 43.3824 213.523 44.5121Z" fill="#FFFFFF" fill-rule="evenodd" transform="matrix(1 0 0 1.00065 702.211 221)"/><path d="M224.594 35.926C223.238 35.7001 214.426 35.7001 213.071 36.152 215.33 37.5077 217.138 38.1855 219.171 39.5412 220.301 38.6374 223.69 37.0558 224.594 35.926Z" fill="#FFFFFF" fill-rule="evenodd" transform="matrix(1 0 0 1.00065 702.211 221)"/><path d="M212.167 36.8298C212.167 37.5077 211.941 43.1564 212.167 44.0602 213.071 42.7045 213.523 41.5748 214.426 40.2191 213.975 39.5412 212.845 37.2817 212.167 36.8298Z" fill="#FFFFFF" fill-rule="evenodd" transform="matrix(1 0 0 1.00065 702.211 221)"/><path d="M225.272 36.8298C225.498 37.5077 225.724 43.1564 225.272 44.0602 224.594 42.7045 223.916 41.5748 223.013 40.2191 223.69 39.5412 224.594 37.2817 225.272 36.8298Z" fill="#FFFFFF" fill-rule="evenodd" transform="matrix(1 0 0 1.00065 702.211 221)"/><path d="M238.377 93.9951 244.252 107.778 232.728 93.9951 238.377 93.9951 238.377 104.163Z" fill="#FEFEFE" fill-rule="evenodd" transform="matrix(1 0 0 1.00065 702.211 221)"/><path d="M199.966 93.9951 194.317 107.778 205.614 93.9951 199.966 93.9951 199.966 104.163Z" fill="#FEFEFE" fill-rule="evenodd" transform="matrix(1 0 0 1.00065 702.211 221)"/><path d="M212.393 26.2102 225.58 26.2102 225.58 31.7437 212.393 31.7437Z" fill="#FEFEFE" fill-rule="evenodd" transform="matrix(1 0 0 1.00065 702.211 221)"/><path d="M229.113 31.8589 244.026 31.8589 229.113 26.2102 229.113 31.8589 239.281 31.8589Z" fill="#FEFEFE" fill-rule="evenodd" transform="matrix(1 0 0 1.00065 702.211 221)"/><path d="M209.004 31.8589 194.091 31.8589 209.004 26.2102 209.004 31.8589 198.61 31.8589Z" fill="#FEFEFE" fill-rule="evenodd" transform="matrix(1 0 0 1.00065 702.211 221)"/><path d="M189.572 65.0736C191.38 66.4293 191.38 66.4293 193.639 65.7514 194.317 63.266 194.317 61.4584 193.639 59.1989 191.38 58.521 191.38 58.521 188.894 59.1989 188.216 61.4584 188.216 63.266 189.572 65.0736Z" fill="#9C9C9C" fill-rule="evenodd" transform="matrix(1 0 0 1.00065 702.211 221)"/><path d="M193.187 42.9305C194.317 41.1229 194.317 39.3153 193.639 36.8298 191.38 36.152 188.894 35.7001 188.894 39.3153 188.216 43.3824 189.572 44.0602 193.187 42.9305Z" fill="#9C9C9C" fill-rule="evenodd" transform="matrix(1 0 0 1.00065 702.211 221)"/><path d="M262.328 79.9863C263.458 80.89 263.458 80.89 265.039 80.4381 265.491 78.8565 265.491 77.5008 265.039 75.9192 263.458 75.4673 263.458 75.4673 261.876 75.9192 261.424 77.5008 261.424 78.8565 262.328 79.9863Z" fill="#9C9C9C" fill-rule="evenodd" transform="matrix(1 0 0 1.00065 702.211 221)"/><path d="M264.813 64.1698C265.491 63.04 265.491 61.9103 265.039 60.1027 263.458 59.8767 261.876 59.4248 261.876 61.9103 261.424 64.6217 262.328 65.0736 264.813 64.1698Z" fill="#9C9C9C" fill-rule="evenodd" transform="matrix(1 0 0 1.00065 702.211 221)"/><path d="M301.191 79.9863C302.547 80.89 302.547 80.89 304.129 80.4381 304.58 78.8565 304.58 77.5008 304.129 75.9192 302.547 75.4673 302.547 75.4673 300.965 75.9192 300.513 77.5008 300.513 78.8565 301.191 79.9863Z" fill="#9C9C9C" fill-rule="evenodd" transform="matrix(1 0 0 1.00065 702.211 221)"/><path d="M303.677 64.1698C304.58 63.04 304.58 61.9103 304.129 60.1027 302.547 59.8767 300.965 59.4248 300.965 61.9103 300.513 64.6217 301.191 65.0736 303.677 64.1698Z" fill="#9C9C9C" fill-rule="evenodd" transform="matrix(1 0 0 1.00065 702.211 221)"/><text fill="#2B2A29" font-family="Arial,Arial_MSFontService,sans-serif" font-weight="400" font-size="63.7509" transform="matrix(0.22595 0 0 0.226097 959.342 232)">Electricity</text><text fill="#2B2A29" font-family="Arial,Arial_MSFontService,sans-serif" font-weight="400" font-size="63.7509" transform="matrix(0.22595 0 0 0.226097 959.342 248)">Grid</text></g></svg>