<?xml version="1.0" encoding="UTF-8" standalone="no"?>
<!-- Created with Inkscape (http://www.inkscape.org/) -->

<svg
   width="279.48737mm"
   height="148.26575mm"
   viewBox="0 0 279.48737 148.26575"
   version="1.1"
   id="svg1"
   xml:space="preserve"
   xmlns:xlink="http://www.w3.org/1999/xlink"
   xmlns="http://www.w3.org/2000/svg"
   xmlns:svg="http://www.w3.org/2000/svg"><defs
     id="defs1"><linearGradient
       id="linearGradient18-1"><stop
         style="stop-color:#1900b8;stop-opacity:1;"
         offset="0"
         id="stop18" /><stop
         style="stop-color:#e4009f;stop-opacity:1;"
         offset="1"
         id="stop19" /></linearGradient><linearGradient
       id="swatch15"><stop
         style="stop-color:#000000;stop-opacity:1;"
         offset="0"
         id="stop16" /></linearGradient><linearGradient
       xlink:href="#linearGradient18-1"
       id="linearGradient19"
       x1="18.684362"
       y1="61.682022"
       x2="191.0367"
       y2="61.682022"
       gradientUnits="userSpaceOnUse"
       gradientTransform="matrix(1.6137351,0,0,1.6137351,-22.326977,-15.565631)" /><rect
       x="-226.15485"
       y="1223.599"
       width="904.61938"
       height="447.24652"
       id="rect2" /><rect
       x="-226.15485"
       y="1223.599"
       width="904.61938"
       height="447.24652"
       id="rect2-0" /></defs><g
     id="layer1"
     transform="translate(-7.1464432,-9.8399241)"><path
       id="path1"
       style="fill:none;fill-opacity:1;stroke:url(#linearGradient19);stroke-width:19.5351;stroke-dasharray:none;stroke-opacity:1"
       d="m 81.279323,19.607475 c -35.547779,0 -64.365329,28.817549 -64.365329,64.365329 3e-6,35.547776 28.817552,64.365326 64.365329,64.365326 35.547777,0 65.557847,-28.81754 65.557847,-64.365326 0,-35.547781 -30.01006,-64.365333 -65.557847,-64.365329 z m 131.221577,0 c -35.54777,2e-6 -65.55866,28.81755 -65.55866,64.365329 0,35.547776 30.01089,64.365326 65.55866,64.365326 35.5478,0 64.36534,-28.81755 64.36534,-64.365326 0,-35.547779 -28.81754,-64.365327 -64.36534,-64.365329 z" /></g><text
     xml:space="preserve"
     transform="matrix(0.36919006,0,0,0.36919006,116.73689,-376.79387)"
     id="text2"
     style="font-size:37.7953px;line-height:0;white-space:pre;shape-inside:url(#rect2);display:inline;fill:#0000ba;fill-opacity:1"><tspan
       x="-226.1543"
       y="1234.3663"
       id="tspan4"><tspan
         style="font-weight:bold;font-family:Roboto;-inkscape-font-specification:'Roboto Bold'"
         id="tspan1">Development</tspan></tspan></text><text
     xml:space="preserve"
     transform="matrix(0.36919006,0,0,0.36919006,257.706,-376.96421)"
     id="text2-9"
     style="font-size:37.7953px;line-height:0;white-space:pre;shape-inside:url(#rect2-0);display:inline;fill:#ff009c;fill-opacity:1"><tspan
       x="-226.1543"
       y="1234.3663"
       id="tspan6"><tspan
         style="font-weight:bold;font-family:Roboto;-inkscape-font-specification:'Roboto Bold'"
         id="tspan5">Operation</tspan></tspan></text></svg>
