<?xml version="1.0" encoding="UTF-8" standalone="no"?>
<!-- Created with Inkscape (http://www.inkscape.org/) -->

<svg
   width="48"
   height="48"
   viewBox="0 0 12.7 12.7"
   version="1.1"
   id="svg5"
   inkscape:version="1.3 (0e150ed6c4, 2023-07-21)"
   sodipodi:docname="favicon.svg"
   inkscape:export-filename="logo.png"
   inkscape:export-xdpi="768"
   inkscape:export-ydpi="768"
   xmlns:inkscape="http://www.inkscape.org/namespaces/inkscape"
   xmlns:sodipodi="http://sodipodi.sourceforge.net/DTD/sodipodi-0.dtd"
   xmlns="http://www.w3.org/2000/svg"
   xmlns:svg="http://www.w3.org/2000/svg">
  <sodipodi:namedview
     id="namedview7"
     pagecolor="#ffffff"
     bordercolor="#666666"
     borderopacity="1.0"
     inkscape:pageshadow="2"
     inkscape:pageopacity="0.0"
     inkscape:pagecheckerboard="0"
     inkscape:document-units="px"
     showgrid="false"
     units="px"
     width="32px"
     inkscape:zoom="10.248373"
     inkscape:cx="20.881363"
     inkscape:cy="31.761139"
     inkscape:window-width="1920"
     inkscape:window-height="1009"
     inkscape:window-x="1920"
     inkscape:window-y="603"
     inkscape:window-maximized="1"
     inkscape:current-layer="layer1"
     inkscape:showpageshadow="2"
     inkscape:deskcolor="#d1d1d1" />
  <defs
     id="defs2" />
  <g
     inkscape:label="Calque 1"
     inkscape:groupmode="layer"
     id="layer1"
     transform="translate(1.6792464,2.1166667)">
    <rect
       style="fill:#424242;fill-opacity:1;stroke:none;stroke-width:0.273143;-inkscape-stroke:none"
       id="rect1"
       width="12.7"
       height="12.7"
       x="-1.6792464"
       y="-2.1166668"
       ry="1.5474569" />
    <path
       style="fill:#bf360c;fill-opacity:1;stroke:#ffffff;stroke-width:0.5883;stroke-miterlimit:4;stroke-dasharray:none;stroke-opacity:1"
       id="path6342"
       sodipodi:type="arc"
       sodipodi:cx="-6.6192966"
       sodipodi:cy="1.1959208"
       sodipodi:rx="7.1524034"
       sodipodi:ry="7.1524034"
       sodipodi:start="0"
       sodipodi:end="1.5707963"
       sodipodi:arc-type="slice"
       transform="matrix(-0.25881634,-0.96592655,0.96592512,-0.25882168,0,0)"
       d="M 0.5331068,1.1959208 A 7.1524034,7.1524034 0 0 1 -6.6192966,8.3483242 V 1.1959208 Z" />
    <circle
       style="fill:#ff6f00;fill-opacity:1;stroke:#ffffff;stroke-width:0.78967;stroke-miterlimit:4;stroke-dasharray:none;stroke-opacity:1"
       id="path846"
       cx="5.5261779"
       cy="4.0588274"
       r="3.1586792"
       transform="rotate(30.000002)" />
    <path
       d="m 2.7884163,7.9761081 c 0.5231845,0 0.9702694,-0.156955 1.3412548,-0.4708659 V 5.9737387 H 2.6457296 v 0.6944085 h 0.6991647 v 0.4994033 c -0.1141493,0.061831 -0.2711046,0.095125 -0.4565972,0.095125 -0.5945279,0 -0.9655133,-0.3852544 -0.9655133,-1.0130758 0,-0.6135526 0.3567167,-0.941732 1.0273442,-0.941732 0.280617,0 0.6087964,0.052319 0.8275826,0.128418 L 4.0060093,4.7894393 C 3.7253922,4.656265 3.3496506,4.5801654 2.973909,4.5801654 c -1.1700307,0 -1.9167577,0.7039211 -1.9167577,1.7360214 0,0.9940505 0.6944085,1.6599213 1.731265,1.6599213 z"
       style="font-weight:800;font-size:6.28963px;line-height:1.25;font-family:Cantarell;-inkscape-font-specification:'Cantarell Ultra-Bold';fill:#ffffff;stroke-width:0.118905"
       id="path9331" />
  </g>
</svg>
