<?xml version="1.0" encoding="UTF-8" standalone="no"?>
<!-- Created with Inkscape (http://www.inkscape.org/) -->

<svg
   width="220"
   height="48"
   viewBox="0 0 58.208334 12.7"
   version="1.1"
   id="svg5"
   inkscape:version="1.1.2 (0a00cf5339, 2022-02-04, custom)"
   sodipodi:docname="logo_full.svg"
   inkscape:export-filename="/home/adrien/Stockage/Code/geovisio/logo_full.png"
   inkscape:export-xdpi="96"
   inkscape:export-ydpi="96"
   xmlns:inkscape="http://www.inkscape.org/namespaces/inkscape"
   xmlns:sodipodi="http://sodipodi.sourceforge.net/DTD/sodipodi-0.dtd"
   xmlns="http://www.w3.org/2000/svg"
   xmlns:svg="http://www.w3.org/2000/svg">
  <sodipodi:namedview
     id="namedview7"
     pagecolor="#ffffff"
     bordercolor="#666666"
     borderopacity="1.0"
     inkscape:pageshadow="2"
     inkscape:pageopacity="0.0"
     inkscape:pagecheckerboard="0"
     inkscape:document-units="px"
     showgrid="false"
     units="pc"
     width="32px"
     inkscape:zoom="2.5620933"
     inkscape:cx="81.964228"
     inkscape:cy="25.174727"
     inkscape:window-width="1920"
     inkscape:window-height="1009"
     inkscape:window-x="1920"
     inkscape:window-y="573"
     inkscape:window-maximized="1"
     inkscape:current-layer="layer1" />
  <defs
     id="defs2">
    <filter
       style="color-interpolation-filters:sRGB"
       inkscape:label="Drop Shadow"
       id="filter1345"
       x="-0.2314438"
       y="-0.2314438"
       width="1.4628876"
       height="1.4628876">
      <feFlood
         flood-opacity="0.498039"
         flood-color="rgb(0,0,0)"
         result="flood"
         id="feFlood1335" />
      <feComposite
         in="flood"
         in2="SourceGraphic"
         operator="in"
         result="composite1"
         id="feComposite1337" />
      <feGaussianBlur
         in="composite1"
         stdDeviation="0.5"
         result="blur"
         id="feGaussianBlur1339" />
      <feOffset
         dx="0"
         dy="0"
         result="offset"
         id="feOffset1341" />
      <feComposite
         in="SourceGraphic"
         in2="offset"
         operator="over"
         result="composite2"
         id="feComposite1343" />
    </filter>
    <filter
       style="color-interpolation-filters:sRGB"
       inkscape:label="Drop Shadow"
       id="filter1389"
       x="-0.19034556"
       y="-0.19034556"
       width="1.3806911"
       height="1.3806911">
      <feFlood
         flood-opacity="0.498039"
         flood-color="rgb(0,0,0)"
         result="flood"
         id="feFlood1379" />
      <feComposite
         in="flood"
         in2="SourceGraphic"
         operator="in"
         result="composite1"
         id="feComposite1381" />
      <feGaussianBlur
         in="composite1"
         stdDeviation="0.5"
         result="blur"
         id="feGaussianBlur1383" />
      <feOffset
         dx="0"
         dy="0"
         result="offset"
         id="feOffset1385" />
      <feComposite
         in="SourceGraphic"
         in2="offset"
         operator="over"
         result="composite2"
         id="feComposite1387" />
    </filter>
  </defs>
  <g
     inkscape:label="Calque 1"
     inkscape:groupmode="layer"
     id="layer1">
    <g
       id="g1433"
       transform="matrix(0.88939861,0,0,0.88939861,0.96173083,0.76136943)">
      <path
         style="fill:#bf360c;fill-opacity:1;stroke:#ffffff;stroke-width:0.661458;stroke-miterlimit:4;stroke-dasharray:none;stroke-opacity:1;filter:url(#filter1389)"
         id="path6342"
         sodipodi:type="arc"
         sodipodi:cx="-9.2997351"
         sodipodi:cy="1.9117668"
         sodipodi:rx="8.0418425"
         sodipodi:ry="8.0418425"
         sodipodi:start="0"
         sodipodi:end="1.5707963"
         sodipodi:arc-type="slice"
         transform="matrix(-0.25881634,-0.96592655,0.96592512,-0.25882168,0,0)"
         d="M -1.2578926,1.9117668 A 8.0418425,8.0418425 0 0 1 -9.2997351,9.9536092 V 1.9117668 Z" />
      <circle
         style="fill:#ff6f00;fill-opacity:1;stroke:#ffffff;stroke-width:0.88787;stroke-miterlimit:4;stroke-dasharray:none;stroke-opacity:1;filter:url(#filter1345)"
         id="path846"
         cx="7.9277072"
         cy="5.4758525"
         r="3.5514777"
         transform="rotate(30.000002)" />
      <g
         aria-label="G"
         id="text6138"
         style="font-size:6.28963px;line-height:1.25;fill:#ffffff;stroke-width:0.157241"
         transform="translate(-0.25030657,-0.1242247)">
        <path
           d="m 4.4139773,10.739429 c 0.5882453,0 1.0909275,-0.176474 1.5080469,-0.529421 V 8.488054 H 4.2535468 v 0.7807619 h 0.7861095 v 0.5615067 c -0.1283444,0.06952 -0.3048179,0.1069541 -0.5133775,0.1069541 -0.6684606,0 -1.0855799,-0.4331628 -1.0855799,-1.1390571 0,-0.6898511 0.4010763,-1.0588414 1.1550998,-1.0588414 0.3155132,0 0.6845035,0.058825 0.9304969,0.1443875 L 5.7829844,7.1564808 C 5.4674711,7.0067456 5.0450041,6.9211826 4.622537,6.9211826 c -1.3155302,0 -2.1551166,0.7914573 -2.1551166,1.9519047 0,1.1176659 0.7807619,1.8663417 1.9465569,1.8663417 z"
           style="font-weight:800;font-family:Cantarell;-inkscape-font-specification:'Cantarell Ultra-Bold';stroke-width:0.133692"
           id="path9331" />
      </g>
    </g>
    <g
       aria-label="GeoVisio"
       id="text5482"
       style="font-size:10.5833px;line-height:1.25;fill:#bf360c;stroke-width:0.264583">
      <path
         d="m 18.031116,10.790434 c 1.09008,0 2.042577,-0.328082 2.836324,-0.9736637 V 6.557114 H 17.7242 v 1.1641629 h 1.820328 V 9.277022 c -0.380999,0.211666 -0.836081,0.317499 -1.344079,0.317499 -1.534579,0 -2.518826,-1.0265801 -2.518826,-2.6669915 0,-1.587495 0.920747,-2.4870755 2.561159,-2.4870755 0.634998,0 1.386412,0.1375829 1.95791,0.3386656 L 20.581691,3.7102064 C 19.946693,3.4032907 19.142362,3.2339579 18.316865,3.2339579 c -2.455326,0 -4.053404,1.5451617 -4.053404,3.8523211 0,2.2224929 1.502829,3.704155 3.767655,3.704155 z"
         style="font-weight:bold;font-family:Cantarell;-inkscape-font-specification:'Cantarell Bold'"
         id="path22995" />
      <path
         d="m 24.666852,10.790434 c 0.624414,0 1.280579,-0.127 1.83091,-0.359832 L 26.20143,9.4992713 c -0.412749,0.1693328 -0.867831,0.2645825 -1.301746,0.2645825 -0.93133,0 -1.492245,-0.4339153 -1.650995,-1.2805793 h 3.33374 c 0.03175,-0.211666 0.0635,-0.529165 0.0635,-0.7619976 0,-1.4075788 -0.857248,-2.2859927 -2.233077,-2.2859927 -1.534578,0 -2.561158,1.0900799 -2.561158,2.7093247 0,1.6509948 1.068913,2.6458251 2.815158,2.6458251 z M 24.317603,6.4724476 c 0.666748,0 1.05833,0.423332 1.05833,1.1641629 H 23.21694 c 0.08467,-0.7619975 0.465665,-1.1641629 1.100663,-1.1641629 z"
         style="font-weight:bold;font-family:Cantarell;-inkscape-font-specification:'Cantarell Bold'"
         id="path22997" />
      <path
         d="m 29.990249,10.790434 c 1.629829,0 2.719908,-1.1112466 2.719908,-2.7622414 0,-1.5769116 -1.005413,-2.5929084 -2.550575,-2.5929084 -1.629828,0 -2.719908,1.1006632 -2.719908,2.7622412 0,1.5663284 0.99483,2.5929086 2.550575,2.5929086 z m 0.116417,-1.1429965 c -0.793748,0 -1.301746,-0.6138314 -1.301746,-1.5663284 0,-0.9313303 0.465665,-1.5028285 1.227663,-1.5028285 0.793747,0 1.312329,0.6244146 1.312329,1.5874949 0,0.9101638 -0.476249,1.481662 -1.238246,1.481662 z"
         style="font-weight:bold;font-family:Cantarell;-inkscape-font-specification:'Cantarell Bold'"
         id="path22999" />
      <path
         d="m 35.948655,10.684601 h 1.418162 L 40.012642,3.3397909 H 38.605063 L 36.710652,9.065356 34.900908,3.3397909 h -1.587495 z"
         style="font-weight:bold;font-family:Cantarell;-inkscape-font-specification:'Cantarell Bold'"
         id="path23001" />
      <path
         d="m 41.653054,4.5886202 c 0.507998,0 0.83608,-0.3174989 0.83608,-0.8254973 0,-0.5079984 -0.328082,-0.8360807 -0.83608,-0.8360807 -0.507999,0 -0.825498,0.3280823 -0.825498,0.8360807 0,0.5079984 0.317499,0.8254973 0.825498,0.8254973 z m -0.677332,6.0959808 h 1.354663 V 5.5411172 h -1.354663 z"
         style="font-weight:bold;font-family:Cantarell;-inkscape-font-specification:'Cantarell Bold'"
         id="path23003" />
      <path
         d="m 45.473634,10.790434 c 1.418162,0 2.254242,-0.624415 2.254242,-1.6509949 0,-1.9261606 -2.910407,-1.2805793 -2.910407,-2.1484098 0,-0.3069157 0.370416,-0.4974151 0.984247,-0.4974151 0.444498,0 0.973663,0.09525 1.418162,0.2434159 L 47.51621,5.7316166 C 47.008212,5.5305339 46.447297,5.4352842 45.854632,5.4352842 c -1.481662,0 -2.338909,0.5926648 -2.338909,1.6509948 0,1.9155772 2.868074,1.1853295 2.868074,2.1166599 0,0.3280823 -0.349249,0.529165 -0.910163,0.529165 -0.518582,0 -1.21708,-0.1375829 -1.735662,-0.3598322 L 43.44164,10.367102 c 0.582082,0.264582 1.322913,0.423332 2.031994,0.423332 z"
         style="font-weight:bold;font-family:Cantarell;-inkscape-font-specification:'Cantarell Bold'"
         id="path23005" />
      <path
         d="m 49.484715,4.5886202 c 0.507998,0 0.836081,-0.3174989 0.836081,-0.8254973 0,-0.5079984 -0.328083,-0.8360807 -0.836081,-0.8360807 -0.507998,0 -0.825497,0.3280823 -0.825497,0.8360807 0,0.5079984 0.317499,0.8254973 0.825497,0.8254973 z m -0.677331,6.0959808 h 1.354662 V 5.5411172 h -1.354662 z"
         style="font-weight:bold;font-family:Cantarell;-inkscape-font-specification:'Cantarell Bold'"
         id="path23007" />
      <path
         d="m 53.813289,10.790434 c 1.629829,0 2.719908,-1.1112466 2.719908,-2.7622414 0,-1.5769116 -1.005413,-2.5929084 -2.550575,-2.5929084 -1.629828,0 -2.719908,1.1006632 -2.719908,2.7622412 0,1.5663284 0.99483,2.5929086 2.550575,2.5929086 z m 0.116417,-1.1429965 c -0.793748,0 -1.301746,-0.6138314 -1.301746,-1.5663284 0,-0.9313303 0.465665,-1.5028285 1.227663,-1.5028285 0.793747,0 1.312329,0.6244146 1.312329,1.5874949 0,0.9101638 -0.476249,1.481662 -1.238246,1.481662 z"
         style="font-weight:bold;font-family:Cantarell;-inkscape-font-specification:'Cantarell Bold'"
         id="path23009" />
    </g>
  </g>
</svg>
