<svg width="32" height="31" viewBox="0 0 32 31" fill="none" xmlns="http://www.w3.org/2000/svg">
<path d="M29.0911 27.0178L29.0911 19.2985C29.0911 18.0118 29.0911 18.0118 27.6364 18.0118L21.8181 18.0118C20.3634 18.0118 20.3634 18.0118 20.3634 19.2985L20.3634 27.0178C20.3634 28.3045 20.3634 28.3045 21.8181 28.3045L27.6364 28.3045C29.0911 28.3045 29.0911 28.3045 29.0911 27.0178ZM32 14.152L32 9.00607C32 7.71938 32 7.71938 30.5458 7.71938L27.6369 7.71938C26.1822 7.71938 26.1822 7.71938 26.1822 9.00607L26.1822 14.1524C26.1822 15.4391 26.1822 15.4391 27.6369 15.4391L30.5458 15.4389C32 15.4387 32 15.4387 32 14.152ZM17.4549 29.5905L17.4549 19.2985C17.4549 18.0118 17.4549 18.0118 16.0002 18.0118L4.36435 18.0118C2.90965 18.0118 2.90965 18.0118 2.90965 19.2985L2.90965 29.5905C2.90965 30.8772 2.90965 30.8772 4.36435 30.8772L16.0002 30.8772C17.4549 30.8772 17.4549 30.8772 17.4549 29.5905ZM8.72769 14.152L8.72769 6.43269C8.72769 5.146 8.72769 5.146 7.27299 5.146L1.4547 5.146C1.23566e-07 5.146 1.23566e-07 5.146 1.54462e-07 6.43269L3.39818e-07 14.152C3.70714e-07 15.4387 3.70714e-07 15.4387 1.4547 15.4387L7.27299 15.4387C8.72769 15.4387 8.72769 15.4387 8.72769 14.152ZM23.2728 14.152L23.2728 1.28669C23.2728 3.61312e-08 23.2728 1.41298e-07 21.8186 1.64842e-07L13.0914 3.0614e-07C11.6367 3.29692e-07 11.6367 2.24526e-07 11.6367 1.28669L11.6367 14.1525C11.6367 15.4388 11.6367 15.4388 13.0914 15.4388L21.8186 15.4388C23.2728 15.4388 23.2728 15.4388 23.2728 14.1521L23.2728 14.152Z" fill="white"/>
</svg>
