<svg width="20" height="20" viewBox="0 0 20 20" fill="none" xmlns="http://www.w3.org/2000/svg">
<path d="M2.5 5.08398C2.08579 5.08398 1.75 5.41977 1.75 5.83398C1.75 6.2482 2.08579 6.58398 2.5 6.58398V5.08398ZM2.5 13.4173C2.08579 13.4173 1.75 13.7531 1.75 14.1673C1.75 14.5815 2.08579 14.9173 2.5 14.9173V13.4173ZM7.5 14.9173C7.91421 14.9173 8.25 14.5815 8.25 14.1673C8.25 13.7531 7.91421 13.4173 7.5 13.4173V14.9173ZM17.5 14.9173C17.9142 14.9173 18.25 14.5815 18.25 14.1673C18.25 13.7531 17.9142 13.4173 17.5 13.4173V14.9173ZM12.5 5.08398C12.0858 5.08398 11.75 5.41977 11.75 5.83398C11.75 6.2482 12.0858 6.58398 12.5 6.58398V5.08398ZM17.5 6.58398C17.9142 6.58398 18.25 6.2482 18.25 5.83398C18.25 5.41977 17.9142 5.08398 17.5 5.08398V6.58398ZM2.5 6.58398H5V5.08398H2.5V6.58398ZM2.5 14.9173H7.5V13.4173H2.5V14.9173ZM15 14.9173H17.5V13.4173H15V14.9173ZM12.5 6.58398H17.5V5.08398H12.5V6.58398ZM14.25 14.1673C14.25 15.1338 13.4665 15.9173 12.5 15.9173V17.4173C14.2949 17.4173 15.75 15.9622 15.75 14.1673H14.25ZM12.5 15.9173C11.5335 15.9173 10.75 15.1338 10.75 14.1673H9.25C9.25 15.9622 10.7051 17.4173 12.5 17.4173V15.9173ZM10.75 14.1673C10.75 13.2008 11.5335 12.4173 12.5 12.4173V10.9173C10.7051 10.9173 9.25 12.3724 9.25 14.1673H10.75ZM12.5 12.4173C13.4665 12.4173 14.25 13.2008 14.25 14.1673H15.75C15.75 12.3724 14.2949 10.9173 12.5 10.9173V12.4173ZM9.25 5.83398C9.25 6.80048 8.4665 7.58398 7.5 7.58398V9.08398C9.29493 9.08398 10.75 7.62891 10.75 5.83398H9.25ZM7.5 7.58398C6.5335 7.58398 5.75 6.80048 5.75 5.83398H4.25C4.25 7.62891 5.70507 9.08398 7.5 9.08398V7.58398ZM5.75 5.83398C5.75 4.86749 6.5335 4.08398 7.5 4.08398V2.58398C5.70507 2.58398 4.25 4.03906 4.25 5.83398H5.75ZM7.5 4.08398C8.4665 4.08398 9.25 4.86749 9.25 5.83398H10.75C10.75 4.03906 9.29493 2.58398 7.5 2.58398V4.08398Z" fill="#D4D6D9"/>
</svg>
