<svg width="157" height="157" viewBox="0 0 157 157" fill="none" xmlns="http://www.w3.org/2000/svg">
<path d="M149.78 61.8032L128.939 59.4346C128.11 59.3165 127.4 58.8422 127.044 58.0136L118.4 38.9448C116.742 35.3914 111.769 35.3914 110.111 38.9448L101.467 58.0136C101.112 58.8431 100.401 59.3165 99.5721 59.4346L78.6121 61.8032C74.7043 62.2766 73.1645 67.0147 76.0069 69.6204L91.5193 83.7149C92.1116 84.3073 92.4667 85.1359 92.2297 85.9655L87.9667 106.455C87.1373 110.246 91.2823 113.207 94.5978 111.311L112.953 101.126C113.663 100.652 114.61 100.652 115.321 101.126L133.557 111.548C136.991 113.443 141.018 110.482 140.188 106.692L135.925 86.2017C135.807 85.3722 136.044 84.4254 136.636 83.9511L152.148 69.8566C155.109 67.0145 153.57 62.2765 149.78 61.8032Z" fill="#FEAA01"/>
<path d="M60.1362 106.345L50.3685 105.24C49.9798 105.185 49.6469 104.963 49.4805 104.576L45.4292 95.6748C44.6522 94.016 42.3214 94.016 41.5444 95.6748L37.4931 104.576C37.3266 104.964 36.9937 105.185 36.605 105.24L26.7817 106.345C24.9502 106.566 24.2286 108.778 25.5607 109.995L32.8309 116.574C33.1085 116.851 33.275 117.238 33.1639 117.625L31.1659 127.19C30.7772 128.959 32.7199 130.342 34.2737 129.457L42.8761 124.702C43.209 124.481 43.653 124.481 43.986 124.702L52.5329 129.567C54.1422 130.452 56.0294 129.07 55.6407 127.3L53.6428 117.735C53.5874 117.348 53.6981 116.906 53.9757 116.685L61.2459 110.105C62.6338 108.778 61.9123 106.566 60.1362 106.345Z" fill="#FEAA01"/>
<path d="M20.3796 142.612L14.7341 141.979C14.5094 141.948 14.317 141.821 14.2208 141.6L11.8792 136.509C11.4302 135.561 10.083 135.561 9.63389 136.509L7.29232 141.6C7.1961 141.821 7.00367 141.948 6.77903 141.979L1.10133 142.612C0.0427836 142.738 -0.374334 144.003 0.395631 144.698L4.59767 148.461C4.7581 148.619 4.85432 148.84 4.7901 149.062L3.63533 154.532C3.41068 155.544 4.53348 156.334 5.43159 155.828L10.4036 153.109C10.596 152.983 10.8527 152.983 11.0451 153.109L15.9851 155.891C16.9152 156.397 18.006 155.607 17.7813 154.595L16.6265 149.125C16.5946 148.903 16.6585 148.651 16.819 148.524L21.021 144.761C21.8232 144.003 21.4062 142.738 20.3796 142.612Z" fill="#FEAA01"/>
<path d="M114.124 26.385C117.676 26.385 120.72 23.5626 120.72 20.0032V6.38182C120.72 2.82329 117.803 0 114.124 0C110.446 0 107.528 2.82241 107.528 6.38182V20.0041C107.528 23.5626 110.572 26.385 114.124 26.385Z" fill="#7CD0D8"/>
<path d="M153.239 10.5164C149.853 9.04116 145.814 10.2892 144.251 13.2396L137.868 24.5856C136.305 27.5353 137.607 30.9391 140.994 32.4145C141.907 32.868 142.948 32.9819 143.99 32.9819C146.465 32.9819 148.81 31.7338 149.983 29.692L156.366 18.3461C157.929 15.5088 156.496 11.9918 153.239 10.5164Z" fill="#7CD0D8"/>
<path d="M84.2664 32.9819C85.3075 32.9819 86.2179 32.7542 87.259 32.4132C90.6419 30.9348 91.9434 27.5243 90.3822 24.5673L84.006 13.1968C82.4448 10.2407 78.4112 9.10346 75.0273 10.4677C71.6444 11.9461 70.3429 15.3566 71.9042 18.3136L78.2804 29.6841C79.4513 31.7312 81.7939 32.9819 84.2664 32.9819Z" fill="#7CD0D8"/>
</svg>
