<?xml version="1.0" encoding="UTF-8"?><svg id="a" xmlns="http://www.w3.org/2000/svg" width="1026" height="1013" viewBox="0 0 1026 1013"><polygon points="283.05 62.93 262.72 1 .94 1 116.62 327.13 283.05 62.93" fill="#ff4500"/><polygon points="1025.06 1 764.71 1 657.03 327.13 951 209.8 1025.06 1" fill="#a4c217"/><polygon points="951 209.8 764.71 1 1025.06 1 951 209.8" fill="#d5ca29"/><polygon points="370.23 327.13 283.05 62.93 167.57 246.24 370.23 327.13" fill="#d6493e"/><polygon points="257.82 725.23 513 763.35 370.23 327.13 196.73 553.01 257.82 725.23" fill="#a63b94"/><polygon points="513 763.35 768.14 725.34 832.77 543.13 657.03 327.13 513 763.35" fill="#2db686"/><polygon points="513 763.35 666.91 1010.74 359.09 1010.74 513 763.35" fill="#0197d8"/><polygon points="513 763.35 359.09 1010.74 257.82 725.23 513 763.35" fill="#336c9b"/><polygon points="666.91 1010.74 768.14 725.34 513 763.35 666.91 1010.74" fill="#26bf79"/><polygon points="196.73 553.01 370.23 327.13 74.79 209.21 196.73 553.01" fill="#cc4e84"/><polygon points="832.77 543.13 657.03 327.13 951 209.8 832.77 543.13" fill="#1bc07d"/></svg>