<?xml version="1.0" standalone="no"?>
<!DOCTYPE svg PUBLIC "-//W3C//DTD SVG 1.1//EN" "http://www.w3.org/Graphics/SVG/1.1/DTD/svg11.dtd">
<svg xmlns="http://www.w3.org/2000/svg">
<metadata>Copyright (C) 2021 by original authors @ fontello.com</metadata>
<defs>
<font id="fontello" horiz-adv-x="1000" >
<font-face font-family="fontello" font-weight="400" font-stretch="normal" units-per-em="1000" ascent="850" descent="-150" />
<missing-glyph horiz-adv-x="1000" />
<glyph glyph-name="add" unicode="&#xe800;" d="M528 711c0 16-13 28-28 28-15 0-28-12-28-28v-361h-361c-15 0-28-12-28-28 0-15 13-28 28-28h361v-361c0-15 13-27 28-27 15 0 28 12 28 27v361h361c15 0 28 13 28 28 0 16-13 28-28 28h-361v361z" horiz-adv-x="1000" />

<glyph glyph-name="administration" unicode="&#xe801;" d="M586 346c-45-8-87-26-124-52-6 0-12 0-17 0-112 0-227-74-280-231-5-14-20-22-35-17-14 5-22 20-17 35 42 126 122 209 215 246-63 40-106 110-106 190 0 122 100 222 222 222 123 0 223-100 223-222 0-69-32-131-81-171z m25 171c0 92-74 166-167 166-92 0-166-74-166-166 0-92 74-167 166-167 93 0 167 75 167 167z m195-373c0-30-25-55-56-55-31 0-56 25-56 55 0 31 25 56 56 56 31 0 56-25 56-56z m19 188v18c0 31-25 56-56 56h-38c-31 0-56-25-56-56v-18c-21-8-40-19-57-33l-15 9c-27 15-61 6-76-20l-19-33c-16-27-7-61 20-76l15-9c-1-11-2-22-2-33 0-12 1-23 2-33l-15-9c-27-16-36-50-20-76l19-33c15-27 49-36 76-21l15 9c17-14 36-25 57-33v-18c0-31 25-55 56-55h38c31 0 56 24 56 55v18c21 8 40 19 57 33l15-9c27-15 61-6 76 21l19 33c16 26 7 60-20 76l-15 9c1 10 2 21 2 33 0 11-1 22-2 33l15 9c27 15 36 49 20 76l-19 33c-15 26-49 35-76 20l-15-9c-17 14-36 25-57 33z m-94-38v56h38v-56l36-14c15-6 29-14 42-24l29-24 49 28 19-33-48-28 6-38c1-8 2-16 2-24 0-9-1-17-2-25l-6-37 48-28-19-34-49 29-29-25c-13-10-27-18-42-24l-36-14v-56h-38v56l-36 14c-15 6-29 14-42 24l-30 25-48-29-19 34 48 28-6 37c-1 8-2 16-2 25 0 8 1 16 2 24l6 38-48 28 19 33 48-28 30 24c13 10 27 18 42 24l36 14z" horiz-adv-x="1000" />

<glyph glyph-name="agent" unicode="&#xe802;" d="M486 819c9 4 19 4 28 0l389-223c8-5 14-14 14-24v-444c0-10-5-19-14-24l-83-49c-13-8-30-4-38 9-8 13-4 31 10 38l69 42v412l-361 207-361-207v-412l361-207 87 50c13 8 30 3 38-10 8-14 3-31-10-38l-101-58c-9-4-19-4-28 0l-389 223c-8 5-14 14-14 24v444c0 10 6 19 14 24l389 223z m154-659c1-2 3-3 3-5l146-226c8-12 4-30-9-38-13-8-30-4-38 8l-145 226c-1 2-2 4-3 6-31-15-66-23-103-23-134 0-242 108-242 242 0 134 108 242 242 242 134 0 242-108 242-242 0-77-36-146-93-190z m37 190c0 103-83 186-186 186-103 0-186-83-186-186 0-103 83-186 186-186 103 0 186 83 186 186z" horiz-adv-x="1000" />

<glyph glyph-name="alert" unicode="&#xe803;" d="M583 100c0-46-37-83-83-83-46 0-83 37-83 83 0 46 37 83 83 83 46 0 83-37 83-83z m-139 194c0-30 25-55 56-55 31 0 56 25 56 55v223c0 30-25 55-56 55-31 0-56-25-56-55v-223z m-42 490c42 77 154 77 196 0l387-714c41-74-13-164-97-164h-776c-84 0-138 90-97 164l387 714z m147-27c-21 39-77 39-98 0l-388-714c-20-37 7-82 49-82h776c42 0 69 45 49 82l-388 714z" horiz-adv-x="1000" />

<glyph glyph-name="align-bottom" unicode="&#xe804;" d="M389 739c31 0 55-25 55-56v-555c0-31-24-56-55-56-31 0-56 25-56 56v555c0 31 25 56 56 56z m222-167c31 0 56-25 56-55v-389c0-31-25-56-56-56-31 0-55 25-55 56v389c0 30 24 55 55 55z m-500-583c0 15 13 28 28 28h722c16 0 28-13 28-28 0-16-12-28-28-28h-722c-15 0-28 12-28 28z" horiz-adv-x="1000" />

<glyph glyph-name="align-hor-center" unicode="&#xe805;" d="M500 739c15 0 28-12 28-28v-194h305c31 0 56-25 56-56 0-31-25-55-56-55h-305v-112h194c31 0 56-24 56-55 0-31-25-56-56-56h-194v-194c0-16-13-28-28-28-15 0-28 12-28 28v194h-194c-31 0-56 25-56 56 0 31 25 55 56 55h194v112h-305c-31 0-56 24-56 55 0 31 25 56 56 56h305v194c0 16 13 28 28 28z" horiz-adv-x="1000" />

<glyph glyph-name="align-justified" unicode="&#xe806;" d="M861 739c16 0 28-12 28-28v-722c0-16-12-28-28-28-15 0-28 12-28 28v722c0 16 13 28 28 28z m-722 0c15 0 28-12 28-28v-722c0-16-13-28-28-28-15 0-28 12-28 28v722c0 16 13 28 28 28z m83-278c0 31 25 56 56 56h444c31 0 56-25 56-56 0-31-25-55-56-55h-444c-31 0-56 24-56 55z m0-222c0 31 25 55 56 55h444c31 0 56-24 56-55 0-31-25-56-56-56h-444c-31 0-56 25-56 56z" horiz-adv-x="1000" />

<glyph glyph-name="align-left" unicode="&#xe807;" d="M139 739c15 0 28-12 28-28v-722c0-16-13-28-28-28-15 0-28 12-28 28v722c0 16 13 28 28 28z m83-278c0 31 25 56 56 56h555c31 0 56-25 56-56 0-31-25-55-56-55h-555c-31 0-56 24-56 55z m0-222c0 31 25 55 56 55h389c30 0 55-24 55-55 0-31-25-56-55-56h-389c-31 0-56 25-56 56z" horiz-adv-x="1000" />

<glyph glyph-name="align-right" unicode="&#xe808;" d="M861 739c16 0 28-12 28-28v-722c0-16-12-28-28-28-15 0-28 12-28 28v722c0 16 13 28 28 28z m-750-278c0 31 25 56 56 56h555c31 0 56-25 56-56 0-31-25-55-56-55h-555c-31 0-56 24-56 55z m167-222c0 31 25 55 55 55h389c31 0 56-24 56-55 0-31-25-56-56-56h-389c-30 0-55 25-55 56z" horiz-adv-x="1000" />

<glyph glyph-name="align-top" unicode="&#xe809;" d="M111 711c0 16 13 28 28 28h722c16 0 28-12 28-28 0-15-12-28-28-28h-722c-15 0-28 13-28 28z m278-83c31 0 55-25 55-56v-555c0-31-24-56-55-56-31 0-56 25-56 56v555c0 31 25 56 56 56z m222 0c31 0 56-25 56-56v-389c0-30-25-55-56-55-31 0-55 25-55 55v389c0 31 24 56 55 56z" horiz-adv-x="1000" />

<glyph glyph-name="align-ver-center" unicode="&#xe80a;" d="M389 739c31 0 55-25 55-56v-305h112v194c0 31 24 56 55 56 31 0 56-25 56-56v-194h194c16 0 28-13 28-28 0-15-12-28-28-28h-194v-194c0-31-25-56-56-56-31 0-55 25-55 56v194h-112v-305c0-31-24-56-55-56-31 0-56 25-56 56v305h-194c-15 0-28 13-28 28 0 15 13 28 28 28h194v305c0 31 25 56 56 56z" horiz-adv-x="1000" />

<glyph glyph-name="api" unicode="&#xe80b;" d="M639 683c-15 0-28-12-28-27 0-16 13-28 28-28h167c15 0 27 12 27 28 0 15-12 27-27 27h-167z m-262-330c-4 9-13 16-23 16h-27c-10 0-20-7-23-16l-80-213c-5-13 2-27 14-32 13-5 28 1 33 14l13 37h112l14-37c4-10 13-16 23-16 3 0 6 1 9 2 13 5 20 19 15 32l-80 213z m-74-144l38 99 37-99h-75z m300 160h-93c-14 0-25-11-25-25v-213c0-14 11-25 25-25 14 0 25 11 25 25v55h68c50 0 91 41 91 91 0 51-40 92-91 92z m0-133h-68v83h68c23 0 42-19 42-42 0-23-19-41-42-41z m119 108c0 14 11 25 25 25 14 0 25-11 25-25v-213c0-14-11-25-25-25-14 0-25 11-25 25v213z m-666 339v-666c0-62 49-111 111-111h666c62 0 111 49 111 111v666c0 62-49 111-111 111h-666c-62 0-111-49-111-111z m111 56h666c31 0 56-25 56-56v-111h-778v111c0 31 25 56 56 56z m-56-222h778v-500c0-31-25-56-56-56h-666c-31 0-56 25-56 56v500z" horiz-adv-x="1000" />

<glyph glyph-name="attachment" unicode="&#xe80c;" d="M556-44c74-73 193-73 267 0 71 71 73 186 6 259l0 1-1 1c0 0 0 0 0 0-1 1-1 1-1 1l0 0-1 1 0 0-353 353-75 37c-35 4-71-8-98-34-47-47-47-124 0-171l204-204c10-10 27-10 37 0 11 11 11 28 0 38l-204 204c-26 26-26 69 0 95 27 27 70 27 96 0l352-352c53-53 53-138 0-191-53-53-139-53-191 0l-452 452-38-38 452-452z m-452 452l38 38c-10 9-19 20-26 31l-12-69z m294 201l75-37-2 3c-21 20-47 32-73 34z m408-173l-93 18-282 282c-79 80-210 80-289 0-71-71-79-180-26-259l-12-69c-100 101-100 265 0 365 101 101 264 101 365 0l337-337z m-93 18l161-160c10-11 27-11 37 0 10 10 10 27 0 37l-105 105-93 18z" horiz-adv-x="947" />

<glyph glyph-name="automation" unicode="&#xe80d;" d="M444 322c0 46-37 84-83 84-46 0-83-38-83-84 0-46 37-83 83-83 46 0 83 37 83 83z m-55 0c0-15-12-28-28-28-15 0-28 13-28 28 0 16 13 28 28 28 16 0 28-12 28-28z m250-83c-46 0-83 37-83 83 0 46 37 84 83 84 46 0 83-38 83-84 0-46-37-83-83-83z m0 55c15 0 28 13 28 28 0 16-13 28-28 28-15 0-28-12-28-28 0-15 13-28 28-28z m-222-166c-16 0-28-13-28-28 0-15 12-28 28-28h166c16 0 28 13 28 28 0 15-12 28-28 28h-166z m110 618c1-2 1-5 1-7v-56h194c62 0 111-49 111-111v-55c62 0 111-50 111-111v-112c0-61-49-111-111-111v-166c0-62-49-111-111-111h-444c-62 0-111 49-111 111v166c-62 0-111 50-111 111v112c0 61 49 111 111 111v55c0 62 49 111 111 111h194v56c0 2 1 5 1 7-17 9-29 28-29 48 0 31 25 56 56 56 31 0 56-25 56-56 0-20-12-39-29-48z m306-285v-222c31 0 56 25 56 55v112c0 30-25 55-56 55z m-55 111c0 31-25 56-56 56h-444c-31 0-56-25-56-56v-555c0-31 25-56 56-56h444c31 0 56 25 56 56v555z m-667-166v-112c0-30 25-55 56-55v222c-31 0-56-25-56-55z" horiz-adv-x="1000" />

<glyph glyph-name="bar-standard" unicode="&#xe80e;" d="M333 794c-30 0-55-24-55-55v-667c0-30 25-55 55-55h334c30 0 55 25 55 55v667c0 31-25 55-55 55h-334z m-250-833c-15 0-27-12-27-28 0-15 12-27 27-27h834c15 0 27 12 27 27 0 16-12 28-27 28h-834z" horiz-adv-x="1000" />

<glyph glyph-name="bar-thick" unicode="&#xe80f;" d="M222 794c-30 0-55-24-55-55v-667c0-30 25-55 55-55h556c31 0 55 25 55 55v667c0 31-24 55-55 55h-556z m-139-833c-15 0-27-12-27-28 0-15 12-27 27-27h834c15 0 27 12 27 27 0 16-12 28-27 28h-834z" horiz-adv-x="1000" />

<glyph glyph-name="bar-thin" unicode="&#xe810;" d="M444 794c-30 0-55-24-55-55v-667c0-30 25-55 55-55h112c30 0 55 25 55 55v667c0 31-25 55-55 55h-112z m-361-833c-15 0-27-12-27-28 0-15 12-27 27-27h834c15 0 27 12 27 27 0 16-12 28-27 28h-834z" horiz-adv-x="1000" />

<glyph glyph-name="bold" unicode="&#xe811;" d="M278 739h190c47 0 87-6 120-16 34-11 61-31 81-61 21-30 31-72 31-127 0-46-10-82-28-107-19-26-45-42-79-49 42-6 74-25 96-57 22-32 33-75 33-130 0-154-73-231-220-231h-224v778z m192-311c35 0 58 8 70 25 12 16 19 42 19 78 0 30-8 53-24 69-15 16-38 24-68 24h-28v-196h31z m3-347c34 0 58 9 72 27 14 19 22 47 22 86 0 45-8 76-22 94-14 18-38 27-73 27h-33v-234h34z" horiz-adv-x="1000" />

<glyph glyph-name="calendar" unicode="&#xe812;" d="M833 739h-111v28c0 16-11 27-28 27-16 0-27-11-27-27v-28h-334v28c0 16-11 27-27 27-17 0-28-11-28-27v-28h-111c-61 0-111-50-111-111v-556c0-61 50-111 111-111h666c61 0 111 50 111 111v556c0 61-50 111-111 111z m-722-333h222v-167h-222v167z m278 0h222v-167h-222v167z m278 0h222v-167h-222v167z m-556 222c0 33 22 55 56 55h666c34 0 56-22 56-55v-167h-778v167z m56-611c-34 0-56 22-56 55v111h222v-166h-166z m222 0v166h222v-166h-222z m500 55c0-33-22-55-56-55h-166v166h222v-111z" horiz-adv-x="1000" />

<glyph glyph-name="category" unicode="&#xe813;" d="M278 572h55c31 0 56 25 56 56v111c0 31-25 55-56 55h-166c-31 0-56-24-56-55v-111c0-31 25-56 56-56h55l0-639c0-15 13-27 28-27 15 0 28 12 28 27l0 639z m-111 167h166v-111h-166l0 111z m194-333c-15 0-28-13-28-28 0-16 13-28 28-28h250c0-31 25-56 56-56h166c31 0 56 25 56 56v56c0 30-25 55-56 55h-166c-31 0-56-25-56-55h-250z m472 0v-56h-166v56h166z m-500-306c0 15 13 28 28 28h250c0 31 25 55 56 55h166c31 0 56-24 56-55v-56c0-30-25-55-56-55h-166c-31 0-56 25-56 55h-250c-15 0-28 13-28 28z m334 28v-56h166v56h-166z" horiz-adv-x="1000" />

<glyph glyph-name="chat" unicode="&#xe814;" d="M222 322c0 16 13 28 28 28h444c16 0 28-12 28-28 0-15-12-28-28-28h-444c-15 0-28 13-28 28z m28 195c-15 0-28-13-28-28 0-15 13-28 28-28h500c15 0 28 13 28 28 0 15-13 28-28 28h-500z m695-449c34 20 55 56 55 96v464c0 61-50 111-111 111h-778c-61 0-111-50-111-111v-445c0-61 50-111 111-111h556v-166l278 162z m-278 60h-556c-31 0-55 25-55 55v445c0 31 24 55 55 55h778c31 0 55-24 55-55v-464c0-20-10-38-27-48l-195-114v70c0 31-25 56-55 56z" horiz-adv-x="1000" />

<glyph glyph-name="check" unicode="&#xe815;" d="M873 667c21-22 21-57 0-78l-445-445c-21-22-57-22-78 0l-223 222c-21 22-21 57 0 79 22 22 57 22 79 0l183-183 405 405c22 22 57 22 79 0z" horiz-adv-x="1000" />

<glyph glyph-name="chevron-down" unicode="&#xe816;" d="M92 564c10 11 28 11 39 0l369-369 369 369c11 11 29 11 40 0 10-11 10-28 0-39l-389-389c-11-11-29-11-40 0l-388 389c-11 11-11 28 0 39z" horiz-adv-x="1000" />

<glyph glyph-name="chevron-left" unicode="&#xe817;" d="M714 759c11-11 11-29 0-40l-369-369 369-369c11-11 11-29 0-40-11-10-28-10-39 0l-389 389c-11 11-11 29 0 40l389 389c11 10 28 10 39 0z" horiz-adv-x="1000" />

<glyph glyph-name="chevron-right" unicode="&#xe818;" d="M286 759c11 10 28 10 39 0l389-389c11-11 11-29 0-40l-389-389c-11-10-28-10-39 0-11 11-11 29 0 40l369 369-369 369c-11 11-11 29 0 40z" horiz-adv-x="1000" />

<glyph glyph-name="chevron-up" unicode="&#xe819;" d="M480 564c11 11 29 11 40 0l389-389c10-11 10-28 0-39-11-11-29-11-40 0l-369 369-369-369c-11-11-29-11-39 0-11 11-11 28 0 39l388 389z" horiz-adv-x="1000" />

<glyph glyph-name="close" unicode="&#xe81a;" d="M175 675c11 11 28 11 39 0l286-286 286 286c11 11 28 11 39 0 11-11 11-28 0-39l-286-286 286-286c11-11 11-28 0-39-11-11-28-11-39 0l-286 286-286-286c-11-11-28-11-39 0-11 11-11 28 0 39l286 286-286 286c-11 11-11 28 0 39z" horiz-adv-x="1000" />

<glyph glyph-name="cloud-check" unicode="&#xe81b;" d="M909 592c10-11 10-29 0-39l-381-381-159 158c-11 11-11 29 0 40 11 11 29 11 40 0l119-120 341 342c11 11 29 11 40 0z m-304 91c-74 0-137-42-166-104l-12-26-25 13c-18 9-38 14-59 14-72 0-130-57-130-127 0-3 0-7 0-10l2-22-20-7c-82-28-139-104-139-193 0-112 92-204 208-204h472c116 0 208 92 208 204 0 65-30 122-78 160-12 9-14 27-4 39 9 12 27 14 39 4 60-47 99-121 99-203 0-144-119-260-264-260h-472c-145 0-264 116-264 260 0 107 65 198 158 238 3 99 85 177 185 177 20 0 40-4 59-10 42 68 117 113 203 113 78 0 147-37 191-94 9-13 7-30-6-39-12-10-29-7-39 5-33 44-86 72-146 72z" horiz-adv-x="1000" />

<glyph glyph-name="cloud" unicode="&#xe81c;" d="M791 418c18-5 36-12 52-21 7-5 14-9 21-14 1-1 1-2 2-3 48-37 78-95 78-159 0-7 0-13 0-20-2-19-7-38-14-55-30-76-105-130-194-130h-472c-116 0-208 92-208 205 0 88 57 164 139 193l20 7-2 21c0 4 0 7 0 11 0 69 58 127 130 127 14 0 29-3 42-7 15-5 29-14 41-24 1 2 2 5 3 7l10 23c2 3 4 6 5 9 14 24 32 44 52 59 30 23 68 36 109 36 51 0 97-21 130-54 5-5 11-11 15-17l1-1c1-1 1-1 1-1 28-37 45-84 45-138 0-19-2-37-6-54z m61 36c1 6 1 12 1 18 0 65-21 125-56 171-1 0-1 1-1 1-6 8-13 15-19 22-45 47-105 75-172 75-55 0-106-19-147-53-22-17-41-38-56-62-19 6-39 9-59 9-100 0-182-78-185-176-93-41-158-132-158-238 0-144 119-260 264-260h472c3 0 6 0 9 0 101 3 187 62 229 147 14 27 22 58 25 91 1 7 1 14 1 22 0 102-60 191-148 233z" horiz-adv-x="1000" />

<glyph glyph-name="code" unicode="&#xe81d;" d="M589 794c15-3 25-18 22-33l-167-833c-3-15-18-25-33-22-15 3-25 18-22 33l167 833c3 15 18 25 33 22z m86-202c11 11 28 11 39 0l222-222c11-11 11-29 0-40l-222-222c-11-11-28-11-39 0-11 11-11 29 0 39l202 203-202 203c-11 10-11 28 0 39z m-619-242c0 7 3 14 8 20l222 222c11 11 28 11 39 0 11-11 11-29 0-39l-202-203 202-203c11-10 11-28 0-39-11-11-28-11-39 0l-222 222c-5 6-8 13-8 20z" horiz-adv-x="1000" />

<glyph glyph-name="collection" unicode="&#xe81e;" d="M139 794c-15 0-28-12-28-27 0-16 13-28 28-28h722c16 0 28 12 28 28 0 15-12 27-28 27h-722z m-83-138c0 15 12 27 27 27h834c15 0 27-12 27-27 0-16-12-28-27-28h-834c-15 0-27 12-27 28z m55-84c-61 0-111-49-111-111v-444c0-62 50-111 111-111h778c61 0 111 49 111 111v444c0 62-50 111-111 111h-778z" horiz-adv-x="1000" />

<glyph glyph-name="column" unicode="&#xe81f;" d="M167 794c-62 0-111-49-111-111v-666c0-62 49-111 111-111h666c62 0 111 49 111 111v666c0 62-49 111-111 111h-666z m444-55v-778h-222l0 778 222 0z m56 0l166 0c31 0 56-25 56-56v-666c0-31-25-56-56-56h-166v778z m-500 0h166l0-778h-166c-31 0-56 25-56 56v666c0 31 25 56 56 56z" horiz-adv-x="1000" />

<glyph glyph-name="command-center" unicode="&#xe820;" d="M171 517c27 157 164 277 329 277 165 0 302-120 329-277h4c62 0 111-50 111-111v-112c0-61-49-111-111-111h-27c-16 0-28 13-28 28v250c0 154-125 278-278 278-153 0-278-124-278-278v-250c0-100 75-182 172-193 12 32 42 54 78 54 46 0 84-37 84-83 0-46-38-83-84-83-36 0-68 23-79 56-118 11-212 104-225 221h-1c-62 0-111 50-111 111v112c0 61 49 111 111 111h4z m273-528c0-16 13-28 28-28 16 0 28 12 28 28 0 15-12 28-28 28-15 0-28-13-28-28z m445 305c0-30-25-55-56-55v222c31 0 56-25 56-55v-112z m-722 167v-222c-31 0-56 25-56 55v112c0 30 25 55 56 55z" horiz-adv-x="1000" />

<glyph glyph-name="command" unicode="&#xe821;" d="M162 747c-11 11-29 11-39 0-11-11-11-29 0-39l369-370-369-369c-11-11-11-28 0-39 10-11 28-11 39 0l408 408-408 409z m311-774c-15 0-27-12-27-27 0-16 12-28 27-28l389 0c15 0 28 12 28 28 0 15-13 27-28 27l-389 0z" horiz-adv-x="1000" />

<glyph glyph-name="company" unicode="&#xe822;" d="M611 683h56c30 0 55-24 55-55v-56c0-30-25-55-55-55h-56c-31 0-55 25-55 55v56c0 31 24 55 55 55z m56-55h-56v-56h56v56z m-389 0v-56c0-30 25-55 55-55h56c31 0 55 25 55 55v56c0 31-24 55-55 55h-56c-30 0-55-24-55-55z m55 0h56v-56h-56v56z m278-167h56c30 0 55-25 55-55v-56c0-31-25-56-55-56h-56c-31 0-55 25-55 56v56c0 30 24 55 55 55z m56-55h-56v-56h56v56z m-389 0v-56c0-31 25-56 55-56h56c31 0 55 25 55 56v56c0 30-24 55-55 55h-56c-30 0-55-25-55-55z m55 0h56v-56h-56v56z m278-167h56c30 0 55-25 55-56v-55c0-31-25-56-55-56h-56c-31 0-55 25-55 56v55c0 31 24 56 55 56z m56-56h-56v-55h56v55z m-389 0v-55c0-31 25-56 55-56h56c31 0 55 25 55 56v55c0 31-24 56-55 56h-56c-30 0-55-25-55-56z m55 0h56v-55h-56v55z m-222-277v888c0 31 25 56 56 56h666c31 0 56-25 56-56v-888h28c15 0 27-13 27-28 0-16-12-28-27-28h-834c-15 0-27 12-27 28 0 15 12 28 27 28h28z m56 888v-888h666l0 888h-666z" horiz-adv-x="1000" />

<glyph glyph-name="console" unicode="&#xe823;" d="M222 656c0-16-12-28-28-28-15 0-27 12-27 28 0 15 12 27 27 27 16 0 28-12 28-27z m84-28c15 0 27 12 27 28 0 15-12 27-27 27-16 0-28-12-28-27 0-16 12-28 28-28z m-73-173c12 10 29 8 39-4l111-139c8-10 8-25 0-35l-111-139c-10-12-27-14-39-4-12 9-14 27-5 39l98 121-98 122c-9 12-7 29 5 39z m184-272c-16 0-28-12-28-27 0-16 12-28 28-28h222c15 0 28 12 28 28 0 15-13 27-28 27h-222z m-361 500c0 62 49 111 111 111h666c62 0 111-49 111-111v-666c0-62-49-111-111-111h-666c-62 0-111 49-111 111v666z m111 56c-31 0-56-25-56-56v-111h778v111c0 31-25 56-56 56h-666z m722-222h-778v-500c0-31 25-56 56-56h666c31 0 56 25 56 56v500z" horiz-adv-x="1000" />

<glyph glyph-name="constraint" unicode="&#xe824;" d="M500 739c-92 0-167-75-167-167v-83c0-15-12-28-27-28-16 0-28 13-28 28v83c0 123 99 222 222 222 123 0 222-99 222-222v-83c0-15-12-28-28-28-15 0-27 13-27 28v83c0 92-75 167-167 167z m0-778c-92 0-167 75-167 167v83c0 15-12 28-27 28-16 0-28-13-28-28v-83c0-123 99-222 222-222 123 0 222 99 222 222v83c0 15-12 28-28 28-15 0-27-13-27-28v-83c0-92-75-167-167-167z m-28 195l0 388c0 16 13 28 28 28 15 0 28-12 28-28l0-388c0-16-13-28-28-28-15 0-28 12-28 28z" horiz-adv-x="1000" />

<glyph glyph-name="copy" unicode="&#xe825;" d="M278 128h-111c-62 0-111 50-111 111v444c0 62 49 111 111 111h444c62 0 111-49 111-111v-111h111c62 0 111-49 111-111v-444c0-62-49-111-111-111h-444c-61 0-111 49-111 111v111z m-111 611c-31 0-56-25-56-56v-444c0-31 25-56 56-56h444c31 0 56 25 56 56v444c0 31-25 56-56 56h-444z m555-222v-278c0-61-49-111-111-111h-278v-111c0-31 25-56 56-56h444c31 0 56 25 56 56v444c0 31-25 56-56 56h-111z" horiz-adv-x="1000" />

<glyph glyph-name="counter" unicode="&#xe826;" d="M472 761c3 15-7 30-22 33-15 3-30-7-33-22l-51-255h-227c-15 0-28-13-28-28 0-15 13-28 28-28h216l-44-222h-228c-15 0-27-12-27-28 0-15 12-28 27-28h217l-49-244c-3-15 6-30 21-33 15-3 30 7 33 22l51 255 221 0-49-244c-3-15 7-30 22-33 15-3 30 7 33 22l51 255h227c16 0 28 13 28 28 0 16-12 28-28 28h-216l45 222h227c15 0 27 13 27 28 0 15-12 28-27 28h-216l49 244c3 15-7 30-22 33-15 3-30-7-33-22l-51-255h-221l49 244z m116-522l-221 0 45 222h221l-45-222z" horiz-adv-x="1000" />

<glyph glyph-name="csv" unicode="&#xe827;" d="M53 481h79v316c0 29 23 53 52 53h396c16 0 31-7 41-20l184-229c7-9 11-21 11-33v-87h79c29 0 53-23 53-52v-263c0-29-24-53-53-53h-79v-158c0-29-24-53-53-53h-579c-29 0-52 24-52 53v158h-79c-29 0-53 24-53 53v263c0 29 24 52 53 52z m710-526v158h-579v-158h579z m-579 842v-316h579v79h-131c-44 0-79 36-79 79v158l-369 0z m544-184l-122 153v-127c0-14 11-26 26-26h96z m-530-227c9 0 19-2 29-5 10-4 20-8 30-12l18 45c-26 12-52 18-77 18-25 0-47-5-66-16-19-11-33-27-43-47-10-21-15-45-15-72 0-44 10-77 31-100 20-23 49-35 87-35 27 0 51 5 73 14v46c-26-9-49-14-67-14-44 0-66 30-66 88 0 29 5 51 17 66 11 16 28 24 49 24z m344-147c0 17-4 31-13 43-9 12-26 24-51 35-18 9-30 15-35 19-5 3-9 7-11 10-2 4-3 8-3 13 0 8 2 15 8 20 6 5 14 7 24 7 9 0 18-1 27-3 10-3 21-7 35-12l18 43c-13 6-26 10-39 14-12 3-25 4-39 4-28 0-49-6-65-20-16-13-24-31-24-54 0-13 3-24 7-33 5-9 12-17 20-24 8-7 20-14 36-22 17-8 28-14 34-18 5-3 10-7 12-11 3-4 5-9 5-14 0-9-3-16-10-21-7-5-16-7-28-7-10 0-22 2-34 5-12 3-27 9-45 17v-52c22-11 46-16 75-16 30 0 54 7 71 21 17 13 25 32 25 56z m321 190h-56l-50-157c-8-27-12-47-14-58-1 5-2 14-5 26-3 12-6 23-9 32l-49 157h-57l90-263h60l90 263z" horiz-adv-x="1000" />

<glyph glyph-name="dashboard" unicode="&#xe828;" d="M0 628c0 77 62 139 139 139h722c77 0 139-62 139-139v-556c0-77-62-139-139-139h-722c-77 0-139 62-139 139v556z m139 83c-46 0-83-37-83-83v-167h888v167c0 46-37 83-83 83h-722z m805-305h-250v-417h167c46 0 83 37 83 83v334z m-305-417v417h-583v-334c0-46 37-83 83-83h500z" horiz-adv-x="1000" />

<glyph glyph-name="date-time" unicode="&#xe829;" d="M722 739h111c61 0 111-50 111-111v-371c-15 20-34 37-55 51v42h-222v-14c-20-7-39-17-56-28v42h-222v-167h125c-6-18-10-36-12-55h-113v-167h153c14-21 31-40 51-56h-426c-61 0-111 50-111 111v612c0 61 50 111 111 111h111v27c0 17 11 28 28 28 16 0 27-11 27-28v-27h334v27c0 17 11 28 27 28 17 0 28-11 28-28v-27z m-389-389h-222v-167h222v167z m-166 333c-34 0-56-22-56-55v-223h778v223c0 33-22 55-56 55h-666z m-56-667c0-33 22-55 56-55h166v167h-222v-112z m639-55c-77 0-139 62-139 139 0 77 62 139 139 139 77 0 139-62 139-139 0-77-62-139-139-139z m0-56c107 0 194 87 194 195 0 107-87 194-194 194-107 0-194-87-194-194 0-108 87-195 194-195z m-28 278v-110h111v55h-55v55h-56z" horiz-adv-x="1000" />

<glyph glyph-name="deactivate" unicode="&#xe82a;" d="M947 376c0-261-212-474-473-474-262 0-474 213-474 474 0 262 212 474 474 474 261 0 473-212 473-474z m-52 0c0 110-42 209-110 284l-510-655c59-32 127-50 199-50 232 0 421 189 421 421z m-706-310l515 662c-66 44-145 69-230 69-233 0-421-188-421-421 0-123 52-233 136-310z" horiz-adv-x="1000" />

<glyph glyph-name="definitions" unicode="&#xe82b;" d="M333 517h167c31 0 56 25 56 55v167c0 31-25 55-56 55h-389c-31 0-55-24-55-55v-167c0-30 24-55 55-55h167v-250c0-16 12-28 28-28h166l0-115c-48-12-83-56-83-107 0-62 50-112 111-112 61 0 111 50 111 112 0 51-35 95-83 107v115h278c15 0 27 12 27 28v139h56c31 0 55 24 55 55v111c0 31-24 56-55 56h-167c-30 0-55-25-55-56v-111c0-31 25-55 55-55h56v-112h-445v223z m-222 222h389v-167h-389l0 167z m778-167v-111h-167v111h167z m-389-611c-31 0-56 25-56 56 0 30 25 55 56 55 31 0 56-25 56-55 0-31-25-56-56-56z" horiz-adv-x="1000" />

<glyph glyph-name="desktop" unicode="&#xe82c;" d="M889 72h-278l0-111h83c16 0 28-12 28-28 0-15-12-27-28-27h-388c-16 0-28 12-28 27 0 16 12 28 28 28h83l0 111h-278c-61 0-111 50-111 111v445c0 61 50 111 111 111h778c61 0 111-50 111-111v-445c0-61-50-111-111-111z m-778 611c-31 0-55-24-55-55v-445c0-30 24-55 55-55h778c31 0 55 25 55 55v445c0 31-24 55-55 55h-778z m333-722h112l0 111h-112l0-111z" horiz-adv-x="1056" />

<glyph glyph-name="discover" unicode="&#xe82d;" d="M333 350c0 38 2 76 6 111h591c10-35 14-73 14-111 0-36-4-71-12-105-3-14 6-29 21-33 15-4 30 6 33 20 9 38 14 78 14 118 0 276-224 500-500 500-276 0-500-224-500-500 0-276 224-500 500-500 41 0 80 5 118 14 15 3 24 18 20 33-3 15-18 24-33 21-34-8-69-12-105-12-17 0-36 8-56 28-20 21-39 52-56 93-33 81-55 195-55 323z m167 444c28 0 61-22 92-79 27-49 49-118 62-198h-308c10 59 24 113 42 156 17 41 36 72 56 93 20 20 39 28 56 28z m-163-99c-21-51-37-111-47-178h-202c52 127 161 225 295 262-18-24-33-52-46-84z m-54-234c-3-36-5-73-5-111 0-38 2-75 5-111h-213c-10 35-14 73-14 111 0 38 4 76 14 111h213z m7-278c10-67 26-127 47-177 13-33 28-61 46-85-134 37-243 135-295 262h202z m327 596c135-37 244-135 295-262h-202c-13 88-37 166-69 224-7 14-15 26-24 38z m223-735c30 38 49 87 49 139 0 123-100 223-222 223-123 0-223-100-223-223 0-122 100-222 223-222 53 0 101 19 139 49 1-4 4-9 8-13l139-139c10-11 28-11 39 0 11 11 11 29 0 39l-139 139c-4 4-8 7-13 8z m-173-27c-92 0-167 74-167 166 0 92 75 167 167 167 92 0 166-75 166-167 0-92-74-166-166-166z" horiz-adv-x="1000" />

<glyph glyph-name="dislike" unicode="&#xe82e;" d="M976 362l-3 4 3 4c15 16 24 39 24 63 0 24-9 46-24 63l-3 3 3 4c15 17 24 39 24 63 0 43-29 80-69 91l-6 2 2 6c4 10 6 22 6 34 0 52-42 95-94 95h-290c-39 0-78-6-115-19l-107-40-2 5c-15 32-48 54-85 54h-212c-16 0-28-13-28-28v-611c0-15 12-28 28-28h212c39 0 74 25 87 60l2 5 5-2c43-10 74-44 108-88 34-44 61-98 74-150l18-81c3-12 14-21 27-21h33c71 0 128 66 128 136v33c0 33-8 99-27 156l-2 8h213c52 0 94 54 94 106 0 24-9 57-24 73z m-44 300c1 3 2 5 2 7 0 0 0-1 0-1-1-2-1-4-2-6z m-876-479v555h184c21 0 38-17 38-39v-477c0-22-17-39-38-39h-184z m278 64v432l118 44c31 10 64 15 97 15h290c21 0 39-17 39-39 0-21-18-39-39-39-15 0-28-12-28-27 0-16 13-28 28-28h67c21 0 39-18 39-39 0-21-18-39-39-39h-67c-15 0-28-12-28-28 0-15 13-27 28-27h67c21 0 39-18 39-39 0-22-18-39-39-39h-67c-15 0-28-13-28-28 0-15 13-28 28-28h67c21 0 39-28 39-49 0-22-18-51-39-51h-345c-15 0-28-12-28-28 0-15 13-27 28-27h72l1-4c10-19 18-40 23-72 6-32 10-65 10-88v-33c0-40-33-80-73-80h-11l-13 59c-16 64-52 134-97 186-45 54-84 86-135 95l-4 1z" horiz-adv-x="1000" />

<glyph glyph-name="double-left-arrow" unicode="&#xe82f;" d="M835 759c11 10 28 10 39 0 11-11 11-29 0-40l-39 40z m-369-409l-20-20-20 20 20 20 20-20z m408-369c11-11 11-29 0-40-11-10-28-10-39 0l39 40z m0 738l-389-389-39 40 389 389 39-40z m-389-349l389-389-39-40-389 389 39 40z m30 389c11 10 28 10 39 0 11-11 11-29 0-40l-39 40z m-369-409l-20-20-20 20 20 20 20-20z m408-369c11-11 11-29 0-40-11-10-28-10-39 0l39 40z m0 738l-389-389-39 40 389 389 39-40z m-389-349l389-389-39-40-389 389 39 40z" horiz-adv-x="1000" />

<glyph glyph-name="double-right-arrow" unicode="&#xe830;" d="M159 759c-11 10-29 10-39 0-11-11-11-29 0-40l39 40z m369-409l20-20 19 20-19 20-20-20z m-408-369c-11-11-11-29 0-40 10-10 28-10 39 0l-39 40z m0 738l388-389 40 40-389 389-39-40z m388-349l-388-389 39-40 389 389-40 40z m-29 389c-11 10-29 10-39 0-11-11-11-29 0-40l39 40z m369-409l20-20 19 20-19 20-20-20z m-408-369c-11-11-11-29 0-40 10-10 28-10 39 0l-39 40z m0 738l388-389 40 40-389 389-39-40z m388-349l-388-389 39-40 389 389-40 40z" horiz-adv-x="1000" />

<glyph glyph-name="download" unicode="&#xe831;" d="M489 74c4-1 7-2 11-2l0 0 0 0c7 0 14 3 20 8l277 278c11 11 11 29 0 39-10 11-28 11-39 0l-230-230v600c0 15-13 27-28 27-15 0-28-12-28-27v-600l-230 230c-11 11-29 11-39 0-11-10-11-28 0-39l277-278c3-2 6-4 9-6z m-322-141c0 16 12 28 27 28h612c15 0 27-12 27-28 0-15-12-27-27-27h-612c-15 0-27 12-27 27z" horiz-adv-x="1000" />

<glyph glyph-name="drag" unicode="&#xe832;" d="M520 814c-5 5-12 8-20 8-5 0-10-1-15-4 0 0 0 0-1-1-1-1-3-2-4-3l-166-167c-11-10-11-28 0-39 11-11 28-11 39 0l119 119 0-349-349 0 119 119c11 11 11 29 0 39-11 11-29 11-39 0l-167-166c-5-5-8-12-8-20 0-5 1-10 4-14 0-1 0-1 1-2 1-1 2-3 3-4l167-166c10-11 28-11 39 0 11 11 11 28 0 39l-119 119h349l0-349-119 119c-11 11-28 11-39 0-11-11-11-29 0-39l166-167c5-5 12-8 20-8 5 0 9 1 13 3 2 1 3 2 4 3 1 1 2 1 3 2l166 167c11 10 11 28 0 39-10 11-28 11-39 0l-119-119v349h349l-119-119c-11-11-11-28 0-39 11-11 29-11 39 0l167 166c5 5 8 12 8 20 0 5-1 9-3 13-1 1-2 3-3 4 0 1-1 2-2 3l-167 166c-10 11-28 11-39 0-11-10-11-28 0-39l119-119-349 0v349l119-119c11-11 29-11 39 0 11 11 11 29 0 39l-166 167z" horiz-adv-x="1000" />

<glyph glyph-name="drop-down-list" unicode="&#xe833;" d="M603 675c-11 11-28 11-39 0-11-11-11-28 0-39l111-111c11-11 28-11 39 0l111 111c11 11 11 28 0 39-11 11-28 11-39 0l-92-91-91 91z m-353-381c-15 0-28-12-28-27 0-16 13-28 28-28h500c15 0 28 12 28 28 0 15-13 27-28 27h-500z m-28-194c0 15 13 28 28 28h500c15 0 28-13 28-28 0-15-13-28-28-28h-500c-15 0-28 13-28 28z m-166 583v-666c0-62 49-111 111-111h666c62 0 111 49 111 111v666c0 62-49 111-111 111h-666c-62 0-111-49-111-111z m777 56c31 0 56-25 56-56v-222h-778v222c0 31 25 56 56 56h666z m56-722c0-31-25-56-56-56h-666c-31 0-56 25-56 56v389h778v-389z" horiz-adv-x="1000" />

<glyph glyph-name="edit" unicode="&#xe834;" d="M453 136l452 453c22 21 22 56 0 78l-88 88c-22 22-57 22-78 0l-453-452c-5-6-8-13-8-20v-127c0-16 12-28 28-28h127c7 0 14 3 20 8z m413 492l-445-445h-88v88l445 445 88-88z m-755 0c0 31 25 55 56 55h250c15 0 27 13 27 28 0 16-12 28-27 28h-250c-62 0-111-50-111-111v-611c0-62 49-111 111-111h611c61 0 111 49 111 111v250c0 15-12 27-28 27-15 0-28-12-28-27v-250c0-31-24-56-55-56h-611c-31 0-56 25-56 56v611z" horiz-adv-x="1000" />

<glyph glyph-name="error-circle" unicode="&#xe835;" d="M583 156c0-46-37-84-83-84-46 0-83 38-83 84 0 46 37 83 83 83 46 0 83-37 83-83z m-139 194c0-31 25-56 56-56 31 0 56 25 56 56v278c0 31-25 55-56 55-31 0-56-24-56-55v-278z m56-500c276 0 500 224 500 500 0 276-224 500-500 500-276 0-500-224-500-500 0-276 224-500 500-500z m0 56c-245 0-444 199-444 444 0 246 199 444 444 444 246 0 444-198 444-444 0-245-198-444-444-444z" horiz-adv-x="1000" />

<glyph glyph-name="escalate" unicode="&#xe836;" d="M56 350c0 246 199 444 444 444 246 0 444-198 444-444 0-245-198-444-444-444-15 0-28-13-28-28 0-16 13-28 28-28 276 0 500 224 500 500 0 276-224 500-500 500-276 0-500-224-500-500 0-138 56-263 146-354 11-10 29-10 40 0l481 481v-99c0-16 12-28 27-28 16 0 28 12 28 28v166c0 16-12 28-28 28h-166c-16 0-28-12-28-28 0-15 12-27 28-27h99l-460-461c-69 78-111 181-111 294z" horiz-adv-x="1000" />

<glyph glyph-name="event" unicode="&#xe837;" d="M110-39h780c40 0 69 45 47 84l-133 246 41 41 141-260c41-75-12-166-96-166h-780c-84 0-137 91-96 166l390 720c42 77 150 77 192 0l111-205-41-41-119 220c-20 38-73 38-94 0l-390-721c-22-39 7-84 47-84z m743 536c11 11 11 29 0 39-11 11-28 11-39 0l-314-313-147 147c-11 11-28 11-39 0-11-11-11-29 0-40l166-166c11-11 29-11 40 0l333 333z" horiz-adv-x="1000" />

<glyph glyph-name="export" unicode="&#xe838;" d="M730 786c11 11 29 11 40 0l166-166c11-11 11-29 0-40l-166-166c-11-11-29-11-40 0-10 11-10 28 0 39l120 119h-72c-138 0-250-112-250-250v-111c0-15-13-28-28-28-15 0-28 13-28 28v111c0 169 137 306 306 306h72l-120 119c-10 11-10 29 0 39z m-563-880c-62 0-111 49-111 111v194c0 15 12 28 27 28 16 0 28-13 28-28l0-194c0-31 25-56 56-56l666 0c31 0 56 25 56 56v194c0 15 12 28 28 28 15 0 27-13 27-28v-194c0-62-49-111-111-111l-666 0z" horiz-adv-x="1000" />

<glyph glyph-name="favorite-active" unicode="&#xe839;" d="M928 419c32 31 14 84-29 91l-243 35-108 220c-20 39-76 40-96 0l-108-220-243-35c-43-7-61-60-29-91l175-171-41-242c-8-44 38-77 77-56l217 114 217-114c39-20 85 12 77 56l-41 242 175 171z" horiz-adv-x="1000" />

<glyph glyph-name="favorite" unicode="&#xe83a;" d="M928 419c32 31 14 84-29 91l-243 35-108 220c-20 39-76 40-96 0l-108-220-243-35c-43-7-61-60-29-91l175-171-41-242c-8-44 38-77 77-56l217 114 217-114c39-20 85 12 77 56l-41 242 175 171z m-189-418l-239 126-239-126 46 266-193 188 267 39 119 242 119-242 267-39-193-188 46-266z" horiz-adv-x="1000" />

<glyph glyph-name="filter" unicode="&#xe83b;" d="M436 379l-225 360h578l-225-360c-5-8-8-19-8-29v-327l-111-55v382c0 10-3 21-9 29z m175-29l241 385c16 26-3 59-33 59h-638c-30 0-49-33-33-59l241-385v-409c0-29 30-48 56-35l145 72c13 7 21 20 21 35v337z" horiz-adv-x="1000" />

<glyph glyph-name="finish" unicode="&#xe83c;" d="M500 572v-111h167v111h-167z m-333 250v-42c16 9 35 14 55 14h722l-166-277 166-278h-722c-20 0-39 5-55 15v-376c0-16-13-28-28-28-15 0-28 12-28 28v944c0 16 13 28 28 28 15 0 28-12 28-28z m0-472c0-31 25-56 55-56h111v167h167v-167h167v167h79l-16 27c-10 18-10 40 0 57l16 27h-79v167h-167v-167h-167v167h-111c-30 0-55-25-55-56v-111h166v-111h-166v-111z" horiz-adv-x="1000" />

<glyph glyph-name="fullscreen-exit" unicode="&#xe83d;" d="M316 587l0 184c0 15 12 26 26 26 15 0 26-11 26-26v-184c0-58-47-105-105-105h-184c-15 0-26 11-26 26 0 14 11 26 26 26h184c29 0 53 24 53 53z m52-421c0 58-47 105-105 105h-184c-15 0-26-12-26-26 0-15 11-27 26-27h184c29 0 53-23 53-52l0-184c0-15 12-27 26-27 15 0 26 12 26 27l0 184z m500 52c15 0 27 12 27 27 0 14-12 26-27 26h-184c-58 0-105-47-105-105v-184c0-15 12-27 26-27 15 0 27 12 27 27v184c0 29 23 52 52 52h184z m0 264c15 0 27 11 27 26 0 14-12 26-27 26h-184c-29 0-52 24-52 53v184c0 15-12 26-27 26-14 0-26-11-26-26v-184c0-58 47-105 105-105h184z" horiz-adv-x="947" />

<glyph glyph-name="fullscreen" unicode="&#xe83e;" d="M342 745c15 0 26 12 26 26 0 15-11 26-26 26h-184c-58 0-105-47-105-105v-184c0-15 11-26 26-26 15 0 26 11 26 26l0 184c0 29 24 53 53 53l184 0z m553-53c0 58-47 105-105 105h-185c-14 0-26-11-26-26 0-14 12-26 26-26l185 0c29 0 52-24 52-53v-184c0-15 12-26 26-26 15 0 27 11 27 26v184z m-53-631v184c0 14 12 26 26 26 15 0 27-12 27-26v-184c0-59-47-106-105-106h-185c-14 0-26 12-26 27 0 14 12 26 26 26h185c29 0 52 24 52 53z m-500-106c15 0 26 12 26 27 0 14-11 26-26 26h-184c-29 0-53 24-53 53l0 184c0 14-11 26-26 26-15 0-26-12-26-26v-184c0-59 47-106 105-106h184z" horiz-adv-x="947" />

<glyph glyph-name="gateway" unicode="&#xe83f;" d="M889 183c31 0 55-24 55-55v-111c0-31-24-56-55-56h-778c-31 0-55 25-55 56v111c0 31 24 55 55 55h778z m-778 56c-61 0-111-50-111-111v-111c0-62 50-111 111-111h778c61 0 111 49 111 111v111c0 61-50 111-111 111h-778z m714 425c-11-11-28-11-39 0l-11 11c-152 152-398 152-550 0l-11-11c-11-11-28-11-39 0-11 11-11 28 0 39l11 11c173 174 455 174 628 0l11-11c11-11 11-28 0-39z m-83-111c11 10 11 28 0 39l-6 6c-130 130-341 130-472 0l-6-6c-11-11-11-29 0-39 11-11 29-11 39 0l7 6c108 108 284 108 392 0l7-6c10-11 28-11 39 0z m-83-111c-11-11-29-11-40 0l-1 1c-65 65-171 65-236 0l-1-1c-11-11-29-11-39 0-11 10-11 28 0 39l1 1c87 87 227 87 314 0l2-1c10-11 10-29 0-39z m-84-112c-11-10-28-10-39 0l-8 9c-16 15-40 15-55 0l-9-9c-11-10-28-10-39 0-11 11-11 29 0 40l8 8c37 37 97 37 134 0l8-8c11-11 11-29 0-40z m-297-258c0-30-25-55-56-55-30 0-55 25-55 55 0 31 25 56 55 56 31 0 56-25 56-56z m111 0c0 16 12 28 28 28h389c15 0 27-12 27-28 0-15-12-27-27-27h-389c-16 0-28 12-28 27z" horiz-adv-x="1000" />

<glyph glyph-name="go" unicode="&#xe840;" d="M947 376c0 262-212 474-474 474-252 0-459-198-473-448h541l-113 113c-10 11-10 27 0 38 11 10 27 10 38 0l158-158c5-5 7-12 7-19l0 0 0 0c0-4 0-7-2-10-1-3-3-6-5-9l-158-157c-11-11-27-11-38 0-10 10-10 26 0 37l113 113h-541c14-250 221-448 473-448 262 0 474 212 474 474z" horiz-adv-x="947" />

<glyph glyph-name="grab" unicode="&#xe841;" d="M389 572c31 0 55 25 55 56 0 31-24 55-55 55-31 0-56-24-56-55 0-31 25-56 56-56z m0-278c31 0 55 25 55 56 0 31-24 56-55 56-31 0-56-25-56-56 0-31 25-56 56-56z m55-222c0-30-24-55-55-55-31 0-56 25-56 55 0 31 25 56 56 56 31 0 55-25 55-56z m167 500c31 0 56 25 56 56 0 31-25 55-56 55-31 0-55-24-55-55 0-31 24-56 55-56z m56-222c0-31-25-56-56-56-31 0-55 25-55 56 0 31 24 56 55 56 31 0 56-25 56-56z m-56-333c31 0 56 25 56 55 0 31-25 56-56 56-31 0-55-25-55-56 0-30 24-55 55-55z" horiz-adv-x="1000" />

<glyph glyph-name="graph-bar" unicode="&#xe842;" d="M1000-11c0-16-12-28-28-28l-944 0c-8 0-15 3-20 8-5 5-8 12-8 20l0 722c0 16 12 28 28 28 15 0 28-12 28-28l0-694 916 0c16 0 28-13 28-28z m-806 83c-15 0-27 13-27 28v195c0 15 12 27 27 27 16 0 28-12 28-27l0-195c0-15-12-28-28-28z m195 28c0-15 12-28 28-28 15 0 27 13 27 28v417c0 15-12 28-27 28-16 0-28-13-28-28v-417z m250-28c-15 0-28 13-28 28v306c0 15 13 27 28 27 15 0 28-12 28-27v-306c0-15-13-28-28-28z m194 28c0-15 13-28 28-28 16 0 28 13 28 28l0 528c0 15-12 28-28 28-15 0-28-13-28-28v-528z" horiz-adv-x="1000" />

<glyph glyph-name="graph-combochart" unicode="&#xe843;" d="M936 692c11 10 11 28 0 39-10 11-28 11-39 0l-258-258-147 147c-5 5-12 8-20 8-7 0-14-3-19-8l-334-334c-11-10-11-28 0-39 11-11 29-11 40 0l313 314 147-147c11-11 29-11 40 0l277 278z m36-731c16 0 28 12 28 28 0 15-12 28-28 28l-916 0 0 694c0 15-13 28-28 28-16 0-28-13-28-28l0-722c0-8 3-15 8-20 5-5 12-8 20-8l944 0z m-778 111c-15 0-27 13-27 28v83c0 16 12 28 27 28 16 0 28-12 28-28v-83c0-15-12-28-28-28z m195 28c0-15 12-28 28-28 15 0 27 13 27 28v278c0 15-12 28-27 28-16 0-28-13-28-28v-278z m250 250c15 0 28-12 28-28v-222c0-15-13-28-28-28-15 0-28 13-28 28v222c0 16 13 28 28 28z m194-250c0-15 13-28 28-28 16 0 28 13 28 28v389c0 15-12 28-28 28-15 0-28-13-28-28v-389z" horiz-adv-x="1000" />

<glyph glyph-name="graph-combopie" unicode="&#xe844;" d="M1000 350c0-276-224-500-500-500-276 0-500 224-500 500 0 276 224 500 500 500 276 0 500-224 500-500z m-56 0c0 49-7 95-22 139l-103-41c9-31 14-64 14-98 0-82-29-157-78-215l78-79c70 78 111 181 111 294z m-42 191c-68 142-209 242-374 253v-112c118-10 219-81 270-183l104 42z m-156-62c-42 80-123 138-218 147v-235l218 88z m-197-139l166-166c39 48 63 109 63 176 0 27-4 53-11 77l-218-87z m-68-10c-3 2-5 6-7 10-1 3-2 7-2 11v275c-140-13-250-132-250-276 0-153 125-278 278-278 67 0 128 24 176 63l-195 195z m19-424c113 0 216 41 294 111l-79 79c-58-50-133-79-215-79-184 0-333 149-333 333 0 175 134 318 305 332v112c-232-15-416-208-416-444 0-245 199-444 444-444z" horiz-adv-x="1000" />

<glyph glyph-name="graph-gauge" unicode="&#xe845;" d="M528 543c39-4 78-18 111-41 41-27 73-66 92-112 19-46 24-96 14-144-9-49-33-93-68-128l177-177 0 0c13 13 25 27 37 41 49 63 84 136 99 215 20 97 10 197-28 289-38 91-102 169-184 224-82 55-179 84-278 84-99 0-196-29-278-84-82-55-146-133-184-224-38-92-48-192-28-289 15-79 50-152 99-215 12-14 24-28 37-41l177 177c-35 35-58 79-68 128-10 48-5 98 14 144 19 46 51 85 92 112 34 23 72 37 111 41v-141c-48-12-83-56-83-108 0-61 50-111 111-111 61 0 111 50 111 111 0 52-35 96-83 108v141z m323-521l-99 99c23 34 40 73 48 114 12 59 5 121-18 176-23 56-62 104-112 138-43 28-92 45-142 50v84c0 16-13 28-28 28-15 0-28-12-28-28v-84c-50-5-99-22-142-50-50-34-89-82-112-138-23-55-29-117-18-176 9-41 25-80 48-114l-99-99c-42 54-71 118-85 186-17 86-8 175 25 257 34 81 91 150 164 199 73 49 159 75 247 75 88 0 174-26 247-75 73-49 130-118 164-199 33-82 42-171 25-257-14-68-43-132-85-186z m-351 328c31 0 56-25 56-56 0-30-25-55-56-55-31 0-56 25-56 55 0 31 25 56 56 56z" horiz-adv-x="1000" />

<glyph glyph-name="graph-heatmap" unicode="&#xe846;" d="M56 461c0 31 24 56 55 56h167c31 0 55-25 55-56 0-31-24-55-55-55h-167c-31 0-55 24-55 55z m333 0c0 31 25 56 55 56h167c31 0 56-25 56-56 0-31-25-55-56-55h-167c-30 0-55 24-55 55z m-306-222c0 15 13 28 28 28h167c15 0 28-13 28-28 0-15-13-28-28-28h-167c-15 0-28 13-28 28z m334 0c0 15 12 28 27 28h167c16 0 28-13 28-28 0-15-12-28-28-28h-167c-15 0-27 13-27 28z m-334-167c0 16 13 28 28 28h167c15 0 28-12 28-28 0-15-13-28-28-28h-167c-15 0-28 13-28 28z m334 0c0 16 12 28 27 28h167c16 0 28-12 28-28 0-15-12-28-28-28h-167c-15 0-27 13-27 28z m-28 556c0 31 25 55 55 55h167c31 0 56-24 56-55 0-31-25-56-56-56h-167c-30 0-55 25-55 56z m333 0c0 31 25 55 56 55h111c31 0 55-24 55-55 0-31-24-56-55-56h-111c-31 0-56 25-56 56z m28-389c0 15 12 28 28 28h111c15 0 28-13 28-28 0-15-13-28-28-28h-111c-16 0-28 13-28 28z m0-167c0 16 12 28 28 28h111c15 0 28-12 28-28 0-15-13-28-28-28h-111c-16 0-28 13-28 28z" horiz-adv-x="1000" />

<glyph glyph-name="graph-honeycomb" unicode="&#xe847;" d="M265 283l-209 117v263l234 131 210-117 210 117 234-131v-263l-209-117v-246l-235-131-235 131v246z m-160 146l185-103 185 95v214l-185 103-185-104v-205z m605-103l185 103v205l-185 104-185-103v-214l185-95z m-210-364l185 104v217l-185 92-185-92v-217l185-104z" horiz-adv-x="1000" />

<glyph glyph-name="graph-line" unicode="&#xe848;" d="M972-39c16 0 28 12 28 28 0 15-12 28-28 28l-916 0 0 694c0 16-13 28-28 28-16 0-28-12-28-28l0-722c0-8 3-15 8-20 5-5 12-8 20-8l944 0z m-36 675c11 11 11 28 0 39-10 11-28 11-39 0l-258-258-147 147c-5 5-12 8-20 8-7 0-14-3-19-8l-334-333c-11-11-11-29 0-39 11-11 29-11 40 0l313 313 147-147c11-11 29-11 40 0l277 278z" horiz-adv-x="1000" />

<glyph glyph-name="graph-singlevalue" unicode="&#xe849;" d="M465 183h146v611h-122l-267-154 74-68c79 48 125 76 139 84 14 9 26 17 35 24-3-30-5-70-5-122v-375z m-409-139c0 16 12 28 27 28h834c15 0 27-12 27-28 0-15-12-27-27-27h-834c-15 0-27 12-27 27z m111-111c0 16 12 28 27 28h612c15 0 27-12 27-28 0-15-12-27-27-27h-612c-15 0-27 12-27 27z" horiz-adv-x="1000" />

<glyph glyph-name="graph-toplist" unicode="&#xe84a;" d="M690 483c-22 22-52 36-92 43 32 9 57 24 75 45 19 21 28 46 28 75 0 47-20 84-61 110-40 26-100 38-180 38-28 0-58-1-89-5-31-4-57-9-79-16v-92c23 7 48 12 76 16 27 4 54 6 80 6 39 0 68-6 87-17 19-12 29-28 29-50 0-22-11-39-31-50-21-12-54-17-100-17h-82v-92h110c46 0 79-6 99-18 20-11 29-29 29-53 0-25-11-44-32-57-22-12-57-19-105-19-29 0-58 2-88 6-31 4-59 9-86 16v-92c57-14 118-21 181-21 90 0 157 14 199 42 43 28 64 67 64 118 0 35-11 63-32 84z m-523-355c0-31-25-56-56-56-31 0-55 25-55 56 0 31 24 55 55 55 31 0 56-24 56-55z m55-28c0 15 13 28 28 28h667c15 0 27-13 27-28 0-15-12-28-27-28h-667c-15 0-28 13-28 28z m0-167c0 16 13 28 28 28h556c15 0 27-12 27-28 0-15-12-27-27-27h-556c-15 0-28 12-28 27z m-111-27c31 0 56 24 56 55 0 31-25 56-56 56-31 0-55-25-55-56 0-31 24-55 55-55z" horiz-adv-x="1000" />

<glyph glyph-name="help-circle" unicode="&#xe84b;" d="M500-94c-245 0-444 199-444 444 0 246 199 444 444 444 246 0 444-198 444-444 0-245-198-444-444-444z m0-56c276 0 500 224 500 500 0 276-224 500-500 500-276 0-500-224-500-500 0-276 224-500 500-500z m-98 597c2 5 3 9 3 15 0 13 3 25 8 37 5 11 12 21 20 29 9 9 19 16 30 21 12 4 24 7 37 7 13 0 25-3 37-8 11-5 21-11 30-20 8-9 15-19 20-30 5-12 8-24 8-37 0-25-10-48-28-67l-54-50c-33-33-49-70-49-111 0-10 3-19 10-26 7-6 16-10 26-10 10 0 19 4 26 10 6 7 10 16 10 26 0 22 9 42 27 60l54 50c33 33 49 73 49 118 0 23-4 44-13 64-9 21-21 38-36 53-15 15-33 27-53 37-20 8-41 13-64 13-23 0-44-4-64-13-21-9-38-21-53-36-15-15-27-33-36-53-9-20-14-42-14-65 0-10 4-19 10-25 7-7 16-11 26-11 5 0 10 1 14 3 5 2 8 5 12 8 3 3 5 7 7 11z m132-361c10 10 15 22 15 35 0 13-5 25-15 35-9 9-21 14-34 14-14 0-25-5-35-14-9-10-14-21-14-35 0-13 5-25 14-35 10-9 21-14 35-14 13 0 25 5 34 14z" horiz-adv-x="1000" />

<glyph glyph-name="iframe" unicode="&#xe84c;" d="M825 342c5-5 8-12 8-20 0-7-3-14-8-19l-55-56-56-55c-11-11-28-11-39 0-11 10-11 28 0 39l91 91-91 92c-11 11-11 28 0 39 11 11 28 11 39 0l111-111z m-658 36c0 7 3 14 8 19l111 112c11 10 28 10 39 0 11-11 11-29 0-40l-91-91 91-92c11-10 11-28 0-39-11-11-28-11-39 0l-111 111c-5 5-8 12-8 20z m417 361h305c61 0 111-50 111-111v-556c0-61-50-111-111-111h-472c0 0 0 0-1 0h-305c-61 0-111 50-111 111v556c0 61 50 111 111 111h472c0 0 1 0 1 0z m-132-722h437c31 0 55 25 55 55v556c0 31-24 55-55 55h-284l-153-666z m96 666h-437c-31 0-55-24-55-55v-556c0-30 24-55 55-55h284l153 666z" horiz-adv-x="1000" />

<glyph glyph-name="image" unicode="&#xe84d;" d="M333 406c62 0 111 49 111 111 0 61-49 111-111 111-61 0-111-50-111-111 0-62 50-111 111-111z m0 55c-30 0-55 25-55 56 0 30 25 55 55 55 31 0 56-25 56-55 0-31-25-56-56-56z m-333 167c0 61 50 111 111 111h778c61 0 111-50 111-111v-556c0-61-50-111-111-111h-778c-61 0-111 50-111 111v556z m889 55h-778c-31 0-55-24-55-55v-546l259 233c11 10 28 10 38-1l119-119 258 258c11 11 29 11 40 0l174-175v350c0 31-24 55-55 55z m55-483l-194 194-258-258c-11-11-29-11-39 0l-121 120-254-228c9-7 21-11 33-11h778c31 0 55 25 55 55v128z" horiz-adv-x="1000" />

<glyph glyph-name="import" unicode="&#xe84e;" d="M472 433c0 169 137 306 306 306h28c15 0 27-12 27-28 0-15-12-28-27-28h-28c-138 0-250-112-250-250v-155l119 119c11 11 29 11 39 0 11-10 11-28 0-39l-166-166c-11-11-29-11-40 0l-166 166c-11 11-11 29 0 39 11 11 28 11 39 0l119-119v155z m-305-527c-62 0-111 49-111 111v194c0 15 12 28 27 28 16 0 28-13 28-28l0-194c0-31 25-56 56-56l666 0c31 0 56 25 56 56v194c0 15 12 28 28 28 15 0 27-13 27-28v-194c0-62-49-111-111-111l-666 0z" horiz-adv-x="1000" />

<glyph glyph-name="in-progress" unicode="&#xe84f;" d="M667 739v-167c0-92-75-166-167-166-92 0-167 74-167 166v167h334z m-389 55v-222c0-122 99-222 222-222 123 0 222 100 222 222v222h-444z m389-833h-334v167c0 92 75 166 167 166 92 0 167-74 167-166v-167z m-167 389c-123 0-222-99-222-222v-222h444v222c0 123-99 222-222 222z m186-409c11 11 11 29 0 40l-166 166c-11 11-29 11-40 0l-166-166c-11-11-11-29 0-40 11-10 28-10 39 0l147 148 147-148c11-10 29-10 39 0z m8 659c0-15-12-28-27-28h-334c-15 0-27 13-27 28 0 15 12 28 27 28h334c15 0 27-13 27-28z m139-667c0-15-12-27-27-27h-612c-15 0-27 12-27 27 0 16 12 28 27 28h612c15 0 27-12 27-28z m0 834c0-16-12-28-27-28h-612c-15 0-27 12-27 28 0 15 12 27 27 27l612 0c15 0 27-12 27-27z" horiz-adv-x="1000" />

<glyph glyph-name="incident" unicode="&#xe850;" d="M167 822v-42c16 9 35 14 55 14h722l-166-277 166-278h-722c-20 0-39 5-55 15v-376c0-16-13-28-28-28-15 0-28 12-28 28v944c0 16 13 28 28 28 15 0 28-12 28-28z m0-472c0-31 25-56 55-56h624l-116 194c-10 18-10 40 0 57l116 194h-624c-30 0-55-25-55-56v-333z" horiz-adv-x="1000" />

<glyph glyph-name="information-circle" unicode="&#xe851;" d="M583 544c0-46-37-83-83-83-46 0-83 37-83 83 0 47 37 84 83 84 46 0 83-37 83-84z m-139-472v278c0 31 25 56 56 56 31 0 56-25 56-56v-278c0-30-25-55-56-55-31 0-56 25-56 55z m56-222c276 0 500 224 500 500 0 276-224 500-500 500-276 0-500-224-500-500 0-276 224-500 500-500z m0 56c-245 0-444 199-444 444 0 246 199 444 444 444 246 0 444-198 444-444 0-245-198-444-444-444z" horiz-adv-x="1000" />

<glyph glyph-name="infrastructure" unicode="&#xe852;" d="M222 239h250l0-56h-222c-15 0-28-12-28-27v-84c-30 0-55-25-55-55v-56c0-31 25-55 55-55h56c31 0 55 24 55 55v56c0 30-24 55-55 55v56h194l0-56c-30 0-55-25-55-55v-56c0-31 25-55 55-55h56c31 0 55 24 55 55v56c0 30-24 55-55 55v56h194v-56c-30 0-55-25-55-55v-56c0-31 25-55 55-55h56c31 0 55 24 55 55v56c0 30-24 55-55 55v84c0 15-13 27-28 27h-222v56h250c92 0 166 75 166 167 0 72-46 134-111 157-10 129-118 231-250 231-68 0-131-27-176-72-22 11-47 17-74 17-92 0-166-75-166-167 0-3 0-6 0-9-65-23-111-85-111-157 0-92 74-167 166-167z m196 415l28 28c36 35 84 57 137 57 103 0 187-79 194-180l3-36 34-12c44-16 75-57 75-105 0-62-50-112-111-112h-250l0 56c31 0 55 25 55 56v55c0 31-24 56-55 56h-56c-30 0-55-25-55-56v-55c0-31 25-56 55-56l0-56h-250c-61 0-111 50-111 112 0 48 31 89 74 104l40 14-3 42c0 2 0 4 0 6 0 62 50 111 111 111 18 0 35-4 50-11l35-18z m304-637v-56h56v56h-56z m-500 0v-56h56v56h-56z m306 444v-55h-56v55h56z m0-444v-56h-56v56h56z" horiz-adv-x="1000" />

<glyph glyph-name="integration" unicode="&#xe853;" d="M333 656h334v83c0 31 25 55 55 55h222c31 0 56-24 56-55v-222c0-31-25-56-56-56h-222c-30 0-55 25-55 56v83h-334v-83c0-5 0-10-1-15l265-265c4 1 9 2 14 2h222c31 0 56-25 56-56v-222c0-31-25-55-56-55h-222c-31 0-55 24-55 55v222c0 5 0 10 1 15l-265 265c-4-1-9-2-14-2h-222c-31 0-56 25-56 56v222c0 31 25 55 56 55h222c31 0 55-24 55-55v-83z m-55 83h-222l0-222h222v222z m666-222v222h-222v-222h222z m-333-556h222v222h-222v-222z" horiz-adv-x="1000" />

<glyph glyph-name="italicize" unicode="&#xe854;" d="M349 17l191 666h-96l16 56h290l-16-56h-83l-191-666h96l-16-56h-290l16 56h83z" horiz-adv-x="1000" />

<glyph glyph-name="job-executed" unicode="&#xe855;" d="M378 806c-4 15 5 30 19 33 110 23 224 9 324-41 109-53 195-145 241-257 46-112 51-237 12-352-31-90-87-169-160-228h103c15 0 27-12 27-28 0-15-12-27-27-27h-167c-15 0-28 12-28 27v167c0 15 13 28 28 28 15 0 28-13 28-28v-98c66 53 116 124 143 205 35 102 31 214-10 313-41 100-117 181-214 229-89 44-189 57-285 37-15-3-30 6-34 20z m-322-39c0-16 12-28 27-28h103c-73-59-129-138-159-228-40-115-35-240 11-352 47-112 132-204 241-257 100-50 215-64 324-41 15 3 23 18 19 33-4 14-19 23-34 20-96-20-196-7-285 37-97 48-173 129-214 229-41 100-45 211-10 313 27 81 77 152 143 205l0-98c0-15 13-28 28-28 15 0 28 13 28 28l0 167c0 7-3 14-8 19-6 6-13 8-20 8l-167 0c-15 0-27-12-27-27z m686-270c11 11 11 29 0 39-11 11-29 11-39 0l-259-258-119 119c-11 11-28 11-39 0-11-10-11-28 0-39l139-139c11-11 28-11 39 0l278 278z" horiz-adv-x="1000" />

<glyph glyph-name="job-running" unicode="&#xe856;" d="M397 839c-14-3-23-18-19-33 4-14 19-23 34-20 96 20 196 7 285-37 97-48 173-129 214-229 41-99 45-211 10-313-27-81-77-152-143-205v98c0 15-13 28-28 28-15 0-28-13-28-28v-167c0-15 13-27 28-27h167c15 0 27 12 27 27 0 16-12 28-27 28h-103c73 59 129 138 160 228 39 115 34 240-12 352-46 112-132 204-241 257-100 50-214 64-324 41z m-314-100c-15 0-27 12-27 28 0 15 12 27 27 27l167 0c7 0 14-2 20-8 5-5 8-12 8-19l0-167c0-15-13-28-28-28-15 0-28 13-28 28l0 98c-66-53-116-124-143-205-35-102-31-213 10-313 41-100 117-181 214-229 89-44 189-57 285-37 15 3 30-6 34-20 4-15-4-30-19-33-109-23-224-9-324 41-109 53-194 145-241 257-46 112-51 237-11 352 30 90 86 169 159 228h-103z" horiz-adv-x="1000" />

<glyph glyph-name="json" unicode="&#xe857;" d="M263 428c16-18 41-27 73-27 18 0 34 3 47 11 14 8 24 18 32 31 8 14 11 29 11 46 0 22-4 41-14 58-9 17-23 32-39 47l-45 39c-11 9-18 17-23 25-4 8-7 18-7 29 0 10 3 18 8 24 6 7 13 10 23 10 13 0 22-5 26-15 5-10 8-24 9-44l56 10c-2 30-10 53-23 71-14 18-36 27-67 27-29 0-52-8-69-24-16-15-24-37-24-65 0-19 3-36 10-49 7-14 18-27 32-38l45-40c14-12 24-23 30-33 6-10 10-22 10-36 0-10-3-19-8-25-5-6-12-9-22-9-14 0-24 6-30 18-7 12-10 30-11 53l-56-12c1-36 10-63 26-82z m-173 18c-7-2-17-3-30-3v-46h32c21 0 37 3 49 9 12 7 20 16 25 29 5 13 7 30 7 51v280h-65v-278c0-13-2-23-4-29-3-6-8-11-14-13z m491-45c-37 0-64 10-80 29-16 21-24 50-24 88v136c0 38 8 67 24 86 16 20 43 30 80 30 37 0 64-10 80-30 16-19 24-48 24-86v-136c0-38-9-67-25-87-16-20-42-30-79-30z m0 48c15 0 24 5 29 14 5 9 8 22 8 40v166c0 17-3 30-8 39-4 9-14 14-29 14-15 0-25-5-30-14-5-9-7-22-7-39v-166c0-18 2-31 7-40 5-9 15-14 30-14z m216 317h-46v-360h56v215l88-215h44v360h-55v-206l-87 206z m-714-472c-15 0-27-12-27-27 0-16 12-28 27-28h667c15 0 28 12 28 28 0 15-13 27-28 27h-667z m-27-194c0 15 12 28 27 28h834c15 0 27-13 27-28 0-15-12-28-27-28h-834c-15 0-27 13-27 28z m27-139c-15 0-27-12-27-28 0-15 12-27 27-27h611c16 0 28 12 28 27 0 16-12 28-28 28h-611z" horiz-adv-x="1000" />

<glyph glyph-name="knowledge-base" unicode="&#xe858;" d="M194 517c-15 0-27-13-27-28 0-15 12-28 27-28h167c16 0 28 13 28 28 0 15-12 28-28 28h-167z m0-111c-15 0-27-13-27-28 0-16 12-28 27-28h167c16 0 28 12 28 28 0 15-12 28-28 28h-167z m-27-139c0 15 12 27 27 27h167c16 0 28-12 28-27 0-16-12-28-28-28h-167c-15 0-27 12-27 28z m444 222c0 15 13 28 28 28h167c15 0 27-13 27-28 0-15-12-28-27-28h-167c-15 0-28 13-28 28z m28-83c-15 0-28-13-28-28 0-16 13-28 28-28h167c15 0 27 12 27 28 0 15-12 28-27 28h-167z m-28-139c0 15 13 27 28 27h167c15 0 27-12 27-27 0-16-12-28-27-28h-167c-15 0-28 12-28 28z m-157 407c-42 42-98 65-157 65h-241c-31 0-56-25-56-56v-666c0-31 25-56 56-56h287c29 0 58-12 78-32l79-79 79 79c20 20 49 32 78 32h287c31 0 56 25 56 56v666c0 31-25 56-56 56h-241c-59 0-115-23-157-65l-46-46-46 46z m18-97v-621l-11 12c-31 31-74 49-118 49h-287v666h241c44 0 86-17 118-48l57-58z m56-621v621l57 58c32 31 74 48 118 48h241v-666h-287c-44 0-86-18-118-49l-11-12z" horiz-adv-x="1000" />

<glyph glyph-name="legend" unicode="&#xe859;" d="M111 406h278v277h-278v-277z m56 222h166v-167h-166v167z m-85-625l168 291 168-291h-336z m96 55h144l-72 125-72-125z m322 486c0 16 12 28 28 28h389c15 0 27-12 27-28 0-15-12-27-27-27h-389c-16 0-28 12-28 27z m28-361c-16 0-28-12-28-27 0-16 12-28 28-28h389c15 0 27 12 27 28 0 15-12 27-27 27h-389z" horiz-adv-x="1000" />

<glyph glyph-name="like" unicode="&#xe85a;" d="M976 282l-3-3 3-4c15-17 24-39 24-63 0-24-9-46-24-63l-3-4 3-3c15-17 24-39 24-63 0-44-29-81-69-92l-6-1 2-6c4-11 6-23 6-35 0-52-42-94-94-94h-290c-39 0-78 6-115 18l-107 40-2-4c-15-32-48-54-85-54h-212c-16 0-28 12-28 27v612c0 15 12 27 28 27h212c39 0 74-25 87-60l2-4 5 1c43 11 74 45 108 89 34 44 61 98 74 150l18 80c3 13 14 21 27 21h33c71 0 128-65 128-136v-33c0-33-8-98-27-156l-2-7h213c52 0 94-54 94-106 0-24-9-57-24-74z m-44-300c1-2 2-4 2-7 0 1 0 1 0 2-1 2-1 3-2 5z m-876 480v-556h184c21 0 38 18 38 39v478c0 21-17 39-38 39h-184z m278-65v-432l118-43c31-10 64-16 97-16h290c21 0 39 18 39 39 0 22-18 39-39 39-15 0-28 12-28 28 0 15 13 28 28 28h67c21 0 39 17 39 39 0 21-18 38-39 38h-67c-15 0-28 13-28 28 0 16 13 28 28 28h67c21 0 39 17 39 39 0 21-18 39-39 39h-67c-15 0-28 12-28 28 0 15 13 27 28 27h67c21 0 39 28 39 50 0 21-18 50-39 50h-345c-15 0-28 13-28 28 0 15 13 28 28 28h72l1 3c10 20 18 40 23 72 6 32 10 65 10 88v33c0 40-33 81-73 81h-11l-13-60c-16-64-52-133-97-185-45-54-84-86-135-96l-4-1z" horiz-adv-x="1000" />

<glyph glyph-name="line-dash" unicode="&#xe85b;" d="M111 406c-31 0-55-25-55-56 0-31 24-56 55-56h306c30 0 55 25 55 56 0 31-25 56-55 56h-306z m472 0c-30 0-55-25-55-56 0-31 25-56 55-56h306c31 0 55 25 55 56 0 31-24 56-55 56h-306z" horiz-adv-x="1000" />

<glyph glyph-name="line-dot" unicode="&#xe85c;" d="M167 406c-31 0-56-25-56-56 0-31 25-56 56-56 30 0 55 25 55 56 0 31-25 56-55 56z m222 0c-31 0-56-25-56-56 0-31 25-56 56-56 31 0 55 25 55 56 0 31-24 56-55 56z m167-56c0 31 24 56 55 56 31 0 56-25 56-56 0-31-25-56-56-56-31 0-55 25-55 56z m277 56c-30 0-55-25-55-56 0-31 25-56 55-56 31 0 56 25 56 56 0 31-25 56-56 56z" horiz-adv-x="1000" />

<glyph glyph-name="line-standard" unicode="&#xe85d;" d="M69 350c0 38 32 69 70 69h722c39 0 70-31 70-69 0-38-31-69-70-69h-722c-38 0-70 31-70 69z" horiz-adv-x="1000" />

<glyph glyph-name="line-thick" unicode="&#xe85e;" d="M56 350c0 61 49 111 111 111h666c62 0 111-50 111-111 0-61-49-111-111-111h-666c-62 0-111 50-111 111z" horiz-adv-x="1000" />

<glyph glyph-name="line-thin" unicode="&#xe85f;" d="M56 350c0 15 12 28 27 28h834c15 0 27-13 27-28 0-15-12-28-27-28h-834c-15 0-27 13-27 28z" horiz-adv-x="1000" />

<glyph glyph-name="linear" unicode="&#xe860;" d="M0 461c0 31 25 56 56 56h888c31 0 56-25 56-56v-167c0-30-25-55-56-55h-888c-31 0-56 25-56 55v167z m56 0v-55h444v-112h444v167h-888z" horiz-adv-x="1000" />

<glyph glyph-name="link" unicode="&#xe861;" d="M1000 350c0-153-124-278-278-278h-55c-154 0-278 125-278 278v83c0 16 12 28 28 28 15 0 27-12 27-28v-83c0-123 100-222 223-222h55c123 0 222 99 222 222 0 123-99 222-222 222h-28c-15 0-27 13-27 28 0 15 12 28 27 28h28c154 0 278-125 278-278z m-1000 0c0 153 124 278 278 278h55c154 0 278-125 278-278v-83c0-16-12-28-28-28-15 0-27 12-27 28v83c0 123-100 222-223 222h-55c-123 0-222-99-222-222 0-123 99-222 222-222h28c15 0 27-13 27-28 0-15-12-28-27-28h-28c-154 0-278 125-278 278z" horiz-adv-x="1000" />

<glyph glyph-name="lock" unicode="&#xe862;" d="M444 794c-107 0-194-87-194-194v-139h-28c-61 0-111-50-111-111v-333c0-62 50-111 111-111h556c61 0 111 49 111 111v333c0 61-50 111-111 111h-28v139c0 107-87 194-194 194h-112z m-277-777v333c0 31 25 56 55 56h556c31 0 55-25 55-56v-333c0-31-24-56-55-56h-556c-30 0-55 25-55 56z m527 444h-388v139c0 77 62 139 138 139h112c76 0 138-62 138-139v-139z" horiz-adv-x="1000" />

<glyph glyph-name="log-out" unicode="&#xe863;" d="M472 433c0-15 13-27 28-27 15 0 28 12 28 27v334c0 15-13 27-28 27-15 0-28-12-28-27v-334z m-152 293c14 6 19 23 13 37-7 14-24 19-37 13-159-76-268-238-268-426 0-261 211-472 472-472 261 0 472 211 472 472 0 188-109 350-268 426-13 6-30 1-37-13-6-14 0-31 13-37 140-67 237-210 237-376 0-230-187-417-417-417-230 0-417 187-417 417 0 166 97 309 237 376z" horiz-adv-x="1000" />

<glyph glyph-name="maintenance" unicode="&#xe864;" d="M519 768c97 96 245 108 355 35l-41-40c0 0 0 0 0 0l-93-93 5-75 75-5 93 93c0 0 0 0 0 0l40 41c73-110 61-258-35-355-74-73-179-98-273-73l-405-405c-55-55-144-55-199 0-55 55-55 144 0 199l405 405c-25 94 0 199 73 273z m-51-329l-387-388c-34-33-34-87 0-121 33-33 87-33 120 0l388 388c-25 13-49 30-70 51-21 21-38 45-51 70z m468 188l-76-76c-11-11-27-17-43-16l-76 4c-28 2-50 24-52 52l-4 76c-1 16 5 32 16 43l76 76c-75 20-159 1-218-58-88-88-88-231 0-319 88-88 231-88 319 0 59 59 78 143 58 218z" horiz-adv-x="1000" />

<glyph glyph-name="map-view-hor" unicode="&#xe865;" d="M730 536c11 11 29 11 40 0l166-166c6-6 8-13 8-20 0-7-2-14-8-20l-166-166c-11-11-29-11-40 0-10 11-10 28 0 39l120 119h-433c-16 0-28 13-28 28 0 15 12 28 28 28h433l-120 119c-10 11-10 29 0 39z m-619-75c-31 0-55-25-55-55v-112c0-30 24-55 55-55h167c31 0 55 25 55 55v112c0 30-24 55-55 55h-167z m167-55v-112h-167l0 112h167z" horiz-adv-x="1000" />

<glyph glyph-name="map-view-max" unicode="&#xe866;" d="M639 739c-15 0-28-12-28-28 0-15 13-28 28-28h155l-147-147c-11-10-11-28 0-39 11-11 29-11 39 0l147 147v-155c0-15 13-28 28-28 16 0 28 13 28 28v222c0 16-12 28-28 28h-222z m-278-722h-155l147 147c11 11 11 28 0 39-11 11-28 11-39 0l-147-147v155c0 15-13 28-28 28-15 0-28-13-28-28v-222c0-16 13-28 28-28h222c16 0 28 12 28 28 0 15-12 28-28 28z m0 389c0 30 25 55 56 55h166c31 0 56-25 56-55v-112c0-30-25-55-56-55h-166c-31 0-56 25-56 55v112z m56 0v-112h166v112h-166z" horiz-adv-x="1000" />

<glyph glyph-name="map-view-ver" unicode="&#xe867;" d="M417 794c-31 0-56-24-56-55v-111c0-31 25-56 56-56h166c31 0 56 25 56 56v111c0 31-25 55-56 55h-166z m166-55v-111h-166v111h166z m-269-619c11 11 28 11 39 0l119-120v489c0 15 13 28 28 28 15 0 28-13 28-28v-489l119 120c11 11 29 11 39 0 11-11 11-29 0-40l-166-166c-11-11-29-11-40 0l-166 166c-11 11-11 29 0 40z" horiz-adv-x="1000" />

<glyph glyph-name="mapping" unicode="&#xe868;" d="M583 517h-55v-139h278c61 0 111-50 111-111v-84h27c31 0 56-24 56-55v-111c0-31-25-56-56-56h-111c-30 0-55 25-55 56v111c0 31 25 55 55 55h28v84c0 30-25 55-55 55h-278v-139h28c30 0 55-24 55-55v-111c0-31-25-56-55-56h-112c-30 0-55 25-55 56v111c0 31 25 55 55 55h28v139h-278c-30 0-55-25-55-55l0-84h28c30 0 55-24 55-55v-111c0-31-25-56-55-56h-111c-31 0-56 25-56 56v111c0 31 25 55 56 55h27v84c0 61 50 111 111 111h278v139h-55c-31 0-56 25-56 55v111c0 31 25 56 56 56h166c31 0 56-25 56-56v-111c0-30-25-55-56-55z m-166 166v-111h166v111h-166z m-361-555v-111h111v111h-111z m777 0v-111h111v111h-111z m-389-111h112v111h-112v-111z" horiz-adv-x="1000" />

<glyph glyph-name="markdown" unicode="&#xe869;" d="M611 656c0 12-8 23-20 26-13 4-25-2-32-13l-198-346-198 346c-6 11-19 17-31 13-12-3-21-14-21-26v-612c0-15 13-27 28-27 15 0 28 12 28 27v507l170-298c5-9 14-14 24-14 10 0 19 5 24 14l171 298v-507c0-15 12-27 27-27 16 0 28 12 28 27v612z m250 27c16 0 28-12 28-27v-544l64 63c10 11 28 11 39 0 11-11 11-28 0-39l-111-111c-11-11-29-11-39 0l-112 111c-10 11-10 28 0 39 11 11 29 11 40 0l63-63v544c0 15 13 27 28 27z" horiz-adv-x="1000" />

<glyph glyph-name="maximize" unicode="&#xe86a;" d="M639 739c-15 0-28-12-28-28 0-15 13-28 28-28h155l-627-627v155c0 15-13 28-28 28-15 0-28-13-28-28v-222c0-16 13-28 28-28h222c16 0 28 12 28 28 0 15-12 28-28 28h-155l627 627v-155c0-15 13-28 28-28 16 0 28 13 28 28v222c0 16-12 28-28 28h-222z" horiz-adv-x="1000" />

<glyph glyph-name="metric" unicode="&#xe86b;" d="M472 128v472c0 15 13 28 28 28 15 0 28-13 28-28v-472h194v250c0 15 13 28 28 28 15 0 28-13 28-28v-250h166v361c0 15 13 28 28 28 16 0 28-13 28-28v-389c0-15-12-28-28-28h-944c-16 0-28 13-28 28v389c0 15 12 28 28 28 15 0 28-13 28-28v-361h166v250c0 15 13 28 28 28 15 0 28-13 28-28v-250h194z" horiz-adv-x="1000" />

<glyph glyph-name="minus" unicode="&#xe86c;" d="M917 350c0-15-13-28-28-28l-778 0c-15 0-28 13-28 28 0 15 13 28 28 28l778 0c15 0 28-13 28-28z" horiz-adv-x="1000" />

<glyph glyph-name="misc" unicode="&#xe86d;" d="M444 600c0-107-87-194-194-194-107 0-194 87-194 194 0 107 87 194 194 194 107 0 194-87 194-194z m-55 0c0 77-62 139-139 139-77 0-139-62-139-139 0-77 62-139 139-139 77 0 139 62 139 139z m-139-694c107 0 194 87 194 194 0 107-87 194-194 194-107 0-194-87-194-194 0-107 87-194 194-194z m694 694c0-107-87-194-194-194-107 0-194 87-194 194 0 107 87 194 194 194 107 0 194-87 194-194z m0-500c0-107-87-194-194-194-107 0-194 87-194 194 0 107 87 194 194 194 107 0 194-87 194-194z m-55 0c0 77-62 139-139 139-77 0-139-62-139-139 0-77 62-139 139-139 77 0 139 62 139 139z" horiz-adv-x="1000" />

<glyph glyph-name="more" unicode="&#xe86e;" d="M278 378c0-46-37-84-84-84-46 0-83 38-83 84 0 46 37 83 83 83 47 0 84-37 84-83z m305 0c0-46-37-84-83-84-46 0-83 38-83 84 0 46 37 83 83 83 46 0 83-37 83-83z m306 0c0-46-37-84-83-84-46 0-84 38-84 84 0 46 38 83 84 83 46 0 83-37 83-83z" horiz-adv-x="1000" />

<glyph glyph-name="mouse-drag" unicode="&#xe86f;" d="M389 211c0-15 12-28 28-28 15 0 27 13 27 28v167c0 15-12 28-27 28-16 0-28-13-28-28v-167z m139-28c-16 0-28 13-28 28v167c0 15 12 28 28 28 15 0 28-13 28-28v-167c0-15-13-28-28-28z m83 28c0-15 13-28 28-28 15 0 28 13 28 28v167c0 15-13 28-28 28-15 0-28-13-28-28v-167z m-321-165l0 0c-1-6 1-12 5-17 4-5 9-8 16-8 20 0 41 0 63-1 11 0 22 0 32 0 31-1 61-1 82 2l0 0c10 1 19 7 24 12 7 5 13 12 18 19 12 13 22 29 29 41 0 0 0 0 0 1l1 0 0 0 0-1c4-7 13-23 24-37 6-7 13-14 20-20 7-6 16-12 27-14l0 0 1 0c24-2 48-2 72 0 7 1 12 4 15 9 4 5 5 11 3 17-4 15-6 31-6 46l0 1c0 16 2 32 5 48 16 34 37 65 62 93 0 1 1 2 1 2 18 26 33 55 43 85 0 1 0 1 1 2 7 33 11 66 13 100l0 1 0 0v123c12 39-10 80-49 93-31 11-65 0-85-25-3 10-6 20-10 29-1 2-1 4-2 5-13 16-29 28-48 34-1 1-2 1-3 1-21 4-42 4-63 0-1 0-1 0-2 0-19-5-36-16-48-32 0 2-1 5-2 7-1 1-2 3-3 4-13 19-33 32-55 36l-1 0c-20 4-41 2-61-4l0 0c-24-8-43-27-51-51-1-1-1-2-1-3-1-2-1-4-1-6-13 14-30 21-46 24-21 5-45 4-63-2-33-11-57-42-58-77 0-1 0-1 0-2 2-30 9-60 21-88-16 3-31 4-47 1-1 0-1 0-2-1-25-7-46-23-59-45-1 0-1-1-1-1-14-28-14-59-2-113 0 0 0-1 1-1 13-46 39-87 74-120l45-50c1-1 1-1 2-2 6-6 13-12 21-20l7-7c11-10 23-22 35-32 2-1 4-4 6-10 1-6 2-13 2-20 0-7 0-13-1-18 0-3 0-5-1-6l0-2z m107 588c5 12 14 21 25 25 13 4 27 5 41 2 11-2 21-8 28-17 12-30 18-61 19-93 1-11 10-20 21-20 11 0 20 9 21 20 1 27 6 54 13 80 6 7 15 13 24 15 15 3 31 3 46 0 9-3 18-9 25-17 10-26 16-54 18-83 0 0 0-2 0-3 0 0 1-4 3-8 2-2 6-8 14-9 8-2 14 1 17 3 4 4 6 8 6 8 0 1 1 2 1 3 0 0 1 1 1 2 0 1 0 2 1 4l0 0c0 2 1 4 1 6 3 8 6 18 11 25 1 2 1 3 2 5 6 18 26 28 44 22 18-6 28-26 22-45-1-2-1-4-1-6v-125c-2-31-6-62-13-92-9-25-21-50-36-72-28-31-51-67-69-105 0-1-1-2-1-4-5-20-7-40-6-60 0-11 1-21 2-32-13 0-27 0-40 2 0 0-3 1-6 4-5 3-9 8-14 14-9 12-17 25-20 31-7 14-22 22-37 22-16 0-30-8-38-22-5-10-14-23-24-35-5-5-9-10-13-13-2-2-3-3-4-3-17-2-43-2-74-2-10 1-21 1-31 1-14 0-29 1-42 1 0 3 0 6 0 10 0 9-1 20-4 30-3 11-9 22-19 31-11 9-22 20-33 30l-7 7c-7 7-15 14-22 20l-45 51c-1 0-1 1-1 1-30 28-52 62-63 101-11 50-9 69-2 83 8 12 20 22 34 26 12 2 24 1 36-2 7-4 13-9 18-15l0 0c2-3 4-5 5-7l3-4 0 0c2-2 5-6 7-9 1 0 3-2 6-4 2-1 11-5 21 1 8 5 9 14 9 15 1 3 1 5 1 7-1 3-2 8-4 13-3 10-8 20-12 28l-1 2c-4 8-8 16-10 25-1 1-1 2-1 3-11 24-18 50-20 76 2 18 13 33 30 38 1 0 1 0 1 1 9 3 25 4 40 1 16-4 24-11 27-17 7-13 12-29 16-42l0-2c2-5 4-10 5-13 0-1 1-2 1-4 1 0 1-1 2-2 1-1 2-4 5-6 4-2 12-6 21-2 8 3 10 10 11 11 2 4 2 7 2 8l0 0c0 1 0 2 0 2-1 27 1 53 6 79z" horiz-adv-x="1000" />

<glyph glyph-name="mouse-pointer" unicode="&#xe870;" d="M333 716v-667l167 167 139-278c0 0 38-12 55 0 18 12 36 36 28 56-38 91-139 277-139 277h195l-445 445z" horiz-adv-x="1000" />

<glyph glyph-name="mouse-rightexpand" unicode="&#xe871;" d="M111 406c0 30 25 55 56 55h500v100c0 25 30 37 47 19l230-230-230-230c-17-18-47-5-47 19v100h-500c-31 0-56 25-56 55v112z" horiz-adv-x="1000" />

<glyph glyph-name="mouse-text" unicode="&#xe872;" d="M417 794c46 0 83-37 83-83v-722c0-46-37-83-83-83h-28c-15 0-28-13-28-28 0-16 13-28 28-28h28c45 0 85 22 111 55 25-33 66-55 111-55h28c15 0 27 12 27 28 0 15-12 28-27 28h-28c-46 0-83 37-83 83v722c0 46 37 83 83 83h28c15 0 27 13 27 28 0 16-12 28-27 28h-28c-45 0-86-22-111-55-26 33-66 55-111 55h-28c-15 0-28-12-28-28 0-15 13-28 28-28h28z" horiz-adv-x="1000" />

<glyph glyph-name="move" unicode="&#xe873;" d="M56 683c0 62 49 111 111 111h444c62 0 111-49 111-111v-444c0-61-49-111-111-111h-444c-62 0-111 50-111 111v444z m111 56c-31 0-56-25-56-56v-444c0-31 25-56 56-56h444c31 0 56 25 56 56v444c0 31-25 56-56 56h-444z m722-556c0-15 12-27 28-27 15 0 27 12 27 27v111c0 16-12 28-27 28-16 0-28-12-28-28v-111z m-111 361c0 16 12 28 28 28h27c62 0 111-49 111-111v-28c0-15-12-27-27-27-16 0-28 12-28 27v28c0 31-25 56-56 56h-27c-16 0-28 12-28 27z m28-583c-16 0-28-12-28-28 0-15 12-27 28-27h27c62 0 111 49 111 111v27c0 16-12 28-27 28-16 0-28-12-28-28v-27c0-31-25-56-56-56h-27z m-417-55c-61 0-111 49-111 111v27c0 16 12 28 28 28 15 0 27-12 27-28v-27c0-31 25-56 56-56h28c15 0 27-12 27-28 0-15-12-27-27-27h-28z m167 55c-16 0-28-12-28-28 0-15 12-27 28-27h111c15 0 27 12 27 27 0 16-12 28-27 28h-111z" horiz-adv-x="1000" />

<glyph glyph-name="navigation" unicode="&#xe874;" d="M56 350c0 31 24 56 55 56h778c31 0 55-25 55-56 0-31-24-56-55-56h-778c-31 0-55 25-55 56z m0 333c0 31 24 56 55 56h778c31 0 55-25 55-56 0-30-24-55-55-55h-778c-31 0-55 25-55 55z m0-666c0 30 24 55 55 55h778c31 0 55-25 55-55 0-31-24-56-55-56h-778c-31 0-55 25-55 56z" horiz-adv-x="1000" />

<glyph glyph-name="network" unicode="&#xe875;" d="M861 628c46 0 83 37 83 83 0 46-37 83-83 83-46 0-83-37-83-83 0-10 2-20 5-29l-175-149c-29 24-67 39-108 39-36 0-69-11-97-31l-78 79c5 11 8 23 8 36 0 46-37 83-83 83-46 0-83-37-83-83 0-46 37-84 83-84 13 0 25 3 36 8l78-78c-19-27-31-60-31-96 0-12 2-23 4-33l-135-52c-15 18-38 29-63 29-46 0-83-37-83-83 0-46 37-84 83-84 46 0 83 38 83 84 0 0 0 1 0 2l135 52c24-42 66-72 115-80v-173c-32-12-55-43-55-79 0-46 37-83 83-83 46 0 83 37 83 83 0 36-23 67-55 79v173c49 9 91 38 115 80l135-52 0-1 0-1c0-46 37-84 83-84 46 0 83 38 83 84 0 46-37 83-83 83-25 0-48-11-63-29l-135 52c3 10 4 21 4 33 0 31-9 60-24 85l176 148c12-7 27-11 42-11z m28 83c0-15-12-28-28-28-15 0-28 13-28 28 0 16 13 28 28 28 16 0 28-12 28-28z m-611-55c0-16-13-28-28-28-15 0-28 12-28 28 0 15 13 27 28 27 15 0 28-12 28-27z m583-417c-15 0-28 12-28 28 0 15 13 27 28 27 16 0 28-12 28-27 0-16-12-28-28-28z m-361-278c-15 0-28 12-28 28 0 15 13 28 28 28 15 0 28-13 28-28 0-16-13-28-28-28z m-361 278c-15 0-28 12-28 28 0 15 13 27 28 27 15 0 28-12 28-27 0-16-13-28-28-28z m472 167c0-62-50-112-111-112-61 0-111 50-111 112 0 61 50 111 111 111 61 0 111-50 111-111z" horiz-adv-x="1000" />

<glyph glyph-name="newtab" unicode="&#xe876;" d="M694 794c-15 0-27-12-27-27 0-16 12-28 27-28h156l-481-480c-11-11-11-29 0-40 11-11 29-11 40 0l480 481v-156c0-15 12-27 28-27 15 0 27 12 27 27v223c0 15-12 27-27 27h-223z m-527-277c-31 0-56-25-56-56v-444c0-31 25-56 56-56h444c31 0 56 25 56 56v250c0 15 12 27 27 27 16 0 28-12 28-27v-250c0-62-49-111-111-111h-444c-62 0-111 49-111 111v444c0 62 49 111 111 111h250c15 0 27-12 27-28 0-15-12-27-27-27h-250z" horiz-adv-x="1000" />

<glyph glyph-name="notes" unicode="&#xe877;" d="M306 406h388c16 0 28-13 28-28 0-16-12-28-28-28h-388c-16 0-28 12-28 28 0 15 12 28 28 28z m-28-195c0 15 12 28 28 28h388c16 0 28-13 28-28 0-15-12-28-28-28h-388c-16 0-28 13-28 28z m28-139h388c16 0 28-12 28-28 0-15-12-27-28-27h-388c-16 0-28 12-28 27 0 16 12 28 28 28z m-84 778c-61 0-111-50-111-111v-778c0-61 50-111 111-111h556c61 0 111 50 111 111v611c0 7-3 14-8 20l-250 250c-6 5-13 8-20 8l-389 0z m0-944c-30 0-55 24-55 55v778c0 31 25 55 55 55h334v-166c0-62 49-111 111-111h166v-556c0-31-24-55-55-55h-556z m389 877l211-211h-155c-31 0-56 25-56 56v155z" horiz-adv-x="1000" />

<glyph glyph-name="notification" unicode="&#xe878;" d="M556 794c0-2-1-4-1-6 147-21 278-129 278-327 0-185 47-310 139-456 12-19-2-44-24-44l-337 0c0-61-50-111-111-111-61 0-111 50-111 111l-337 0c-22 0-36 25-24 44 92 150 139 294 139 456 0 194 132 303 278 326 0 2-1 5-1 7 0 31 25 56 56 56 31 0 56-25 56-56z m-456-777h800c-81 137-122 265-122 444 0 96-36 163-85 207-51 45-121 68-193 68-71-1-141-25-192-70-51-44-86-111-86-205 0-159-41-301-122-444z" horiz-adv-x="1000" />

<glyph glyph-name="options" unicode="&#xe879;" d="M972 517h-475c-13-64-69-111-136-111-67 0-123 47-136 111h-197c-16 0-28 12-28 27 0 16 12 28 28 28h197c13 64 69 111 136 111 67 0 123-47 136-111h475c16 0 28-12 28-28 0-15-12-27-28-27z m-611-56c46 0 83 37 83 83 0 47-37 84-83 84-46 0-83-37-83-84 0-46 37-83 83-83z m-333-278c-16 0-28-12-28-27 0-16 12-28 28-28h475c13-64 69-111 136-111 67 0 123 47 136 111h197c16 0 28 12 28 28 0 15-12 27-28 27h-197c-13 64-69 111-136 111-67 0-123-47-136-111h-475z m694-27c0-46-37-84-83-84-46 0-83 38-83 84 0 46 37 83 83 83 46 0 83-37 83-83z" horiz-adv-x="1000" />

<glyph glyph-name="pan" unicode="&#xe87a;" d="M520 842c-6 5-13 8-20 8-7 0-14-3-20-8l-166-167c-11-11-11-28 0-39 11-11 28-11 39 0l147 147 147-147c11-11 29-11 39 0 11 11 11 28 0 39l-166 167z m-167-778c-11 11-28 11-39 0-11-11-11-28 0-39l166-167c11-11 29-11 40 0l166 167c11 11 11 28 0 39-10 11-28 11-39 0l-147-147-147 147z m-139 472c11-10 11-28 0-39l-147-147 147-147c11-11 11-28 0-39-11-11-28-11-39 0l-167 166c-11 11-11 29 0 40l167 166c11 11 28 11 39 0z m611 0c-11 11-28 11-39 0-11-10-11-28 0-39l147-147-147-147c-11-11-11-28 0-39 11-11 28-11 39 0l167 166c11 11 11 29 0 40l-167 166z" horiz-adv-x="1000" />

<glyph glyph-name="patching" unicode="&#xe87b;" d="M854 389l-40 40 40 39c65 65 65 171 0 236-65 65-171 65-236 0l-39-40-40 40 40 39c86 87 227 87 314 0 87-87 87-228 0-314l-39-40z m-472-393l39 40 40-40-40-39c-86-87-227-87-314 0-87 87-87 228 0 315l39 39 40-40-40-39c-65-65-65-170 0-236 66-65 171-65 236 0z m35 521c15 0 27 12 27 28 0 15-12 27-27 27-16 0-28-12-28-27 0-16 12-28 28-28z m-84-84c0-15-12-27-27-27-16 0-28 12-28 27 0 16 12 28 28 28 15 0 27-12 27-28z m84-27c15 0 27 12 27 27 0 16-12 28-27 28-16 0-28-12-28-28 0-15 12-27 28-27z m0-111c15 0 27 12 27 27 0 16-12 28-27 28-16 0-28-12-28-28 0-15 12-27 28-27z m111 111c15 0 28 12 28 27 0 16-13 28-28 28-16 0-28-12-28-28 0-15 12-27 28-27z m0-111c15 0 28 12 28 27 0 16-13 28-28 28-16 0-28-12-28-28 0-15 12-27 28-27z m111-112c15 0 28 13 28 28 0 16-13 28-28 28-15 0-28-12-28-28 0-15 13-28 28-28z m0 112c15 0 28 12 28 27 0 16-13 28-28 28-15 0-28-12-28-28 0-15 13-27 28-27z m-111-112c15 0 28 13 28 28 0 16-13 28-28 28-16 0-28-12-28-28 0-15 12-28 28-28z m-107 560c-86 87-227 87-314 0-87-87-87-228 0-314l472-472c86-87 227-87 314 0 87 87 87 228 0 314l-472 472z m-39-39l472-472c65-65 65-170 0-236-65-65-171-65-236 0l-472 472c-65 65-65 171 0 236 66 65 171 65 236 0z" horiz-adv-x="1000" />

<glyph glyph-name="physical-device" unicode="&#xe87c;" d="M56 739v-445c0-30 24-55 55-55h778c31 0 55 25 55 55v445c0 31-24 55-55 55h-778c-31 0-55-24-55-55z m55 0h778v-445h-778v445z m112-695c0 16 12 28 28 28h306c15 0 28-12 28-28 0-15-13-27-28-27h-306c-16 0-28 12-28 27z m417 0c0 16 12 28 27 28h84c15 0 27-12 27-28 0-15-12-27-27-27h-84c-15 0-27 12-27 27z m-584 84c0 31 24 55 55 55h778c31 0 55-24 55-55v-167c0-31-24-55-55-55h-778c-31 0-55 24-55 55v167z m833 0h-778v-167h778v167z" horiz-adv-x="1000" />

<glyph glyph-name="pin-active" unicode="&#xe87d;" d="M281 789c-1 33 25 61 58 61h322c33 0 59-28 58-61-2-111 7-349 116-493 15-21 1-57-25-57h-227l-61-288c-5-23-39-23-44 0l-61 288h-227c-26 0-40 36-25 57 109 144 118 382 116 493z" horiz-adv-x="1000" />

<glyph glyph-name="pin" unicode="&#xe87e;" d="M281 789c-1 33 25 61 58 61h322c33 0 59-28 58-61-2-111 7-349 116-493 15-21 1-57-25-57h-227l-61-288c-5-23-39-23-44 0l-61 288h-227c-26 0-40 36-25 57 109 144 118 382 116 493z m-49-495h536c-48 77-73 169-87 252-17 96-18 187-17 245 0 1-1 2-1 3-1 0-1 0-1 0 0 0 0 0-1 0h-322c0 0-1 0-1 0 0 0 0 0 0 0-1-1-2-2-2-3 2-58 0-149-16-245-15-83-40-175-88-252z" horiz-adv-x="1000" />

<glyph glyph-name="play" unicode="&#xe87f;" d="M789 350l-511-341 0 682 511-341z m-480 387c-37 25-87-2-87-46v-682c0-44 50-71 87-46l511 341c33 22 33 70 0 92l-511 341z" horiz-adv-x="1000" />

<glyph glyph-name="printer" unicode="&#xe880;" d="M828 645h-26v57c0 82-67 148-148 148h-310c-82 0-148-66-148-148v-57h-23c-82 0-148-66-148-148v-238c0-81 66-148 148-148h23v-187c0-41 33-74 74-74h458c40 0 74 33 74 74v187h26c81 0 147 67 147 148v238c0 82-66 148-147 148z m-576 57c0 51 41 92 92 92h310c50 0 91-41 91-92v-57h-493v57z m494-779c0-9-8-18-18-18h-458c-10 0-18 9-18 18v309h494v-309z m173 336c0-51-41-92-91-92h-26v65h37c15 0 28 13 28 28 0 16-13 28-28 28h-684c-16 0-28-12-28-28 0-15 12-28 28-28h41v-65h-23c-51 0-92 41-92 92v238c0 51 41 92 92 92h655c50 0 91-41 91-92v-238z m-599-164c-16 0-28 12-28 28 0 15 12 28 28 28h356c15 0 28-13 28-28 0-16-13-28-28-28h-356z m358-59h-356c-16 0-28-12-28-28 0-15 12-28 28-28h356c15 0 28 13 28 28 0 16-13 28-28 28z m149 499h-57c-15 0-28-12-28-28 0-15 13-28 28-28h57c15 0 28 13 28 28 0 16-13 28-28 28z" horiz-adv-x="1000" />

<glyph glyph-name="profile-circle" unicode="&#xe881;" d="M500-150c-276 0-500 224-500 500 0 276 224 500 500 500 276 0 500-224 500-500 0-276-224-500-500-500z m325 196c74 80 119 187 119 304 0 246-198 444-444 444-245 0-444-198-444-444 0-117 45-224 120-304 43 115 120 191 208 226-64 39-106 109-106 189 0 123 99 222 222 222 123 0 222-99 222-222 0-80-42-150-105-189 87-35 164-111 208-226z m-45-41c0 1 0 2-1 3-52 157-167 231-279 231-111 0-227-74-279-231 0-1-1-2-1-3 76-62 174-99 280-99 106 0 204 37 280 99z m-280 289c92 0 167 75 167 167 0 92-75 167-167 167-92 0-167-75-167-167 0-92 75-167 167-167z" horiz-adv-x="1000" />

<glyph glyph-name="profile-group" unicode="&#xe882;" d="M474-99c261 0 473 213 473 474 0 262-212 474-473 474-262 0-474-212-474-474 0-261 212-474 474-474z m389 315c-22 37-53 64-87 79 26 21 43 54 43 90 0 63-51 114-114 114-64 0-115-51-115-114 0-36 17-69 43-90-33-15-62-40-85-75-34 64-83 109-138 132 45 30 74 81 74 139 0 93-75 168-168 168-93 0-168-75-168-168 0-58 30-109 75-139-56-24-106-69-140-134-20 48-30 102-30 157 0 233 188 421 421 421 232 0 421-188 421-421 0-56-11-110-32-159z m-292-71c1 1 1 2 1 3 26 76 81 110 133 110 49 0 102-31 129-101-74-122-208-203-360-203-153 0-287 81-360 203 40 110 123 161 202 161 82 0 167-54 206-171 0 0 0 0 0-1 2-4 4-7 7-10 2-2 5-3 7-5 6-2 13-3 19 0 5 1 9 4 12 7 1 2 3 4 4 7z m134 178c-35 0-62 27-62 62 0 34 27 62 62 62 34 0 62-28 62-62 0-35-28-62-62-62z m-389 53c-64 0-115 52-115 115 0 64 51 116 115 116 64 0 115-52 115-116 0-63-51-115-115-115z" horiz-adv-x="947" />

<glyph glyph-name="profile" unicode="&#xe883;" d="M500 294c112 0 227-74 279-231 5-14 21-22 35-17 15 5 23 21 18 35-42 126-122 209-215 246 63 40 105 110 105 190 0 122-99 222-222 222-123 0-222-100-222-222 0-80 42-150 106-190-93-37-174-120-216-246-5-14 3-30 18-35 14-5 30 3 35 17 52 157 168 231 279 231z m167 223c0-92-75-167-167-167-92 0-167 75-167 167 0 92 75 166 167 166 92 0 167-74 167-166z" horiz-adv-x="1000" />

<glyph glyph-name="project" unicode="&#xe884;" d="M417 517c-16 0-28 12-28 27 0 16 12 28 28 28l333 0c15 0 28-12 28-28 0-15-13-27-28-27l-333 0z m-28-139c0-16 12-28 28-28h333c15 0 28 12 28 28 0 15-13 28-28 28l-333 0c-16 0-28-13-28-28z m28-195c-16 0-28 13-28 28 0 15 12 28 28 28h333c15 0 28-13 28-28 0-15-13-28-28-28h-333z m-139 556h694c16 0 28-13 28-28v-722c0-16-12-28-28-28h-861c-61 0-111 50-111 111v584c0 76 62 138 139 138h111c15 0 28-12 28-27v-28z m-167-722h833v666h-666v-527c0-16-13-28-28-28h-139c-31 0-55-25-55-56 0-30 24-55 55-55z m111 722h-83c-46 0-83-37-83-83v-487c16 9 35 14 55 14h111v556z" horiz-adv-x="1000" />

<glyph glyph-name="query" unicode="&#xe885;" d="M83 739c-15 0-27-12-27-28 0-15 12-28 27-28h667c15 0 28 13 28 28 0 16-13 28-28 28h-667z m664-676c-37-29-84-46-136-46-123 0-222 99-222 222 0 123 99 222 222 222 123 0 222-99 222-222 0-51-17-99-46-136l149-150c11-11 11-29 0-39-11-11-28-11-39 0l-150 149z m31 176c0 92-75 167-167 167-92 0-167-75-167-167 0-92 75-167 167-167 92 0 167 75 167 167z m-722 305c0 16 12 28 27 28h834c15 0 27-12 27-28 0-15-12-27-27-27h-834c-15 0-27 12-27 27z m27-138c-15 0-27-13-27-28 0-16 12-28 27-28h278c16 0 28 12 28 28 0 15-12 28-28 28h-278z m-27-195c0 15 12 28 27 28h223c15 0 27-13 27-28 0-15-12-28-27-28h-223c-15 0-27 13-27 28z" horiz-adv-x="1000" />

<glyph glyph-name="queued" unicode="&#xe886;" d="M83 739c-15 0-27-12-27-28 0-15 12-28 27-28h667c15 0 28 13 28 28 0 16-13 28-28 28h-667z m0-167c-15 0-27-12-27-28 0-15 12-27 27-27h667c15 0 28 12 28 27 0 16-13 28-28 28h-667z m-27-194c0 15 12 28 27 28h445c15 0 28-13 28-28 0-16-13-28-28-28h-445c-15 0-27 12-27 28z m27-139c-15 0-27-13-27-28 0-15 12-28 27-28h278c16 0 28 13 28 28 0 15-12 28-28 28h-278z m417-83c0 15 12 27 28 27h166v167c0 15 13 28 28 28 16 0 28-13 28-28v-167h167c15 0 27-12 27-27 0-16-12-28-27-28h-167v-167c0-15-12-28-28-28-15 0-28 13-28 28v167h-166c-16 0-28 12-28 28z" horiz-adv-x="1000" />

<glyph glyph-name="quote" unicode="&#xe887;" d="M111 739v-445h167c0-100-19-120-41-142-3-3-5-6-8-9-25-26-65-52-118-71l56-111c181 54 277 174 277 418v360h-333z m445 0v-445h166c0-100-19-120-41-142-2-3-5-6-8-9-25-26-65-52-117-71l55-111c181 54 278 174 278 418v360h-333z" horiz-adv-x="1000" />

<glyph glyph-name="radial" unicode="&#xe888;" d="M834-40c11-10 28-10 39 1 59 67 100 148 117 236 20 97 10 197-28 289-38 91-102 169-184 224-82 55-179 84-278 84-99 0-196-29-278-84-82-55-146-133-184-224-38-92-48-192-28-289 17-88 58-169 117-236 11-11 28-11 39-1l142 142c-1 0-1 0-1 0 7 11 6 26-2 36-25 32-42 68-50 108-10 48-5 98 14 144 19 46 51 85 92 112 41 28 90 42 139 42 49 0 98-14 139-42 41-27 73-66 92-112 19-46 24-96 14-144-8-40-25-76-50-108-9-12-9-29 1-40l138-138z m102 248c-14-68-43-132-85-186l-99 99c23 34 40 73 48 114 12 59 5 121-18 176-23 56-62 104-112 138-50 33-110 51-170 51v83c-77 0-152-22-216-65-64-43-114-104-143-175-30-71-37-149-22-224 11-58 35-111 70-157l-40-40c-42 54-71 118-85 186-17 86-8 175 25 257 34 81 91 150 164 199 73 49 159 75 247 75 88 0 174-26 247-75 73-49 130-118 164-199 33-82 42-171 25-257z" horiz-adv-x="1000" />

<glyph glyph-name="redo" unicode="&#xe889;" d="M218 684c11 11 27 11 37 0 11-10 11-26 0-37l-112-113h541c117 0 211-94 211-210 0-117-94-211-211-211h-184c-14 0-26 12-26 27 0 14 12 26 26 26h184c87 0 158 71 158 158 0 87-71 158-158 158h-541l112-113c11-11 11-27 0-38-10-10-26-10-37 0l-158 158c-10 11-10 27 0 38l158 157z" horiz-adv-x="947" />

<glyph glyph-name="refresh" unicode="&#xe88a;" d="M999 323c1 15-11 27-26 27-16 0-28-12-29-27-6-99-44-192-109-266-72-82-170-134-277-148-107-14-215 11-305 71-90 60-155 151-183 255-28 104-17 215 31 312 48 97 129 173 229 214 99 41 211 45 313 10 81-27 152-77 205-143h-98c-15 0-28-13-28-28 0-15 13-28 28-28l167 0c7 0 14 3 19 8 6 6 8 13 8 20v167c0 15-12 27-27 27-16 0-28-12-28-27v-103c-59 73-138 129-228 160-115 39-240 34-352-12-112-46-204-132-257-241-54-109-66-233-35-350 31-118 104-219 205-287 101-67 223-96 343-80 121 16 231 75 311 166 74 85 117 191 123 303z" horiz-adv-x="1000" />

<glyph glyph-name="remote" unicode="&#xe88b;" d="M825 636c-11-11-28-11-39 0l-11 11c-152 152-398 152-550 0l-11-11c-11-11-28-11-39 0-11 11-11 28 0 39l11 11c173 174 455 174 628 0l11-11c11-11 11-28 0-39z m-769-8c0 31 24 55 55 55 16 0 28 13 28 28 0 16-12 28-28 28-61 0-111-50-111-111v-445c0-61 50-111 111-111h278l0-111h-83c-16 0-28-12-28-28 0-15 12-27 28-27h388c16 0 28 12 28 27 0 16-12 28-28 28h-83l0 111h278c61 0 111 50 111 111v445c0 61-50 111-111 111-15 0-28-12-28-28 0-15 13-28 28-28 31 0 55-24 55-55v-445c0-30-24-55-55-55h-778c-31 0-55 25-55 55v445z m500-667h-112l0 111h112l0-111z m147 564c10-11 28-11 39 0 11 11 11 28 0 39l-6 6c-130 130-341 130-472 0l-6-6c-11-11-11-28 0-39 11-11 29-11 39 0l7 6c108 108 284 108 392 0l7-6z m-44-111c-11-11-29-11-40 0l-1 1c-65 65-171 65-236 0l-1-1c-11-11-29-11-39 0-11 11-11 28 0 39l1 1c87 87 227 87 314 0l2-1c10-11 10-28 0-39z m-159-147c31 0 56 25 56 55 0 31-25 56-56 56-31 0-56-25-56-56 0-30 25-55 56-55z" horiz-adv-x="1000" />

<glyph glyph-name="remove" unicode="&#xe88c;" d="M444 378c0 15-12 28-27 28-16 0-28-13-28-28v-222c0-16 12-28 28-28 15 0 27 12 27 28v222z m139 28c16 0 28-13 28-28v-222c0-16-12-28-28-28-15 0-27 12-27 28v222c0 15 12 28 27 28z m-194 388c-11 0-20-5-25-15l-55-111c-7-14-2-30 12-37 4-2 8-3 12-3h-194c-15 0-28-13-28-28 0-15 13-28 28-28h32c0-1 0-3 0-4l43-560c5-58 53-102 111-102h350c58 0 106 44 111 102l43 560c0 1 0 3 0 4h32c16 0 28 13 28 28 0 15-12 28-28 28h-194c4 0 8 1 12 3 14 7 19 23 13 37l-56 111c-5 10-14 15-25 15h-222z m277-166h-332c10 0 19 6 24 15l48 96h188l48-96c5-9 14-15 24-15z m-439-56h546l-43-560c-2-29-26-51-55-51h-350c-29 0-53 22-55 51l-43 560z" horiz-adv-x="1000" />

<glyph glyph-name="report" unicode="&#xe88d;" d="M56 739c0 31 24 55 55 55h667c31 0 55-24 55-55v-389c0-31-24-56-55-56h-667c-31 0-55 25-55 56v389z m55 0v-389h139v222c0 16 12 28 28 28 15 0 28-12 28-28v-222h111v278c0 15 12 28 27 28 16 0 28-13 28-28v-278h111v167c0 15 13 27 28 27 16 0 28-12 28-27v-167h139v389h-667z m-28-556c-15 0-27-12-27-27 0-16 12-28 27-28h667c15 0 28 12 28 28 0 15-13 27-28 27h-667z m-27-139c0 16 12 28 27 28h834c15 0 27-12 27-28 0-15-12-27-27-27h-834c-15 0-27 12-27 27z m0-111c0 16 12 28 27 28h611c16 0 28-12 28-28 0-15-12-28-28-28h-611c-15 0-27 13-27 28z" horiz-adv-x="1000" />

<glyph glyph-name="resource-group" unicode="&#xe88e;" d="M278 572c31 0 55 25 55 56 0 31-24 55-55 55-31 0-56-24-56-55 0-31 25-56 56-56z m278 84c0-16-13-28-28-28-16 0-28 12-28 28 0 15 12 27 28 27 15 0 28-12 28-27z m83-28c15 0 28 12 28 28 0 15-13 27-28 27-15 0-28-12-28-27 0-16 13-28 28-28z m139 28c0-16-13-28-28-28-15 0-28 12-28 28 0 15 13 27 28 27 15 0 28-12 28-27z m-195-84c16 0 28 13 28 28 0 15-12 28-28 28-15 0-27-13-27-28 0-15 12-28 27-28z m139 28c0-15-12-28-28-28-15 0-27 13-27 28 0 15 12 28 27 28 16 0 28-13 28-28z m84-28c15 0 27 13 27 28 0 15-12 28-27 28-16 0-28-13-28-28 0-15 12-28 28-28z m-528-278c31 0 55 25 55 56 0 31-24 56-55 56-31 0-56-25-56-56 0-31 25-56 56-56z m278 84c0-16-13-28-28-28-16 0-28 12-28 28 0 15 12 28 28 28 15 0 28-13 28-28z m83-28c15 0 28 12 28 28 0 15-13 28-28 28-15 0-28-13-28-28 0-16 13-28 28-28z m139 28c0-16-13-28-28-28-15 0-28 12-28 28 0 15 13 28 28 28 15 0 28-13 28-28z m-195-84c16 0 28 13 28 28 0 16-12 28-28 28-15 0-27-12-27-28 0-15 12-28 27-28z m139 28c0-15-12-28-28-28-15 0-27 13-27 28 0 16 12 28 27 28 16 0 28-12 28-28z m84-28c15 0 27 13 27 28 0 16-12 28-27 28-16 0-28-12-28-28 0-15 12-28 28-28z m-528-277c31 0 55 25 55 55 0 31-24 56-55 56-31 0-56-25-56-56 0-30 25-55 56-55z m278 83c0-15-13-28-28-28-16 0-28 13-28 28 0 15 12 28 28 28 15 0 28-13 28-28z m83-28c15 0 28 13 28 28 0 15-13 28-28 28-15 0-28-13-28-28 0-15 13-28 28-28z m139 28c0-15-13-28-28-28-15 0-28 13-28 28 0 15 13 28 28 28 15 0 28-13 28-28z m-195-83c16 0 28 12 28 27 0 16-12 28-28 28-15 0-27-12-27-28 0-15 12-27 27-27z m139 27c0-15-12-27-28-27-15 0-27 12-27 27 0 16 12 28 27 28 16 0 28-12 28-28z m84-27c15 0 27 12 27 27 0 16-12 28-27 28-16 0-28-12-28-28 0-15 12-27 28-27z m138 555c0-33-14-63-37-83 23-20 37-50 37-83v-112c0-33-14-62-37-83 23-20 37-50 37-83v-111c0-62-49-111-111-111h-666c-62 0-111 49-111 111v111c0 33 14 63 37 83-23 21-37 50-37 83v112c0 33 14 63 37 83-23 20-37 50-37 83v111c0 62 49 111 111 111h666c62 0 111-49 111-111v-111z m-777 167c-31 0-56-25-56-56v-111c0-30 25-55 56-55h666c31 0 56 25 56 55v111c0 31-25 56-56 56h-666z m722-445v112c0 30-25 55-56 55h-666c-31 0-56-25-56-55v-112c0-30 25-55 56-55h666c31 0 56 25 56 55z m-778-166v-111c0-31 25-56 56-56h666c31 0 56 25 56 56v111c0 31-25 55-56 55h-666c-31 0-56-24-56-55z" horiz-adv-x="1000" />

<glyph glyph-name="resource" unicode="&#xe88f;" d="M333 378c0-46-37-84-83-84-46 0-83 38-83 84 0 46 37 83 83 83 46 0 83-37 83-83z m-55 0c0 15-13 28-28 28-15 0-28-13-28-28 0-16 13-28 28-28 15 0 28 12 28 28z m222 111c0-15-12-28-28-28-15 0-28 13-28 28 0 15 13 28 28 28 16 0 28-13 28-28z m28-139c15 0 28 12 28 28 0 15-13 28-28 28-16 0-28-13-28-28 0-16 12-28 28-28z m-28-83c0-16-12-28-28-28-15 0-28 12-28 28 0 15 13 27 28 27 16 0 28-12 28-27z m83 194c16 0 28 13 28 28 0 15-12 28-28 28-15 0-27-13-27-28 0-15 12-28 27-28z m84-83c0-16-13-28-28-28-15 0-28 12-28 28 0 15 13 28 28 28 15 0 28-13 28-28z m-84-139c16 0 28 12 28 28 0 15-12 27-28 27-15 0-27-12-27-27 0-16 12-28 27-28z m139 250c0-15-12-28-28-28-15 0-27 13-27 28 0 15 12 28 27 28 16 0 28-13 28-28z m28-139c15 0 28 12 28 28 0 15-13 28-28 28-15 0-28-13-28-28 0-16 13-28 28-28z m-28-83c0-16-12-28-28-28-15 0-27 12-27 28 0 15 12 27 27 27 16 0 28-12 28-27z m84 194c15 0 27 13 27 28 0 15-12 28-27 28-16 0-28-13-28-28 0-15 12-28 28-28z m83-83c0-16-12-28-28-28-15 0-28 12-28 28 0 15 13 28 28 28 16 0 28-13 28-28z m-83-139c15 0 27 12 27 28 0 15-12 27-27 27-16 0-28-12-28-27 0-16 12-28 28-28z m-806 333c0 62 50 111 111 111h778c61 0 111-49 111-111v-444c0-62-50-111-111-111h-778c-61 0-111 49-111 111v444z m111 56c-31 0-55-25-55-56v-444c0-31 24-56 55-56h778c31 0 55 25 55 56v444c0 31-24 56-55 56h-778z" horiz-adv-x="1000" />

<glyph glyph-name="restore" unicode="&#xe890;" d="M152 628h98c15 0 28-13 28-28 0-15-13-28-28-28h-167c-7 0-14 3-19 8-5 6-8 13-8 20l0 167c0 15 12 27 27 27 16 0 28-12 28-27l0-103c59 73 138 129 228 160 115 39 240 34 352-12 112-46 204-132 257-241 54-109 66-233 35-350-31-118-104-219-205-287-101-67-223-96-343-80-120 16-231 75-311 166-74 85-117 191-123 303-1 15 11 27 27 27 15 0 27-12 28-27 6-99 44-192 109-266 72-82 170-134 277-148 107-14 215 11 305 71 90 60 155 151 183 255 28 104 17 215-31 312-48 97-129 173-229 214-99 41-211 45-313 10-81-27-152-77-205-143z m431-278c0-46-37-83-83-83-46 0-83 37-83 83 0 46 37 83 83 83 46 0 83-37 83-83z" horiz-adv-x="1000" />

<glyph glyph-name="row" unicode="&#xe891;" d="M167 794c-62 0-111-49-111-111v-666c0-62 49-111 111-111h666c62 0 111 49 111 111v666c0 62-49 111-111 111h-666z m666-55c31 0 56-25 56-56v-166h-778v166c0 31 25 56 56 56h666z m-722-500v222h778v-222h-778z m0-56h778v-166c0-31-25-56-56-56h-666c-31 0-56 25-56 56v166z" horiz-adv-x="1000" />

<glyph glyph-name="save" unicode="&#xe892;" d="M1000 350c0-276-224-500-500-500-276 0-500 224-500 500 0 276 224 500 500 500 276 0 500-224 500-500z m-56 0c0 236-184 429-416 444v-516l119 119c11 11 29 11 39 0 11-10 11-28 0-39l-166-166c-6-6-13-9-20-9l0 0 0 0c-4 0-7 1-11 2-3 2-6 4-9 7l-166 166c-11 11-11 29 0 39 11 11 28 11 39 0l119-119v516c-232-15-416-208-416-444 0-245 199-444 444-444 246 0 444 199 444 444z" horiz-adv-x="1000" />

<glyph glyph-name="saved" unicode="&#xe893;" d="M500-150c-276 0-500 224-500 500 0 267 209 485 472 499v-571l-119 119c-11 11-28 11-39 0-11-10-11-28 0-39l166-166c3-3 6-5 9-7 4-1 7-2 11-2l0 0 0 0c7 0 14 3 20 9l166 166c11 11 11 29 0 39-10 11-28 11-39 0l-119-119v571c263-14 472-232 472-499 0-276-224-500-500-500z" horiz-adv-x="1000" />

<glyph glyph-name="search" unicode="&#xe894;" d="M699 112c-68-59-157-95-255-95-214 0-388 174-388 389 0 214 174 388 388 388 215 0 389-174 389-388 0-98-36-187-95-255 1-1 3-2 4-4l222-222c11-11 11-28 0-39-3-3-6-5-9-6-5-2-9-3-14-2-6 1-12 3-16 8l-222 222c-2 1-3 3-4 4z m79 294c0 184-149 333-334 333-184 0-333-149-333-333 0-184 149-334 333-334 185 0 334 150 334 334z" horiz-adv-x="1000" />

<glyph glyph-name="section" unicode="&#xe895;" d="M500 794c31 0 56-24 56-55v-778c0-31-25-55-56-55-31 0-56 24-56 55v778c0 31 25 55 56 55z m-381-258c11 11 29 11 40 0l166-166c11-11 11-29 0-40l-166-166c-11-11-29-11-40 0-11 11-11 28 0 39l147 147-147 147c-11 11-11 29 0 39z m762-39c11 11 11 29 0 39-11 11-29 11-39 0l-167-166c-11-11-11-29 0-40l167-166c10-11 28-11 39 0 11 11 11 28 0 39l-147 147 147 147z" horiz-adv-x="1000" />

<glyph glyph-name="server" unicode="&#xe896;" d="M222 517c31 0 56 25 56 55 0 31-25 56-56 56-30 0-55-25-55-56 0-30 25-55 55-55z m167 27c0 16 12 28 28 28h389c15 0 27-12 27-28 0-15-12-27-27-27h-389c-16 0-28 12-28 27z m-111-333c0-31-25-55-56-55-30 0-55 24-55 55 0 31 25 56 55 56 31 0 56-25 56-56z m139 0c-16 0-28-12-28-28 0-15 12-27 28-27h389c15 0 27 12 27 27 0 16-12 28-27 28h-389z m-379 139c-23 20-38 50-38 83v195c0 61 50 111 111 111h778c61 0 111-50 111-111v-195c0-33-14-63-38-83 24-20 38-50 38-83v-195c0-61-50-111-111-111h-778c-61 0-111 50-111 111v195c0 33 15 63 38 83z m73 333c-31 0-55-24-55-55v-195c0-30 24-55 55-55h778c31 0 55 25 55 55v195c0 31-24 55-55 55h-778z m0-361c-31 0-55-25-55-55v-195c0-30 24-55 55-55h778c31 0 55 25 55 55v195c0 30-24 55-55 55h-778z" horiz-adv-x="1000" />

<glyph glyph-name="service-map" unicode="&#xe897;" d="M526 692h-26v-52h132c43 0 79-36 79-79v-27c0-2-1-4-1-6 16-9 27-27 27-46 0-29-24-53-53-53-29 0-52 24-52 53 0 19 11 37 27 46-1 2-1 4-1 6v27c0 14-12 26-26 26h-132v-53c0-2 0-4-1-6 16-9 27-27 27-46 0-29-23-53-52-53-29 0-53 24-53 53 0 19 11 37 27 46 0 2-1 4-1 6v53h-131c-15 0-26-12-26-26v-27c0-2-1-4-1-6 16-9 27-27 27-46 0-29-24-53-53-53-29 0-52 24-52 53 0 19 11 37 27 46-1 2-1 4-1 6v27c0 43 35 79 79 79h131v52h-26c-29 0-53 24-53 53v52c0 29 24 53 53 53h105c29 0 53-24 53-53v-52c0-29-24-53-53-53z m0 105h-105v-52h105v52z m-168-746c5-20 0-43-15-58l0 0-85-84c-10-10-26-9-36 0l-196 199c-10 10-10 26 0 35l83 84c13 13 31 19 48 17 42 73 117 112 201 112 31 0 61-6 90-18h193c21 0 40-8 54-22l97 100c28 32 77 36 109 8 33-27 37-77 10-110-69-81-107-128-129-154l-13-15c-9-11-13-16-15-18-1-1-1-2-2-2 0 0 0-1-1-1-31-30-71-47-115-47h-232c-11 0-22-4-31-12l-15-14z m357 109l157 187c10 12 8 29-3 38-12 10-29 9-38-3-1 0-2-2-5-4l-108-111c1-2 1-5 1-7 0-43-35-78-78-78h-143c-14 0-25 12-25 26 0 14 11 25 25 25h143c15 0 27 12 27 27 0 15-13 27-27 27h-199c-3 0-7 1-10 3-23 10-48 15-74 15-70 0-125-31-157-85l128-128 9 9c18 18 41 27 66 27h232c30 0 58 11 79 32z m-558 32c-4 3-9 2-12-1l-65-66 160-162 67 66c3 4 4 10 0 14-63 63-100 99-121 120l-13 13c-9 9-13 13-15 15 0 1-1 1-1 1l0 0z" horiz-adv-x="947" />

<glyph glyph-name="service-request" unicode="&#xe898;" d="M395 850c-73 0-132-59-132-132 0-72 59-131 132-131h26v-136c0-24 31-35 47-16l122 152h15c73 0 132 59 132 131 0 73-59 132-132 132h-210z m79-210h-79c-44 0-79 35-79 78 0 44 35 79 79 79h210c44 0 79-35 79-79 0-43-35-78-79-78h-41l-90-114v114z m-131-647c15 15 20 38 15 58l15 14c9 8 20 12 31 12h232c44 0 84 17 115 47 1 0 1 1 1 1 1 0 1 1 2 2 2 2 6 7 15 18l13 15c22 26 60 73 129 154 27 33 23 83-10 110-32 28-81 24-109-8l-97-100c-14 14-33 22-54 22h-193c-29 12-59 18-90 18-84 0-159-39-201-112-17 2-35-4-48-17l-83-84c-10-9-10-25 0-35l196-199c10-9 26-10 36 0l85 84 0 0z m529 354l-157-187c-21-21-49-32-79-32h-232c-25 0-48-9-66-27l-9-9-128 128c32 54 87 85 157 85 26 0 51-5 74-15 3-2 7-3 10-3h199c14 0 27-12 27-27 0-15-12-27-27-27h-143c-14 0-25-11-25-25 0-14 11-26 25-26h143c43 0 78 35 78 78 0 2 0 5-1 7l108 111c3 2 4 4 5 4 9 12 26 13 38 3 11-9 13-26 3-38z m-727-156c3 3 8 4 12 1l0 0c0 0 1 0 1-1 2-2 6-6 15-15l13-13c21-21 58-57 121-120 4-4 3-10 0-14l-67-66-160 162 65 66z" horiz-adv-x="947" />

<glyph glyph-name="settings" unicode="&#xe899;" d="M586 675l36-13c33-13 63-31 91-53l29-24 80 46c13 7 30 3 38-11l55-96c8-13 3-30-10-38l-79-46 6-37c2-17 4-35 4-53 0-18-2-35-4-53l-6-37 79-46c13-8 18-25 10-38l-55-96c-8-14-25-18-38-10l-80 45-29-24c-28-22-58-40-91-52l-36-14v-92c0-15-13-27-28-27h-111c-15 0-28 12-28 27v92l-36 14c-33 12-63 30-91 52l-29 24-80-45c-13-8-30-4-38 10l-55 96c-8 13-3 30 10 38l79 46-6 37c-2 17-4 35-4 53 0 18 2 36 4 53l6 37-79 46c-13 8-18 25-10 38l55 96c8 14 25 18 38 11l80-46 29 24c28 22 58 40 91 53l36 13v92c0 15 13 27 28 27h111c15 0 28-12 28-27v-92z m-329-23l-46 27c-40 23-91 9-114-31l-55-96c-23-40-10-91 30-114l46-27c-3-20-4-40-4-61 0-21 1-41 4-61l-46-27c-40-23-53-74-30-114l55-96c23-40 74-54 114-31l46 27c32-26 68-46 107-61v-54c0-46 37-83 83-83h111c46 0 83 37 83 83v54c39 15 75 35 107 61l46-27c40-23 91-9 114 31l55 96c23 40 10 91-30 114l-46 27c3 20 4 40 4 61 0 21-1 41-4 61l46 27c40 23 53 74 30 114l-55 96c-23 40-74 54-114 31l-46-27c-32 26-68 47-107 61v54c0 46-37 83-83 83h-111c-46 0-83-37-83-83v-54c-39-14-75-35-107-61z m410-302c0-92-75-167-167-167-92 0-167 75-167 167 0 92 75 167 167 167 92 0 167-75 167-167z m-56 0c0 61-50 111-111 111-61 0-111-50-111-111 0-61 50-111 111-111 61 0 111 50 111 111z" horiz-adv-x="1000" />

<glyph glyph-name="share-by" unicode="&#xe89a;" d="M659 469c10 11 10 29 0 40-11 10-29 10-40 0l-175-175 0 99c0 16-12 28-27 28-16 0-28-12-28-28l0-166c0-16 12-28 28-28h166c16 0 28 12 28 28 0 15-12 27-28 27h-99l175 175z" horiz-adv-x="1000" />

<glyph glyph-name="share-to" unicode="&#xe89b;" d="M472 517c-15 0-28-13-28-28 0-15 13-28 28-28l100 0-175-175c-11-10-11-28 0-39 11-11 29-11 39 0l175 175 0-100c0-15 13-28 28-28 15 0 28 13 28 28l0 167c0 15-13 28-28 28h-167z" horiz-adv-x="1000" />

<glyph glyph-name="share" unicode="&#xe89c;" d="M730 786c11 11 29 11 40 0l166-166c11-11 11-29 0-40l-166-166c-11-11-29-11-40 0-10 11-10 28 0 39l120 119h-100c-138 0-250-112-250-250v-111c0-15-12-28-28-28-15 0-28 13-28 28v111c0 169 137 306 306 306h100l-120 119c-10 11-10 29 0 39z m-563-103c-31 0-56-24-56-55v-611c0-31 25-56 56-56h611c31 0 55 25 55 56v250c0 15 13 27 28 27 16 0 28-12 28-27v-250c0-62-50-111-111-111h-611c-62 0-111 49-111 111v611c0 61 49 111 111 111h250c15 0 27-12 27-28 0-15-12-28-27-28h-250z" horiz-adv-x="1000" />

<glyph glyph-name="skip-to-first" unicode="&#xe89d;" d="M278 767c0 15-13 27-28 27-15 0-28-12-28-27v-834c0-15 13-27 28-27 15 0 28 12 28 27v834z m492-159c11 11 11 29 0 39-11 11-29 11-40 0l-277-277c-11-11-11-29 0-40l277-277c11-11 29-11 40 0 11 10 11 28 0 39l-258 258 258 258z" horiz-adv-x="1000" />

<glyph glyph-name="skip-to-last" unicode="&#xe89e;" d="M778 767c0 15-13 27-28 27-15 0-28-12-28-27v-834c0-15 13-27 28-27 15 0 28 12 28 27v834z m-508-120c-11 11-29 11-40 0-10-10-10-28 0-39l259-258-259-258c-10-11-10-29 0-39 11-11 29-11 40 0l277 277c11 11 11 29 0 40l-277 277z" horiz-adv-x="1000" />

<glyph glyph-name="sort" unicode="&#xe89f;" d="M230 731c11 11 29 11 40 0l166-167c11-11 11-28 0-39-10-11-28-11-39 0l-119 119v-655c0-16-13-28-28-28-15 0-28 12-28 28v655l-119-119c-11-11-28-11-39 0-11 11-11 28 0 39l166 167z m509-768c4-1 7-2 11-2l0 0 0 0c4 0 7 1 11 2 3 2 6 4 9 6l166 167c11 11 11 28 0 39-10 11-28 11-39 0l-119-119v655c0 16-13 28-28 28-15 0-28-12-28-28v-655l-119 119c-11 11-28 11-39 0-11-11-11-28 0-39l166-167c3-2 6-4 9-6z" horiz-adv-x="1000" />

<glyph glyph-name="storage" unicode="&#xe8a0;" d="M444 378c0 15 13 28 28 28h334c15 0 27-13 27-28 0-16-12-28-27-28h-334c-15 0-28 12-28 28z m-111 0c0-46-37-84-83-84-46 0-83 38-83 84 0 46 37 83 83 83 46 0 83-37 83-83z m-55 0c0 15-13 28-28 28-15 0-28-13-28-28 0-16 13-28 28-28 15 0 28 12 28 28z m-167 305c-61 0-111-49-111-111v-444c0-62 50-111 111-111h778c61 0 111 49 111 111v444c0 62-50 111-111 111h-778z m778-55c31 0 55-25 55-56v-444c0-31-24-56-55-56h-778c-31 0-55 25-55 56v444c0 31 24 56 55 56h778z" horiz-adv-x="1000" />

<glyph glyph-name="strikethrough" unicode="&#xe8a1;" d="M384-11c34-19 77-28 127-28 42 0 78 7 109 22 32 14 57 35 75 62 18 28 27 60 27 98 0 48-12 89-38 123-14 21-30 39-48 56h225c16 0 28 13 28 28 0 15-12 28-28 28h-293l-121 92c-20 15-35 31-44 46-9 15-13 34-13 57 0 28 8 49 25 62 17 15 41 22 71 22 31 0 54-7 70-20 17-12 28-29 35-51 6-20 11-43 13-68l104 24c-3 33-11 62-22 87-10 25-24 46-42 62-17 16-39 28-66 36-26 8-57 12-92 12-63 0-114-15-151-46-37-31-55-74-55-130 0-38 7-71 21-97 13-26 35-50 64-72l21-16h-247c-15 0-28-13-28-28 0-15 13-28 28-28h320l54-41c27-21 50-42 68-64 18-20 27-48 27-83 0-28-8-51-25-66-16-16-40-23-72-23-31 0-55 8-72 24-18 16-30 37-38 62-8 25-12 51-15 78l-108-26c3-44 13-82 30-115 18-34 43-60 76-79z" horiz-adv-x="1000" />

<glyph glyph-name="table" unicode="&#xe8a2;" d="M56 683c0 62 49 111 111 111h666c62 0 111-49 111-111v-666c0-62-49-111-111-111h-666c-62 0-111 49-111 111v666z m111 56c-31 0-56-25-56-56v-166h361v222h-305z m361-222h361v166c0 31-25 56-56 56l-305 0v-222z m-417-56v-222h361v222h-361z m0-278v-166c0-31 25-56 56-56h305v222h-361z m417 0v-222h305c31 0 56 25 56 56v166h-361z m361 56v222h-361v-222h361z" horiz-adv-x="1000" />

<glyph glyph-name="text-centeralign" unicode="&#xe8a3;" d="M83 739c-15 0-27-12-27-28 0-15 12-28 27-28h834c15 0 27 13 27 28 0 16-12 28-27 28h-834z m139-195c0 16 13 28 28 28h500c15 0 28-12 28-28 0-15-13-27-28-27h-500c-15 0-28 12-28 27z m0-333c0 15 13 28 28 28h500c15 0 28-13 28-28 0-15-13-28-28-28h-500c-15 0-28 13-28 28z m-166 167c0 15 12 28 27 28h834c15 0 27-13 27-28 0-16-12-28-27-28h-834c-15 0-27 12-27 28z m27-306c-15 0-27-12-27-28 0-15 12-27 27-27h834c15 0 27 12 27 27 0 16-12 28-27 28h-834z" horiz-adv-x="1000" />

<glyph glyph-name="text-justified" unicode="&#xe8a4;" d="M83 739c-15 0-27-12-27-28 0-15 12-28 27-28h834c15 0 27 13 27 28 0 16-12 28-27 28h-834z m-27-195c0 16 12 28 27 28h834c15 0 27-12 27-28 0-15-12-27-27-27h-834c-15 0-27 12-27 27z m0-333c0 15 12 28 27 28h834c15 0 27-13 27-28 0-15-12-28-27-28h-834c-15 0-27 13-27 28z m0 167c0 15 12 28 27 28h834c15 0 27-13 27-28 0-16-12-28-27-28h-834c-15 0-27 12-27 28z m27-306c-15 0-27-12-27-28 0-15 12-27 27-27h834c15 0 27 12 27 27 0 16-12 28-27 28h-834z" horiz-adv-x="1000" />

<glyph glyph-name="text-leftalign" unicode="&#xe8a5;" d="M83 739c-15 0-27-12-27-28 0-15 12-28 27-28h834c15 0 27 13 27 28 0 16-12 28-27 28h-834z m-27-195c0 16 12 28 27 28h500c16 0 28-12 28-28 0-15-12-27-28-27h-500c-15 0-27 12-27 27z m0-333c0 15 12 28 27 28h500c16 0 28-13 28-28 0-15-12-28-28-28h-500c-15 0-27 13-27 28z m0 167c0 15 12 28 27 28h834c15 0 27-13 27-28 0-16-12-28-27-28h-834c-15 0-27 12-27 28z m27-306c-15 0-27-12-27-28 0-15 12-27 27-27h834c15 0 27 12 27 27 0 16-12 28-27 28h-834z" horiz-adv-x="1000" />

<glyph glyph-name="text-leftindent" unicode="&#xe8a6;" d="M56 711c0 16 12 28 27 28h834c15 0 27-12 27-28 0-15-12-28-27-28h-834c-15 0-27 13-27 28z m416-139c-15 0-28-12-28-28 0-15 13-27 28-27h445c15 0 27 12 27 27 0 16-12 28-27 28h-445z m0-333c-15 0-28-13-28-28 0-15 13-28 28-28h445c15 0 27 13 27 28 0 15-12 28-27 28h-445z m0 167c-15 0-28-13-28-28 0-16 13-28 28-28h445c15 0 27 12 27 28 0 15-12 28-27 28h-445z m-28-362c0 16 13 28 28 28h445c15 0 27-12 27-28 0-15-12-27-27-27h-445c-15 0-28 12-28 27z m-158 492c11 11 28 11 39 0 11-10 11-28 0-39l-202-203 202-202c11-11 11-29 0-39-11-11-28-11-39 0l-222 222c-11 11-11 28 0 39l222 222z" horiz-adv-x="1000" />

<glyph glyph-name="text-multiline" unicode="&#xe8a7;" d="M83 683c-15 0-27-12-27-27 0-16 12-28 27-28h834c15 0 27 12 27 28 0 15-12 27-27 27h-834z m0-166c-15 0-27-13-27-28 0-15 12-28 27-28h667c15 0 28 13 28 28 0 15-13 28-28 28h-667z m0-445c-15 0-27-12-27-28 0-15 12-27 27-27h667c15 0 28 12 28 27 0 16-13 28-28 28h-667z m-27 139c0 15 12 28 27 28h834c15 0 27-13 27-28 0-15-12-28-27-28h-834c-15 0-27 13-27 28z" horiz-adv-x="1000" />

<glyph glyph-name="text-rightalign" unicode="&#xe8a8;" d="M83 739c-15 0-27-12-27-28 0-15 12-28 27-28h834c15 0 27 13 27 28 0 16-12 28-27 28h-834z m306-195c0 16 12 28 28 28h500c15 0 27-12 27-28 0-15-12-27-27-27h-500c-16 0-28 12-28 27z m0-333c0 15 12 28 28 28h500c15 0 27-13 27-28 0-15-12-28-27-28h-500c-16 0-28 13-28 28z m-333 167c0 15 12 28 27 28h834c15 0 27-13 27-28 0-16-12-28-27-28h-834c-15 0-27 12-27 28z m27-306c-15 0-27-12-27-28 0-15 12-27 27-27h834c15 0 27 12 27 27 0 16-12 28-27 28h-834z" horiz-adv-x="1000" />

<glyph glyph-name="text-rightindent" unicode="&#xe8a9;" d="M83 739c-15 0-27-12-27-28 0-15 12-28 27-28h834c15 0 27 13 27 28 0 16-12 28-27 28h-834z m389-167c-15 0-28-12-28-28 0-15 13-27 28-27h445c15 0 27 12 27 27 0 16-12 28-27 28h-445z m-147-258l-222 222c-11 11-28 11-39 0-11-10-11-28 0-39l202-203-202-202c-11-11-11-29 0-39 11-11 28-11 39 0l222 222c11 11 11 28 0 39z m119-103c0 15 13 28 28 28h445c15 0 27-13 27-28 0-15-12-28-27-28h-445c-15 0-28 13-28 28z m0 167c0 15 13 28 28 28h445c15 0 27-13 27-28 0-16-12-28-27-28h-445c-15 0-28 12-28 28z m28-306c-15 0-28-12-28-28 0-15 13-27 28-27h445c15 0 27 12 27 27 0 16-12 28-27 28h-445z" horiz-adv-x="1000" />

<glyph glyph-name="text" unicode="&#xe8aa;" d="M494 26l-81 208h-258l-79-208h-76l255 657h63l253-657h-77z m-104 277l-75 203c-10 25-20 57-30 94-6-29-16-60-28-94l-75-203h208z m556-277l-15 70h-3c-24-31-48-52-73-63-23-11-53-16-89-16-48 0-85 12-113 37-27 25-40 61-40 107 0 100 78 152 234 156l82 3v30c0 39-9 67-25 86-16 18-42 27-78 27-40 0-86-12-137-37l-22 57c24 13 50 23 78 31 28 7 57 11 85 11 58 0 101-13 128-39 28-26 42-68 42-125v-335h-54z m-165 52c45 0 81 13 107 38 26 26 39 61 39 107v44l-73-3c-58-2-100-11-126-28-26-16-39-41-39-75 0-27 8-48 24-62 16-14 39-21 68-21z" horiz-adv-x="1000" />

<glyph glyph-name="tickmark-circle" unicode="&#xe8ab;" d="M500 183c92 0 167 75 167 167 0 92-75 167-167 167-92 0-167-75-167-167 0-92 75-167 167-167z m278 167c0-153-125-278-278-278-153 0-278 125-278 278 0 153 125 278 278 278 153 0 278-125 278-278z" horiz-adv-x="1000" />

<glyph glyph-name="tickmark-square" unicode="&#xe8ac;" d="M389 461h222v-222h-222v222z m-56 111c-30 0-55-25-55-55v-334c0-30 25-55 55-55h334c30 0 55 25 55 55v334c0 30-25 55-55 55h-334z" horiz-adv-x="1000" />

<glyph glyph-name="tickmark-triangle" unicode="&#xe8ad;" d="M511 406l96-167h-192l96 167z m36 159c-16 28-56 28-72 0l-217-375c-16-27 4-62 36-62h433c33 0 53 35 37 62l-217 375z" horiz-adv-x="1000" />

<glyph glyph-name="tile" unicode="&#xe8ae;" d="M889 683c31 0 55-24 55-55v-556c0-30-24-55-55-55h-778c-31 0-55 25-55 55v556c0 31 24 55 55 55h778z m-778 56c-61 0-111-50-111-111v-556c0-61 50-111 111-111h778c61 0 111 50 111 111v556c0 61-50 111-111 111h-778z m389-667c-31 0-56 25-56 56v389c0 30 25 55 56 55 31 0 56-25 56-55v-389c0-31-25-56-56-56z m222 0c-30 0-55 25-55 56v278c0 30 25 55 55 55 31 0 56-25 56-55v-278c0-31-25-56-56-56z m-444 0c-31 0-56 25-56 56v222c0 31 25 56 56 56 31 0 55-25 55-56v-222c0-31-24-56-55-56z" horiz-adv-x="1000" />

<glyph glyph-name="time-day" unicode="&#xe8af;" d="M814 76c58 66 96 152 102 246h56c16 0 28 13 28 28 0 15-12 28-28 28h-56c-6 94-44 180-102 246l39 40c11 11 11 28 0 39-11 11-28 11-39 0l-40-39c-66 58-152 96-246 102v56c0 16-13 28-28 28-15 0-28-12-28-28v-56c-94-6-180-44-246-102l-40 39c-10 11-28 11-39 0-11-11-11-28 0-39l39-40c-58-66-96-152-102-246h-56c-16 0-28-13-28-28 0-15 12-28 28-28h56c6-94 44-180 102-246l-39-40c-11-10-11-28 0-39 11-11 29-11 39 0l40 39c66-58 152-96 246-102v-56c0-16 13-28 28-28 15 0 28 12 28 28v56c94 6 180 44 246 102l40-39c11-11 28-11 39 0 11 11 11 29 0 39l-39 40z m-675 274c0 199 162 361 361 361 199 0 361-162 361-361 0-199-162-361-361-361-199 0-361 162-361 361z" horiz-adv-x="1000" />

<glyph glyph-name="time-minute" unicode="&#xe8b0;" d="M472 350c0-15 13-28 28-28 15 0 28 13 28 28v250c0 15-13 28-28 28-15 0-28-13-28-28v-250z m-55 500h166c16 0 28-12 28-28 0-15-12-28-28-28l-55 0v-56c70-4 137-25 194-59-1 16 5 32 17 44l27 27c22 22 57 22 79 0 22-21 22-56 0-78l-28-28c-7-7-16-12-25-14 93-82 152-202 152-336 0-245-198-444-444-444-245 0-444 199-444 444 0 237 184 430 416 444v56l-55 0c-16 0-28 13-28 28 0 16 12 28 28 28z m83-167c-215 0-389-174-389-389 0-214 174-388 389-388 215 0 389 174 389 388 0 215-174 389-389 389z" horiz-adv-x="1000" />

<glyph glyph-name="time-month" unicode="&#xe8b1;" d="M528 433v-120l-64-66c-10-11-28-11-39 0-11 11-11 28 0 39l47 49v98c0 16 13 28 28 28 15 0 28-12 28-28z m-28-333c123 0 222 100 222 222 0 123-99 222-222 222-123 0-222-99-222-222 0-122 99-222 222-222z m0 56c-92 0-167 74-167 166 0 92 75 167 167 167 92 0 167-75 167-167 0-92-75-166-167-166z m194 583c16 0 28-12 28-28v-28h111c62 0 111-49 111-111v-500c0-61-49-111-111-111h-666c-62 0-111 50-111 111v500c0 62 49 111 111 111h111v28c0 16 12 28 28 28 15 0 27-12 27-28v-28h334v28c0 16 12 28 27 28z m-527-111c-31 0-56-25-56-56v-500c0-30 25-55 56-55h666c31 0 56 25 56 55v500c0 31-25 56-56 56h-666z" horiz-adv-x="1000" />

<glyph glyph-name="time" unicode="&#xe8b2;" d="M500-94c-245 0-444 199-444 444 0 246 199 444 444 444 246 0 444-198 444-444 0-245-198-444-444-444z m0-56c276 0 500 224 500 500 0 276-224 500-500 500-276 0-500-224-500-500 0-276 224-500 500-500z m29 793c16 0 28-13 28-28v-282l-149-148c-11-11-28-11-39 0-11 11-11 28 0 39l132 133v258c0 15 13 28 28 28z" horiz-adv-x="1000" />

</font>
</defs>
</svg>
