<svg width="18" height="18" viewBox="0 0 18 18" fill="none" xmlns="http://www.w3.org/2000/svg">
<path fill-rule="evenodd" clip-rule="evenodd" d="M8.14645 12.8534L16.2929 4.70696C16.6834 4.31643 16.6834 3.68327 16.2929 3.29274L14.7071 1.70696C14.3166 1.31643 13.6834 1.31643 13.2929 1.70696L5.14645 9.8534C5.05268 9.94717 5 10.0743 5 10.207V12.4998C5 12.776 5.22386 12.9998 5.5 12.9998H7.79289C7.9255 12.9998 8.05268 12.9472 8.14645 12.8534ZM15.5858 3.99985L7.58579 11.9998H6V10.4141L14 2.41406L15.5858 3.99985Z" fill="#424242"/>
<path d="M2 4C2 3.44772 2.44772 3 3 3H7.5C7.77614 3 8 2.77614 8 2.5C8 2.22386 7.77614 2 7.5 2H3C1.89543 2 1 2.89543 1 4V15C1 16.1046 1.89543 17 3 17H14C15.1046 17 16 16.1046 16 15V10.5C16 10.2239 15.7761 10 15.5 10C15.2239 10 15 10.2239 15 10.5V15C15 15.5523 14.5523 16 14 16H3C2.44772 16 2 15.5523 2 15V4Z" fill="#424242"/>
</svg>
