<svg width="18" height="18" viewBox="0 0 18 18" fill="none" xmlns="http://www.w3.org/2000/svg">
<path d="M8 8.5C8 8.22386 7.77614 8 7.5 8C7.22386 8 7 8.22386 7 8.5V12.5C7 12.7761 7.22386 13 7.5 13C7.77614 13 8 12.7761 8 12.5V8.5Z" fill="#424242"/>
<path d="M10.5 8C10.7761 8 11 8.22386 11 8.5V12.5C11 12.7761 10.7761 13 10.5 13C10.2239 13 10 12.7761 10 12.5V8.5C10 8.22386 10.2239 8 10.5 8Z" fill="#424242"/>
<path fill-rule="evenodd" clip-rule="evenodd" d="M7.00011 1C6.81072 1 6.63759 1.107 6.5529 1.27639L5.5529 3.27639C5.4294 3.52338 5.52951 3.82372 5.7765 3.94721C5.84496 3.98144 5.91752 3.99849 5.98927 4H2.5C2.22386 4 2 4.22386 2 4.5C2 4.77614 2.22386 5 2.5 5H3.07959C3.07962 5.02537 3.08061 5.05095 3.08259 5.0767L3.85773 15.1534C3.93788 16.1954 4.80676 17 5.85183 17H12.1477C13.1928 17 14.0617 16.1954 14.1418 15.1534L14.9169 5.0767C14.9189 5.05095 14.9199 5.02537 14.92 5H15.5C15.7761 5 16 4.77614 16 4.5C16 4.22386 15.7761 4 15.5 4H12.0109C12.0827 3.99849 12.1553 3.98144 12.2237 3.94721C12.4707 3.82372 12.5708 3.52338 12.4473 3.27639L11.4473 1.27639C11.3626 1.107 11.1895 1 11.0001 1H7.00011ZM11.99 4C11.8104 3.99623 11.6388 3.89548 11.5529 3.72361L10.6911 2H7.30913L6.44732 3.72361C6.36139 3.89548 6.18981 3.99623 6.01017 4H11.99ZM4.07965 5H13.9199L13.1448 15.0767C13.1047 15.5977 12.6702 16 12.1477 16H5.85183C5.3293 16 4.89486 15.5977 4.85478 15.0767L4.07965 5Z" fill="#424242"/>
</svg>
