<svg width="1200" height="600" xmlns="http://www.w3.org/2000/svg">
  <defs>
    <marker id="arrowhead" markerWidth="10" markerHeight="7" 
     refX="0" refY="3.5" orient="auto">
      <polygon points="0 0, 10 3.5, 0 7" fill="#333" />
    </marker>
    <marker id="connector" markerWidth="8" markerHeight="6" 
     refX="0" refY="3" orient="auto">
      <polygon points="0 0, 8 3, 0 6" fill="#666" />
    </marker>
  </defs>
  
  <!-- Background -->
  <rect width="1200" height="600" fill="#f8f9fa"/>
  
  <!-- Main mcap container -->
  <rect x="50" y="100" width="1000" height="400" 
        fill="none" stroke="#2563eb" stroke-width="3" 
        stroke-dasharray="10,5" rx="10"/>
  <text x="55" y="90" font-family="Segoe UI, system-ui, -apple-system, sans-serif" font-size="20" 
        font-weight="bold" fill="#2563eb">example.mcap</text>
  
  <!-- External mkv file -->
  <rect x="1080" y="150" width="100" height="60" 
        fill="#fef3c7" stroke="#f59e0b" stroke-width="2" rx="5"/>
  <text x="1130" y="167" font-family="Segoe UI, system-ui, -apple-system, sans-serif" font-size="16" 
        font-weight="bold" fill="#92400e" text-anchor="middle">example.mkv</text>
  
  <!-- Video representation (clean film strip) -->
  <rect x="1095" y="175" width="28" height="16" fill="#374151" rx="2"/>
  <rect x="1098" y="178" width="2.5" height="10" fill="#d1d5db"/>
  <rect x="1102" y="178" width="2.5" height="10" fill="#d1d5db"/>
  <rect x="1106" y="178" width="2.5" height="10" fill="#d1d5db"/>
  <rect x="1110" y="178" width="2.5" height="10" fill="#d1d5db"/>
  <rect x="1114" y="178" width="2.5" height="10" fill="#d1d5db"/>
  <rect x="1118" y="178" width="2.5" height="10" fill="#d1d5db"/>
  
  <!-- Audio representation (simple waveform bars) -->
  <rect x="1135" y="184" width="1.5" height="8" fill="#10b981" rx="0.5"/>
  <rect x="1138" y="181" width="1.5" height="14" fill="#10b981" rx="0.5"/>
  <rect x="1141" y="186" width="1.5" height="6" fill="#10b981" rx="0.5"/>
  <rect x="1144" y="179" width="1.5" height="16" fill="#10b981" rx="0.5"/>
  <rect x="1147" y="183" width="1.5" height="10" fill="#10b981" rx="0.5"/>
  <rect x="1150" y="185" width="1.5" height="7" fill="#10b981" rx="0.5"/>
  <rect x="1153" y="182" width="1.5" height="12" fill="#10b981" rx="0.5"/>
  <rect x="1156" y="187" width="1.5" height="5" fill="#10b981" rx="0.5"/>
  
  <!-- Simple labels -->
  <text x="1109" y="204" font-family="Segoe UI, system-ui, -apple-system, sans-serif" font-size="12" 
        fill="#92400e" text-anchor="middle">Video</text>
  <text x="1148" y="204" font-family="Segoe UI, system-ui, -apple-system, sans-serif" font-size="12" 
        fill="#92400e" text-anchor="middle">Audio</text>
  
  <!-- Timeline arrow -->
  <line x1="100" y1="300" x2="900" y2="300" 
        stroke="#333" stroke-width="3" marker-end="url(#arrowhead)"/>
  <text x="920" y="295" font-family="Segoe UI, system-ui, -apple-system, sans-serif" font-size="16" 
        fill="#333">Time</text>
  
  <!-- Time scale markers and labels -->
  <g stroke="#666" stroke-width="1" font-family="Segoe UI, system-ui, -apple-system, sans-serif" font-size="14" fill="#666">
    <!-- 0s -->
    <line x1="100" y1="295" x2="100" y2="305"/>
    <text x="100" y="320" text-anchor="middle">0s</text>
    
    <!-- 1s -->
    <line x1="260" y1="295" x2="260" y2="305"/>
    <text x="260" y="320" text-anchor="middle">1s</text>
    
    <!-- 2s -->
    <line x1="420" y1="295" x2="420" y2="305"/>
    <text x="420" y="320" text-anchor="middle">2s</text>
    
    <!-- 3s -->
    <line x1="580" y1="295" x2="580" y2="305"/>
    <text x="580" y="320" text-anchor="middle">3s</text>
    
    <!-- 4s -->
    <line x1="740" y1="295" x2="740" y2="305"/>
    <text x="740" y="320" text-anchor="middle">4s</text>
    
    <!-- 5s -->
    <line x1="900" y1="295" x2="900" y2="305"/>
    <text x="900" y="320" text-anchor="middle">5s</text>
  </g>
  
  <!-- Event markers on timeline -->
  
  <!-- Screen events (10Hz, every 0.1s) -->
  <g stroke="#10b981" stroke-width="2">
    <line x1="100" y1="290" x2="100" y2="310"/> <!-- 0.0s -->
    <line x1="116" y1="290" x2="116" y2="310"/> <!-- 0.1s -->
    <line x1="132" y1="290" x2="132" y2="310"/> <!-- 0.2s -->
    <line x1="148" y1="290" x2="148" y2="310"/> <!-- 0.3s -->
    <line x1="164" y1="290" x2="164" y2="310"/> <!-- 0.4s -->
    <line x1="180" y1="290" x2="180" y2="310"/> <!-- 0.5s -->
    <line x1="196" y1="290" x2="196" y2="310"/> <!-- 0.6s -->
    <line x1="212" y1="290" x2="212" y2="310"/> <!-- 0.7s -->
    <line x1="228" y1="290" x2="228" y2="310"/> <!-- 0.8s -->
    <line x1="244" y1="290" x2="244" y2="310"/> <!-- 0.9s -->
    <line x1="260" y1="290" x2="260" y2="310"/> <!-- 1.0s -->
    <line x1="276" y1="290" x2="276" y2="310"/> <!-- 1.1s -->
    <line x1="292" y1="290" x2="292" y2="310"/> <!-- 1.2s -->
    <line x1="308" y1="290" x2="308" y2="310"/> <!-- 1.3s -->
    <line x1="324" y1="290" x2="324" y2="310"/> <!-- 1.4s -->
    <line x1="340" y1="290" x2="340" y2="310"/> <!-- 1.5s -->
    <line x1="356" y1="290" x2="356" y2="310"/> <!-- 1.6s -->
    <line x1="372" y1="290" x2="372" y2="310"/> <!-- 1.7s -->
    <line x1="388" y1="290" x2="388" y2="310"/> <!-- 1.8s -->
    <line x1="404" y1="290" x2="404" y2="310"/> <!-- 1.9s -->
    <line x1="420" y1="290" x2="420" y2="310"/> <!-- 2.0s -->
    <line x1="436" y1="290" x2="436" y2="310"/> <!-- 2.1s -->
    <line x1="452" y1="290" x2="452" y2="310"/> <!-- 2.2s -->
    <line x1="468" y1="290" x2="468" y2="310"/> <!-- 2.3s -->
    <line x1="484" y1="290" x2="484" y2="310"/> <!-- 2.4s -->
    <line x1="500" y1="290" x2="500" y2="310"/> <!-- 2.5s -->
    <line x1="516" y1="290" x2="516" y2="310"/> <!-- 2.6s -->
    <line x1="532" y1="290" x2="532" y2="310"/> <!-- 2.7s -->
    <line x1="548" y1="290" x2="548" y2="310"/> <!-- 2.8s -->
    <line x1="564" y1="290" x2="564" y2="310"/> <!-- 2.9s -->
    <line x1="580" y1="290" x2="580" y2="310"/> <!-- 3.0s -->
    <line x1="596" y1="290" x2="596" y2="310"/> <!-- 3.1s -->
    <line x1="612" y1="290" x2="612" y2="310"/> <!-- 3.2s -->
    <line x1="628" y1="290" x2="628" y2="310"/> <!-- 3.3s -->
    <line x1="644" y1="290" x2="644" y2="310"/> <!-- 3.4s -->
    <line x1="660" y1="290" x2="660" y2="310"/> <!-- 3.5s -->
    <line x1="676" y1="290" x2="676" y2="310"/> <!-- 3.6s -->
    <line x1="692" y1="290" x2="692" y2="310"/> <!-- 3.7s -->
    <line x1="708" y1="290" x2="708" y2="310"/> <!-- 3.8s -->
    <line x1="724" y1="290" x2="724" y2="310"/> <!-- 3.9s -->
    <line x1="740" y1="290" x2="740" y2="310"/> <!-- 4.0s -->
    <line x1="756" y1="290" x2="756" y2="310"/> <!-- 4.1s -->
    <line x1="772" y1="290" x2="772" y2="310"/> <!-- 4.2s -->
    <line x1="788" y1="290" x2="788" y2="310"/> <!-- 4.3s -->
    <line x1="804" y1="290" x2="804" y2="310"/> <!-- 4.4s -->
    <line x1="820" y1="290" x2="820" y2="310"/> <!-- 4.5s -->
    <line x1="836" y1="290" x2="836" y2="310"/> <!-- 4.6s -->
    <line x1="852" y1="290" x2="852" y2="310"/> <!-- 4.7s -->
    <line x1="868" y1="290" x2="868" y2="310"/> <!-- 4.8s -->
    <line x1="884" y1="290" x2="884" y2="310"/> <!-- 4.9s -->
  </g>
  
  <!-- Window events (1Hz, every 1s) -->
  <g stroke="#0284c7" stroke-width="3">
    <line x1="100" y1="290" x2="100" y2="310"/> <!-- 0s -->
    <line x1="260" y1="290" x2="260" y2="310"/> <!-- 1s -->
    <line x1="420" y1="290" x2="420" y2="310"/> <!-- 2s -->
    <line x1="580" y1="290" x2="580" y2="310"/> <!-- 3s -->
    <line x1="740" y1="290" x2="740" y2="310"/> <!-- 4s -->
  </g>
  
  <!-- Mouse move events (20Hz during 2-3s period) -->
  <g stroke="#ef4444" stroke-width="2">
    <!-- 20Hz = 0.05s intervals during 2.25-3s -->
    <line x1="460" y1="290" x2="460" y2="310"/> <!-- 2.25s -->
    <line x1="468" y1="290" x2="468" y2="310"/> <!-- 2.30s -->
    <line x1="476" y1="290" x2="476" y2="310"/> <!-- 2.35s -->
    <line x1="484" y1="290" x2="484" y2="310"/> <!-- 2.40s -->
    <line x1="492" y1="290" x2="492" y2="310"/> <!-- 2.45s -->
    <line x1="500" y1="290" x2="500" y2="310"/> <!-- 2.50s -->
    <line x1="508" y1="290" x2="508" y2="310"/> <!-- 2.55s -->
    <line x1="516" y1="290" x2="516" y2="310"/> <!-- 2.60s -->
    <line x1="524" y1="290" x2="524" y2="310"/> <!-- 2.65s -->
    <line x1="532" y1="290" x2="532" y2="310"/> <!-- 2.70s -->
    <line x1="540" y1="290" x2="540" y2="310"/> <!-- 2.75s -->
    <line x1="548" y1="290" x2="548" y2="310"/> <!-- 2.80s -->
    <line x1="556" y1="290" x2="556" y2="310"/> <!-- 2.85s -->
    <line x1="564" y1="290" x2="564" y2="310"/> <!-- 2.90s -->
    <line x1="572" y1="290" x2="572" y2="310"/> <!-- 2.95s -->
    <line x1="580" y1="290" x2="580" y2="310"/> <!-- 3.00s -->
  </g>
  
  <!-- Mouse click event (3.45s) -->
  <line x1="652" y1="290" x2="652" y2="310" stroke="#dc2626" stroke-width="2"/>
  
  <!-- Keyboard events (press/release pairs) -->
  <g stroke="#8b5cf6" stroke-width="2">
    <!-- First pair: 0.78s press, 4.45s release -->
    <line x1="224" y1="290" x2="224" y2="310"/> <!-- 0.78s press -->
    <line x1="827" y1="290" x2="827" y2="310"/> <!-- 4.45s release -->
  </g>
  
  <!-- Event detail boxes with connectors -->
  
  <!-- Window event -->
  <line x1="100" y1="290" x2="120" y2="200" stroke="#666" stroke-width="2" 
        marker-end="url(#connector)"/>
  <rect x="110" y="140" width="200" height="60" fill="#e0f2fe" stroke="#0284c7" 
        stroke-width="1" rx="5"/>
  <text x="120" y="160" font-family="Segoe UI, system-ui, -apple-system, sans-serif" font-size="14" font-weight="bold" 
        fill="#0c4a6e">window</text>
  <text x="120" y="175" font-family="Segoe UI, system-ui, -apple-system, sans-serif" font-size="13" fill="#0c4a6e">
    title: 'ZType – Typing Game'</text>
  <text x="120" y="190" font-family="Segoe UI, system-ui, -apple-system, sans-serif" font-size="13" fill="#0c4a6e">
    rect: [389, 10, 955, 1022]</text>
  
  <!-- Screen event with external connection -->
  <line x1="180" y1="290" x2="350" y2="220" stroke="#666" stroke-width="2" 
        marker-end="url(#connector)"/>
  <rect x="340" y="140" width="180" height="60" fill="#ecfdf5" stroke="#10b981" 
        stroke-width="1" rx="5"/>
  <text x="350" y="160" font-family="Segoe UI, system-ui, -apple-system, sans-serif" font-size="14" font-weight="bold" 
        fill="#064e3b">screen</text>
  <text x="350" y="175" font-family="Segoe UI, system-ui, -apple-system, sans-serif" font-size="13" fill="#064e3b">
    path: 'example.mkv'</text>
  <text x="350" y="190" font-family="Segoe UI, system-ui, -apple-system, sans-serif" font-size="13" fill="#064e3b">
    pts: 14866666666</text>
  
  <!-- Connection to external mkv file -->
  <line x1="520" y1="180" x2="1080" y2="180" stroke="#f59e0b" stroke-width="2" 
        stroke-dasharray="5,5" marker-end="url(#connector)"/>
  
  <!-- Mouse move event -->
  <line x1="500" y1="290" x2="430" y2="380" stroke="#666" stroke-width="2" 
        marker-end="url(#connector)"/>
  <rect x="420" y="380" width="160" height="60" fill="#fef2f2" stroke="#ef4444" 
        stroke-width="1" rx="5"/>
  <text x="430" y="400" font-family="Segoe UI, system-ui, -apple-system, sans-serif" font-size="14" font-weight="bold" 
        fill="#991b1b">mouse</text>
  <text x="430" y="415" font-family="Segoe UI, system-ui, -apple-system, sans-serif" font-size="13" fill="#991b1b">
    event_type: 'move'</text>
  <text x="430" y="430" font-family="Segoe UI, system-ui, -apple-system, sans-serif" font-size="13" fill="#991b1b">
    x: 645, y: 492</text>
  
  <!-- Keyboard press event -->
  <line x1="224" y1="290" x2="150" y2="380" stroke="#666" stroke-width="2" 
        marker-end="url(#connector)"/>
  <rect x="140" y="380" width="160" height="60" fill="#f3e8ff" stroke="#8b5cf6" 
        stroke-width="1" rx="5"/>
  <text x="150" y="400" font-family="Segoe UI, system-ui, -apple-system, sans-serif" font-size="14" font-weight="bold" 
        fill="#581c87">keyboard</text>
  <text x="150" y="415" font-family="Segoe UI, system-ui, -apple-system, sans-serif" font-size="13" fill="#581c87">
    event_type: 'press'</text>
  <text x="150" y="430" font-family="Segoe UI, system-ui, -apple-system, sans-serif" font-size="13" fill="#581c87">
    vk: 65 (A key)</text>
  
  <!-- Keyboard release event -->
  <line x1="827" y1="290" x2="800" y2="380" stroke="#666" stroke-width="2" 
        marker-end="url(#connector)"/>
  <rect x="790" y="380" width="160" height="60" fill="#f3e8ff" stroke="#8b5cf6" 
        stroke-width="1" rx="5"/>
  <text x="800" y="400" font-family="Segoe UI, system-ui, -apple-system, sans-serif" font-size="14" font-weight="bold" 
        fill="#581c87">keyboard</text>
  <text x="800" y="415" font-family="Segoe UI, system-ui, -apple-system, sans-serif" font-size="13" fill="#581c87">
    event_type: 'release'</text>
  <text x="800" y="430" font-family="Segoe UI, system-ui, -apple-system, sans-serif" font-size="13" fill="#581c87">
    vk: 65 (A key)</text>
  
  <!-- Mouse click event -->
  <line x1="652" y1="290" x2="610" y2="380" stroke="#666" stroke-width="2" 
        marker-end="url(#connector)"/>
  <rect x="600" y="380" width="160" height="60" fill="#fef2f2" stroke="#dc2626" 
        stroke-width="1" rx="5"/>
  <text x="610" y="400" font-family="Segoe UI, system-ui, -apple-system, sans-serif" font-size="14" font-weight="bold" 
        fill="#991b1b">mouse</text>
  <text x="610" y="415" font-family="Segoe UI, system-ui, -apple-system, sans-serif" font-size="13" fill="#991b1b">
    event_type: 'click'</text>
  <text x="610" y="430" font-family="Segoe UI, system-ui, -apple-system, sans-serif" font-size="13" fill="#991b1b">
    x: 672, y: 530</text>
  
  <!-- Legend -->
  <rect x="50" y="520" width="600" height="70" fill="#ffffff" stroke="#e5e7eb" 
        stroke-width="2" rx="8"/>
  <text x="70" y="538" font-family="Segoe UI, system-ui, -apple-system, sans-serif" font-size="18" 
        font-weight="bold" fill="#1f2937">Event Types</text>
  
  <!-- Legend items in two rows -->
  <!-- First row -->
  <rect x="70" y="555" width="12" height="3" fill="#0284c7" rx="1"/>
  <text x="90" y="562" font-family="Segoe UI, system-ui, -apple-system, sans-serif" font-size="15" fill="#374151">
    Window (1Hz)</text>
  
  <rect x="210" y="555" width="12" height="3" fill="#10b981" rx="1"/>
  <text x="230" y="562" font-family="Segoe UI, system-ui, -apple-system, sans-serif" font-size="15" fill="#374151">
    Screen (10Hz)</text>
  
  <rect x="350" y="555" width="12" height="3" fill="#8b5cf6" rx="1"/>
  <text x="370" y="562" font-family="Segoe UI, system-ui, -apple-system, sans-serif" font-size="15" fill="#374151">
    Keyboard</text>
  
  <!-- Second row -->
  <rect x="70" y="575" width="12" height="3" fill="#ef4444" rx="1"/>
  <text x="90" y="582" font-family="Segoe UI, system-ui, -apple-system, sans-serif" font-size="15" fill="#374151">
    Mouse Move</text>
  
  <rect x="210" y="575" width="12" height="3" fill="#dc2626" rx="1"/>
  <text x="230" y="582" font-family="Segoe UI, system-ui, -apple-system, sans-serif" font-size="15" fill="#374151">
    Mouse Click</text>
  
  <line x1="350" y1="577" x2="375" y2="577" stroke="#f59e0b" stroke-width="2" 
        stroke-dasharray="3,2"/>
  <text x="380" y="582" font-family="Segoe UI, system-ui, -apple-system, sans-serif" font-size="15" fill="#374151">
    External Reference</text>
</svg>