<?xml version="1.0" encoding="UTF-8"?>
<svg id="Layer_1" data-name="Layer 1" xmlns="http://www.w3.org/2000/svg" viewBox="0 0 2543.56 884.68">
  <defs>
    <style>
      .cls-1 {
        fill: #fff;
      }
    </style>
  </defs>
  <g>
    <g>
      <path class="cls-1" d="M744.47,349.38c3.35-3.58,11.39-13.12,10.82-25.47-.82-17.85-19.34-35.24-45.75-37.59-3.18-14.76-9.97-21.46-13.8-24.41-19.43-14.97-58.12-7.22-91.94,24.41-3.07-1.48-25.78-11.86-50.09-.49-28.42,13.3-32.86,44.03-33.12,46.09-23.91,5.73-42.12,22.22-46.42,42.74-2.6,12.36,.49,23.02,2.85,29.03-9.03,5.89-14.25,16.08-13.59,26.6,.9,14.43,12.36,22.08,13.59,22.9,.52,4.83,1.88,8.7,3.47,11.77,9.34,17.78,36.01,25.69,67.05,22.17,4.46,3.73,36.02,29.3,70.61,19.32,5.38-1.56,12.14-4.36,19.27-9.62,13.42,13.7,33.73,17.86,51.02,10.59,15.9-6.72,26.74-22.15,27.92-39.69,9.34-3.49,21.42-9.93,30.59-21.96,18.73-24.62,17.71-62.78-2.47-96.4Zm-81.42,58.77c-2.64,35.69-33.71,62.5-69.41,59.86-35.69-2.64-62.5-33.71-59.86-69.41,2.62-35.71,33.71-62.5,69.41-59.88,35.69,2.64,62.5,33.71,59.86,69.43Z"/>
      <path class="cls-1" d="M561.47,400.64c-.53,7.23,1.06,14.13,4.23,20.09l32.71-17.36-16.68,33.08c4.23,2.13,8.93,3.49,13.95,3.86,20.4,1.51,38.16-13.81,39.66-34.21,1.51-20.4-13.81-38.16-34.21-39.66-20.4-1.51-38.16,13.81-39.66,34.21Z"/>
    </g>
    <g>
      <path class="cls-1" d="M86.23,445.79c9.17,12.03,21.25,18.47,30.59,21.96,1.18,17.53,12.01,32.97,27.92,39.69,17.29,7.27,37.6,3.11,51.02-10.59,7.14,5.26,13.89,8.06,19.27,9.62,34.58,9.98,66.14-15.59,70.61-19.32,31.04,3.52,57.71-4.39,67.05-22.17,1.6-3.07,2.95-6.94,3.47-11.77,1.23-.82,12.69-8.47,13.59-22.9,.66-10.52-4.57-20.71-13.59-26.6,2.36-6.01,5.45-16.67,2.85-29.03-4.31-20.52-22.52-37.01-46.42-42.74-.26-2.07-4.7-32.79-33.12-46.09-24.31-11.37-47.01-.99-50.09,.49-33.82-31.63-72.52-39.37-91.94-24.41-3.84,2.95-10.62,9.65-13.8,24.41-26.41,2.34-44.93,19.74-45.75,37.59-.57,12.34,7.47,21.89,10.82,25.47-20.17,33.63-21.2,71.79-2.47,96.4Zm143.75-107.06c35.69-2.62,66.79,24.17,69.41,59.88,2.64,35.69-24.17,66.77-59.86,69.41-35.69,2.64-66.77-24.17-69.41-59.86-2.64-35.71,24.17-66.79,59.86-69.43Z"/>
      <path class="cls-1" d="M270.88,395.18c1.6,7.07,1.06,14.13-1.2,20.5l-34.93-12.31,21.41,30.23c-3.86,2.74-8.32,4.78-13.22,5.89-19.95,4.52-39.79-7.99-44.31-27.94-4.52-19.95,7.99-39.79,27.94-44.31,19.95-4.52,39.79,7.99,44.31,27.94Z"/>
    </g>
    <path class="cls-1" d="M511.95,657.95c-16.22,33.41-50.47,56.43-90.11,56.43s-74.15-23.21-90.28-56.82c8.53,3.81,18,5.94,27.96,5.94,21.95,0,41.49-10.33,54.05-26.39v47.92h16.37v-49.15c12.47,16.76,32.45,27.62,54.95,27.62,9.6,0,18.75-1.97,27.06-5.55Z"/>
    <g>
      <path class="cls-1" d="M599.86,752.87c.49,3.28,.75,6.62,.75,10.02,0,37.64-30.51,68.16-68.16,68.16-10.6,0-20.64-2.43-29.59-6.76-17.53,28.67-49.13,47.82-85.19,47.82-34.17,0-64.31-17.17-82.3-43.34-5.58,1.48-11.45,2.28-17.51,2.28-37.63,0-68.14-30.51-68.14-68.16,0-3.4,.26-6.74,.73-10.02-26.24-4.03-46.36-26.72-46.36-54.12,0-6.74,1.23-13.21,3.45-19.16h32.69c27.6,71.01,96.64,121.35,177.43,121.35s149.81-50.32,177.43-121.35h47.67c2.23,5.96,3.45,12.42,3.45,19.16,0,27.4-20.1,50.08-46.36,54.12Z"/>
      <path class="cls-1" d="M359.81,780.7s9.25-43.64,34.98-34.23c25.73,9.41,25.73,43.73,25.73,43.73-8.75,.03-19.01-.53-30.36-2.28-11.66-1.8-21.85-4.46-30.34-7.22Z"/>
      <path class="cls-1" d="M485.83,776.84s-4.1-30.75-21.25-32.5c-51.41-5.25-34.62,45.47-34.62,45.47,7.76-.63,16.54-1.8,26.05-3.89,11.46-2.51,21.45-5.78,29.81-9.08Z"/>
      <path class="cls-1" d="M585.46,674.79s-36.96-7.66-42.14,6.16c-5.19,13.83,11.32,45.84,11.32,45.84,5.36-6.3,11.21-14.07,16.83-23.37,6.3-10.42,10.78-20.23,13.99-28.63Z"/>
      <path class="cls-1" d="M548.09,734.11s-26.59-24.77-43.87-7.31c-17.28,17.46-3.91,43.33-3.91,43.33,7.62-3.96,16.4-9.21,25.58-16.15,9.03-6.82,16.38-13.71,22.21-19.87Z"/>
      <path class="cls-1" d="M251.3,678.42s34.96-12,44.01,0c18.25,24.2-9.64,53.98-9.64,53.98-5.87-7.01-12.1-15.23-18.22-24.73-6.71-10.42-11.99-20.34-16.14-29.25Z"/>
      <path class="cls-1" d="M347.16,775.86s12.65-33.74-2.07-43.45c-33.89-22.36-51.73,7.85-51.73,7.85,6.44,6.18,14.6,13.1,24.66,19.81,10.6,7.08,20.63,12.15,29.15,15.79Z"/>
    </g>
    <path class="cls-1" d="M123.31,509.61c-2.46,6.61-16.27,45.39,3.09,75.78,22.86,35.88,84.89,48.99,141.18,15.92,23.57-13.35,79.13-40.6,154.19-38.46,65.49,1.86,113.96,25.19,137.36,38.46,50.87,31.7,110.85,23.19,139.08-11.76,25.27-31.28,16.54-73.14,15.01-79.94,10.85-2,21.77,2.22,27.79,10.74,7.26,10.29,6.14,25.13-3.21,35.11,24.44,21.74,24.9,59.47,3.21,80.66-20.02,19.55-53.96,20.22-76-.24-1.02,1.42-23.79,31.77-61.88,28.21-24.88-2.33-46.61-18.22-56.53-41.31-3.89,3.64-29.34,26.64-67.05,23.1-34.02-3.2-53.88-25.74-57.8-30.39-3.84,4.86-23.72,28.96-58.62,32.99-41.57,4.8-69.62-22.92-72.99-26.36-1.35,2.75-18.07,35.37-55.79,40.67-40.34,5.67-66.29-25.32-67.57-26.91-19.2,12.37-42.59,13.93-58.61,3.5-22.74-14.82-30.05-53.47-7.57-83.44-1.05-2.02-6.41-12.75-2.19-25.17,5.79-17.04,24.07-20.99,24.87-21.15Z"/>
    <path class="cls-1" d="M333.3,545.67c.03,.08,.05,.16,.08,.24-.03-.07-.05-.14-.08-.21v-.03Z"/>
    <path class="cls-1" d="M333.3,545.67h0c-.75-2.39-1.3-4.88-1.55-7.45,.09,.85,.2,1.69,.36,2.52,.05,.34,.12,.68,.19,1.02,.03,.24,.1,.46,.15,.7,.07,.31,.14,.61,.2,.92,.2,.78,.43,1.55,.65,2.3Z"/>
    <path class="cls-1" d="M406.18,532.26s-.02,.71-.07,0h.07Z"/>
    <path class="cls-1" d="M493.13,519.34c-1.12-2.3-2.69-4.27-4.49-5.87-2.69-2.4-5.85-4-9.17-5.05-3.32-1.02-6.81-1.51-10.3-1.51-6.08,.02-12.24,1.41-17.58,4.53-5.19,3.06-9.21,7.66-11.91,13.02-2.69,5.38-4.1,11.56-4.1,18.02,0,2.93,.29,5.92,.88,8.92h13.97c-.85-3.05-1.24-6.06-1.24-8.92,0-4.48,.99-8.58,2.65-11.89,1.67-3.34,3.98-5.84,6.65-7.4,2.74-1.65,6.77-2.67,10.67-2.65,2.98,0,5.85,.6,7.91,1.55,1.04,.46,1.87,1,2.5,1.57,.61,.56,1.02,1.11,1.31,1.7,.68,1.33,1.09,3.22,1.09,5.21,0,1.38-.19,2.81-.56,4.08-.53,1.94-1.45,3.52-2.3,4.36-.43,.43-.82,.7-1.17,.87-.37,.15-.7,.24-1.17,.26h-.22c-1.41,0-1.99-.27-2.31-.44-.24-.14-.39-.27-.58-.53-.29-.36-.61-1.04-.8-1.92-.22-.87-.29-1.87-.29-2.64,0-.37,.02-.65,.03-.87,.02-.09,.05-.17,.07-.27,.02-.15,.03-.31,.05-.46,0-.19,.02-.32,.03-.73-.02-.17,0-.34-.07-.87-.02-.14-.03-.31-.09-.54-.03-.19-.08-.39-.17-.7-.17-.43-.34-1.04-1.09-2.06-.37-.49-.95-1.12-1.89-1.69-.9-.58-2.23-1-3.52-.99-1.21,0-2.28,.34-3.03,.71-.75,.37-1.24,.78-1.6,1.11-.72,.68-.99,1.14-1.19,1.46-.39,.66-.48,.95-.58,1.19-.15,.44-.19,.61-.22,.78-.07,.27-.1,.41-.12,.56-.09,.46-.12,.87-.17,1.43-.03,.54-.07,1.19-.07,1.92,0,1.4,.1,3.1,.48,5,.29,1.45,.73,3,1.46,4.58,.54,1.19,1.26,2.42,2.2,3.57,1.38,1.74,3.3,3.34,5.63,4.39,2.33,1.07,5,1.6,7.83,1.6h.51c3.1-.05,6.06-1.02,8.47-2.54,1.8-1.14,3.34-2.57,4.61-4.14,1.89-2.37,3.22-5.04,4.12-7.83,.88-2.79,1.33-5.72,1.33-8.68,0-3.78-.73-7.62-2.47-11.2Z"/>
    <path class="cls-1" d="M339.8,530.54c0,2.96,.44,5.89,1.33,8.68,.9,2.79,2.23,5.46,4.12,7.83,1.28,1.57,2.81,3,4.61,4.14,2.42,1.51,5.38,2.48,8.47,2.54h.51c2.82,0,5.5-.53,7.83-1.6,2.33-1.06,4.25-2.65,5.63-4.39,.94-1.16,1.65-2.38,2.2-3.57,.73-1.58,1.17-3.13,1.46-4.58,.37-1.91,.48-3.61,.48-5,0-.73-.03-1.38-.07-1.92-.05-.56-.09-.97-.17-1.43-.02-.15-.05-.29-.12-.56-.03-.17-.07-.34-.22-.78-.1-.24-.19-.53-.58-1.19-.2-.32-.48-.78-1.19-1.46-.36-.32-.85-.73-1.6-1.11-.75-.37-1.82-.71-3.03-.71-1.29-.02-2.62,.41-3.52,.99-.94,.56-1.51,1.19-1.89,1.69-.75,1.02-.92,1.63-1.09,2.06-.09,.31-.14,.51-.17,.7-.05,.24-.07,.41-.09,.54-.07,.53-.05,.7-.07,.87,.02,.41,.03,.54,.03,.73,.02,.15,.03,.31,.05,.46,.02,.1,.05,.19,.07,.27,.02,.22,.03,.49,.03,.87,0,.77-.07,1.77-.29,2.64-.19,.88-.51,1.57-.8,1.92-.19,.26-.34,.39-.58,.53-.32,.17-.9,.44-2.31,.44h-.22c-.48-.02-.8-.1-1.17-.26-.36-.17-.75-.44-1.17-.87-.85-.83-1.77-2.42-2.3-4.36-.37-1.28-.56-2.71-.56-4.08,0-1.99,.41-3.88,1.09-5.21,.29-.6,.7-1.14,1.31-1.7,.63-.56,1.46-1.11,2.5-1.57,2.06-.95,4.94-1.55,7.91-1.55,3.9-.02,7.93,1,10.67,2.65,2.67,1.57,4.99,4.07,6.65,7.4,1.67,3.32,2.65,7.42,2.65,11.89,0,2.86-.39,5.87-1.24,8.92h13.97c.6-3,.88-5.99,.88-8.92,0-6.47-1.41-12.64-4.1-18.02-2.71-5.36-6.72-9.96-11.91-13.02-5.34-3.11-11.5-4.51-17.58-4.53-3.49,0-6.98,.49-10.3,1.51-3.32,1.05-6.48,2.65-9.17,5.05-1.8,1.6-3.37,3.57-4.49,5.87-1.74,3.57-2.47,7.42-2.47,11.2Z"/>
    <path class="cls-1" d="M519.93,525.98c-6.52-50.67-77.36-64.79-103.09-21.03v.02c-.05,.07-.1,.15-.15,.22-39.12-61.73-132.62-5.61-95.93,58.15,2.2-.41,18.72-3.49,20.44-3.81-21.53-22.37-4.19-63.2,27.67-62.32,32.24,1.93,39.54,26.7,37.32,54.27h21.39c0-6.19,0-15.96,0-22.21,2.05-14.7,12.7-26.56,26.58-30.6,.02-.02,.03-.02,.05,0,34.85-11.26,63.21,34.67,37.97,60.85,1.63,.31,18.33,3.42,20.44,3.81,.62-1.06,1.19-2.14,1.73-3.23h0c5.42-10.38,7.38-22.57,5.58-34.12Z"/>
    <g>
      <path class="cls-1" d="M516.91,492.79h28.36c3.4,4.2,17.5,20.62,42.44,24.94,24.23,4.2,42.58-5.81,47.37-8.62,2.6,2.27,6.27,5.03,11.07,7.44,4.6,2.31,8.83,3.6,12.11,4.34-1.03,7.92-4.92,29.51-22.93,46.98-31.6,30.66-76.77,19.61-79.62,18.87-5.17-3.52-10.97-7.15-17.42-10.68-7.56-4.15-14.77-7.49-21.38-10.2,2.36-1.98,16.07-13.87,17.13-34.01,1.22-23.08-15.22-37.44-17.13-39.06Z"/>
      <path class="cls-1" d="M666.65,523.58c5,.37,11.86,.33,19.74-1.41,5.76-1.27,10.56-3.12,14.29-4.88,2.23,8.04,8.19,33.62-5.23,56.19-17.82,29.98-63.13,43.39-107.86,26.01,4.63-.04,41.98-1.01,64.44-31.58,13.02-17.72,14.48-36.46,14.63-44.33Z"/>
    </g>
    <g>
      <path class="cls-1" d="M316.13,493.19h-28.36c-3.4,4.2-17.5,20.62-42.44,24.94-24.23,4.2-42.58-5.81-47.37-8.62-2.6,2.27-6.27,5.03-11.07,7.44-4.6,2.31-8.83,3.6-12.11,4.34,1.03,7.92,4.92,29.51,22.93,46.98,31.6,30.66,76.77,19.61,79.62,18.87,5.17-3.52,10.97-7.15,17.42-10.68,7.56-4.15,14.77-7.49,21.38-10.2-2.36-1.98-16.07-13.87-17.13-34.01-1.22-23.08,15.22-37.44,17.13-39.06Z"/>
      <path class="cls-1" d="M166.38,523.98c-5,.37-11.86,.33-19.74-1.41-5.76-1.27-10.56-3.12-14.29-4.88-2.23,8.04-8.19,33.62,5.23,56.19,17.82,29.98,63.13,43.39,107.86,26.01-4.63-.04-41.98-1.01-64.44-31.58-13.02-17.72-14.48-36.46-14.63-44.33Z"/>
    </g>
    <path class="cls-1" d="M787.11,8.66c-12.03,.97-19.33,17.27-21.92,34.46-2.48,16.51-4.24,31.81-7.16,46.66-.34,1.75-.7,3.5-1.07,5.24-.75,3.47-1.58,6.93-2.52,10.36-.46,1.74-.95,3.45-1.48,5.17-.27,.85-.53,1.72-.8,2.57-1.63,5.16-3.56,10.3-5.82,15.47-.58,1.31-1.21,2.69-1.89,4.08-.68,1.4-1.41,2.82-2.2,4.24-4.63,8.53-10.76,16.69-16.44,16.78-2.59,.03-6.33-1.67-9-6.26-.39-.65-.75-1.36-1.07-2.13-.22-.53-.44-1.07-.63-1.62-.19-.54-.37-1.11-.56-1.67-.19-.56-.34-1.14-.51-1.72-.48-1.74-.85-3.51-1.17-5.33-2.83-15.66-1.26-33.18-14.45-33.42-.29,0-.58,0-.85,.03-.24,.03-.48,.07-.7,.12-14.18,3.39-7.25,58.18-25.12,77.43-28.28,30.48-52.91,40.96-72.05,43.29-24.27,2.94-39.72-7.25-42.71-6.55-1.53,1.62-3.11,3.17-4.78,4.63-.82,.73-1.67,1.43-2.54,2.11-1.75,1.4-3.57,2.71-5.45,3.91-.94,.6-1.89,1.17-2.84,1.74-.97,.54-1.97,1.09-2.98,1.6-2.98,1.51-6.11,2.83-9.33,3.88-4.53,1.48-9.26,2.5-14.14,3-.39,.03-.78,.08-1.19,.1-.54,.05-1.09,.08-1.65,.12-.41,.03-.82,.05-1.24,.07-.77,.03-1.53,.05-2.31,.05-2.09,5.51-19.45,48.91-65.52,62.46-3.01,.88-6.04,1.58-9.09,2.16-.48,.09-.94,.19-1.41,.27-.83,.15-1.65,.27-2.48,.39-.51,.08-1.02,.15-1.55,.2-.39,.07-.8,.12-1.21,.15-.71,.1-1.43,.17-2.13,.22-.19,.02-.36,.05-.54,.05-.1,0-.19,.02-.29,.02-.44,.05-.88,.08-1.33,.12-.36,.02-.7,.05-1.05,.07-.05,.02-.09,.02-.14,0h-.02s-.07,.02-.1,0h-.03c-.95,.07-1.91,.12-2.88,.14-.37,.02-.75,.03-1.14,.03-.39,.02-.77,.02-1.16,.02s-.77,0-1.16-.02c-.39,0-.77-.02-1.14-.03-.94-.02-1.86-.07-2.77-.14-.03,.02-.07,.02-.1,0h-.02c-.05,.02-.08,.02-.14,0-.36-.02-.7-.03-1.06-.07-.39-.03-.78-.07-1.19-.12h-.14c-.1,0-.19,0-.29-.02-.14-.02-.27-.03-.41-.05-.7-.05-1.41-.12-2.13-.22-.41-.03-.82-.08-1.21-.15-.53-.05-1.04-.12-1.55-.2-.83-.12-1.65-.24-2.48-.39-.48-.09-.94-.19-1.41-.27-3.05-.58-6.08-1.28-9.09-2.16-46.07-13.55-63.42-56.94-65.52-62.46h-.14c-.78,0-1.55-.02-2.31-.05-.43-.02-.83-.03-1.24-.07-.56-.02-1.11-.07-1.65-.12-.39-.02-.8-.05-1.19-.1-4.88-.49-9.61-1.51-14.14-3-3.23-1.05-6.35-2.36-9.33-3.88-1-.51-1.99-1.06-2.98-1.6-.95-.56-1.91-1.14-2.84-1.74-1.89-1.23-3.69-2.52-5.45-3.91-.87-.68-1.7-1.38-2.54-2.11-1.67-1.46-3.25-3.01-4.77-4.63h-.02c-3-.7-18.45,9.5-42.71,6.55-19.14-2.33-43.77-12.81-72.07-43.29-17.87-19.25-10.93-74.04-25.12-77.43-.24-.05-.46-.08-.7-.12-.27-.02-.56-.03-.85-.03-16.23,.29-10.11,26.77-17.32,43.75-2.64,6.21-7.11,8.42-10.07,8.39-7.57-.1-15.93-14.62-20.51-25.1-12.08-27.59-14.21-54.42-18.87-85.48-2.59-17.19-9.89-33.49-21.92-34.46-22.94-1.86-28.62,21.37-22.51,55.58,4.08,22.96,6.13,41.22,23.94,76.78,13.24,26.46,40.08,56.45,58.25,68.63,18.67,12.51,36.81,21.03,55.12,28.13,.34-.02,.7-.02,1.05-.02,11.42,.02,23.72,2.98,36.21,8.66,11.08,5.05,22.31,12.29,33.08,21.7,1.34-.49,2.89-1,4.63-1.5,5.17-1.48,12-2.84,19.86-2.84,.61,0,1.24,.02,1.87,.03,.6,.02,1.17,.03,1.79,.08,.78,.03,1.57,.1,2.37,.17,.54,.03,1.09,.08,1.65,.17h.02s.05,0,.07,.02c2.5,.32,6.48,.95,11.32,2.37,.17,.05,.36,.1,.54,.15,3.74,1.12,7.96,2.69,12.42,4.9t.03,.02c1.72,1.07,3.45,2.26,5.17,3.59,3.32,2.04,6.69,4.51,10.01,7.42,17.44,15.3,22.65,33.92,24.17,40.47,2.85,1.32,10.99,5.28,19.49,12.86,.01-.03,.02-.06,.03-.09,7.54,6.7,15.39,16.24,20.11,29.3,5.58,15.49,4.36,29.25,3.15,36.52,1.21,1.14,14.19,13.82,11.37,32.21-2.28,14.92-13.34,22.92-15.35,24.32-.85,3.76-1.69,7.51-2.54,11.25,8.46,.83,19.83,2.86,32.42,7.88,7.98,3.18,15.4,6.89,20.85,10.36,.05,.03,.12,.07,.17,.1,.2-.14,12.75-7.25,20.81-10.47,12.59-5.02,23.96-7.05,32.42-7.88-.85-3.74-1.68-7.49-2.54-11.25-2.01-1.4-13.07-9.39-15.35-24.32-2.83-18.4,10.16-31.07,11.37-32.21-1.21-7.27-2.43-21.03,3.15-36.52,10.01-27.72,34.12-39.58,39.5-42.07,1.51-6.55,6.72-25.17,24.17-40.47,3.32-2.91,6.69-5.38,10.01-7.42,1.72-1.33,3.45-2.52,5.17-3.59t.03-.02c4.46-2.21,8.68-3.78,12.41-4.9,.14-.05,.27-.08,.41-.12,4.9-1.43,8.93-2.08,11.47-2.4,.05-.03,.09-.03,.14-.02,.53-.07,1.07-.12,1.6-.17,.27-.03,.53-.07,.8-.07,.48-.05,.95-.08,1.43-.1,.02-.02,.05-.02,.07,0,.63-.05,1.24-.07,1.85-.08,.63-.02,1.26-.03,1.87-.03,7.85,0,14.67,1.36,19.84,2.84,1.74,.49,3.28,1,4.63,1.5,10.77-9.41,22-16.64,33.08-21.7,12.49-5.68,24.79-8.65,36.21-8.66,.36,0,.73,0,1.06,.02,18.33-7.1,36.45-15.62,55.12-28.13,13.07-8.76,30.61-26.72,44.36-45.93,1.19-1.68,2.35-3.37,3.49-5.05,1.12-1.69,2.23-3.37,3.28-5.05,.66-1.06,1.31-2.11,1.94-3.17,1.89-3.18,3.62-6.33,5.19-9.43,1.4-2.79,2.69-5.45,3.88-8.03,.92-1.92,1.77-3.81,2.57-5.63,.27-.61,.54-1.23,.8-1.82,.83-1.92,1.6-3.78,2.35-5.6,.54-1.36,1.09-2.71,1.58-4,.49-1.33,.97-2.6,1.43-3.86,.61-1.68,1.17-3.32,1.7-4.93,5.31-16.05,7.06-28.56,9.61-42.9,6.13-34.21,.43-57.43-22.51-55.58Z"/>
    <path class="cls-1" d="M292.01,214.38c-9.9-9.2-11.27-24.43-3.6-35.57,1.11-1.61,2.41-3.21,3.95-4.76,11.64-11.69,27.04-10.48,29.2-10.27,1.02-2.45,6.98-16.07,22.17-21.63,9.86-3.61,18.57-1.98,22.17-1.08,10.83-18.73,31.2-29.54,51.91-27.58,26.96,2.56,40.42,25.42,41.64,27.58,2.43-.73,14.78-4.15,27.58,2.7,11.17,5.98,15.48,15.94,16.57,18.69,3.36-.01,17.89,.31,29.94,11.59,2.35,2.2,4.27,4.51,5.85,6.79,7.32,10.6,6.65,25.07-2.36,34.27-.41,.41-.83,.82-1.27,1.23-13.19,12.05-30.94,7.88-32.47,7.49-10.96,39.18-47.24,66.25-87.91,65.59-40.63-.66-75.98-28.85-85.69-68.32-1.01,.34-22.52,7.11-37.46-6.53-.07-.06-.14-.13-.21-.19Z"/>
  </g>
  <g>
    <path class="cls-1" d="M1125.17,465.28l167.2-238.42h123.86l-176.49,245.39,172.62,300.35h-130.82l-156.37-274.03v274.03h-113.79V226.86h113.79v238.42Z"/>
    <path class="cls-1" d="M1542.41,216.8c35.61,0,60.38,24.77,60.38,60.38s-24.77,61.15-60.38,61.15-61.93-24.77-61.93-61.15,26.32-60.38,61.93-60.38Zm52.64,164.88v390.92h-106.05V381.68h106.05Z"/>
    <path class="cls-1" d="M1895.4,471.48c-60.38,0-98.31,33.29-98.31,82.83v218.29h-106.05V381.68h102.96v42.58h3.87c17.8-27.09,54.19-42.58,97.54-42.58v89.8Z"/>
    <path class="cls-1" d="M2030.09,216.8c35.61,0,60.38,24.77,60.38,60.38s-24.77,61.15-60.38,61.15-61.93-24.77-61.93-61.15,26.32-60.38,61.93-60.38Zm52.64,164.88v390.92h-106.05V381.68h106.05Z"/>
    <path class="cls-1" d="M2417.14,772.6v-242.29c0-46.45-23.22-71.99-61.93-71.99-43.35,0-70.44,30.96-70.44,79.73v234.55h-106.05V381.68h103.73v35.61h3.1c18.58-27.87,58.83-47.22,106.05-47.22,78.96,0,130.82,52.64,130.82,129.28v273.26h-105.28Z"/>
  </g>
</svg>
