<?xml version="1.0" encoding="UTF-8"?>
<svg width="500" height="250" viewBox="0 0 500 250" xmlns="http://www.w3.org/2000/svg">
    <!-- Background - removing solid background for transparency -->

    <!-- SECTION 1: FORWARD & REVERSE SHOCK MODELING -->
    <g transform="translate(275, 115)">
        <!-- Section Title -->
        <text x="0" y="-85" font-family="Arial" font-size="12" fill="#AAAAFF" text-anchor="middle">Forward &amp; Reverse Shocks</text>

        <!-- Central engine and initial jet -->
        <circle cx="0" cy="0" r="10" fill="#ffcc00">
            <animate attributeName="opacity" values="0.7;1;0.7" dur="2s" repeatCount="indefinite"/>
        </circle>

        <!-- Ejecta material -->
        <circle cx="0" cy="0" r="40" fill="#444455" fill-opacity="0.2" stroke="#666677" stroke-width="0.5"/>

        <!-- Forward shock wave -->
        <circle cx="0" cy="0" r="50" fill="none" stroke="#3399ff" stroke-width="3">
            <animate attributeName="r" values="50;75" dur="2s" repeatCount="indefinite"/>
            <animate attributeName="opacity" values="0.9;0.6" dur="2s" repeatCount="indefinite"/>
        </circle>
        <text x="30" y="-50" font-family="Arial" font-size="9" fill="#3399ff">Forward Shock</text>

        <!-- Reverse shock wave -->
        <circle cx="0" cy="0" r="40" fill="none" stroke="#ff6600" stroke-width="2.5">
            <animate attributeName="r" values="40;12" dur="2s" repeatCount="indefinite"/>
            <animate attributeName="opacity" values="0.9;0.6" dur="2s" repeatCount="indefinite"/>
        </circle>
        <text x="-75" y="30" font-family="Arial" font-size="9" fill="#ff6600">Reverse Shock</text>

        <!-- Magnetic field lines -->
        <g opacity="0.6">
            <path d="M-32,12 C-25,8 -15,10 -10,15 C-5,20 0,22 5,18 C10,14 15,10 22,12"
                  fill="none" stroke="#aa66cc" stroke-width="1" stroke-dasharray="4,2"/>
            <path d="M-30,-15 C-20,-12 -10,-15 -5,-20 C0,-25 5,-22 15,-16"
                  fill="none" stroke="#aa66cc" stroke-width="1" stroke-dasharray="4,2"/>
            <path d="M10,-25 C15,-20 25,-18 30,-15 C35,-12 40,-15 45,-20"
                  fill="none" stroke="#aa66cc" stroke-width="1" stroke-dasharray="4,2"/>
            <path d="M-15,30 C-10,25 -5,22 0,25 C5,28 10,30 18,25"
                  fill="none" stroke="#aa66cc" stroke-width="1" stroke-dasharray="4,2"/>
            <text x="0" y="43" font-family="Arial" font-size="8" fill="#aa66cc" text-anchor="middle">Magnetization</text>
        </g>
    </g>

    <!-- SECTION 2: AMBIENT MEDIUM PROFILES -->
    <g transform="translate(100, 115)">
        <!-- Section Title -->
        <text x="0" y="-85" font-family="Arial" font-size="12" fill="#AAAAFF" text-anchor="middle">Ambient Medium Profiles</text>

        <!-- Background circle to group elements -->
        <circle cx="0" cy="0" r="60" fill="#222233" stroke="#333344" stroke-width="0.5"/>

        <!-- Central blast wave source -->
        <circle cx="0" cy="0" r="8" fill="#ffcc00">
            <animate attributeName="opacity" values="0.8;1;0.8" dur="2s" repeatCount="indefinite"/>
        </circle>

        <!-- ISM (Uniform density) -->
        <g opacity="0.8">
            <circle cx="0" cy="0" r="55" fill="none" stroke="#22aa22" stroke-width="1" stroke-dasharray="2,2"/>
            <text x="-48" y="-40" font-family="Arial" font-size="8" fill="#22aa22">ISM</text>

            <!-- ISM particles -->
            <g fill="#22aa22" opacity="0.7">
                <circle cx="-35" cy="-10" r="1"/>
                <circle cx="-25" cy="-30" r="1"/>
                <circle cx="-20" cy="25" r="1"/>
                <circle cx="-5" cy="-45" r="1"/>
                <circle cx="10" cy="-40" r="1"/>
                <circle cx="25" cy="-30" r="1"/>
                <circle cx="35" cy="-15" r="1"/>
                <circle cx="40" cy="10" r="1"/>
                <circle cx="30" cy="35" r="1"/>
                <circle cx="15" cy="40" r="1"/>
                <circle cx="-5" cy="40" r="1"/>
                <circle cx="-30" cy="35" r="1"/>
                <circle cx="-40" cy="15" r="1"/>
                <circle cx="0" cy="-30" r="1"/>
                <circle cx="15" cy="20" r="1"/>
                <circle cx="-15" cy="15" r="1"/>
            </g>
        </g>

        <!-- Wind Profile (r^-2 density) -->
        <g opacity="0.8">
            <path d="M0,0 L40,0 M0,0 L38.5,10.5 M0,0 L35,20 M0,0 L28,28 M0,0 L20,35 M0,0 L10.5,38.5 M0,0 L0,40
                     M0,0 L-10.5,38.5 M0,0 L-20,35 M0,0 L-28,28 M0,0 L-35,20 M0,0 L-38.5,10.5 M0,0 L-40,0
                     M0,0 L-38.5,-10.5 M0,0 L-35,-20 M0,0 L-28,-28 M0,0 L-20,-35 M0,0 L-10.5,-38.5 M0,0 L0,-40
                     M0,0 L10.5,-38.5 M0,0 L20,-35 M0,0 L28,-28 M0,0 L35,-20 M0,0 L38.5,-10.5"
                  stroke="#ff8866" stroke-width="0.5"/>
            <text x="25" y="40" font-family="Arial" font-size="8" fill="#ff8866">Wind</text>

            <!-- Density gradient indicators -->
            <circle cx="15" cy="0" r="2.5" fill="#ff8866" opacity="0.8"/>
            <circle cx="25" cy="0" r="1.8" fill="#ff8866" opacity="0.7"/>
            <circle cx="35" cy="0" r="1.2" fill="#ff8866" opacity="0.6"/>
            <circle cx="45" cy="0" r="0.8" fill="#ff8866" opacity="0.5"/>
        </g>

        <!-- User-defined profile (shown as irregular) -->
        <path d="M0,0 C10,15 30,20 40,15 C50,10 45,-10 30,-15 C15,-20 -10,-20 -25,-10 C-40,0 -30,20 -15,20 C0,20 10,5 0,0 Z"
              fill="none" stroke="#66ccff" stroke-width="1" stroke-dasharray="3,1"/>
        <text x="-15" y="-40" font-family="Arial" font-size="8" fill="#66ccff">Custom</text>
    </g>

    <!-- SECTION 3: ENERGY & MASS INJECTION -->
    <g transform="translate(425, 115)">
        <!-- Section Title -->
        <text x="0" y="-85" font-family="Arial" font-size="12" fill="#AAAAFF" text-anchor="middle">Energy &amp; Mass Injection</text>

        <!-- Outer shell -->
        <circle cx="0" cy="0" r="50" fill="none" stroke="#996633" stroke-width="2" stroke-dasharray="3,1"/>
        <text x="0" y="53" font-family="Arial" font-size="8" fill="#996633" text-anchor="middle">Shell</text>

        <!-- Central engine -->
        <circle cx="0" cy="0" r="10" fill="#ffcc00">
            <animate attributeName="opacity" values="0.7;1;0.7" dur="2s" repeatCount="indefinite"/>
        </circle>

        <!-- Energy flow animations -->
        <g>
            <!-- Energy injection bursts -->
            <path d="M0,0 C15,-15 25,-20 30,-40" stroke="#ff3366" stroke-width="2.5" stroke-linecap="round" fill="none">
                <animate attributeName="opacity" values="0;1;0" dur="3s" begin="0s" repeatCount="indefinite"/>
            </path>
            <path d="M0,0 C-10,-20 -15,-30 -25,-45" stroke="#ff3366" stroke-width="2.5" stroke-linecap="round" fill="none">
                <animate attributeName="opacity" values="0;1;0" dur="3s" begin="1s" repeatCount="indefinite"/>
            </path>
            <path d="M0,0 C-20,-5 -30,-10 -45,-15" stroke="#ff3366" stroke-width="2.5" stroke-linecap="round" fill="none">
                <animate attributeName="opacity" values="0;1;0" dur="3s" begin="2s" repeatCount="indefinite"/>
            </path>
            <path d="M0,0 C-15,15 -20,25 -30,40" stroke="#ff3366" stroke-width="2.5" stroke-linecap="round" fill="none">
                <animate attributeName="opacity" values="0;1;0" dur="3s" begin="0.5s" repeatCount="indefinite"/>
            </path>
            <path d="M0,0 C10,20 15,30 25,45" stroke="#ff3366" stroke-width="2.5" stroke-linecap="round" fill="none">
                <animate attributeName="opacity" values="0;1;0" dur="3s" begin="1.5s" repeatCount="indefinite"/>
            </path>
            <path d="M0,0 C20,5 30,10 45,15" stroke="#ff3366" stroke-width="2.5" stroke-linecap="round" fill="none">
                <animate attributeName="opacity" values="0;1;0" dur="3s" begin="2.5s" repeatCount="indefinite"/>
            </path>
        </g>

        <!-- Mass outflow -->
        <g>
            <!-- Mass particles -->
            <circle cx="0" cy="0" r="2" fill="#66ddff">
                <animate attributeName="opacity" values="1;0" dur="4s" repeatCount="indefinite"/>
                <animateMotion path="M0,0 C5,-5 10,-25 12,-40" dur="4s" repeatCount="indefinite"/>
            </circle>
            <circle cx="0" cy="0" r="2" fill="#66ddff">
                <animate attributeName="opacity" values="1;0" dur="4s" begin="0.5s" repeatCount="indefinite"/>
                <animateMotion path="M0,0 C15,0 30,-5 40,-15" dur="4s" begin="0.5s" repeatCount="indefinite"/>
            </circle>
            <circle cx="0" cy="0" r="2" fill="#66ddff">
                <animate attributeName="opacity" values="1;0" dur="4s" begin="1s" repeatCount="indefinite"/>
                <animateMotion path="M0,0 C15,10 25,20 30,35" dur="4s" begin="1s" repeatCount="indefinite"/>
            </circle>
            <circle cx="0" cy="0" r="2" fill="#66ddff">
                <animate attributeName="opacity" values="1;0" dur="4s" begin="1.5s" repeatCount="indefinite"/>
                <animateMotion path="M0,0 C-5,15 -15,25 -30,30" dur="4s" begin="1.5s" repeatCount="indefinite"/>
            </circle>
            <circle cx="0" cy="0" r="2" fill="#66ddff">
                <animate attributeName="opacity" values="1;0" dur="4s" begin="2s" repeatCount="indefinite"/>
                <animateMotion path="M0,0 C-15,5 -25,10 -40,10" dur="4s" begin="2s" repeatCount="indefinite"/>
            </circle>
            <circle cx="0" cy="0" r="2" fill="#66ddff">
                <animate attributeName="opacity" values="1;0" dur="4s" begin="2.5s" repeatCount="indefinite"/>
                <animateMotion path="M0,0 C-10,-10 -20,-20 -35,-25" dur="4s" begin="2.5s" repeatCount="indefinite"/>
            </circle>
        </g>

        <!-- Energy label -->
        <text x="-35" y="-25" font-family="Arial" font-size="9" fill="#ff3366">Energy</text>

        <!-- Mass label -->
        <text x="25" y="25" font-family="Arial" font-size="9" fill="#66ddff">Mass</text>

        <!-- Blast wave -->
        <circle cx="0" cy="0" r="42" fill="none" stroke="#ffffff" stroke-width="1" stroke-dasharray="3,2" opacity="0.5"/>
    </g>
</svg>
