<svg width="1040" height="197" viewBox="0 0 1040 197" fill="none" xmlns="http://www.w3.org/2000/svg">
<g opacity="0.8">
<mask id="mask0_4_30" style="mask-type:luminance" maskUnits="userSpaceOnUse" x="0" y="45" width="106" height="152">
<path d="M105.953 45.3032H0V197H105.953V45.3032Z" fill="white"/>
</mask>
<g mask="url(#mask0_4_30)">
<path d="M78.4959 197L105.953 181.126V90.5774L27.4574 45.3032L0 61.1477V151.696L78.4959 197Z" fill="#F2F2F2"/>
</g>
</g>
<g opacity="0.4">
<mask id="mask1_4_30" style="mask-type:luminance" maskUnits="userSpaceOnUse" x="61" y="21" width="87" height="141">
<path d="M147.447 21.3606H61.4631V161.526H147.447V21.3606Z" fill="white"/>
</mask>
<g mask="url(#mask1_4_30)">
<path d="M139.959 161.526L147.447 157.213V66.6348L68.9516 21.3606L61.4631 25.6738V116.252L139.959 161.526Z" fill="#F2F2F2"/>
</g>
</g>
<g opacity="0.2">
<mask id="mask2_4_30" style="mask-type:luminance" maskUnits="userSpaceOnUse" x="105" y="0" width="80" height="136">
<path d="M184.449 0H105.924V135.852H184.449V0Z" fill="white"/>
</mask>
<g mask="url(#mask2_4_30)">
<path d="M184.449 135.852L184.42 135.881V45.3035L105.924 0.0293703L105.953 0V90.5777L184.449 135.852Z" fill="#F2F2F2"/>
</g>
</g>
<path d="M237.984 167.717V40.4622H259.568L318.653 130.16V40.4622H340.208V167.717H318.653L259.568 78.0195V167.717H237.984Z" fill="#F2F2F2"/>
<path d="M390.189 170.446C383.112 170.446 377.268 169.272 372.687 166.896C368.076 164.548 364.435 161.526 361.733 157.888C359.031 154.249 357.005 150.347 355.713 146.21C354.421 142.073 353.569 138.17 353.187 134.502C352.806 130.835 352.6 127.842 352.6 125.524V72.2393H374.184V118.188C374.184 121.152 374.39 124.438 374.801 128.135C375.212 131.832 376.181 135.353 377.679 138.757C379.177 142.131 381.408 144.919 384.404 147.119C387.37 149.291 391.393 150.376 396.473 150.376C399.175 150.376 401.877 149.936 404.52 149.056C407.162 148.176 409.571 146.65 411.714 144.508C413.858 142.366 415.591 139.402 416.883 135.617C418.175 131.832 418.821 127.079 418.821 121.299L431.478 126.697C431.478 134.825 429.892 142.19 426.75 148.792C423.608 155.394 418.968 160.646 412.83 164.578C406.693 168.509 399.146 170.446 390.189 170.446ZM421.405 167.717V138.111H418.85V72.2687H440.258V167.717H421.405Z" fill="#F2F2F2"/>
<path d="M451.271 167.717V72.269H470.094V101.875H472.737V167.717H451.271ZM508.858 167.717V110.002C508.858 103.342 507.243 98.1483 503.983 94.4512C500.753 90.7249 496.318 88.8763 490.709 88.8763C485.277 88.8763 480.931 90.7249 477.671 94.4512C474.411 98.1483 472.767 102.99 472.767 108.946L463.223 102.579C463.223 96.3879 464.75 90.8129 467.833 85.8835C470.887 80.9248 475.057 77.0223 480.255 74.1761C485.482 71.33 491.326 69.8923 497.816 69.8923C504.952 69.8923 510.913 71.418 515.729 74.4402C520.545 77.4624 524.128 81.5996 526.507 86.8224C528.885 92.0452 530.089 97.9136 530.089 104.457V167.717H508.858ZM566.18 167.717V109.738C566.18 103.195 564.565 98.0896 561.306 94.3926C558.046 90.6955 553.671 88.8763 548.12 88.8763C544.714 88.8763 541.63 89.6685 538.929 91.2236C536.227 92.7788 534.054 95.0968 532.468 98.119C530.882 101.141 530.089 104.75 530.089 108.946L520.633 103.371C520.575 96.7693 522.072 90.9596 525.097 85.9128C528.122 80.866 532.233 76.9343 537.431 74.1175C542.629 71.3007 548.385 69.8629 554.757 69.8629C565.3 69.8629 573.405 73.0319 579.043 79.3697C584.681 85.7075 587.5 94.0404 587.5 104.339V167.688H566.18V167.717Z" fill="#F2F2F2"/>
<path d="M645.998 170.358C636.336 170.358 627.849 168.275 620.537 164.079C613.225 159.912 607.528 154.103 603.417 146.679C599.305 139.256 597.279 130.717 597.279 121.034C597.279 110.618 599.276 101.552 603.299 93.8641C607.323 86.1766 612.873 80.2202 620.009 75.9656C627.145 71.7111 635.397 69.5985 644.764 69.5985C654.661 69.5985 663.089 71.9165 670.019 76.5231C676.95 81.1591 682.089 87.6729 685.466 96.094C688.843 104.515 690.106 114.433 689.284 125.876H668.14V118.1C668.081 107.743 666.261 100.173 662.649 95.3898C659.036 90.6071 653.398 88.2304 645.675 88.2304C636.953 88.2304 630.463 90.9299 626.234 96.3288C621.976 101.728 619.862 109.591 619.862 119.978C619.862 129.632 621.976 137.114 626.234 142.424C630.492 147.735 636.659 150.376 644.794 150.376C650.05 150.376 654.573 149.202 658.361 146.884C662.149 144.566 665.086 141.192 667.171 136.762L688.226 143.129C684.585 151.726 678.917 158.416 671.282 163.198C663.618 167.981 655.219 170.358 645.998 170.358ZM613.108 109.826H678.829V125.905H613.108V109.826Z" fill="#F2F2F2"/>
<path d="M699.063 167.718V72.2692H717.887V95.5078L715.596 92.5149C716.771 89.346 718.356 86.4412 720.324 83.8005C722.291 81.189 724.67 79.0178 727.431 77.316C729.78 75.7315 732.393 74.4698 735.271 73.5602C738.12 72.6506 741.056 72.0931 744.081 71.8877C747.077 71.6823 750.013 71.8291 752.832 72.2986V92.1922C750.013 91.3707 746.754 91.1065 743.053 91.3999C739.353 91.6934 736.064 92.7204 733.098 94.4809C730.162 96.0653 727.754 98.0898 725.903 100.584C724.053 103.049 722.673 105.865 721.792 109.034C720.911 112.203 720.471 115.578 720.471 119.245V167.747H699.063V167.718Z" fill="#F2F2F2"/>
<path d="M803.577 170.358C794.033 170.358 785.693 168.216 778.557 163.903C771.421 159.619 765.9 153.662 761.965 146.092C758.059 138.522 756.092 129.808 756.092 119.978C756.092 109.973 758.088 101.199 762.112 93.6293C766.105 86.0885 771.685 80.1908 778.821 75.9656C785.957 71.7111 794.209 69.5985 803.577 69.5985C813.179 69.5985 821.549 71.7404 828.685 76.0537C835.821 80.3669 841.371 86.2939 845.306 93.8641C849.271 101.434 851.238 110.149 851.238 119.978C851.238 129.866 849.241 138.61 845.277 146.18C841.283 153.75 835.733 159.677 828.597 163.932C821.461 168.245 813.121 170.358 803.577 170.358ZM803.577 150.405C812.063 150.405 818.377 147.589 822.488 141.926C826.629 136.263 828.685 128.957 828.685 120.007C828.685 110.765 826.6 103.371 822.4 97.8839C818.201 92.3676 811.946 89.6095 803.577 89.6095C797.85 89.6095 793.152 90.9005 789.481 93.4533C785.781 96.006 783.079 99.5857 781.288 104.134C779.526 108.711 778.645 113.992 778.645 120.007C778.645 129.25 780.759 136.644 784.958 142.16C789.187 147.647 795.383 150.405 803.577 150.405Z" fill="#F2F2F2"/>
<path d="M899.458 170.446C892.38 170.446 886.537 169.272 881.955 166.896C877.345 164.548 873.704 161.526 871.002 157.888C868.3 154.249 866.274 150.347 864.982 146.21C863.69 142.073 862.838 138.17 862.456 134.502C862.074 130.835 861.869 127.842 861.869 125.524V72.2393H883.453V118.188C883.453 121.152 883.659 124.438 884.07 128.135C884.481 131.832 885.45 135.353 886.948 138.757C888.445 142.131 890.677 144.919 893.673 147.119C896.639 149.291 900.662 150.376 905.742 150.376C908.444 150.376 911.145 149.936 913.788 149.056C916.431 148.176 918.839 146.65 920.983 144.508C923.127 142.366 924.859 139.402 926.152 135.617C927.444 131.832 928.09 127.079 928.09 121.299L940.747 126.697C940.747 134.825 939.161 142.19 936.019 148.792C932.876 155.394 928.237 160.646 922.099 164.578C915.961 168.509 908.414 170.446 899.458 170.446ZM930.674 167.717V138.111H928.119V72.2687H949.527V167.717H930.674Z" fill="#F2F2F2"/>
<path d="M1000.54 170.358C988.731 170.358 979.158 167.717 971.787 162.406C964.416 157.095 959.923 149.643 958.337 140.048L980.097 136.703C981.213 141.427 983.68 145.124 987.527 147.823C991.374 150.523 996.19 151.902 1002.03 151.902C1007.17 151.902 1011.14 150.875 1013.93 148.85C1016.75 146.826 1018.13 144.038 1018.13 140.488C1018.13 138.317 1017.6 136.556 1016.57 135.236C1015.54 133.915 1013.28 132.624 1009.82 131.392C1006.35 130.16 1001.01 128.605 993.811 126.697C985.794 124.585 979.422 122.296 974.694 119.861C969.966 117.425 966.589 114.521 964.533 111.146C962.478 107.801 961.45 103.723 961.45 98.9695C961.45 93.0131 963.006 87.8196 966.148 83.4184C969.291 78.9878 973.637 75.5842 979.246 73.2075C984.855 70.8309 991.462 69.6278 999.068 69.6278C1006.5 69.6278 1013.08 70.7721 1018.83 73.0608C1024.59 75.3494 1029.23 78.6358 1032.75 82.861C1036.27 87.1155 1038.48 92.0742 1039.3 97.7959L1017.54 101.698C1017.01 97.6198 1015.16 94.4215 1012.02 92.0742C1008.88 89.7269 1004.68 88.4065 999.42 88.1131C994.399 87.8196 990.376 88.5826 987.292 90.3724C984.238 92.1623 982.682 94.6856 982.682 97.9425C982.682 99.7617 983.298 101.317 984.532 102.637C985.765 103.928 988.261 105.219 992.02 106.54C995.75 107.831 1001.36 109.415 1008.79 111.322C1016.39 113.259 1022.47 115.489 1027.05 117.983C1031.61 120.477 1034.92 123.47 1036.95 126.961C1038.98 130.424 1040 134.649 1040 139.608C1040 149.202 1036.51 156.743 1029.52 162.23C1022.53 167.629 1012.87 170.358 1000.54 170.358Z" fill="#F2F2F2"/>
</svg>
