<svg width="190" height="240" viewBox="0 0 190 240" fill="none" xmlns="http://www.w3.org/2000/svg">
<!-- Logo mark -->
<g transform="translate(0,0)">
<g opacity="0.8">
<mask id="mask0_31_1125" style="mask-type:luminance" maskUnits="userSpaceOnUse" x="6" y="45" width="107" height="152">
<path d="M112.221 45.3032H6.35596V197H112.221V45.3032Z" fill="white"/>
</mask>
<g mask="url(#mask0_31_1125)">
<path d="M84.7864 197L112.221 181.126V90.5775L33.7905 45.3032L6.35596 61.1477V151.696L84.7864 197Z" fill="#121928"/>
</g>
</g>
<g opacity="0.4">
<mask id="mask1_31_1125" style="mask-type:luminance" maskUnits="userSpaceOnUse" x="67" y="21" width="87" height="141">
<path d="M153.68 21.3606H67.7678V161.526H153.68V21.3606Z" fill="white"/>
</mask>
<g mask="url(#mask1_31_1125)">
<path d="M146.198 161.526L153.68 157.213V66.6349L75.25 21.3606L67.7678 25.6738V116.252L146.198 161.526Z" fill="#121928"/>
</g>
</g>
<g opacity="0.2">
<mask id="mask2_31_1125" style="mask-type:luminance" maskUnits="userSpaceOnUse" x="112" y="0" width="79" height="136">
<path d="M190.652 0H112.192V135.852H190.652V0Z" fill="white"/>
</mask>
<g mask="url(#mask2_31_1125)">
<path d="M190.652 135.852L190.622 135.881V45.3036L112.192 0.0293704L112.221 0V90.5779L190.652 135.852Z" fill="#121928"/>
</g>
</g>
</g>

<!-- Text (scaled and positioned below logo) -->
<g transform="translate(0,200) scale(0.235)">
<g clip-path="url(#clip0_31_1702)">
<path d="M-0.0161133 167.717V40.4624H21.5681L80.6529 130.16V40.4624H102.208V167.717H80.6529L21.5681 78.0197V167.717H-0.0161133Z" fill="#121928"/>
<path d="M152.189 170.446C145.112 170.446 139.268 169.273 134.687 166.896C130.076 164.549 126.435 161.526 123.733 157.888C121.031 154.25 119.005 150.347 117.713 146.21C116.421 142.073 115.569 138.17 115.187 134.503C114.806 130.835 114.6 127.842 114.6 125.524V72.2397H136.184V118.189C136.184 121.152 136.39 124.439 136.801 128.136C137.212 131.833 138.181 135.354 139.679 138.757C141.177 142.132 143.408 144.919 146.404 147.12C149.37 149.291 153.393 150.377 158.473 150.377C161.175 150.377 163.877 149.937 166.52 149.056C169.162 148.176 171.571 146.65 173.714 144.508C175.858 142.366 177.591 139.403 178.883 135.618C180.175 131.833 180.821 127.079 180.821 121.299L193.478 126.698C193.478 134.826 191.892 142.19 188.75 148.792C185.608 155.394 180.968 160.646 174.83 164.578C168.693 168.51 161.145 170.446 152.189 170.446ZM183.405 167.718V138.112H180.85V72.2691H202.258V167.718H183.405Z" fill="#121928"/>
<path d="M213.27 167.718V72.2693H232.094V101.875H234.737V167.718H213.27ZM270.858 167.718V110.003C270.858 103.342 269.242 98.1487 265.983 94.4516C262.752 90.7252 258.318 88.8767 252.709 88.8767C247.276 88.8767 242.93 90.7252 239.671 94.4516C236.411 98.1487 234.766 102.99 234.766 108.946L225.222 102.579C225.222 96.3882 226.749 90.8133 229.833 85.8839C232.887 80.9252 237.057 77.0227 242.255 74.1765C247.482 71.3304 253.326 69.8927 259.816 69.8927C266.952 69.8927 272.913 71.4184 277.729 74.4406C282.545 77.4628 286.128 81.5999 288.506 86.8228C290.885 92.0456 292.089 97.9139 292.089 104.457V167.718H270.858ZM328.18 167.718V109.739C328.18 103.195 326.565 98.09 323.306 94.393C320.046 90.6959 315.67 88.8767 310.12 88.8767C306.714 88.8767 303.63 89.6689 300.928 91.224C298.227 92.7791 296.054 95.0971 294.468 98.1193C292.882 101.142 292.089 104.751 292.089 108.946L282.633 103.372C282.574 96.7696 284.072 90.9599 287.097 85.9132C290.122 80.8664 294.233 76.9347 299.431 74.1179C304.629 71.3011 310.384 69.8633 316.757 69.8633C327.299 69.8633 335.404 73.0322 341.043 79.37C346.681 85.7078 349.5 94.0408 349.5 104.34V167.688H328.18V167.718Z" fill="#121928"/>
<path d="M407.998 170.358C398.336 170.358 389.849 168.275 382.537 164.079C375.225 159.912 369.528 154.103 365.417 146.679C361.305 139.256 359.279 130.717 359.279 121.035C359.279 110.618 361.276 101.552 365.299 93.8642C369.323 86.1767 374.873 80.2204 382.009 75.9658C389.145 71.7113 397.397 69.5986 406.764 69.5986C416.661 69.5986 425.089 71.9167 432.019 76.5233C438.95 81.1593 444.089 87.6731 447.466 96.0942C450.843 104.515 452.106 114.433 451.284 125.876H430.14V118.1C430.081 107.743 428.261 100.173 424.649 95.39C421.036 90.6073 415.398 88.2306 407.675 88.2306C398.953 88.2306 392.463 90.9301 388.234 96.3289C383.976 101.728 381.862 109.591 381.862 119.978C381.862 129.632 383.976 137.114 388.234 142.425C392.492 147.736 398.659 150.376 406.794 150.376C412.05 150.376 416.573 149.203 420.361 146.885C424.149 144.567 427.086 141.192 429.171 136.762L450.226 143.129C446.585 151.726 440.917 158.416 433.282 163.199C425.618 167.981 417.219 170.358 407.998 170.358ZM375.108 109.826H440.829V125.905H375.108V109.826Z" fill="#121928"/>
<path d="M461.063 167.718V72.2694H479.887V95.5081L477.596 92.5151C478.771 89.3462 480.356 86.4414 482.324 83.8007C484.291 81.1893 486.67 79.018 489.431 77.3162C491.78 75.7317 494.393 74.47 497.271 73.5605C500.12 72.6509 503.056 72.0933 506.081 71.888C509.077 71.6826 512.013 71.8293 514.832 72.2988V92.1924C512.013 91.3709 508.754 91.1067 505.053 91.4001C501.353 91.6936 498.064 92.7206 495.098 94.4811C492.162 96.0655 489.754 98.0901 487.904 100.584C486.053 103.049 484.673 105.866 483.792 109.035C482.911 112.203 482.471 115.578 482.471 119.245V167.747H461.063V167.718Z" fill="#121928"/>
<path d="M565.577 170.358C556.033 170.358 547.693 168.216 540.557 163.903C533.421 159.619 527.9 153.663 523.965 146.092C520.059 138.522 518.092 129.808 518.092 119.978C518.092 109.973 520.088 101.2 524.112 93.6295C528.105 86.0887 533.685 80.191 540.821 75.9658C547.957 71.7113 556.209 69.5986 565.577 69.5986C575.179 69.5986 583.549 71.7406 590.685 76.0538C597.821 80.3671 603.371 86.2941 607.306 93.8642C611.271 101.434 613.238 110.149 613.238 119.978C613.238 129.866 611.241 138.61 607.277 146.18C603.283 153.751 597.733 159.678 590.597 163.932C583.461 168.245 575.121 170.358 565.577 170.358ZM565.577 150.406C574.063 150.406 580.377 147.589 584.488 141.926C588.629 136.263 590.685 128.957 590.685 120.008C590.685 110.765 588.6 103.371 584.4 97.884C580.201 92.3678 573.946 89.6097 565.577 89.6097C559.85 89.6097 555.152 90.9007 551.481 93.4534C547.781 96.0061 545.079 99.5859 543.288 104.134C541.526 108.711 540.645 113.993 540.645 120.008C540.645 129.25 542.759 136.644 546.958 142.161C551.187 147.647 557.383 150.406 565.577 150.406Z" fill="#121928"/>
<path d="M661.458 170.446C654.38 170.446 648.537 169.273 643.955 166.896C639.345 164.549 635.704 161.526 633.002 157.888C630.3 154.25 628.274 150.347 626.982 146.21C625.69 142.073 624.838 138.17 624.456 134.503C624.074 130.835 623.869 127.842 623.869 125.524V72.2397H645.453V118.189C645.453 121.152 645.659 124.439 646.07 128.136C646.481 131.833 647.45 135.354 648.948 138.757C650.445 142.132 652.677 144.919 655.673 147.12C658.639 149.291 662.662 150.377 667.742 150.377C670.444 150.377 673.145 149.937 675.788 149.056C678.431 148.176 680.839 146.65 682.983 144.508C685.127 142.366 686.859 139.403 688.152 135.618C689.444 131.833 690.09 127.079 690.09 121.299L702.747 126.698C702.747 134.826 701.161 142.19 698.019 148.792C694.876 155.394 690.237 160.646 684.099 164.578C677.961 168.51 670.414 170.446 661.458 170.446ZM692.674 167.718V138.112H690.119V72.2691H711.527V167.718H692.674Z" fill="#121928"/>
<path d="M762.536 170.358C750.731 170.358 741.158 167.717 733.787 162.406C726.416 157.095 721.923 149.643 720.337 140.048L742.097 136.703C743.213 141.427 745.68 145.124 749.527 147.823C753.374 150.523 758.19 151.902 764.034 151.902C769.173 151.902 773.138 150.875 775.927 148.85C778.747 146.826 780.127 144.038 780.127 140.488C780.127 138.317 779.598 136.556 778.57 135.236C777.542 133.915 775.281 132.624 771.816 131.392C768.351 130.16 763.006 128.605 755.811 126.697C747.794 124.585 741.422 122.296 736.694 119.861C731.966 117.425 728.589 114.521 726.533 111.146C724.478 107.801 723.45 103.723 723.45 98.9696C723.45 93.0132 725.006 87.8197 728.148 83.4185C731.291 78.9879 735.637 75.5843 741.246 73.2076C746.855 70.8309 753.462 69.6279 761.068 69.6279C768.498 69.6279 775.076 70.7722 780.831 73.0609C786.587 75.3495 791.227 78.6358 794.751 82.8611C798.275 87.1156 800.478 92.0743 801.3 97.7959L779.539 101.698C779.011 97.6199 777.161 94.4216 774.018 92.0743C770.876 89.727 766.677 88.4066 761.42 88.1131C756.399 87.8197 752.376 88.5827 749.292 90.3725C746.238 92.1624 744.682 94.6857 744.682 97.9426C744.682 99.7618 745.298 101.317 746.532 102.637C747.765 103.928 750.261 105.219 754.02 106.54C757.75 107.831 763.359 109.415 770.788 111.322C778.394 113.259 784.473 115.489 789.054 117.983C793.606 120.477 796.924 123.47 798.95 126.962C800.977 130.424 802.005 134.649 802.005 139.608C802.005 149.203 798.51 156.743 791.521 162.23C784.532 167.629 774.87 170.358 762.536 170.358Z" fill="#121928"/>
</g>
</g>
<defs>
<clipPath id="clip0_31_1702">
<rect width="802" height="197" fill="white"/>
</clipPath>
</defs>
</svg>
