<svg version="1.1" xmlns="http://www.w3.org/2000/svg" viewBox="0 0 793.6848958333331 937.2550848967085" width="793.6848958333331" height="937.2550848967085">
  <!-- svg-source:excalidraw -->
  
  <defs>
    <style class="style-fonts">
      @font-face {
        font-family: "Virgil";
        src: url("https://excalidraw.com/Virgil.woff2");
      }
      @font-face {
        font-family: "Cascadia";
        src: url("https://excalidraw.com/Cascadia.woff2");
      }
    </style>
  </defs>
  <rect x="0" y="0" width="793.6848958333331" height="937.2550848967085" fill="#ffffff"></rect><g stroke-linecap="round"><g transform="translate(34.16666666666663 38.33333333333326) rotate(0 -6.246769192504303 444.55820556251956)"><path d="M-0.63 0.19 C-2.45 307.26, -5.23 613.96, -12.13 888.34 M-0.36 0.24 C-1.45 315.74, -5.3 630.63, -11.58 888.92" stroke="#000000" stroke-width="1" fill="none"></path></g></g><mask></mask><g stroke-linecap="round"><g transform="translate(247.01353206381293 40.97234751836413) rotate(0 -4.425958737048063 442.87435221212604)"><path d="M-0.12 0.25 C-3.04 302.93, -6.89 607.4, -9.03 885.22 M0.18 0.04 C-2.63 241.01, -4.91 482.27, -8 885.71" stroke="#000000" stroke-width="1" fill="none"></path></g></g><mask></mask><g stroke-linecap="round"><g transform="translate(444.25864524819156 39.66634029224349) rotate(0 -1.2219354497110544 442.97491306395574)"><path d="M0.63 -0.43 C-2.4 317.64, -4.35 634.54, -2.11 886.32 M0.2 0.25 C-0.09 205.87, -0.86 411.39, -2.7 886.38" stroke="#000000" stroke-width="1" fill="none"></path></g></g><mask></mask><g transform="translate(10 10) rotate(0 18.5 10.5)"><text x="0" y="15" font-family="Virgil, Segoe UI Emoji" font-size="16px" fill="#000000" text-anchor="start" style="white-space: pre;" direction="ltr">User</text></g><g transform="translate(222.33333333333314 10.333333333333371) rotate(0 32 10.5)"><text x="0" y="15" font-family="Virgil, Segoe UI Emoji" font-size="16px" fill="#000000" text-anchor="start" style="white-space: pre;" direction="ltr">Geovisio</text></g><g transform="translate(412.1666666666662 10.333333333333371) rotate(0 67.5 10.5)"><text x="0" y="15" font-family="Virgil, Segoe UI Emoji" font-size="16px" fill="#000000" text-anchor="start" style="white-space: pre;" direction="ltr">Identity Provider</text></g><g stroke-linecap="round"><g transform="translate(33.33333333333337 98.33333333333337) rotate(0 101.10433575144668 2.0217447759418405)"><path d="M-1.4 -1.08 C46.97 -0.52, 95.34 -0.44, 203.61 5.13 M0.41 -0.43 C72.25 0.09, 146.1 0.84, 203.29 3.71" stroke="#000000" stroke-width="1" fill="none"></path></g><g transform="translate(33.33333333333337 98.33333333333337) rotate(0 101.10433575144668 2.0217447759418405)"><path d="M173.17 11.7 C181.51 10.83, 189.82 7.74, 202.67 4.78 M175.19 12.43 C184.11 9.46, 195.26 5.35, 202.31 3.2" stroke="#000000" stroke-width="1" fill="none"></path></g><g transform="translate(33.33333333333337 98.33333333333337) rotate(0 101.10433575144668 2.0217447759418405)"><path d="M173.93 -8.8 C182.06 -4.97, 190.2 -3.36, 202.67 4.78 M175.95 -8.08 C184.57 -3.71, 195.45 -0.49, 202.31 3.2" stroke="#000000" stroke-width="1" fill="none"></path></g></g><mask></mask><g transform="translate(58.33333333333326 45.83333333333326) rotate(0 79.5 21)"><text x="0" y="15" font-family="Virgil, Segoe UI Emoji" font-size="16px" fill="#000000" text-anchor="start" style="white-space: pre;" direction="ltr">Hey, I want to use </text><text x="0" y="36" font-family="Virgil, Segoe UI Emoji" font-size="16px" fill="#000000" text-anchor="start" style="white-space: pre;" direction="ltr">this protected api</text></g><g transform="translate(32.5 135.0000000000001) rotate(0 110.00000000000006 10.5)"><text x="0" y="15" font-family="Virgil, Segoe UI Emoji" font-size="16px" fill="#000000" text-anchor="start" style="white-space: pre;" direction="ltr">I don't know you, login first</text></g><g stroke-linecap="round"><g transform="translate(32.943775883191165 393.0970971552738) rotate(0 202.07692538604482 3.027590821291028)"><path d="M0.24 0.03 C81.84 3.36, 164.24 4.37, 403.65 5.66 M-0.06 0.19 C149.41 3.43, 300.14 5.73, 404.22 6.02" stroke="#000000" stroke-width="1" fill="none"></path></g><g transform="translate(32.943775883191165 393.0970971552738) rotate(0 202.07692538604482 3.027590821291028)"><path d="M376.39 16.13 C381.92 14.78, 388.79 12.5, 403.4 6.01 M375.84 16.41 C385.71 12.13, 397.74 8.77, 404.41 6.66" stroke="#000000" stroke-width="1" fill="none"></path></g><g transform="translate(32.943775883191165 393.0970971552738) rotate(0 202.07692538604482 3.027590821291028)"><path d="M376.54 -4.39 C381.92 -1.59, 388.76 0.28, 403.4 6.01 M375.99 -4.11 C385.7 -0.78, 397.68 3.47, 404.41 6.66" stroke="#000000" stroke-width="1" fill="none"></path></g></g><mask></mask><g transform="translate(50.83333333333337 100.83333333333326) rotate(0 85.5 10.5)"><text x="0" y="15" font-family="Virgil, Segoe UI Emoji" font-size="16px" fill="#c92a2a" text-anchor="start" style="white-space: pre;" direction="ltr">/Some_protected_api</text></g><g stroke-linecap="round"><g transform="translate(241.66666666666663 170) rotate(0 -103.81554967284353 -2.386850214005449)"><path d="M-0.8 -0.58 C-41.91 -3.54, -81.68 -2.94, -206.83 -4.2" stroke="#2b8a3e" stroke-width="1.5" fill="none" stroke-dasharray="8 9"></path></g><g transform="translate(241.66666666666663 170) rotate(0 -103.81554967284353 -2.386850214005449)"><path d="M-179.46 -14.87 C-184.57 -14.3, -188.24 -10.86, -207.01 -5.17" stroke="#2b8a3e" stroke-width="1.5" fill="none"></path></g><g transform="translate(241.66666666666663 170) rotate(0 -103.81554967284353 -2.386850214005449)"><path d="M-179.63 5.65 C-184.81 2.09, -188.45 1.41, -207.01 -5.17" stroke="#2b8a3e" stroke-width="1.5" fill="none"></path></g></g><mask></mask><g transform="translate(76.66666666666663 170) rotate(0 41 10.5)"><text x="0" y="15" font-family="Virgil, Segoe UI Emoji" font-size="16px" fill="#c92a2a" text-anchor="start" style="white-space: pre;" direction="ltr">302 /api/auth/login</text></g><g stroke-linecap="round"><g transform="translate(35 222.5) rotate(0 102.87509184975937 1.0041692293013966)"><path d="M-0.14 -0.01 C66.79 1.67, 135.18 0.05, 206.17 1.2 M-0.42 -0.05 C77.28 2.46, 153.54 2.44, 205.85 1.39" stroke="#000000" stroke-width="1" fill="none"></path></g><g transform="translate(35 222.5) rotate(0 102.87509184975937 1.0041692293013966)"><path d="M177.62 11.97 C185.29 10.17, 194.61 4.2, 206.23 0.87 M177.31 11.92 C189.24 8.81, 199.48 4.16, 205.87 1.08" stroke="#000000" stroke-width="1" fill="none"></path></g><g transform="translate(35 222.5) rotate(0 102.87509184975937 1.0041692293013966)"><path d="M177.38 -8.55 C185.15 -3.54, 194.56 -2.68, 206.23 0.87 M177.06 -8.6 C188.98 -4.09, 199.32 -1.12, 205.87 1.08" stroke="#000000" stroke-width="1" fill="none"></path></g></g><mask></mask><g stroke-linecap="round"><g transform="translate(239.6488830061768 285.7201835473386) rotate(0 -104.00150243375708 -1.4588880065675767)"><path d="M-0.93 0.99 C-80.41 0.46, -164.13 -0.22, -207.07 -3.9" stroke="#2b8a3e" stroke-width="1.5" fill="none" stroke-dasharray="8 9"></path></g><g transform="translate(239.6488830061768 285.7201835473386) rotate(0 -104.00150243375708 -1.4588880065675767)"><path d="M-179.42 -11.54 C-188.06 -8.46, -201.59 -4.28, -207.52 -4.54" stroke="#2b8a3e" stroke-width="1.5" fill="none"></path></g><g transform="translate(239.6488830061768 285.7201835473386) rotate(0 -104.00150243375708 -1.4588880065675767)"><path d="M-180.51 8.95 C-188.91 3.92, -202.01 -0.01, -207.52 -4.54" stroke="#2b8a3e" stroke-width="1.5" fill="none"></path></g></g><mask></mask><g transform="translate(36.833333333333144 243.16666666666663) rotate(0 99 21)"><text x="0" y="15" font-family="Virgil, Segoe UI Emoji" font-size="16px" fill="#000000" text-anchor="start" style="white-space: pre;" direction="ltr">I don't know you, sign in </text><text x="0" y="36" font-family="Virgil, Segoe UI Emoji" font-size="16px" fill="#000000" text-anchor="start" style="white-space: pre;" direction="ltr">to the identity provider</text></g><g transform="translate(47.5 296.66666666666674) rotate(0 96.00000000000006 10.5)"><text x="0" y="15" font-family="Virgil, Segoe UI Emoji" font-size="16px" fill="#c92a2a" text-anchor="start" style="white-space: pre;" direction="ltr">302 OAuth2 /authorize</text></g><g transform="translate(46.66666666666663 197.5) rotate(0 49.5 10.5)"><text x="0" y="15" font-family="Virgil, Segoe UI Emoji" font-size="16px" fill="#000000" text-anchor="start" style="white-space: pre;" direction="ltr">Ok, log me in</text></g><g transform="translate(65 220.83333333333326) rotate(0 42.5 10.5)"><text x="0" y="15" font-family="Virgil, Segoe UI Emoji" font-size="16px" fill="#c92a2a" text-anchor="start" style="white-space: pre;" direction="ltr">GET /api/auth/login</text></g><g transform="translate(99.66666666666663 350.6666666666665) rotate(0 150.5 21)"><text x="0" y="15" font-family="Virgil, Segoe UI Emoji" font-size="16px" fill="#000000" text-anchor="start" style="white-space: pre;" direction="ltr">Hey, I want to login in on your system</text><text x="0" y="36" font-family="Virgil, Segoe UI Emoji" font-size="16px" fill="#000000" text-anchor="start" style="white-space: pre;" direction="ltr"> to log in geovisio</text></g><g stroke-linecap="round" transform="translate(467.49999999999966 341.6666666666663) rotate(0 158.09244791666674 55.416666666666856)"><path d="M6.72 7.17 C6.72 7.17, 6.72 7.17, 6.72 7.17 M6.72 7.17 C6.72 7.17, 6.72 7.17, 6.72 7.17 M1.21 19.6 C9.74 9.93, 13.04 7.16, 16.3 2.24 M1.21 19.6 C6.6 12.75, 12.74 6.82, 16.3 2.24 M2.92 23.74 C10.97 21.28, 17.32 11.06, 22.6 1.09 M2.92 23.74 C11.35 15.15, 16.69 6.19, 22.6 1.09 M3.31 29.38 C8.27 21.9, 22.07 9.21, 28.24 0.7 M3.31 29.38 C12.56 19.76, 20.4 9.87, 28.24 0.7 M3.05 35.78 C14.93 26.68, 25.03 8.04, 33.88 0.3 M3.05 35.78 C11.17 27.96, 17.05 19.04, 33.88 0.3 M2.79 42.17 C10.79 32.66, 22.68 22.1, 38.87 0.66 M2.79 42.17 C18.55 27.07, 29.65 10.48, 38.87 0.66 M3.18 47.82 C18.52 36.11, 32.47 15.01, 44.51 0.27 M3.18 47.82 C14.08 34.96, 24.24 23.92, 44.51 0.27 M2.92 54.21 C15.79 36.93, 33.62 16.03, 49.5 0.63 M2.92 54.21 C19.05 34.54, 38.2 15.8, 49.5 0.63 M3.32 59.86 C16.93 38.63, 35.9 24.22, 55.14 0.24 M3.32 59.86 C14.98 47.38, 28.51 31.08, 55.14 0.24 M3.05 66.26 C20.5 40.61, 38.79 23.64, 60.13 0.6 M3.05 66.26 C15.94 51.18, 26.1 39.17, 60.13 0.6 M2.79 72.65 C23.38 54.81, 42.4 34.97, 65.77 0.2 M2.79 72.65 C20.32 52.7, 33.64 36.07, 65.77 0.2 M3.19 78.3 C21.86 54.18, 36.69 34.62, 70.76 0.56 M3.19 78.3 C23.42 57.28, 40.31 39.08, 70.76 0.56 M2.93 84.69 C27.21 62.1, 47.1 39.1, 75.75 0.92 M2.93 84.69 C23.99 62.27, 42.57 39.02, 75.75 0.92 M2.66 91.09 C22.28 68.33, 48.59 40.4, 81.39 0.53 M2.66 91.09 C28.35 62.29, 57.48 30.07, 81.39 0.53 M4.37 95.23 C27.52 71.01, 46.2 38.72, 86.38 0.89 M4.37 95.23 C32.65 62.01, 61.1 32.08, 86.38 0.89 M6.08 99.36 C36.56 60.08, 71.47 23.25, 92.02 0.49 M6.08 99.36 C27.87 72.1, 53.1 48.12, 92.02 0.49 M7.13 104.25 C32.43 72.88, 57.05 44.19, 97.01 0.85 M7.13 104.25 C25.15 81.49, 42.78 63.09, 97.01 0.85 M10.8 106.12 C45.68 64.13, 85.37 26.01, 102.65 0.46 M10.8 106.12 C34.56 76.58, 62.95 46.04, 102.65 0.46 M14.48 107.99 C44.82 75.09, 71.57 47.17, 107.64 0.82 M14.48 107.99 C39.8 82, 61.66 54.32, 107.64 0.82 M17.5 110.61 C45.53 82.11, 67.43 58.43, 113.28 0.42 M17.5 110.61 C44.49 78.78, 75.16 46.12, 113.28 0.42 M21.83 111.73 C45.83 85.04, 75.29 55.05, 118.27 0.78 M21.83 111.73 C42.45 87.58, 62.88 63.71, 118.27 0.78 M28.13 110.58 C55.21 83.18, 72.94 62.51, 123.91 0.39 M28.13 110.58 C55.8 79.07, 80.59 46.4, 123.91 0.39 M33.11 110.94 C64.33 78.64, 90.82 44.79, 128.9 0.75 M33.11 110.94 C56.51 82.08, 85.41 51.04, 128.9 0.75 M38.1 111.3 C71.71 69.2, 103.41 31.23, 134.54 0.35 M38.1 111.3 C75.66 70.42, 110.13 27.57, 134.54 0.35 M43.74 110.9 C62.02 85.55, 83.26 58.25, 139.53 0.71 M43.74 110.9 C76.51 74.75, 107.28 41.03, 139.53 0.71 M48.73 111.26 C79.08 70.85, 117.48 37.19, 145.17 0.32 M48.73 111.26 C86.79 69.43, 125.35 23.6, 145.17 0.32 M54.37 110.87 C88.73 78.53, 118.06 36.6, 150.16 0.68 M54.37 110.87 C82.72 75.36, 113.53 41.33, 150.16 0.68 M59.36 111.23 C88.5 70.3, 124.86 34.8, 155.8 0.29 M59.36 111.23 C96.74 66.64, 130.09 26.19, 155.8 0.29 M65 110.83 C95.8 75.11, 134.6 33.44, 160.79 0.65 M65 110.83 C92.09 79.92, 122.03 47.73, 160.79 0.65 M69.99 111.19 C100.94 72.1, 132.17 35.34, 166.43 0.25 M69.99 111.19 C89.35 85.26, 112.28 61.55, 166.43 0.25 M75.63 110.8 C93.88 85.03, 114.89 61.25, 171.42 0.61 M75.63 110.8 C111.28 65.91, 150.8 22.5, 171.42 0.61 M80.62 111.16 C110.92 78.76, 140.57 39.27, 177.06 0.22 M80.62 111.16 C100.23 87.14, 123.91 64.71, 177.06 0.22 M86.26 110.76 C107.37 91.1, 122.79 63.18, 182.05 0.58 M86.26 110.76 C109.87 78.76, 135.31 51.98, 182.05 0.58 M91.25 111.12 C131.07 66.31, 163.62 24.97, 187.04 0.94 M91.25 111.12 C126.17 70.19, 162.55 30.89, 187.04 0.94 M96.89 110.73 C121.71 87.42, 140.98 66.48, 192.68 0.54 M96.89 110.73 C132.2 72.52, 168.9 32.04, 192.68 0.54 M101.88 111.09 C120.98 87.62, 149.15 66.24, 197.67 0.9 M101.88 111.09 C141.74 71.85, 178.63 26.79, 197.67 0.9 M107.52 110.7 C138.16 75.05, 176.91 37.02, 203.31 0.51 M107.52 110.7 C138.79 74.11, 173.29 35.65, 203.31 0.51 M112.51 111.06 C149.71 69.62, 184.93 27.69, 208.3 0.87 M112.51 111.06 C148.53 72.16, 179.55 35.71, 208.3 0.87 M118.15 110.66 C137.79 81.67, 159.67 56.05, 213.94 0.47 M118.15 110.66 C143.81 82.82, 168.63 57.07, 213.94 0.47 M123.14 111.02 C160.3 66.61, 194.13 26.48, 218.93 0.83 M123.14 111.02 C149.55 77.22, 179.91 45.41, 218.93 0.83 M128.79 110.63 C159.77 64.28, 198.83 23.73, 224.57 0.44 M128.79 110.63 C151.8 80.28, 177.45 54.96, 224.57 0.44 M133.77 110.99 C160.33 82.34, 189.27 49.26, 229.56 0.8 M133.77 110.99 C167.66 72.63, 201.39 34.64, 229.56 0.8 M139.42 110.59 C176.78 70.45, 208.97 23.61, 235.2 0.4 M139.42 110.59 C161.14 84.98, 180.23 65.92, 235.2 0.4 M144.4 110.95 C180.87 68.26, 210.54 31.64, 240.19 0.76 M144.4 110.95 C163.85 86.79, 183.19 63.62, 240.19 0.76 M150.05 110.56 C184.87 77.63, 212.16 42.78, 245.83 0.37 M150.05 110.56 C176.11 83.53, 198.57 54.69, 245.83 0.37 M155.03 110.92 C181.76 78.62, 211.86 50.26, 250.82 0.73 M155.03 110.92 C181.3 81.32, 207.31 51.17, 250.82 0.73 M160.02 111.28 C177.3 89.93, 199.92 67.53, 256.46 0.33 M160.02 111.28 C200.8 70.02, 237.39 24.25, 256.46 0.33 M165.66 110.88 C197.06 72.31, 231.88 27.53, 261.45 0.7 M165.66 110.88 C197.72 74.67, 226.55 41.65, 261.45 0.7 M170.65 111.24 C193.95 84.93, 218.94 53.69, 267.09 0.3 M170.65 111.24 C205.27 71.55, 240.51 29.59, 267.09 0.3 M176.29 110.85 C194.42 84.4, 216.69 62.34, 272.08 0.66 M176.29 110.85 C214.28 70.6, 251.51 26.16, 272.08 0.66 M181.28 111.21 C204.9 85.04, 236.26 50.39, 277.72 0.27 M181.28 111.21 C212.17 73.28, 245.91 35.82, 277.72 0.27 M186.92 110.81 C207.29 84.38, 231.78 59.09, 282.71 0.63 M186.92 110.81 C218.65 69.78, 253.81 29.36, 282.71 0.63 M191.91 111.17 C212.58 87.28, 236.12 61.08, 288.35 0.23 M191.91 111.17 C213.67 85.97, 234.44 60.1, 288.35 0.23 M197.55 110.78 C221.05 80.87, 247.63 55.61, 293.34 0.59 M197.55 110.78 C232.72 69.86, 269.65 30.33, 293.34 0.59 M202.54 111.14 C232.37 73.62, 262.67 33.25, 297.67 1.71 M202.54 111.14 C234.2 69.89, 271.77 30.34, 297.67 1.71 M208.18 110.74 C244.62 66.92, 277.62 28.17, 302 2.82 M208.18 110.74 C239.83 78.3, 270.55 39.33, 302 2.82 M213.17 111.1 C247.49 67.57, 279.16 33.87, 305.02 5.45 M213.17 111.1 C235.45 84.94, 257.39 61.88, 305.02 5.45 M218.81 110.71 C247.26 76.3, 284.35 33.24, 308.04 8.07 M218.81 110.71 C244.05 85.18, 264.91 55.71, 308.04 8.07 M223.8 111.07 C251.08 79.13, 276.06 56.81, 311.71 9.94 M223.8 111.07 C255.75 78.59, 284.77 41.54, 311.71 9.94 M229.44 110.68 C259.52 78.16, 284.5 48.08, 314.73 12.56 M229.44 110.68 C261.11 77.04, 288.85 44.62, 314.73 12.56 M234.43 111.04 C267.44 69.37, 297.99 34.47, 315.78 17.45 M234.43 111.04 C263.4 81.8, 291.03 46.17, 315.78 17.45 M240.07 110.64 C262.44 89.21, 289.28 63.57, 316.83 22.34 M240.07 110.64 C262.45 88.74, 281.8 63.1, 316.83 22.34 M245.06 111 C267.67 86.29, 281.33 68.22, 317.23 27.98 M245.06 111 C267.2 83.08, 289.98 55.75, 317.23 27.98 M250.7 110.61 C273.2 90.43, 292.85 63.91, 316.96 34.38 M250.7 110.61 C271.01 91.71, 289.85 69.7, 316.96 34.38 M255.69 110.97 C274.61 93.87, 286.41 76.61, 317.36 40.02 M255.69 110.97 C276.07 91.76, 296.73 66.8, 317.36 40.02 M261.33 110.57 C277.22 89.96, 291.97 75.26, 317.1 46.42 M261.33 110.57 C280.44 88.06, 300.65 63.09, 317.1 46.42 M266.32 110.93 C280.1 98.01, 290.71 85.65, 316.84 52.82 M266.32 110.93 C284.71 90.4, 299.88 69.27, 316.84 52.82 M271.31 111.29 C286.9 94.65, 300.33 82.72, 317.23 58.46 M271.31 111.29 C282.48 100.16, 290.69 84.65, 317.23 58.46 M276.95 110.9 C287.09 97.71, 306.96 80.21, 316.97 64.86 M276.95 110.9 C284.92 101.92, 295.24 89.27, 316.97 64.86 M281.94 111.26 C294.75 93.28, 305.17 85.22, 317.36 70.5 M281.94 111.26 C294.89 98.5, 303.94 85.29, 317.36 70.5 M287.58 110.86 C292.04 101.67, 299.79 91.39, 317.1 76.9 M287.58 110.86 C296.25 102.02, 302.34 94.59, 317.1 76.9 M291.26 112.73 C294.49 108.33, 300.83 102.04, 316.84 83.3 M291.26 112.73 C299.59 103.15, 306.35 97.2, 316.84 83.3 M297.55 111.58 C301.84 105.18, 304.28 104.96, 315.92 90.45 M297.55 111.58 C299.86 107.4, 306.68 99.86, 315.92 90.45" stroke="#82c91e" stroke-width="0.5" fill="none"></path><path d="M27.71 0 M27.71 0 C124.51 -3.19, 212.79 -5.73, 288.48 0 M27.71 0 C107.67 -1.22, 188.88 -1.69, 288.48 0 M288.48 0 C310.53 0.79, 314.83 5.55, 316.18 27.71 M288.48 0 C304.02 -3.95, 319.87 9.65, 316.18 27.71 M316.18 27.71 C318.05 42.24, 314.47 60.7, 316.18 83.13 M316.18 27.71 C316.41 44.05, 315.44 65.18, 316.18 83.13 M316.18 83.13 C312.28 99.04, 306.91 108.48, 288.48 110.83 M316.18 83.13 C313.44 101.56, 310.74 109.5, 288.48 110.83 M288.48 110.83 C195.52 106.78, 100.35 107.04, 27.71 110.83 M288.48 110.83 C188.39 109.28, 90.07 111.22, 27.71 110.83 M27.71 110.83 C5.47 109.03, -3.64 100.62, 0 83.13 M27.71 110.83 C8.64 115.12, 0.91 99.87, 0 83.13 M0 83.13 C4.45 63.51, 2.99 48.85, 0 27.71 M0 83.13 C-1.13 71.65, -2.1 56.21, 0 27.71 M0 27.71 C-1.26 8.74, 6.03 3.86, 27.71 0 M0 27.71 C3.3 13.39, 8.07 0.92, 27.71 0" stroke="#000000" stroke-width="1" fill="none"></path></g><g transform="translate(484.51822916666663 354.9999999999998) rotate(0 144.5 42)"><text x="0" y="15" font-family="Virgil, Segoe UI Emoji" font-size="16px" fill="#000000" text-anchor="start" style="white-space: pre;" direction="ltr">Here, the user can login, </text><text x="0" y="36" font-family="Virgil, Segoe UI Emoji" font-size="16px" fill="#000000" text-anchor="start" style="white-space: pre;" direction="ltr">or create an account if </text><text x="0" y="57" font-family="Virgil, Segoe UI Emoji" font-size="16px" fill="#000000" text-anchor="start" style="white-space: pre;" direction="ltr">the provider is ok with it.</text><text x="0" y="78" font-family="Virgil, Segoe UI Emoji" font-size="16px" fill="#000000" text-anchor="start" style="white-space: pre;" direction="ltr">If login in fail, the query stops here</text></g><g stroke-linecap="round"><g transform="translate(433.68489583333314 461.6666666666665) rotate(0 -95 -2.4999999999998863)"><path d="M0 0 C-31.67 -0.83, -158.33 -4.17, -190 -5 M0 0 C-31.67 -0.83, -158.33 -4.17, -190 -5" stroke="#000000" stroke-width="1" fill="none"></path></g><g transform="translate(433.68489583333314 461.6666666666665) rotate(0 -95 -2.4999999999998863)"><path d="M-161.55 -14.52 C-169.52 -11.85, -177.48 -9.19, -190 -5 M-161.55 -14.52 C-170.41 -11.55, -179.26 -8.59, -190 -5" stroke="#000000" stroke-width="1" fill="none"></path></g><g transform="translate(433.68489583333314 461.6666666666665) rotate(0 -95 -2.4999999999998863)"><path d="M-162.09 6 C-169.91 2.92, -177.72 -0.16, -190 -5 M-162.09 6 C-170.78 2.57, -179.47 -0.85, -190 -5" stroke="#000000" stroke-width="1" fill="none"></path></g></g><mask></mask><g transform="translate(79.51822916666663 410) rotate(0 172 21)"><text x="0" y="15" font-family="Virgil, Segoe UI Emoji" font-size="16px" fill="#000000" text-anchor="start" style="white-space: pre;" direction="ltr">Ok, I know this person, here is a temporary</text><text x="0" y="36" font-family="Virgil, Segoe UI Emoji" font-size="16px" fill="#000000" text-anchor="start" style="white-space: pre;" direction="ltr">access token to query me on his behalf</text></g><g stroke-linecap="round"><g transform="translate(247.8515625000001 544.9999999999998) rotate(0 97.08333333333326 0.8333333333333712)"><path d="M0 0 C32.36 0.28, 161.81 1.39, 194.17 1.67 M0 0 C32.36 0.28, 161.81 1.39, 194.17 1.67" stroke="#000000" stroke-width="1" fill="none"></path></g><g transform="translate(247.8515625000001 544.9999999999998) rotate(0 97.08333333333326 0.8333333333333712)"><path d="M165.89 11.68 C176.78 7.83, 187.68 3.97, 194.17 1.67 M165.89 11.68 C174.39 8.67, 182.89 5.66, 194.17 1.67" stroke="#000000" stroke-width="1" fill="none"></path></g><g transform="translate(247.8515625000001 544.9999999999998) rotate(0 97.08333333333326 0.8333333333333712)"><path d="M166.06 -8.84 C176.89 -4.79, 187.72 -0.74, 194.17 1.67 M166.06 -8.84 C174.51 -5.68, 182.96 -2.52, 194.17 1.67" stroke="#000000" stroke-width="1" fill="none"></path></g></g><mask></mask><g transform="translate(253.68489583333314 486.6666666666665) rotate(0 101 31.5)"><text x="0" y="15" font-family="Virgil, Segoe UI Emoji" font-size="16px" fill="#000000" text-anchor="start" style="white-space: pre;" direction="ltr">here is an access token, </text><text x="0" y="36" font-family="Virgil, Segoe UI Emoji" font-size="16px" fill="#000000" text-anchor="start" style="white-space: pre;" direction="ltr">can you give me this </text><text x="0" y="57" font-family="Virgil, Segoe UI Emoji" font-size="16px" fill="#000000" text-anchor="start" style="white-space: pre;" direction="ltr">user ID and name?</text></g><g stroke-linecap="round"><g transform="translate(440.3515624999999 576.9166666666665) rotate(0 -98.74999999999989 -2.9166666666666288)"><path d="M0 0 C-32.92 -0.97, -164.58 -4.86, -197.5 -5.83" stroke="#2b8a3e" stroke-width="1.5" fill="none" stroke-dasharray="1.5 7"></path></g><g transform="translate(440.3515624999999 576.9166666666665) rotate(0 -98.74999999999989 -2.9166666666666288)"><path d="M-169.02 -15.26 C-175.8 -13.01, -182.57 -10.77, -197.5 -5.83" stroke="#2b8a3e" stroke-width="1.5" fill="none" stroke-dasharray="1.5 5"></path></g><g transform="translate(440.3515624999999 576.9166666666665) rotate(0 -98.74999999999989 -2.9166666666666288)"><path d="M-169.62 5.26 C-176.26 2.62, -182.89 -0.02, -197.5 -5.83" stroke="#2b8a3e" stroke-width="1.5" fill="none" stroke-dasharray="1.5 5"></path></g></g><mask></mask><g transform="translate(323.68489583333314 550.6666666666665) rotate(0 24 10.5)"><text x="0" y="15" font-family="Virgil, Segoe UI Emoji" font-size="16px" fill="#000000" text-anchor="start" style="white-space: pre;" direction="ltr">Sure !</text></g><g stroke-linecap="round" transform="translate(136.42578124999977 596.7773437499998) rotate(0 101.84244791666669 52.916666666666856)"><path d="M3.96 10.06 C3.96 10.06, 3.96 10.06, 3.96 10.06 M3.96 10.06 C3.96 10.06, 3.96 10.06, 3.96 10.06 M0.41 20.24 C7.36 13.79, 4.32 9.58, 12.88 5.9 M0.41 20.24 C4.53 16.97, 7.29 11.16, 12.88 5.9 M3.43 22.86 C3.69 19.44, 9.76 14.53, 19.18 4.75 M3.43 22.86 C5.41 18.55, 11.89 13.51, 19.18 4.75 M3.17 29.26 C15.69 17.38, 24.2 11.82, 27.45 1.33 M3.17 29.26 C9 20.29, 20 12.64, 27.45 1.33 M3.57 34.9 C15.44 24.3, 27.31 9.13, 33.09 0.94 M3.57 34.9 C13.64 21.94, 25.43 10.14, 33.09 0.94 M3.31 41.3 C9.44 33.43, 17.27 23.35, 38.08 1.3 M3.31 41.3 C14.02 28.78, 26.12 15.98, 38.08 1.3 M3.7 46.94 C17.4 33.78, 30.14 19.38, 43.72 0.9 M3.7 46.94 C16.1 35.41, 25.01 22.29, 43.72 0.9 M3.44 53.34 C16.99 43.12, 27.89 28.01, 48.71 1.26 M3.44 53.34 C18.65 38.73, 32.8 23.09, 48.71 1.26 M3.18 59.74 C14.06 42.86, 31.75 27.42, 54.35 0.87 M3.18 59.74 C20.17 40.71, 39.47 18.02, 54.35 0.87 M3.57 65.38 C12.83 49.4, 25.54 39.01, 59.34 1.23 M3.57 65.38 C25.79 40.63, 49.76 14.3, 59.34 1.23 M3.31 71.78 C26.92 43.88, 48.78 17.45, 64.98 0.84 M3.31 71.78 C17.64 55.46, 32.44 39.18, 64.98 0.84 M3.7 77.42 C28.66 51.61, 46.12 22.43, 69.97 1.2 M3.7 77.42 C30.84 45.99, 56.3 16.65, 69.97 1.2 M1.47 86.08 C31.9 49.5, 57.84 23.51, 75.61 0.8 M1.47 86.08 C17.52 67.25, 33.44 48.48, 75.61 0.8 M2.53 90.97 C22.4 74.1, 34 56.55, 80.6 1.16 M2.53 90.97 C32.98 57.16, 63.62 21.23, 80.6 1.16 M3.58 95.86 C24.23 74.29, 43.32 53.86, 86.24 0.77 M3.58 95.86 C22.64 72.64, 43.99 49.87, 86.24 0.77 M6.6 98.48 C36.61 62.24, 67.56 25.7, 91.23 1.13 M6.6 98.48 C36.1 66.54, 62.39 32.31, 91.23 1.13 M9.61 101.11 C32.37 74.4, 60.97 44.44, 96.87 0.73 M9.61 101.11 C32.49 72.94, 54.94 47.83, 96.87 0.73 M12.63 103.73 C43.09 68.63, 79.47 22.83, 101.86 1.09 M12.63 103.73 C45.03 67.09, 78.1 26.6, 101.86 1.09 M16.96 104.85 C51.38 69.29, 79.58 32.35, 107.5 0.7 M16.96 104.85 C41.46 77.83, 62.05 52.09, 107.5 0.7 M21.29 105.96 C54.22 62.47, 93.31 25.05, 112.49 1.06 M21.29 105.96 C56.61 64.46, 91.98 24.09, 112.49 1.06 M26.28 106.32 C54.39 73.95, 84.08 34.41, 117.47 1.42 M26.28 106.32 C48 79.37, 74.26 53.9, 117.47 1.42 M31.92 105.93 C62.32 70.09, 102.06 23.04, 123.12 1.02 M31.92 105.93 C54.97 78.14, 77.42 54.61, 123.12 1.02 M36.91 106.29 C54.97 83.37, 79.26 58.52, 128.1 1.38 M36.91 106.29 C69.41 68.87, 103.09 26.78, 128.1 1.38 M42.55 105.89 C65.06 85.03, 85.16 58.31, 133.75 0.99 M42.55 105.89 C61.99 79.77, 85 54.65, 133.75 0.99 M47.54 106.25 C70.54 79.85, 100.8 46.34, 138.73 1.35 M47.54 106.25 C70.92 79.02, 96.87 54.44, 138.73 1.35 M53.18 105.86 C79.11 83.11, 98.33 51.46, 144.38 0.95 M53.18 105.86 C74.27 81.19, 95.94 59.47, 144.38 0.95 M58.17 106.22 C95.42 67.19, 126.68 23.93, 149.36 1.31 M58.17 106.22 C84.32 74.8, 111.9 46.11, 149.36 1.31 M63.82 105.82 C94.94 64.42, 131.06 25.71, 155.01 0.92 M63.82 105.82 C88.18 75.04, 115.74 49.32, 155.01 0.92 M68.8 106.18 C87.19 80.35, 104.91 60.61, 159.99 1.28 M68.8 106.18 C88.84 82.35, 106.92 61.57, 159.99 1.28 M74.45 105.79 C106.06 71.38, 131.24 37.49, 165.64 0.88 M74.45 105.79 C105.4 68.57, 140.41 26.83, 165.64 0.88 M79.43 106.15 C113.87 71.52, 145.02 31.69, 170.62 1.25 M79.43 106.15 C106.73 77.69, 130.98 52.54, 170.62 1.25 M85.08 105.76 C110.4 73.77, 134.28 44.04, 176.27 0.85 M85.08 105.76 C116.11 68.11, 150.46 31.9, 176.27 0.85 M90.06 106.12 C116.97 72.15, 147.39 36.26, 179.94 2.72 M90.06 106.12 C117.11 78.11, 138.92 48.84, 179.94 2.72 M95.71 105.72 C114.89 82.07, 137.15 63.81, 184.27 3.83 M95.71 105.72 C116.79 79.43, 139.49 55.32, 184.27 3.83 M100.69 106.08 C120.98 76.65, 151.07 49.86, 189.26 4.19 M100.69 106.08 C132.89 70.82, 160.96 36.61, 189.26 4.19 M106.34 105.69 C133.68 72.45, 162.11 42.05, 194.25 4.55 M106.34 105.69 C143.86 69.16, 176.95 26.68, 194.25 4.55 M111.32 106.05 C140.08 73.56, 170.31 38.29, 197.27 7.18 M111.32 106.05 C141.86 67.55, 173.22 34.49, 197.27 7.18 M116.97 105.65 C142.12 73.47, 165.78 51.16, 199.63 10.56 M116.97 105.65 C152.2 67.41, 185.07 32.87, 199.63 10.56 M121.95 106.01 C148.4 74.58, 176.22 48.38, 202.65 13.18 M121.95 106.01 C147.16 75.05, 170.3 43.76, 202.65 13.18 M127.6 105.62 C153.32 74.89, 186.77 41, 204.35 17.32 M127.6 105.62 C144.55 84.92, 161.65 66.97, 204.35 17.32 M132.58 105.98 C153.17 80.29, 177.64 50, 205.41 22.2 M132.58 105.98 C161.63 75.1, 186.72 44.27, 205.41 22.2 M138.23 105.58 C157.91 79.86, 186.98 49.83, 205.8 27.85 M138.23 105.58 C153.12 87.59, 168.06 71.64, 205.8 27.85 M143.21 105.94 C168.56 80.91, 182.04 60.56, 205.54 34.25 M143.21 105.94 C168.38 78.86, 192.72 47.6, 205.54 34.25 M148.2 106.3 C160.41 92.95, 175.14 74.21, 205.28 40.64 M148.2 106.3 C166.31 87.16, 181.78 68.15, 205.28 40.64 M153.84 105.91 C177.86 81.7, 191.67 62.84, 205.67 46.29 M153.84 105.91 C162.84 91.74, 175.85 81.74, 205.67 46.29 M158.83 106.27 C172.55 88.25, 188.72 72.92, 205.41 52.68 M158.83 106.27 C175.39 87.6, 195.79 65.71, 205.41 52.68 M164.47 105.87 C175.46 90.25, 192.56 70.13, 205.8 58.33 M164.47 105.87 C177.72 89.84, 190.23 74.89, 205.8 58.33 M169.46 106.23 C181.92 89.84, 192.27 83.55, 205.54 64.72 M169.46 106.23 C176.11 97.61, 184.8 89.26, 205.54 64.72 M175.1 105.84 C186.52 92.79, 189.98 84.26, 205.94 70.37 M175.1 105.84 C183.18 96.08, 193.14 84.34, 205.94 70.37 M178.78 107.71 C187 104.44, 187.28 97.87, 205.68 76.77 M178.78 107.71 C184.97 102.95, 189.75 94.81, 205.68 76.77 M185.08 106.56 C191.21 104.84, 197.03 100.34, 206.73 81.65 M185.08 106.56 C191.66 101.47, 198.04 92.4, 206.73 81.65" stroke="#82c91e" stroke-width="0.5" fill="none"></path><path d="M26.46 0 M26.46 0 C58.21 3.69, 85.37 5.4, 177.23 0 M26.46 0 C76.36 -1.12, 128.32 0.18, 177.23 0 M177.23 0 C191.92 1.2, 200.68 5.34, 203.68 26.46 M177.23 0 C191.68 -0.47, 202.37 6.22, 203.68 26.46 M203.68 26.46 C204.6 44.14, 207.73 64.06, 203.68 79.38 M203.68 26.46 C203.29 39.38, 205.17 51.4, 203.68 79.38 M203.68 79.38 C200.24 96.84, 190.94 102, 177.23 105.83 M203.68 79.38 C199.13 92.79, 190.28 107.97, 177.23 105.83 M177.23 105.83 C144.65 106.5, 109.26 104.62, 26.46 105.83 M177.23 105.83 C120.66 106.76, 61.42 105.94, 26.46 105.83 M26.46 105.83 C9.62 108.04, 0.55 98.26, 0 79.38 M26.46 105.83 C5.62 102.85, 3.11 95.42, 0 79.38 M0 79.38 C-0.09 60.77, -0.88 38.24, 0 26.46 M0 79.38 C0.18 63.24, -2.7 48.14, 0 26.46 M0 26.46 C-0.23 8.72, 7.82 -0.12, 26.46 0 M0 26.46 C0.66 9.88, 7.2 -2.96, 26.46 0" stroke="#000000" stroke-width="1" fill="none"></path></g><g transform="translate(149.27734375000023 605.1106770833328) rotate(0 90.49999999999994 42)"><text x="0" y="15" font-family="Virgil, Segoe UI Emoji" font-size="16px" fill="#000000" text-anchor="start" style="white-space: pre;" direction="ltr">Create an account or </text><text x="0" y="36" font-family="Virgil, Segoe UI Emoji" font-size="16px" fill="#000000" text-anchor="start" style="white-space: pre;" direction="ltr">get an existing one </text><text x="0" y="57" font-family="Virgil, Segoe UI Emoji" font-size="16px" fill="#000000" text-anchor="start" style="white-space: pre;" direction="ltr">and return all this </text><text x="0" y="78" font-family="Virgil, Segoe UI Emoji" font-size="16px" fill="#000000" text-anchor="start" style="white-space: pre;" direction="ltr">in a signed cookie</text></g><g transform="translate(300.3515624999999 459.12109375) rotate(0 60 10.5)"><text x="0" y="15" font-family="Virgil, Segoe UI Emoji" font-size="16px" fill="#c92a2a" text-anchor="start" style="white-space: pre;" direction="ltr">/api/auth/redirect</text></g><g stroke-linecap="round"><g transform="translate(237.26734772886005 759.1063100937229) rotate(0 -104.97390958610248 1.3187129848878385)"><path d="M0 0 C-34.99 0.44, -174.96 2.2, -209.95 2.64" stroke="#2b8a3e" stroke-width="1.5" fill="none" stroke-dasharray="8 9"></path></g><g transform="translate(237.26734772886005 759.1063100937229) rotate(0 -104.97390958610248 1.3187129848878385)"><path d="M-181.89 -7.98 C-190.13 -4.86, -198.38 -1.74, -209.95 2.64" stroke="#2b8a3e" stroke-width="1.5" fill="none"></path></g><g transform="translate(237.26734772886005 759.1063100937229) rotate(0 -104.97390958610248 1.3187129848878385)"><path d="M-181.63 12.54 C-189.95 9.63, -198.27 6.72, -209.95 2.64" stroke="#2b8a3e" stroke-width="1.5" fill="none"></path></g></g><mask></mask><g transform="translate(25.3515625 713.4960937499998) rotate(0 238.00000000000006 21)"><text x="0" y="15" font-family="Virgil, Segoe UI Emoji" font-size="16px" fill="#000000" text-anchor="start" style="white-space: pre;" direction="ltr">Ok, you are logged in Here is a signed cookie that </text><text x="0" y="36" font-family="Virgil, Segoe UI Emoji" font-size="16px" fill="#000000" text-anchor="start" style="white-space: pre;" direction="ltr">you can give me back later so we know directly who you are</text></g><g transform="translate(26.445312499999886 771.5481770833333) rotate(0 106 10.5)"><text x="0" y="15" font-family="Virgil, Segoe UI Emoji" font-size="16px" fill="#c92a2a" text-anchor="start" style="white-space: pre;" direction="ltr">302 /some_protected_api</text></g><g stroke-linecap="round"><g transform="translate(21.600912781670786 852.4224358457659) rotate(0 105.85388373243126 1.8539396581563778)"><path d="M-1.08 0.99 C82.54 3.28, 165.22 3.55, 212.68 2.97 M-0.54 0.01 C81.46 0.76, 161.21 1.76, 212.78 3.7" stroke="#000000" stroke-width="1" fill="none"></path></g><g transform="translate(21.600912781670786 852.4224358457659) rotate(0 105.85388373243126 1.8539396581563778)"><path d="M183.09 14.28 C195.32 10.39, 206.59 5.55, 213.47 3.29 M183.7 13.16 C195.74 9.33, 205.29 5.41, 213.59 4.12" stroke="#000000" stroke-width="1" fill="none"></path></g><g transform="translate(21.600912781670786 852.4224358457659) rotate(0 105.85388373243126 1.8539396581563778)"><path d="M183.67 -6.23 C195.83 -2.15, 206.87 0.99, 213.47 3.29 M184.29 -7.35 C196.2 -3.36, 205.53 0.55, 213.59 4.12" stroke="#000000" stroke-width="1" fill="none"></path></g></g><mask></mask><g transform="translate(56.17431008188646 802.4224358457659) rotate(0 79.5 21)"><text x="0" y="15" font-family="Virgil, Segoe UI Emoji" font-size="16px" fill="#000000" text-anchor="start" style="white-space: pre;" direction="ltr">Hey, I want to use </text><text x="0" y="36" font-family="Virgil, Segoe UI Emoji" font-size="16px" fill="#000000" text-anchor="start" style="white-space: pre;" direction="ltr">this protected api</text></g><g stroke-linecap="round"><g transform="translate(226.8619791666664 904.3606770833335) rotate(0 -102.49999999999989 -2.0833333333333712)"><path d="M0 0 C-34.17 -0.69, -170.83 -3.47, -205 -4.17" stroke="#2b8a3e" stroke-width="1.5" fill="none" stroke-dasharray="1.5 7"></path></g><g transform="translate(226.8619791666664 904.3606770833335) rotate(0 -102.49999999999989 -2.0833333333333712)"><path d="M-176.61 -13.85 C-185.87 -10.69, -195.14 -7.53, -205 -4.17" stroke="#2b8a3e" stroke-width="1.5" fill="none" stroke-dasharray="1.5 5"></path></g><g transform="translate(226.8619791666664 904.3606770833335) rotate(0 -102.49999999999989 -2.0833333333333712)"><path d="M-177.02 6.66 C-186.15 3.13, -195.29 -0.41, -205 -4.17" stroke="#2b8a3e" stroke-width="1.5" fill="none" stroke-dasharray="1.5 5"></path></g></g><mask></mask><g transform="translate(71.86197916666549 873.944010416667) rotate(0 24 10.5)"><text x="0" y="15" font-family="Virgil, Segoe UI Emoji" font-size="16px" fill="#2b8a3e" text-anchor="start" style="white-space: pre;" direction="ltr">Sure !</text></g><g stroke-linecap="round"><g transform="translate(528.9453125000001 595.2734375) rotate(0 29.166666666666515 0)"><path d="M0 0 C9.72 0, 48.61 0, 58.33 0 M0 0 C9.72 0, 48.61 0, 58.33 0" stroke="#000000" stroke-width="1" fill="none"></path></g><g transform="translate(528.9453125000001 595.2734375) rotate(0 29.166666666666515 0)"><path d="M30.93 9.98 C37.22 7.68, 43.52 5.39, 58.33 0 M30.93 9.98 C38.56 7.2, 46.19 4.42, 58.33 0" stroke="#000000" stroke-width="1" fill="none"></path></g><g transform="translate(528.9453125000001 595.2734375) rotate(0 29.166666666666515 0)"><path d="M30.93 -9.98 C37.22 -7.68, 43.52 -5.39, 58.33 0 M30.93 -9.98 C38.56 -7.2, 46.19 -4.42, 58.33 0" stroke="#000000" stroke-width="1" fill="none"></path></g></g><mask></mask><g stroke-linecap="round"><g transform="translate(580.6119791666666 624.4401041666665) rotate(0 -25 0.41666666666662877)"><path d="M0 0 C-8.33 0.14, -41.67 0.69, -50 0.83" stroke="#2b8a3e" stroke-width="1.5" fill="none" stroke-dasharray="1.5 7"></path></g><g transform="translate(580.6119791666666 624.4401041666665) rotate(0 -25 0.41666666666662877)"><path d="M-26.65 -8.11 C-34.66 -5.04, -42.66 -1.98, -50 0.83" stroke="#2b8a3e" stroke-width="1.5" fill="none" stroke-dasharray="1.5 5"></path></g><g transform="translate(580.6119791666666 624.4401041666665) rotate(0 -25 0.41666666666662877)"><path d="M-26.37 8.99 C-34.47 6.19, -42.57 3.4, -50 0.83" stroke="#2b8a3e" stroke-width="1.5" fill="none" stroke-dasharray="1.5 5"></path></g></g><mask></mask><g stroke-linecap="round"><g transform="translate(580.6119791666662 653.1901041666667) rotate(0 -25 0.41666666666662877)"><path d="M0 0 C-8.33 0.14, -41.67 0.69, -50 0.83" stroke="#2b8a3e" stroke-width="1.5" fill="none" stroke-dasharray="8 9"></path></g><g transform="translate(580.6119791666662 653.1901041666667) rotate(0 -25 0.41666666666662877)"><path d="M-26.65 -8.11 C-32.91 -5.71, -39.16 -3.32, -50 0.83" stroke="#2b8a3e" stroke-width="1.5" fill="none"></path></g><g transform="translate(580.6119791666662 653.1901041666667) rotate(0 -25 0.41666666666662877)"><path d="M-26.37 8.99 C-32.7 6.81, -39.03 4.62, -50 0.83" stroke="#2b8a3e" stroke-width="1.5" fill="none"></path></g></g><mask></mask><g transform="translate(594.7786458333331 581.9401041666665) rotate(0 52 10.5)"><text x="0" y="15" font-family="Virgil, Segoe UI Emoji" font-size="16px" fill="#000000" text-anchor="start" style="white-space: pre;" direction="ltr">Http request</text></g><g transform="translate(593.9453125000001 611.9401041666665) rotate(0 55 10.5)"><text x="0" y="15" font-family="Virgil, Segoe UI Emoji" font-size="16px" fill="#000000" text-anchor="start" style="white-space: pre;" direction="ltr">Http response</text></g><g transform="translate(593.9453125000001 640.2734374999998) rotate(0 52.5 10.5)"><text x="0" y="15" font-family="Virgil, Segoe UI Emoji" font-size="16px" fill="#000000" text-anchor="start" style="white-space: pre;" direction="ltr">Http redirect</text></g></svg>