<svg xmlns="http://www.w3.org/2000/svg" viewBox="0 80 300 150" class="iconAbove">
    <g fill="#2E3946"
       transform="matrix(2.7100272178649902,0,0,2.7100272178649902,16.585365694855852,174.60975594663782)">
        <path d="M5.11 4.62L5.11 4.62Q6.19 4.62 7.08 5.13L7.08 5.13L7.08 5.13Q7.97 5.64 8.47 6.53L8.47 6.53L8.47 6.53Q8.97 7.42 8.97 8.51L8.97 8.51L8.97 8.51Q8.97 9.60 8.51 10.49L8.51 10.49L8.51 10.49Q8.04 11.38 7.22 11.89L7.22 11.89L7.22 11.89Q6.40 12.39 5.39 12.39L5.39 12.39L5.39 12.39Q4.58 12.39 3.88 12.05L3.88 12.05L3.88 12.05Q3.18 11.72 2.69 11.12L2.69 11.12L2.69 14.90L2.69 14.90Q2.69 15.22 2.49 15.41L2.49 15.41L2.49 15.41Q2.30 15.61 1.97 15.61L1.97 15.61L1.97 15.61Q1.67 15.61 1.46 15.41L1.46 15.41L1.46 15.41Q1.26 15.22 1.26 14.90L1.26 14.90L1.26 8.51L1.26 8.51Q1.26 7.42 1.77 6.53L1.77 6.53L1.77 6.53Q2.28 5.64 3.16 5.13L3.16 5.13L3.16 5.13Q4.03 4.62 5.11 4.62L5.11 4.62ZM5.11 11.13L5.11 11.13Q5.81 11.13 6.38 10.79L6.38 10.79L6.38 10.79Q6.94 10.44 7.27 9.85L7.27 9.85L7.27 9.85Q7.60 9.25 7.60 8.51L7.60 8.51L7.60 8.51Q7.60 7.77 7.27 7.17L7.27 7.17L7.27 7.17Q6.94 6.57 6.38 6.22L6.38 6.22L6.38 6.22Q5.81 5.88 5.11 5.88L5.11 5.88L5.11 5.88Q4.41 5.88 3.84 6.22L3.84 6.22L3.84 6.22Q3.28 6.57 2.95 7.17L2.95 7.17L2.95 7.17Q2.63 7.77 2.63 8.51L2.63 8.51L2.63 8.51Q2.63 9.25 2.95 9.85L2.95 9.85L2.95 9.85Q3.28 10.44 3.84 10.79L3.84 10.79L3.84 10.79Q4.41 11.13 5.11 11.13L5.11 11.13ZM14.57 4.62L14.57 4.62Q15.68 4.62 16.55 5.12L16.55 5.12L16.55 5.12Q17.43 5.61 17.93 6.50L17.93 6.50L17.93 6.50Q18.42 7.38 18.42 8.51L18.42 8.51L18.42 8.51Q18.42 9.63 17.93 10.51L17.93 10.51L17.93 10.51Q17.44 11.40 16.57 11.89L16.57 11.89L16.57 11.89Q15.69 12.39 14.57 12.39L14.57 12.39L14.57 12.39Q13.45 12.39 12.57 11.89L12.57 11.89L12.57 11.89Q11.69 11.40 11.20 10.51L11.20 10.51L11.20 10.51Q10.71 9.63 10.71 8.51L10.71 8.51L10.71 8.51Q10.71 7.38 11.20 6.50L11.20 6.50L11.20 6.50Q11.69 5.61 12.57 5.12L12.57 5.12L12.57 5.12Q13.45 4.62 14.57 4.62L14.57 4.62ZM14.57 5.88L14.57 5.88Q13.86 5.88 13.29 6.22L13.29 6.22L13.29 6.22Q12.73 6.55 12.40 7.15L12.40 7.15L12.40 7.15Q12.08 7.76 12.08 8.51L12.08 8.51L12.08 8.51Q12.08 9.27 12.40 9.86L12.40 9.86L12.40 9.86Q12.73 10.46 13.29 10.79L13.29 10.79L13.29 10.79Q13.86 11.13 14.57 11.13L14.57 11.13L14.57 11.13Q15.29 11.13 15.86 10.79L15.86 10.79L15.86 10.79Q16.42 10.46 16.74 9.86L16.74 9.86L16.74 9.86Q17.05 9.27 17.05 8.51L17.05 8.51L17.05 8.51Q17.05 7.76 16.74 7.15L16.74 7.15L16.74 7.15Q16.42 6.55 15.86 6.22L15.86 6.22L15.86 6.22Q15.29 5.88 14.57 5.88L14.57 5.88ZM20.27 2.10L20.27 2.10Q20.27 1.79 20.47 1.60L20.47 1.60L20.47 1.60Q20.66 1.40 20.97 1.40L20.97 1.40L20.97 1.40Q21.28 1.40 21.48 1.60L21.48 1.60L21.48 1.60Q21.67 1.79 21.67 2.10L21.67 2.10L21.67 9.74L21.67 9.74Q21.67 10.26 21.87 10.60L21.87 10.60L21.87 10.60Q22.06 10.93 22.37 10.93L22.37 10.93L22.72 10.93L22.72 10.93Q23.00 10.93 23.18 11.13L23.18 11.13L23.18 11.13Q23.35 11.33 23.35 11.63L23.35 11.63L23.35 11.63Q23.35 11.94 23.09 12.14L23.09 12.14L23.09 12.14Q22.82 12.33 22.40 12.33L22.40 12.33L22.37 12.33L22.37 12.33Q21.77 12.33 21.29 12.00L21.29 12.00L21.29 12.00Q20.80 11.68 20.54 11.08L20.54 11.08L20.54 11.08Q20.27 10.49 20.27 9.74L20.27 9.74L20.27 2.10ZM30.60 4.75L30.60 4.75Q31.04 4.91 31.04 5.29L31.04 5.29L31.04 5.29Q31.04 5.43 30.95 5.63L30.95 5.63L26.67 15.26L26.67 15.26Q26.50 15.69 26.12 15.69L26.12 15.69L26.12 15.69Q25.98 15.69 25.79 15.61L25.79 15.61L25.79 15.61Q25.37 15.43 25.37 15.06L25.37 15.06L25.37 15.06Q25.37 14.90 25.45 14.73L25.45 14.73L26.85 11.58L23.70 5.60L23.70 5.60Q23.63 5.47 23.63 5.31L23.63 5.31L23.63 5.31Q23.63 5.12 23.74 4.97L23.74 4.97L23.74 4.97Q23.86 4.82 24.04 4.73L24.04 4.73L24.04 4.73Q24.16 4.68 24.32 4.68L24.32 4.68L24.32 4.68Q24.71 4.68 24.91 5.07L24.91 5.07L27.47 10.16L29.72 5.08L29.72 5.08Q29.90 4.68 30.27 4.68L30.27 4.68L30.27 4.68Q30.45 4.68 30.60 4.75L30.60 4.75ZM35.77 4.62L35.77 4.62Q36.85 4.62 37.72 5.13L37.72 5.13L37.72 5.13Q38.60 5.64 39.11 6.53L39.11 6.53L39.11 6.53Q39.62 7.42 39.62 8.51L39.62 8.51L39.62 11.63L39.62 11.63Q39.62 11.94 39.42 12.14L39.42 12.14L39.42 12.14Q39.21 12.35 38.91 12.35L38.91 12.35L38.91 12.35Q38.60 12.35 38.40 12.14L38.40 12.14L38.40 12.14Q38.19 11.94 38.19 11.63L38.19 11.63L38.19 11.12L38.19 11.12Q37.70 11.72 37.00 12.05L37.00 12.05L37.00 12.05Q36.30 12.39 35.49 12.39L35.49 12.39L35.49 12.39Q34.48 12.39 33.66 11.89L33.66 11.89L33.66 11.89Q32.84 11.38 32.38 10.49L32.38 10.49L32.38 10.49Q31.91 9.60 31.91 8.51L31.91 8.51L31.91 8.51Q31.91 7.42 32.41 6.53L32.41 6.53L32.41 6.53Q32.91 5.64 33.80 5.13L33.80 5.13L33.80 5.13Q34.69 4.62 35.77 4.62L35.77 4.62ZM35.77 11.13L35.77 11.13Q36.47 11.13 37.04 10.79L37.04 10.79L37.04 10.79Q37.60 10.44 37.93 9.85L37.93 9.85L37.93 9.85Q38.25 9.25 38.25 8.51L38.25 8.51L38.25 8.51Q38.25 7.77 37.93 7.17L37.93 7.17L37.93 7.17Q37.60 6.57 37.04 6.22L37.04 6.22L37.04 6.22Q36.47 5.88 35.77 5.88L35.77 5.88L35.77 5.88Q35.07 5.88 34.50 6.22L34.50 6.22L34.50 6.22Q33.94 6.57 33.61 7.17L33.61 7.17L33.61 7.17Q33.28 7.77 33.28 8.51L33.28 8.51L33.28 8.51Q33.28 9.25 33.61 9.85L33.61 9.85L33.61 9.85Q33.94 10.44 34.50 10.79L34.50 10.79L34.50 10.79Q35.07 11.13 35.77 11.13L35.77 11.13ZM47.56 11.26L47.56 11.26Q47.75 11.47 47.75 11.75L47.75 11.75L47.75 11.75Q47.75 12.00 47.58 12.17L47.58 12.17L47.58 12.17Q47.40 12.33 47.12 12.33L47.12 12.33L47.12 12.33Q46.79 12.33 46.62 12.11L46.62 12.11L44.39 9.45L42.28 12.11L42.28 12.11Q42.07 12.33 41.78 12.33L41.78 12.33L41.78 12.33Q41.50 12.33 41.34 12.17L41.34 12.17L41.34 12.17Q41.17 12.00 41.17 11.75L41.17 11.75L41.17 11.75Q41.17 11.47 41.37 11.23L41.37 11.23L43.54 8.51L41.23 5.78L41.23 5.78Q41.02 5.53 41.02 5.25L41.02 5.25L41.02 5.25Q41.02 5.01 41.18 4.84L41.18 4.84L41.18 4.84Q41.34 4.68 41.64 4.68L41.64 4.68L41.64 4.68Q41.97 4.68 42.17 4.91L42.17 4.91L44.46 7.66L46.52 4.91L46.52 4.91Q46.70 4.68 47.04 4.68L47.04 4.68L47.04 4.68Q47.32 4.68 47.48 4.85L47.48 4.85L47.48 4.85Q47.64 5.03 47.64 5.28L47.64 5.28L47.64 5.28Q47.64 5.59 47.45 5.84L47.45 5.84L45.33 8.60L47.56 11.26ZM53.02 4.62L53.02 4.62Q54.12 4.62 55.00 5.12L55.00 5.12L55.00 5.12Q55.87 5.61 56.37 6.50L56.37 6.50L56.37 6.50Q56.87 7.38 56.87 8.51L56.87 8.51L56.87 8.51Q56.87 9.63 56.38 10.51L56.38 10.51L56.38 10.51Q55.89 11.40 55.01 11.89L55.01 11.89L55.01 11.89Q54.14 12.39 53.02 12.39L53.02 12.39L53.02 12.39Q51.90 12.39 51.02 11.89L51.02 11.89L51.02 11.89Q50.13 11.40 49.64 10.51L49.64 10.51L49.64 10.51Q49.15 9.63 49.15 8.51L49.15 8.51L49.15 8.51Q49.15 7.38 49.64 6.50L49.64 6.50L49.64 6.50Q50.13 5.61 51.02 5.12L51.02 5.12L51.02 5.12Q51.90 4.62 53.02 4.62L53.02 4.62ZM53.02 5.88L53.02 5.88Q52.30 5.88 51.74 6.22L51.74 6.22L51.74 6.22Q51.17 6.55 50.85 7.15L50.85 7.15L50.85 7.15Q50.53 7.76 50.53 8.51L50.53 8.51L50.53 8.51Q50.53 9.27 50.85 9.86L50.85 9.86L50.85 9.86Q51.17 10.46 51.74 10.79L51.74 10.79L51.74 10.79Q52.30 11.13 53.02 11.13L53.02 11.13L53.02 11.13Q53.73 11.13 54.30 10.79L54.30 10.79L54.30 10.79Q54.87 10.46 55.18 9.86L55.18 9.86L55.18 9.86Q55.50 9.27 55.50 8.51L55.50 8.51L55.50 8.51Q55.50 7.76 55.18 7.15L55.18 7.15L55.18 7.15Q54.87 6.55 54.30 6.22L54.30 6.22L54.30 6.22Q53.73 5.88 53.02 5.88L53.02 5.88ZM62.80 4.61L62.80 4.61Q63.77 4.61 64.54 5.03L64.54 5.03L64.54 5.03Q65.31 5.45 65.74 6.25L65.74 6.25L65.74 6.25Q66.18 7.06 66.18 8.19L66.18 8.19L66.18 11.63L66.18 11.63Q66.18 11.94 65.98 12.14L65.98 12.14L65.98 12.14Q65.77 12.35 65.46 12.35L65.46 12.35L65.46 12.35Q65.16 12.35 64.95 12.14L64.95 12.14L64.95 12.14Q64.75 11.94 64.75 11.63L64.75 11.63L64.75 8.19L64.75 8.19Q64.75 7.06 64.14 6.47L64.14 6.47L64.14 6.47Q63.53 5.89 62.52 5.89L62.52 5.89L62.52 5.89Q61.94 5.89 61.45 6.13L61.45 6.13L61.45 6.13Q60.97 6.37 60.70 6.78L60.70 6.78L60.70 6.78Q60.42 7.18 60.42 7.69L60.42 7.69L60.42 11.63L60.42 11.63Q60.42 11.94 60.23 12.14L60.23 12.14L60.23 12.14Q60.03 12.35 59.71 12.35L59.71 12.35L59.71 12.35Q59.40 12.35 59.20 12.14L59.20 12.14L59.20 12.14Q59.00 11.94 59.00 11.63L59.00 11.63L59.00 5.39L59.00 5.39Q59.00 5.07 59.20 4.87L59.20 4.87L59.20 4.87Q59.40 4.68 59.71 4.68L59.71 4.68L59.71 4.68Q60.03 4.68 60.23 4.87L60.23 4.87L60.23 4.87Q60.42 5.07 60.42 5.39L60.42 5.39L60.42 5.54L60.42 5.54Q60.87 5.10 61.49 4.85L61.49 4.85L61.49 4.85Q62.10 4.61 62.80 4.61L62.80 4.61ZM79.25 8.57L79.25 8.57Q79.58 8.57 79.77 8.72L79.77 8.72L79.77 8.72Q79.97 8.88 79.97 9.21L79.97 9.21L79.97 9.21Q79.97 9.48 79.76 9.67L79.76 9.67L79.76 9.67Q79.55 9.86 79.25 9.86L79.25 9.86L78.41 9.86L78.41 11.62L78.41 11.62Q78.41 11.91 78.21 12.12L78.21 12.12L78.21 12.12Q78.01 12.33 77.71 12.33L77.71 12.33L77.71 12.33Q77.43 12.33 77.24 12.12L77.24 12.12L77.24 12.12Q77.04 11.91 77.04 11.62L77.04 11.62L77.04 9.86L72.38 9.86L72.38 9.86Q72.06 9.86 71.86 9.65L71.86 9.65L71.86 9.65Q71.67 9.44 71.67 9.16L71.67 9.16L71.67 9.16Q71.67 8.92 71.81 8.74L71.81 8.74L77.17 1.71L77.17 1.71Q77.41 1.40 77.76 1.40L77.76 1.40L77.76 1.40Q78.05 1.40 78.23 1.61L78.23 1.61L78.23 1.61Q78.41 1.82 78.41 2.13L78.41 2.13L78.41 8.57L79.25 8.57ZM73.51 8.57L77.04 8.57L77.04 3.93L73.51 8.57ZM84.57 1.39L84.57 1.39Q85.62 1.39 86.38 2.04L86.38 2.04L86.38 2.04Q87.14 2.70 87.53 3.93L87.53 3.93L87.53 3.93Q87.92 5.17 87.92 6.86L87.92 6.86L87.92 6.86Q87.92 8.55 87.53 9.79L87.53 9.79L87.53 9.79Q87.14 11.02 86.38 11.68L86.38 11.68L86.38 11.68Q85.62 12.33 84.57 12.33L84.57 12.33L84.57 12.33Q82.98 12.33 82.10 10.89L82.10 10.89L82.10 10.89Q81.23 9.45 81.23 6.86L81.23 6.86L81.23 6.86Q81.23 4.27 82.10 2.83L82.10 2.83L82.10 2.83Q82.98 1.39 84.57 1.39L84.57 1.39ZM84.57 2.83L84.57 2.83Q83.64 2.83 83.15 3.94L83.15 3.94L83.15 3.94Q82.67 5.05 82.67 6.86L82.67 6.86L82.67 6.86Q82.67 8.68 83.16 9.78L83.16 9.78L83.16 9.78Q83.65 10.88 84.57 10.88L84.57 10.88L84.57 10.88Q85.51 10.88 86.00 9.77L86.00 9.77L86.00 9.77Q86.48 8.67 86.48 6.86L86.48 6.86L86.48 6.86Q86.48 5.07 85.99 3.95L85.99 3.95L85.99 3.95Q85.50 2.83 84.57 2.83L84.57 2.83ZM96.49 8.57L96.49 8.57Q96.81 8.57 97.01 8.72L97.01 8.72L97.01 8.72Q97.20 8.88 97.20 9.21L97.20 9.21L97.20 9.21Q97.20 9.48 96.99 9.67L96.99 9.67L96.99 9.67Q96.78 9.86 96.49 9.86L96.49 9.86L95.65 9.86L95.65 11.62L95.65 11.62Q95.65 11.91 95.45 12.12L95.45 12.12L95.45 12.12Q95.24 12.33 94.95 12.33L94.95 12.33L94.95 12.33Q94.67 12.33 94.47 12.12L94.47 12.12L94.47 12.12Q94.28 11.91 94.28 11.62L94.28 11.62L94.28 9.86L89.61 9.86L89.61 9.86Q89.29 9.86 89.10 9.65L89.10 9.65L89.10 9.65Q88.90 9.44 88.90 9.16L88.90 9.16L88.90 9.16Q88.90 8.92 89.04 8.74L89.04 8.74L94.40 1.71L94.40 1.71Q94.64 1.40 94.99 1.40L94.99 1.40L94.99 1.40Q95.28 1.40 95.47 1.61L95.47 1.61L95.47 1.61Q95.65 1.82 95.65 2.13L95.65 2.13L95.65 8.57L96.49 8.57ZM90.75 8.57L94.28 8.57L94.28 3.93L90.75 8.57Z"></path>
    </g>
    <g id="964515f2-1a2f-47c6-8533-d4afe122aa4d" stroke="none" fill="#0D5382"
       transform="matrix(0.7750677466392517,0,0,0.7750677466392517,111.24545047511788,82.86991865716287)">
        <path d="M0 14.88C0 6.662 6.662 0 14.88 0s14.88 6.662 14.88 14.88c0 8.219-6.662 14.88-14.88 14.88S0 23.099 0 14.88zm68.152 62.454v1.576h.652a.43.43 0 1 1 0 .86h-.652v5.639h.652a.43.43 0 1 1 0 .859h-.652v2.755C86.8 91.467 100 100 100 100H0s26.001-8.701 48.32-11.049C28.867 81.846.323 80.604 0 80.59v-1.17c.065.002 19.14.843 36.778 4.947 1.104-.368 8.675-2.854 19.131-5.459v-1.959h-.661a.43.43 0 1 1 0-.859h.661v-4.844c-2.864-.18-6.433-.71-9.744-2.348l-.292.582a.428.428 0 1 1-.767-.383l.299-.596c-2.395-1.331-4.611-3.29-6.269-6.179l-.971.36a.428.428 0 1 1-.298-.805l.854-.316c-1.235-2.417-2.099-5.437-2.402-9.202l-.999.066a.43.43 0 0 1-.057-.857l.998-.066a38.977 38.977 0 0 1-.063-2.228v-4.316h-1.186a.429.429 0 1 1 0-.858h1.186v-6.558h-1.186a.429.429 0 1 1 0-.858h1.193a4.76 4.76 0 0 1 9.516.259v2.216h.802a.429.429 0 1 1 0 .858h-.803v6.558h.802a.43.43 0 0 1 0 .859h-.802s.137 5.199.397 6.521l.559-.136a.431.431 0 0 1 .519.315.431.431 0 0 1-.316.52l-.572.138c.784 3.057 2.321 4.769 4.418 5.741l.304-.521a.43.43 0 0 1 .741.433l-.243.417c1.294.464 2.768.705 4.383.841v-4.246h-.661a.43.43 0 1 1 0-.859h.661v-5.639h-.661a.43.43 0 1 1 0-.859h.661v-5.639h-.661a.43.43 0 1 1 0-.858h.661v-5.64h-.661a.43.43 0 1 1 0-.859h.661v-5.639h-.661a.43.43 0 1 1 0-.858h.661v-.044a6.122 6.122 0 0 1 12.243 0v2.863h.652a.43.43 0 1 1 0 .858h-.652v5.64h.652a.43.43 0 1 1 0 .858h-.652v5.64h.652a.43.43 0 1 1 0 .858h-.652v4.729c2.012-.121 3.799-.388 5.313-.983l-.45-.771a.43.43 0 0 1 .741-.433l.497.851c2.068-1.053 3.531-2.884 4.233-6.069l-.58-.141a.43.43 0 0 1 .203-.834l.542.131c.204-1.22.311-6.517.311-6.517h-.697a.43.43 0 1 1 0-.858h.697v-1.449a4.76 4.76 0 0 1 9.481-.616h.787a.43.43 0 1 1 0 .858h-.746s-.022 5.861-.063 6.574l.559.038a.428.428 0 1 1-.058.856l-.561-.037c-.31 3.812-1.202 6.866-2.481 9.307l.494.183a.43.43 0 0 1-.297.805l-.62-.229c-1.722 2.929-4.03 4.905-6.526 6.234l.204.409a.43.43 0 0 1-.766.385l-.205-.408c-3.391 1.608-7.046 2.114-10.01 2.25v4.373h.652a.43.43 0 1 1 0 .859h-.652v5.64h.652a.43.43 0 1 1 0 .859h-.652v2.869c10.195-2.057 21.53-3.687 31.848-3.687v1.172c-10.317-.004-21.663 1.639-31.851 3.704zm-12.243 2.78a291.748 291.748 0 0 0-16.953 4.779c4.236 1.061 8.337 2.318 12.015 3.809a97.422 97.422 0 0 1 4.938-.288v-4.967h-.661a.43.43 0 1 1 0-.859h.661v-2.474z"></path>
    </g>
</svg>
