<svg width="62" height="61" viewBox="0 0 62 61" fill="none" xmlns="http://www.w3.org/2000/svg">
<g clip-path="url(#clip0_5_64)">
<g clip-path="url(#clip1_5_64)">
<g clip-path="url(#clip2_5_64)">
<mask id="mask0_5_64" style="mask-type:luminance" maskUnits="userSpaceOnUse" x="0" y="0" width="62" height="61">
<path d="M62 0.530029H0V60.53H62V0.530029Z" fill="white"/>
</mask>
<g mask="url(#mask0_5_64)">
<path fill-rule="evenodd" clip-rule="evenodd" d="M0 30.5186C0 13.9567 13.8813 0.530029 31 0.530029C39.2216 0.530029 47.1172 3.68792 52.9166 9.32215C58.716 14.9564 62 22.5898 62 30.5414C62 47.1033 48.1187 60.53 31 60.53C13.8813 60.53 0 47.1033 0 30.5186Z" fill="#A051FE"/>
<path fill-rule="evenodd" clip-rule="evenodd" d="M31.0473 32.2454C31.583 32.1091 32.0255 31.7001 32.0255 31.2685V30.2461L32.2352 30.178C33.586 29.7463 34.5409 28.4968 34.5409 27.1337C34.5409 25.4525 33.1668 24.4756 31.9324 23.6123L31.6529 23.4078C31.4666 23.2715 31.2569 23.1352 31.0706 22.9989C30.2089 22.4082 29.417 21.8402 29.417 21.1132C29.417 20.3181 30.2321 19.7501 30.9542 19.7501C31.7926 19.7501 32.6078 20.4089 32.6078 21.1132C32.6078 21.6812 33.0736 22.0901 33.4696 22.0901C34.0751 22.0901 34.5409 21.6812 34.5409 21.1132C34.5409 19.7955 33.6326 18.5914 32.2119 18.0689L32.0255 18.0008V17.0011C32.0255 16.5241 31.4666 16.0242 31.0473 16.0242C30.5349 16.0242 30.1856 16.5241 30.1856 17.0011V18.0235L29.9759 18.0916C28.5785 18.5233 27.577 19.7955 27.577 21.1359C27.577 22.8853 29.0676 23.8622 30.3952 24.7482L30.5349 24.8391C30.698 24.9527 30.861 25.0663 31.0007 25.1799C31.8625 25.7933 32.701 26.384 32.701 27.1337C32.701 27.9288 31.9557 28.5877 31.0473 28.5877C30.2321 28.5877 29.6033 27.9515 29.6033 27.1337C29.6033 26.5657 29.021 26.2476 28.6251 26.2476C28.0894 26.2476 27.5537 26.6793 27.5537 27.1337C27.5537 28.4514 28.5086 29.6327 29.9759 30.178L30.1623 30.2461V31.2457C30.1623 31.7228 30.6048 32.2226 31.024 32.2226L31.0473 32.2454Z" fill="white"/>
<path fill-rule="evenodd" clip-rule="evenodd" d="M30.8607 48.1937H31.047C31.2566 48.1937 31.443 48.1937 31.6526 48.1937C34.6105 48.1937 37.5218 47.0123 39.8509 44.8541C42.2033 42.6731 43.4377 39.856 43.4377 36.6526C43.4377 36.1074 42.9952 35.7666 42.5759 35.7666C42.5759 35.7666 42.3663 35.7666 42.2499 35.7666C39.1056 35.7666 36.0778 36.9707 33.6789 39.1744C33.5391 39.3334 33.3761 39.4925 33.1898 39.6742C32.9336 39.9014 32.7007 40.1286 32.5609 40.3785L32.0252 41.2191V35.6757H32.2814C38.5233 35.1305 43.4377 30.1324 43.4377 24.2937C43.4377 17.9779 37.8945 12.8435 31.0703 12.8435C24.2461 12.8435 18.7029 17.9779 18.7029 24.2937C18.7029 30.246 23.5474 35.1078 29.9523 35.653H30.2085V40.901L29.7194 40.4467C29.4632 40.1967 29.2303 39.9696 28.9974 39.7424C28.8111 39.5606 28.6248 39.3562 28.4617 39.1971C26.0628 36.9707 22.9884 35.7893 19.5647 35.7893C19.0756 35.7893 18.7029 36.2664 18.7029 36.6754C18.6097 39.856 19.914 42.764 22.3828 44.8768C24.7119 47.0351 27.7164 48.2164 30.884 48.2164L30.8607 48.1937ZM32.1184 46.0354C32.2814 44.5133 32.9103 42.3096 35.1229 40.4012C36.7067 38.8563 38.9193 37.834 41.1785 37.6523H41.5279L41.4813 37.9703C41.2717 39.9468 40.2469 41.9006 38.5001 43.6045C36.6601 45.1267 34.5872 46.0809 32.4445 46.3762L32.0718 46.4217L32.1184 46.0582V46.0354ZM20.6128 24.2028C20.6128 18.9548 25.3874 14.5247 31.047 14.5247C36.7067 14.5247 41.4813 18.8639 41.4813 24.2028C41.4813 29.5417 36.7998 33.881 31.047 33.881C25.2942 33.881 20.6128 29.6326 20.6128 24.2028ZM20.5662 37.5841H20.9388C23.1514 37.8113 25.2942 38.7882 27.0177 40.3785C28.7412 41.9688 29.7893 43.968 29.9989 46.0127L30.0455 46.3762L29.6729 46.3308C27.5534 46.0582 25.4572 45.104 23.6173 43.5818C22.0102 41.9915 20.9621 39.9923 20.636 37.9476L20.5895 37.5841H20.5662Z" fill="white"/>
</g>
</g>
</g>
</g>
<defs>
<clipPath id="clip0_5_64">
<rect width="62" height="60" fill="white" transform="translate(0 0.530029)"/>
</clipPath>
<clipPath id="clip1_5_64">
<rect width="62" height="60" fill="white" transform="translate(0 0.530029)"/>
</clipPath>
<clipPath id="clip2_5_64">
<rect width="62" height="60" fill="white" transform="translate(0 0.530029)"/>
</clipPath>
</defs>
</svg>
