<svg width="62" height="61" viewBox="0 0 62 61" fill="none" xmlns="http://www.w3.org/2000/svg">
<g clip-path="url(#clip0_5_53)">
<g clip-path="url(#clip1_5_53)">
<mask id="mask0_5_53" style="mask-type:luminance" maskUnits="userSpaceOnUse" x="0" y="0" width="62" height="61">
<path d="M61.5 0.530029H0.5V60.53H61.5V0.530029Z" fill="white"/>
</mask>
<g mask="url(#mask0_5_53)">
<path fill-rule="evenodd" clip-rule="evenodd" d="M0.5 30.5186C0.5 13.9567 14.1574 0.530029 31 0.530029C39.089 0.530029 46.8572 3.68792 52.5631 9.32215C58.2919 14.9564 61.5 22.5898 61.5 30.5414C61.5 47.1033 47.8426 60.53 31 60.53C14.1574 60.53 0.5 47.1033 0.5 30.5186Z" fill="#A051FE"/>
<path fill-rule="evenodd" clip-rule="evenodd" d="M16.6783 16.0469C16.1742 16.0469 15.7617 16.4559 15.7617 16.9557V44.1045C15.7617 44.6043 16.1742 45.0132 16.6783 45.0132H45.2305C45.7347 45.0132 46.1471 44.6043 46.1471 44.1045C46.1471 43.6047 45.7347 43.1958 45.2305 43.1958H36.9353V34.4945L41.7933 29.6781L43.7411 31.6092C43.9244 31.791 44.1535 31.8819 44.3827 31.8819C44.8181 31.8819 45.2305 31.5865 45.2993 31.1094L46.193 25.089C46.2846 24.521 45.8263 24.0439 45.2993 24.0439C45.2535 24.0439 45.2076 24.0439 45.1618 24.0439L39.0893 24.9299C38.3331 25.0435 38.0352 25.9523 38.5852 26.4748L40.5329 28.3832L35.8812 32.9951L26.9672 28.4513C26.9672 28.4513 26.9214 28.4513 26.9214 28.4286H26.8985L26.8297 28.4059H26.8068C26.8068 28.4059 26.7839 28.4059 26.761 28.4059H26.7381C26.7381 28.4059 26.6922 28.4059 26.6693 28.4059H26.4631C26.4631 28.4059 26.4172 28.4059 26.3943 28.4059H26.3714C26.3714 28.4059 26.3485 28.4059 26.3256 28.4059H26.3027C26.3027 28.4059 26.2568 28.4286 26.2339 28.4286H26.211L26.1652 28.4741H26.1423C26.1423 28.4741 26.1193 28.4968 26.0964 28.5195H26.0735L26.0277 28.5649L17.6866 35.1761V16.9557C17.6866 16.4559 17.2741 16.0469 16.77 16.0469H16.6783ZM27.4255 30.7686L35.0791 34.6763V43.1958H27.4255V30.7686ZM25.5923 31.1776V43.1958H17.5949V37.5161L25.5923 31.1776ZM44.1764 26.0204L43.7411 29.0193L41.1517 26.4521L44.1764 26.0204Z" fill="white"/>
</g>
</g>
</g>
<defs>
<clipPath id="clip0_5_53">
<rect width="61" height="60" fill="white" transform="translate(0.5 0.530029)"/>
</clipPath>
<clipPath id="clip1_5_53">
<rect width="61" height="60" fill="white" transform="translate(0.5 0.530029)"/>
</clipPath>
</defs>
</svg>
