<svg width="61" height="61" viewBox="0 0 61 61" fill="none" xmlns="http://www.w3.org/2000/svg">
<g clip-path="url(#clip0_5_37)">
<g clip-path="url(#clip1_5_37)">
<g clip-path="url(#clip2_5_37)">
<mask id="mask0_5_37" style="mask-type:luminance" maskUnits="userSpaceOnUse" x="0" y="0" width="61" height="61">
<path d="M61 0.530029H0V60.53H61V0.530029Z" fill="white"/>
</mask>
<g mask="url(#mask0_5_37)">
<path fill-rule="evenodd" clip-rule="evenodd" d="M0 30.5186C0 13.9567 13.6574 0.530029 30.5 0.530029C38.589 0.530029 46.3572 3.68792 52.0631 9.32215C57.7919 14.9564 61 22.5898 61 30.5414C61 47.1033 47.3426 60.53 30.5 60.53C13.6574 60.53 0 47.1033 0 30.5186Z" fill="#A051FE"/>
<path fill-rule="evenodd" clip-rule="evenodd" d="M28.5982 14.3884C28.1628 14.3884 27.7733 14.6838 27.6816 15.1154L27.2921 16.7284C25.7568 17.0919 24.2902 17.6826 22.9382 18.5232L21.5633 17.7053C21.4258 17.6145 21.2425 17.569 21.0821 17.569C20.83 17.569 20.578 17.6599 20.3946 17.8416L17.6906 20.5225C17.3698 20.8405 17.324 21.2949 17.5532 21.6811L18.3781 23.0442C17.5302 24.3619 16.9345 25.8386 16.5907 27.3608L14.9638 27.747C14.5284 27.8606 14.2305 28.2241 14.2305 28.6785V32.4498C14.2305 32.8814 14.5284 33.2676 14.9638 33.3585L16.5907 33.7447C16.9574 35.2669 17.5532 36.7209 18.401 38.0385L17.5761 39.4017C17.3469 39.7652 17.4157 40.2423 17.7136 40.5603L20.4175 43.2411C20.6009 43.4229 20.8529 43.5137 21.0821 43.5137C21.2425 43.5137 21.4258 43.4683 21.5633 43.3774L22.9382 42.5596C24.2673 43.4002 25.7338 43.9908 27.2921 44.3316L27.6816 45.9446C27.7962 46.3763 28.1628 46.6716 28.6212 46.6716H32.4251C32.8604 46.6716 33.25 46.3763 33.3417 45.9446L33.7312 44.3316C35.2665 43.9681 36.7331 43.3774 38.0851 42.5368L39.46 43.3547C39.6204 43.4456 39.7808 43.491 39.9412 43.491C40.1933 43.491 40.4453 43.4002 40.6287 43.2184L43.3326 40.5376C43.6535 40.2195 43.6993 39.7652 43.4701 39.3789L42.6452 38.0158C43.4931 36.6981 44.0888 35.2442 44.4326 33.6993L46.0595 33.3131C46.4949 33.1995 46.7928 32.836 46.7928 32.3816V28.6103C46.7928 28.1786 46.4949 27.7924 46.0595 27.7016L44.4326 27.3153C44.0659 25.7932 43.4701 24.3392 42.6223 22.9988L43.4472 21.6357C43.6764 21.2722 43.6076 20.7951 43.3097 20.477L40.6057 17.7962C40.4224 17.6145 40.1704 17.5236 39.9412 17.5236C39.7808 17.5236 39.5975 17.569 39.46 17.6599L38.0851 18.4778C36.756 17.6372 35.2665 17.0465 33.7312 16.7057L33.3417 15.0927C33.2271 14.661 32.8604 14.3657 32.4021 14.3657H28.5982V14.3884ZM31.6689 16.2741L32.0355 17.7281C32.1272 18.0916 32.4251 18.3642 32.7917 18.4323C34.4874 18.7504 36.1144 19.4092 37.5351 20.3634C37.6955 20.477 37.8789 20.5225 38.0851 20.5225C38.2455 20.5225 38.4288 20.477 38.5892 20.3861L39.8266 19.6364L41.4765 21.2722L40.7203 22.5217C40.537 22.8398 40.537 23.226 40.7432 23.544C41.7286 24.9526 42.3931 26.5656 42.691 28.2468C42.7598 28.6103 43.0348 28.9056 43.4014 28.9965L44.868 29.36V31.6546L43.4014 32.0181C43.0348 32.109 42.7598 32.4043 42.691 32.7678C42.3702 34.449 41.7057 36.062 40.7203 37.4706C40.5141 37.7659 40.4912 38.1749 40.6974 38.4929L41.4536 39.7424L39.8037 41.3782L38.5663 40.6285C38.4059 40.5376 38.2455 40.4922 38.0622 40.4922C37.8789 40.4922 37.6955 40.5376 37.5122 40.6512C36.0915 41.6281 34.4645 42.2869 32.7688 42.5823C32.4021 42.6504 32.1042 42.9231 32.0126 43.2866L31.6459 44.7406H29.3315L28.9649 43.2866C28.8732 42.9231 28.5753 42.6504 28.2087 42.5823C26.513 42.2642 24.886 41.6054 23.4653 40.6512C23.3048 40.5376 23.1215 40.4922 22.9382 40.4922C22.7778 40.4922 22.5945 40.5376 22.457 40.6285L21.1967 41.3782L19.5468 39.7424L20.303 38.4929C20.4863 38.1749 20.4863 37.7659 20.2801 37.4706C19.2947 36.062 18.6302 34.449 18.3323 32.7678C18.2635 32.4043 17.9885 32.109 17.6219 32.0181L16.1324 31.6546V29.36L17.599 28.9965C17.9656 28.9056 18.2406 28.6103 18.3094 28.2468C18.6302 26.5656 19.2947 24.9526 20.2801 23.544C20.4863 23.2487 20.5092 22.8398 20.303 22.5217L19.5468 21.2722L21.1967 19.6364L22.457 20.3861C22.6174 20.477 22.7778 20.5225 22.9382 20.5225C23.1215 20.5225 23.3048 20.477 23.4653 20.3634C24.886 19.3865 26.513 18.7277 28.2087 18.4323C28.5753 18.3642 28.8732 18.0916 28.9649 17.7281L29.3315 16.2741H31.6459H31.6689Z" fill="white"/>
<path fill-rule="evenodd" clip-rule="evenodd" d="M30.5 20.1362C24.7254 20.1362 20.0049 24.7935 20.0049 30.5414C20.0049 36.2892 24.7025 40.9465 30.5 40.9465C36.2975 40.9465 40.9951 36.2892 40.9951 30.5414C40.9951 24.7935 36.2975 20.1362 30.5 20.1362ZM30.5 22.0219C35.2434 22.0219 39.0932 25.8386 39.0932 30.5186C39.0932 35.1987 35.2434 39.0381 30.5 39.0381C25.7566 39.0381 21.9298 35.2214 21.9298 30.5186C21.9298 25.8159 25.7795 22.0219 30.5 22.0219Z" fill="white"/>
<path fill-rule="evenodd" clip-rule="evenodd" d="M30.5 23.9077C27.796 23.9077 25.367 25.5207 24.3358 27.997C23.3046 30.4734 23.8775 33.3132 25.7795 35.1988C27.0627 36.4711 28.7584 37.1299 30.5 37.1299C31.3478 37.1299 32.2186 36.9709 33.0435 36.6301C35.5413 35.6078 37.1683 33.1996 37.1683 30.5188C37.1683 26.8611 34.1893 23.9077 30.5 23.9077ZM30.5 25.7933C31.1187 25.7933 31.7374 25.9069 32.3332 26.1568C34.1206 26.8838 35.2663 28.6104 35.2663 30.5188C35.2663 33.1314 33.1352 35.2443 30.5 35.2443C28.5751 35.2443 26.8336 34.0856 26.1003 32.3136C25.367 30.5415 25.7795 28.5196 27.1315 27.1564C28.0481 26.2477 29.2626 25.7706 30.5 25.7706V25.7933Z" fill="white"/>
</g>
</g>
</g>
</g>
<defs>
<clipPath id="clip0_5_37">
<rect width="61" height="60" fill="white" transform="translate(0 0.530029)"/>
</clipPath>
<clipPath id="clip1_5_37">
<rect width="61" height="60" fill="white" transform="translate(0 0.530029)"/>
</clipPath>
<clipPath id="clip2_5_37">
<rect width="61" height="60" fill="white" transform="translate(0 0.530029)"/>
</clipPath>
</defs>
</svg>
