<svg width="161" height="151" viewBox="0 0 161 151" fill="none" xmlns="http://www.w3.org/2000/svg">
<path opacity="0.7" d="M72.8416 145.683C113.07 145.683 145.683 113.134 145.683 72.8416C145.683 32.5493 112.926 0 72.8416 0C32.6135 0 0 32.5493 0 72.8416C0 113.134 32.6135 145.683 72.8416 145.683Z" fill="#D6F9F8"/>
<path d="M133.691 20.2042H12.5833C8.57019 20.2042 5.31689 23.4575 5.31689 27.4707V119.512C5.31689 123.525 8.57019 126.779 12.5833 126.779H133.691C137.704 126.779 140.957 123.525 140.957 119.512V27.4707C140.957 23.4575 137.704 20.2042 133.691 20.2042Z" fill="#70E0DF"/>
<path d="M136.113 27.4707V112.246H10.1612V27.4707C10.1612 26.8283 10.4164 26.2122 10.8706 25.758C11.3249 25.3037 11.9409 25.0485 12.5833 25.0485H133.691C134.333 25.0485 134.949 25.3037 135.403 25.758C135.857 26.2122 136.113 26.8283 136.113 27.4707Z" fill="white"/>
<path d="M90.0919 146.156H56.1819L58.6041 126.779H87.6698L87.912 128.765C89.1715 138.72 88.6629 134.723 90.0919 146.156Z" fill="#30BFBC"/>
<path d="M99.7805 151H46.4933C45.8509 151 45.2349 150.745 44.7806 150.291C44.3264 149.836 44.0712 149.22 44.0712 148.578C44.0712 147.935 44.3264 147.319 44.7806 146.865C45.2349 146.411 45.8509 146.156 46.4933 146.156H99.7805C100.423 146.156 101.039 146.411 101.493 146.865C101.947 147.319 102.203 147.935 102.203 148.578C102.203 149.22 101.947 149.836 101.493 150.291C101.039 150.745 100.423 151 99.7805 151Z" fill="#70E0DF"/>
<path d="M136.113 27.4707V34.7371H10.1612V27.4707C10.1612 26.8283 10.4164 26.2122 10.8706 25.758C11.3249 25.3037 11.9409 25.0485 12.5833 25.0485H133.691C134.333 25.0485 134.949 25.3037 135.403 25.758C135.857 26.2122 136.113 26.8283 136.113 27.4707Z" fill="#70E0DF"/>
<path d="M41.649 25.0485H73.1369C75.0641 25.0485 76.9123 25.8141 78.2751 27.1768C79.6378 28.5395 80.4034 30.3878 80.4034 32.315V34.7371H41.649V25.0485Z" fill="#AFF0ED"/>
<path d="M12.5833 25.0485H41.6491C43.5762 25.0485 45.4245 25.8141 46.7872 27.1768C48.1499 28.5395 48.9155 30.3878 48.9155 32.315V37.1592H10.1612V27.4707C10.1612 26.8283 10.4164 26.2122 10.8706 25.758C11.3249 25.3037 11.9409 25.0485 12.5833 25.0485Z" fill="white"/>
<path d="M51.3376 49.2699V61.3806H42.1819L44.0712 49.7544C44.1997 49.112 44.0677 48.4448 43.7043 47.8998C43.3409 47.3547 42.7759 46.9763 42.1335 46.8478C41.4911 46.7193 40.824 46.8513 40.2789 47.2147C39.7338 47.5781 39.3554 48.1431 39.2269 48.7855C36.6594 64.1419 36.3203 64.1419 37.3134 65.3287C38.3065 66.5156 38.2823 66.2249 51.3376 66.2249V73.4914C51.3376 74.1338 51.5928 74.7498 52.0471 75.2041C52.5013 75.6583 53.1174 75.9135 53.7598 75.9135C54.4022 75.9135 55.0182 75.6583 55.4725 75.2041C55.9267 74.7498 56.1819 74.1338 56.1819 73.4914V49.2699C56.1819 48.6275 55.9267 48.0115 55.4725 47.5572C55.0182 47.103 54.4022 46.8478 53.7598 46.8478C53.1174 46.8478 52.5013 47.103 52.0471 47.5572C51.5928 48.0115 51.3376 48.6275 51.3376 49.2699Z" fill="#A9A8AA"/>
<path d="M99.7805 49.2699V61.3806H90.6248L92.5141 49.7544C92.6426 49.112 92.5106 48.4448 92.1472 47.8998C91.7838 47.3547 91.2188 46.9763 90.5764 46.8478C89.934 46.7193 89.2669 46.8513 88.7218 47.2147C88.1767 47.5781 87.7983 48.1431 87.6698 48.7855C85.1023 64.1419 84.7632 64.1419 85.7563 65.3287C86.7494 66.5156 86.7252 66.2249 99.7805 66.2249V73.4914C99.7805 74.1338 100.036 74.7498 100.49 75.2041C100.944 75.6583 101.56 75.9135 102.203 75.9135C102.845 75.9135 103.461 75.6583 103.915 75.2041C104.37 74.7498 104.625 74.1338 104.625 73.4914V49.2699C104.625 48.6275 104.37 48.0115 103.915 47.5572C103.461 47.103 102.845 46.8478 102.203 46.8478C101.56 46.8478 100.944 47.103 100.49 47.5572C100.036 48.0115 99.7805 48.6275 99.7805 49.2699Z" fill="#A9A8AA"/>
<path d="M70.7148 46.8478C68.1452 46.8478 65.6809 47.8686 63.8639 49.6856C62.047 51.5025 61.0262 53.9668 61.0262 56.5364V66.225C61.0262 68.7946 62.047 71.2589 63.8639 73.0758C65.6809 74.8928 68.1452 75.9136 70.7148 75.9136C73.2844 75.9136 75.7487 74.8928 77.5656 73.0758C79.3826 71.2589 80.4034 68.7946 80.4034 66.225V56.5364C80.4034 53.9668 79.3826 51.5025 77.5656 49.6856C75.7487 47.8686 73.2844 46.8478 70.7148 46.8478ZM75.5591 66.225C75.5591 67.5098 75.0487 68.7419 74.1402 69.6504C73.2317 70.5589 71.9996 71.0693 70.7148 71.0693C69.43 71.0693 68.1978 70.5589 67.2894 69.6504C66.3809 68.7419 65.8705 67.5098 65.8705 66.225V56.5364C65.8705 55.2516 66.3809 54.0195 67.2894 53.111C68.1978 52.2025 69.43 51.6921 70.7148 51.6921C71.9996 51.6921 73.2317 52.2025 74.1402 53.111C75.0487 54.0195 75.5591 55.2516 75.5591 56.5364V66.225Z" fill="#A9A8AA"/>
<path d="M36.8048 83.18C36.8048 81.8422 37.8892 80.7578 39.2269 80.7578H77.9812C79.3189 80.7578 80.4034 81.8422 80.4034 83.18C80.4034 84.5177 79.3189 85.6021 77.9812 85.6021H39.2269C37.8892 85.6021 36.8048 84.5177 36.8048 83.18Z" fill="#D4D4D4"/>
<path d="M85.2477 83.18C85.2477 81.8422 86.3321 80.7578 87.6698 80.7578H102.203C103.54 80.7578 104.625 81.8422 104.625 83.18C104.625 84.5177 103.54 85.6021 102.203 85.6021H87.6698C86.3321 85.6021 85.2477 84.5177 85.2477 83.18Z" fill="#D4D4D4"/>
<path d="M61.0262 92.8685C61.0262 91.5308 62.1106 90.4464 63.4484 90.4464H102.203C103.54 90.4464 104.625 91.5308 104.625 92.8685C104.625 94.2062 103.54 95.2906 102.203 95.2906H63.4484C62.1106 95.2906 61.0262 94.2062 61.0262 92.8685Z" fill="#D4D4D4"/>
<path d="M36.8048 92.8685C36.8048 91.5308 37.8892 90.4464 39.2269 90.4464H53.7598C55.0975 90.4464 56.1819 91.5308 56.1819 92.8685C56.1819 94.2062 55.0975 95.2906 53.7598 95.2906H39.2269C37.8892 95.2906 36.8048 94.2062 36.8048 92.8685Z" fill="#D4D4D4"/>
<path d="M140.957 27.4707V56.5364H136.113V27.4707C136.113 26.8283 135.857 26.2122 135.403 25.7579C134.949 25.3037 134.333 25.0485 133.691 25.0485H97.0435L99.9501 20.2042H133.691C135.618 20.2042 137.466 20.9698 138.829 22.3325C140.191 23.6952 140.957 25.5435 140.957 27.4707Z" fill="#30BFBC"/>
<path d="M140.957 87.4672V119.512C140.957 121.439 140.191 123.288 138.829 124.65C137.466 126.013 135.618 126.779 133.691 126.779H88.5176C88.9778 125.519 89.002 125.64 97.0435 112.246H136.113V79.9343C137.988 82.2677 139.612 84.7927 140.957 87.4672Z" fill="#30BFBC"/>
<path d="M136.113 79.9343V112.246H97.0435L115.21 81.9447C116.312 80.2561 117.781 78.8373 119.506 77.7934C121.232 76.7495 123.17 76.1072 125.178 75.9142C127.185 75.7211 129.21 75.9822 131.103 76.6781C132.996 77.374 134.708 78.4869 136.113 79.9343Z" fill="#D6F9F8"/>
<path d="M160.334 131.308C160.334 133.319 159.535 135.247 158.114 136.669C156.692 138.09 154.764 138.889 152.753 138.889H100.095C98.7548 138.887 97.4386 138.53 96.281 137.854C95.1234 137.178 94.1659 136.206 93.5061 135.039C92.8462 133.872 92.5076 132.551 92.5249 131.211C92.5421 129.87 92.9145 128.558 93.6041 127.408L119.376 84.4394C120.15 83.2804 121.199 82.3303 122.428 81.6732C123.658 81.0161 125.03 80.6723 126.424 80.6723C127.818 80.6723 129.191 81.0161 130.42 81.6732C131.65 82.3303 132.698 83.2804 133.473 84.4394C161.351 130.896 160.334 128.353 160.334 131.308Z" fill="#FFCD07"/>
<path d="M124.317 89.2111L101.888 127.965C101.676 128.333 101.564 128.749 101.563 129.173C101.563 129.597 101.673 130.013 101.884 130.381C102.095 130.749 102.399 131.055 102.765 131.269C103.131 131.482 103.547 131.596 103.971 131.599H148.877C149.301 131.596 149.717 131.482 150.083 131.269C150.45 131.055 150.753 130.749 150.964 130.381C151.175 130.013 151.286 129.597 151.285 129.173C151.284 128.749 151.172 128.333 150.96 127.965L128.531 89.2111C128.32 88.8384 128.014 88.5283 127.644 88.3126C127.273 88.0969 126.853 87.9832 126.424 87.9832C125.996 87.9832 125.575 88.0969 125.205 88.3126C124.834 88.5283 124.528 88.8384 124.317 89.2111Z" fill="#F5F7FA"/>
<path d="M123.663 112.246L122.04 100.886C121.985 100.491 122.015 100.089 122.128 99.7064C122.241 99.3241 122.435 98.9706 122.697 98.6697C122.959 98.3689 123.282 98.1278 123.645 97.9627C124.008 97.7976 124.403 97.7124 124.801 97.7128H128.047C128.448 97.7119 128.845 97.7976 129.21 97.9642C129.575 98.1307 129.899 98.3741 130.161 98.6777C130.424 98.9813 130.617 99.3379 130.729 99.7232C130.84 100.108 130.867 100.513 130.808 100.91L129.185 112.246C129.096 112.915 128.768 113.529 128.26 113.974C127.752 114.419 127.099 114.665 126.424 114.665C125.749 114.665 125.097 114.419 124.589 113.974C124.081 113.529 123.752 112.915 123.663 112.246Z" fill="#FFCD07"/>
<path d="M126.424 129.201C129.1 129.201 131.268 127.032 131.268 124.356C131.268 121.681 129.1 119.512 126.424 119.512C123.749 119.512 121.58 121.681 121.58 124.356C121.58 127.032 123.749 129.201 126.424 129.201Z" fill="#FFCD07"/>
</svg>
