<svg width="57" height="54" viewBox="0 0 57 54" fill="none" xmlns="http://www.w3.org/2000/svg">
<rect width="57" height="54" rx="27" fill="#CFF1F0"/>
<path d="M44.4785 20.5996C45.0059 20.8105 45.375 21.2852 45.375 21.8125C45.375 22.3926 45.0059 22.8672 44.4785 23.0781L29.6074 28.4043C28.8691 28.668 28.0781 28.668 27.3398 28.4043L17.3203 24.8184C16.6875 25.5039 16.2129 26.3477 16.002 27.2969C16.3711 27.5605 16.6875 28.0352 16.6875 28.5625C16.6875 29.0898 16.4238 29.5645 16.0547 29.8809L17.3203 37.7383C17.4258 38.2656 17.0039 38.6875 16.5293 38.6875H13.418C12.9434 38.6875 12.5215 38.2656 12.627 37.7383L13.8926 29.8809C13.5234 29.5645 13.3125 29.0898 13.3125 28.5625C13.3125 27.877 13.7344 27.2969 14.3145 27.0332C14.5254 25.9785 15 25.0293 15.6328 24.1855L12.4688 23.0781C11.9414 22.8672 11.625 22.3926 11.625 21.8125C11.625 21.2852 11.9414 20.8105 12.4688 20.5996L27.2871 15.2734C28.0254 15.0098 28.8164 15.0098 29.5547 15.2734L44.4785 20.5996ZM30.1348 29.9863L37.834 27.2441L38.625 34.7852C38.625 36.9473 34.0371 38.6875 28.5 38.6875C22.8574 38.6875 18.375 36.9473 18.375 34.7852L19.1133 27.2441L26.8125 29.9863C27.3398 30.1973 27.9199 30.25 28.5 30.25C29.0273 30.25 29.6074 30.1973 30.1348 29.9863Z" fill="#006969"/>
</svg>
