<svg width="139" height="139" viewBox="0 0 139 139" fill="none" xmlns="http://www.w3.org/2000/svg">
<path d="M69.5 2.78003C32.6511 2.78003 2.78003 32.6511 2.78003 69.5C2.78003 106.349 32.6511 136.22 69.5 136.22C106.349 136.22 136.22 106.349 136.22 69.5C136.22 32.6511 106.349 2.78003 69.5 2.78003ZM53.1675 97.1541H39.6567V53.6749H53.1675V97.1541ZM46.3287 48.3373C42.0614 48.3373 39.3023 45.314 39.3023 41.5749C39.3023 37.7594 42.1448 34.8265 46.5025 34.8265C50.8601 34.8265 53.5289 37.7594 53.6123 41.5749C53.6123 45.314 50.8601 48.3373 46.3287 48.3373ZM102.513 97.1541H89.0017V73.0584C89.0017 67.4498 87.0418 63.6412 82.156 63.6412C78.4238 63.6412 76.2068 66.2196 75.2268 68.7008C74.8654 69.5834 74.7751 70.8344 74.7751 72.0785V97.1471H61.2573V67.5401C61.2573 62.1122 61.0836 57.5738 60.9029 53.6679H72.6414L73.26 59.7075H73.531C75.3102 56.8719 79.6679 52.688 86.9584 52.688C95.8475 52.688 102.513 58.6441 102.513 71.446V97.1541Z" fill="white"/>
</svg>
