<?xml version="1.0" encoding="UTF-8" standalone="no"?>
<svg
   viewBox="0 0 24 24"
   version="1.1"
   id="svg826"
   sodipodi:docname="o365-list.svg"
   inkscape:version="1.1.2 (b8e25be8, 2022-02-05)"
   xmlns:inkscape="http://www.inkscape.org/namespaces/inkscape"
   xmlns:sodipodi="http://sodipodi.sourceforge.net/DTD/sodipodi-0.dtd"
   xmlns="http://www.w3.org/2000/svg"
   xmlns:svg="http://www.w3.org/2000/svg">
  <defs
     id="defs830" />
  <sodipodi:namedview
     id="namedview828"
     pagecolor="#ffffff"
     bordercolor="#666666"
     borderopacity="1.0"
     inkscape:pageshadow="2"
     inkscape:pageopacity="0.0"
     inkscape:pagecheckerboard="0"
     showgrid="false"
     inkscape:zoom="21.609764"
     inkscape:cx="14.461056"
     inkscape:cy="14.044577"
     inkscape:window-width="1920"
     inkscape:window-height="1027"
     inkscape:window-x="1728"
     inkscape:window-y="25"
     inkscape:window-maximized="1"
     inkscape:current-layer="svg826" />
  <g
     id="g1026"
     transform="matrix(0.72275673,0,0,0.72275673,4.2502132,6.8035999)">
    <path
       style="stroke-width:0.75057"
       d="m 12.117087,19.345255 h 5.253995 v 1.50114 h -5.253995 z"
       id="path1003" />
    <path
       style="stroke-width:0.75057"
       d="m 12.117087,16.342971 h 10.507989 v 1.501142 H 12.117087 Z"
       id="path1001" />
    <path
       style="stroke-width:0.75057"
       d="m 12.117087,13.340689 h 10.507989 v 1.501142 H 12.117087 Z"
       id="path999" />
  </g>
  <g
     id="g1259"
     transform="translate(-0.01015896,0.02595803)">
    <path
       style="stroke-width:0.72578"
       d="M 9.9106949,17.921458 H 3.3786653 V 3.4058499 h 5.2256174 l 2.4676623,2.4676529 0.435468,0.4354682 h 9.289986 v 5.806244 H 22.24896 V 6.308971 c 0,-0.7983582 -0.653203,-1.4515605 -1.451561,-1.4515605 H 12.088036 L 9.6203794,2.3897578 C 9.3300652,2.0994457 8.9671725,1.9542896 8.6042827,1.9542896 H 3.3786653 c -0.7983586,0 -1.4515602,0.6532022 -1.4515602,1.4515603 V 17.921458 c 0,0.798358 0.6532016,1.451561 1.4515602,1.451561 h 6.5320296 c 0,0 0,-1.451561 0,-1.451561 z"
       id="path912" />
    <path
       d="m 11.559984,8.4114364 v 5.6231806 q 0,0.294339 -0.171332,0.527173 -0.171332,0.228443 -0.461274,0.307518 l -2.5172485,0.724861 q -0.052723,0.01316 -0.1186084,0.02637 H 8.194874 q -0.1449704,0 -0.2635864,-0.03954 -0.1186084,-0.03954 -0.241619,-0.105428 L 6.0422495,14.54423 q -0.092255,-0.05272 -0.1449721,-0.136189 -0.052716,-0.08347 -0.052716,-0.188903 0,-0.158151 0.1142202,-0.267982 0.1098278,-0.109826 0.267979,-0.109826 h 2.135047 V 8.653055 L 6.7539332,9.2241642 Q 6.56503,9.2944546 6.4464157,9.4701802 6.3278073,9.6371138 6.3278073,9.8435974 v 2.9565556 q 0,0.184511 -0.092265,0.333877 -0.087865,0.149371 -0.2504069,0.237228 l -0.755613,0.41295 q -0.1054356,0.05712 -0.2108687,0.05712 -0.1801167,0 -0.3075171,-0.127409 Q 4.583737,13.58651 4.583737,13.402009 V 9.2373472 q 0,-0.228444 0.1186137,-0.4261356 0.123006,-0.219655 0.3206965,-0.3338778 L 7.7291977,6.9397494 q 0.092247,-0.05272 0.1976898,-0.07907 0.1054276,-0.02636 0.2108688,-0.02636 0.074685,0 0.1361892,0.01322 0.061504,0.0089 0.1361893,0.03074 l 2.5172482,0.698502 q 0.144971,0.03954 0.259193,0.118609 0.114226,0.07907 0.197689,0.188903 0.08787,0.114227 0.13179,0.246013 0.04394,0.13619 0.04394,0.281158 M 10.980108,14.034643 V 8.4114594 q 0,-0.101046 -0.05272,-0.175714 -0.0659,-0.08347 -0.162551,-0.101046 L 9.5259795,7.7920374 Q 9.3897903,7.7524974 9.2360351,7.7129674 9.0910647,7.6646474 8.9504849,7.6294974 V 14.834195 L 10.764834,14.30263 q 0.09665,-0.01756 0.162551,-0.09224 0.05272,-0.07469 0.05272,-0.175732"
       id="path911-4"
       style="stroke-width:0.43931" />
  </g>
</svg>
