<svg width="61" height="61" viewBox="0 0 61 61" fill="none" xmlns="http://www.w3.org/2000/svg">
<g clip-path="url(#clip0_5_11)">
<g clip-path="url(#clip1_5_11)">
<mask id="mask0_5_11" style="mask-type:luminance" maskUnits="userSpaceOnUse" x="0" y="0" width="61" height="61">
<path d="M61 0.530029H0V60.53H61V0.530029Z" fill="white"/>
</mask>
<g mask="url(#mask0_5_11)">
<path fill-rule="evenodd" clip-rule="evenodd" d="M0 30.5186C0 13.9567 13.6574 0.530029 30.5 0.530029C38.589 0.530029 46.3572 3.68792 52.0631 9.32215C57.769 14.9564 61 22.5898 61 30.5414C61 47.1033 47.3426 60.53 30.5 60.53C13.6574 60.53 0 47.1033 0 30.5186Z" fill="#A051FE"/>
<path fill-rule="evenodd" clip-rule="evenodd" d="M22.8924 17.9326C22.732 17.9326 22.5946 17.978 22.4571 18.0462C20.303 19.3184 18.5157 21.1132 17.2553 23.2487C15.9492 25.4524 15.2617 27.9742 15.2617 30.5414C15.2617 34.4263 16.797 38.1067 19.5927 40.8784C22.3883 43.6501 26.0776 45.1722 30.019 45.1722C35.7478 45.1722 40.9954 41.7872 43.3785 36.5619C43.5848 36.1302 43.3785 35.6304 42.9432 35.4259L30.6148 29.8599L23.6486 18.3415C23.4882 18.0689 23.1903 17.9326 22.8924 17.9326ZM22.6175 19.9772L29.2628 30.9731C29.3545 31.1094 29.492 31.2457 29.6524 31.3139L41.4308 36.6073C39.1622 40.7875 34.7854 43.4456 30.019 43.4456C22.8237 43.4456 17.0033 37.6524 17.0033 30.5414C17.0033 26.3839 19.1344 22.4081 22.6404 20L22.6175 19.9772Z" fill="white"/>
<path fill-rule="evenodd" clip-rule="evenodd" d="M39.2994 18.5459C39.0015 18.5459 38.7036 18.7049 38.5432 18.9775L33.3644 27.7242C33.1123 28.1559 33.2727 28.7238 33.7539 28.951L43.0346 33.1313C43.0346 33.1313 43.2637 33.1994 43.4012 33.1994C43.7908 33.1994 44.1116 32.9495 44.2261 32.586C45.7844 27.5197 44.0428 22.0218 39.8494 18.7503C39.6889 18.614 39.5056 18.5686 39.3223 18.5686L39.2994 18.5459ZM39.5056 20.7041C41.7513 22.817 43.0346 25.7477 43.0346 28.8147C43.0346 29.5871 42.9658 30.3596 42.8054 31.1093L35.3351 27.7469L39.5056 20.7041Z" fill="white"/>
<path fill-rule="evenodd" clip-rule="evenodd" d="M31.7377 15.9106C29.9503 15.9106 28.14 16.2741 26.4672 17.0238C25.986 17.2283 25.8027 17.7962 26.0777 18.2506L30.7753 26.0204C30.9357 26.2703 31.2107 26.4293 31.5086 26.4293C31.8064 26.4293 32.1043 26.2703 32.2418 25.9977L36.9394 18.0461C37.2144 17.5918 37.0082 17.0238 36.527 16.8193C34.9687 16.2059 33.3418 15.9106 31.6919 15.9106H31.7377ZM31.7377 17.6145C32.8147 17.6145 33.9146 17.7735 34.9687 18.0689L31.5315 23.8621L28.1171 18.2052C29.2858 17.7962 30.5232 17.6145 31.7606 17.6145H31.7377Z" fill="white"/>
</g>
</g>
</g>
<defs>
<clipPath id="clip0_5_11">
<rect width="61" height="60" fill="white" transform="translate(0 0.530029)"/>
</clipPath>
<clipPath id="clip1_5_11">
<rect width="61" height="60" fill="white" transform="translate(0 0.530029)"/>
</clipPath>
</defs>
</svg>
