<?xml version="1.0" encoding="UTF-8"?>
<svg id="Layer_1" xmlns="http://www.w3.org/2000/svg" version="1.1" viewBox="0 0 302.7 297.5">
  <!-- Generator: Adobe Illustrator 29.7.1, SVG Export Plug-In . SVG Version: 2.1.1 Build 8)  -->
  <defs>
    <style>
      .st0 {
        fill: #f0f;
      }

      .st1 {
        fill: #00005b;
      }
    </style>
  </defs>
  <path class="st1" d="M271.8,268.5c-3.9,3.9-9.6,5.3-14.9,5.5H42.9c-9.9-.6-17.2-4.7-19.6-14.8-.8-74.3-.8-148.9,0-223.2,1.5-8.3,8.4-14.4,16.9-14.8h219.7c9,.7,15.7,7,16.9,15.9.7,73.5.7,147.2,0,220.6-.5,3.9-2.2,8-5.1,10.8Z"/>
  <g>
    <path class="st0" d="M167.4,145.9h-52v-23.1c-.8-.9-1.9-1-3.1-1v48.7c0,.8,2.3,1.2,3.1,1v-22.2h52c-.2,9.3.3,18.7,0,28.1-.2,6.3-.4,16.7-3.2,22.3s-13.7,7.2-20.6,7.6c-17.8,1-39.1,1.1-56.9.4s-17-.9-21.2-5.6c-5.3-5.9-4.3-19.7-4.6-27.1-.6-18.3-.6-36.7,0-55,.3-8.8-1.3-24.8,7.9-29.6,5.1-2.6,10.1-2.4,15.6-2.7,18-1,39.2-1.1,57.3-.4,6.3.3,16.7.7,21,5.7,4.5,5.2,4.6,17.9,4.8,24.6s-.2,18.7,0,28.1Z"/>
    <path class="st0" d="M222.4,87.5v17.2h17.2v51.6h-17.6c-.2,1.4.6,3.4,2.1,3.4h15.5v48.1c-14.2-.4-28.8.6-43,0-5.1-.2-12.7-.7-17.4-2.9-10.8-5-7.4-23.2-8.8-32.8v-84.6h52Z"/>
  </g>
</svg>