<?xml version="1.0" encoding="UTF-8"?>
<svg id="Layer_1" xmlns="http://www.w3.org/2000/svg" version="1.1" viewBox="0 0 841.9 595.3">
  <!-- Generator: Adobe Illustrator 29.7.1, SVG Export Plug-In . SVG Version: 2.1.1 Build 8)  -->
  <defs>
    <style>
      .st0 {
        fill: #f0f;
      }

      .st1 {
        fill: #00005b;
      }
    </style>
  </defs>
  <path class="st1" d="M326.3,81.5l249.5-.2c24.8,1.4,39.7,16.8,41.8,41.3,1.2,14.2,1.8,45.9-2.4,58.9-7.3,22.2-26.4,27.5-47.5,28.2-77,2.7-155.6-2.1-232.7,0-30.1.2-48.1-14.7-49.5-45.1-.6-11.9-.6-26.8,0-38.6,1.2-25.4,14.7-42.7,41-44.5Z"/>
  <path class="st1" d="M244.6,240.8c8.3,8.2,10.3,18.2,10.8,29.5.7,15.3.7,34.5,0,49.7-1.1,23.2-12.6,37.2-36.4,38.8H66.9c-25.4-2.2-35-17.2-36-41.3-.6-14.2-.6-31.2,0-45.4,1.1-27,12.1-40.5,39.8-41.7,50.1-2.3,102.3,1.3,152.5.6,7.9.8,15.7,4.2,21.4,9.8Z"/>
  <path class="st1" d="M497.6,230.6c50.1-2.7,102.6,1.3,152.9.3,19.8,2.2,31.4,15.9,32.6,35.4,1,16.6,1,40.4,0,57-1.3,21.1-14.9,34.2-35.9,35.5h-152.1c-21.4-1.3-34.7-14.6-36-36-1-16.6-.9-39.4,0-56,1.3-24,15.5-35,38.5-36.3Z"/>
  <path class="st1" d="M390.5,380.2c28.6-1.8,59,.7,87.7.3,19.4,1.5,35.3,16.4,38.3,35.5s1.7,33,1.1,46.3c-1.5,31.3-19.3,44.9-49.5,46.1-22.7.9-49.8,1-72.5,0-19.5-.8-36-6.6-44.6-25.4-6-13.1-5.3-46.8-3.9-61.7,2.4-25,18.6-39.6,43.3-41.1Z"/>
  <ellipse class="st0" cx="255.5" cy="446.3" rx="66.4" ry="66.4"/>
  <ellipse class="st0" cx="722" cy="145.3" rx="66.4" ry="66.4"/>
  <ellipse class="st0" cx="616.9" cy="446.3" rx="66.4" ry="66.4"/>
  <ellipse class="st0" cx="356.7" cy="292.6" rx="66.4" ry="66.4"/>
  <ellipse class="st0" cx="181.1" cy="145.3" rx="66.4" ry="66.4"/>
  <path class="st1" d="M757.8,382.2c31.4-2,49.9,12.7,51.3,44.5.6,14.5,1.7,47.5-3.8,59.9-14.9,33.9-74.5,32.3-85.7-3.8-3.8-12.5-3-43.6-2.3-57.5,1.2-25,14.8-41.4,40.4-43.1Z"/>
  <path class="st1" d="M116.3,382.2c25.7-1.7,46.2,9.7,48.9,36.8s1.7,44-.5,59.3c-6.5,43.5-81.9,45.2-86.8-4.3-1.4-14-1.1-33.1-.5-47.3,1-25.3,12.2-42.7,39-44.5Z"/>
</svg>