<?xml version="1.0" encoding="UTF-8"?>
<svg id="Layer_1" xmlns="http://www.w3.org/2000/svg" version="1.1" viewBox="0 0 504 144">
  <!-- Generator: Adobe Illustrator 29.2.1, SVG Export Plug-In . SVG Version: 2.1.0 Build 116)  -->
  <defs>
    <style>
      .st0 {
        stroke: #eb0feb;
      }

      .st0, .st1 {
        fill: none;
        stroke-miterlimit: 10;
        stroke-width: 1.6px;
      }

      .st2, .st3 {
        fill: #080053;
      }

      .st2, .st4 {
        fill-rule: evenodd;
      }

      .st5 {
        fill: #eb0feb;
      }

      .st1 {
        stroke: #080053;
      }

      .st4 {
        fill: #f800fa;
      }
    </style>
  </defs>
  <polygon class="st5" points="246.1 69.7 246.1 63.7 240.1 63.7 240.1 45.7 246.1 45.7 246.1 39.7 282.1 39.7 282.1 45.7 252.1 45.7 252.1 63.7 282.1 63.7 282.1 69.7 246.1 69.7"/>
  <polygon class="st0" points="246.1 69.7 246.1 63.7 240.1 63.7 240.1 45.7 246.1 45.7 246.1 39.7 282.1 39.7 282.1 45.7 252.1 45.7 252.1 63.7 282.1 63.7 282.1 69.7 246.1 69.7"/>
  <polygon class="st5" points="288.1 69.7 288.1 27.7 300.1 27.7 300.1 39.7 324.1 39.7 324.1 45.7 330.1 45.7 330.1 69.7 318.1 69.7 318.1 45.7 300.1 45.7 300.1 69.7 288.1 69.7"/>
  <polygon class="st0" points="288.1 69.7 288.1 27.7 300.1 27.7 300.1 39.7 324.1 39.7 324.1 45.7 330.1 45.7 330.1 69.7 318.1 69.7 318.1 45.7 300.1 45.7 300.1 69.7 288.1 69.7"/>
  <path class="st5" d="M342.1,69.7v-6h-6v-18h6v-6h30v6h6v12h-30v6h24v6h-30ZM348.1,51.7h18v-6h-18v6Z"/>
  <path class="st0" d="M342.1,69.7v-6h-6v-18h6v-6h30v6h6v12h-30v6h24v6h-30ZM348.1,51.7h18v-6h-18v6Z"/>
  <polygon class="st5" points="384.1 69.7 384.1 39.7 420.1 39.7 420.1 45.7 426.1 45.7 426.1 69.7 414.1 69.7 414.1 45.7 408.1 45.7 408.1 69.7 396.1 69.7 396.1 45.7 390.1 45.7 390.1 69.7 384.1 69.7"/>
  <polygon class="st0" points="384.1 69.7 384.1 39.7 420.1 39.7 420.1 45.7 426.1 45.7 426.1 69.7 414.1 69.7 414.1 45.7 408.1 45.7 408.1 69.7 396.1 69.7 396.1 45.7 390.1 45.7 390.1 69.7 384.1 69.7"/>
  <path class="st5" d="M438.1,69.7v-6h-6v-18h6v-6h30v6h6v18h-6v6h-30ZM444.1,63.7h18v-18h-18v18Z"/>
  <path class="st0" d="M438.1,69.7v-6h-6v-18h6v-6h30v6h6v18h-6v6h-30ZM444.1,63.7h18v-18h-18v18Z"/>
  <polygon class="st5" points="258.1 117.7 258.1 93.7 246.1 93.7 246.1 87.7 258.1 87.7 258.1 75.7 270.1 75.7 270.1 87.7 282.1 87.7 282.1 93.7 270.1 93.7 270.1 117.7 258.1 117.7"/>
  <polygon class="st0" points="258.1 117.7 258.1 93.7 246.1 93.7 246.1 87.7 258.1 87.7 258.1 75.7 270.1 75.7 270.1 87.7 282.1 87.7 282.1 93.7 270.1 93.7 270.1 117.7 258.1 117.7"/>
  <path class="st5" d="M294.1,117.7v-6h-6v-18h6v-6h30v6h6v18h-6v6h-30ZM300.1,111.7h18v-18h-18v18Z"/>
  <path class="st0" d="M294.1,117.7v-6h-6v-18h6v-6h30v6h6v18h-6v6h-30ZM300.1,111.7h18v-18h-18v18Z"/>
  <path class="st5" d="M342.1,117.7v-6h-6v-18h6v-6h30v6h6v18h-6v6h-30ZM348.1,111.7h18v-18h-18v18Z"/>
  <path class="st0" d="M342.1,117.7v-6h-6v-18h6v-6h30v6h6v18h-6v6h-30ZM348.1,111.7h18v-18h-18v18Z"/>
  <polygon class="st5" points="390.1 117.7 390.1 111.7 402.1 111.7 402.1 81.7 396.1 81.7 396.1 75.7 414.1 75.7 414.1 111.7 426.1 111.7 426.1 117.7 390.1 117.7"/>
  <polygon class="st0" points="390.1 117.7 390.1 111.7 402.1 111.7 402.1 81.7 396.1 81.7 396.1 75.7 414.1 75.7 414.1 111.7 426.1 111.7 426.1 117.7 390.1 117.7"/>
  <polygon class="st5" points="432.1 117.7 432.1 111.7 462.1 111.7 462.1 105.7 438.1 105.7 438.1 99.7 432.1 99.7 432.1 93.7 438.1 93.7 438.1 87.7 468.1 87.7 468.1 93.7 444.1 93.7 444.1 99.7 468.1 99.7 468.1 105.7 474.1 105.7 474.1 111.7 468.1 111.7 468.1 117.7 432.1 117.7"/>
  <polygon class="st0" points="432.1 117.7 432.1 111.7 462.1 111.7 462.1 105.7 438.1 105.7 438.1 99.7 432.1 99.7 432.1 93.7 438.1 93.7 438.1 87.7 468.1 87.7 468.1 93.7 444.1 93.7 444.1 99.7 468.1 99.7 468.1 105.7 474.1 105.7 474.1 111.7 468.1 111.7 468.1 117.7 432.1 117.7"/>
  <polygon class="st3" points="243.3 66.9 243.3 60.9 237.3 60.9 237.3 42.9 243.3 42.9 243.3 36.9 279.3 36.9 279.3 42.9 249.3 42.9 249.3 60.9 279.3 60.9 279.3 66.9 243.3 66.9"/>
  <polygon class="st1" points="243.3 66.9 243.3 60.9 237.3 60.9 237.3 42.9 243.3 42.9 243.3 36.9 279.3 36.9 279.3 42.9 249.3 42.9 249.3 60.9 279.3 60.9 279.3 66.9 243.3 66.9"/>
  <polygon class="st3" points="285.3 66.9 285.3 24.9 297.3 24.9 297.3 36.9 321.3 36.9 321.3 42.9 327.3 42.9 327.3 66.9 315.3 66.9 315.3 42.9 297.3 42.9 297.3 66.9 285.3 66.9"/>
  <polygon class="st1" points="285.3 66.9 285.3 24.9 297.3 24.9 297.3 36.9 321.3 36.9 321.3 42.9 327.3 42.9 327.3 66.9 315.3 66.9 315.3 42.9 297.3 42.9 297.3 66.9 285.3 66.9"/>
  <path class="st3" d="M339.3,66.9v-6h-6v-18h6v-6h30v6h6v12h-30v6h24v6h-30ZM345.3,48.9h18v-6h-18v6Z"/>
  <path class="st1" d="M339.3,66.9v-6h-6v-18h6v-6h30v6h6v12h-30v6h24v6h-30ZM345.3,48.9h18v-6h-18v6Z"/>
  <polygon class="st3" points="381.3 66.9 381.3 36.9 417.3 36.9 417.3 42.9 423.3 42.9 423.3 66.9 411.3 66.9 411.3 42.9 405.3 42.9 405.3 66.9 393.3 66.9 393.3 42.9 387.3 42.9 387.3 66.9 381.3 66.9"/>
  <polygon class="st1" points="381.3 66.9 381.3 36.9 417.3 36.9 417.3 42.9 423.3 42.9 423.3 66.9 411.3 66.9 411.3 42.9 405.3 42.9 405.3 66.9 393.3 66.9 393.3 42.9 387.3 42.9 387.3 66.9 381.3 66.9"/>
  <path class="st3" d="M435.3,66.9v-6h-6v-18h6v-6h30v6h6v18h-6v6h-30ZM441.2,60.9h18v-18h-18v18Z"/>
  <path class="st1" d="M435.3,66.9v-6h-6v-18h6v-6h30v6h6v18h-6v6h-30ZM441.2,60.9h18v-18h-18v18Z"/>
  <polygon class="st3" points="255.3 114.8 255.3 90.8 243.3 90.8 243.3 84.8 255.3 84.8 255.3 72.8 267.3 72.8 267.3 84.8 279.3 84.8 279.3 90.8 267.3 90.8 267.3 114.8 255.3 114.8"/>
  <polygon class="st1" points="255.3 114.8 255.3 90.8 243.3 90.8 243.3 84.8 255.3 84.8 255.3 72.8 267.3 72.8 267.3 84.8 279.3 84.8 279.3 90.8 267.3 90.8 267.3 114.8 255.3 114.8"/>
  <path class="st3" d="M291.3,114.8v-6h-6v-18h6v-6h30v6h6v18h-6v6h-30ZM297.3,108.8h18v-18h-18v18Z"/>
  <path class="st1" d="M291.3,114.8v-6h-6v-18h6v-6h30v6h6v18h-6v6h-30ZM297.3,108.8h18v-18h-18v18Z"/>
  <path class="st3" d="M339.3,114.8v-6h-6v-18h6v-6h30v6h6v18h-6v6h-30ZM345.3,108.8h18v-18h-18v18Z"/>
  <path class="st1" d="M339.3,114.8v-6h-6v-18h6v-6h30v6h6v18h-6v6h-30ZM345.3,108.8h18v-18h-18v18Z"/>
  <polygon class="st3" points="387.3 114.8 387.3 108.8 399.3 108.8 399.3 78.8 393.3 78.8 393.3 72.8 411.3 72.8 411.3 108.8 423.3 108.8 423.3 114.8 387.3 114.8"/>
  <polygon class="st1" points="387.3 114.8 387.3 108.8 399.3 108.8 399.3 78.8 393.3 78.8 393.3 72.8 411.3 72.8 411.3 108.8 423.3 108.8 423.3 114.8 387.3 114.8"/>
  <polygon class="st3" points="429.3 114.8 429.3 108.8 459.2 108.8 459.2 102.8 435.3 102.8 435.3 96.8 429.3 96.8 429.3 90.8 435.3 90.8 435.3 84.8 465.2 84.8 465.2 90.8 441.2 90.8 441.2 96.8 465.2 96.8 465.2 102.8 471.2 102.8 471.2 108.8 465.2 108.8 465.2 114.8 429.3 114.8"/>
  <polygon class="st1" points="429.3 114.8 429.3 108.8 459.2 108.8 459.2 102.8 435.3 102.8 435.3 96.8 429.3 96.8 429.3 90.8 435.3 90.8 435.3 84.8 465.2 84.8 465.2 90.8 441.2 90.8 441.2 96.8 465.2 96.8 465.2 102.8 471.2 102.8 471.2 108.8 465.2 108.8 465.2 114.8 429.3 114.8"/>
  <polygon class="st2" points="128 49.6 82.8 49.6 82.8 26.6 173.1 26.6 173.1 49.6 128 49.6"/>
  <polygon class="st2" points="164.6 83 136.4 83 136.4 60 192.8 60 192.8 83 164.6 83"/>
  <polygon class="st2" points="63 83 34.7 83 34.7 60 91.2 60 91.2 83 63 83"/>
  <polygon class="st2" points="128 117 105.4 117 105.4 93.9 150.5 93.9 150.5 117 128 117"/>
  <polygon class="st2" points="198.5 116.9 190.1 116.9 190.1 93.9 207 93.9 207 116.9 198.5 116.9"/>
  <polygon class="st2" points="57.1 116.9 48.6 116.9 48.6 93.9 65.6 93.9 65.6 116.9 57.1 116.9"/>
  <path class="st4" d="M205.8,38.7c0,2-.5,4.1-1.6,5.8-1,1.8-2.5,3.2-4.3,4.3-1.8,1-3.8,1.6-5.8,1.6s-4.1-.5-5.9-1.6c-1.8-1-3.3-2.5-4.3-4.3-1-1.8-1.6-3.8-1.6-5.8s.5-4.1,1.6-5.8c1-1.8,2.5-3.3,4.3-4.3,1.8-1,3.8-1.6,5.9-1.6s4.1.5,5.8,1.6c1.8,1,3.3,2.5,4.3,4.3,1,1.8,1.6,3.8,1.6,5.8Z"/>
  <path class="st4" d="M73.8,38.7c0,2-.5,4.1-1.6,5.8-1,1.8-2.5,3.2-4.3,4.3-1.8,1-3.8,1.6-5.8,1.6s-4.1-.5-5.8-1.6c-1.8-1-3.3-2.5-4.3-4.3-1-1.8-1.6-3.8-1.6-5.8s.5-4.1,1.6-5.8c1-1.8,2.5-3.3,4.3-4.3,1.8-1,3.8-1.6,5.8-1.6s4.1.5,5.8,1.6c1.8,1,3.3,2.5,4.3,4.3,1,1.8,1.6,3.8,1.6,5.8Z"/>
  <path class="st4" d="M125.7,72.1c0,2-.5,4.1-1.6,5.8-1,1.8-2.5,3.2-4.3,4.3-1.8,1-3.8,1.6-5.8,1.6s-4.1-.5-5.9-1.6c-1.8-1-3.3-2.5-4.3-4.3-1-1.8-1.6-3.8-1.6-5.8s.5-4.1,1.6-5.8c1-1.8,2.5-3.3,4.3-4.3,1.8-1,3.8-1.6,5.9-1.6s4.1.5,5.8,1.6c1.8,1,3.3,2.5,4.3,4.3,1,1.8,1.6,3.8,1.6,5.8Z"/>
  <path class="st4" d="M97.4,106c0,2-.5,4.1-1.6,5.8-1,1.8-2.5,3.3-4.3,4.3-1.8,1-3.8,1.6-5.9,1.6s-4.1-.5-5.8-1.6c-1.8-1-3.3-2.5-4.3-4.3-1-1.8-1.6-3.8-1.6-5.8s.5-4.1,1.6-5.8c1-1.8,2.5-3.3,4.3-4.3,1.8-1,3.8-1.6,5.9-1.6s4.1.5,5.8,1.6c1.8,1,3.3,2.5,4.3,4.3,1,1.8,1.6,3.8,1.6,5.8Z"/>
  <path class="st4" d="M182.2,106c0,2-.5,4.1-1.6,5.8-1,1.8-2.5,3.3-4.3,4.3-1.8,1-3.8,1.6-5.9,1.6s-4.1-.5-5.8-1.6c-1.8-1-3.3-2.5-4.3-4.3-1-1.8-1.6-3.8-1.6-5.8s.5-4.1,1.6-5.8c1-1.8,2.5-3.3,4.3-4.3,1.8-1,3.8-1.6,5.8-1.6s4.1.5,5.9,1.6c1.8,1,3.2,2.5,4.3,4.3,1,1.8,1.6,3.8,1.6,5.8Z"/>
</svg>