<?xml version="1.0" encoding="UTF-8"?>
<svg id="Layer_1" xmlns="http://www.w3.org/2000/svg" version="1.1" viewBox="0 0 841.9 595.3">
  <!-- Generator: Adobe Illustrator 29.7.1, SVG Export Plug-In . SVG Version: 2.1.1 Build 8)  -->
  <defs>
    <style>
      .st0 {
        fill: #f0f;
      }

      .st1 {
        fill: #00005b;
      }
    </style>
  </defs>
  <path class="st1" d="M174,196.3c32.8,1.2,67.5-2.1,100.1-.2,12.2.7,19.6,5.4,20.6,18.3,1.1,14.4,2,33.9-16.7,35.8h-105.4c-7.8-.4-15.5-5.5-16.9-13.5-2.7-15-2.9-41,18.2-40.4Z"/>
  <path class="st1" d="M725,269.3h-31.3l-.8-.8v-42.8c0-1.9-4-3-5.6-2.5v45.3l-.8.8h-29v-43.1c0-2.4-3.5-3.7-5.6-3.1v45.3l-.8.8h-31l-.8-.8v-66.7h93.8c.4,0,4,.7,4.7.9,2.9.9,4.6,2.1,5.7,5s1.7,5.3,1.7,6.2v55.5Z"/>
  <path class="st1" d="M67,258.8c16.8-1.1,39.3-1.1,56.2-.2,9,.5,17.9,2.1,19.4,12.8,1.1,8,1.2,21.2,0,29.2s-6.6,11.3-13.2,12.1c-21.5-1.4-45.3,1.9-66.5,0-17.1-1.5-15-22-14.4-34.7s4.5-18.3,18.5-19.2Z"/>
  <path class="st1" d="M232.4,308.6c-1.6-1.6-3.8-5.8-4.1-8-.8-5.8-.7-22.7,0-28.7s3.9-9.5,8.2-11.5,7.8-1.6,11.2-1.8c16.6-.9,38.1-.9,54.7,0s15.2,1,18.4,9.2c2.5,6.4,2.6,30.9-.4,37s-7.4,7.5-12.4,7.9c-21.2,1.8-45-1.4-66.5,0-2.7-.3-7.2-2.2-9.1-4.1Z"/>
  <path class="st1" d="M504.6,190.5v10.4l.8.8h23.1c.4,0,4,.7,4.7.9,2.9.9,4.6,2.1,5.7,5s1.7,5.3,1.7,6.2v55.5h-30.1l-.8-.8v-42.8c0-1.9-4-3-5.6-2.5v45.3l-.8.8h-31.6l-.8-.8v-78h33.8Z"/>
  <path class="st1" d="M741.5,201.9c8.9-1,42-1.4,49.7.6s5.8,3.2,6.9,7.2c2.2,7.7,1.6,35.6,1,44.7s-1.9,12.9-10.6,14.2-28.1,1.3-39.3.7-9-.5-12.1-1.4c-4.8-1.4-6.5-4.3-7.2-9.2-1.6-11.4-1.6-34.5,0-46s3.9-10.1,11.6-10.9ZM767,240.6v-18.9c0-1.5-4.4-1.6-5.6-1.4v19.7l5.6.6Z"/>
  <path class="st0" d="M459.4,302.2c8.9-1,42-1.4,49.7.6,4.1,1.1,5.8,3.2,6.9,7.2,2.2,7.7,1.6,35.6,1,44.7-.5,8-1.9,12.9-10.6,14.2-10.9,1.6-28.1,1.3-39.3.7-3.4-.2-9-.5-12.1-1.4-4.8-1.4-6.5-4.3-7.2-9.2-1.6-11.4-1.6-34.5,0-46,1.1-7.8,3.9-10.1,11.6-10.9ZM484.3,319.5l-5.6-.6v18.9c0,1.5,4.4,1.6,5.6,1.4v-19.7Z"/>
  <path class="st0" d="M533.6,302.2c8.9-1,42-1.4,49.7.6,4.1,1.1,5.8,3.2,6.9,7.2,2.2,7.7,1.6,35.6,1,44.7-.5,8-1.9,12.9-10.6,14.2-10.9,1.6-28.1,1.3-39.3.7-3.4-.2-9-.5-12.1-1.4-4.8-1.4-6.5-4.3-7.2-9.2-1.6-11.4-1.6-34.5,0-46,1.1-7.8,3.9-10.1,11.6-10.9ZM559.6,339.2v-18.9c0-1.5-4.4-1.6-5.6-1.4v19.7l5.6.6Z"/>
  <path class="st1" d="M614.8,254.7h-36.6c-.3,1.6-.1,5.1,2,5.1h34.7v9.6h-52.7c-.2,0-.9-.5-1.7-.6-7.3-.7-13.5-.3-14.8-9.4-1.7-11.7-1.6-35.2,0-47,1.1-7.9,4.9-9.9,12.5-10.6s40.9-1.2,48.8.8c3.1.8,4.9,2.1,6.2,5.1s1.7,5.3,1.7,6.2v40.8ZM583.8,240.6v-18.9c0-1.5-4.4-1.6-5.6-1.4v19.7l5.6.6Z"/>
  <path class="st1" d="M467.7,230.5h-31.3l-.8-.8v-14.6c0-2.3-4-2.2-5.6-2v39.1c0,1.5,4.3,2.5,5.6,2v-17.5h32.1v20c0,.7-1.1,5-1.4,5.9-1.5,4.1-5.6,5.6-9.6,6.2-11.6,1.6-35.6,1.6-47.2,0-7-1-10-3.1-11-10.4-1.6-11.3-1.5-34.1,0-45.5,1.1-8.2,4.5-10.4,12.6-11,11.6-1,31.1-.8,42.8,0,3.3.2,8.4.9,10.6,3.4s3.1,6.9,3.1,8.7v16.6Z"/>
  <path class="st0" d="M696.6,302v18.6h-42.8c-.5,1.8.4,5.6,2.5,5.6h40.3v30.7c0,.7-1.1,5-1.4,5.9-1.4,3.9-5.2,5.5-9.1,6.1-16.1,2.3-34.2-.3-50.6.7l-1.9-.9v-30.1h42c2.1,0,2.2-3.5,2-5.1h-43.9v-31.5h63.1Z"/>
  <path class="st1" d="M196,321.9c8.9-1.2,31.2-1,40.4-.1,8.1.7,15.1,7.4,16.1,15.5,1.6,14,2.5,36.2-16.1,38-11.1,1.1-28.3,1.2-39.4,0-17.3-2-17.1-20.6-16.1-34s5.3-17.9,15.1-19.3Z"/>
  <path class="st0" d="M431.6,290.7v10.4l.8.8h10.4v31.5h-11.8l.6,5.1h11.3v31c-8.3-.3-16.8.4-25.1,0-3.8-.2-10.4-.6-13.8-2-1.3-.5-2.7-1.5-3.5-2.7-2.1-3.1-2.5-10.9-2.7-14.7-.9-19.5.8-39.8,0-59.4h33.8Z"/>
  <path class="st0" d="M629.2,290.7v78.8c-4.6-.2-9.2.2-13.8,0s-10.7-.6-14.2-2.2-2.8-1.8-3.7-3.7c-1.6-3.4-2-9.7-2.2-13.6-.9-19.5.8-39.8,0-59.4h33.8Z"/>
  <ellipse class="st0" cx="142.9" cy="349.3" rx="28" ry="28"/>
  <ellipse class="st0" cx="338.3" cy="223.3" rx="28" ry="27.9"/>
  <ellipse class="st0" cx="185.2" cy="284.9" rx="28" ry="27.9"/>
  <ellipse class="st0" cx="111.7" cy="223.3" rx="27.9" ry="27.9"/>
  <ellipse class="st0" cx="294.3" cy="349.3" rx="27.9" ry="27.9"/>
  <path class="st1" d="M352.1,322.4c10.7-1.1,21.2,3,22.6,14.8.6,5.3.7,23.7-.9,28.2-5.3,14.8-31.6,14.6-36.5-.4-1.5-4.6-1.3-21.4-.9-26.8.8-8.9,6.9-14.9,15.7-15.9Z"/>
  <path class="st1" d="M83.3,322.4c8.3-.9,16.9,1.3,20.4,9.7s2.5,28.4,0,34.5c-5,12.9-27.6,13.1-33.8.9-2.6-5-2.3-23-1.8-29.2s6.4-14.9,15.1-15.9Z"/>
</svg>