<?xml version="1.0" encoding="utf-8" standalone="no"?>
<!DOCTYPE svg PUBLIC "-//W3C//DTD SVG 1.1//EN"
  "http://www.w3.org/Graphics/SVG/1.1/DTD/svg11.dtd">
<svg xmlns:xlink="http://www.w3.org/1999/xlink" width="577.19952pt" height="577.19952pt" viewBox="0 0 577.19952 577.19952" xmlns="http://www.w3.org/2000/svg" version="1.1">
 <metadata>
  <rdf:RDF xmlns:dc="http://purl.org/dc/elements/1.1/" xmlns:cc="http://creativecommons.org/ns#" xmlns:rdf="http://www.w3.org/1999/02/22-rdf-syntax-ns#">
   <cc:Work>
    <dc:type rdf:resource="http://purl.org/dc/dcmitype/StillImage"/>
    <dc:date>2025-01-03T22:24:38.559534</dc:date>
    <dc:format>image/svg+xml</dc:format>
    <dc:creator>
     <cc:Agent>
      <dc:title>Matplotlib v3.10.0, https://matplotlib.org/</dc:title>
     </cc:Agent>
    </dc:creator>
   </cc:Work>
  </rdf:RDF>
 </metadata>
 <defs>
  <style type="text/css">*{stroke-linejoin: round; stroke-linecap: butt}</style>
 </defs>
 <g id="figure_1">
  <g id="patch_1">
   <path d="M 0 577.19952 
L 577.19952 577.19952 
L 577.19952 0 
L 0 0 
z
" style="fill: #ffffff"/>
  </g>
  <g id="axes_1">
   <g id="patch_2">
    <path d="M 62.477212 516.824775 
L 567.09952 516.824775 
L 567.09952 10.1 
L 62.477212 10.1 
z
" style="fill: #ffffff"/>
   </g>
   <g id="patch_3">
    <path d="M 85.41459 516.824775 
L 89.72883 516.824775 
L 89.72883 479.086161 
L 85.41459 479.086161 
z
" clip-path="url(#pd347a088b1)" style="fill: #3f90da"/>
   </g>
   <g id="patch_4">
    <path d="M 99.795391 516.824775 
L 104.109631 516.824775 
L 104.109631 479.086161 
L 99.795391 479.086161 
z
" clip-path="url(#pd347a088b1)" style="fill: #3f90da"/>
   </g>
   <g id="patch_5">
    <path d="M 114.176192 516.824775 
L 118.490432 516.824775 
L 118.490432 479.086161 
L 114.176192 479.086161 
z
" clip-path="url(#pd347a088b1)" style="fill: #3f90da"/>
   </g>
   <g id="patch_6">
    <path d="M 128.556993 516.824775 
L 132.871233 516.824775 
L 132.871233 479.086161 
L 128.556993 479.086161 
z
" clip-path="url(#pd347a088b1)" style="fill: #3f90da"/>
   </g>
   <g id="patch_7">
    <path d="M 142.937794 516.824775 
L 147.252034 516.824775 
L 147.252034 479.086161 
L 142.937794 479.086161 
z
" clip-path="url(#pd347a088b1)" style="fill: #3f90da"/>
   </g>
   <g id="patch_8">
    <path d="M 157.318595 516.824775 
L 161.632835 516.824775 
L 161.632835 479.086161 
L 157.318595 479.086161 
z
" clip-path="url(#pd347a088b1)" style="fill: #3f90da"/>
   </g>
   <g id="patch_9">
    <path d="M 171.699396 516.824775 
L 176.013636 516.824775 
L 176.013636 479.086161 
L 171.699396 479.086161 
z
" clip-path="url(#pd347a088b1)" style="fill: #3f90da"/>
   </g>
   <g id="patch_10">
    <path d="M 186.080197 516.824775 
L 190.394437 516.824775 
L 190.394437 479.086161 
L 186.080197 479.086161 
z
" clip-path="url(#pd347a088b1)" style="fill: #3f90da"/>
   </g>
   <g id="patch_11">
    <path d="M 200.460998 516.824775 
L 204.775238 516.824775 
L 204.775238 479.086161 
L 200.460998 479.086161 
z
" clip-path="url(#pd347a088b1)" style="fill: #3f90da"/>
   </g>
   <g id="patch_12">
    <path d="M 214.841799 516.824775 
L 219.156039 516.824775 
L 219.156039 479.086161 
L 214.841799 479.086161 
z
" clip-path="url(#pd347a088b1)" style="fill: #3f90da"/>
   </g>
   <g id="patch_13">
    <path d="M 229.2226 516.824775 
L 233.53684 516.824775 
L 233.53684 479.086161 
L 229.2226 479.086161 
z
" clip-path="url(#pd347a088b1)" style="fill: #3f90da"/>
   </g>
   <g id="patch_14">
    <path d="M 243.603401 516.824775 
L 247.917641 516.824775 
L 247.917641 479.086161 
L 243.603401 479.086161 
z
" clip-path="url(#pd347a088b1)" style="fill: #3f90da"/>
   </g>
   <g id="patch_15">
    <path d="M 257.984202 516.824775 
L 262.298442 516.824775 
L 262.298442 479.086161 
L 257.984202 479.086161 
z
" clip-path="url(#pd347a088b1)" style="fill: #3f90da"/>
   </g>
   <g id="patch_16">
    <path d="M 272.365003 516.824775 
L 276.679243 516.824775 
L 276.679243 479.086161 
L 272.365003 479.086161 
z
" clip-path="url(#pd347a088b1)" style="fill: #3f90da"/>
   </g>
   <g id="patch_17">
    <path d="M 286.745804 516.824775 
L 291.060044 516.824775 
L 291.060044 479.086161 
L 286.745804 479.086161 
z
" clip-path="url(#pd347a088b1)" style="fill: #3f90da"/>
   </g>
   <g id="patch_18">
    <path d="M 301.126605 516.824775 
L 305.440845 516.824775 
L 305.440845 479.086161 
L 301.126605 479.086161 
z
" clip-path="url(#pd347a088b1)" style="fill: #3f90da"/>
   </g>
   <g id="patch_19">
    <path d="M 315.507406 516.824775 
L 319.821646 516.824775 
L 319.821646 479.086161 
L 315.507406 479.086161 
z
" clip-path="url(#pd347a088b1)" style="fill: #3f90da"/>
   </g>
   <g id="patch_20">
    <path d="M 329.888207 516.824775 
L 334.202447 516.824775 
L 334.202447 479.086161 
L 329.888207 479.086161 
z
" clip-path="url(#pd347a088b1)" style="fill: #3f90da"/>
   </g>
   <g id="patch_21">
    <path d="M 344.269008 516.824775 
L 348.583248 516.824775 
L 348.583248 479.086161 
L 344.269008 479.086161 
z
" clip-path="url(#pd347a088b1)" style="fill: #3f90da"/>
   </g>
   <g id="patch_22">
    <path d="M 358.649809 516.824775 
L 362.96405 516.824775 
L 362.96405 479.086161 
L 358.649809 479.086161 
z
" clip-path="url(#pd347a088b1)" style="fill: #3f90da"/>
   </g>
   <g id="patch_23">
    <path d="M 373.03061 516.824775 
L 377.344851 516.824775 
L 377.344851 479.086161 
L 373.03061 479.086161 
z
" clip-path="url(#pd347a088b1)" style="fill: #3f90da"/>
   </g>
   <g id="patch_24">
    <path d="M 387.411411 516.824775 
L 391.725652 516.824775 
L 391.725652 479.086161 
L 387.411411 479.086161 
z
" clip-path="url(#pd347a088b1)" style="fill: #3f90da"/>
   </g>
   <g id="patch_25">
    <path d="M 401.792212 516.824775 
L 406.106453 516.824775 
L 406.106453 479.086161 
L 401.792212 479.086161 
z
" clip-path="url(#pd347a088b1)" style="fill: #3f90da"/>
   </g>
   <g id="patch_26">
    <path d="M 416.173013 516.824775 
L 420.487254 516.824775 
L 420.487254 479.086161 
L 416.173013 479.086161 
z
" clip-path="url(#pd347a088b1)" style="fill: #3f90da"/>
   </g>
   <g id="patch_27">
    <path d="M 430.553814 516.824775 
L 434.868055 516.824775 
L 434.868055 479.086161 
L 430.553814 479.086161 
z
" clip-path="url(#pd347a088b1)" style="fill: #3f90da"/>
   </g>
   <g id="patch_28">
    <path d="M 444.934615 516.824775 
L 449.248856 516.824775 
L 449.248856 479.086161 
L 444.934615 479.086161 
z
" clip-path="url(#pd347a088b1)" style="fill: #3f90da"/>
   </g>
   <g id="patch_29">
    <path d="M 459.315416 516.824775 
L 463.629657 516.824775 
L 463.629657 479.086161 
L 459.315416 479.086161 
z
" clip-path="url(#pd347a088b1)" style="fill: #3f90da"/>
   </g>
   <g id="patch_30">
    <path d="M 473.696217 516.824775 
L 478.010458 516.824775 
L 478.010458 479.086161 
L 473.696217 479.086161 
z
" clip-path="url(#pd347a088b1)" style="fill: #3f90da"/>
   </g>
   <g id="patch_31">
    <path d="M 488.077018 516.824775 
L 492.391259 516.824775 
L 492.391259 479.086161 
L 488.077018 479.086161 
z
" clip-path="url(#pd347a088b1)" style="fill: #3f90da"/>
   </g>
   <g id="patch_32">
    <path d="M 502.457819 516.824775 
L 506.77206 516.824775 
L 506.77206 479.086161 
L 502.457819 479.086161 
z
" clip-path="url(#pd347a088b1)" style="fill: #3f90da"/>
   </g>
   <g id="patch_33">
    <path d="M 516.83862 516.824775 
L 521.152861 516.824775 
L 521.152861 479.086161 
L 516.83862 479.086161 
z
" clip-path="url(#pd347a088b1)" style="fill: #3f90da"/>
   </g>
   <g id="patch_34">
    <path d="M 531.219421 516.824775 
L 535.533662 516.824775 
L 535.533662 479.086161 
L 531.219421 479.086161 
z
" clip-path="url(#pd347a088b1)" style="fill: #3f90da"/>
   </g>
   <g id="patch_35">
    <path d="M 89.72883 516.824775 
L 94.04307 516.824775 
L 94.04307 48.450609 
L 89.72883 48.450609 
z
" clip-path="url(#pd347a088b1)" style="fill: #ffa90e"/>
   </g>
   <g id="patch_36">
    <path d="M 104.109631 516.824775 
L 108.423871 516.824775 
L 108.423871 34.229751 
L 104.109631 34.229751 
z
" clip-path="url(#pd347a088b1)" style="fill: #ffa90e"/>
   </g>
   <g id="patch_37">
    <path d="M 118.490432 516.824775 
L 122.804672 516.824775 
L 122.804672 35.436667 
L 118.490432 35.436667 
z
" clip-path="url(#pd347a088b1)" style="fill: #ffa90e"/>
   </g>
   <g id="patch_38">
    <path d="M 132.871233 516.824775 
L 137.185473 516.824775 
L 137.185473 301.107639 
L 132.871233 301.107639 
z
" clip-path="url(#pd347a088b1)" style="fill: #ffa90e"/>
   </g>
   <g id="patch_39">
    <path d="M 147.252034 516.824775 
L 151.566274 516.824775 
L 151.566274 287.00477 
L 147.252034 287.00477 
z
" clip-path="url(#pd347a088b1)" style="fill: #ffa90e"/>
   </g>
   <g id="patch_40">
    <path d="M 161.632835 516.824775 
L 165.947076 516.824775 
L 165.947076 262.612496 
L 161.632835 262.612496 
z
" clip-path="url(#pd347a088b1)" style="fill: #ffa90e"/>
   </g>
   <g id="patch_41">
    <path d="M 176.013636 516.824775 
L 180.327877 516.824775 
L 180.327877 261.081876 
L 176.013636 261.081876 
z
" clip-path="url(#pd347a088b1)" style="fill: #ffa90e"/>
   </g>
   <g id="patch_42">
    <path d="M 190.394437 516.824775 
L 194.708678 516.824775 
L 194.708678 265.948705 
L 190.394437 265.948705 
z
" clip-path="url(#pd347a088b1)" style="fill: #ffa90e"/>
   </g>
   <g id="patch_43">
    <path d="M 204.775238 516.824775 
L 209.089479 516.824775 
L 209.089479 271.772007 
L 204.775238 271.772007 
z
" clip-path="url(#pd347a088b1)" style="fill: #ffa90e"/>
   </g>
   <g id="patch_44">
    <path d="M 219.156039 516.824775 
L 223.47028 516.824775 
L 223.47028 300.861331 
L 219.156039 300.861331 
z
" clip-path="url(#pd347a088b1)" style="fill: #ffa90e"/>
   </g>
   <g id="patch_45">
    <path d="M 233.53684 516.824775 
L 237.851081 516.824775 
L 237.851081 351.774508 
L 233.53684 351.774508 
z
" clip-path="url(#pd347a088b1)" style="fill: #ffa90e"/>
   </g>
   <g id="patch_46">
    <path d="M 247.917641 516.824775 
L 252.231882 516.824775 
L 252.231882 366.062901 
L 247.917641 366.062901 
z
" clip-path="url(#pd347a088b1)" style="fill: #ffa90e"/>
   </g>
   <g id="patch_47">
    <path d="M 262.298442 516.824775 
L 266.612683 516.824775 
L 266.612683 355.068696 
L 262.298442 355.068696 
z
" clip-path="url(#pd347a088b1)" style="fill: #ffa90e"/>
   </g>
   <g id="patch_48">
    <path d="M 276.679243 516.824775 
L 280.993484 516.824775 
L 280.993484 348.855916 
L 276.679243 348.855916 
z
" clip-path="url(#pd347a088b1)" style="fill: #ffa90e"/>
   </g>
   <g id="patch_49">
    <path d="M 291.060044 516.824775 
L 295.374285 516.824775 
L 295.374285 339.85526 
L 291.060044 339.85526 
z
" clip-path="url(#pd347a088b1)" style="fill: #ffa90e"/>
   </g>
   <g id="patch_50">
    <path d="M 305.440845 516.824775 
L 309.755086 516.824775 
L 309.755086 337.174267 
L 305.440845 337.174267 
z
" clip-path="url(#pd347a088b1)" style="fill: #ffa90e"/>
   </g>
   <g id="patch_51">
    <path d="M 319.821646 516.824775 
L 324.135887 516.824775 
L 324.135887 360.010599 
L 319.821646 360.010599 
z
" clip-path="url(#pd347a088b1)" style="fill: #ffa90e"/>
   </g>
   <g id="patch_52">
    <path d="M 334.202447 516.824775 
L 338.516688 516.824775 
L 338.516688 348.616716 
L 334.202447 348.616716 
z
" clip-path="url(#pd347a088b1)" style="fill: #ffa90e"/>
   </g>
   <g id="patch_53">
    <path d="M 348.583248 516.824775 
L 352.897489 516.824775 
L 352.897489 333.200236 
L 348.583248 333.200236 
z
" clip-path="url(#pd347a088b1)" style="fill: #ffa90e"/>
   </g>
   <g id="patch_54">
    <path d="M 362.96405 516.824775 
L 367.27829 516.824775 
L 367.27829 350.07244 
L 362.96405 350.07244 
z
" clip-path="url(#pd347a088b1)" style="fill: #ffa90e"/>
   </g>
   <g id="patch_55">
    <path d="M 377.344851 516.824775 
L 381.659091 516.824775 
L 381.659091 367.908825 
L 377.344851 367.908825 
z
" clip-path="url(#pd347a088b1)" style="fill: #ffa90e"/>
   </g>
   <g id="patch_56">
    <path d="M 391.725652 516.824775 
L 396.039892 516.824775 
L 396.039892 361.431608 
L 391.725652 361.431608 
z
" clip-path="url(#pd347a088b1)" style="fill: #ffa90e"/>
   </g>
   <g id="patch_57">
    <path d="M 406.106453 516.824775 
L 410.420693 516.824775 
L 410.420693 338.869535 
L 406.106453 338.869535 
z
" clip-path="url(#pd347a088b1)" style="fill: #ffa90e"/>
   </g>
   <g id="patch_58">
    <path d="M 420.487254 516.824775 
L 424.801494 516.824775 
L 424.801494 273.244224 
L 420.487254 273.244224 
z
" clip-path="url(#pd347a088b1)" style="fill: #ffa90e"/>
   </g>
   <g id="patch_59">
    <path d="M 434.868055 516.824775 
L 439.182295 516.824775 
L 439.182295 266.49637 
L 434.868055 266.49637 
z
" clip-path="url(#pd347a088b1)" style="fill: #ffa90e"/>
   </g>
   <g id="patch_60">
    <path d="M 449.248856 516.824775 
L 453.563096 516.824775 
L 453.563096 246.155625 
L 449.248856 246.155625 
z
" clip-path="url(#pd347a088b1)" style="fill: #ffa90e"/>
   </g>
   <g id="patch_61">
    <path d="M 463.629657 516.824775 
L 467.943897 516.824775 
L 467.943897 258.76808 
L 463.629657 258.76808 
z
" clip-path="url(#pd347a088b1)" style="fill: #ffa90e"/>
   </g>
   <g id="patch_62">
    <path d="M 478.010458 516.824775 
L 482.324698 516.824775 
L 482.324698 320.511095 
L 478.010458 320.511095 
z
" clip-path="url(#pd347a088b1)" style="fill: #ffa90e"/>
   </g>
   <g id="patch_63">
    <path d="M 492.391259 516.824775 
L 496.705499 516.824775 
L 496.705499 211.703193 
L 492.391259 211.703193 
z
" clip-path="url(#pd347a088b1)" style="fill: #ffa90e"/>
   </g>
   <g id="patch_64">
    <path d="M 506.77206 516.824775 
L 511.0863 516.824775 
L 511.0863 183.293121 
L 506.77206 183.293121 
z
" clip-path="url(#pd347a088b1)" style="fill: #ffa90e"/>
   </g>
   <g id="patch_65">
    <path d="M 521.152861 516.824775 
L 525.467101 516.824775 
L 525.467101 168.483624 
L 521.152861 168.483624 
z
" clip-path="url(#pd347a088b1)" style="fill: #ffa90e"/>
   </g>
   <g id="patch_66">
    <path d="M 535.533662 516.824775 
L 539.847902 516.824775 
L 539.847902 164.065827 
L 535.533662 164.065827 
z
" clip-path="url(#pd347a088b1)" style="fill: #ffa90e"/>
   </g>
   <g id="patch_67">
    <path d="M 94.04307 516.824775 
L 98.357311 516.824775 
L 98.357311 211.96232 
L 94.04307 211.96232 
z
" clip-path="url(#pd347a088b1)" style="fill: #bd1f01"/>
   </g>
   <g id="patch_68">
    <path d="M 108.423871 516.824775 
L 112.738112 516.824775 
L 112.738112 329.466217 
L 108.423871 329.466217 
z
" clip-path="url(#pd347a088b1)" style="fill: #bd1f01"/>
   </g>
   <g id="patch_69">
    <path d="M 122.804672 516.824775 
L 127.118913 516.824775 
L 127.118913 331.732152 
L 122.804672 331.732152 
z
" clip-path="url(#pd347a088b1)" style="fill: #bd1f01"/>
   </g>
   <g id="patch_70">
    <path d="M 137.185473 516.824775 
L 141.499714 516.824775 
L 141.499714 394.438481 
L 137.185473 394.438481 
z
" clip-path="url(#pd347a088b1)" style="fill: #bd1f01"/>
   </g>
   <g id="patch_71">
    <path d="M 151.566274 516.824775 
L 155.880515 516.824775 
L 155.880515 404.192868 
L 151.566274 404.192868 
z
" clip-path="url(#pd347a088b1)" style="fill: #bd1f01"/>
   </g>
   <g id="patch_72">
    <path d="M 165.947076 516.824775 
L 170.261316 516.824775 
L 170.261316 402.612338 
L 165.947076 402.612338 
z
" clip-path="url(#pd347a088b1)" style="fill: #bd1f01"/>
   </g>
   <g id="patch_73">
    <path d="M 180.327877 516.824775 
L 184.642117 516.824775 
L 184.642117 416.204547 
L 180.327877 416.204547 
z
" clip-path="url(#pd347a088b1)" style="fill: #bd1f01"/>
   </g>
   <g id="patch_74">
    <path d="M 194.708678 516.824775 
L 199.022918 516.824775 
L 199.022918 415.739122 
L 194.708678 415.739122 
z
" clip-path="url(#pd347a088b1)" style="fill: #bd1f01"/>
   </g>
   <g id="patch_75">
    <path d="M 209.089479 516.824775 
L 213.403719 516.824775 
L 213.403719 417.543889 
L 209.089479 417.543889 
z
" clip-path="url(#pd347a088b1)" style="fill: #bd1f01"/>
   </g>
   <g id="patch_76">
    <path d="M 223.47028 516.824775 
L 227.78452 516.824775 
L 227.78452 400.608058 
L 223.47028 400.608058 
z
" clip-path="url(#pd347a088b1)" style="fill: #bd1f01"/>
   </g>
   <g id="patch_77">
    <path d="M 237.851081 516.824775 
L 242.165321 516.824775 
L 242.165321 414.607699 
L 237.851081 414.607699 
z
" clip-path="url(#pd347a088b1)" style="fill: #bd1f01"/>
   </g>
   <g id="patch_78">
    <path d="M 252.231882 516.824775 
L 256.546122 516.824775 
L 256.546122 415.075826 
L 252.231882 415.075826 
z
" clip-path="url(#pd347a088b1)" style="fill: #bd1f01"/>
   </g>
   <g id="patch_79">
    <path d="M 266.612683 516.824775 
L 270.926923 516.824775 
L 270.926923 414.794771 
L 266.612683 414.794771 
z
" clip-path="url(#pd347a088b1)" style="fill: #bd1f01"/>
   </g>
   <g id="patch_80">
    <path d="M 280.993484 516.824775 
L 285.307724 516.824775 
L 285.307724 419.672207 
L 280.993484 419.672207 
z
" clip-path="url(#pd347a088b1)" style="fill: #bd1f01"/>
   </g>
   <g id="patch_81">
    <path d="M 295.374285 516.824775 
L 299.688525 516.824775 
L 299.688525 419.517974 
L 295.374285 419.517974 
z
" clip-path="url(#pd347a088b1)" style="fill: #bd1f01"/>
   </g>
   <g id="patch_82">
    <path d="M 309.755086 516.824775 
L 314.069326 516.824775 
L 314.069326 420.361007 
L 309.755086 420.361007 
z
" clip-path="url(#pd347a088b1)" style="fill: #bd1f01"/>
   </g>
   <g id="patch_83">
    <path d="M 324.135887 516.824775 
L 328.450127 516.824775 
L 328.450127 411.176344 
L 324.135887 411.176344 
z
" clip-path="url(#pd347a088b1)" style="fill: #bd1f01"/>
   </g>
   <g id="patch_84">
    <path d="M 338.516688 516.824775 
L 342.830928 516.824775 
L 342.830928 414.455012 
L 338.516688 414.455012 
z
" clip-path="url(#pd347a088b1)" style="fill: #bd1f01"/>
   </g>
   <g id="patch_85">
    <path d="M 352.897489 516.824775 
L 357.211729 516.824775 
L 357.211729 403.513435 
L 352.897489 403.513435 
z
" clip-path="url(#pd347a088b1)" style="fill: #bd1f01"/>
   </g>
   <g id="patch_86">
    <path d="M 367.27829 516.824775 
L 371.59253 516.824775 
L 371.59253 413.025292 
L 367.27829 413.025292 
z
" clip-path="url(#pd347a088b1)" style="fill: #bd1f01"/>
   </g>
   <g id="patch_87">
    <path d="M 381.659091 516.824775 
L 385.973331 516.824775 
L 385.973331 413.691949 
L 381.659091 413.691949 
z
" clip-path="url(#pd347a088b1)" style="fill: #bd1f01"/>
   </g>
   <g id="patch_88">
    <path d="M 396.039892 516.824775 
L 400.354132 516.824775 
L 400.354132 408.801195 
L 396.039892 408.801195 
z
" clip-path="url(#pd347a088b1)" style="fill: #bd1f01"/>
   </g>
   <g id="patch_89">
    <path d="M 410.420693 516.824775 
L 414.734933 516.824775 
L 414.734933 411.497826 
L 410.420693 411.497826 
z
" clip-path="url(#pd347a088b1)" style="fill: #bd1f01"/>
   </g>
   <g id="patch_90">
    <path d="M 424.801494 516.824775 
L 429.115734 516.824775 
L 429.115734 392.277433 
L 424.801494 392.277433 
z
" clip-path="url(#pd347a088b1)" style="fill: #bd1f01"/>
   </g>
   <g id="patch_91">
    <path d="M 439.182295 516.824775 
L 443.496535 516.824775 
L 443.496535 390.651088 
L 439.182295 390.651088 
z
" clip-path="url(#pd347a088b1)" style="fill: #bd1f01"/>
   </g>
   <g id="patch_92">
    <path d="M 453.563096 516.824775 
L 457.877336 516.824775 
L 457.877336 385.487959 
L 453.563096 385.487959 
z
" clip-path="url(#pd347a088b1)" style="fill: #bd1f01"/>
   </g>
   <g id="patch_93">
    <path d="M 467.943897 516.824775 
L 472.258137 516.824775 
L 472.258137 384.054802 
L 467.943897 384.054802 
z
" clip-path="url(#pd347a088b1)" style="fill: #bd1f01"/>
   </g>
   <g id="patch_94">
    <path d="M 482.324698 516.824775 
L 486.638938 516.824775 
L 486.638938 411.101768 
L 482.324698 411.101768 
z
" clip-path="url(#pd347a088b1)" style="fill: #bd1f01"/>
   </g>
   <g id="patch_95">
    <path d="M 496.705499 516.824775 
L 501.019739 516.824775 
L 501.019739 373.938573 
L 496.705499 373.938573 
z
" clip-path="url(#pd347a088b1)" style="fill: #bd1f01"/>
   </g>
   <g id="patch_96">
    <path d="M 511.0863 516.824775 
L 515.40054 516.824775 
L 515.40054 364.753811 
L 511.0863 364.753811 
z
" clip-path="url(#pd347a088b1)" style="fill: #bd1f01"/>
   </g>
   <g id="patch_97">
    <path d="M 525.467101 516.824775 
L 529.781341 516.824775 
L 529.781341 358.109664 
L 525.467101 358.109664 
z
" clip-path="url(#pd347a088b1)" style="fill: #bd1f01"/>
   </g>
   <g id="patch_98">
    <path d="M 539.847902 516.824775 
L 544.162142 516.824775 
L 544.162142 391.460549 
L 539.847902 391.460549 
z
" clip-path="url(#pd347a088b1)" style="fill: #bd1f01"/>
   </g>
   <g id="matplotlib.axis_1">
    <g id="xtick_1">
     <g id="line2d_1">
      <path d="M 87.57171 516.824775 
L 87.57171 10.1 
" clip-path="url(#pd347a088b1)" style="fill: none; stroke: #b0b0b0; stroke-width: 0.5; stroke-linecap: square"/>
     </g>
     <g id="line2d_2">
      <defs>
       <path id="m6ffd49e72a" d="M 0 0 
L 0 6.5 
" style="stroke: #000000; stroke-width: 1.5"/>
      </defs>
      <g>
       <use xlink:href="#m6ffd49e72a" x="87.57171" y="516.824775" style="stroke: #000000; stroke-width: 1.5"/>
      </g>
     </g>
     <g id="line2d_3">
      <defs>
       <path id="m81134030c5" d="M 0 0 
L 0 -6.5 
" style="stroke: #000000; stroke-width: 1.5"/>
      </defs>
      <g>
       <use xlink:href="#m81134030c5" x="87.57171" y="10.1" style="stroke: #000000; stroke-width: 1.5"/>
      </g>
     </g>
     <g id="text_1">
      <!-- $\mathdefault{0}$ -->
      <g transform="translate(82.59039 540.33393) scale(0.2 -0.2)">
       <defs>
        <path id="NimbusRomNo9L-Regu-30" d="M 1626 4352 
C 1274 4352 1005 4243 768 4019 
C 397 3661 154 2924 154 2176 
C 154 1478 365 729 666 371 
C 902 89 1229 -64 1600 -64 
C 1926 -64 2202 44 2432 268 
C 2803 620 3046 1363 3046 2137 
C 3046 3449 2464 4352 1626 4352 
z
M 1606 4185 
C 2144 4185 2432 3462 2432 2124 
C 2432 787 2150 102 1600 102 
C 1050 102 768 787 768 2118 
C 768 3475 1056 4185 1606 4185 
z
" transform="scale(0.015625)"/>
       </defs>
       <use xlink:href="#NimbusRomNo9L-Regu-30" transform="scale(0.996264)"/>
      </g>
     </g>
    </g>
    <g id="xtick_2">
     <g id="line2d_4">
      <path d="M 159.475715 516.824775 
L 159.475715 10.1 
" clip-path="url(#pd347a088b1)" style="fill: none; stroke: #b0b0b0; stroke-width: 0.5; stroke-linecap: square"/>
     </g>
     <g id="line2d_5">
      <g>
       <use xlink:href="#m6ffd49e72a" x="159.475715" y="516.824775" style="stroke: #000000; stroke-width: 1.5"/>
      </g>
     </g>
     <g id="line2d_6">
      <g>
       <use xlink:href="#m81134030c5" x="159.475715" y="10.1" style="stroke: #000000; stroke-width: 1.5"/>
      </g>
     </g>
     <g id="text_2">
      <!-- $\mathdefault{5}$ -->
      <g transform="translate(154.494395 540.33393) scale(0.2 -0.2)">
       <defs>
        <path id="NimbusRomNo9L-Regu-35" d="M 1158 3718 
L 2413 3718 
C 2515 3718 2541 3731 2560 3775 
L 2803 4345 
L 2746 4390 
C 2650 4256 2586 4224 2451 4224 
L 1114 4224 
L 416 2717 
C 410 2705 410 2698 410 2686 
C 410 2654 435 2635 486 2635 
C 691 2635 947 2591 1210 2508 
C 1946 2274 2285 1882 2285 1255 
C 2285 647 1894 172 1395 172 
C 1267 172 1158 217 966 356 
C 762 502 614 565 480 565 
C 294 565 205 489 205 331 
C 205 89 506 -64 986 -64 
C 1523 -64 1984 108 2304 432 
C 2598 717 2733 1078 2733 1559 
C 2733 2015 2611 2306 2291 2622 
C 2010 2901 1645 3047 890 3180 
L 1158 3718 
z
" transform="scale(0.015625)"/>
       </defs>
       <use xlink:href="#NimbusRomNo9L-Regu-35" transform="scale(0.996264)"/>
      </g>
     </g>
    </g>
    <g id="xtick_3">
     <g id="line2d_7">
      <path d="M 231.37972 516.824775 
L 231.37972 10.1 
" clip-path="url(#pd347a088b1)" style="fill: none; stroke: #b0b0b0; stroke-width: 0.5; stroke-linecap: square"/>
     </g>
     <g id="line2d_8">
      <g>
       <use xlink:href="#m6ffd49e72a" x="231.37972" y="516.824775" style="stroke: #000000; stroke-width: 1.5"/>
      </g>
     </g>
     <g id="line2d_9">
      <g>
       <use xlink:href="#m81134030c5" x="231.37972" y="10.1" style="stroke: #000000; stroke-width: 1.5"/>
      </g>
     </g>
     <g id="text_3">
      <!-- $\mathdefault{10}$ -->
      <g transform="translate(221.41708 540.33393) scale(0.2 -0.2)">
       <defs>
        <path id="NimbusRomNo9L-Regu-31" d="M 1862 4352 
L 710 3776 
L 710 3686 
C 787 3718 858 3743 883 3756 
C 998 3801 1107 3826 1171 3826 
C 1306 3826 1363 3731 1363 3525 
L 1363 599 
C 1363 386 1312 238 1210 179 
C 1114 121 1024 102 755 96 
L 755 0 
L 2522 0 
L 2522 96 
C 2016 102 1914 167 1914 477 
L 1914 4339 
L 1862 4352 
z
" transform="scale(0.015625)"/>
       </defs>
       <use xlink:href="#NimbusRomNo9L-Regu-31" transform="scale(0.996264)"/>
       <use xlink:href="#NimbusRomNo9L-Regu-30" transform="translate(49.8132 0) scale(0.996264)"/>
      </g>
     </g>
    </g>
    <g id="xtick_4">
     <g id="line2d_10">
      <path d="M 303.283725 516.824775 
L 303.283725 10.1 
" clip-path="url(#pd347a088b1)" style="fill: none; stroke: #b0b0b0; stroke-width: 0.5; stroke-linecap: square"/>
     </g>
     <g id="line2d_11">
      <g>
       <use xlink:href="#m6ffd49e72a" x="303.283725" y="516.824775" style="stroke: #000000; stroke-width: 1.5"/>
      </g>
     </g>
     <g id="line2d_12">
      <g>
       <use xlink:href="#m81134030c5" x="303.283725" y="10.1" style="stroke: #000000; stroke-width: 1.5"/>
      </g>
     </g>
     <g id="text_4">
      <!-- $\mathdefault{15}$ -->
      <g transform="translate(293.321085 540.33393) scale(0.2 -0.2)">
       <use xlink:href="#NimbusRomNo9L-Regu-31" transform="scale(0.996264)"/>
       <use xlink:href="#NimbusRomNo9L-Regu-35" transform="translate(49.8132 0) scale(0.996264)"/>
      </g>
     </g>
    </g>
    <g id="xtick_5">
     <g id="line2d_13">
      <path d="M 375.18773 516.824775 
L 375.18773 10.1 
" clip-path="url(#pd347a088b1)" style="fill: none; stroke: #b0b0b0; stroke-width: 0.5; stroke-linecap: square"/>
     </g>
     <g id="line2d_14">
      <g>
       <use xlink:href="#m6ffd49e72a" x="375.18773" y="516.824775" style="stroke: #000000; stroke-width: 1.5"/>
      </g>
     </g>
     <g id="line2d_15">
      <g>
       <use xlink:href="#m81134030c5" x="375.18773" y="10.1" style="stroke: #000000; stroke-width: 1.5"/>
      </g>
     </g>
     <g id="text_5">
      <!-- $\mathdefault{20}$ -->
      <g transform="translate(365.22509 540.33393) scale(0.2 -0.2)">
       <defs>
        <path id="NimbusRomNo9L-Regu-32" d="M 3040 879 
L 2957 912 
C 2720 544 2637 486 2349 486 
L 819 486 
L 1894 1621 
C 2464 2221 2714 2711 2714 3214 
C 2714 3858 2195 4352 1530 4352 
C 1178 4352 845 4211 608 3955 
C 403 3736 307 3530 198 3072 
L 333 3039 
C 589 3671 819 3878 1261 3878 
C 1798 3878 2163 3510 2163 2969 
C 2163 2466 1869 1866 1331 1292 
L 192 76 
L 192 0 
L 2688 0 
L 3040 879 
z
" transform="scale(0.015625)"/>
       </defs>
       <use xlink:href="#NimbusRomNo9L-Regu-32" transform="scale(0.996264)"/>
       <use xlink:href="#NimbusRomNo9L-Regu-30" transform="translate(49.8132 0) scale(0.996264)"/>
      </g>
     </g>
    </g>
    <g id="xtick_6">
     <g id="line2d_16">
      <path d="M 447.091735 516.824775 
L 447.091735 10.1 
" clip-path="url(#pd347a088b1)" style="fill: none; stroke: #b0b0b0; stroke-width: 0.5; stroke-linecap: square"/>
     </g>
     <g id="line2d_17">
      <g>
       <use xlink:href="#m6ffd49e72a" x="447.091735" y="516.824775" style="stroke: #000000; stroke-width: 1.5"/>
      </g>
     </g>
     <g id="line2d_18">
      <g>
       <use xlink:href="#m81134030c5" x="447.091735" y="10.1" style="stroke: #000000; stroke-width: 1.5"/>
      </g>
     </g>
     <g id="text_6">
      <!-- $\mathdefault{25}$ -->
      <g transform="translate(437.129095 540.33393) scale(0.2 -0.2)">
       <use xlink:href="#NimbusRomNo9L-Regu-32" transform="scale(0.996264)"/>
       <use xlink:href="#NimbusRomNo9L-Regu-35" transform="translate(49.8132 0) scale(0.996264)"/>
      </g>
     </g>
    </g>
    <g id="xtick_7">
     <g id="line2d_19">
      <path d="M 518.995741 516.824775 
L 518.995741 10.1 
" clip-path="url(#pd347a088b1)" style="fill: none; stroke: #b0b0b0; stroke-width: 0.5; stroke-linecap: square"/>
     </g>
     <g id="line2d_20">
      <g>
       <use xlink:href="#m6ffd49e72a" x="518.995741" y="516.824775" style="stroke: #000000; stroke-width: 1.5"/>
      </g>
     </g>
     <g id="line2d_21">
      <g>
       <use xlink:href="#m81134030c5" x="518.995741" y="10.1" style="stroke: #000000; stroke-width: 1.5"/>
      </g>
     </g>
     <g id="text_7">
      <!-- $\mathdefault{30}$ -->
      <g transform="translate(509.0331 540.33393) scale(0.2 -0.2)">
       <defs>
        <path id="NimbusRomNo9L-Regu-33" d="M 979 2137 
C 1357 2137 1504 2124 1658 2067 
C 2054 1926 2304 1561 2304 1120 
C 2304 582 1939 166 1466 166 
C 1293 166 1165 211 928 364 
C 736 480 627 524 518 524 
C 371 524 275 435 275 300 
C 275 76 550 -64 998 -64 
C 1491 -64 1997 102 2298 364 
C 2598 627 2765 998 2765 1427 
C 2765 1753 2662 2054 2477 2252 
C 2349 2393 2227 2470 1946 2592 
C 2387 2892 2547 3129 2547 3475 
C 2547 3993 2138 4352 1549 4352 
C 1229 4352 947 4243 717 4038 
C 525 3865 429 3699 288 3315 
L 384 3289 
C 646 3757 934 3967 1338 3967 
C 1754 3967 2042 3686 2042 3283 
C 2042 3052 1946 2822 1786 2662 
C 1594 2470 1414 2374 979 2220 
L 979 2137 
z
" transform="scale(0.015625)"/>
       </defs>
       <use xlink:href="#NimbusRomNo9L-Regu-33" transform="scale(0.996264)"/>
       <use xlink:href="#NimbusRomNo9L-Regu-30" transform="translate(49.8132 0) scale(0.996264)"/>
      </g>
     </g>
    </g>
    <g id="xtick_8">
     <g id="line2d_22">
      <path d="M 73.190909 516.824775 
L 73.190909 10.1 
" clip-path="url(#pd347a088b1)" style="fill: none; stroke: #b0b0b0; stroke-width: 0.5; stroke-linecap: square"/>
     </g>
     <g id="line2d_23">
      <defs>
       <path id="ma6e06d5f63" d="M 0 0 
L 0 4 
" style="stroke: #000000; stroke-width: 0.5"/>
      </defs>
      <g>
       <use xlink:href="#ma6e06d5f63" x="73.190909" y="516.824775" style="stroke: #000000; stroke-width: 0.5"/>
      </g>
     </g>
     <g id="line2d_24">
      <defs>
       <path id="mab028accd6" d="M 0 0 
L 0 -4 
" style="stroke: #000000; stroke-width: 0.5"/>
      </defs>
      <g>
       <use xlink:href="#mab028accd6" x="73.190909" y="10.1" style="stroke: #000000; stroke-width: 0.5"/>
      </g>
     </g>
    </g>
    <g id="xtick_9">
     <g id="line2d_25">
      <path d="M 101.952511 516.824775 
L 101.952511 10.1 
" clip-path="url(#pd347a088b1)" style="fill: none; stroke: #b0b0b0; stroke-width: 0.5; stroke-linecap: square"/>
     </g>
     <g id="line2d_26">
      <g>
       <use xlink:href="#ma6e06d5f63" x="101.952511" y="516.824775" style="stroke: #000000; stroke-width: 0.5"/>
      </g>
     </g>
     <g id="line2d_27">
      <g>
       <use xlink:href="#mab028accd6" x="101.952511" y="10.1" style="stroke: #000000; stroke-width: 0.5"/>
      </g>
     </g>
    </g>
    <g id="xtick_10">
     <g id="line2d_28">
      <path d="M 116.333312 516.824775 
L 116.333312 10.1 
" clip-path="url(#pd347a088b1)" style="fill: none; stroke: #b0b0b0; stroke-width: 0.5; stroke-linecap: square"/>
     </g>
     <g id="line2d_29">
      <g>
       <use xlink:href="#ma6e06d5f63" x="116.333312" y="516.824775" style="stroke: #000000; stroke-width: 0.5"/>
      </g>
     </g>
     <g id="line2d_30">
      <g>
       <use xlink:href="#mab028accd6" x="116.333312" y="10.1" style="stroke: #000000; stroke-width: 0.5"/>
      </g>
     </g>
    </g>
    <g id="xtick_11">
     <g id="line2d_31">
      <path d="M 130.714113 516.824775 
L 130.714113 10.1 
" clip-path="url(#pd347a088b1)" style="fill: none; stroke: #b0b0b0; stroke-width: 0.5; stroke-linecap: square"/>
     </g>
     <g id="line2d_32">
      <g>
       <use xlink:href="#ma6e06d5f63" x="130.714113" y="516.824775" style="stroke: #000000; stroke-width: 0.5"/>
      </g>
     </g>
     <g id="line2d_33">
      <g>
       <use xlink:href="#mab028accd6" x="130.714113" y="10.1" style="stroke: #000000; stroke-width: 0.5"/>
      </g>
     </g>
    </g>
    <g id="xtick_12">
     <g id="line2d_34">
      <path d="M 145.094914 516.824775 
L 145.094914 10.1 
" clip-path="url(#pd347a088b1)" style="fill: none; stroke: #b0b0b0; stroke-width: 0.5; stroke-linecap: square"/>
     </g>
     <g id="line2d_35">
      <g>
       <use xlink:href="#ma6e06d5f63" x="145.094914" y="516.824775" style="stroke: #000000; stroke-width: 0.5"/>
      </g>
     </g>
     <g id="line2d_36">
      <g>
       <use xlink:href="#mab028accd6" x="145.094914" y="10.1" style="stroke: #000000; stroke-width: 0.5"/>
      </g>
     </g>
    </g>
    <g id="xtick_13">
     <g id="line2d_37">
      <path d="M 173.856516 516.824775 
L 173.856516 10.1 
" clip-path="url(#pd347a088b1)" style="fill: none; stroke: #b0b0b0; stroke-width: 0.5; stroke-linecap: square"/>
     </g>
     <g id="line2d_38">
      <g>
       <use xlink:href="#ma6e06d5f63" x="173.856516" y="516.824775" style="stroke: #000000; stroke-width: 0.5"/>
      </g>
     </g>
     <g id="line2d_39">
      <g>
       <use xlink:href="#mab028accd6" x="173.856516" y="10.1" style="stroke: #000000; stroke-width: 0.5"/>
      </g>
     </g>
    </g>
    <g id="xtick_14">
     <g id="line2d_40">
      <path d="M 188.237317 516.824775 
L 188.237317 10.1 
" clip-path="url(#pd347a088b1)" style="fill: none; stroke: #b0b0b0; stroke-width: 0.5; stroke-linecap: square"/>
     </g>
     <g id="line2d_41">
      <g>
       <use xlink:href="#ma6e06d5f63" x="188.237317" y="516.824775" style="stroke: #000000; stroke-width: 0.5"/>
      </g>
     </g>
     <g id="line2d_42">
      <g>
       <use xlink:href="#mab028accd6" x="188.237317" y="10.1" style="stroke: #000000; stroke-width: 0.5"/>
      </g>
     </g>
    </g>
    <g id="xtick_15">
     <g id="line2d_43">
      <path d="M 202.618118 516.824775 
L 202.618118 10.1 
" clip-path="url(#pd347a088b1)" style="fill: none; stroke: #b0b0b0; stroke-width: 0.5; stroke-linecap: square"/>
     </g>
     <g id="line2d_44">
      <g>
       <use xlink:href="#ma6e06d5f63" x="202.618118" y="516.824775" style="stroke: #000000; stroke-width: 0.5"/>
      </g>
     </g>
     <g id="line2d_45">
      <g>
       <use xlink:href="#mab028accd6" x="202.618118" y="10.1" style="stroke: #000000; stroke-width: 0.5"/>
      </g>
     </g>
    </g>
    <g id="xtick_16">
     <g id="line2d_46">
      <path d="M 216.998919 516.824775 
L 216.998919 10.1 
" clip-path="url(#pd347a088b1)" style="fill: none; stroke: #b0b0b0; stroke-width: 0.5; stroke-linecap: square"/>
     </g>
     <g id="line2d_47">
      <g>
       <use xlink:href="#ma6e06d5f63" x="216.998919" y="516.824775" style="stroke: #000000; stroke-width: 0.5"/>
      </g>
     </g>
     <g id="line2d_48">
      <g>
       <use xlink:href="#mab028accd6" x="216.998919" y="10.1" style="stroke: #000000; stroke-width: 0.5"/>
      </g>
     </g>
    </g>
    <g id="xtick_17">
     <g id="line2d_49">
      <path d="M 245.760521 516.824775 
L 245.760521 10.1 
" clip-path="url(#pd347a088b1)" style="fill: none; stroke: #b0b0b0; stroke-width: 0.5; stroke-linecap: square"/>
     </g>
     <g id="line2d_50">
      <g>
       <use xlink:href="#ma6e06d5f63" x="245.760521" y="516.824775" style="stroke: #000000; stroke-width: 0.5"/>
      </g>
     </g>
     <g id="line2d_51">
      <g>
       <use xlink:href="#mab028accd6" x="245.760521" y="10.1" style="stroke: #000000; stroke-width: 0.5"/>
      </g>
     </g>
    </g>
    <g id="xtick_18">
     <g id="line2d_52">
      <path d="M 260.141322 516.824775 
L 260.141322 10.1 
" clip-path="url(#pd347a088b1)" style="fill: none; stroke: #b0b0b0; stroke-width: 0.5; stroke-linecap: square"/>
     </g>
     <g id="line2d_53">
      <g>
       <use xlink:href="#ma6e06d5f63" x="260.141322" y="516.824775" style="stroke: #000000; stroke-width: 0.5"/>
      </g>
     </g>
     <g id="line2d_54">
      <g>
       <use xlink:href="#mab028accd6" x="260.141322" y="10.1" style="stroke: #000000; stroke-width: 0.5"/>
      </g>
     </g>
    </g>
    <g id="xtick_19">
     <g id="line2d_55">
      <path d="M 274.522123 516.824775 
L 274.522123 10.1 
" clip-path="url(#pd347a088b1)" style="fill: none; stroke: #b0b0b0; stroke-width: 0.5; stroke-linecap: square"/>
     </g>
     <g id="line2d_56">
      <g>
       <use xlink:href="#ma6e06d5f63" x="274.522123" y="516.824775" style="stroke: #000000; stroke-width: 0.5"/>
      </g>
     </g>
     <g id="line2d_57">
      <g>
       <use xlink:href="#mab028accd6" x="274.522123" y="10.1" style="stroke: #000000; stroke-width: 0.5"/>
      </g>
     </g>
    </g>
    <g id="xtick_20">
     <g id="line2d_58">
      <path d="M 288.902924 516.824775 
L 288.902924 10.1 
" clip-path="url(#pd347a088b1)" style="fill: none; stroke: #b0b0b0; stroke-width: 0.5; stroke-linecap: square"/>
     </g>
     <g id="line2d_59">
      <g>
       <use xlink:href="#ma6e06d5f63" x="288.902924" y="516.824775" style="stroke: #000000; stroke-width: 0.5"/>
      </g>
     </g>
     <g id="line2d_60">
      <g>
       <use xlink:href="#mab028accd6" x="288.902924" y="10.1" style="stroke: #000000; stroke-width: 0.5"/>
      </g>
     </g>
    </g>
    <g id="xtick_21">
     <g id="line2d_61">
      <path d="M 317.664526 516.824775 
L 317.664526 10.1 
" clip-path="url(#pd347a088b1)" style="fill: none; stroke: #b0b0b0; stroke-width: 0.5; stroke-linecap: square"/>
     </g>
     <g id="line2d_62">
      <g>
       <use xlink:href="#ma6e06d5f63" x="317.664526" y="516.824775" style="stroke: #000000; stroke-width: 0.5"/>
      </g>
     </g>
     <g id="line2d_63">
      <g>
       <use xlink:href="#mab028accd6" x="317.664526" y="10.1" style="stroke: #000000; stroke-width: 0.5"/>
      </g>
     </g>
    </g>
    <g id="xtick_22">
     <g id="line2d_64">
      <path d="M 332.045327 516.824775 
L 332.045327 10.1 
" clip-path="url(#pd347a088b1)" style="fill: none; stroke: #b0b0b0; stroke-width: 0.5; stroke-linecap: square"/>
     </g>
     <g id="line2d_65">
      <g>
       <use xlink:href="#ma6e06d5f63" x="332.045327" y="516.824775" style="stroke: #000000; stroke-width: 0.5"/>
      </g>
     </g>
     <g id="line2d_66">
      <g>
       <use xlink:href="#mab028accd6" x="332.045327" y="10.1" style="stroke: #000000; stroke-width: 0.5"/>
      </g>
     </g>
    </g>
    <g id="xtick_23">
     <g id="line2d_67">
      <path d="M 346.426128 516.824775 
L 346.426128 10.1 
" clip-path="url(#pd347a088b1)" style="fill: none; stroke: #b0b0b0; stroke-width: 0.5; stroke-linecap: square"/>
     </g>
     <g id="line2d_68">
      <g>
       <use xlink:href="#ma6e06d5f63" x="346.426128" y="516.824775" style="stroke: #000000; stroke-width: 0.5"/>
      </g>
     </g>
     <g id="line2d_69">
      <g>
       <use xlink:href="#mab028accd6" x="346.426128" y="10.1" style="stroke: #000000; stroke-width: 0.5"/>
      </g>
     </g>
    </g>
    <g id="xtick_24">
     <g id="line2d_70">
      <path d="M 360.806929 516.824775 
L 360.806929 10.1 
" clip-path="url(#pd347a088b1)" style="fill: none; stroke: #b0b0b0; stroke-width: 0.5; stroke-linecap: square"/>
     </g>
     <g id="line2d_71">
      <g>
       <use xlink:href="#ma6e06d5f63" x="360.806929" y="516.824775" style="stroke: #000000; stroke-width: 0.5"/>
      </g>
     </g>
     <g id="line2d_72">
      <g>
       <use xlink:href="#mab028accd6" x="360.806929" y="10.1" style="stroke: #000000; stroke-width: 0.5"/>
      </g>
     </g>
    </g>
    <g id="xtick_25">
     <g id="line2d_73">
      <path d="M 389.568531 516.824775 
L 389.568531 10.1 
" clip-path="url(#pd347a088b1)" style="fill: none; stroke: #b0b0b0; stroke-width: 0.5; stroke-linecap: square"/>
     </g>
     <g id="line2d_74">
      <g>
       <use xlink:href="#ma6e06d5f63" x="389.568531" y="516.824775" style="stroke: #000000; stroke-width: 0.5"/>
      </g>
     </g>
     <g id="line2d_75">
      <g>
       <use xlink:href="#mab028accd6" x="389.568531" y="10.1" style="stroke: #000000; stroke-width: 0.5"/>
      </g>
     </g>
    </g>
    <g id="xtick_26">
     <g id="line2d_76">
      <path d="M 403.949332 516.824775 
L 403.949332 10.1 
" clip-path="url(#pd347a088b1)" style="fill: none; stroke: #b0b0b0; stroke-width: 0.5; stroke-linecap: square"/>
     </g>
     <g id="line2d_77">
      <g>
       <use xlink:href="#ma6e06d5f63" x="403.949332" y="516.824775" style="stroke: #000000; stroke-width: 0.5"/>
      </g>
     </g>
     <g id="line2d_78">
      <g>
       <use xlink:href="#mab028accd6" x="403.949332" y="10.1" style="stroke: #000000; stroke-width: 0.5"/>
      </g>
     </g>
    </g>
    <g id="xtick_27">
     <g id="line2d_79">
      <path d="M 418.330133 516.824775 
L 418.330133 10.1 
" clip-path="url(#pd347a088b1)" style="fill: none; stroke: #b0b0b0; stroke-width: 0.5; stroke-linecap: square"/>
     </g>
     <g id="line2d_80">
      <g>
       <use xlink:href="#ma6e06d5f63" x="418.330133" y="516.824775" style="stroke: #000000; stroke-width: 0.5"/>
      </g>
     </g>
     <g id="line2d_81">
      <g>
       <use xlink:href="#mab028accd6" x="418.330133" y="10.1" style="stroke: #000000; stroke-width: 0.5"/>
      </g>
     </g>
    </g>
    <g id="xtick_28">
     <g id="line2d_82">
      <path d="M 432.710934 516.824775 
L 432.710934 10.1 
" clip-path="url(#pd347a088b1)" style="fill: none; stroke: #b0b0b0; stroke-width: 0.5; stroke-linecap: square"/>
     </g>
     <g id="line2d_83">
      <g>
       <use xlink:href="#ma6e06d5f63" x="432.710934" y="516.824775" style="stroke: #000000; stroke-width: 0.5"/>
      </g>
     </g>
     <g id="line2d_84">
      <g>
       <use xlink:href="#mab028accd6" x="432.710934" y="10.1" style="stroke: #000000; stroke-width: 0.5"/>
      </g>
     </g>
    </g>
    <g id="xtick_29">
     <g id="line2d_85">
      <path d="M 461.472536 516.824775 
L 461.472536 10.1 
" clip-path="url(#pd347a088b1)" style="fill: none; stroke: #b0b0b0; stroke-width: 0.5; stroke-linecap: square"/>
     </g>
     <g id="line2d_86">
      <g>
       <use xlink:href="#ma6e06d5f63" x="461.472536" y="516.824775" style="stroke: #000000; stroke-width: 0.5"/>
      </g>
     </g>
     <g id="line2d_87">
      <g>
       <use xlink:href="#mab028accd6" x="461.472536" y="10.1" style="stroke: #000000; stroke-width: 0.5"/>
      </g>
     </g>
    </g>
    <g id="xtick_30">
     <g id="line2d_88">
      <path d="M 475.853338 516.824775 
L 475.853338 10.1 
" clip-path="url(#pd347a088b1)" style="fill: none; stroke: #b0b0b0; stroke-width: 0.5; stroke-linecap: square"/>
     </g>
     <g id="line2d_89">
      <g>
       <use xlink:href="#ma6e06d5f63" x="475.853338" y="516.824775" style="stroke: #000000; stroke-width: 0.5"/>
      </g>
     </g>
     <g id="line2d_90">
      <g>
       <use xlink:href="#mab028accd6" x="475.853338" y="10.1" style="stroke: #000000; stroke-width: 0.5"/>
      </g>
     </g>
    </g>
    <g id="xtick_31">
     <g id="line2d_91">
      <path d="M 490.234139 516.824775 
L 490.234139 10.1 
" clip-path="url(#pd347a088b1)" style="fill: none; stroke: #b0b0b0; stroke-width: 0.5; stroke-linecap: square"/>
     </g>
     <g id="line2d_92">
      <g>
       <use xlink:href="#ma6e06d5f63" x="490.234139" y="516.824775" style="stroke: #000000; stroke-width: 0.5"/>
      </g>
     </g>
     <g id="line2d_93">
      <g>
       <use xlink:href="#mab028accd6" x="490.234139" y="10.1" style="stroke: #000000; stroke-width: 0.5"/>
      </g>
     </g>
    </g>
    <g id="xtick_32">
     <g id="line2d_94">
      <path d="M 504.61494 516.824775 
L 504.61494 10.1 
" clip-path="url(#pd347a088b1)" style="fill: none; stroke: #b0b0b0; stroke-width: 0.5; stroke-linecap: square"/>
     </g>
     <g id="line2d_95">
      <g>
       <use xlink:href="#ma6e06d5f63" x="504.61494" y="516.824775" style="stroke: #000000; stroke-width: 0.5"/>
      </g>
     </g>
     <g id="line2d_96">
      <g>
       <use xlink:href="#mab028accd6" x="504.61494" y="10.1" style="stroke: #000000; stroke-width: 0.5"/>
      </g>
     </g>
    </g>
    <g id="xtick_33">
     <g id="line2d_97">
      <path d="M 533.376542 516.824775 
L 533.376542 10.1 
" clip-path="url(#pd347a088b1)" style="fill: none; stroke: #b0b0b0; stroke-width: 0.5; stroke-linecap: square"/>
     </g>
     <g id="line2d_98">
      <g>
       <use xlink:href="#ma6e06d5f63" x="533.376542" y="516.824775" style="stroke: #000000; stroke-width: 0.5"/>
      </g>
     </g>
     <g id="line2d_99">
      <g>
       <use xlink:href="#mab028accd6" x="533.376542" y="10.1" style="stroke: #000000; stroke-width: 0.5"/>
      </g>
     </g>
    </g>
    <g id="xtick_34">
     <g id="line2d_100">
      <path d="M 547.757343 516.824775 
L 547.757343 10.1 
" clip-path="url(#pd347a088b1)" style="fill: none; stroke: #b0b0b0; stroke-width: 0.5; stroke-linecap: square"/>
     </g>
     <g id="line2d_101">
      <g>
       <use xlink:href="#ma6e06d5f63" x="547.757343" y="516.824775" style="stroke: #000000; stroke-width: 0.5"/>
      </g>
     </g>
     <g id="line2d_102">
      <g>
       <use xlink:href="#mab028accd6" x="547.757343" y="10.1" style="stroke: #000000; stroke-width: 0.5"/>
      </g>
     </g>
    </g>
    <g id="xtick_35">
     <g id="line2d_103">
      <path d="M 562.138144 516.824775 
L 562.138144 10.1 
" clip-path="url(#pd347a088b1)" style="fill: none; stroke: #b0b0b0; stroke-width: 0.5; stroke-linecap: square"/>
     </g>
     <g id="line2d_104">
      <g>
       <use xlink:href="#ma6e06d5f63" x="562.138144" y="516.824775" style="stroke: #000000; stroke-width: 0.5"/>
      </g>
     </g>
     <g id="line2d_105">
      <g>
       <use xlink:href="#mab028accd6" x="562.138144" y="10.1" style="stroke: #000000; stroke-width: 0.5"/>
      </g>
     </g>
    </g>
    <g id="text_8">
     <!-- $n$ -->
     <g transform="translate(307.814518 567.560399) scale(0.28 -0.28)">
      <defs>
       <path id="NimbusRomNo9L-ReguItal-6e" d="M 2944 742 
L 2810 575 
C 2624 339 2509 236 2419 236 
C 2368 236 2317 288 2317 339 
C 2317 384 2317 384 2406 742 
L 2771 2060 
C 2803 2195 2829 2335 2829 2425 
C 2829 2655 2656 2816 2406 2816 
C 1997 2816 1594 2431 934 1407 
L 1363 2803 
L 1344 2816 
C 998 2745 864 2719 307 2617 
L 307 2515 
C 634 2508 717 2470 717 2342 
C 717 2303 710 2265 704 2233 
L 90 -7 
L 570 -7 
C 870 1004 928 1145 1210 1580 
C 1594 2169 1920 2489 2157 2489 
C 2253 2489 2310 2419 2310 2303 
C 2310 2227 2272 2015 2221 1817 
L 1939 761 
C 1856 435 1837 345 1837 281 
C 1837 38 1926 -64 2138 -64 
C 2426 -64 2592 70 3034 659 
L 2944 742 
z
" transform="scale(0.015625)"/>
      </defs>
      <use xlink:href="#NimbusRomNo9L-ReguItal-6e" transform="scale(0.996264)"/>
     </g>
    </g>
   </g>
   <g id="matplotlib.axis_2">
    <g id="ytick_1">
     <g id="line2d_106">
      <path d="M 62.477212 516.824775 
L 567.09952 516.824775 
" clip-path="url(#pd347a088b1)" style="fill: none; stroke: #b0b0b0; stroke-width: 0.5; stroke-linecap: square"/>
     </g>
     <g id="line2d_107">
      <defs>
       <path id="m71da94119d" d="M 0 0 
L -6.5 0 
" style="stroke: #000000; stroke-width: 1.5"/>
      </defs>
      <g>
       <use xlink:href="#m71da94119d" x="62.477212" y="516.824775" style="stroke: #000000; stroke-width: 1.5"/>
      </g>
     </g>
     <g id="line2d_108">
      <defs>
       <path id="mdd305d66a8" d="M 0 0 
L 6.5 0 
" style="stroke: #000000; stroke-width: 1.5"/>
      </defs>
      <g>
       <use xlink:href="#mdd305d66a8" x="567.09952" y="516.824775" style="stroke: #000000; stroke-width: 1.5"/>
      </g>
     </g>
     <g id="text_9">
      <!-- $\mathdefault{0}$ -->
      <g transform="translate(42.514572 523.579353) scale(0.2 -0.2)">
       <use xlink:href="#NimbusRomNo9L-Regu-30" transform="scale(0.996264)"/>
      </g>
     </g>
    </g>
    <g id="ytick_2">
     <g id="line2d_109">
      <path d="M 62.477212 441.347547 
L 567.09952 441.347547 
" clip-path="url(#pd347a088b1)" style="fill: none; stroke: #b0b0b0; stroke-width: 0.5; stroke-linecap: square"/>
     </g>
     <g id="line2d_110">
      <g>
       <use xlink:href="#m71da94119d" x="62.477212" y="441.347547" style="stroke: #000000; stroke-width: 1.5"/>
      </g>
     </g>
     <g id="line2d_111">
      <g>
       <use xlink:href="#mdd305d66a8" x="567.09952" y="441.347547" style="stroke: #000000; stroke-width: 1.5"/>
      </g>
     </g>
     <g id="text_10">
      <!-- $\mathdefault{2}$ -->
      <g transform="translate(42.514572 448.102124) scale(0.2 -0.2)">
       <use xlink:href="#NimbusRomNo9L-Regu-32" transform="scale(0.996264)"/>
      </g>
     </g>
    </g>
    <g id="ytick_3">
     <g id="line2d_112">
      <path d="M 62.477212 365.870318 
L 567.09952 365.870318 
" clip-path="url(#pd347a088b1)" style="fill: none; stroke: #b0b0b0; stroke-width: 0.5; stroke-linecap: square"/>
     </g>
     <g id="line2d_113">
      <g>
       <use xlink:href="#m71da94119d" x="62.477212" y="365.870318" style="stroke: #000000; stroke-width: 1.5"/>
      </g>
     </g>
     <g id="line2d_114">
      <g>
       <use xlink:href="#mdd305d66a8" x="567.09952" y="365.870318" style="stroke: #000000; stroke-width: 1.5"/>
      </g>
     </g>
     <g id="text_11">
      <!-- $\mathdefault{4}$ -->
      <g transform="translate(42.514572 372.624896) scale(0.2 -0.2)">
       <defs>
        <path id="NimbusRomNo9L-Regu-34" d="M 3021 1497 
L 2368 1497 
L 2368 4352 
L 2086 4352 
L 77 1497 
L 77 1088 
L 1875 1088 
L 1875 0 
L 2368 0 
L 2368 1088 
L 3021 1088 
L 3021 1497 
z
M 1869 1497 
L 333 1497 
L 1869 3697 
L 1869 1497 
z
" transform="scale(0.015625)"/>
       </defs>
       <use xlink:href="#NimbusRomNo9L-Regu-34" transform="scale(0.996264)"/>
      </g>
     </g>
    </g>
    <g id="ytick_4">
     <g id="line2d_115">
      <path d="M 62.477212 290.39309 
L 567.09952 290.39309 
" clip-path="url(#pd347a088b1)" style="fill: none; stroke: #b0b0b0; stroke-width: 0.5; stroke-linecap: square"/>
     </g>
     <g id="line2d_116">
      <g>
       <use xlink:href="#m71da94119d" x="62.477212" y="290.39309" style="stroke: #000000; stroke-width: 1.5"/>
      </g>
     </g>
     <g id="line2d_117">
      <g>
       <use xlink:href="#mdd305d66a8" x="567.09952" y="290.39309" style="stroke: #000000; stroke-width: 1.5"/>
      </g>
     </g>
     <g id="text_12">
      <!-- $\mathdefault{6}$ -->
      <g transform="translate(42.514572 297.147668) scale(0.2 -0.2)">
       <defs>
        <path id="NimbusRomNo9L-Regu-36" d="M 2854 4390 
C 2125 4326 1754 4204 1286 3878 
C 595 3385 218 2655 218 1801 
C 218 1248 390 688 666 369 
C 909 89 1254 -64 1651 -64 
C 2445 -64 2995 541 2995 1420 
C 2995 2234 2528 2752 1792 2752 
C 1510 2752 1376 2707 973 2463 
C 1146 3430 1862 4121 2867 4288 
L 2854 4390 
z
M 1549 2457 
C 2099 2457 2419 1999 2419 1203 
C 2419 503 2170 115 1722 115 
C 1158 115 813 713 813 1700 
C 813 2024 864 2203 992 2298 
C 1126 2400 1325 2457 1549 2457 
z
" transform="scale(0.015625)"/>
       </defs>
       <use xlink:href="#NimbusRomNo9L-Regu-36" transform="scale(0.996264)"/>
      </g>
     </g>
    </g>
    <g id="ytick_5">
     <g id="line2d_118">
      <path d="M 62.477212 214.915862 
L 567.09952 214.915862 
" clip-path="url(#pd347a088b1)" style="fill: none; stroke: #b0b0b0; stroke-width: 0.5; stroke-linecap: square"/>
     </g>
     <g id="line2d_119">
      <g>
       <use xlink:href="#m71da94119d" x="62.477212" y="214.915862" style="stroke: #000000; stroke-width: 1.5"/>
      </g>
     </g>
     <g id="line2d_120">
      <g>
       <use xlink:href="#mdd305d66a8" x="567.09952" y="214.915862" style="stroke: #000000; stroke-width: 1.5"/>
      </g>
     </g>
     <g id="text_13">
      <!-- $\mathdefault{8}$ -->
      <g transform="translate(42.514572 221.670439) scale(0.2 -0.2)">
       <defs>
        <path id="NimbusRomNo9L-Regu-38" d="M 1856 2400 
C 2490 2739 2714 3008 2714 3443 
C 2714 3968 2253 4352 1613 4352 
C 915 4352 397 3923 397 3341 
C 397 2924 518 2739 1190 2150 
C 499 1625 358 1427 358 992 
C 358 371 864 -64 1587 -64 
C 2355 -64 2848 358 2848 1017 
C 2848 1510 2630 1824 1856 2400 
z
M 1741 1740 
C 2208 1408 2362 1177 2362 819 
C 2362 403 2074 115 1658 115 
C 1171 115 845 486 845 1043 
C 845 1452 986 1721 1357 2022 
L 1741 1740 
z
M 1670 2515 
C 1101 2886 870 3180 870 3539 
C 870 3910 1158 4172 1562 4172 
C 1997 4172 2272 3891 2272 3449 
C 2272 3084 2093 2796 1728 2553 
C 1696 2534 1696 2534 1670 2515 
z
" transform="scale(0.015625)"/>
       </defs>
       <use xlink:href="#NimbusRomNo9L-Regu-38" transform="scale(0.996264)"/>
      </g>
     </g>
    </g>
    <g id="ytick_6">
     <g id="line2d_121">
      <path d="M 62.477212 139.438633 
L 567.09952 139.438633 
" clip-path="url(#pd347a088b1)" style="fill: none; stroke: #b0b0b0; stroke-width: 0.5; stroke-linecap: square"/>
     </g>
     <g id="line2d_122">
      <g>
       <use xlink:href="#m71da94119d" x="62.477212" y="139.438633" style="stroke: #000000; stroke-width: 1.5"/>
      </g>
     </g>
     <g id="line2d_123">
      <g>
       <use xlink:href="#mdd305d66a8" x="567.09952" y="139.438633" style="stroke: #000000; stroke-width: 1.5"/>
      </g>
     </g>
     <g id="text_14">
      <!-- $\mathdefault{10}$ -->
      <g transform="translate(32.551932 146.193211) scale(0.2 -0.2)">
       <use xlink:href="#NimbusRomNo9L-Regu-31" transform="scale(0.996264)"/>
       <use xlink:href="#NimbusRomNo9L-Regu-30" transform="translate(49.8132 0) scale(0.996264)"/>
      </g>
     </g>
    </g>
    <g id="ytick_7">
     <g id="line2d_124">
      <path d="M 62.477212 63.961405 
L 567.09952 63.961405 
" clip-path="url(#pd347a088b1)" style="fill: none; stroke: #b0b0b0; stroke-width: 0.5; stroke-linecap: square"/>
     </g>
     <g id="line2d_125">
      <g>
       <use xlink:href="#m71da94119d" x="62.477212" y="63.961405" style="stroke: #000000; stroke-width: 1.5"/>
      </g>
     </g>
     <g id="line2d_126">
      <g>
       <use xlink:href="#mdd305d66a8" x="567.09952" y="63.961405" style="stroke: #000000; stroke-width: 1.5"/>
      </g>
     </g>
     <g id="text_15">
      <!-- $\mathdefault{12}$ -->
      <g transform="translate(32.551932 70.715983) scale(0.2 -0.2)">
       <use xlink:href="#NimbusRomNo9L-Regu-31" transform="scale(0.996264)"/>
       <use xlink:href="#NimbusRomNo9L-Regu-32" transform="translate(49.8132 0) scale(0.996264)"/>
      </g>
     </g>
    </g>
    <g id="ytick_8">
     <g id="line2d_127">
      <path d="M 62.477212 497.955468 
L 567.09952 497.955468 
" clip-path="url(#pd347a088b1)" style="fill: none; stroke: #b0b0b0; stroke-width: 0.5; stroke-linecap: square"/>
     </g>
     <g id="line2d_128">
      <defs>
       <path id="mce1a0e132a" d="M 0 0 
L -4 0 
" style="stroke: #000000; stroke-width: 0.5"/>
      </defs>
      <g>
       <use xlink:href="#mce1a0e132a" x="62.477212" y="497.955468" style="stroke: #000000; stroke-width: 0.5"/>
      </g>
     </g>
     <g id="line2d_129">
      <defs>
       <path id="m12c45e99bc" d="M 0 0 
L 4 0 
" style="stroke: #000000; stroke-width: 0.5"/>
      </defs>
      <g>
       <use xlink:href="#m12c45e99bc" x="567.09952" y="497.955468" style="stroke: #000000; stroke-width: 0.5"/>
      </g>
     </g>
    </g>
    <g id="ytick_9">
     <g id="line2d_130">
      <path d="M 62.477212 479.086161 
L 567.09952 479.086161 
" clip-path="url(#pd347a088b1)" style="fill: none; stroke: #b0b0b0; stroke-width: 0.5; stroke-linecap: square"/>
     </g>
     <g id="line2d_131">
      <g>
       <use xlink:href="#mce1a0e132a" x="62.477212" y="479.086161" style="stroke: #000000; stroke-width: 0.5"/>
      </g>
     </g>
     <g id="line2d_132">
      <g>
       <use xlink:href="#m12c45e99bc" x="567.09952" y="479.086161" style="stroke: #000000; stroke-width: 0.5"/>
      </g>
     </g>
    </g>
    <g id="ytick_10">
     <g id="line2d_133">
      <path d="M 62.477212 460.216854 
L 567.09952 460.216854 
" clip-path="url(#pd347a088b1)" style="fill: none; stroke: #b0b0b0; stroke-width: 0.5; stroke-linecap: square"/>
     </g>
     <g id="line2d_134">
      <g>
       <use xlink:href="#mce1a0e132a" x="62.477212" y="460.216854" style="stroke: #000000; stroke-width: 0.5"/>
      </g>
     </g>
     <g id="line2d_135">
      <g>
       <use xlink:href="#m12c45e99bc" x="567.09952" y="460.216854" style="stroke: #000000; stroke-width: 0.5"/>
      </g>
     </g>
    </g>
    <g id="ytick_11">
     <g id="line2d_136">
      <path d="M 62.477212 422.47824 
L 567.09952 422.47824 
" clip-path="url(#pd347a088b1)" style="fill: none; stroke: #b0b0b0; stroke-width: 0.5; stroke-linecap: square"/>
     </g>
     <g id="line2d_137">
      <g>
       <use xlink:href="#mce1a0e132a" x="62.477212" y="422.47824" style="stroke: #000000; stroke-width: 0.5"/>
      </g>
     </g>
     <g id="line2d_138">
      <g>
       <use xlink:href="#m12c45e99bc" x="567.09952" y="422.47824" style="stroke: #000000; stroke-width: 0.5"/>
      </g>
     </g>
    </g>
    <g id="ytick_12">
     <g id="line2d_139">
      <path d="M 62.477212 403.608933 
L 567.09952 403.608933 
" clip-path="url(#pd347a088b1)" style="fill: none; stroke: #b0b0b0; stroke-width: 0.5; stroke-linecap: square"/>
     </g>
     <g id="line2d_140">
      <g>
       <use xlink:href="#mce1a0e132a" x="62.477212" y="403.608933" style="stroke: #000000; stroke-width: 0.5"/>
      </g>
     </g>
     <g id="line2d_141">
      <g>
       <use xlink:href="#m12c45e99bc" x="567.09952" y="403.608933" style="stroke: #000000; stroke-width: 0.5"/>
      </g>
     </g>
    </g>
    <g id="ytick_13">
     <g id="line2d_142">
      <path d="M 62.477212 384.739626 
L 567.09952 384.739626 
" clip-path="url(#pd347a088b1)" style="fill: none; stroke: #b0b0b0; stroke-width: 0.5; stroke-linecap: square"/>
     </g>
     <g id="line2d_143">
      <g>
       <use xlink:href="#mce1a0e132a" x="62.477212" y="384.739626" style="stroke: #000000; stroke-width: 0.5"/>
      </g>
     </g>
     <g id="line2d_144">
      <g>
       <use xlink:href="#m12c45e99bc" x="567.09952" y="384.739626" style="stroke: #000000; stroke-width: 0.5"/>
      </g>
     </g>
    </g>
    <g id="ytick_14">
     <g id="line2d_145">
      <path d="M 62.477212 347.001011 
L 567.09952 347.001011 
" clip-path="url(#pd347a088b1)" style="fill: none; stroke: #b0b0b0; stroke-width: 0.5; stroke-linecap: square"/>
     </g>
     <g id="line2d_146">
      <g>
       <use xlink:href="#mce1a0e132a" x="62.477212" y="347.001011" style="stroke: #000000; stroke-width: 0.5"/>
      </g>
     </g>
     <g id="line2d_147">
      <g>
       <use xlink:href="#m12c45e99bc" x="567.09952" y="347.001011" style="stroke: #000000; stroke-width: 0.5"/>
      </g>
     </g>
    </g>
    <g id="ytick_15">
     <g id="line2d_148">
      <path d="M 62.477212 328.131704 
L 567.09952 328.131704 
" clip-path="url(#pd347a088b1)" style="fill: none; stroke: #b0b0b0; stroke-width: 0.5; stroke-linecap: square"/>
     </g>
     <g id="line2d_149">
      <g>
       <use xlink:href="#mce1a0e132a" x="62.477212" y="328.131704" style="stroke: #000000; stroke-width: 0.5"/>
      </g>
     </g>
     <g id="line2d_150">
      <g>
       <use xlink:href="#m12c45e99bc" x="567.09952" y="328.131704" style="stroke: #000000; stroke-width: 0.5"/>
      </g>
     </g>
    </g>
    <g id="ytick_16">
     <g id="line2d_151">
      <path d="M 62.477212 309.262397 
L 567.09952 309.262397 
" clip-path="url(#pd347a088b1)" style="fill: none; stroke: #b0b0b0; stroke-width: 0.5; stroke-linecap: square"/>
     </g>
     <g id="line2d_152">
      <g>
       <use xlink:href="#mce1a0e132a" x="62.477212" y="309.262397" style="stroke: #000000; stroke-width: 0.5"/>
      </g>
     </g>
     <g id="line2d_153">
      <g>
       <use xlink:href="#m12c45e99bc" x="567.09952" y="309.262397" style="stroke: #000000; stroke-width: 0.5"/>
      </g>
     </g>
    </g>
    <g id="ytick_17">
     <g id="line2d_154">
      <path d="M 62.477212 271.523783 
L 567.09952 271.523783 
" clip-path="url(#pd347a088b1)" style="fill: none; stroke: #b0b0b0; stroke-width: 0.5; stroke-linecap: square"/>
     </g>
     <g id="line2d_155">
      <g>
       <use xlink:href="#mce1a0e132a" x="62.477212" y="271.523783" style="stroke: #000000; stroke-width: 0.5"/>
      </g>
     </g>
     <g id="line2d_156">
      <g>
       <use xlink:href="#m12c45e99bc" x="567.09952" y="271.523783" style="stroke: #000000; stroke-width: 0.5"/>
      </g>
     </g>
    </g>
    <g id="ytick_18">
     <g id="line2d_157">
      <path d="M 62.477212 252.654476 
L 567.09952 252.654476 
" clip-path="url(#pd347a088b1)" style="fill: none; stroke: #b0b0b0; stroke-width: 0.5; stroke-linecap: square"/>
     </g>
     <g id="line2d_158">
      <g>
       <use xlink:href="#mce1a0e132a" x="62.477212" y="252.654476" style="stroke: #000000; stroke-width: 0.5"/>
      </g>
     </g>
     <g id="line2d_159">
      <g>
       <use xlink:href="#m12c45e99bc" x="567.09952" y="252.654476" style="stroke: #000000; stroke-width: 0.5"/>
      </g>
     </g>
    </g>
    <g id="ytick_19">
     <g id="line2d_160">
      <path d="M 62.477212 233.785169 
L 567.09952 233.785169 
" clip-path="url(#pd347a088b1)" style="fill: none; stroke: #b0b0b0; stroke-width: 0.5; stroke-linecap: square"/>
     </g>
     <g id="line2d_161">
      <g>
       <use xlink:href="#mce1a0e132a" x="62.477212" y="233.785169" style="stroke: #000000; stroke-width: 0.5"/>
      </g>
     </g>
     <g id="line2d_162">
      <g>
       <use xlink:href="#m12c45e99bc" x="567.09952" y="233.785169" style="stroke: #000000; stroke-width: 0.5"/>
      </g>
     </g>
    </g>
    <g id="ytick_20">
     <g id="line2d_163">
      <path d="M 62.477212 196.046555 
L 567.09952 196.046555 
" clip-path="url(#pd347a088b1)" style="fill: none; stroke: #b0b0b0; stroke-width: 0.5; stroke-linecap: square"/>
     </g>
     <g id="line2d_164">
      <g>
       <use xlink:href="#mce1a0e132a" x="62.477212" y="196.046555" style="stroke: #000000; stroke-width: 0.5"/>
      </g>
     </g>
     <g id="line2d_165">
      <g>
       <use xlink:href="#m12c45e99bc" x="567.09952" y="196.046555" style="stroke: #000000; stroke-width: 0.5"/>
      </g>
     </g>
    </g>
    <g id="ytick_21">
     <g id="line2d_166">
      <path d="M 62.477212 177.177248 
L 567.09952 177.177248 
" clip-path="url(#pd347a088b1)" style="fill: none; stroke: #b0b0b0; stroke-width: 0.5; stroke-linecap: square"/>
     </g>
     <g id="line2d_167">
      <g>
       <use xlink:href="#mce1a0e132a" x="62.477212" y="177.177248" style="stroke: #000000; stroke-width: 0.5"/>
      </g>
     </g>
     <g id="line2d_168">
      <g>
       <use xlink:href="#m12c45e99bc" x="567.09952" y="177.177248" style="stroke: #000000; stroke-width: 0.5"/>
      </g>
     </g>
    </g>
    <g id="ytick_22">
     <g id="line2d_169">
      <path d="M 62.477212 158.30794 
L 567.09952 158.30794 
" clip-path="url(#pd347a088b1)" style="fill: none; stroke: #b0b0b0; stroke-width: 0.5; stroke-linecap: square"/>
     </g>
     <g id="line2d_170">
      <g>
       <use xlink:href="#mce1a0e132a" x="62.477212" y="158.30794" style="stroke: #000000; stroke-width: 0.5"/>
      </g>
     </g>
     <g id="line2d_171">
      <g>
       <use xlink:href="#m12c45e99bc" x="567.09952" y="158.30794" style="stroke: #000000; stroke-width: 0.5"/>
      </g>
     </g>
    </g>
    <g id="ytick_23">
     <g id="line2d_172">
      <path d="M 62.477212 120.569326 
L 567.09952 120.569326 
" clip-path="url(#pd347a088b1)" style="fill: none; stroke: #b0b0b0; stroke-width: 0.5; stroke-linecap: square"/>
     </g>
     <g id="line2d_173">
      <g>
       <use xlink:href="#mce1a0e132a" x="62.477212" y="120.569326" style="stroke: #000000; stroke-width: 0.5"/>
      </g>
     </g>
     <g id="line2d_174">
      <g>
       <use xlink:href="#m12c45e99bc" x="567.09952" y="120.569326" style="stroke: #000000; stroke-width: 0.5"/>
      </g>
     </g>
    </g>
    <g id="ytick_24">
     <g id="line2d_175">
      <path d="M 62.477212 101.700019 
L 567.09952 101.700019 
" clip-path="url(#pd347a088b1)" style="fill: none; stroke: #b0b0b0; stroke-width: 0.5; stroke-linecap: square"/>
     </g>
     <g id="line2d_176">
      <g>
       <use xlink:href="#mce1a0e132a" x="62.477212" y="101.700019" style="stroke: #000000; stroke-width: 0.5"/>
      </g>
     </g>
     <g id="line2d_177">
      <g>
       <use xlink:href="#m12c45e99bc" x="567.09952" y="101.700019" style="stroke: #000000; stroke-width: 0.5"/>
      </g>
     </g>
    </g>
    <g id="ytick_25">
     <g id="line2d_178">
      <path d="M 62.477212 82.830712 
L 567.09952 82.830712 
" clip-path="url(#pd347a088b1)" style="fill: none; stroke: #b0b0b0; stroke-width: 0.5; stroke-linecap: square"/>
     </g>
     <g id="line2d_179">
      <g>
       <use xlink:href="#mce1a0e132a" x="62.477212" y="82.830712" style="stroke: #000000; stroke-width: 0.5"/>
      </g>
     </g>
     <g id="line2d_180">
      <g>
       <use xlink:href="#m12c45e99bc" x="567.09952" y="82.830712" style="stroke: #000000; stroke-width: 0.5"/>
      </g>
     </g>
    </g>
    <g id="ytick_26">
     <g id="line2d_181">
      <path d="M 62.477212 45.092098 
L 567.09952 45.092098 
" clip-path="url(#pd347a088b1)" style="fill: none; stroke: #b0b0b0; stroke-width: 0.5; stroke-linecap: square"/>
     </g>
     <g id="line2d_182">
      <g>
       <use xlink:href="#mce1a0e132a" x="62.477212" y="45.092098" style="stroke: #000000; stroke-width: 0.5"/>
      </g>
     </g>
     <g id="line2d_183">
      <g>
       <use xlink:href="#m12c45e99bc" x="567.09952" y="45.092098" style="stroke: #000000; stroke-width: 0.5"/>
      </g>
     </g>
    </g>
    <g id="ytick_27">
     <g id="line2d_184">
      <path d="M 62.477212 26.222791 
L 567.09952 26.222791 
" clip-path="url(#pd347a088b1)" style="fill: none; stroke: #b0b0b0; stroke-width: 0.5; stroke-linecap: square"/>
     </g>
     <g id="line2d_185">
      <g>
       <use xlink:href="#mce1a0e132a" x="62.477212" y="26.222791" style="stroke: #000000; stroke-width: 0.5"/>
      </g>
     </g>
     <g id="line2d_186">
      <g>
       <use xlink:href="#m12c45e99bc" x="567.09952" y="26.222791" style="stroke: #000000; stroke-width: 0.5"/>
      </g>
     </g>
    </g>
    <g id="text_16">
     <!-- Improvement (mean time) -->
     <g transform="translate(22.512811 409.465573) rotate(-90) scale(0.28 -0.28)">
      <defs>
       <path id="NimbusRomNo9L-Regu-49" d="M 736 695 
C 736 217 653 140 115 121 
L 115 0 
L 2016 0 
L 2016 121 
C 1491 140 1389 230 1389 695 
L 1389 3528 
C 1389 3994 1478 4077 2016 4102 
L 2016 4224 
L 115 4224 
L 115 4102 
C 659 4070 736 4000 736 3528 
L 736 695 
z
" transform="scale(0.015625)"/>
       <path id="NimbusRomNo9L-Regu-6d" d="M 122 2547 
C 205 2566 256 2572 326 2572 
C 493 2572 550 2470 550 2163 
L 550 544 
C 550 198 461 102 102 96 
L 102 0 
L 1523 0 
L 1523 96 
C 1184 108 1088 179 1088 428 
L 1088 2233 
C 1088 2246 1139 2310 1184 2355 
C 1344 2502 1619 2611 1843 2611 
C 2125 2611 2266 2387 2266 1939 
L 2266 550 
C 2266 192 2195 121 1830 96 
L 1830 0 
L 3264 0 
L 3264 96 
C 2899 102 2803 211 2803 608 
L 2803 2220 
C 2995 2496 3206 2611 3501 2611 
C 3866 2611 3981 2438 3981 1907 
L 3981 556 
C 3981 192 3930 140 3558 96 
L 3558 0 
L 4960 0 
L 4960 96 
L 4794 108 
C 4602 121 4518 236 4518 486 
L 4518 1804 
C 4518 2560 4269 2944 3776 2944 
C 3405 2944 3078 2777 2733 2406 
C 2618 2771 2400 2944 2054 2944 
C 1773 2944 1594 2854 1062 2451 
L 1062 2931 
L 1018 2944 
C 691 2822 474 2751 122 2655 
L 122 2547 
z
" transform="scale(0.015625)"/>
       <path id="NimbusRomNo9L-Regu-70" d="M 58 2515 
C 115 2521 160 2521 218 2521 
C 435 2521 480 2457 480 2157 
L 480 -839 
C 480 -1172 410 -1242 32 -1280 
L 32 -1389 
L 1581 -1389 
L 1581 -1280 
C 1101 -1274 1018 -1203 1018 -798 
L 1018 211 
C 1242 0 1395 -64 1664 -64 
C 2419 -64 3008 652 3008 1580 
C 3008 2374 2560 2944 1939 2944 
C 1581 2944 1299 2783 1018 2438 
L 1018 2931 
L 979 2944 
C 634 2809 410 2726 58 2617 
L 58 2515 
z
M 1018 2137 
C 1018 2329 1376 2559 1670 2559 
C 2144 2559 2458 2073 2458 1331 
C 2458 620 2144 140 1683 140 
C 1382 140 1018 371 1018 563 
L 1018 2137 
z
" transform="scale(0.015625)"/>
       <path id="NimbusRomNo9L-Regu-72" d="M 45 2496 
C 134 2515 192 2521 269 2521 
C 429 2521 486 2419 486 2137 
L 486 537 
C 486 217 442 172 32 96 
L 32 0 
L 1568 0 
L 1568 96 
C 1133 115 1024 211 1024 576 
L 1024 2016 
C 1024 2220 1299 2540 1472 2540 
C 1510 2540 1568 2508 1638 2444 
C 1741 2355 1811 2316 1894 2316 
C 2048 2316 2144 2425 2144 2604 
C 2144 2815 2010 2944 1792 2944 
C 1523 2944 1338 2796 1024 2342 
L 1024 2931 
L 992 2944 
C 653 2803 422 2720 45 2598 
L 45 2496 
z
" transform="scale(0.015625)"/>
       <path id="NimbusRomNo9L-Regu-6f" d="M 1600 2944 
C 768 2944 186 2329 186 1446 
C 186 582 781 -64 1587 -64 
C 2394 -64 3008 614 3008 1497 
C 3008 2336 2419 2944 1600 2944 
z
M 1517 2764 
C 2054 2764 2432 2150 2432 1273 
C 2432 550 2144 115 1664 115 
C 1414 115 1178 268 1043 524 
C 864 857 762 1305 762 1760 
C 762 2368 1062 2764 1517 2764 
z
" transform="scale(0.015625)"/>
       <path id="NimbusRomNo9L-Regu-76" d="M 3053 2880 
L 2163 2880 
L 2163 2783 
C 2368 2764 2464 2701 2464 2580 
C 2464 2517 2451 2454 2426 2390 
L 1792 748 
L 1139 2371 
C 1101 2460 1082 2549 1082 2606 
C 1082 2720 1152 2764 1376 2783 
L 1376 2880 
L 122 2880 
L 122 2783 
C 365 2771 410 2707 704 2054 
L 1472 235 
C 1485 197 1504 152 1523 102 
C 1562 -13 1600 -64 1638 -64 
C 1677 -64 1722 19 1818 254 
L 2637 2289 
C 2822 2720 2861 2764 3053 2783 
L 3053 2880 
z
" transform="scale(0.015625)"/>
       <path id="NimbusRomNo9L-Regu-65" d="M 2611 1052 
C 2304 564 2029 377 1619 377 
C 1254 377 979 564 794 930 
C 678 1174 634 1386 621 1779 
L 2592 1779 
C 2541 2193 2477 2377 2317 2580 
C 2125 2809 1830 2944 1498 2944 
C 1178 2944 877 2828 634 2612 
C 333 2351 160 1900 160 1374 
C 160 486 621 -64 1357 -64 
C 1965 -64 2445 313 2714 1007 
L 2611 1052 
z
M 634 1984 
C 704 2478 922 2713 1312 2713 
C 1702 2713 1856 2535 1939 1984 
L 634 1984 
z
" transform="scale(0.015625)"/>
       <path id="NimbusRomNo9L-Regu-6e" d="M 102 2547 
C 141 2566 205 2572 275 2572 
C 454 2572 512 2476 512 2163 
L 512 576 
C 512 211 442 121 115 96 
L 115 0 
L 1472 0 
L 1472 96 
C 1146 121 1050 198 1050 428 
L 1050 2227 
C 1357 2515 1498 2591 1709 2591 
C 2022 2591 2176 2393 2176 1971 
L 2176 633 
C 2176 230 2093 121 1773 96 
L 1773 0 
L 3104 0 
L 3104 96 
C 2790 128 2714 204 2714 518 
L 2714 1984 
C 2714 2585 2432 2944 1958 2944 
C 1664 2944 1466 2835 1030 2425 
L 1030 2931 
L 986 2944 
C 672 2828 454 2758 102 2655 
L 102 2547 
z
" transform="scale(0.015625)"/>
       <path id="NimbusRomNo9L-Regu-74" d="M 1632 2880 
L 986 2880 
L 986 3622 
C 986 3686 979 3705 941 3705 
C 896 3648 858 3590 813 3526 
C 570 3174 294 2867 192 2841 
C 122 2796 83 2751 83 2719 
C 83 2700 90 2687 109 2675 
L 448 2675 
L 448 748 
C 448 211 640 -64 1018 -64 
C 1331 -64 1574 89 1786 422 
L 1702 492 
C 1568 332 1459 268 1318 268 
C 1082 268 986 441 986 844 
L 986 2675 
L 1632 2675 
L 1632 2880 
z
" transform="scale(0.015625)"/>
       <path id="NimbusRomNo9L-Regu-28" d="M 1888 4352 
C 1414 4044 1222 3878 986 3583 
C 531 3027 307 2387 307 1638 
C 307 825 544 198 1107 -455 
C 1370 -762 1536 -903 1869 -1108 
L 1946 -1006 
C 1434 -602 1254 -378 1082 102 
C 928 530 858 1017 858 1657 
C 858 2329 941 2854 1114 3251 
C 1293 3647 1485 3878 1946 4249 
L 1888 4352 
z
" transform="scale(0.015625)"/>
       <path id="NimbusRomNo9L-Regu-61" d="M 2829 422 
C 2720 332 2643 300 2547 300 
C 2400 300 2355 390 2355 672 
L 2355 1920 
C 2355 2252 2323 2438 2227 2592 
C 2086 2822 1811 2944 1434 2944 
C 832 2944 358 2630 358 2227 
C 358 2080 486 1952 634 1952 
C 787 1952 922 2080 922 2220 
C 922 2246 915 2278 909 2323 
C 896 2380 890 2432 890 2476 
C 890 2649 1094 2790 1350 2790 
C 1664 2790 1837 2604 1837 2259 
L 1837 1868 
C 851 1472 742 1420 467 1177 
C 326 1049 237 832 237 620 
C 237 217 518 -64 909 -64 
C 1190 -64 1453 70 1843 403 
C 1875 70 1990 -64 2253 -64 
C 2470 -64 2605 12 2829 256 
L 2829 422 
z
M 1837 787 
C 1837 588 1805 531 1670 454 
C 1517 364 1338 307 1203 307 
C 979 307 800 524 800 800 
L 800 825 
C 800 1203 1062 1433 1837 1715 
L 1837 787 
z
" transform="scale(0.015625)"/>
       <path id="NimbusRomNo9L-Regu-69" d="M 1120 2944 
L 128 2592 
L 128 2496 
L 179 2502 
C 256 2515 339 2521 397 2521 
C 550 2521 608 2419 608 2137 
L 608 652 
C 608 192 544 121 102 96 
L 102 0 
L 1619 0 
L 1619 96 
C 1197 128 1146 192 1146 652 
L 1146 2924 
L 1120 2944 
z
M 819 4352 
C 646 4352 499 4204 499 4025 
C 499 3846 640 3699 819 3699 
C 1005 3699 1152 3839 1152 4025 
C 1152 4204 1005 4352 819 4352 
z
" transform="scale(0.015625)"/>
       <path id="NimbusRomNo9L-Regu-29" d="M 243 -1108 
C 717 -801 909 -634 1146 -340 
C 1600 217 1824 857 1824 1606 
C 1824 2425 1587 3046 1024 3699 
C 762 4006 595 4147 262 4352 
L 186 4249 
C 698 3846 870 3622 1050 3142 
C 1203 2713 1274 2227 1274 1587 
C 1274 921 1190 390 1018 -1 
C 838 -404 646 -634 186 -1006 
L 243 -1108 
z
" transform="scale(0.015625)"/>
      </defs>
      <use xlink:href="#NimbusRomNo9L-Regu-49" transform="scale(0.996264)"/>
      <use xlink:href="#NimbusRomNo9L-Regu-6d" transform="translate(33.17523 0) scale(0.996264)"/>
      <use xlink:href="#NimbusRomNo9L-Regu-70" transform="translate(110.6836 0) scale(0.996264)"/>
      <use xlink:href="#NimbusRomNo9L-Regu-72" transform="translate(160.4968 0) scale(0.996264)"/>
      <use xlink:href="#NimbusRomNo9L-Regu-6f" transform="translate(193.67203 0) scale(0.996264)"/>
      <use xlink:href="#NimbusRomNo9L-Regu-76" transform="translate(241.991838 0) scale(0.996264)"/>
      <use xlink:href="#NimbusRomNo9L-Regu-65" transform="translate(290.311646 0) scale(0.996264)"/>
      <use xlink:href="#NimbusRomNo9L-Regu-6d" transform="translate(334.545214 0) scale(0.996264)"/>
      <use xlink:href="#NimbusRomNo9L-Regu-65" transform="translate(412.053584 0) scale(0.996264)"/>
      <use xlink:href="#NimbusRomNo9L-Regu-6e" transform="translate(456.287153 0) scale(0.996264)"/>
      <use xlink:href="#NimbusRomNo9L-Regu-74" transform="translate(506.100354 0) scale(0.996264)"/>
      <use xlink:href="#NimbusRomNo9L-Regu-28" transform="translate(558.702124 0) scale(0.996264)"/>
      <use xlink:href="#NimbusRomNo9L-Regu-6d" transform="translate(591.877353 0) scale(0.996264)"/>
      <use xlink:href="#NimbusRomNo9L-Regu-65" transform="translate(669.385723 0) scale(0.996264)"/>
      <use xlink:href="#NimbusRomNo9L-Regu-61" transform="translate(713.619292 0) scale(0.996264)"/>
      <use xlink:href="#NimbusRomNo9L-Regu-6e" transform="translate(757.852861 0) scale(0.996264)"/>
      <use xlink:href="#NimbusRomNo9L-Regu-74" transform="translate(832.572661 0) scale(0.996264)"/>
      <use xlink:href="#NimbusRomNo9L-Regu-69" transform="translate(860.267831 0) scale(0.996264)"/>
      <use xlink:href="#NimbusRomNo9L-Regu-6d" transform="translate(887.963001 0) scale(0.996264)"/>
      <use xlink:href="#NimbusRomNo9L-Regu-65" transform="translate(965.471371 0) scale(0.996264)"/>
      <use xlink:href="#NimbusRomNo9L-Regu-29" transform="translate(1009.704939 0) scale(0.996264)"/>
     </g>
    </g>
   </g>
   <g id="patch_99">
    <path d="M 62.477212 516.824775 
L 62.477212 10.1 
" style="fill: none; stroke: #000000; stroke-width: 0.5; stroke-linejoin: miter; stroke-linecap: square"/>
   </g>
   <g id="patch_100">
    <path d="M 567.09952 516.824775 
L 567.09952 10.1 
" style="fill: none; stroke: #000000; stroke-width: 0.5; stroke-linejoin: miter; stroke-linecap: square"/>
   </g>
   <g id="patch_101">
    <path d="M 62.477212 516.824775 
L 567.09952 516.824775 
" style="fill: none; stroke: #000000; stroke-width: 0.5; stroke-linejoin: miter; stroke-linecap: square"/>
   </g>
   <g id="patch_102">
    <path d="M 62.477212 10.1 
L 567.09952 10.1 
" style="fill: none; stroke: #000000; stroke-width: 0.5; stroke-linejoin: miter; stroke-linecap: square"/>
   </g>
   <g id="legend_1">
    <g id="patch_103">
     <path d="M 411.187209 42.1 
L 451.187209 42.1 
L 451.187209 28.1 
L 411.187209 28.1 
z
" style="fill: #3f90da"/>
    </g>
    <g id="text_17">
     <!-- Rust -->
     <g transform="translate(467.187209 42.1) scale(0.2 -0.2)">
      <defs>
       <path id="NimbusRomNo9L-Regu-52" d="M 4218 121 
C 3974 140 3846 204 3661 421 
L 2342 2035 
C 2771 2118 2963 2194 3174 2366 
C 3379 2532 3501 2800 3501 3100 
C 3501 3374 3418 3610 3251 3795 
C 3008 4057 2477 4224 1875 4224 
L 109 4224 
L 109 4102 
C 589 4051 653 3981 653 3528 
L 653 765 
C 653 236 589 159 109 121 
L 109 0 
L 1882 0 
L 1882 121 
C 1389 153 1306 236 1306 695 
L 1306 1952 
L 1664 1965 
L 3187 0 
L 4218 0 
L 4218 121 
z
M 1306 3756 
C 1306 3935 1376 3987 1632 3987 
C 2432 3987 2803 3711 2803 3110 
C 2803 2790 2669 2521 2438 2399 
C 2144 2233 1920 2195 1306 2182 
L 1306 3756 
z
" transform="scale(0.015625)"/>
       <path id="NimbusRomNo9L-Regu-75" d="M 3066 319 
L 3034 319 
C 2739 319 2669 390 2669 684 
L 2669 2880 
L 1658 2880 
L 1658 2771 
C 2054 2752 2131 2688 2131 2368 
L 2131 864 
C 2131 684 2099 595 2010 524 
C 1837 384 1638 307 1446 307 
C 1197 307 992 524 992 793 
L 992 2880 
L 58 2880 
L 58 2790 
C 365 2771 454 2675 454 2380 
L 454 768 
C 454 262 762 -64 1229 -64 
C 1466 -64 1715 38 1888 211 
L 2163 486 
L 2163 -45 
L 2189 -64 
C 2509 64 2739 134 3066 224 
L 3066 319 
z
" transform="scale(0.015625)"/>
       <path id="NimbusRomNo9L-Regu-73" d="M 2016 2009 
L 1990 2880 
L 1920 2880 
L 1907 2867 
C 1850 2822 1843 2815 1818 2815 
C 1779 2815 1715 2828 1645 2860 
C 1504 2918 1363 2944 1197 2944 
C 691 2944 326 2617 326 2155 
C 326 1796 531 1539 1075 1231 
L 1446 1019 
C 1670 891 1779 737 1779 538 
C 1779 256 1574 76 1248 76 
C 1030 76 832 160 710 301 
C 576 461 518 609 435 974 
L 333 974 
L 333 -26 
L 416 -26 
C 461 38 486 51 563 51 
C 621 51 710 38 858 0 
C 1037 -39 1210 -64 1325 -64 
C 1818 -64 2227 307 2227 756 
C 2227 1077 2074 1289 1690 1520 
L 998 1930 
C 819 2033 723 2193 723 2366 
C 723 2623 922 2803 1216 2803 
C 1581 2803 1773 2585 1920 2014 
L 2016 2009 
z
" transform="scale(0.015625)"/>
      </defs>
      <use xlink:href="#NimbusRomNo9L-Regu-52" transform="scale(0.996264)"/>
      <use xlink:href="#NimbusRomNo9L-Regu-75" transform="translate(66.450031 0) scale(0.996264)"/>
      <use xlink:href="#NimbusRomNo9L-Regu-73" transform="translate(116.263232 0) scale(0.996264)"/>
      <use xlink:href="#NimbusRomNo9L-Regu-74" transform="translate(155.016938 0) scale(0.996264)"/>
     </g>
    </g>
    <g id="patch_104">
     <path d="M 411.187209 70.413658 
L 451.187209 70.413658 
L 451.187209 56.413658 
L 411.187209 56.413658 
z
" style="fill: #ffa90e"/>
    </g>
    <g id="text_18">
     <!-- Python -->
     <g transform="translate(467.187209 70.413658) scale(0.2 -0.2)">
      <defs>
       <path id="NimbusRomNo9L-Regu-50" d="M 1293 1875 
C 1459 1862 1568 1855 1734 1855 
C 2234 1855 2579 1919 2854 2073 
C 3238 2276 3469 2661 3469 3077 
C 3469 3343 3379 3583 3206 3766 
C 2950 4044 2394 4224 1792 4224 
L 102 4224 
L 102 4102 
C 576 4051 640 3987 640 3528 
L 640 765 
C 640 230 589 166 102 121 
L 102 0 
L 1894 0 
L 1894 121 
C 1389 140 1293 230 1293 695 
L 1293 1875 
z
M 1293 3772 
C 1293 3942 1338 3987 1510 3987 
C 2374 3987 2771 3690 2771 3040 
C 2771 2427 2394 2112 1658 2112 
C 1530 2112 1440 2118 1293 2130 
L 1293 3772 
z
" transform="scale(0.015625)"/>
       <path id="NimbusRomNo9L-Regu-79" d="M 3040 2880 
L 2176 2880 
L 2176 2783 
C 2381 2783 2483 2726 2483 2623 
C 2483 2597 2477 2559 2458 2514 
L 1837 741 
L 1101 2366 
C 1062 2456 1037 2540 1037 2610 
C 1037 2726 1133 2771 1408 2783 
L 1408 2880 
L 90 2880 
L 90 2790 
C 256 2764 365 2694 416 2585 
L 1146 1005 
L 1165 953 
L 1261 761 
C 1440 439 1542 208 1542 112 
C 1542 15 1395 -389 1286 -582 
C 1197 -749 1056 -871 966 -871 
C 928 -871 870 -858 806 -826 
C 685 -781 576 -755 467 -755 
C 320 -755 192 -884 192 -1037 
C 192 -1248 397 -1408 666 -1408 
C 1094 -1408 1402 -1050 1747 -126 
L 2733 2495 
C 2816 2700 2886 2764 3040 2783 
L 3040 2880 
z
" transform="scale(0.015625)"/>
       <path id="NimbusRomNo9L-Regu-68" d="M 1005 2195 
C 1274 2489 1466 2598 1715 2598 
C 2035 2598 2195 2368 2195 1920 
L 2195 652 
C 2195 217 2131 134 1760 96 
L 1760 0 
L 3117 0 
L 3117 96 
C 2771 160 2733 211 2733 652 
L 2733 1926 
C 2733 2598 2464 2944 1946 2944 
C 1568 2944 1299 2790 1005 2406 
L 1005 4352 
L 973 4371 
C 755 4294 595 4243 237 4140 
L 64 4089 
L 64 3987 
C 90 3993 109 3993 141 3993 
C 416 3993 467 3942 467 3667 
L 467 652 
C 467 204 429 147 58 96 
L 58 0 
L 1440 0 
L 1440 96 
C 1069 134 1005 211 1005 652 
L 1005 2195 
z
" transform="scale(0.015625)"/>
      </defs>
      <use xlink:href="#NimbusRomNo9L-Regu-50" transform="scale(0.996264)"/>
      <use xlink:href="#NimbusRomNo9L-Regu-79" transform="translate(55.391677 0) scale(0.996264)"/>
      <use xlink:href="#NimbusRomNo9L-Regu-74" transform="translate(105.204877 0) scale(0.996264)"/>
      <use xlink:href="#NimbusRomNo9L-Regu-68" transform="translate(132.900047 0) scale(0.996264)"/>
      <use xlink:href="#NimbusRomNo9L-Regu-6f" transform="translate(182.713248 0) scale(0.996264)"/>
      <use xlink:href="#NimbusRomNo9L-Regu-6e" transform="translate(232.526448 0) scale(0.996264)"/>
     </g>
    </g>
    <g id="patch_105">
     <path d="M 411.187209 98.727316 
L 451.187209 98.727316 
L 451.187209 84.727316 
L 411.187209 84.727316 
z
" style="fill: #bd1f01"/>
    </g>
    <g id="text_19">
     <!-- MATLAB -->
     <g transform="translate(467.187209 98.727316) scale(0.2 -0.2)">
      <defs>
       <path id="NimbusRomNo9L-Regu-4d" d="M 4314 3656 
L 4314 765 
C 4314 236 4237 153 3731 121 
L 3731 0 
L 5523 0 
L 5523 121 
C 5056 153 4966 242 4966 695 
L 4966 3528 
C 4966 3981 5050 4064 5523 4102 
L 5523 4224 
L 4250 4224 
L 2835 1002 
L 1357 4224 
L 90 4224 
L 90 4102 
C 614 4070 698 3994 698 3528 
L 698 938 
C 698 281 608 159 77 121 
L 77 0 
L 1581 0 
L 1581 121 
C 1088 147 979 293 979 938 
L 979 3509 
L 2586 0 
L 2675 0 
L 4314 3656 
z
" transform="scale(0.015625)"/>
       <path id="NimbusRomNo9L-Regu-41" d="M 4518 121 
C 4230 141 4166 205 3942 686 
L 2349 4288 
L 2221 4288 
L 890 1187 
C 480 238 403 134 96 121 
L 96 0 
L 1363 0 
L 1363 121 
C 1056 121 928 205 928 387 
C 928 465 947 556 979 641 
L 1274 1401 
L 2950 1401 
L 3213 777 
C 3290 602 3334 433 3334 342 
C 3334 179 3226 128 2886 121 
L 2886 0 
L 4518 0 
L 4518 121 
z
M 1382 1664 
L 2118 3392 
L 2861 1664 
L 1382 1664 
z
" transform="scale(0.015625)"/>
       <path id="NimbusRomNo9L-Regu-54" d="M 1626 3955 
L 1626 765 
C 1626 223 1555 153 1024 121 
L 1024 0 
L 2893 0 
L 2893 121 
C 2368 147 2278 230 2278 695 
L 2278 3955 
L 2624 3955 
C 3354 3955 3494 3840 3642 3138 
L 3795 3138 
L 3757 4224 
L 147 4224 
L 109 3138 
L 262 3138 
C 416 3834 563 3955 1280 3955 
L 1626 3955 
z
" transform="scale(0.015625)"/>
       <path id="NimbusRomNo9L-Regu-4c" d="M 3667 1110 
C 3558 868 3469 721 3373 613 
C 3149 364 2797 249 2266 249 
L 1837 249 
C 1370 249 1286 287 1286 511 
L 1286 3528 
C 1286 3981 1376 4070 1882 4102 
L 1882 4224 
L 77 4224 
L 77 4102 
C 550 4064 634 3974 634 3528 
L 634 696 
C 634 249 544 153 77 121 
L 77 0 
L 3520 0 
L 3827 1113 
L 3667 1110 
z
" transform="scale(0.015625)"/>
       <path id="NimbusRomNo9L-Regu-42" d="M 109 4224 
L 109 4102 
C 646 4070 723 4000 723 3528 
L 723 695 
C 723 223 640 140 109 121 
L 109 0 
L 2246 0 
C 2746 0 3200 134 3437 351 
C 3667 555 3795 842 3795 1148 
C 3795 1429 3680 1684 3482 1869 
C 3290 2041 3117 2118 2701 2220 
C 3034 2303 3168 2367 3322 2500 
C 3482 2641 3578 2877 3578 3138 
C 3578 3853 3008 4224 1901 4224 
L 109 4224 
z
M 1376 2080 
C 1997 2080 2291 2048 2522 1952 
C 2886 1799 3059 1544 3059 1142 
C 3059 798 2925 549 2669 402 
C 2464 287 2202 236 1779 236 
C 1466 236 1376 294 1376 498 
L 1376 2080 
z
M 1376 2335 
L 1376 3795 
C 1376 3929 1421 3987 1517 3987 
L 1798 3987 
C 2534 3987 2925 3680 2925 3113 
C 2925 2615 2586 2335 1984 2335 
L 1376 2335 
z
" transform="scale(0.015625)"/>
      </defs>
      <use xlink:href="#NimbusRomNo9L-Regu-4d" transform="scale(0.996264)"/>
      <use xlink:href="#NimbusRomNo9L-Regu-41" transform="translate(88.566907 0) scale(0.996264)"/>
      <use xlink:href="#NimbusRomNo9L-Regu-54" transform="translate(149.438446 0) scale(0.996264)"/>
      <use xlink:href="#NimbusRomNo9L-Regu-4c" transform="translate(210.310077 0) scale(0.996264)"/>
      <use xlink:href="#NimbusRomNo9L-Regu-41" transform="translate(271.181708 0) scale(0.996264)"/>
      <use xlink:href="#NimbusRomNo9L-Regu-42" transform="translate(343.111692 0) scale(0.996264)"/>
     </g>
    </g>
   </g>
  </g>
 </g>
 <defs>
  <clipPath id="pd347a088b1">
   <rect x="62.477212" y="10.1" width="504.622308" height="506.724775"/>
  </clipPath>
 </defs>
</svg>
