<svg width="18" height="18" viewBox="0 0 18 18" fill="none" xmlns="http://www.w3.org/2000/svg">
<path fill-rule="evenodd" clip-rule="evenodd" d="M5 13H3C1.89543 13 1 12.1046 1 11V3C1 1.89543 1.89543 1 3 1H11C12.1046 1 13 1.89543 13 3V5H15C16.1046 5 17 5.89543 17 7V15C17 16.1046 16.1046 17 15 17H7C5.89543 17 5 16.1046 5 15V13ZM3 2H11C11.5523 2 12 2.44772 12 3V11C12 11.5523 11.5523 12 11 12H3C2.44772 12 2 11.5523 2 11V3C2 2.44772 2.44772 2 3 2ZM13 6H15C15.5523 6 16 6.44772 16 7V15C16 15.5523 15.5523 16 15 16H7C6.44771 16 6 15.5523 6 15V13H11C12.1046 13 13 12.1046 13 11V6Z" fill="#424242"/>
</svg>
