<svg width="17" height="17" viewBox="0 0 17 17" fill="none" xmlns="http://www.w3.org/2000/svg">
<path fill-rule="evenodd" clip-rule="evenodd" d="M0.00101563 8.44055C0.00157648 12.9534 3.66138 16.6123 8.17427 16.6118C12.6872 16.6112 16.3461 12.9514 16.3455 8.43852C16.3449 3.92472 12.6851 0.266734 8.17224 0.267295C3.65935 0.267856 0.000454662 3.92675 0.00101563 8.44055Z" fill="url(#paint0_linear_1253_18101)"/>
<path fill-rule="evenodd" clip-rule="evenodd" d="M9.08143 7.53109L9.08109 4.80701C9.08102 4.30578 8.67418 3.89903 8.17295 3.89909C7.67172 3.89916 7.26497 4.306 7.26503 4.80723L7.26537 7.53131L4.54129 7.53165C4.04006 7.53172 3.63331 7.93856 3.63338 8.43979C3.63344 8.94102 4.04029 9.34777 4.54152 9.34771L7.2656 9.34737L7.26594 12.0714C7.266 12.5727 7.67284 12.9794 8.17408 12.9794C8.67531 12.9793 9.08205 12.5725 9.08199 12.0712L9.08165 9.34714L11.8057 9.3468C12.307 9.34674 12.7137 8.9399 12.7136 8.43866C12.7136 7.93743 12.3067 7.53069 11.8055 7.53075L9.08143 7.53109Z" fill="white"/>
<defs>
<linearGradient id="paint0_linear_1253_18101" x1="8.17224" y1="0.267295" x2="8.17427" y2="16.6118" gradientUnits="userSpaceOnUse">
<stop stop-color="#5CD331"/>
<stop offset="1" stop-color="#078C04"/>
</linearGradient>
</defs>
</svg>
