<svg width="20" height="20" viewBox="0 0 20 20" fill="none" xmlns="http://www.w3.org/2000/svg">
<path d="M5.20932 4.58397C4.97955 4.92862 5.07268 5.39427 5.41733 5.62404C5.76197 5.8538 6.22763 5.76067 6.45739 5.41603L5.20932 4.58397ZM7.00524 3.24217L7.62928 3.65819V3.65819L7.00524 3.24217ZM12.9948 3.24217L13.6188 2.82614L12.9948 3.24217ZM13.5426 5.41603C13.7724 5.76067 14.2381 5.8538 14.5827 5.62404C14.9274 5.39427 15.0205 4.92862 14.7907 4.58397L13.5426 5.41603ZM11.75 11.25C11.75 12.2165 10.9665 13 10 13V14.5C11.7949 14.5 13.25 13.0449 13.25 11.25H11.75ZM10 13C9.03352 13 8.25002 12.2165 8.25002 11.25H6.75002C6.75002 13.0449 8.20509 14.5 10 14.5V13ZM8.25002 11.25C8.25002 10.2835 9.03352 9.5 10 9.5V8C8.20509 8 6.75002 9.45507 6.75002 11.25H8.25002ZM10 9.5C10.9665 9.5 11.75 10.2835 11.75 11.25H13.25C13.25 9.45507 11.7949 8 10 8V9.5ZM6.45739 5.41603L7.62928 3.65819L6.38121 2.82614L5.20932 4.58397L6.45739 5.41603ZM8.39199 3.25H11.608V1.75H8.39199V3.25ZM12.3708 3.65819L13.5426 5.41603L14.7907 4.58397L13.6188 2.82614L12.3708 3.65819ZM11.608 3.25C11.9145 3.25 12.2007 3.40318 12.3708 3.65819L13.6188 2.82614C13.1706 2.15383 12.4161 1.75 11.608 1.75V3.25ZM7.62928 3.65819C7.79929 3.40318 8.0855 3.25 8.39199 3.25V1.75C7.58397 1.75 6.82941 2.15383 6.38121 2.82614L7.62928 3.65819ZM5.00002 5.75H15V4.25H5.00002V5.75ZM17.5834 8.33333V14.1667H19.0834V8.33333H17.5834ZM15 16.75H5.00002V18.25H15V16.75ZM2.41669 14.1667V8.33333H0.916687V14.1667H2.41669ZM5.00002 16.75C3.57328 16.75 2.41669 15.5934 2.41669 14.1667H0.916687C0.916687 16.4218 2.74486 18.25 5.00002 18.25V16.75ZM17.5834 14.1667C17.5834 15.5934 16.4268 16.75 15 16.75V18.25C17.2552 18.25 19.0834 16.4218 19.0834 14.1667H17.5834ZM15 5.75C16.4268 5.75 17.5834 6.9066 17.5834 8.33333H19.0834C19.0834 6.07817 17.2552 4.25 15 4.25V5.75ZM5.00002 4.25C2.74486 4.25 0.916687 6.07817 0.916687 8.33333H2.41669C2.41669 6.9066 3.57328 5.75 5.00002 5.75V4.25Z" fill="#D4D6D9"/>
</svg>
