<svg width="24" height="24" viewBox="0 0 24 24" fill="none" xmlns="http://www.w3.org/2000/svg">
<path fill-rule="evenodd" clip-rule="evenodd" d="M12 0C5.37197 0 0 5.50795 0 12.3038C0 17.7389 3.43734 22.3513 8.20654 23.9796C8.8069 24.0906 9.02346 23.7119 9.02346 23.3863C9.02346 23.0939 9.01384 22.3192 9.01023 21.2941C5.67155 22.0367 4.96651 19.6436 4.96651 19.6436C4.4227 18.2225 3.63465 17.8438 3.63465 17.8438C2.54582 17.0802 3.71767 17.0975 3.71767 17.0975C4.9232 17.1838 5.55484 18.3656 5.55484 18.3656C6.62563 20.2456 8.36535 19.7028 9.04632 19.3882C9.1558 18.5926 9.46862 18.0498 9.81031 17.7426C7.14658 17.433 4.3457 16.377 4.3457 11.6611C4.3457 10.3202 4.81372 9.2198 5.5777 8.36122C5.45619 8.04913 5.04111 6.79704 5.69681 5.10456C5.69681 5.10456 6.70383 4.77273 8.99579 6.36405C9.97465 6.09102 10.9844 5.95166 11.9988 5.94957C13.0133 5.95126 14.023 6.09063 15.0018 6.36405C17.295 4.7715 18.3008 5.10456 18.3008 5.10456C18.9565 6.79704 18.545 8.04913 18.4199 8.36122C19.1899 9.2198 19.6519 10.3189 19.6519 11.6611C19.6519 16.3894 16.8486 17.4281 14.1753 17.7327C14.6024 18.1127 14.9874 18.8627 14.9874 20.0099C14.9874 21.6555 14.9729 22.9829 14.9729 23.3863C14.9729 23.7156 15.1871 24.098 15.7995 23.9771C20.5663 22.3463 24 17.7377 24 12.3038C24 5.50795 18.628 0 12 0Z" fill="white"/>
</svg>
