<svg width="184" height="106" viewBox="0 0 184 106" fill="none" xmlns="http://www.w3.org/2000/svg">
    <path
        d="M88.5545 0.456644C86.4788 -0.162352 84.2661 -0.151773 82.1964 0.486717C80.1266 1.12541 78.2929 2.3634 76.9267 4.04434C75.5606 5.72527 74.7236 7.77346 74.5219 9.9301C74.3199 12.0865 74.7618 14.2546 75.7922 16.1599C76.8224 18.0652 78.3945 19.6223 80.3097 20.6341C82.2248 21.6458 84.397 22.067 86.5515 21.8443C88.7061 21.6214 90.7462 20.7647 92.4139 19.3824C94.0813 18.0003 95.3017 16.1545 95.9203 14.0787C96.3313 12.7005 96.4667 11.255 96.3188 9.82455C96.1712 8.39411 95.743 7.00681 95.0591 5.74186C94.375 4.47691 93.4486 3.35919 92.3326 2.45236C91.2165 1.54533 89.9327 0.867235 88.5545 0.456644ZM83.053 18.9125C82.6576 18.7819 82.3285 18.5023 82.1356 18.133C81.943 17.7639 81.9017 17.334 82.0207 16.9348C82.1398 16.5356 82.4096 16.1987 82.7731 15.9952C83.1366 15.7918 83.565 15.7381 83.9675 15.8455C84.1745 15.9007 84.3682 15.9969 84.5372 16.1281C84.7064 16.2596 84.8474 16.4236 84.9519 16.6105C85.0564 16.7973 85.1226 17.0035 85.146 17.2162C85.1696 17.429 85.1501 17.6444 85.089 17.8497C85.0278 18.0548 84.926 18.2458 84.7897 18.4111C84.6535 18.5761 84.4855 18.7124 84.2956 18.8115C84.1058 18.9106 83.898 18.9706 83.6847 18.988C83.4711 19.0052 83.2565 18.9797 83.053 18.9125ZM88.5068 7.68553C87.5052 9.86498 86.5182 12.173 85.1889 14.1824C84.8696 14.6676 83.868 14.369 83.8659 13.7884C83.8829 11.9839 84.0214 10.1827 84.2806 8.39681C84.4424 7.09246 84.3159 4.85702 85.3714 3.85335C86.3087 2.95544 88.0672 3.34115 88.907 4.2038C89.9169 5.25724 88.9921 6.59892 88.5068 7.68553Z"
        fill="#0197D8" />
    <path
        d="M57.9676 24.7037C57.2082 25.4765 56.6949 26.4572 56.493 27.5216C56.2908 28.586 56.4088 29.6865 56.8322 30.684C57.2555 31.6814 57.9649 32.5308 58.8711 33.1249C59.7771 33.719 60.8388 34.0314 61.9223 34.022C63.0058 34.0127 64.0621 33.6826 64.958 33.0729C65.8536 32.4632 66.5485 31.6018 66.9545 30.5973C67.3608 29.5928 67.4599 28.4904 67.2396 27.4295C67.0194 26.3686 66.4894 25.3971 65.7169 24.6373C64.6803 23.6187 63.2818 23.0534 61.8286 23.0659C60.3753 23.0783 58.9866 23.6675 57.9676 24.7037ZM64.8398 31.4577C64.7662 31.5328 64.6784 31.5925 64.5816 31.6335C64.4848 31.6748 64.3809 31.6964 64.2757 31.6974C64.1706 31.6982 64.0663 31.6785 63.9688 31.6391C63.8714 31.5999 63.7826 31.5417 63.7075 31.4681C63.6325 31.3944 63.5727 31.3067 63.5317 31.2099C63.4904 31.1132 63.4689 31.0092 63.4678 30.904C63.467 30.7989 63.4867 30.6946 63.5261 30.5971C63.5653 30.4996 63.6235 30.4109 63.6972 30.3358C63.8458 30.1842 64.0489 30.0982 64.2612 30.0961C64.4736 30.0942 64.6778 30.1768 64.8294 30.3254C64.981 30.4741 65.067 30.6772 65.0691 30.8895C65.071 31.1018 64.9885 31.3061 64.8398 31.4577ZM61.1548 26.4207C61.8827 27.3746 62.6728 28.3513 63.2472 29.413C63.3861 29.6681 63.0211 30.0351 62.764 29.9066C61.9721 29.4742 61.21 28.9894 60.4829 28.455C59.9417 28.0797 58.9256 27.611 58.7286 26.908C58.5503 26.2859 59.1433 25.5933 59.7115 25.4295C60.4104 25.2262 60.7857 25.95 61.1548 26.4207Z"
        fill="#0197D8" />
    <path
        d="M116.054 19.0042C115.217 18.3159 114.195 17.891 113.117 17.7836C112.039 17.676 110.953 17.8905 109.997 18.4002C109.041 18.9097 108.257 19.6912 107.745 20.6462C107.233 21.601 107.016 22.6861 107.121 23.7646C107.225 24.8431 107.647 25.8662 108.334 26.7048C109.02 27.5433 109.939 28.1596 110.975 28.4755C112.012 28.7917 113.119 28.7933 114.156 28.4804C115.193 28.1676 116.114 27.554 116.803 26.7176C117.726 25.5953 118.166 24.1524 118.026 22.7059C117.885 21.2594 117.176 19.928 116.054 19.0042ZM109.932 26.4448C109.851 26.3781 109.784 26.296 109.734 26.2031C109.684 26.1103 109.654 26.0087 109.644 25.9041C109.633 25.7994 109.644 25.6938 109.675 25.5932C109.705 25.4927 109.755 25.3991 109.822 25.3179C109.889 25.2366 109.971 25.1694 110.064 25.12C110.156 25.0703 110.258 25.0397 110.363 25.0294C110.467 25.0193 110.573 25.0297 110.674 25.0604C110.774 25.0908 110.868 25.1411 110.949 25.2078C111.113 25.3425 111.217 25.5372 111.237 25.7485C111.258 25.9599 111.194 26.1706 111.059 26.3347C110.924 26.4988 110.73 26.6024 110.518 26.6232C110.307 26.6438 110.096 26.5795 109.932 26.4448ZM114.625 22.3304C113.739 23.1394 112.835 24.0125 111.828 24.6782C111.587 24.8391 111.189 24.5079 111.294 24.2404C111.655 23.4135 112.071 22.6116 112.539 21.8403C112.865 21.2681 113.243 20.2147 113.926 19.9565C114.53 19.7241 115.272 20.2538 115.485 20.8054C115.749 21.4836 115.061 21.9212 114.625 22.3304Z"
        fill="#0197D8" />
    <path
        d="M173.881 94.25C173.83 95.4913 173.509 96.7065 172.939 97.8105C172.917 97.8655 172.89 97.9188 172.86 97.9702C171.861 99.7658 170.463 101.308 168.773 102.478L168.713 102.52C167.188 103.54 165.473 104.242 163.67 104.583H182.86C182.86 104.583 180.292 67.9722 156.698 50.1592C133.865 32.9227 112.487 41.2299 111.131 41.7856C111.551 42.9718 111.739 44.2278 111.684 45.4851C111.684 45.4851 113.401 46.3789 113.688 49.5786C113.974 52.7783 114.571 61.6744 108.829 63.3499C108.829 63.3499 103.674 63.2235 102.311 61.2452C100.949 59.2669 100.621 59.6691 100.086 60.171C99.6715 60.5505 97.1686 61.9067 96.0135 62.5288C96.1595 62.5358 96.3045 62.5559 96.447 62.5889C96.447 62.5889 97.1085 68.1713 105.202 76.9202C105.476 77.209 105.735 77.5122 105.978 77.8285C107.2 78.897 108.573 79.9878 110.098 81.1007L119.334 87.8589C119.543 88.0362 119.79 88.1619 120.056 88.2259C120.573 88.3562 121.113 88.3611 121.632 88.2405C122.706 88.0331 130.041 87.2845 134.787 86.8117C134.895 86.8117 135.009 86.7909 135.115 86.7785L135.737 86.7184C135.837 86.7184 135.945 86.6976 136.032 86.6914L136.592 86.6375C136.865 86.6105 137.112 86.5836 137.34 86.5649L137.962 86.5048C138.512 86.4509 138.837 86.4177 138.864 86.4177C139.995 86.3855 141.122 86.2761 142.238 86.09C143.306 85.8827 144.281 85.5488 144.534 84.9951C144.582 84.8784 144.599 84.7513 144.586 84.626C144.528 84.2737 144.381 83.9423 144.158 83.6638C143.184 82.3553 140.919 81.2335 140.753 81.1526C140.749 81.1509 140.744 81.1509 140.739 81.1526L140.693 81.1194L127.214 70.6473H127.2C127.2 70.6473 129.23 48.9896 147.729 54.319C147.729 54.319 147.816 54.3792 147.976 54.5119C148.698 55.0676 150.968 56.9091 154.307 60.3493C154.394 60.4426 154.487 60.536 154.581 60.6355C154.935 60.9963 155.284 61.3716 155.63 61.7387C157.973 64.2437 160.746 67.4351 163.805 71.4145L163.825 71.4353C167.33 75.9974 169.856 80.1779 171.498 83.8774V83.8899C173.275 87.9107 174.024 91.3551 173.876 94.1028C173.881 94.1517 173.882 94.2009 173.881 94.25ZM118.084 57.0252C117.536 50.7149 120.608 48.4297 120.78 48.3032C116.412 56.204 124.512 68.3144 124.796 68.783C124.564 68.5881 118.631 63.3334 118.084 57.0252Z"
        fill="#0197D8" />
    <path
        d="M106.483 55.7869C106.256 55.954 106.019 56.1077 105.774 56.2472L104.352 53.7588C107.632 52.0812 108.553 49.1241 107.11 47.5004C106.706 47.0562 106.186 46.7344 105.608 46.5714C104.157 46.1318 103.151 46.7788 102.469 47.6476C101.912 48.4029 101.504 49.2572 101.266 50.1651L100.573 42.1772L100.519 41.5551C100.519 41.5551 99.0097 40.8065 94.9204 41.4743C90.831 42.142 90.0783 44.4002 88.3219 43.3986C86.5655 42.397 85.5701 42.4779 85.5701 42.4779C85.0703 44.3132 83.7328 44.3131 83.7328 44.3131C83.4159 44.2748 83.1047 44.1991 82.8059 44.0871C80.9084 42.3431 80.3942 39.3176 80.3942 39.3176C82.3849 39.0709 82.5384 37.1548 82.3103 35.585C83.4135 36.2403 84.9687 36.2859 87.1523 34.8841C93.4169 30.8777 99.8412 33.0468 102.099 33.3806C103.107 33.5279 104.211 33.1733 105.125 32.7585C105.243 32.9703 105.408 33.1523 105.606 33.2915C107.13 34.3534 108.388 35.7546 109.279 37.3849C115.158 48.3734 108.712 54.2088 106.483 55.7869Z"
        fill="#0197D8" />
    <path
        d="M82.9867 104.587H85.3507C86.3618 104.586 87.3311 104.183 88.0461 103.469C88.7609 102.754 89.1632 101.784 89.1642 100.773V98.1272C89.1642 97.886 89.1167 97.6471 89.0243 97.4244C88.932 97.2015 88.7966 96.9991 88.6259 96.8287C88.4552 96.6582 88.2528 96.5232 88.0299 96.4311C87.807 96.3388 87.5681 96.2918 87.3269 96.292H73.1885C73.1891 96.8552 73.0784 97.413 72.8632 97.9333C72.6479 98.4538 72.3319 98.9266 71.9335 99.3248C71.5352 99.7229 71.0622 100.039 70.5417 100.254C70.0212 100.469 69.4633 100.579 68.9001 100.578H17.8106C17.8112 101.641 18.2336 102.66 18.9854 103.412C19.7369 104.164 20.7561 104.586 21.8191 104.587H91.0803C91.1707 104.587 91.2605 104.569 91.3441 104.535C91.4277 104.5 91.5038 104.45 91.5678 104.386C91.6317 104.322 91.6825 104.246 91.7169 104.162C91.7514 104.078 91.769 103.989 91.7688 103.898V99.6037C91.7688 98.7692 92.1002 97.9692 92.6901 97.3792C93.2801 96.7893 94.0803 96.4579 94.9146 96.4579C95.7488 96.4579 96.5491 96.7893 97.139 97.3792C97.729 97.9692 98.0604 98.7692 98.0604 99.6037V103.898C98.0602 103.988 98.0776 104.078 98.112 104.162C98.1464 104.245 98.1968 104.321 98.2607 104.385C98.3243 104.449 98.4002 104.5 98.4836 104.534C98.567 104.569 98.6563 104.587 98.7468 104.587H182.831C182.831 104.587 180.264 67.9674 156.669 50.1565C133.836 32.92 112.458 41.2272 111.102 41.7829L111.035 41.8078"
        stroke="black" stroke-width="1.5" stroke-miterlimit="10" />
    <path
        d="M87.4887 50.7452C87.4879 50.9754 87.4188 51.2004 87.2905 51.3914C87.1619 51.5824 86.9798 51.7313 86.7669 51.8188C86.5539 51.9065 86.32 51.9291 86.0941 51.8837C85.8683 51.8385 85.6612 51.7273 85.4986 51.5646C85.3358 51.4016 85.2251 51.194 85.1803 50.9682C85.1353 50.7423 85.1583 50.5084 85.2464 50.2957C85.3343 50.0829 85.4834 49.9011 85.6746 49.7729C85.866 49.6447 86.091 49.5761 86.3212 49.5757C86.4114 49.5761 86.5012 49.5873 86.5887 49.6089C86.468 49.647 86.3627 49.7227 86.288 49.8249C86.2134 49.9272 86.1734 50.0506 86.174 50.1771C86.1734 50.2565 86.1885 50.3353 86.2186 50.4089C86.2484 50.4823 86.2926 50.5493 86.3486 50.6057C86.4044 50.6621 86.4709 50.7071 86.5441 50.7378C86.6173 50.7685 86.6959 50.7844 86.7754 50.7846C86.9205 50.7817 87.0603 50.7282 87.17 50.6331C87.2799 50.5381 87.3531 50.4074 87.3767 50.2642C87.4483 50.4147 87.4864 50.5787 87.4887 50.7452Z"
        fill="black" />
    <path
        d="M95.5777 51.0708C95.5782 51.3023 95.5099 51.5287 95.3816 51.7213C95.2534 51.9138 95.0709 52.0641 94.8571 52.1529C94.6435 52.2418 94.4084 52.2653 94.1813 52.2203C93.9542 52.1755 93.7456 52.0641 93.5818 51.9007C93.4182 51.7373 93.3066 51.5289 93.2612 51.3018C93.216 51.075 93.239 50.8398 93.3274 50.6258C93.4159 50.412 93.5658 50.2293 93.7583 50.1008C93.9505 49.972 94.1768 49.9033 94.4082 49.9033C94.464 49.9029 94.5197 49.9094 94.5741 49.922C94.4706 49.9697 94.3831 50.046 94.3217 50.142C94.2601 50.2378 94.2276 50.3494 94.2278 50.4632C94.2207 50.6229 94.2771 50.7786 94.3847 50.8964C94.4926 51.0142 94.6427 51.0845 94.8022 51.0916C94.9616 51.0988 95.1174 51.0422 95.2354 50.9346C95.3532 50.8268 95.4235 50.6768 95.4305 50.5172C95.5263 50.6862 95.5769 50.8767 95.5777 51.0708Z"
        fill="black" />
    <path
        d="M104.908 31.116C104.773 32.0242 104.941 32.8205 105.609 33.2933C107.133 34.3553 108.39 35.7565 109.281 37.3868C116.295 50.4905 105.775 56.2574 105.775 56.2574L104.352 53.769C108.448 51.6787 108.867 47.5852 105.609 46.5816C102.351 45.5779 101.266 50.1753 101.266 50.1753L100.52 41.5591C100.52 41.5591 99.0103 40.8105 94.921 41.4782C90.8317 42.1459 90.0789 44.4042 88.3225 43.4026C86.5661 42.401 85.5707 42.4819 85.5707 42.4819C85.071 44.3171 83.7334 44.3171 83.7334 44.3171C79.8142 43.8173 78.8934 38.3946 78.8934 38.3946C80.8821 38.1458 81.0356 36.2297 80.8095 34.662C81.9107 35.3173 83.468 35.365 85.6516 33.9611C91.9162 29.9547 98.3405 32.1259 100.597 32.4597C102.156 32.6857 103.946 31.7319 104.908 31.116Z"
        stroke="black" stroke-width="1.5" stroke-linecap="round" stroke-linejoin="round" />
    <path
        d="M108.524 96.0967L110.073 95.4746L111.234 98.608L111.052 104.294L109.482 104.578L103.524 104.321C103.524 104.321 103.939 100.854 105.206 99.2052C106.473 97.5566 108.524 96.0967 108.524 96.0967Z"
        fill="black" />
    <path d="M81.3981 46.2332C81.3981 46.2332 82.9844 43.386 86.3231 43.6825" stroke="black"
        stroke-width="1.5" stroke-miterlimit="10" />
    <path d="M92.8613 43.6819C92.8613 43.6819 96.6769 42.8255 98.0124 44.9469" stroke="black"
        stroke-width="1.5" stroke-miterlimit="10" />
    <path d="M98.7735 56.5725C98.7735 56.5725 96.4924 55.2516 94.8231 57.4725" stroke="black"
        stroke-width="1.5" stroke-miterlimit="10" />
    <path
        d="M84.3594 44.1387C84.3594 44.1387 82.7357 63.2394 94.8439 62.8869C96.9176 62.8268 98.9789 61.4644 100.949 59.2725"
        stroke="black" stroke-width="1.5" stroke-miterlimit="10" />
    <path
        d="M105.774 61.0096L100.949 59.2718C100.949 59.2718 102.145 63.0957 108.072 63.3881C113.999 63.6805 115.987 50.0792 111.633 44.6067"
        stroke="black" stroke-width="1.5" stroke-linejoin="round" />
    <path d="M124.641 99.3274C124.641 99.3274 120.218 102.917 123.222 104.586" stroke="black"
        stroke-width="1.5" stroke-miterlimit="10" />
    <path d="M121.219 95.9866C121.219 95.9866 113.546 100.329 120.134 104.586" stroke="black"
        stroke-width="1.5" stroke-miterlimit="10" />
    <path d="M118.631 92.6487C118.631 92.6487 108.447 97.4182 116.294 104.587" stroke="black"
        stroke-width="1.5" stroke-miterlimit="10" />
    <path
        d="M161.457 104.586C161.457 104.586 173.812 104.586 173.978 92.6482C174.144 80.71 150.021 50.7327 134.41 46.5625C118.799 42.3923 118.13 53.8204 118.13 54.2891C118.13 54.7577 117.213 59.6807 121.219 64.9333C124.313 68.9936 137.979 79.1298 144.042 83.5343C144.265 83.6965 144.433 83.9223 144.525 84.1824C144.616 84.4422 144.626 84.7236 144.553 84.9892C144.48 85.2549 144.328 85.4921 144.118 85.6694C143.907 85.8465 143.647 85.9554 143.373 85.9813L116.556 88.5568H116.539C116.286 88.6024 106.822 90.3485 103.939 93.3139C103.939 93.3139 102.324 94.5104 103.16 96.3477C103.995 98.185 106.563 97.5794 106.633 97.511"
        stroke="black" stroke-width="1.5" stroke-miterlimit="10" />
    <path opacity="0.26"
        d="M94.4107 53.2398C96.2546 53.2398 97.7493 51.7451 97.7493 49.9011C97.7493 48.0572 96.2546 46.5625 94.4107 46.5625C92.5667 46.5625 91.072 48.0572 91.072 49.9011C91.072 51.7451 92.5667 53.2398 94.4107 53.2398Z"
        fill="white" />
    <path opacity="0.26"
        d="M85.9376 52.9102C87.7816 52.9102 89.2763 51.4155 89.2763 49.5715C89.2763 47.7276 87.7816 46.2329 85.9376 46.2329C84.0937 46.2329 82.599 47.7276 82.599 49.5715C82.599 51.4155 84.0937 52.9102 85.9376 52.9102Z"
        fill="white" />
    <path
        d="M114.797 95.5705C113.623 95.2429 111.705 94.9484 109.729 95.583C108.762 95.8942 107.871 96.4019 107.11 97.074C106.944 97.2191 106.784 97.3663 106.631 97.5136C106.3 97.8379 105.987 98.1805 105.695 98.5401C105.657 98.5875 105.602 98.6193 105.542 98.6292C104.806 98.7308 99.9595 99.4981 99.9843 101.947C100.007 104.147 102.417 104.508 103.246 104.566C103.28 104.569 103.315 104.565 103.347 104.555C103.38 104.544 103.41 104.526 103.436 104.503C103.461 104.48 103.482 104.452 103.496 104.421C103.51 104.39 103.518 104.356 103.518 104.322C103.518 103.538 103.696 101.08 105.635 98.6085"
        stroke="black" stroke-width="1.5" stroke-miterlimit="10" />
    <path d="M71.1333 78.2864C71.7015 82.8672 68.141 84.9388 64.2487 85.2457" stroke="black"
        stroke-width="1.5" stroke-miterlimit="10" />
    <path
        d="M58.5917 84.2894C57.1075 83.4877 55.9054 82.2493 55.1479 80.7421C54.3906 79.2348 54.1146 77.5312 54.3572 75.8619C54.9793 71.4553 58.712 68.0752 62.3658 65.931C70.0385 61.429 87.3289 64.6868 90.2341 65.3504C92.4613 65.8605 94.3235 64.1186 95.0783 63.2767C95.1104 63.241 95.1519 63.2151 95.1981 63.2025C95.2444 63.1896 95.2933 63.1904 95.3392 63.2045C95.385 63.2188 95.4258 63.2458 95.4567 63.2825C95.4876 63.3192 95.5075 63.3638 95.5138 63.4115C97.1084 72.7431 115.629 85.4092 119.913 88.2439"
        stroke="black" stroke-width="1.5" stroke-miterlimit="10" />
    <path
        d="M75.8054 75.1182L69.6735 78.9234C69.3081 79.1509 68.899 79.2994 68.4728 79.3591C68.0465 79.4188 67.6125 79.3883 67.1985 79.2699C66.7846 79.1515 66.4002 78.9477 66.07 78.6717C65.7397 78.3955 65.4712 78.0531 65.2814 77.6668C64.9395 76.9727 64.8717 76.1754 65.0915 75.4336C65.3113 74.6916 65.8027 74.06 66.4676 73.6645L75.7992 68.105"
        stroke="black" stroke-width="1.5" stroke-miterlimit="10" />
    <path
        d="M94.4107 53.2398C96.2546 53.2398 97.7493 51.7451 97.7493 49.9011C97.7493 48.0572 96.2546 46.5625 94.4107 46.5625C92.5667 46.5625 91.072 48.0572 91.072 49.9011C91.072 51.7451 92.5667 53.2398 94.4107 53.2398Z"
        stroke="black" stroke-width="1.5" stroke-miterlimit="10" />
    <path
        d="M85.9374 52.4102C87.5053 52.4102 88.7763 51.1392 88.7763 49.5713C88.7763 48.0034 87.5053 46.7324 85.9374 46.7324C84.3695 46.7324 83.0985 48.0034 83.0985 49.5713C83.0985 51.1392 84.3695 52.4102 85.9374 52.4102Z"
        stroke="black" stroke-width="1.5" stroke-miterlimit="10" />
    <path
        d="M85.9376 52.9102C87.7816 52.9102 89.2763 51.4155 89.2763 49.5715C89.2763 47.7276 87.7816 46.2329 85.9376 46.2329C84.0937 46.2329 82.599 47.7276 82.599 49.5715C82.599 51.4155 84.0937 52.9102 85.9376 52.9102Z"
        stroke="black" stroke-width="1.5" stroke-miterlimit="10" />
    <path d="M91.0883 49.572H89.2759" stroke="black" stroke-width="1.5" stroke-miterlimit="10" />
    <path
        d="M91.0885 54.2897H89.894C89.819 54.2897 89.7447 54.2733 89.6767 54.2414C89.6087 54.2094 89.5486 54.1628 89.5007 54.1049C89.4525 54.047 89.4181 53.9794 89.3993 53.9067C89.3806 53.8339 89.3781 53.758 89.3922 53.6842L90.1823 49.572"
        stroke="black" stroke-width="1.5" stroke-miterlimit="10" />
    <path
        d="M67.1227 65.6841C67.1227 65.6841 62.8654 66.6027 61.3641 73.0312C60.4517 76.9339 59.1992 81.9128 58.3572 85.2224C58.2492 85.6469 58.2397 86.0904 58.329 86.5193C58.4186 86.9481 58.6051 87.3508 58.8738 87.6967C59.1428 88.0426 59.487 88.3226 59.8804 88.515C60.274 88.7076 60.7061 88.8078 61.1443 88.8078C61.7983 88.8078 62.4331 88.5851 62.9434 88.1759C63.454 87.767 63.8096 87.1961 63.9521 86.5578L65.7334 78.5658"
        stroke="black" stroke-width="1.5" stroke-miterlimit="10" />
    <path
        d="M71.0153 80.7103C71.0153 80.7103 75.4841 78.0394 84.2869 80.7103C93.0897 83.3812 103.209 85.1936 106.548 78.1099"
        stroke="black" stroke-width="1.5" stroke-miterlimit="10" />
    <path d="M109.731 95.583C109.731 95.583 112.841 99.1332 110.95 104.587" stroke="black"
        stroke-width="1.5" stroke-miterlimit="10" />
    <path
        d="M6.94432 51.4358H56.0908C57.6738 51.4337 59.2115 51.9644 60.4561 52.9423C61.7007 53.9205 62.5802 55.2889 62.9526 56.8274L70.7767 89.2309C70.9878 90.1051 70.9977 91.0161 70.8059 91.8947C70.6141 92.7736 70.2253 93.5975 69.6689 94.3042C69.1123 95.0109 68.4029 95.5822 67.5938 95.9749C66.7846 96.3677 65.8969 96.5717 64.9973 96.5717H15.9773C14.3974 96.5732 12.8626 96.044 11.6195 95.0689C10.3764 94.0939 9.4967 92.7294 9.1217 91.1947L1.17117 58.7974C0.956476 57.9221 0.943578 57.0095 1.13342 56.1285C1.32327 55.2476 1.71091 54.4213 2.26701 53.7123C2.82313 53.0031 3.53318 52.4297 4.34348 52.0353C5.15379 51.6409 6.04314 51.436 6.94432 51.4358Z"
        fill="#0197D8" />
    <path
        d="M8.73402 52.8301H54.8446C56.33 52.8319 57.7718 53.3321 58.9391 54.2508C60.1066 55.1692 60.9321 56.4528 61.2834 57.8961L68.6284 88.2943C68.8267 89.1145 68.8364 89.9688 68.6564 90.7933C68.4766 91.6178 68.1121 92.3907 67.5901 93.0537C67.0682 93.7168 66.4027 94.2527 65.6436 94.6212C64.8844 94.9897 64.0516 95.1811 63.2078 95.1811H17.2092C15.7284 95.1779 14.2911 94.6794 13.1263 93.7654C11.9613 92.8511 11.1357 91.5733 10.7808 90.1358L3.31547 59.7355C3.11389 58.9141 3.10173 58.0579 3.27995 57.2311C3.45814 56.4045 3.82203 55.6292 4.34406 54.9639C4.86609 54.2987 5.5326 53.7608 6.29314 53.391C7.05371 53.0215 7.88839 52.8295 8.73402 52.8301Z"
        fill="#0197D8" />
    <path
        d="M6.94432 51.4358H56.0908C57.6738 51.4337 59.2115 51.9644 60.4561 52.9423C61.7007 53.9205 62.5802 55.2889 62.9526 56.8274L70.7767 89.2309C70.9878 90.1051 70.9977 91.0161 70.8059 91.8947C70.6141 92.7736 70.2253 93.5975 69.6689 94.3042C69.1123 95.0109 68.4029 95.5822 67.5938 95.9749C66.7846 96.3677 65.8969 96.5717 64.9973 96.5717H15.9773C14.3974 96.5732 12.8626 96.044 11.6195 95.0689C10.3764 94.0939 9.4967 92.7294 9.1217 91.1947L1.17117 58.7974C0.956476 57.9221 0.943578 57.0095 1.13342 56.1285C1.32327 55.2476 1.71091 54.4213 2.26701 53.7123C2.82313 53.0031 3.53318 52.4297 4.34348 52.0353C5.15379 51.6409 6.04314 51.436 6.94432 51.4358Z"
        stroke="black" stroke-width="1.5" stroke-miterlimit="10" />
    <path
        d="M29.9625 73.0191L27.0323 59.3597C26.9716 59.0709 26.8131 58.8117 26.584 58.6256C26.3549 58.4394 26.0689 58.3378 25.7736 58.3374H11.2744C11.0793 58.338 10.887 58.3828 10.7118 58.4687C10.5367 58.5545 10.3834 58.6789 10.2635 58.8328C10.1436 58.9867 10.0603 59.1658 10.0199 59.3566C9.97944 59.5474 9.98295 59.745 10.0301 59.9341L13.4206 73.7532C13.4627 73.9459 13.5525 74.1248 13.6819 74.2737C13.798 74.4214 13.9459 74.5406 14.1147 74.6229C14.2835 74.7052 14.4689 74.7482 14.6565 74.7486H14.6835L28.7162 74.5827C28.9057 74.58 29.0921 74.5354 29.2624 74.4523C29.4326 74.3691 29.5826 74.2495 29.7012 74.1016C29.8221 73.9517 29.9081 73.7769 29.9533 73.5898C29.9985 73.4026 30.0016 73.2076 29.9625 73.0191ZM10.9986 59.6895C10.988 59.6486 10.987 59.6059 10.9957 59.5644C11.0043 59.5231 11.0223 59.4844 11.0483 59.451C11.0749 59.4164 11.1091 59.3881 11.1483 59.3689C11.1875 59.3494 11.2306 59.3392 11.2744 59.339H25.7736C25.8389 59.3388 25.9024 59.361 25.953 59.4022C26.0038 59.4435 26.0384 59.501 26.0515 59.565L28.2828 69.9687C20.832 62.7751 19.988 71.0284 19.988 71.0284C15.7826 68.8386 14.5674 71.2358 14.2149 72.8138L10.9986 59.6895Z"
        fill="#D7E8F0" />
    <path
        d="M18.7351 64.4026H23.4922C24.0832 64.4026 24.6763 64.4026 25.2673 64.4026H25.3523C25.5186 64.4072 25.6841 64.3761 25.8375 64.3114C25.9435 64.2589 26.0337 64.1791 26.0986 64.0804C26.1637 63.9814 26.2013 63.8672 26.2077 63.749C26.2139 63.6308 26.1888 63.5132 26.1347 63.4079C26.0806 63.3027 25.9995 63.2138 25.8997 63.1501C25.788 63.0993 25.6861 63.0292 25.5991 62.9427C25.5414 62.8517 25.5018 62.7503 25.4829 62.6441C25.373 62.3441 25.1609 62.0921 24.8836 61.9328C24.6819 61.7972 24.455 61.7037 24.2161 61.6577C23.9774 61.6116 23.7319 61.6143 23.4943 61.6653C23.2597 61.7246 23.0451 61.8447 22.8721 62.0137C22.7249 62.1589 22.6959 62.3538 22.5818 62.5155C22.5072 62.6213 22.4595 62.5881 22.3579 62.5301C22.2563 62.472 22.2003 62.4285 22.1173 62.387C21.9537 62.2995 21.7839 62.224 21.6093 62.1609C21.2536 62.0293 20.8744 61.9735 20.4957 61.9971C19.83 62.049 19.1665 62.445 18.9342 63.0713C18.725 63.0742 18.5234 63.1515 18.3662 63.2894C18.2088 63.4273 18.1058 63.6171 18.0757 63.824C18.062 63.9039 18.0672 63.986 18.0908 64.0633C18.1147 64.1409 18.1564 64.2116 18.2126 64.2699C18.3637 64.3786 18.5504 64.4258 18.7351 64.4026Z"
        fill="#D7E8F0" />
    <path
        d="M51.6695 78.2089H42.5017C42.082 78.2083 41.6716 78.0855 41.3203 77.8558C40.969 77.6262 40.6922 77.2992 40.5234 76.9149C40.4711 76.7967 40.4429 76.669 40.4404 76.5396C40.4427 76.2895 40.5433 76.0504 40.7208 75.8742C40.8983 75.6979 41.138 75.5988 41.3881 75.5981H51.1345C50.6762 76.3737 50.9084 77.4458 51.6695 78.2089Z"
        fill="#D7E8F0" />
    <path
        d="M57.6087 77.2675C57.6081 77.5171 57.5088 77.7562 57.3323 77.9327C57.156 78.1092 56.9167 78.2085 56.6673 78.2089H51.6697C50.9086 77.4458 50.6764 76.3737 51.1347 75.5981H55.535C55.9541 75.5984 56.3639 75.7203 56.7152 75.9488C57.0663 76.1773 57.3435 76.5029 57.5133 76.8859C57.5708 77.0053 57.6031 77.1352 57.6087 77.2675Z"
        fill="#3FBDF1" />
    <path
        d="M55.3049 78.2091C55.2789 78.2591 55.2491 78.307 55.2157 78.3522C54.5604 79.246 53.142 79.3289 52.0409 78.5243C51.9094 78.4289 51.7852 78.3236 51.6697 78.2091C50.9086 77.446 50.6764 76.3739 51.1347 75.5984C51.1604 75.549 51.1902 75.5019 51.2238 75.4574C51.8729 74.5574 53.2975 74.4786 54.3924 75.2769C54.5251 75.3748 54.6506 75.4822 54.7678 75.5984C55.535 76.3615 55.7569 77.4336 55.3049 78.2091Z"
        fill="white" />
    <path
        d="M59.9043 83.033C59.902 83.2831 59.8014 83.5222 59.6239 83.6984C59.4464 83.8747 59.2067 83.9738 58.9566 83.9744H22.6214C23.0859 83.1947 22.8536 82.1268 22.0905 81.3657H57.843C58.2623 81.3655 58.6727 81.4877 59.0236 81.7172C59.3746 81.9466 59.6511 82.2734 59.8192 82.6576C59.873 82.7756 59.902 82.9034 59.9043 83.033Z"
        fill="#3FBDF1" />
    <path
        d="M25.8275 89.669H20.075C19.6561 89.6686 19.2462 89.5469 18.8951 89.3181C18.544 89.0896 18.2668 88.7643 18.0967 88.3813C18.0397 88.2655 18.0071 88.139 18.0013 88.0101C18.002 87.7596 18.1017 87.5194 18.279 87.3421C18.4561 87.1648 18.6962 87.0651 18.9469 87.0645H25.2862C24.8445 87.8483 25.0706 88.9142 25.8275 89.669Z"
        fill="#3FBDF1" />
    <path
        d="M61.8765 88.7421C61.8731 88.9909 61.7713 89.2281 61.5932 89.4019C61.4153 89.5757 61.1756 89.6717 60.9267 89.669H25.8274C25.0705 88.9059 24.8383 87.84 25.2903 87.0603H59.8152C60.2345 87.0601 60.6449 87.1822 60.9958 87.4118C61.3468 87.6411 61.6233 87.968 61.7914 88.3522C61.8464 88.475 61.8752 88.6077 61.8765 88.7421Z"
        fill="#D7E8F0" />
    <path
        d="M29.4605 89.6689C29.4354 89.7193 29.4056 89.7672 29.3714 89.8119C28.7223 90.7119 27.2977 90.7887 26.2028 89.9903C26.07 89.8926 25.9446 89.7852 25.8274 89.6689C25.0705 88.9057 24.8383 87.8399 25.2903 87.0602C25.3163 87.0104 25.3461 86.9625 25.3795 86.9171C26.0348 86.0233 27.4532 85.9445 28.5543 86.7429C28.6862 86.8381 28.8096 86.9443 28.9234 87.0602C29.6866 87.8295 29.9188 88.9016 29.4605 89.6689Z"
        fill="white" />
    <path opacity="0.21"
        d="M32.1371 73.5183L29.3664 59.8589C29.3091 59.57 29.1591 59.3108 28.9418 59.125C28.7247 58.9392 28.4533 58.838 28.1737 58.8386H14.4326C14.2465 58.8386 14.0629 58.8836 13.896 58.9703C13.729 59.0568 13.5832 59.1829 13.4697 59.3384C13.3572 59.4908 13.2792 59.6683 13.2417 59.8572C13.2042 60.0463 13.2083 60.2421 13.2536 60.4291L16.4663 74.2503C16.5056 74.4427 16.5899 74.6219 16.7119 74.7708C16.8224 74.9182 16.9631 75.0375 17.1232 75.1194C17.2835 75.2013 17.4594 75.2436 17.6374 75.2436H17.6689L30.964 75.0756C31.1432 75.0733 31.3196 75.0292 31.4806 74.9464C31.6417 74.8637 31.7834 74.744 31.8954 74.5966C32.0084 74.4467 32.0885 74.2723 32.1304 74.0858C32.172 73.8996 32.1744 73.7057 32.1371 73.5183ZM14.1653 60.1907C14.1553 60.1496 14.1545 60.1067 14.1632 60.0652C14.1716 60.0239 14.1893 59.9852 14.2144 59.9522C14.239 59.9174 14.271 59.8889 14.308 59.8697C14.3447 59.8502 14.3854 59.84 14.4267 59.8402H28.1658C28.2277 59.8398 28.2879 59.8618 28.3362 59.9024C28.3845 59.9433 28.4179 60.0003 28.4311 60.0642L30.5454 70.4679C23.4833 63.2722 22.6855 71.5275 22.6855 71.5275C18.7025 69.3377 17.549 71.7349 17.2169 73.313L14.1653 60.1907Z"
        fill="#D7E8F0" />
    <path opacity="0.21"
        d="M21.5063 64.9038H26.012C26.574 64.9038 27.134 64.9038 27.696 64.9038H27.7746C27.9324 64.9085 28.089 64.8774 28.2344 64.8125C28.3354 64.7605 28.4212 64.6808 28.4831 64.5821C28.5452 64.4832 28.5812 64.3685 28.5871 64.2503C28.5932 64.1319 28.569 64.0139 28.5173 63.9086C28.4659 63.8033 28.3884 63.7145 28.2933 63.6512C28.1884 63.5988 28.0923 63.5287 28.0084 63.4439C27.9553 63.3514 27.9182 63.2496 27.8984 63.1432C27.7942 62.8442 27.594 62.5933 27.3324 62.434C27.1413 62.298 26.9257 62.204 26.6991 62.158C26.4726 62.112 26.2395 62.1149 26.0139 62.1665C25.7954 62.2262 25.596 62.3465 25.4362 62.5149C25.2948 62.66 25.2692 62.8529 25.1611 63.0167C25.0904 63.1225 25.0452 63.0893 24.9489 63.0291C24.8526 62.969 24.7996 62.9296 24.721 62.8861C24.5659 62.7992 24.405 62.7245 24.2396 62.6621C23.9026 62.53 23.5432 62.4734 23.1844 62.4962C22.5536 62.548 21.9248 62.9462 21.7028 63.5704C21.5045 63.5739 21.3139 63.6517 21.1651 63.79C21.0164 63.9283 20.9193 64.1182 20.8912 64.3252C20.8785 64.405 20.8836 64.4867 20.9056 64.5641C20.9278 64.6412 20.9665 64.7122 21.019 64.771C21.1608 64.876 21.3339 64.9233 21.5063 64.9038Z"
        fill="#D7E8F0" />
    <path opacity="0.21"
        d="M52.7064 78.7087H44.0192C43.6219 78.7078 43.2332 78.5853 42.9004 78.3559C42.5677 78.1268 42.3052 77.8004 42.1446 77.4168C42.0833 77.2735 42.0574 77.1163 42.0692 76.9597C42.0808 76.8032 42.1299 76.6522 42.2116 76.5207C42.2932 76.3895 42.405 76.282 42.5366 76.2084C42.6681 76.1348 42.8151 76.0975 42.964 76.1H52.1995C51.7672 76.8735 51.9833 77.9476 52.7064 78.7087Z"
        fill="#D7E8F0" />
    <path opacity="0.21"
        d="M58.3225 77.7664C58.3225 78.0158 58.2287 78.2549 58.0619 78.4314C57.8951 78.6079 57.6685 78.7074 57.4323 78.7078H52.7065C51.9834 77.9468 51.7634 76.8726 52.1976 76.0991H56.3693C56.7664 76.0989 57.1551 76.2204 57.4879 76.4492C57.8208 76.6777 58.0833 77.0037 58.2439 77.3869C58.2942 77.5065 58.3209 77.6357 58.3225 77.7664Z"
        fill="#0197D8" />
    <path opacity="0.21"
        d="M56.1492 78.7087C56.126 78.7595 56.0977 78.8074 56.0647 78.8518C55.4438 79.7456 54.0997 79.8285 53.0563 79.026C52.9321 78.9298 52.8152 78.8238 52.7065 78.7087C51.9834 77.9477 51.7634 76.8735 52.1976 76.1C52.2222 76.0496 52.2511 76.0017 52.2841 75.9569C52.8991 75.057 54.2491 74.9802 55.2866 75.7786C55.4125 75.8763 55.5314 75.9837 55.6422 76.1C56.3595 76.8631 56.5795 77.929 56.1492 78.7087Z"
        fill="white" />
    <path opacity="0.21"
        d="M60.5073 83.5233C60.5052 83.7732 60.4097 84.0123 60.2415 84.1882C60.0735 84.364 59.8461 84.4627 59.6093 84.4627H25.1808C25.621 83.683 25.4009 82.6171 24.6778 81.854H58.5541C58.9521 81.854 59.3413 81.9764 59.6742 82.2063C60.0072 82.4361 60.2694 82.7633 60.4287 83.148C60.4792 83.2662 60.506 83.3939 60.5073 83.5233Z"
        fill="#0197D8" />
    <path opacity="0.21"
        d="M25.1808 84.4627H20.8892C20.4925 84.4625 20.1042 84.341 19.7715 84.1129C19.4389 83.8846 19.176 83.5596 19.0146 83.177C18.9653 83.0565 18.9386 82.9269 18.936 82.7955C18.936 82.5458 19.03 82.3065 19.1974 82.1298C19.3646 81.9533 19.5916 81.854 19.8281 81.854H24.6777C25.4008 82.6171 25.6209 83.683 25.1808 84.4627Z"
        fill="#D7E8F0" />
    <path opacity="0.21"
        d="M25.1807 84.4634C25.1605 84.5148 25.1333 84.5632 25.1001 84.6065C24.4851 85.5065 23.1351 85.5853 22.0976 84.7869C21.9717 84.6884 21.8528 84.5802 21.742 84.4634C21.0248 83.7024 20.8047 82.6344 21.235 81.8547C21.2582 81.8039 21.2865 81.7558 21.3195 81.7116C21.9404 80.8179 23.2845 80.7349 24.3279 81.5395C24.4515 81.6355 24.5684 81.7409 24.6777 81.8547C25.4008 82.6178 25.6209 83.6837 25.1807 84.4634Z"
        fill="white" />
    <path opacity="0.21"
        d="M28.217 90.1763H22.7582C22.3615 90.1755 21.9736 90.0538 21.641 89.8257C21.3085 89.5976 21.0454 89.2728 20.8837 88.8906C20.8343 88.7722 20.8076 88.6447 20.8051 88.5153C20.806 88.2644 20.9009 88.0238 21.0691 87.8465C21.2374 87.669 21.4653 87.5687 21.7031 87.5676H27.71C27.2797 88.3473 27.4998 89.4153 28.217 90.1763Z"
        fill="#0197D8" />
    <path opacity="0.21"
        d="M62.3782 89.2411C62.378 89.3645 62.3546 89.4864 62.3096 89.6001C62.2646 89.7139 62.1988 89.8172 62.1161 89.904C62.0332 89.9909 61.9349 90.0598 61.8268 90.1064C61.7188 90.1531 61.6028 90.177 61.4861 90.1763H28.2169C27.4997 89.4153 27.2797 88.3473 27.71 87.5676H60.423C60.821 87.5676 61.2102 87.69 61.5431 87.9197C61.876 88.1497 62.1383 88.4769 62.2976 88.8616C62.3487 88.9811 62.3761 89.1102 62.3782 89.2411Z"
        fill="#D7E8F0" />
    <path opacity="0.21"
        d="M31.6616 90.176C31.637 90.2264 31.6081 90.2743 31.5751 90.3191C30.9601 91.2191 29.6101 91.2979 28.5726 90.4995C28.4467 90.401 28.3278 90.293 28.2169 90.176C27.4997 89.415 27.2797 88.347 27.71 87.5673C27.7332 87.5165 27.7615 87.4686 27.7945 87.4242C28.4154 86.5305 29.7595 86.4537 30.8029 87.2521C30.9265 87.3481 31.0434 87.4535 31.1526 87.5673C31.8757 88.3304 32.0958 89.4025 31.6616 90.176Z"
        fill="white" />
</svg>
    