<svg width="18" height="16" viewBox="0 0 18 16" fill="none" xmlns="http://www.w3.org/2000/svg">
<path d="M4.8375 15.996C4.2975 15.9812 3.78375 15.8444 3.29625 15.5855C2.80875 15.3267 2.3475 14.9458 1.9125 14.443C1.3125 13.733 0.84375 12.8863 0.50625 11.9027C0.16875 10.9191 0 9.90966 0 8.87432C0 7.64671 0.23625 6.49305 0.70875 5.41334C1.18125 4.33363 1.8225 3.39443 2.6325 2.59574C3.4425 1.79705 4.395 1.16475 5.49 0.698853C6.585 0.232951 7.755 0 9 0C10.245 0 11.415 0.236649 12.51 0.709946C13.605 1.18324 14.5575 1.82663 15.3675 2.64011C16.1775 3.45359 16.8187 4.40758 17.2912 5.50208C17.7638 6.59658 18 7.77243 18 9.02962C18 10.1685 17.8125 11.2334 17.4375 12.2244C17.0625 13.2153 16.53 14.051 15.84 14.7314C15.42 15.1455 14.9775 15.4598 14.5125 15.6743C14.0475 15.8887 13.575 15.996 13.095 15.996C12.825 15.996 12.555 15.9627 12.285 15.8961C12.015 15.8296 11.745 15.7297 11.475 15.5966L10.215 14.9754C10.035 14.8867 9.84375 14.8201 9.64125 14.7757C9.43875 14.7314 9.225 14.7092 9 14.7092C8.775 14.7092 8.56125 14.7314 8.35875 14.7757C8.15625 14.8201 7.965 14.8867 7.785 14.9754L6.525 15.5966C6.24 15.7445 5.95875 15.8518 5.68125 15.9183C5.40375 15.9849 5.1225 16.0108 4.8375 15.996ZM4.8825 14.2211C5.0175 14.2211 5.15625 14.2063 5.29875 14.1767C5.44125 14.1471 5.58 14.0954 5.715 14.0214L6.975 13.4002C7.29 13.2375 7.61625 13.1192 7.95375 13.0453C8.29125 12.9713 8.6325 12.9343 8.9775 12.9343C9.3225 12.9343 9.6675 12.9713 10.0125 13.0453C10.3575 13.1192 10.6875 13.2375 11.0025 13.4002L12.285 14.0214C12.42 14.0954 12.555 14.1471 12.69 14.1767C12.825 14.2063 12.96 14.2211 13.095 14.2211C13.38 14.2211 13.65 14.1471 13.905 13.9992C14.16 13.8513 14.415 13.6295 14.67 13.3337C15.15 12.7716 15.525 12.0987 15.795 11.3148C16.065 10.5309 16.2 9.72478 16.2 8.89651C16.2 6.91458 15.5025 5.23215 14.1075 3.84924C12.7125 2.46632 11.01 1.77486 9 1.77486C6.99 1.77486 5.2875 2.47002 3.8925 3.86033C2.4975 5.25064 1.8 6.93676 1.8 8.91869C1.8 9.76175 1.93875 10.5826 2.21625 11.3813C2.49375 12.18 2.88 12.853 3.375 13.4002C3.63 13.696 3.8775 13.9068 4.1175 14.0325C4.3575 14.1582 4.6125 14.2211 4.8825 14.2211ZM8.505 9.60645C8.715 9.72478 8.93625 9.76915 9.16875 9.73957C9.40125 9.70999 9.585 9.59906 9.72 9.40678L11.79 6.67793C11.94 6.8702 12.0712 7.07357 12.1838 7.28804C12.2963 7.5025 12.39 7.73545 12.465 7.98689H14.31C14.085 6.68532 13.4738 5.6204 12.4762 4.79213C11.4788 3.96386 10.32 3.54973 9 3.54973C7.68 3.54973 6.5175 3.96756 5.5125 4.80323C4.5075 5.63889 3.9 6.70011 3.69 7.98689H5.535C5.745 7.1882 6.1725 6.54481 6.8175 6.05673C7.4625 5.56864 8.19 5.32459 9 5.32459C9.255 5.32459 9.495 5.34678 9.72 5.39115C9.945 5.43552 10.1625 5.50208 10.3725 5.59082L8.28 8.34186C8.115 8.54893 8.055 8.77818 8.1 9.02962C8.145 9.28106 8.28 9.47334 8.505 9.60645Z" fill="#60646E"/>
</svg>
