<svg width="512" height="166" viewBox="0 0 512 166" fill="none" xmlns="http://www.w3.org/2000/svg">
<mask id="mask0_112_12453" style="mask-type:alpha" maskUnits="userSpaceOnUse" x="0" y="0" width="671" height="529">
<path fill-rule="evenodd" clip-rule="evenodd" d="M464.498 411.252C578.062 411.252 670.124 319.19 670.124 205.626C670.124 92.0619 578.062 0 464.498 0C377.932 0 303.86 53.4924 273.534 129.225C252.275 121.79 229.422 117.748 205.626 117.748C92.0619 117.748 0 209.81 0 323.374C0 436.938 92.0619 529 205.626 529C292.192 529 366.264 475.508 396.591 399.775C417.85 407.21 440.702 411.252 464.498 411.252Z" fill="url(#paint0_linear_112_12453)"/>
</mask>
<g mask="url(#mask0_112_12453)">
<rect x="-664" y="-827" width="1440" height="1024" fill="url(#paint1_linear_112_12453)"/>
</g>
<defs>
<linearGradient id="paint0_linear_112_12453" x1="295" y1="191.5" x2="140.459" y2="905.963" gradientUnits="userSpaceOnUse">
<stop stop-color="#657BEC"/>
<stop offset="0.505208" stop-color="white"/>
</linearGradient>
<linearGradient id="paint1_linear_112_12453" x1="-30.0877" y1="-456.308" x2="-301.857" y2="938.451" gradientUnits="userSpaceOnUse">
<stop stop-color="#657BEC"/>
<stop offset="0.505208" stop-color="white"/>
</linearGradient>
</defs>
</svg>
