<svg width="259" height="62" viewBox="0 0 259 62" fill="none" xmlns="http://www.w3.org/2000/svg">
<path d="M1.53067 34.1221H1.6412C2.28782 34.1221 2.86421 34.5272 3.08113 35.1355L8.64045 50.6885C8.73754 50.9586 9.11973 50.9586 9.21683 50.6885L14.7627 35.1365C14.9796 34.5283 15.556 34.1221 16.2027 34.1221H16.3121C17.3699 34.1221 18.1074 35.1685 17.751 36.1623L11.2466 54.2978C11.0286 54.904 10.4533 55.3092 9.80768 55.3092H8.03411C7.38851 55.3092 6.81213 54.904 6.59521 54.2978L0.0907439 36.1623C-0.265623 35.1685 0.471901 34.1221 1.52964 34.1221H1.53067Z" fill="#6F00FF"/>
<path d="M20.7239 37.371C20.2895 37.0004 20.0723 36.5519 20.0723 36.0244C20.0723 35.4969 20.2895 35.0495 20.7239 34.6779C21.1583 34.3073 21.6841 34.1221 22.3025 34.1221C22.9209 34.1221 23.4455 34.3073 23.8811 34.6779C24.3155 35.0484 24.5327 35.4969 24.5327 36.0244C24.5327 36.5519 24.3155 37.0004 23.8811 37.371C23.4467 37.7415 22.9209 37.9268 22.3025 37.9268C21.6841 37.9268 21.1583 37.7415 20.7239 37.371ZM20.4841 53.8108V41.6485C20.4841 40.8213 21.2711 40.1501 22.2408 40.1501H22.3642C23.3339 40.1501 24.1209 40.8213 24.1209 41.6485V53.8108C24.1209 54.638 23.3339 55.3092 22.3642 55.3092H22.2408C21.2711 55.3092 20.4841 54.638 20.4841 53.8108Z" fill="#6F00FF"/>
<path d="M26.7627 45.2332V44.8837C26.7627 43.7548 27.1967 42.7944 28.0668 42.0014C28.9358 41.2085 29.9812 40.8125 31.2028 40.8125H38.7355C39.5778 40.8125 40.2612 41.4544 40.2612 42.2454V42.3325C40.2612 43.1235 39.5778 43.7654 38.7355 43.7654H31.2028C30.845 43.7654 30.5399 43.8748 30.2863 44.0946C30.0327 44.3134 29.9059 44.5777 29.9059 44.8856V45.2351C29.9059 45.5527 30.0327 45.8228 30.2863 46.0464C30.5399 46.2701 30.845 46.3824 31.2028 46.3824H36.8345C38.0562 46.3824 39.0994 46.7813 39.9633 47.5791C40.8272 48.3768 41.2591 49.3402 41.2591 50.4681V51.2233C41.2591 52.3522 40.8272 53.3155 39.9633 54.1123C39.0994 54.9101 38.0562 55.3089 36.8345 55.3089H28.9894C28.1472 55.3089 27.4637 54.6671 27.4637 53.8761V53.7889C27.4637 52.9979 28.1472 52.356 28.9894 52.356H36.8345C37.1923 52.356 37.4974 52.2437 37.751 52.0201C38.0046 51.7964 38.1314 51.5253 38.1314 51.2087V50.4807C38.1314 50.1641 38.0046 49.8911 37.751 49.6626C37.4974 49.4341 37.1923 49.3198 36.8345 49.3198H31.2028C29.9812 49.3198 28.9358 48.9209 28.0668 48.1232C27.1977 47.3254 26.7627 46.3621 26.7627 45.2341V45.2332Z" fill="#6F00FF"/>
<path d="M44.6045 50.075V42.2454C44.6045 41.4544 45.303 40.8125 46.1638 40.8125H46.2586C47.1194 40.8125 47.818 41.4544 47.818 42.2454V50.0334C47.818 50.6859 48.0592 51.2417 48.5407 51.6986C49.0233 52.1556 49.6091 52.3841 50.2992 52.3841H55.5756C55.7473 52.3841 55.8875 52.2553 55.8875 52.0975V42.2454C55.8875 41.4544 56.586 40.8125 57.4468 40.8125H57.5416C58.4024 40.8125 59.1009 41.4544 59.1009 42.2454V52.3705C59.1009 53.1819 58.7838 53.8751 58.1495 54.4482C57.5153 55.0224 56.7514 55.3089 55.858 55.3089H50.3002C48.7367 55.3089 47.3965 54.7958 46.2808 53.7696C45.164 52.7433 44.6055 51.5118 44.6055 50.076L44.6045 50.075Z" fill="#6F00FF"/>
<path d="M61.332 50.075V46.0174C61.332 44.5806 61.8883 43.354 62.9999 42.3374C64.1114 41.3208 65.4537 40.8125 67.0278 40.8125H74.2692C75.1299 40.8125 75.8285 41.4544 75.8285 42.2454V53.8761C75.8285 54.6671 75.1299 55.3089 74.2692 55.3089H74.1743C73.3135 55.3089 72.615 54.6671 72.615 53.8761V44.052C72.615 43.8942 72.4749 43.7654 72.3031 43.7654H67.0267C66.3366 43.7654 65.7498 43.9871 65.2683 44.4296C64.7868 44.872 64.5455 45.4113 64.5455 46.0455V50.0469C64.5455 50.6811 64.7889 51.2242 65.2767 51.6773C65.7635 52.1295 66.3472 52.356 67.0278 52.356H69.2298C70.0906 52.356 70.7891 52.9979 70.7891 53.7889V53.8761C70.7891 54.6671 70.0906 55.3089 69.2298 55.3089H67.0278C65.4642 55.3089 64.1241 54.7958 63.0083 53.7696C61.8915 52.7433 61.3331 51.5118 61.3331 50.076L61.332 50.075Z" fill="#6F00FF"/>
<path d="M79.1729 53.7834V35.6479C79.1729 34.8056 79.9 34.1221 80.7962 34.1221H80.8949C81.791 34.1221 82.5182 34.8056 82.5182 35.6479V53.7834C82.5182 54.6257 81.791 55.3092 80.8949 55.3092H80.7962C79.9 55.3092 79.1729 54.6257 79.1729 53.7834Z" fill="#6F00FF"/>
<path d="M93.6689 49.3792V35.6479C93.6689 34.8056 94.3652 34.1221 95.2233 34.1221H95.302C96.16 34.1221 96.8563 34.8056 96.8563 35.6479V49.3792C96.8563 50.1544 97.1346 50.8142 97.6912 51.3606C98.2479 51.907 98.9158 52.1802 99.695 52.1802H108.841C109.699 52.1802 110.396 52.8638 110.396 53.7061V53.7834C110.396 54.6257 109.699 55.3092 108.841 55.3092H99.695C98.0357 55.3092 96.6169 54.7308 95.4375 53.5731C94.2592 52.4163 93.6689 51.0173 93.6689 49.3792Z" fill="#6F00FF"/>
<path d="M111.511 50.075V46.0174C111.511 44.5806 112.067 43.354 113.179 42.3374C114.29 41.3208 115.632 40.8125 117.206 40.8125H124.448C125.309 40.8125 126.007 41.4544 126.007 42.2454V53.8761C126.007 54.6671 125.309 55.3089 124.448 55.3089H124.353C123.492 55.3089 122.794 54.6671 122.794 53.8761V44.052C122.794 43.8942 122.654 43.7654 122.482 43.7654H117.205C116.515 43.7654 115.928 43.9871 115.447 44.4296C114.964 44.873 114.724 45.4113 114.724 46.0455V50.0469C114.724 50.6811 114.968 51.2242 115.455 51.6773C115.942 52.1295 116.526 52.356 117.206 52.356H119.409C120.269 52.356 120.968 52.9979 120.968 53.7889V53.8761C120.968 54.6671 120.269 55.3089 119.409 55.3089H117.206C115.643 55.3089 114.303 54.7958 113.187 53.7696C112.07 52.7433 111.512 51.5118 111.512 50.076L111.511 50.075Z" fill="#6F00FF"/>
<path fill-rule="evenodd" clip-rule="evenodd" d="M197.114 35.6479V53.7834C197.114 54.6257 197.841 55.3092 198.737 55.3092H198.836C199.732 55.3092 200.459 54.6257 200.459 53.7834V35.6479C200.459 34.8056 199.732 34.1221 198.836 34.1221H198.737C197.841 34.1221 197.114 34.8056 197.114 35.6479ZM184.545 40.8125L192.375 40.8125C193.166 40.8125 193.808 41.5111 193.808 42.3718V42.4667C193.808 43.3275 193.166 44.026 192.375 44.026L184.587 44.026C183.935 44.026 183.379 44.2673 182.922 44.7488C182.465 45.2313 182.236 45.8171 182.236 46.5072L182.236 51.7836C182.236 51.9554 182.365 52.0955 182.523 52.0955H192.375C193.166 52.0955 193.808 52.794 193.808 53.6548V53.7496C193.808 54.6104 193.166 55.309 192.375 55.309H182.25C181.439 55.309 180.745 54.9918 180.172 54.3576C179.598 53.7233 179.312 52.9594 179.312 52.066L179.312 46.5083C179.312 44.9447 179.825 43.6045 180.851 42.4888C181.877 41.372 183.109 40.8136 184.544 40.8136L184.545 40.8125ZM225.302 50.075V42.2454C225.302 41.4544 226 40.8125 226.861 40.8125H226.956C227.817 40.8125 228.515 41.4544 228.515 42.2454V50.0334C228.515 50.6859 228.757 51.2417 229.238 51.6987C229.721 52.1556 230.306 52.3841 230.997 52.3841H236.273C236.445 52.3841 236.585 52.2554 236.585 52.0975V42.2454C236.585 41.4544 237.283 40.8125 238.144 40.8125H238.239C239.1 40.8125 239.798 41.4544 239.798 42.2454V52.3706C239.798 53.1819 239.481 53.8751 238.847 54.4483C238.213 55.0224 237.449 55.309 236.555 55.309H230.998C229.434 55.309 228.094 54.7958 226.978 53.7696C225.861 52.7433 225.303 51.5118 225.303 50.076L225.302 50.075ZM255.388 40.8125V35.6479C255.388 34.8056 256.116 34.1221 257.012 34.1221H257.11C258.007 34.1221 258.734 34.8056 258.734 35.6479V53.7834C258.734 54.6257 258.007 55.3092 257.11 55.3092H257.012C256.997 55.3092 256.983 55.309 256.968 55.3087C256.958 55.3089 256.947 55.309 256.936 55.309H250.283C248.719 55.309 247.379 54.7958 246.263 53.7696C245.147 52.7433 244.587 51.5108 244.587 50.075V46.0174C244.587 44.5806 245.143 43.354 246.255 42.3374C247.366 41.3208 248.709 40.8125 250.283 40.8125H255.388ZM255.388 43.7654H250.282C249.592 43.7654 249.005 43.9872 248.523 44.4296C248.041 44.873 247.801 45.4113 247.801 46.0455V50.0469C247.801 50.6811 248.044 51.2242 248.532 51.6773C249.019 52.1295 249.602 52.356 250.283 52.356H255.388V43.7654ZM211.249 40.8125L215.306 40.8125C216.743 40.8125 217.97 41.3688 218.986 42.4804C220.003 43.5919 220.511 44.9342 220.511 46.5083V53.7496C220.511 54.6104 219.869 55.309 219.078 55.309H207.448C206.657 55.309 206.015 54.6104 206.015 53.7496V53.6548C206.015 53.5708 206.021 53.4883 206.033 53.4079C206.021 53.3275 206.015 53.245 206.015 53.161V46.5083C206.015 44.9447 206.528 43.6045 207.554 42.4888C208.58 41.372 209.813 40.8125 211.249 40.8125ZM208.968 46.5083L208.968 52.0955H217.272C217.43 52.0955 217.558 51.9554 217.558 51.7836V46.5072C217.558 45.8171 217.337 45.2303 216.894 44.7488C216.451 44.2662 215.912 44.026 215.278 44.026H211.277C210.643 44.026 210.1 44.2694 209.646 44.7572C209.194 45.2439 208.968 45.8276 208.968 46.5083Z" fill="url(#paint0_radial_6550_15831)"/>
<path d="M130.864 40.8125H130.93C131.559 40.8125 132.122 41.2063 132.343 41.8005L135.66 50.7285C135.758 50.9907 136.125 50.9928 136.225 50.7306L139.62 41.7902C139.843 41.2011 140.404 40.8125 141.029 40.8125H141.225C142.284 40.8125 143.014 41.8848 142.632 42.881L135.694 61.026C135.469 61.613 134.91 61.9996 134.286 61.9996H134.105C133.049 61.9996 132.32 60.9335 132.694 59.9383L134.289 55.7004L129.453 42.8749C129.078 41.8786 129.807 40.8125 130.863 40.8125H130.864Z" fill="#6F00FF"/>
<path d="M144.966 51.2223V43.8061C144.966 42.9764 145.296 42.2696 145.955 41.6868C146.615 41.1039 147.407 40.8125 148.331 40.8125H154.908C156.167 40.8125 157.239 41.223 158.129 42.044C159.017 42.865 159.461 43.8584 159.461 45.0241V45.4297C159.461 46.577 159.017 47.5587 158.129 48.3749C157.24 49.1911 156.167 49.5996 154.908 49.5996H151.564C150.703 49.5996 150.005 48.9577 150.005 48.1667V48.0941C150.005 47.3031 150.703 46.6612 151.564 46.6612H154.939C155.304 46.6612 155.616 46.5402 155.875 46.2972C156.134 46.0552 156.264 45.7608 156.264 45.4162V45.0241C156.264 44.6794 156.134 44.3831 155.875 44.1353C155.616 43.8884 155.304 43.7645 154.939 43.7645H149.737C148.877 43.7645 148.178 44.4064 148.178 45.1974V51.2087C148.178 51.5263 148.295 51.7964 148.528 52.0201C148.762 52.2437 149.045 52.356 149.38 52.356H156.789C157.649 52.356 158.348 52.9979 158.348 53.7889V53.8761C158.348 54.6671 157.649 55.3089 156.789 55.3089H149.38C148.162 55.3089 147.121 54.9101 146.259 54.1123C145.396 53.3145 144.965 52.3512 144.965 51.2233L144.966 51.2223Z" fill="#6F00FF"/>
<path d="M164.318 55.308C163.483 55.308 162.807 54.6661 162.807 53.8751V44.8701C162.807 43.7509 163.236 42.7944 164.098 42.0014C164.959 41.2085 165.994 40.8125 167.204 40.8125H169.101C169.936 40.8125 170.612 41.4544 170.612 42.2454V42.318C170.612 43.109 169.936 43.7509 169.101 43.7509H167.204C166.849 43.7509 166.547 43.8652 166.296 44.0936C166.045 44.3221 165.919 44.6 165.919 44.9263V53.8761C165.919 54.6671 165.242 55.3089 164.408 55.3089H164.317L164.318 55.308Z" fill="#6F00FF"/>
<path d="M245.108 10.7697C243.541 7.17281 240.838 4.18914 237.412 2.27609C233.987 0.363054 230.029 -0.373752 226.145 0.178645C222.261 0.731042 218.665 2.54215 215.909 5.33429C213.152 8.12642 211.388 11.7455 210.886 15.6365C208.651 16.1769 206.663 17.4535 205.241 19.2608C203.819 21.0682 203.047 23.3013 203.048 25.6008C203.043 27.0517 203.347 28.487 203.939 29.8118C204.53 31.1365 205.397 32.3205 206.48 33.2853C206.947 33.6972 207.548 33.9248 208.171 33.9257C208.537 33.9221 208.897 33.8402 209.229 33.6855C209.56 33.5309 209.854 33.3071 210.092 33.0292C210.54 32.5194 210.767 31.8528 210.724 31.1756C210.681 30.4985 210.37 29.8662 209.862 29.4175C209.318 28.9431 208.886 28.3556 208.594 27.6963C208.302 27.037 208.157 26.3218 208.171 25.6008C208.171 24.2421 208.711 22.939 209.671 21.9783C210.632 21.0175 211.935 20.4778 213.294 20.4778C213.973 20.4778 214.625 20.2079 215.105 19.7275C215.586 19.2472 215.855 18.5956 215.855 17.9163C215.862 14.8867 216.942 11.9576 218.904 9.64921C220.866 7.34086 223.583 5.80277 226.572 5.3082C229.561 4.81363 232.629 5.3946 235.23 6.94791C237.831 8.50121 239.797 10.9263 240.779 13.7922C240.929 14.2276 241.194 14.6145 241.546 14.912C241.897 15.2095 242.323 15.4067 242.777 15.4828C244.559 15.7903 246.176 16.7167 247.343 18.0989C248.51 19.4811 249.151 21.2305 249.155 23.0393C249.189 24.9244 248.512 26.7534 247.26 28.1623C246.995 28.4032 246.783 28.697 246.638 29.0248C246.494 29.3525 246.42 29.7069 246.421 30.0651C246.422 30.4233 246.498 30.7773 246.644 31.1042C246.791 31.4311 247.004 31.7237 247.27 31.9631C247.537 32.2025 247.85 32.3834 248.191 32.4941C248.532 32.6048 248.892 32.6427 249.248 32.6056C249.604 32.5685 249.949 32.4571 250.259 32.2785C250.57 32.1 250.839 31.8583 251.051 31.5691C253.156 29.2298 254.307 26.1862 254.278 23.0393C254.276 20.2791 253.382 17.5934 251.729 15.3825C250.077 13.1715 247.754 11.5536 245.108 10.7697Z" fill="url(#paint1_radial_6550_15831)"/>
<defs>
<radialGradient id="paint0_radial_6550_15831" cx="0" cy="0" r="1" gradientUnits="userSpaceOnUse" gradientTransform="translate(185.199 80.5197) rotate(-25.4934) scale(89.9622 119.516)">
<stop stop-color="#7B02C3"/>
<stop offset="1" stop-color="#00EDFF"/>
</radialGradient>
<radialGradient id="paint1_radial_6550_15831" cx="0" cy="0" r="1" gradientUnits="userSpaceOnUse" gradientTransform="translate(206.846 74.2933) rotate(-49.808) scale(81.1642 136.824)">
<stop stop-color="#7B02C3"/>
<stop offset="1" stop-color="#00EDFF"/>
</radialGradient>
</defs>
</svg>
