<svg xmlns="http://www.w3.org/2000/svg" width="31" height="24" viewBox="0 0 31 24" fill="none">
  <path d="M9.96428 0C8.33291 0 6.83831 0.842485 6.06442 2.19876C5.76328 2.72621 5.4078 3.58673 5.2146 4.1577C5.03746 4.64663 2.33113 10.7526 0.667097 14.4855L0.674665 14.4887C0.246087 15.3456 0 16.2966 0 17.3023C0 20.9955 3.22843 24 7.19643 24C11.1644 24 14.3929 20.9955 14.3929 17.3023V15.2518C14.6903 15.1585 15.0737 15.0698 15.5 15.0698C15.9278 15.0698 16.3101 15.1585 16.6071 15.2518V17.3023C16.6071 20.9955 19.8356 24 23.8036 24C27.7716 24 31 20.9955 31 17.3023C31 16.2966 30.7539 15.3456 30.3253 14.4887L30.3329 14.4855C28.6689 10.7521 25.963 4.64757 25.7886 4.16533C25.5927 3.58766 25.2367 2.7273 24.9356 2.19985C24.1617 0.843017 22.6671 0 21.0357 0C18.6527 0 16.7083 1.78961 16.6158 4.02144C16.277 3.95413 15.903 3.90698 15.5 3.90698C15.097 3.90698 14.7229 3.95413 14.3842 4.02144C14.2917 1.78961 12.3473 0 9.96428 0ZM9.96428 2.23256C11.1855 2.23256 12.1786 3.10884 12.1786 4.18605V12.4807C10.8842 11.3219 9.12998 10.6047 7.19643 10.6047C6.28564 10.6047 5.4173 10.7696 4.61454 11.0581C5.8783 8.20849 7.18293 5.25286 7.30671 4.88808C7.48883 4.35059 7.78755 3.65891 7.98462 3.31286C8.36437 2.647 9.12286 2.23256 9.96428 2.23256ZM21.0357 2.23256C21.8771 2.23256 22.6356 2.64644 23.0154 3.31286C23.213 3.65891 23.5106 4.35113 23.6933 4.88917C23.817 5.25354 25.1209 8.20886 26.3844 11.0581C25.5819 10.7698 24.714 10.6047 23.8036 10.6047C21.87 10.6047 20.1158 11.3219 18.8214 12.4807V4.18605C18.8214 3.10884 19.8145 2.23256 21.0357 2.23256ZM15.5 6.13953C15.9278 6.13953 16.3101 6.22829 16.6071 6.32158V8.48438C16.2707 8.41805 15.8994 8.37209 15.5 8.37209C15.1006 8.37209 14.7293 8.41805 14.3929 8.48438V6.32158C14.6903 6.22827 15.0737 6.13953 15.5 6.13953ZM15.5 10.6047C15.9278 10.6047 16.3101 10.6934 16.6071 10.7867V12.9495C16.2707 12.8832 15.8994 12.8372 15.5 12.8372C15.1006 12.8372 14.7293 12.8832 14.3929 12.9495V10.7867C14.6903 10.6934 15.0737 10.6047 15.5 10.6047ZM7.19643 12.8372C9.9438 12.8372 12.1786 14.8404 12.1786 17.3023C12.1786 19.7643 9.9438 21.7674 7.19643 21.7674C4.44905 21.7674 2.21429 19.7643 2.21429 17.3023C2.21429 14.8404 4.44905 12.8372 7.19643 12.8372ZM23.8036 12.8372C26.5509 12.8372 28.7857 14.8404 28.7857 17.3023C28.7857 19.7643 26.5509 21.7674 23.8036 21.7674C21.0562 21.7674 18.8214 19.7643 18.8214 17.3023C18.8214 14.8404 21.0562 12.8372 23.8036 12.8372Z" fill="#fff"/>
</svg>