<svg width="36" height="37" viewBox="0 0 36 37" fill="none" xmlns="http://www.w3.org/2000/svg">
<path d="M12.041 28.4492C10.0371 34.4082 2.0918 34.4082 2.0918 34.4082C2.0918 34.4082 2.0918 26.4629 8.0508 24.459" stroke="black" stroke-width="2.85" stroke-linecap="round" stroke-linejoin="round"/>
<path d="M29.9355 14.5272L18 26.4627L10.0371 18.4998L21.9727 6.5643C26.4902 2.04671 31.0078 2.09945 32.9414 2.3807C33.2398 2.4205 33.5167 2.55739 33.7296 2.77024C33.9424 2.98309 34.0793 3.26006 34.1191 3.55843C34.4004 5.49202 34.4531 10.0096 29.9355 14.5272Z" stroke="black" stroke-width="2.85" stroke-linecap="round" stroke-linejoin="round"/>
<path d="M27.9492 16.5137V27.8691C27.9439 28.2401 27.7923 28.5939 27.5273 28.8535L21.8496 34.5488C21.6695 34.7288 21.4439 34.8564 21.1969 34.9181C20.9499 34.9799 20.6908 34.9734 20.4472 34.8995C20.2036 34.8255 19.9846 34.6867 19.8137 34.4981C19.6427 34.3094 19.5262 34.0778 19.4766 33.8281L18 26.4629" stroke="black" stroke-width="2.85" stroke-linecap="round" stroke-linejoin="round"/>
<path d="M19.9865 8.55078H8.631C8.2601 8.55608 7.9063 8.70768 7.6467 8.97268L1.95135 14.6504C1.77142 14.8305 1.64378 15.0561 1.58203 15.3031C1.52028 15.5501 1.52674 15.8092 1.60073 16.0528C1.67471 16.2964 1.81344 16.5154 2.00212 16.6863C2.1908 16.8573 2.42234 16.9738 2.67205 17.0234L10.0373 18.5" stroke="black" stroke-width="2.85" stroke-linecap="round" stroke-linejoin="round"/>
</svg>
