<svg width="24" height="25" viewBox="0 0 24 25" fill="none" xmlns="http://www.w3.org/2000/svg">
<path d="M23.7224 10.2264H12.2783V15.0548H18.8641C18.2512 18.1232 15.6853 19.8861 12.2783 19.8861C11.325 19.8877 10.3807 19.6978 9.49968 19.3271C8.61863 18.9564 7.81812 18.4123 7.14408 17.7259C6.47004 17.0396 5.93573 16.2246 5.57178 15.3275C5.20784 14.4305 5.02143 13.4691 5.02324 12.4986C5.02161 11.5282 5.20815 10.567 5.57218 9.67011C5.9362 8.77324 6.47055 7.95835 7.14457 7.27215C7.81859 6.58596 8.61903 6.04197 9.5 5.67138C10.381 5.30078 11.3251 5.11086 12.2783 5.11252C14.0086 5.11252 15.5726 5.73794 16.7999 6.76071L20.3731 3.12434C18.1962 1.19212 15.4049 5.32487e-05 12.2783 5.32487e-05C10.6646 -0.00474885 9.06586 0.315294 7.57406 0.941774C6.08226 1.56825 4.72684 2.48881 3.58576 3.65049C2.44468 4.81218 1.54045 6.19207 0.925077 7.7108C0.309707 9.22953 -0.00466053 10.8571 5.64179e-05 12.5C-0.00484293 14.1429 0.3094 15.7706 0.924705 17.2894C1.54001 18.8082 2.44423 20.1882 3.58535 21.3499C4.72647 22.5116 6.08197 23.4322 7.57385 24.0586C9.06573 24.685 10.6645 25.0049 12.2783 24.9999C18.4175 24.9999 24 20.4541 24 12.5C24 11.7613 23.8887 10.9651 23.7224 10.2264Z" fill="white"/>
</svg>
