<svg width="20" height="20" viewBox="0 0 20 20" fill="none" xmlns="http://www.w3.org/2000/svg">
<g clip-path="url(#clip0_116_5987)">
<path d="M1.66669 3.33268C1.66669 2.41221 2.41288 1.66602 3.33335 1.66602H6.66669C7.58716 1.66602 8.33335 2.41221 8.33335 3.33268V6.66602C8.33335 7.58649 7.58716 8.33268 6.66669 8.33268H3.33335C2.41288 8.33268 1.66669 7.58649 1.66669 6.66602V3.33268Z" stroke="#D4D6D9" stroke-width="1.5" stroke-linejoin="round"/>
<path d="M11.6667 3.33268C11.6667 2.41221 12.4129 1.66602 13.3334 1.66602H16.6667C17.5872 1.66602 18.3334 2.41221 18.3334 3.33268V6.66602C18.3334 7.58649 17.5872 8.33268 16.6667 8.33268H13.3334C12.4129 8.33268 11.6667 7.58649 11.6667 6.66602V3.33268Z" stroke="#D4D6D9" stroke-width="1.5" stroke-linejoin="round"/>
<path d="M1.66669 13.3327C1.66669 12.4122 2.41288 11.666 3.33335 11.666H6.66669C7.58716 11.666 8.33335 12.4122 8.33335 13.3327V16.666C8.33335 17.5865 7.58716 18.3327 6.66669 18.3327H3.33335C2.41288 18.3327 1.66669 17.5865 1.66669 16.666V13.3327Z" stroke="#D4D6D9" stroke-width="1.5" stroke-linejoin="round"/>
<path d="M11.6667 13.3327C11.6667 12.4122 12.4129 11.666 13.3334 11.666H16.6667C17.5872 11.666 18.3334 12.4122 18.3334 13.3327V16.666C18.3334 17.5865 17.5872 18.3327 16.6667 18.3327H13.3334C12.4129 18.3327 11.6667 17.5865 11.6667 16.666V13.3327Z" stroke="#D4D6D9" stroke-width="1.5" stroke-linejoin="round"/>
</g>
<defs>
<clipPath id="clip0_116_5987">
<rect width="20" height="20" fill="white"/>
</clipPath>
</defs>
</svg>
