<?xml version="1.0" encoding="UTF-8"?><svg id="a" xmlns="http://www.w3.org/2000/svg" width="1643.5" height="1406" viewBox="0 0 1643.5 1406"><g><g><path d="m17.82,1141.44h1.07c6.26,0,11.84,3.93,13.94,9.83l53.82,150.86c.94,2.62,4.64,2.62,5.58,0l53.69-150.85c2.1-5.9,7.68-9.84,13.94-9.84h1.06c10.24,0,17.38,10.15,13.93,19.79l-62.97,175.91c-2.11,5.88-7.68,9.81-13.93,9.81h-17.17c-6.25,0-11.83-3.93-13.93-9.81L3.89,1161.23c-3.45-9.64,3.69-19.79,13.93-19.79Z"/><path d="m202.65,1169.77c-3.66-3.66-5.49-8.09-5.49-13.3s1.83-9.63,5.49-13.3c3.66-3.66,8.09-5.49,13.3-5.49s9.63,1.83,13.3,5.49c3.66,3.66,5.49,8.09,5.49,13.3s-1.83,9.64-5.49,13.3c-3.66,3.66-8.09,5.49-13.3,5.49s-9.64-1.83-13.3-5.49Zm-2.02,162.38v-120.13c0-8.17,6.63-14.8,14.8-14.8h1.04c8.17,0,14.8,6.63,14.8,14.8v120.13c0,8.17-6.63,14.8-14.8,14.8h-1.04c-8.17,0-14.8-6.63-14.8-14.8Z"/><path d="m260.06,1242.9v-3.61c0-11.66,4.21-21.58,12.65-29.77,8.43-8.19,18.57-12.28,30.42-12.28h73.07c8.17,0,14.8,6.63,14.8,14.8v.9c0,8.17-6.63,14.8-14.8,14.8h-73.07c-3.47,0-6.43,1.13-8.89,3.4-2.46,2.26-3.69,4.99-3.69,8.17v3.61c0,3.28,1.23,6.07,3.69,8.38,2.46,2.31,5.42,3.47,8.89,3.47h54.63c11.85,0,21.97,4.12,30.35,12.36,8.38,8.24,12.57,18.19,12.57,29.84v7.8c0,11.66-4.19,21.61-12.57,29.84-8.38,8.24-18.5,12.36-30.35,12.36h-76.1c-8.17,0-14.8-6.63-14.8-14.8v-.9c0-8.17,6.63-14.8,14.8-14.8h76.1c3.47,0,6.43-1.16,8.89-3.47s3.69-5.11,3.69-8.38v-7.52c0-3.27-1.23-6.09-3.69-8.45-2.46-2.36-5.42-3.54-8.89-3.54h-54.63c-11.85,0-21.99-4.12-30.42-12.36-8.43-8.24-12.65-18.19-12.65-29.84Z"/><path d="m429.48,1292.9v-80.87c0-8.17,6.63-14.8,14.8-14.8h.9c8.17,0,14.8,6.63,14.8,14.8v80.44c0,6.74,2.29,12.48,6.86,17.2,4.58,4.72,10.14,7.08,16.69,7.08h50.08c1.63,0,2.96-1.33,2.96-2.96v-101.76c0-8.17,6.63-14.8,14.8-14.8h.9c8.17,0,14.8,6.63,14.8,14.8v104.58c0,8.38-3.01,15.54-9.03,21.46-6.02,5.93-13.27,8.89-21.75,8.89h-52.75c-14.84,0-27.56-5.3-38.15-15.9-10.6-10.6-15.9-23.32-15.9-38.15Z"/><path d="m595.86,1292.9v-41.91c0-14.84,5.28-27.51,15.83-38.01,10.55-10.5,23.29-15.75,38.23-15.75h68.73c8.17,0,14.8,6.63,14.8,14.8v120.13c0,8.17-6.63,14.8-14.8,14.8h-.9c-8.17,0-14.8-6.63-14.8-14.8v-101.47c0-1.63-1.33-2.96-2.96-2.96h-50.08c-6.55,0-12.12,2.29-16.69,6.86s-6.86,10.14-6.86,16.69v41.33c0,6.55,2.31,12.16,6.94,16.84,4.62,4.67,10.16,7.01,16.62,7.01h20.9c8.17,0,14.8,6.63,14.8,14.8v.9c0,8.17-6.63,14.8-14.8,14.8h-20.9c-14.84,0-27.56-5.3-38.15-15.9-10.6-10.6-15.9-23.32-15.9-38.15Z"/><path d="m763.69,1332.15v-175.91c0-8.17,6.63-14.8,14.8-14.8h.9c8.17,0,14.8,6.63,14.8,14.8v175.91c0,8.17-6.63,14.8-14.8,14.8h-.9c-8.17,0-14.8-6.63-14.8-14.8Z"/></g><g><path d="m902.04,1289.43v-133.19c0-8.17,6.63-14.8,14.8-14.8h.75c8.17,0,14.8,6.63,14.8,14.8v133.19c0,7.52,2.65,13.92,7.95,19.22,5.3,5.3,11.66,7.95,19.08,7.95h87.09c8.17,0,14.8,6.63,14.8,14.8v.75c0,8.17-6.63,14.8-14.8,14.8h-87.09c-15.8,0-29.31-5.61-40.54-16.84-11.22-11.22-16.84-24.79-16.84-40.68Z"/><path d="m1078.54,1292.9v-41.91c0-14.84,5.28-27.51,15.83-38.01,10.55-10.5,23.29-15.75,38.23-15.75h68.73c8.17,0,14.8,6.63,14.8,14.8v120.13c0,8.17-6.63,14.8-14.8,14.8h-.9c-8.17,0-14.8-6.63-14.8-14.8v-101.47c0-1.63-1.33-2.96-2.96-2.96h-50.08c-6.55,0-12.12,2.29-16.69,6.86-4.58,4.58-6.86,10.14-6.86,16.69v41.33c0,6.55,2.31,12.16,6.94,16.84,4.62,4.67,10.16,7.01,16.62,7.01h20.9c8.17,0,14.8,6.63,14.8,14.8v.9c0,8.17-6.63,14.8-14.8,14.8h-20.9c-14.84,0-27.56-5.3-38.15-15.9-10.6-10.6-15.9-23.32-15.9-38.15Z"/><path d="m1256.26,1197.23h.65c6.17,0,11.69,3.83,13.86,9.61l32.54,86.84c.96,2.55,4.56,2.57,5.54.02l33.31-86.96c2.19-5.73,7.69-9.51,13.82-9.51h1.92c10.39,0,17.55,10.43,13.81,20.12l-68.07,176.49c-2.2,5.71-7.69,9.47-13.81,9.47h-1.78c-10.36,0-17.51-10.37-13.84-20.05l15.65-41.22-47.44-124.75c-3.68-9.69,3.47-20.06,13.83-20.06Z"/><path d="m1398.15,1304.75v-76.6c0-8.57,3.13-15.87,9.39-21.89,6.26-6.02,13.78-9.03,22.55-9.03h62.43c11.95,0,22.13,4.24,30.57,12.72,8.43,8.48,12.65,18.74,12.65,30.78v4.19c0,11.85-4.22,21.99-12.65,30.42s-18.62,12.65-30.57,12.65h-31.74c-8.17,0-14.8-6.63-14.8-14.8v-.75c0-8.17,6.63-14.8,14.8-14.8h32.03c3.47,0,6.43-1.25,8.89-3.76,2.46-2.5,3.69-5.54,3.69-9.1v-4.05c0-3.56-1.23-6.62-3.69-9.18-2.46-2.55-5.42-3.83-8.89-3.83h-49.37c-8.17,0-14.8,6.63-14.8,14.8v62.09c0,3.28,1.11,6.07,3.32,8.38,2.22,2.31,4.91,3.47,8.09,3.47h70.32c8.17,0,14.8,6.63,14.8,14.8v.9c0,8.17-6.63,14.8-14.8,14.8h-70.32c-11.56,0-21.44-4.12-29.63-12.36-8.19-8.24-12.28-18.19-12.28-29.84Z"/><path d="m1579.34,1346.95c-8.17,0-14.8-6.63-14.8-14.8v-93.01c0-11.56,4.21-21.44,12.65-29.63,8.43-8.19,18.57-12.28,30.42-12.28h18.59c8.17,0,14.8,6.63,14.8,14.8v.75c0,8.17-6.63,14.8-14.8,14.8h-18.59c-3.47,0-6.43,1.18-8.89,3.54-2.46,2.36-3.69,5.23-3.69,8.6v92.44c0,8.17-6.63,14.8-14.8,14.8h-.9Z"/></g></g><g><polygon points="618.05 64.93 597.72 3 335.94 3 451.62 329.13 618.05 64.93" fill="#ff4500"/><polygon points="1360.06 3 1099.71 3 992.03 329.13 1286 211.8 1360.06 3" fill="#a4c217"/><polygon points="1286 211.8 1099.71 3 1360.06 3 1286 211.8" fill="#d5ca29"/><polygon points="705.23 329.13 618.05 64.93 502.57 248.24 705.23 329.13" fill="#d6493e"/><polygon points="592.82 727.23 848 765.35 705.23 329.13 531.73 555.01 592.82 727.23" fill="#a63b94"/><polygon points="848 765.35 1103.14 727.34 1167.77 545.13 992.03 329.13 848 765.35" fill="#2db686"/><polygon points="848 765.35 1001.91 1012.74 694.09 1012.74 848 765.35" fill="#0197d8"/><polygon points="848 765.35 694.09 1012.74 592.82 727.23 848 765.35" fill="#336c9b"/><polygon points="1001.91 1012.74 1103.14 727.34 848 765.35 1001.91 1012.74" fill="#26bf79"/><polygon points="531.73 555.01 705.23 329.13 409.79 211.21 531.73 555.01" fill="#cc4e84"/><polygon points="1167.77 545.13 992.03 329.13 1286 211.8 1167.77 545.13" fill="#1bc07d"/></g></svg>