<svg xmlns="http://www.w3.org/2000/svg" viewBox="0 100 300 110">
    <g fill="#2E3946"
       transform="matrix(1.5411059856414795,0,0,1.5411059856414795,18.058206481634148,167.8536538545286)">
        <path d="M5.11 4.62L5.11 4.62Q6.19 4.62 7.08 5.13L7.08 5.13L7.08 5.13Q7.97 5.64 8.47 6.53L8.47 6.53L8.47 6.53Q8.97 7.42 8.97 8.51L8.97 8.51L8.97 8.51Q8.97 9.60 8.51 10.49L8.51 10.49L8.51 10.49Q8.04 11.38 7.22 11.89L7.22 11.89L7.22 11.89Q6.40 12.39 5.39 12.39L5.39 12.39L5.39 12.39Q4.58 12.39 3.88 12.05L3.88 12.05L3.88 12.05Q3.18 11.72 2.69 11.12L2.69 11.12L2.69 14.90L2.69 14.90Q2.69 15.22 2.49 15.41L2.49 15.41L2.49 15.41Q2.30 15.61 1.97 15.61L1.97 15.61L1.97 15.61Q1.67 15.61 1.46 15.41L1.46 15.41L1.46 15.41Q1.26 15.22 1.26 14.90L1.26 14.90L1.26 8.51L1.26 8.51Q1.26 7.42 1.77 6.53L1.77 6.53L1.77 6.53Q2.28 5.64 3.16 5.13L3.16 5.13L3.16 5.13Q4.03 4.62 5.11 4.62L5.11 4.62ZM5.11 11.13L5.11 11.13Q5.81 11.13 6.38 10.79L6.38 10.79L6.38 10.79Q6.94 10.44 7.27 9.85L7.27 9.85L7.27 9.85Q7.60 9.25 7.60 8.51L7.60 8.51L7.60 8.51Q7.60 7.77 7.27 7.17L7.27 7.17L7.27 7.17Q6.94 6.57 6.38 6.22L6.38 6.22L6.38 6.22Q5.81 5.88 5.11 5.88L5.11 5.88L5.11 5.88Q4.41 5.88 3.84 6.22L3.84 6.22L3.84 6.22Q3.28 6.57 2.95 7.17L2.95 7.17L2.95 7.17Q2.63 7.77 2.63 8.51L2.63 8.51L2.63 8.51Q2.63 9.25 2.95 9.85L2.95 9.85L2.95 9.85Q3.28 10.44 3.84 10.79L3.84 10.79L3.84 10.79Q4.41 11.13 5.11 11.13L5.11 11.13ZM14.57 4.62L14.57 4.62Q15.68 4.62 16.55 5.12L16.55 5.12L16.55 5.12Q17.43 5.61 17.93 6.50L17.93 6.50L17.93 6.50Q18.42 7.38 18.42 8.51L18.42 8.51L18.42 8.51Q18.42 9.63 17.93 10.51L17.93 10.51L17.93 10.51Q17.44 11.40 16.57 11.89L16.57 11.89L16.57 11.89Q15.69 12.39 14.57 12.39L14.57 12.39L14.57 12.39Q13.45 12.39 12.57 11.89L12.57 11.89L12.57 11.89Q11.69 11.40 11.20 10.51L11.20 10.51L11.20 10.51Q10.71 9.63 10.71 8.51L10.71 8.51L10.71 8.51Q10.71 7.38 11.20 6.50L11.20 6.50L11.20 6.50Q11.69 5.61 12.57 5.12L12.57 5.12L12.57 5.12Q13.45 4.62 14.57 4.62L14.57 4.62ZM14.57 5.88L14.57 5.88Q13.86 5.88 13.29 6.22L13.29 6.22L13.29 6.22Q12.73 6.55 12.40 7.15L12.40 7.15L12.40 7.15Q12.08 7.76 12.08 8.51L12.08 8.51L12.08 8.51Q12.08 9.27 12.40 9.86L12.40 9.86L12.40 9.86Q12.73 10.46 13.29 10.79L13.29 10.79L13.29 10.79Q13.86 11.13 14.57 11.13L14.57 11.13L14.57 11.13Q15.29 11.13 15.86 10.79L15.86 10.79L15.86 10.79Q16.42 10.46 16.74 9.86L16.74 9.86L16.74 9.86Q17.05 9.27 17.05 8.51L17.05 8.51L17.05 8.51Q17.05 7.76 16.74 7.15L16.74 7.15L16.74 7.15Q16.42 6.55 15.86 6.22L15.86 6.22L15.86 6.22Q15.29 5.88 14.57 5.88L14.57 5.88ZM20.27 2.10L20.27 2.10Q20.27 1.79 20.47 1.60L20.47 1.60L20.47 1.60Q20.66 1.40 20.97 1.40L20.97 1.40L20.97 1.40Q21.28 1.40 21.48 1.60L21.48 1.60L21.48 1.60Q21.67 1.79 21.67 2.10L21.67 2.10L21.67 9.74L21.67 9.74Q21.67 10.26 21.87 10.60L21.87 10.60L21.87 10.60Q22.06 10.93 22.37 10.93L22.37 10.93L22.72 10.93L22.72 10.93Q23.00 10.93 23.18 11.13L23.18 11.13L23.18 11.13Q23.35 11.33 23.35 11.63L23.35 11.63L23.35 11.63Q23.35 11.94 23.09 12.14L23.09 12.14L23.09 12.14Q22.82 12.33 22.40 12.33L22.40 12.33L22.37 12.33L22.37 12.33Q21.77 12.33 21.29 12.00L21.29 12.00L21.29 12.00Q20.80 11.68 20.54 11.08L20.54 11.08L20.54 11.08Q20.27 10.49 20.27 9.74L20.27 9.74L20.27 2.10ZM30.60 4.75L30.60 4.75Q31.04 4.91 31.04 5.29L31.04 5.29L31.04 5.29Q31.04 5.43 30.95 5.63L30.95 5.63L26.67 15.26L26.67 15.26Q26.50 15.69 26.12 15.69L26.12 15.69L26.12 15.69Q25.98 15.69 25.79 15.61L25.79 15.61L25.79 15.61Q25.37 15.43 25.37 15.06L25.37 15.06L25.37 15.06Q25.37 14.90 25.45 14.73L25.45 14.73L26.85 11.58L23.70 5.60L23.70 5.60Q23.63 5.47 23.63 5.31L23.63 5.31L23.63 5.31Q23.63 5.12 23.74 4.97L23.74 4.97L23.74 4.97Q23.86 4.82 24.04 4.73L24.04 4.73L24.04 4.73Q24.16 4.68 24.32 4.68L24.32 4.68L24.32 4.68Q24.71 4.68 24.91 5.07L24.91 5.07L27.47 10.16L29.72 5.08L29.72 5.08Q29.90 4.68 30.27 4.68L30.27 4.68L30.27 4.68Q30.45 4.68 30.60 4.75L30.60 4.75ZM35.77 4.62L35.77 4.62Q36.85 4.62 37.72 5.13L37.72 5.13L37.72 5.13Q38.60 5.64 39.11 6.53L39.11 6.53L39.11 6.53Q39.62 7.42 39.62 8.51L39.62 8.51L39.62 11.63L39.62 11.63Q39.62 11.94 39.42 12.14L39.42 12.14L39.42 12.14Q39.21 12.35 38.91 12.35L38.91 12.35L38.91 12.35Q38.60 12.35 38.40 12.14L38.40 12.14L38.40 12.14Q38.19 11.94 38.19 11.63L38.19 11.63L38.19 11.12L38.19 11.12Q37.70 11.72 37.00 12.05L37.00 12.05L37.00 12.05Q36.30 12.39 35.49 12.39L35.49 12.39L35.49 12.39Q34.48 12.39 33.66 11.89L33.66 11.89L33.66 11.89Q32.84 11.38 32.38 10.49L32.38 10.49L32.38 10.49Q31.91 9.60 31.91 8.51L31.91 8.51L31.91 8.51Q31.91 7.42 32.41 6.53L32.41 6.53L32.41 6.53Q32.91 5.64 33.80 5.13L33.80 5.13L33.80 5.13Q34.69 4.62 35.77 4.62L35.77 4.62ZM35.77 11.13L35.77 11.13Q36.47 11.13 37.04 10.79L37.04 10.79L37.04 10.79Q37.60 10.44 37.93 9.85L37.93 9.85L37.93 9.85Q38.25 9.25 38.25 8.51L38.25 8.51L38.25 8.51Q38.25 7.77 37.93 7.17L37.93 7.17L37.93 7.17Q37.60 6.57 37.04 6.22L37.04 6.22L37.04 6.22Q36.47 5.88 35.77 5.88L35.77 5.88L35.77 5.88Q35.07 5.88 34.50 6.22L34.50 6.22L34.50 6.22Q33.94 6.57 33.61 7.17L33.61 7.17L33.61 7.17Q33.28 7.77 33.28 8.51L33.28 8.51L33.28 8.51Q33.28 9.25 33.61 9.85L33.61 9.85L33.61 9.85Q33.94 10.44 34.50 10.79L34.50 10.79L34.50 10.79Q35.07 11.13 35.77 11.13L35.77 11.13ZM47.56 11.26L47.56 11.26Q47.75 11.47 47.75 11.75L47.75 11.75L47.75 11.75Q47.75 12.00 47.58 12.17L47.58 12.17L47.58 12.17Q47.40 12.33 47.12 12.33L47.12 12.33L47.12 12.33Q46.79 12.33 46.62 12.11L46.62 12.11L44.39 9.45L42.28 12.11L42.28 12.11Q42.07 12.33 41.78 12.33L41.78 12.33L41.78 12.33Q41.50 12.33 41.34 12.17L41.34 12.17L41.34 12.17Q41.17 12.00 41.17 11.75L41.17 11.75L41.17 11.75Q41.17 11.47 41.37 11.23L41.37 11.23L43.54 8.51L41.23 5.78L41.23 5.78Q41.02 5.53 41.02 5.25L41.02 5.25L41.02 5.25Q41.02 5.01 41.18 4.84L41.18 4.84L41.18 4.84Q41.34 4.68 41.64 4.68L41.64 4.68L41.64 4.68Q41.97 4.68 42.17 4.91L42.17 4.91L44.46 7.66L46.52 4.91L46.52 4.91Q46.70 4.68 47.04 4.68L47.04 4.68L47.04 4.68Q47.32 4.68 47.48 4.85L47.48 4.85L47.48 4.85Q47.64 5.03 47.64 5.28L47.64 5.28L47.64 5.28Q47.64 5.59 47.45 5.84L47.45 5.84L45.33 8.60L47.56 11.26ZM53.02 4.62L53.02 4.62Q54.12 4.62 55.00 5.12L55.00 5.12L55.00 5.12Q55.87 5.61 56.37 6.50L56.37 6.50L56.37 6.50Q56.87 7.38 56.87 8.51L56.87 8.51L56.87 8.51Q56.87 9.63 56.38 10.51L56.38 10.51L56.38 10.51Q55.89 11.40 55.01 11.89L55.01 11.89L55.01 11.89Q54.14 12.39 53.02 12.39L53.02 12.39L53.02 12.39Q51.90 12.39 51.02 11.89L51.02 11.89L51.02 11.89Q50.13 11.40 49.64 10.51L49.64 10.51L49.64 10.51Q49.15 9.63 49.15 8.51L49.15 8.51L49.15 8.51Q49.15 7.38 49.64 6.50L49.64 6.50L49.64 6.50Q50.13 5.61 51.02 5.12L51.02 5.12L51.02 5.12Q51.90 4.62 53.02 4.62L53.02 4.62ZM53.02 5.88L53.02 5.88Q52.30 5.88 51.74 6.22L51.74 6.22L51.74 6.22Q51.17 6.55 50.85 7.15L50.85 7.15L50.85 7.15Q50.53 7.76 50.53 8.51L50.53 8.51L50.53 8.51Q50.53 9.27 50.85 9.86L50.85 9.86L50.85 9.86Q51.17 10.46 51.74 10.79L51.74 10.79L51.74 10.79Q52.30 11.13 53.02 11.13L53.02 11.13L53.02 11.13Q53.73 11.13 54.30 10.79L54.30 10.79L54.30 10.79Q54.87 10.46 55.18 9.86L55.18 9.86L55.18 9.86Q55.50 9.27 55.50 8.51L55.50 8.51L55.50 8.51Q55.50 7.76 55.18 7.15L55.18 7.15L55.18 7.15Q54.87 6.55 54.30 6.22L54.30 6.22L54.30 6.22Q53.73 5.88 53.02 5.88L53.02 5.88ZM62.80 4.61L62.80 4.61Q63.77 4.61 64.54 5.03L64.54 5.03L64.54 5.03Q65.31 5.45 65.74 6.25L65.74 6.25L65.74 6.25Q66.18 7.06 66.18 8.19L66.18 8.19L66.18 11.63L66.18 11.63Q66.18 11.94 65.98 12.14L65.98 12.14L65.98 12.14Q65.77 12.35 65.46 12.35L65.46 12.35L65.46 12.35Q65.16 12.35 64.95 12.14L64.95 12.14L64.95 12.14Q64.75 11.94 64.75 11.63L64.75 11.63L64.75 8.19L64.75 8.19Q64.75 7.06 64.14 6.47L64.14 6.47L64.14 6.47Q63.53 5.89 62.52 5.89L62.52 5.89L62.52 5.89Q61.94 5.89 61.45 6.13L61.45 6.13L61.45 6.13Q60.97 6.37 60.70 6.78L60.70 6.78L60.70 6.78Q60.42 7.18 60.42 7.69L60.42 7.69L60.42 11.63L60.42 11.63Q60.42 11.94 60.23 12.14L60.23 12.14L60.23 12.14Q60.03 12.35 59.71 12.35L59.71 12.35L59.71 12.35Q59.40 12.35 59.20 12.14L59.20 12.14L59.20 12.14Q59.00 11.94 59.00 11.63L59.00 11.63L59.00 5.39L59.00 5.39Q59.00 5.07 59.20 4.87L59.20 4.87L59.20 4.87Q59.40 4.68 59.71 4.68L59.71 4.68L59.71 4.68Q60.03 4.68 60.23 4.87L60.23 4.87L60.23 4.87Q60.42 5.07 60.42 5.39L60.42 5.39L60.42 5.54L60.42 5.54Q60.87 5.10 61.49 4.85L61.49 4.85L61.49 4.85Q62.10 4.61 62.80 4.61L62.80 4.61ZM78.96 4.66L78.96 4.66Q79.28 4.66 79.48 4.86L79.48 4.86L79.48 4.86Q79.67 5.05 79.67 5.38L79.67 5.38L79.67 11.62L79.67 11.62Q79.67 11.93 79.48 12.13L79.48 12.13L79.48 12.13Q79.28 12.33 78.96 12.33L78.96 12.33L78.96 12.33Q78.65 12.33 78.45 12.13L78.45 12.13L78.45 12.13Q78.25 11.93 78.25 11.62L78.25 11.62L78.25 11.47L78.25 11.47Q77.80 11.91 77.18 12.16L77.18 12.16L77.18 12.16Q76.57 12.40 75.87 12.40L75.87 12.40L75.87 12.40Q74.90 12.40 74.13 11.98L74.13 11.98L74.13 11.98Q73.36 11.56 72.93 10.76L72.93 10.76L72.93 10.76Q72.49 9.95 72.49 8.82L72.49 8.82L72.49 5.38L72.49 5.38Q72.49 5.07 72.70 4.86L72.70 4.86L72.70 4.86Q72.90 4.66 73.21 4.66L73.21 4.66L73.21 4.66Q73.51 4.66 73.72 4.86L73.72 4.86L73.72 4.86Q73.92 5.07 73.92 5.38L73.92 5.38L73.92 8.82L73.92 8.82Q73.92 9.95 74.53 10.54L74.53 10.54L74.53 10.54Q75.14 11.12 76.15 11.12L76.15 11.12L76.15 11.12Q76.73 11.12 77.22 10.88L77.22 10.88L77.22 10.88Q77.70 10.64 77.97 10.23L77.97 10.23L77.97 10.23Q78.25 9.83 78.25 9.32L78.25 9.32L78.25 5.38L78.25 5.38Q78.25 5.05 78.45 4.86L78.45 4.86L78.45 4.86Q78.65 4.66 78.96 4.66L78.96 4.66ZM86.00 4.61L86.00 4.61Q86.97 4.61 87.74 5.03L87.74 5.03L87.74 5.03Q88.51 5.45 88.94 6.25L88.94 6.25L88.94 6.25Q89.38 7.06 89.38 8.19L89.38 8.19L89.38 11.63L89.38 11.63Q89.38 11.94 89.17 12.14L89.17 12.14L89.17 12.14Q88.97 12.35 88.66 12.35L88.66 12.35L88.66 12.35Q88.35 12.35 88.15 12.14L88.15 12.14L88.15 12.14Q87.95 11.94 87.95 11.63L87.95 11.63L87.95 8.19L87.95 8.19Q87.95 7.06 87.34 6.47L87.34 6.47L87.34 6.47Q86.73 5.89 85.72 5.89L85.72 5.89L85.72 5.89Q85.13 5.89 84.65 6.13L84.65 6.13L84.65 6.13Q84.17 6.37 83.90 6.78L83.90 6.78L83.90 6.78Q83.62 7.18 83.62 7.69L83.62 7.69L83.62 11.63L83.62 11.63Q83.62 11.94 83.43 12.14L83.43 12.14L83.43 12.14Q83.23 12.35 82.91 12.35L82.91 12.35L82.91 12.35Q82.60 12.35 82.40 12.14L82.40 12.14L82.40 12.14Q82.19 11.94 82.19 11.63L82.19 11.63L82.19 5.39L82.19 5.39Q82.19 5.07 82.40 4.87L82.40 4.87L82.40 4.87Q82.60 4.68 82.91 4.68L82.91 4.68L82.91 4.68Q83.23 4.68 83.43 4.87L83.43 4.87L83.43 4.87Q83.62 5.07 83.62 5.39L83.62 5.39L83.62 5.54L83.62 5.54Q84.07 5.10 84.69 4.85L84.69 4.85L84.69 4.85Q85.30 4.61 86.00 4.61L86.00 4.61ZM95.21 4.62L95.21 4.62Q96.29 4.62 97.17 5.13L97.17 5.13L97.17 5.13Q98.04 5.64 98.55 6.53L98.55 6.53L98.55 6.53Q99.06 7.42 99.06 8.51L99.06 8.51L99.06 11.63L99.06 11.63Q99.06 11.94 98.86 12.14L98.86 12.14L98.86 12.14Q98.66 12.35 98.35 12.35L98.35 12.35L98.35 12.35Q98.04 12.35 97.84 12.14L97.84 12.14L97.84 12.14Q97.64 11.94 97.64 11.63L97.64 11.63L97.64 11.12L97.64 11.12Q97.15 11.72 96.45 12.05L96.45 12.05L96.45 12.05Q95.75 12.39 94.93 12.39L94.93 12.39L94.93 12.39Q93.93 12.39 93.11 11.89L93.11 11.89L93.11 11.89Q92.29 11.38 91.82 10.49L91.82 10.49L91.82 10.49Q91.35 9.60 91.35 8.51L91.35 8.51L91.35 8.51Q91.35 7.42 91.85 6.53L91.85 6.53L91.85 6.53Q92.36 5.64 93.25 5.13L93.25 5.13L93.25 5.13Q94.14 4.62 95.21 4.62L95.21 4.62ZM95.21 11.13L95.21 11.13Q95.91 11.13 96.48 10.79L96.48 10.79L96.48 10.79Q97.05 10.44 97.37 9.85L97.37 9.85L97.37 9.85Q97.69 9.25 97.69 8.51L97.69 8.51L97.69 8.51Q97.69 7.77 97.37 7.17L97.37 7.17L97.37 7.17Q97.05 6.57 96.48 6.22L96.48 6.22L96.48 6.22Q95.91 5.88 95.21 5.88L95.21 5.88L95.21 5.88Q94.51 5.88 93.95 6.22L93.95 6.22L93.95 6.22Q93.38 6.57 93.05 7.17L93.05 7.17L93.05 7.17Q92.72 7.77 92.72 8.51L92.72 8.51L92.72 8.51Q92.72 9.25 93.05 9.85L93.05 9.85L93.05 9.85Q93.38 10.44 93.95 10.79L93.95 10.79L93.95 10.79Q94.51 11.13 95.21 11.13L95.21 11.13ZM107.51 4.66L107.51 4.66Q107.83 4.66 108.02 4.86L108.02 4.86L108.02 4.86Q108.22 5.05 108.22 5.38L108.22 5.38L108.22 11.62L108.22 11.62Q108.22 11.93 108.02 12.13L108.02 12.13L108.02 12.13Q107.83 12.33 107.51 12.33L107.51 12.33L107.51 12.33Q107.20 12.33 107.00 12.13L107.00 12.13L107.00 12.13Q106.79 11.93 106.79 11.62L106.79 11.62L106.79 11.47L106.79 11.47Q106.34 11.91 105.73 12.16L105.73 12.16L105.73 12.16Q105.11 12.40 104.41 12.40L104.41 12.40L104.41 12.40Q103.45 12.40 102.68 11.98L102.68 11.98L102.68 11.98Q101.91 11.56 101.47 10.76L101.47 10.76L101.47 10.76Q101.04 9.95 101.04 8.82L101.04 8.82L101.04 5.38L101.04 5.38Q101.04 5.07 101.24 4.86L101.24 4.86L101.24 4.86Q101.44 4.66 101.75 4.66L101.75 4.66L101.75 4.66Q102.06 4.66 102.26 4.86L102.26 4.86L102.26 4.86Q102.47 5.07 102.47 5.38L102.47 5.38L102.47 8.82L102.47 8.82Q102.47 9.95 103.08 10.54L103.08 10.54L103.08 10.54Q103.68 11.12 104.69 11.12L104.69 11.12L104.69 11.12Q105.28 11.12 105.76 10.88L105.76 10.88L105.76 10.88Q106.25 10.64 106.52 10.23L106.52 10.23L106.52 10.23Q106.79 9.83 106.79 9.32L106.79 9.32L106.79 5.38L106.79 5.38Q106.79 5.05 107.00 4.86L107.00 4.86L107.00 4.86Q107.20 4.66 107.51 4.66L107.51 4.66ZM114.00 10.93L114.00 10.93Q114.25 10.93 114.43 11.13L114.43 11.13L114.43 11.13Q114.60 11.33 114.60 11.63L114.60 11.63L114.60 11.63Q114.60 11.94 114.37 12.14L114.37 12.14L114.37 12.14Q114.14 12.33 113.78 12.33L113.78 12.33L113.53 12.33L113.53 12.33Q112.84 12.33 112.27 11.98L112.27 11.98L112.27 11.98Q111.71 11.62 111.38 11.00L111.38 11.00L111.38 11.00Q111.06 10.39 111.06 9.62L111.06 9.62L111.06 6.16L110.42 6.16L110.42 6.16Q110.12 6.16 109.94 5.99L109.94 5.99L109.94 5.99Q109.76 5.82 109.76 5.57L109.76 5.57L109.76 5.57Q109.76 5.29 109.94 5.12L109.94 5.12L109.94 5.12Q110.12 4.96 110.42 4.96L110.42 4.96L111.06 4.96L111.06 2.94L111.06 2.94Q111.06 2.63 111.26 2.44L111.26 2.44L111.26 2.44Q111.45 2.24 111.76 2.24L111.76 2.24L111.76 2.24Q112.07 2.24 112.27 2.44L112.27 2.44L112.27 2.44Q112.46 2.63 112.46 2.94L112.46 2.94L112.46 4.96L113.65 4.96L113.65 4.96Q113.95 4.96 114.13 5.12L114.13 5.12L114.13 5.12Q114.31 5.29 114.31 5.57L114.31 5.57L114.31 5.57Q114.31 5.82 114.13 5.99L114.13 5.99L114.13 5.99Q113.95 6.16 113.65 6.16L113.65 6.16L112.46 6.16L112.46 9.62L112.46 9.62Q112.46 10.18 112.77 10.56L112.77 10.56L112.77 10.56Q113.08 10.93 113.53 10.93L113.53 10.93L114.00 10.93ZM120.16 4.61L120.16 4.61Q121.13 4.61 121.90 5.03L121.90 5.03L121.90 5.03Q122.67 5.45 123.10 6.25L123.10 6.25L123.10 6.25Q123.54 7.06 123.54 8.19L123.54 8.19L123.54 11.63L123.54 11.63Q123.54 11.94 123.33 12.14L123.33 12.14L123.33 12.14Q123.13 12.35 122.82 12.35L122.82 12.35L122.82 12.35Q122.51 12.35 122.31 12.14L122.31 12.14L122.31 12.14Q122.11 11.94 122.11 11.63L122.11 11.63L122.11 8.19L122.11 8.19Q122.11 7.06 121.50 6.47L121.50 6.47L121.50 6.47Q120.89 5.89 119.88 5.89L119.88 5.89L119.88 5.89Q119.29 5.89 118.81 6.13L118.81 6.13L118.81 6.13Q118.33 6.37 118.06 6.78L118.06 6.78L118.06 6.78Q117.78 7.18 117.78 7.69L117.78 7.69L117.78 11.63L117.78 11.63Q117.78 11.94 117.59 12.14L117.59 12.14L117.59 12.14Q117.39 12.35 117.07 12.35L117.07 12.35L117.07 12.35Q116.76 12.35 116.56 12.14L116.56 12.14L116.56 12.14Q116.35 11.94 116.35 11.63L116.35 11.63L116.35 2.11L116.35 2.11Q116.35 1.79 116.56 1.60L116.56 1.60L116.56 1.60Q116.76 1.40 117.07 1.40L117.07 1.40L117.07 1.40Q117.39 1.40 117.59 1.60L117.59 1.60L117.59 1.60Q117.78 1.79 117.78 2.11L117.78 2.11L117.78 5.54L117.78 5.54Q118.23 5.10 118.85 4.85L118.85 4.85L118.85 4.85Q119.46 4.61 120.16 4.61L120.16 4.61ZM129.39 4.62L129.39 4.62Q130.49 4.62 131.37 5.12L131.37 5.12L131.37 5.12Q132.24 5.61 132.74 6.50L132.74 6.50L132.74 6.50Q133.24 7.38 133.24 8.51L133.24 8.51L133.24 8.51Q133.24 9.63 132.75 10.51L132.75 10.51L132.75 10.51Q132.26 11.40 131.38 11.89L131.38 11.89L131.38 11.89Q130.51 12.39 129.39 12.39L129.39 12.39L129.39 12.39Q128.27 12.39 127.39 11.89L127.39 11.89L127.39 11.89Q126.50 11.40 126.01 10.51L126.01 10.51L126.01 10.51Q125.52 9.63 125.52 8.51L125.52 8.51L125.52 8.51Q125.52 7.38 126.01 6.50L126.01 6.50L126.01 6.50Q126.50 5.61 127.39 5.12L127.39 5.12L127.39 5.12Q128.27 4.62 129.39 4.62L129.39 4.62ZM129.39 5.88L129.39 5.88Q128.67 5.88 128.11 6.22L128.11 6.22L128.11 6.22Q127.54 6.55 127.22 7.15L127.22 7.15L127.22 7.15Q126.90 7.76 126.90 8.51L126.90 8.51L126.90 8.51Q126.90 9.27 127.22 9.86L127.22 9.86L127.22 9.86Q127.54 10.46 128.11 10.79L128.11 10.79L128.11 10.79Q128.67 11.13 129.39 11.13L129.39 11.13L129.39 11.13Q130.10 11.13 130.67 10.79L130.67 10.79L130.67 10.79Q131.24 10.46 131.55 9.86L131.55 9.86L131.55 9.86Q131.87 9.27 131.87 8.51L131.87 8.51L131.87 8.51Q131.87 7.76 131.55 7.15L131.55 7.15L131.55 7.15Q131.24 6.55 130.67 6.22L130.67 6.22L130.67 6.22Q130.10 5.88 129.39 5.88L129.39 5.88ZM139.12 4.59L139.12 4.59Q139.86 4.59 140.28 4.82L140.28 4.82L140.28 4.82Q140.70 5.04 140.70 5.38L140.70 5.38L140.70 5.38Q140.70 5.47 140.69 5.52L140.69 5.52L140.69 5.52Q140.56 5.96 140.13 5.96L140.13 5.96L140.13 5.96Q140.06 5.96 139.92 5.94L139.92 5.94L139.92 5.94Q139.36 5.84 139.01 5.84L139.01 5.84L139.01 5.84Q138.00 5.84 137.38 6.30L137.38 6.30L137.38 6.30Q136.77 6.76 136.77 7.55L136.77 7.55L136.77 11.63L136.77 11.63Q136.77 11.97 136.59 12.15L136.59 12.15L136.59 12.15Q136.42 12.33 136.07 12.33L136.07 12.33L136.07 12.33Q135.73 12.33 135.55 12.16L135.55 12.16L135.55 12.16Q135.37 11.98 135.37 11.63L135.37 11.63L135.37 5.38L135.37 5.38Q135.37 5.04 135.55 4.86L135.55 4.86L135.55 4.86Q135.73 4.68 136.07 4.68L136.07 4.68L136.07 4.68Q136.77 4.68 136.77 5.38L136.77 5.38L136.77 5.64L136.77 5.64Q137.19 5.15 137.80 4.87L137.80 4.87L137.80 4.87Q138.42 4.59 139.12 4.59L139.12 4.59ZM142.31 5.39L142.31 5.39Q142.31 5.07 142.51 4.87L142.51 4.87L142.51 4.87Q142.72 4.68 143.02 4.68L143.02 4.68L143.02 4.68Q143.35 4.68 143.54 4.87L143.54 4.87L143.54 4.87Q143.74 5.07 143.74 5.39L143.74 5.39L143.74 11.62L143.74 11.62Q143.74 11.93 143.54 12.13L143.54 12.13L143.54 12.13Q143.35 12.33 143.02 12.33L143.02 12.33L143.02 12.33Q142.72 12.33 142.51 12.13L142.51 12.13L142.51 12.13Q142.31 11.93 142.31 11.62L142.31 11.62L142.31 5.39ZM143.02 1.58L143.02 1.58Q143.40 1.58 143.68 1.85L143.68 1.85L143.68 1.85Q143.95 2.13 143.95 2.51L143.95 2.51L143.95 2.51Q143.95 2.88 143.68 3.16L143.68 3.16L143.68 3.16Q143.40 3.43 143.02 3.43L143.02 3.43L143.02 3.43Q142.65 3.43 142.37 3.16L142.37 3.16L142.37 3.16Q142.10 2.88 142.10 2.51L142.10 2.51L142.10 2.51Q142.10 2.13 142.37 1.85L142.37 1.85L142.37 1.85Q142.65 1.58 143.02 1.58L143.02 1.58ZM151.48 11.02L151.48 11.02Q152.14 11.02 152.14 11.68L152.14 11.68L152.14 11.68Q152.14 12.33 151.48 12.33L151.48 12.33L146.71 12.33L146.71 12.33Q146.05 12.33 146.05 11.68L146.05 11.68L146.05 11.68Q146.05 11.40 146.17 11.23L146.17 11.23L150.14 5.99L146.57 5.99L146.57 5.99Q145.91 5.99 145.91 5.33L145.91 5.33L145.91 5.33Q145.91 4.68 146.57 4.68L146.57 4.68L151.34 4.68L151.34 4.68Q152.00 4.68 152.00 5.33L152.00 5.33L152.00 5.33Q152.00 5.61 151.87 5.78L151.87 5.78L147.92 11.02L151.48 11.02ZM160.83 8.39L160.83 8.39Q160.83 8.65 160.65 8.83L160.65 8.83L160.65 8.83Q160.47 9.00 160.19 9.00L160.19 9.00L154.87 9.00L154.87 9.00Q155.02 9.98 155.76 10.58L155.76 10.58L155.76 10.58Q156.49 11.19 157.56 11.19L157.56 11.19L157.56 11.19Q157.98 11.19 158.43 11.03L158.43 11.03L158.43 11.03Q158.89 10.88 159.18 10.65L159.18 10.65L159.18 10.65Q159.38 10.50 159.64 10.50L159.64 10.50L159.64 10.50Q159.91 10.50 160.06 10.64L160.06 10.64L160.06 10.64Q160.31 10.85 160.31 11.12L160.31 11.12L160.31 11.12Q160.31 11.37 160.09 11.54L160.09 11.54L160.09 11.54Q159.61 11.91 158.91 12.15L158.91 12.15L158.91 12.15Q158.20 12.39 157.56 12.39L157.56 12.39L157.56 12.39Q156.41 12.39 155.50 11.89L155.50 11.89L155.50 11.89Q154.59 11.40 154.08 10.51L154.08 10.51L154.08 10.51Q153.57 9.63 153.57 8.51L153.57 8.51L153.57 8.51Q153.57 7.39 154.05 6.50L154.05 6.50L154.05 6.50Q154.53 5.61 155.39 5.12L155.39 5.12L155.39 5.12Q156.25 4.62 157.35 4.62L157.35 4.62L157.35 4.62Q158.42 4.62 159.21 5.10L159.21 5.10L159.21 5.10Q159.99 5.57 160.41 6.43L160.41 6.43L160.41 6.43Q160.83 7.28 160.83 8.39L160.83 8.39ZM157.35 5.82L157.35 5.82Q156.32 5.82 155.69 6.38L155.69 6.38L155.69 6.38Q155.05 6.94 154.88 7.88L154.88 7.88L159.54 7.88L159.54 7.88Q159.42 6.94 158.84 6.38L158.84 6.38L158.84 6.38Q158.27 5.82 157.35 5.82L157.35 5.82ZM169.26 1.40L169.26 1.40Q169.58 1.40 169.78 1.60L169.78 1.60L169.78 1.60Q169.97 1.79 169.97 2.11L169.97 2.11L169.97 8.50L169.97 8.50Q169.97 9.59 169.46 10.48L169.46 10.48L169.46 10.48Q168.95 11.37 168.08 11.88L168.08 11.88L168.08 11.88Q167.20 12.39 166.12 12.39L166.12 12.39L166.12 12.39Q165.05 12.39 164.16 11.88L164.16 11.88L164.16 11.88Q163.27 11.37 162.76 10.48L162.76 10.48L162.76 10.48Q162.26 9.59 162.26 8.50L162.26 8.50L162.26 8.50Q162.26 7.41 162.73 6.52L162.73 6.52L162.73 6.52Q163.20 5.63 164.02 5.12L164.02 5.12L164.02 5.12Q164.84 4.62 165.84 4.62L165.84 4.62L165.84 4.62Q166.66 4.62 167.36 4.96L167.36 4.96L167.36 4.96Q168.06 5.29 168.55 5.89L168.55 5.89L168.55 2.11L168.55 2.11Q168.55 1.79 168.75 1.60L168.75 1.60L168.75 1.60Q168.95 1.40 169.26 1.40L169.26 1.40ZM166.12 11.13L166.12 11.13Q166.82 11.13 167.39 10.79L167.39 10.79L167.39 10.79Q167.96 10.44 168.28 9.84L168.28 9.84L168.28 9.84Q168.60 9.24 168.60 8.50L168.60 8.50L168.60 8.50Q168.60 7.76 168.28 7.16L168.28 7.16L168.28 7.16Q167.96 6.57 167.39 6.22L167.39 6.22L167.39 6.22Q166.82 5.88 166.12 5.88L166.12 5.88L166.12 5.88Q165.42 5.88 164.86 6.22L164.86 6.22L164.86 6.22Q164.29 6.57 163.96 7.16L163.96 7.16L163.96 7.16Q163.63 7.76 163.63 8.50L163.63 8.50L163.63 8.50Q163.63 9.24 163.96 9.84L163.96 9.84L163.96 9.84Q164.29 10.44 164.86 10.79L164.86 10.79L164.86 10.79Q165.42 11.13 166.12 11.13L166.12 11.13Z"></path>
    </g>
    <g stroke="none" fill="#0D5382"
       transform="matrix(0.5627433657646179,0,0,0.5627433657646179,121.86255195741302,101.85162400991365)">
        <path d="M24.658 63.846h2.69c.256-1.225.613-2.42 1.079-3.565a38.896 38.896 0 0 1 2.978-5.854h-6.747c-.944 0-1.709.765-1.709 1.709v6.001c0 .944.765 1.709 1.709 1.709zM75.746 63.846a1.71 1.71 0 0 0 1.709-1.709v-6.001c0-.944-.765-1.709-1.709-1.709h-2.667c.653 3.071 1.12 6.261 1.259 9.419h1.408zM27.044 65.667H11.038c-.944 0-1.709.765-1.709 1.71v6c0 .944.765 1.709 1.709 1.709h16.721c-.847-3.088-1.097-6.32-.715-9.419zM89.717 66.421H74.378c-.044 2.728-.371 5.397-1.068 7.912h16.407a.956.956 0 0 0 .955-.956v-6a.958.958 0 0 0-.955-.956zM30.998 82.201a24.022 24.022 0 0 1-2.771-5.599h-3.568c-.944 0-1.709.765-1.709 1.709v6c0 .944.765 1.709 1.709 1.709h9.632a20.624 20.624 0 0 1-3.293-3.819zM75.746 76.602h-3.185c-.27.696-.571 1.377-.912 2.04a19.376 19.376 0 0 1-6.584 7.379h10.681c.944 0 1.709-.765 1.709-1.709v-6a1.708 1.708 0 0 0-1.709-1.71zM70.308 77.953a22.345 22.345 0 0 0 1.198-2.859l.001-.006c.084-.25.165-.5.24-.754.741-2.493 1.082-5.168 1.128-7.912.004-.25.005-.502.005-.754l-.001-.314c-.002-.146-.002-.292-.006-.439l-.009-.314a47.874 47.874 0 0 0-.026-.754c-.145-3.152-.626-6.347-1.296-9.419-.055-.252-.113-.503-.17-.754a87.298 87.298 0 0 0-2.287-8.065c-3.704-11.049-9.39-21.531-14.064-28.579 1.127 8.263.679 13.837-1.326 16.212-.666.79-1.504 1.207-2.425 1.207-2.046 0-4.191-2.069-5.566-5.134-1.915 10.688-5.65 15.695-9.273 20.549-.74.993-1.489 1.997-2.228 3.056a57.994 57.994 0 0 0-1.013 1.508 38.129 38.129 0 0 0-3.366 6.422c-.39.958-.697 1.963-.925 2.997-.023.104-.044.209-.065.314-.029.146-.06.292-.086.44-.019.104-.035.209-.052.314a30.89 30.89 0 0 0-.069.439c-.014.104-.029.209-.042.314-.393 3.081-.124 6.34.768 9.42l.002.006c.072.25.147.5.229.748l.002.006c.082.25.167.5.258.747l.002.007a21.977 21.977 0 0 0 2.403 4.758c1.265 1.879 2.758 3.441 4.431 4.661.372.271.754.518 1.142.754.449.273.908.527 1.378.754 2.183 1.053 4.587 1.605 7.133 1.605 4.57 0 8.564-.538 11.971-1.605.724-.227 1.42-.479 2.09-.754a22.832 22.832 0 0 0 1.659-.754c3.691-1.863 6.451-4.555 8.255-8.068zm-5.249-10.557v6a1.708 1.708 0 0 1-1.71 1.709H35.318a1.71 1.71 0 0 1-1.71-1.709v-6a1.71 1.71 0 0 1 1.709-1.709H63.35a1.709 1.709 0 0 1 1.709 1.709zm5.827-1.416l-2.561.008a1.41 1.41 0 0 0-1.408 1.408v5.994a1.452 1.452 0 0 0 .036.308c.002.012.008.024.011.036l.002.007a1.34 1.34 0 0 0 .062.198c.167.387.507.683.937.801l.006.001c.11.03.226.047.346.051.021.001.042.004.062.004h.97l-.072.29-.001.006-.076.309h-.82c-.021 0-.042-.003-.062-.003a2.118 2.118 0 0 1-.829-.191l-.001.002-.021-.013a1.98 1.98 0 0 1-.186-.102 1.99 1.99 0 0 1-.945-1.422 2.058 2.058 0 0 1-.021-.263l-.001-.012v-6.001a2.01 2.01 0 0 1 2.01-2.011h2.661l-.047.282-.052.313zm-.877-11.252l-18.369.019a1.41 1.41 0 0 0-1.408 1.408v6a1.41 1.41 0 0 0 1.408 1.408h19.346v.603H51.64c-.041 0-.082-.004-.122-.006a2.01 2.01 0 0 1-1.888-2.005v-6a2.013 2.013 0 0 1 2.01-2.011l18.24-.019.064.301.065.302zm-38.864 8.835h15.521a1.41 1.41 0 0 0 1.408-1.408v-6a1.41 1.41 0 0 0-1.408-1.408H34.451l.161-.32.141-.283h11.914a2.013 2.013 0 0 1 2.011 2.011v6a2.005 2.005 0 0 1-1.888 2.005c-.041.002-.081.006-.122.006H31.031l.06-.32.054-.283zm.049 11.285a7.853 7.853 0 0 1-.088-.278c.381-.252.633-.684.633-1.174v-6c0-.776-.682-1.408-1.458-1.408l.026-.321.024-.282a2.012 2.012 0 0 1 2.011 2.011v6c0 .268-.057.518-.152.746a2.09 2.09 0 0 1-.806.952c-.027.018-.052.038-.081.054l-.02-.054a9.196 9.196 0 0 1-.089-.246zm7.281 10.89h8.191a1.41 1.41 0 0 0 1.408-1.408v-6a1.41 1.41 0 0 0-1.408-1.408H32.342l-.149-.32-.132-.283h14.605a2.015 2.015 0 0 1 2.011 2.011v6a2.015 2.015 0 0 1-2.01 2.011h-6.984l-.641-.321-.567-.282zm13.165 0h7.393l-.706.282-.802.321H51.64a2.013 2.013 0 0 1-2.01-2.011v-6a2.002 2.002 0 0 1 .998-1.735 2.004 2.004 0 0 1 1.013-.276h17.312l-.142.283-.16.32H51.64a1.41 1.41 0 0 0-1.408 1.408v6a1.41 1.41 0 0 0 1.408 1.408z"></path>
        <path d="M63.35 66.29H35.318c-.609 0-1.105.496-1.105 1.106v6c0 .61.497 1.107 1.105 1.107H63.35c.61 0 1.106-.497 1.106-1.107v-6c0-.61-.497-1.106-1.106-1.106zM46.621 10.866c-.309 4.184-3.545 5.891.921 11.118 1.425-2.214 1.155-8.339-.921-11.118z"></path>
    </g><!---->
</svg>
