<svg xmlns="http://www.w3.org/2000/svg" viewBox="0 80 300 140">
    <g id="5a2e962d-02d3-48ef-893e-c674b17a42b1" fill="#2E3946"
       transform="matrix(2.3969759941101074,0,0,2.3969759941101074,16.979810142586075,172.77062767981863)">
        <path d="M5.11 4.62L5.11 4.62Q6.19 4.62 7.08 5.13L7.08 5.13L7.08 5.13Q7.97 5.64 8.47 6.53L8.47 6.53L8.47 6.53Q8.97 7.42 8.97 8.51L8.97 8.51L8.97 8.51Q8.97 9.60 8.51 10.49L8.51 10.49L8.51 10.49Q8.04 11.38 7.22 11.89L7.22 11.89L7.22 11.89Q6.40 12.39 5.39 12.39L5.39 12.39L5.39 12.39Q4.58 12.39 3.88 12.05L3.88 12.05L3.88 12.05Q3.18 11.72 2.69 11.12L2.69 11.12L2.69 14.90L2.69 14.90Q2.69 15.22 2.49 15.41L2.49 15.41L2.49 15.41Q2.30 15.61 1.97 15.61L1.97 15.61L1.97 15.61Q1.67 15.61 1.46 15.41L1.46 15.41L1.46 15.41Q1.26 15.22 1.26 14.90L1.26 14.90L1.26 8.51L1.26 8.51Q1.26 7.42 1.77 6.53L1.77 6.53L1.77 6.53Q2.28 5.64 3.16 5.13L3.16 5.13L3.16 5.13Q4.03 4.62 5.11 4.62L5.11 4.62ZM5.11 11.13L5.11 11.13Q5.81 11.13 6.38 10.79L6.38 10.79L6.38 10.79Q6.94 10.44 7.27 9.85L7.27 9.85L7.27 9.85Q7.60 9.25 7.60 8.51L7.60 8.51L7.60 8.51Q7.60 7.77 7.27 7.17L7.27 7.17L7.27 7.17Q6.94 6.57 6.38 6.22L6.38 6.22L6.38 6.22Q5.81 5.88 5.11 5.88L5.11 5.88L5.11 5.88Q4.41 5.88 3.84 6.22L3.84 6.22L3.84 6.22Q3.28 6.57 2.95 7.17L2.95 7.17L2.95 7.17Q2.63 7.77 2.63 8.51L2.63 8.51L2.63 8.51Q2.63 9.25 2.95 9.85L2.95 9.85L2.95 9.85Q3.28 10.44 3.84 10.79L3.84 10.79L3.84 10.79Q4.41 11.13 5.11 11.13L5.11 11.13ZM14.57 4.62L14.57 4.62Q15.68 4.62 16.55 5.12L16.55 5.12L16.55 5.12Q17.43 5.61 17.93 6.50L17.93 6.50L17.93 6.50Q18.42 7.38 18.42 8.51L18.42 8.51L18.42 8.51Q18.42 9.63 17.93 10.51L17.93 10.51L17.93 10.51Q17.44 11.40 16.57 11.89L16.57 11.89L16.57 11.89Q15.69 12.39 14.57 12.39L14.57 12.39L14.57 12.39Q13.45 12.39 12.57 11.89L12.57 11.89L12.57 11.89Q11.69 11.40 11.20 10.51L11.20 10.51L11.20 10.51Q10.71 9.63 10.71 8.51L10.71 8.51L10.71 8.51Q10.71 7.38 11.20 6.50L11.20 6.50L11.20 6.50Q11.69 5.61 12.57 5.12L12.57 5.12L12.57 5.12Q13.45 4.62 14.57 4.62L14.57 4.62ZM14.57 5.88L14.57 5.88Q13.86 5.88 13.29 6.22L13.29 6.22L13.29 6.22Q12.73 6.55 12.40 7.15L12.40 7.15L12.40 7.15Q12.08 7.76 12.08 8.51L12.08 8.51L12.08 8.51Q12.08 9.27 12.40 9.86L12.40 9.86L12.40 9.86Q12.73 10.46 13.29 10.79L13.29 10.79L13.29 10.79Q13.86 11.13 14.57 11.13L14.57 11.13L14.57 11.13Q15.29 11.13 15.86 10.79L15.86 10.79L15.86 10.79Q16.42 10.46 16.74 9.86L16.74 9.86L16.74 9.86Q17.05 9.27 17.05 8.51L17.05 8.51L17.05 8.51Q17.05 7.76 16.74 7.15L16.74 7.15L16.74 7.15Q16.42 6.55 15.86 6.22L15.86 6.22L15.86 6.22Q15.29 5.88 14.57 5.88L14.57 5.88ZM20.27 2.10L20.27 2.10Q20.27 1.79 20.47 1.60L20.47 1.60L20.47 1.60Q20.66 1.40 20.97 1.40L20.97 1.40L20.97 1.40Q21.28 1.40 21.48 1.60L21.48 1.60L21.48 1.60Q21.67 1.79 21.67 2.10L21.67 2.10L21.67 9.74L21.67 9.74Q21.67 10.26 21.87 10.60L21.87 10.60L21.87 10.60Q22.06 10.93 22.37 10.93L22.37 10.93L22.72 10.93L22.72 10.93Q23.00 10.93 23.18 11.13L23.18 11.13L23.18 11.13Q23.35 11.33 23.35 11.63L23.35 11.63L23.35 11.63Q23.35 11.94 23.09 12.14L23.09 12.14L23.09 12.14Q22.82 12.33 22.40 12.33L22.40 12.33L22.37 12.33L22.37 12.33Q21.77 12.33 21.29 12.00L21.29 12.00L21.29 12.00Q20.80 11.68 20.54 11.08L20.54 11.08L20.54 11.08Q20.27 10.49 20.27 9.74L20.27 9.74L20.27 2.10ZM30.60 4.75L30.60 4.75Q31.04 4.91 31.04 5.29L31.04 5.29L31.04 5.29Q31.04 5.43 30.95 5.63L30.95 5.63L26.67 15.26L26.67 15.26Q26.50 15.69 26.12 15.69L26.12 15.69L26.12 15.69Q25.98 15.69 25.79 15.61L25.79 15.61L25.79 15.61Q25.37 15.43 25.37 15.06L25.37 15.06L25.37 15.06Q25.37 14.90 25.45 14.73L25.45 14.73L26.85 11.58L23.70 5.60L23.70 5.60Q23.63 5.47 23.63 5.31L23.63 5.31L23.63 5.31Q23.63 5.12 23.74 4.97L23.74 4.97L23.74 4.97Q23.86 4.82 24.04 4.73L24.04 4.73L24.04 4.73Q24.16 4.68 24.32 4.68L24.32 4.68L24.32 4.68Q24.71 4.68 24.91 5.07L24.91 5.07L27.47 10.16L29.72 5.08L29.72 5.08Q29.90 4.68 30.27 4.68L30.27 4.68L30.27 4.68Q30.45 4.68 30.60 4.75L30.60 4.75ZM35.77 4.62L35.77 4.62Q36.85 4.62 37.72 5.13L37.72 5.13L37.72 5.13Q38.60 5.64 39.11 6.53L39.11 6.53L39.11 6.53Q39.62 7.42 39.62 8.51L39.62 8.51L39.62 11.63L39.62 11.63Q39.62 11.94 39.42 12.14L39.42 12.14L39.42 12.14Q39.21 12.35 38.91 12.35L38.91 12.35L38.91 12.35Q38.60 12.35 38.40 12.14L38.40 12.14L38.40 12.14Q38.19 11.94 38.19 11.63L38.19 11.63L38.19 11.12L38.19 11.12Q37.70 11.72 37.00 12.05L37.00 12.05L37.00 12.05Q36.30 12.39 35.49 12.39L35.49 12.39L35.49 12.39Q34.48 12.39 33.66 11.89L33.66 11.89L33.66 11.89Q32.84 11.38 32.38 10.49L32.38 10.49L32.38 10.49Q31.91 9.60 31.91 8.51L31.91 8.51L31.91 8.51Q31.91 7.42 32.41 6.53L32.41 6.53L32.41 6.53Q32.91 5.64 33.80 5.13L33.80 5.13L33.80 5.13Q34.69 4.62 35.77 4.62L35.77 4.62ZM35.77 11.13L35.77 11.13Q36.47 11.13 37.04 10.79L37.04 10.79L37.04 10.79Q37.60 10.44 37.93 9.85L37.93 9.85L37.93 9.85Q38.25 9.25 38.25 8.51L38.25 8.51L38.25 8.51Q38.25 7.77 37.93 7.17L37.93 7.17L37.93 7.17Q37.60 6.57 37.04 6.22L37.04 6.22L37.04 6.22Q36.47 5.88 35.77 5.88L35.77 5.88L35.77 5.88Q35.07 5.88 34.50 6.22L34.50 6.22L34.50 6.22Q33.94 6.57 33.61 7.17L33.61 7.17L33.61 7.17Q33.28 7.77 33.28 8.51L33.28 8.51L33.28 8.51Q33.28 9.25 33.61 9.85L33.61 9.85L33.61 9.85Q33.94 10.44 34.50 10.79L34.50 10.79L34.50 10.79Q35.07 11.13 35.77 11.13L35.77 11.13ZM47.56 11.26L47.56 11.26Q47.75 11.47 47.75 11.75L47.75 11.75L47.75 11.75Q47.75 12.00 47.58 12.17L47.58 12.17L47.58 12.17Q47.40 12.33 47.12 12.33L47.12 12.33L47.12 12.33Q46.79 12.33 46.62 12.11L46.62 12.11L44.39 9.45L42.28 12.11L42.28 12.11Q42.07 12.33 41.78 12.33L41.78 12.33L41.78 12.33Q41.50 12.33 41.34 12.17L41.34 12.17L41.34 12.17Q41.17 12.00 41.17 11.75L41.17 11.75L41.17 11.75Q41.17 11.47 41.37 11.23L41.37 11.23L43.54 8.51L41.23 5.78L41.23 5.78Q41.02 5.53 41.02 5.25L41.02 5.25L41.02 5.25Q41.02 5.01 41.18 4.84L41.18 4.84L41.18 4.84Q41.34 4.68 41.64 4.68L41.64 4.68L41.64 4.68Q41.97 4.68 42.17 4.91L42.17 4.91L44.46 7.66L46.52 4.91L46.52 4.91Q46.70 4.68 47.04 4.68L47.04 4.68L47.04 4.68Q47.32 4.68 47.48 4.85L47.48 4.85L47.48 4.85Q47.64 5.03 47.64 5.28L47.64 5.28L47.64 5.28Q47.64 5.59 47.45 5.84L47.45 5.84L45.33 8.60L47.56 11.26ZM53.02 4.62L53.02 4.62Q54.12 4.62 55.00 5.12L55.00 5.12L55.00 5.12Q55.87 5.61 56.37 6.50L56.37 6.50L56.37 6.50Q56.87 7.38 56.87 8.51L56.87 8.51L56.87 8.51Q56.87 9.63 56.38 10.51L56.38 10.51L56.38 10.51Q55.89 11.40 55.01 11.89L55.01 11.89L55.01 11.89Q54.14 12.39 53.02 12.39L53.02 12.39L53.02 12.39Q51.90 12.39 51.02 11.89L51.02 11.89L51.02 11.89Q50.13 11.40 49.64 10.51L49.64 10.51L49.64 10.51Q49.15 9.63 49.15 8.51L49.15 8.51L49.15 8.51Q49.15 7.38 49.64 6.50L49.64 6.50L49.64 6.50Q50.13 5.61 51.02 5.12L51.02 5.12L51.02 5.12Q51.90 4.62 53.02 4.62L53.02 4.62ZM53.02 5.88L53.02 5.88Q52.30 5.88 51.74 6.22L51.74 6.22L51.74 6.22Q51.17 6.55 50.85 7.15L50.85 7.15L50.85 7.15Q50.53 7.76 50.53 8.51L50.53 8.51L50.53 8.51Q50.53 9.27 50.85 9.86L50.85 9.86L50.85 9.86Q51.17 10.46 51.74 10.79L51.74 10.79L51.74 10.79Q52.30 11.13 53.02 11.13L53.02 11.13L53.02 11.13Q53.73 11.13 54.30 10.79L54.30 10.79L54.30 10.79Q54.87 10.46 55.18 9.86L55.18 9.86L55.18 9.86Q55.50 9.27 55.50 8.51L55.50 8.51L55.50 8.51Q55.50 7.76 55.18 7.15L55.18 7.15L55.18 7.15Q54.87 6.55 54.30 6.22L54.30 6.22L54.30 6.22Q53.73 5.88 53.02 5.88L53.02 5.88ZM62.80 4.61L62.80 4.61Q63.77 4.61 64.54 5.03L64.54 5.03L64.54 5.03Q65.31 5.45 65.74 6.25L65.74 6.25L65.74 6.25Q66.18 7.06 66.18 8.19L66.18 8.19L66.18 11.63L66.18 11.63Q66.18 11.94 65.98 12.14L65.98 12.14L65.98 12.14Q65.77 12.35 65.46 12.35L65.46 12.35L65.46 12.35Q65.16 12.35 64.95 12.14L64.95 12.14L64.95 12.14Q64.75 11.94 64.75 11.63L64.75 11.63L64.75 8.19L64.75 8.19Q64.75 7.06 64.14 6.47L64.14 6.47L64.14 6.47Q63.53 5.89 62.52 5.89L62.52 5.89L62.52 5.89Q61.94 5.89 61.45 6.13L61.45 6.13L61.45 6.13Q60.97 6.37 60.70 6.78L60.70 6.78L60.70 6.78Q60.42 7.18 60.42 7.69L60.42 7.69L60.42 11.63L60.42 11.63Q60.42 11.94 60.23 12.14L60.23 12.14L60.23 12.14Q60.03 12.35 59.71 12.35L59.71 12.35L59.71 12.35Q59.40 12.35 59.20 12.14L59.20 12.14L59.20 12.14Q59.00 11.94 59.00 11.63L59.00 11.63L59.00 5.39L59.00 5.39Q59.00 5.07 59.20 4.87L59.20 4.87L59.20 4.87Q59.40 4.68 59.71 4.68L59.71 4.68L59.71 4.68Q60.03 4.68 60.23 4.87L60.23 4.87L60.23 4.87Q60.42 5.07 60.42 5.39L60.42 5.39L60.42 5.54L60.42 5.54Q60.87 5.10 61.49 4.85L61.49 4.85L61.49 4.85Q62.10 4.61 62.80 4.61L62.80 4.61ZM79.52 8.39L79.52 8.39Q79.52 8.65 79.34 8.83L79.34 8.83L79.34 8.83Q79.16 9.00 78.88 9.00L78.88 9.00L73.56 9.00L73.56 9.00Q73.71 9.98 74.45 10.58L74.45 10.58L74.45 10.58Q75.18 11.19 76.24 11.19L76.24 11.19L76.24 11.19Q76.66 11.19 77.12 11.03L77.12 11.03L77.12 11.03Q77.57 10.88 77.87 10.65L77.87 10.65L77.87 10.65Q78.06 10.50 78.33 10.50L78.33 10.50L78.33 10.50Q78.60 10.50 78.75 10.64L78.75 10.64L78.75 10.64Q79.00 10.85 79.00 11.12L79.00 11.12L79.00 11.12Q79.00 11.37 78.78 11.54L78.78 11.54L78.78 11.54Q78.30 11.91 77.60 12.15L77.60 12.15L77.60 12.15Q76.89 12.39 76.24 12.39L76.24 12.39L76.24 12.39Q75.10 12.39 74.19 11.89L74.19 11.89L74.19 11.89Q73.28 11.40 72.77 10.51L72.77 10.51L72.77 10.51Q72.25 9.63 72.25 8.51L72.25 8.51L72.25 8.51Q72.25 7.39 72.74 6.50L72.74 6.50L72.74 6.50Q73.22 5.61 74.08 5.12L74.08 5.12L74.08 5.12Q74.94 4.62 76.03 4.62L76.03 4.62L76.03 4.62Q77.11 4.62 77.90 5.10L77.90 5.10L77.90 5.10Q78.68 5.57 79.10 6.43L79.10 6.43L79.10 6.43Q79.52 7.28 79.52 8.39L79.52 8.39ZM76.03 5.82L76.03 5.82Q75.01 5.82 74.38 6.38L74.38 6.38L74.38 6.38Q73.74 6.94 73.57 7.88L73.57 7.88L78.23 7.88L78.23 7.88Q78.11 6.94 77.53 6.38L77.53 6.38L77.53 6.38Q76.96 5.82 76.03 5.82L76.03 5.82ZM85.09 4.59L85.09 4.59Q85.83 4.59 86.25 4.82L86.25 4.82L86.25 4.82Q86.67 5.04 86.67 5.38L86.67 5.38L86.67 5.38Q86.67 5.47 86.66 5.52L86.66 5.52L86.66 5.52Q86.53 5.96 86.10 5.96L86.10 5.96L86.10 5.96Q86.03 5.96 85.89 5.94L85.89 5.94L85.89 5.94Q85.33 5.84 84.98 5.84L84.98 5.84L84.98 5.84Q83.97 5.84 83.36 6.30L83.36 6.30L83.36 6.30Q82.74 6.76 82.74 7.55L82.74 7.55L82.74 11.63L82.74 11.63Q82.74 11.97 82.57 12.15L82.57 12.15L82.57 12.15Q82.39 12.33 82.04 12.33L82.04 12.33L82.04 12.33Q81.70 12.33 81.52 12.16L81.52 12.16L81.52 12.16Q81.34 11.98 81.34 11.63L81.34 11.63L81.34 5.38L81.34 5.38Q81.34 5.04 81.52 4.86L81.52 4.86L81.52 4.86Q81.70 4.68 82.04 4.68L82.04 4.68L82.04 4.68Q82.74 4.68 82.74 5.38L82.74 5.38L82.74 5.64L82.74 5.64Q83.16 5.15 83.78 4.87L83.78 4.87L83.78 4.87Q84.39 4.59 85.09 4.59L85.09 4.59ZM91.90 4.59L91.90 4.59Q92.64 4.59 93.06 4.82L93.06 4.82L93.06 4.82Q93.48 5.04 93.48 5.38L93.48 5.38L93.48 5.38Q93.48 5.47 93.46 5.52L93.46 5.52L93.46 5.52Q93.34 5.96 92.90 5.96L92.90 5.96L92.90 5.96Q92.83 5.96 92.69 5.94L92.69 5.94L92.69 5.94Q92.13 5.84 91.78 5.84L91.78 5.84L91.78 5.84Q90.78 5.84 90.16 6.30L90.16 6.30L90.16 6.30Q89.54 6.76 89.54 7.55L89.54 7.55L89.54 11.63L89.54 11.63Q89.54 11.97 89.37 12.15L89.37 12.15L89.37 12.15Q89.19 12.33 88.84 12.33L88.84 12.33L88.84 12.33Q88.51 12.33 88.33 12.16L88.33 12.16L88.33 12.16Q88.14 11.98 88.14 11.63L88.14 11.63L88.14 5.38L88.14 5.38Q88.14 5.04 88.33 4.86L88.33 4.86L88.33 4.86Q88.51 4.68 88.84 4.68L88.84 4.68L88.84 4.68Q89.54 4.68 89.54 5.38L89.54 5.38L89.54 5.64L89.54 5.64Q89.96 5.15 90.58 4.87L90.58 4.87L90.58 4.87Q91.20 4.59 91.90 4.59L91.90 4.59ZM98.42 4.62L98.42 4.62Q99.53 4.62 100.40 5.12L100.40 5.12L100.40 5.12Q101.28 5.61 101.77 6.50L101.77 6.50L101.77 6.50Q102.27 7.38 102.27 8.51L102.27 8.51L102.27 8.51Q102.27 9.63 101.78 10.51L101.78 10.51L101.78 10.51Q101.29 11.40 100.42 11.89L100.42 11.89L100.42 11.89Q99.54 12.39 98.42 12.39L98.42 12.39L98.42 12.39Q97.30 12.39 96.42 11.89L96.42 11.89L96.42 11.89Q95.54 11.40 95.05 10.51L95.05 10.51L95.05 10.51Q94.56 9.63 94.56 8.51L94.56 8.51L94.56 8.51Q94.56 7.38 95.05 6.50L95.05 6.50L95.05 6.50Q95.54 5.61 96.42 5.12L96.42 5.12L96.42 5.12Q97.30 4.62 98.42 4.62L98.42 4.62ZM98.42 5.88L98.42 5.88Q97.71 5.88 97.14 6.22L97.14 6.22L97.14 6.22Q96.57 6.55 96.25 7.15L96.25 7.15L96.25 7.15Q95.93 7.76 95.93 8.51L95.93 8.51L95.93 8.51Q95.93 9.27 96.25 9.86L96.25 9.86L96.25 9.86Q96.57 10.46 97.14 10.79L97.14 10.79L97.14 10.79Q97.71 11.13 98.42 11.13L98.42 11.13L98.42 11.13Q99.13 11.13 99.70 10.79L99.70 10.79L99.70 10.79Q100.27 10.46 100.58 9.86L100.58 9.86L100.58 9.86Q100.90 9.27 100.90 8.51L100.90 8.51L100.90 8.51Q100.90 7.76 100.58 7.15L100.58 7.15L100.58 7.15Q100.27 6.55 99.70 6.22L99.70 6.22L99.70 6.22Q99.13 5.88 98.42 5.88L98.42 5.88ZM108.15 4.59L108.15 4.59Q108.89 4.59 109.31 4.82L109.31 4.82L109.31 4.82Q109.73 5.04 109.73 5.38L109.73 5.38L109.73 5.38Q109.73 5.47 109.72 5.52L109.72 5.52L109.72 5.52Q109.59 5.96 109.16 5.96L109.16 5.96L109.16 5.96Q109.09 5.96 108.95 5.94L108.95 5.94L108.95 5.94Q108.39 5.84 108.04 5.84L108.04 5.84L108.04 5.84Q107.03 5.84 106.41 6.30L106.41 6.30L106.41 6.30Q105.80 6.76 105.80 7.55L105.80 7.55L105.80 11.63L105.80 11.63Q105.80 11.97 105.62 12.15L105.62 12.15L105.62 12.15Q105.45 12.33 105.10 12.33L105.10 12.33L105.10 12.33Q104.76 12.33 104.58 12.16L104.58 12.16L104.58 12.16Q104.40 11.98 104.40 11.63L104.40 11.63L104.40 5.38L104.40 5.38Q104.40 5.04 104.58 4.86L104.58 4.86L104.58 4.86Q104.76 4.68 105.10 4.68L105.10 4.68L105.10 4.68Q105.80 4.68 105.80 5.38L105.80 5.38L105.80 5.64L105.80 5.64Q106.22 5.15 106.83 4.87L106.83 4.87L106.83 4.87Q107.45 4.59 108.15 4.59L108.15 4.59Z"></path>
    </g>
    <g stroke="none" fill="#0D5382"
       transform="matrix(1.1417629718780518,0,0,1.1417629718780518,118.60151888539994,89.62081861994817)">
        <path d="M44.253 33.143C49.267 31.663 55 21.852 55 13.542 55 4.529 51.828 0 43 0c-7.946 0-11.31 3.668-11.902 10.973C35.763 12.746 38 16.94 38 23.542c0 2.042-.295 4.176-.813 6.254 1.17 1.351 2.412 2.392 3.634 2.984-.1.46-.224.964-.344 1.311-.313.901-1.201 2.673-1.201 2.673s1.636.459 2.516.57c1.051.134 3.277.166 3.277.166s-.54-1.743-.664-2.555c-.076-.495-.123-1.195-.152-1.802zM15.058 36.28c-.605.394-1.21.687-1.805.863.029.607.076 1.307.152 1.802.124.812.664 2.555.664 2.555s-2.226-.032-3.277-.166c-.88-.111-2.516-.57-2.516-.57s.888-1.772 1.2-2.673c.121-.347.245-.852.345-1.31C5.054 34.468 0 25.343 0 17.54 0 8.53 3.172 4 12 4c5.92 0 9.296 2.036 10.878 6.095C15.502 10.79 12 15.284 12 23.542c0 4.179.971 8.932 3.058 12.738zm28.656-2.519c.424.116.708.35 1.039.557.79.497 1.682 1.693 1.945 3.029.087.444.115.941.09 1.488-.033.717-.15 1.465-.35 2.37a125.14 125.14 0 0 1-.23.997c-.08.352-.122.566-.138.735-.087.874-1.13 4.79-1.138 8.649-.007 3.755 1.018 6.453 1.069 7.234a25.464 25.464 0 0 0 .069.844.377.377 0 1 0 .75-.083 24.714 24.714 0 0 1-.066-.81c-.055-.841-1.08-4.24-1.064-8.344v-.186c.015-3.36 1.056-6.48 1.13-7.23.013-.127.05-.319.124-.64-.019.082.174-.744.231-1.004.208-.944.331-1.73.367-2.497a6.978 6.978 0 0 0-.104-1.669c-.3-1.528-1.261-2.88-2.284-3.522-.398-.25-.74-.48-1.231-.615-.072-.02-3.088-.274-3.088-.274l-.137.687s2.205.062 3.016.284zM26.253 44.143C31.267 42.663 37 32.852 37 24.542 37 15.529 33.828 11 25 11s-12 4.529-12 13.542c0 7.802 5.054 16.927 9.821 19.238-.1.46-.224.964-.344 1.311-.313.901-1.201 2.673-1.201 2.673s1.636.459 2.516.57c1.051.134 3.277.166 3.277.166s-.54-1.743-.664-2.555c-.076-.495-.123-1.195-.152-1.802zm-13.54-6.382c.425.116.709.35 1.04.557.79.497 1.682 1.693 1.945 3.029.087.444.115.941.09 1.488-.033.717-.15 1.465-.35 2.37a125.14 125.14 0 0 1-.23.997c-.08.352-.122.566-.138.735-.087.874-1.13 4.79-1.138 8.649-.007 3.755.742 2.944.758-1.159v-.186c.015-3.36 1.056-6.48 1.13-7.23.013-.127.05-.319.124-.64-.019.082.174-.744.231-1.004.208-.944.331-1.73.367-2.497a6.978 6.978 0 0 0-.104-1.669c-.3-1.528-1.261-2.88-2.284-3.522-.398-.25-.74-.48-1.231-.615-.072-.02-3.088-.274-3.088-.274l-.137.687s2.205.062 3.016.284zm13 7c.425.116.709.35 1.04.557.79.497 1.682 1.693 1.945 3.029.087.444.115.941.09 1.488-.033.717-.15 1.465-.35 2.37a125.14 125.14 0 0 1-.23.997c-.08.352-.122.566-.138.735a29.262 29.262 0 0 0 0 5.727.377.377 0 1 0 .75-.083 24.714 24.714 0 0 1-.066-.81c-.1-1.545-.1-3.081.066-4.76.013-.127.05-.319.124-.64-.019.082.174-.744.231-1.004.208-.944.331-1.73.367-2.497a6.978 6.978 0 0 0-.104-1.669c-.3-1.528-1.261-2.88-2.284-3.522-.398-.25-.74-.48-1.231-.615-.072-.02-3.088-.274-3.088-.274l-.137.687s2.205.062 3.016.284z"></path>
    </g>
</svg>
