<svg width="381" height="51" viewBox="0 0 381 51" fill="none" xmlns="http://www.w3.org/2000/svg">
<path d="M7.44754 37.243V18.0894C7.44754 12.2592 10.3626 8.92889 15.9842 8.92889C21.6057 8.92889 24.5208 12.2592 24.5208 18.0894V21.211H19.108V17.7242C19.108 15.1221 17.9623 14.133 16.1407 14.133C14.319 14.133 13.1734 15.1221 13.1734 17.7242V37.6604C13.1734 40.2625 14.319 41.1994 16.1407 41.1994C17.9623 41.1994 19.108 40.2625 19.108 37.6604V30.5302H16.245V25.3239H24.5208V37.243C24.5208 43.0732 21.6057 46.4035 15.9842 46.4035C10.3626 46.4035 7.44754 43.0732 7.44754 37.243Z" fill="white"/>
<path d="M38.9398 9.44629H46.0178L51.7958 31.2563V9.44629H56.8978V45.8818H51.1197L44.0418 19.2829V45.8818H38.9398V9.44629Z" fill="white"/>
<path d="M63.0889 37.243V18.0894C63.0889 12.2592 66.1605 8.92889 71.782 8.92889C77.4035 8.92889 80.4752 12.2592 80.4752 18.0894V37.243C80.4752 43.0732 77.4035 46.4035 71.782 46.4035C66.1605 46.4035 63.0889 43.0732 63.0889 37.243ZM74.7493 37.606V17.722C74.7493 15.12 73.6037 14.1309 71.782 14.1309C69.9603 14.1309 68.8147 15.12 68.8147 17.722V37.606C68.8147 40.2081 69.9603 41.1972 71.782 41.1972C73.6037 41.1972 74.7493 40.2081 74.7493 37.606Z" fill="white"/>
<path d="M85.0554 9.44629H90.8334L94.6333 38.0756L98.4331 9.44629H103.689L98.1723 45.8818H90.5726L85.0554 9.44629Z" fill="white"/>
<path d="M118.68 38.7517H112.07L111.08 45.8818H105.772L111.707 9.44629H119.463L125.397 45.8818H119.671L118.682 38.7517H118.68ZM117.952 33.8062L115.35 15.433L112.8 33.8062H117.952Z" fill="white"/>
<path d="M31.3988 13.1483C33.8936 13.1483 35.916 11.1259 35.916 8.63111C35.916 6.13632 33.8936 4.11389 31.3988 4.11389C28.904 4.11389 26.8816 6.13632 26.8816 8.63111C26.8816 11.1259 28.904 13.1483 31.3988 13.1483Z" fill="white"/>
</svg>
