<svg width="198" height="54" viewBox="0 0 198 54" fill="none" xmlns="http://www.w3.org/2000/svg">
<g filter="url(#filter0_d_91_67)">
<mask id="mask0_91_67" style="mask-type:luminance" maskUnits="userSpaceOnUse" x="4" y="4" width="100" height="40">
<path d="M104 4H4V44H104V4Z" fill="white"/>
</mask>
<g mask="url(#mask0_91_67)">
<mask id="mask1_91_67" style="mask-type:luminance" maskUnits="userSpaceOnUse" x="4" y="5" width="188" height="35">
<path d="M192 5H4V40H192V5Z" fill="white"/>
</mask>
<g mask="url(#mask1_91_67)">
<path d="M11.1615 8.98358C6.44615 8.98358 4 11.7415 4 16.5631V32.4165C4 37.2419 6.44615 39.996 11.1615 39.996C15.8768 39.996 18.3269 37.238 18.3269 32.4165V22.5522H11.3817V26.8618H13.7846V32.7617C13.7846 34.9145 12.825 35.6903 11.2952 35.6903C9.76537 35.6903 8.80579 34.9145 8.80579 32.7617V16.2644C8.80579 14.1116 9.76537 13.2931 11.2952 13.2931C12.825 13.2931 13.7846 14.1116 13.7846 16.2644V19.1504H18.3269V16.567C18.3269 11.7415 15.8808 8.98746 11.1615 8.98746V8.98358Z" fill="white"/>
<path d="M41.2113 27.4629L36.3662 9.41406H30.4238V39.5692H34.7066V17.556L40.645 39.5692H45.494V9.41406H41.2113V27.4629Z" fill="white"/>
<path d="M57.9847 8.98358C53.2693 8.98358 50.6895 11.7415 50.6895 16.5631V32.4165C50.6895 37.2419 53.2654 39.9999 57.9847 39.9999C62.7039 39.9999 65.2799 37.2419 65.2799 32.4165V16.5631C65.2799 11.7377 62.7039 8.98358 57.9847 8.98358ZM60.4741 32.719C60.4741 34.8719 59.5145 35.6903 57.9847 35.6903C56.4548 35.6903 55.4952 34.8719 55.4952 32.719V16.2644C55.4952 14.1077 56.4548 13.2931 57.9847 13.2931C59.5145 13.2931 60.4741 14.1116 60.4741 16.2644V32.719Z" fill="white"/>
<path d="M77.1566 33.5539L73.9711 9.86111H69.1221L73.7509 40.0163H80.1258L84.7586 9.86111H80.3461L77.1566 33.5539Z" fill="white"/>
<path d="M91.4827 9.86108L86.5039 40.0162H90.9597L91.7895 34.1163H97.3346L98.1644 40.0162H102.966L97.9875 9.86108H91.4827ZM92.3991 30.0201L94.5385 14.8145L96.7251 30.0201H92.403H92.3991Z" fill="white"/>
<path d="M24.0968 5C22.0046 5 20.3057 6.67184 20.3057 8.73933C20.3057 10.8068 22.0046 12.4787 24.0968 12.4787C26.189 12.4787 27.888 10.8029 27.888 8.73933C27.888 6.67572 26.193 5 24.0968 5Z" fill="white"/>
</g>
</g>
<path d="M137 5H142.725V36.1943H152.151V41.3874H137V5Z" fill="white"/>
<path d="M154.899 5H160.624V41.3874H154.899V5Z" fill="white"/>
<path d="M164.897 5H170.622V41.3874H164.897V5Z" fill="white"/>
<path d="M179.321 5H187.081L193.02 41.3874H187.295L186.26 34.1622V34.2692H179.75L178.714 41.3874H173.406L179.345 5H179.321ZM185.57 29.3256L183.023 11.3339H182.916L180.416 29.3256H185.57Z" fill="white"/>
<path d="M119 0V46" stroke="white" stroke-opacity="0.4" stroke-width="2"/>
</g>
<defs>
<filter id="filter0_d_91_67" x="0" y="0" width="202" height="54" filterUnits="userSpaceOnUse" color-interpolation-filters="sRGB">
<feFlood flood-opacity="0" result="BackgroundImageFix"/>
<feColorMatrix in="SourceAlpha" type="matrix" values="0 0 0 0 0 0 0 0 0 0 0 0 0 0 0 0 0 0 127 0" result="hardAlpha"/>
<feOffset dy="4"/>
<feGaussianBlur stdDeviation="2"/>
<feComposite in2="hardAlpha" operator="out"/>
<feColorMatrix type="matrix" values="0 0 0 0 0 0 0 0 0 0 0 0 0 0 0 0 0 0 0.25 0"/>
<feBlend mode="normal" in2="BackgroundImageFix" result="effect1_dropShadow_91_67"/>
<feBlend mode="normal" in="SourceGraphic" in2="effect1_dropShadow_91_67" result="shape"/>
</filter>
</defs>
</svg>
