<?xml version="1.0" encoding="UTF-8" standalone="no"?>
<!DOCTYPE svg PUBLIC "-//W3C//DTD SVG 1.1//EN" "http://www.w3.org/Graphics/SVG/1.1/DTD/svg11.dtd">
<svg width="100%" height="100%" viewBox="0 0 620 111" version="1.1" xmlns="http://www.w3.org/2000/svg" xmlns:xlink="http://www.w3.org/1999/xlink" xml:space="preserve" xmlns:serif="http://www.serif.com/" style="fill-rule:evenodd;clip-rule:evenodd;stroke-miterlimit:10;">
    <g id="Artboard1" transform="matrix(0.982657,0,0,0.96472,-60.9085,-314.626)">
        <rect x="61.983" y="326.132" width="630.85" height="114.85" style="fill:none;"/>
        <clipPath id="_clip1">
            <rect x="61.983" y="326.132" width="630.85" height="114.85"/>
        </clipPath>
        <g clip-path="url(#_clip1)">
            <g transform="matrix(1.01765,0,0,1.03657,-8.65725,-14.6498)">
                <g>
                    <g>
                        <g>
                            <g>
                                <g>
                                    <circle cx="153.3" cy="355.2" r="20.2" style="fill:rgb(25,46,134);stroke:rgb(25,46,134);stroke-width:10px;"/>
                                    <path d="M167.6,398.5C159.7,390.6 146.9,390.6 139,398.5C131.6,405.9 119.9,406.4 111.9,399.9C111.4,399.3 110.9,398.7 110.4,398.2C102.5,390.3 102.5,377.5 110.4,369.6C118.3,361.7 118.3,348.9 110.4,341C102.5,333.1 89.7,333.1 81.8,341C73.9,348.9 73.9,361.7 81.8,369.6C89.7,377.5 89.7,390.3 81.8,398.2C77.1,402.9 75.2,409.4 76.1,415.5C76.6,419.8 78.6,423.9 81.9,427.2C89.8,435.1 102.6,435.1 110.5,427.2C118.4,419.3 131.2,419.3 139.1,427.2C147,435.1 159.8,435.1 167.7,427.2C175.5,419.2 175.5,406.4 167.6,398.5Z" style="fill:rgb(42,76,223);fill-rule:nonzero;stroke:rgb(42,76,223);stroke-width:10px;"/>
                                </g>
                            </g>
                        </g>
                        <g>
                            <g>
                                <path d="M194.4,433.9L194.4,337.3L219.4,337.3C224.4,346.3 229.5,355.4 234.7,364.6C239.9,373.8 244.9,382.9 250,391.9L250,337.3L274.4,337.3L274.4,433.9L249.4,433.9C244.4,424.9 239.3,415.8 234.1,406.6C228.9,397.4 223.9,388.3 218.8,379.3L218.8,433.9L194.4,433.9Z" style="fill:rgb(42,76,223);fill-rule:nonzero;"/>
                                <path d="M331.3,436.2C324.4,436.2 318,434.9 312.1,432.4C306.2,429.9 301.2,426.4 296.9,421.8C292.6,417.3 289.3,411.9 287,405.7C284.6,399.5 283.4,392.8 283.4,385.5C283.4,378.2 284.6,371.5 287,365.3C289.4,359.1 292.7,353.8 296.9,349.3C301.2,344.8 306.2,341.3 312.1,338.8C318,336.3 324.4,335 331.3,335C338.2,335 344.6,336.3 350.4,338.8C356.2,341.3 361.3,344.8 365.6,349.3C369.9,353.8 373.2,359.1 375.6,365.3C378,371.5 379.1,378.2 379.1,385.5C379.1,392.8 377.9,399.5 375.6,405.7C373.2,411.9 369.9,417.3 365.6,421.8C361.3,426.3 356.2,429.9 350.4,432.4C344.6,434.9 338.2,436.2 331.3,436.2ZM331.3,413.2C335.9,413.2 339.9,412 343.2,409.7C346.5,407.4 349.1,404.1 350.9,400C352.7,395.8 353.7,391 353.7,385.5C353.7,380 352.8,375.2 350.9,371.2C349.1,367.1 346.5,363.9 343.2,361.6C339.9,359.3 335.9,358.1 331.3,358.1C326.8,358.1 322.8,359.2 319.4,361.5C316,363.8 313.4,367 311.6,371.1C309.8,375.2 308.8,380 308.8,385.5C308.8,391 309.7,395.8 311.6,400C313.4,404.2 316,407.4 319.4,409.7C322.8,412 326.8,413.2 331.3,413.2Z" style="fill:rgb(42,76,223);fill-rule:nonzero;"/>
                                <path d="M388.2,433.9L388.2,337.3L423.8,337.3C426.5,347 429.3,356.7 432,366.6C434.7,376.5 437.4,386.3 440,395.9C442.6,386.2 445.3,376.5 448,366.6C450.7,356.7 453.4,346.9 456,337.3L491.1,337.3C491.2,353.2 491.3,369.3 491.4,385.6C491.5,401.9 491.6,418 491.7,433.9L467.7,433.9L467.7,368.5C464.9,379.3 462,390.2 459,401.2C456.1,412.2 453.2,423.1 450.3,433.9L428.7,433.9C425.9,423.3 423,412.6 420.2,401.7C417.4,390.9 414.5,380.1 411.7,369.5L411.7,433.9L388.2,433.9Z" style="fill:rgb(42,76,223);fill-rule:nonzero;"/>
                                <path d="M500.8,433.9C505.7,418 510.7,401.9 515.6,385.6C520.6,369.3 525.5,353.2 530.4,337.3L564.4,337.3C569.3,353.2 574.3,369.3 579.2,385.6C584.2,401.9 589.1,418 594,433.9L569,433.9C568.1,430.9 567.2,427.8 566.3,424.7C565.4,421.6 564.5,418.6 563.6,415.5L531,415.5C530.1,418.5 529.2,421.6 528.3,424.7C527.4,427.8 526.5,430.8 525.6,433.9L500.8,433.9ZM537.5,394.4L557.5,394.4C555.9,388.8 554.2,383.2 552.5,377.5C550.8,371.8 549.1,366.2 547.5,360.6C545.9,366.2 544.2,371.8 542.5,377.5C540.8,383.2 539.1,388.9 537.5,394.4Z" style="fill:rgb(42,76,223);fill-rule:nonzero;"/>
                                <path d="M604.8,433.9L604.8,337.3L639.2,337.3C646.2,337.3 652.6,338.5 658.5,340.9C664.4,343.3 669.5,346.7 673.8,351.1C678.2,355.5 681.5,360.5 684,366.4C686.4,372.2 687.6,378.6 687.6,385.5C687.6,392.4 686.4,398.8 684,404.7C681.6,410.6 678.2,415.7 673.8,420.1C669.4,424.5 664.3,427.9 658.5,430.3C652.6,432.7 646.2,433.9 639.2,433.9L604.8,433.9ZM639.2,359.8L629.7,359.8L629.7,411.4L639.2,411.4C643.9,411.4 648.1,410.3 651.6,408C655.1,405.7 657.8,402.6 659.7,398.7C661.6,394.8 662.5,390.3 662.5,385.4C662.5,380.5 661.6,376.1 659.7,372.2C657.8,368.3 655.1,365.3 651.6,363C648,360.9 643.9,359.8 639.2,359.8Z" style="fill:rgb(42,76,223);fill-rule:nonzero;"/>
                            </g>
                        </g>
                    </g>
                </g>
            </g>
        </g>
    </g>
</svg>
