<?xml version="1.0" encoding="UTF-8" standalone="no"?>
<!-- Created with Inkscape (http://www.inkscape.org/) -->

<svg
   version="1.1"
   id="svg1"
   width="145.50667"
   height="41.573334"
   viewBox="0 0 145.50667 41.573334"
   xmlns="http://www.w3.org/2000/svg"
   xmlns:svg="http://www.w3.org/2000/svg">
  <defs
     id="defs1" />
  <g
     id="g1">
    <g
       id="group-R5">
      <path
         id="path2"
         d="m 155.371,45.0547 c -19.625,0 -37.894,5.1289 -54.297,15.2539 -16.3435,10.0781 -29.3396,23.7461 -38.6248,40.6174 -9.2695,16.851 -13.9726,35.387 -13.9726,55.086 0,19.84 4.7031,38.441 13.9726,55.297 9.2813,16.867 22.2813,30.496 38.6368,40.523 16.398,10.043 34.66,15.137 54.285,15.137 15.606,0 31.274,-4.387 46.57,-13.031 14.082,-7.961 26.145,-18.973 35.899,-32.778 l 38.293,28.211 c -13.27,19.227 -30.465,34.438 -51.164,45.242 -21.852,11.414 -45.266,17.2 -69.598,17.2 -21.316,0 -41.84,-4.141 -61.0077,-12.301 C 75.1914,291.34 58.5273,280.156 44.8398,266.262 31.1406,252.355 20.125,235.609 12.0938,216.496 4.06641,197.406 0,177.059 0,156.012 0,134.969 4.06641,114.617 12.0938,95.5273 20.1211,76.418 31.1406,59.6758 44.8438,45.7656 58.5352,31.8594 75.1992,20.6367 94.375,12.4023 113.547,4.17188 134.07,0 155.371,0 c 24.488,0 47.926,5.54297 69.652,16.4727 20.555,10.3398 37.602,25.2382 50.719,44.3046 l -38.027,29.0235 c -9.977,-13.3906 -22.07,-24.1172 -36,-31.9336 -15.152,-8.5039 -30.742,-12.8125 -46.344,-12.8125"
         style="fill:#0d0906;fill-opacity:1;fill-rule:nonzero;stroke:none"
         transform="matrix(0.13333333,0,0,-0.13333333,0,41.573333)" />
      <path
         id="path3"
         d="M 355.34,77.9531 V 272.836 H 311.813 V 38.9766 H 428.738 V 77.9531 H 355.34"
         style="fill:#0d0906;fill-opacity:1;fill-rule:nonzero;stroke:none"
         transform="matrix(0.13333333,0,0,-0.13333333,0,41.573333)" />
      <path
         id="path4"
         d="M 467.719,272.836 V 38.9766 h 38.972 V 272.836 h -38.972"
         style="fill:#0d0906;fill-opacity:1;fill-rule:nonzero;stroke:none"
         transform="matrix(0.13333333,0,0,-0.13333333,0,41.573333)" />
      <path
         id="path5"
         d="M 745.793,272.836 H 716.852 L 662.383,120.184 H 661.77 L 608.055,272.836 H 578.652 L 545.668,38.9766 h 38.977 l 19.906,127.5114 v 0 L 647.457,38.9766 h 29.398 l 44.008,127.5114 v 0 L 740.551,38.9766 h 38.976 L 745.793,272.836"
         style="fill:#0d0906;fill-opacity:1;fill-rule:nonzero;stroke:none"
         transform="matrix(0.13333333,0,0,-0.13333333,0,41.573333)" />
      <path
         id="path6"
         d="M 818.504,272.836 V 38.9766 H 857.48 V 272.836 h -38.976"
         style="fill:#0d0906;fill-opacity:1;fill-rule:nonzero;stroke:none"
         transform="matrix(0.13333333,0,0,-0.13333333,0,41.573333)" />
      <path
         id="path7"
         d="m 1017.84,160.965 69.08,111.871 h -47.57 L 994.605,200.25 h -0.621 L 951,272.836 H 903.258 L 971.371,160.965 896.457,38.9766 h 47.262 l 50.265,82.1714 h 0.621 l 49.815,-82.1714 h 46.92 l -73.5,121.9884"
         style="fill:#0d0906;fill-opacity:1;fill-rule:nonzero;stroke:none"
         transform="matrix(0.13333333,0,0,-0.13333333,0,41.573333)" />
      <path
         id="path8"
         d="m 214.188,176.945 c -22.817,3.047 -44.223,8.703 -63.633,16.809 -6.961,-13.293 -12.782,-27.746 -17.301,-42.981 -1.613,-5.429 -3.074,-11.031 -4.34,-16.664 15.613,-5.714 32.524,-9.816 50.27,-12.191 15.703,-2.082 31.191,-2.691 46.035,-1.816 l 0.5,0.031 c 5.461,10.644 8.551,22.691 8.551,35.465 0,6.761 -0.872,13.316 -2.497,19.566 l -0.277,0.02 c -5.648,0.39 -11.473,0.98 -17.308,1.761"
         style="fill:#0e7b3f;fill-opacity:1;fill-rule:nonzero;stroke:none"
         transform="matrix(0.13333333,0,0,-0.13333333,0,41.573333)" />
      <path
         id="path9"
         d="m 79.2695,148.004 c -0.3086,0.23 -0.6054,0.457 -0.9023,0.684 2.1172,-24.04 15.1719,-44.95 34.1798,-57.7466 0.285,11.8246 1.586,24.0626 3.871,36.4026 -13.941,5.781 -26.4375,12.73 -37.1485,20.66"
         style="fill:#0e7b3f;fill-opacity:1;fill-rule:nonzero;stroke:none"
         transform="matrix(0.13333333,0,0,-0.13333333,0,41.573333)" />
      <path
         id="path10"
         d="m 155.852,203.285 c 18.253,-7.492 38.363,-12.73 59.781,-15.574 3.953,-0.531 8.09,-0.984 12.312,-1.356 -9.418,21.868 -28.55,38.563 -51.98,44.668 l -0.285,-0.32 c -7.145,-8.027 -13.813,-17.25 -19.828,-27.418"
         style="fill:#0e7b3f;fill-opacity:1;fill-rule:nonzero;stroke:none"
         transform="matrix(0.13333333,0,0,-0.13333333,0,41.573333)" />
      <path
         id="path11"
         d="m 145.875,207.723 c 5.402,9.269 11.336,17.836 17.645,25.488 -2.426,0.23 -4.879,0.348 -7.356,0.348 -13.562,0 -26.309,-3.454 -37.414,-9.524 1.074,-0.812 2.086,-1.562 3.074,-2.269 7.172,-5.118 15.262,-9.84 24.051,-14.043"
         style="fill:#0e7b3f;fill-opacity:1;fill-rule:nonzero;stroke:none"
         transform="matrix(0.13333333,0,0,-0.13333333,0,41.573333)" />
      <path
         id="path12"
         d="m 85.75,156.723 c 9.5352,-7.063 20.609,-13.301 32.93,-18.559 1.203,5.188 2.593,10.465 4.144,15.695 4.649,15.657 10.633,30.575 17.801,44.348 -9.187,4.418 -17.641,9.371 -25.145,14.731 -2.359,1.695 -4.398,3.246 -6.234,4.734 l -0.16,0.129 C 92.0039,204.898 80.3828,185.145 78.3711,162.617 l 0.457,-0.39 c 2.168,-1.852 4.5,-3.704 6.9219,-5.504"
         style="fill:#0e7b3f;fill-opacity:1;fill-rule:nonzero;stroke:none"
         transform="matrix(0.13333333,0,0,-0.13333333,0,41.573333)" />
      <path
         id="path13"
         d="m 177.738,111.164 c -17.863,2.387 -35.004,6.484 -50.965,12.184 -2.32,-13.008 -3.468,-25.8246 -3.418,-38.1097 l 0.004,-0.3945 c 9.977,-4.6094 21.09,-7.1915 32.805,-7.1915 25.613,0 48.336,12.3047 62.59,31.3247 -2.199,-0.075 -4.461,-0.11 -6.906,-0.11 -11.188,0 -22.664,0.774 -34.11,2.297"
         style="fill:#0e7b3f;fill-opacity:1;fill-rule:nonzero;stroke:none"
         transform="matrix(0.13333333,0,0,-0.13333333,0,41.573333)" />
    </g>
  </g>
</svg>
