<?xml version="1.0" encoding="UTF-8" standalone="no"?>
<svg
   width="90.858604mm"
   height="97.2108mm"
   viewBox="0 0 90.858605 97.210801"
   version="1.1"
   id="cmem-plugin-yaml-logo"
   xmlns="http://www.w3.org/2000/svg">
  <polygon
     points="258,1 258,19 318,109 1,109 73,1 "
     style="fill:none"
     id="polygon917"
     transform="matrix(0.34619443,0,0,0.29034981,-4.3086414,20.230882)" />
  <polygon
     points="1,109 37,55 1,1 25,1 49,37 73,1 97,1 25,109 "
     id="polygon919"
     transform="matrix(0.34619443,0,0,0.29034981,17.540734,16.920369)" />
  <polygon
     points="103,37 103,109 127,109 127,1 103,1 31,109 55,109 "
     id="polygon921"
     transform="matrix(0.34619443,0,0,0.29034981,17.540734,16.920369)" />
  <polygon
     points="156,1 132,1 132,109 156,109 156,37 180,73 204,37 204,109 228,109 228,1 198,1 180,37 "
     id="polygon923"
     transform="matrix(0.34619443,0,0,0.29034981,-28.14433,50.025498)" />
  <polygon
     points="258,1 234,1 234,109 318,109 302,85 258,85 "
     id="polygon925"
     transform="matrix(0.34619443,0,0,0.29034981,-28.14433,50.025498)" />
</svg>
